<svg viewBox="0 0 64 64" xmlns="http://www.w3.org/2000/svg"><path d="M52 37c0 3.3-2.7 6-6 6H18c-3.3 0-6-2.7-6-6v-8c0-3.3 2.7-6 6-6h28c3.3 0 6 2.7 6 6z" opacity=".1"/><path d="M52 36c0 3.3-2.7 6-6 6H18c-3.3 0-6-2.7-6-6v-8c0-3.3 2.7-6 6-6h28c3.3 0 6 2.7 6 6z" fill="#fff"/><path d="M18 24c-2.206 0-4 1.794-4 4v8c0 2.206 1.794 4 4 4h28c2.206 0 4-1.794 4-4v-8c0-2.206-1.794-4-4-4zm32 26v2z" fill="#bdc3c7"/><path d="M41.18 38a.999.999 0 0 1-.707-1.707L43.766 33l-3.293-3.293a.999.999 0 1 1 1.414-1.414L46.594 33l-4.707 4.707a.999.999 0 0 1-.707.293z" opacity=".1"/><path d="M41.18 37a.999.999 0 0 1-.707-1.707L43.766 32l-3.293-3.293a.999.999 0 1 1 1.414-1.414L46.594 32l-4.707 4.707a.999.999 0 0 1-.707.293z" fill="#fff"/></svg>