<svg viewBox="0 0 64 64" xmlns="http://www.w3.org/2000/svg"><path d="M52 20c0 1.1-.9 2-2 2H14c-1.1 0-2-.9-2-2v-4c0-1.1.9-2 2-2h36c1.1 0 2 .9 2 2zm0 14c0 1.1-.9 2-2 2H14c-1.1 0-2-.9-2-2v-4c0-1.1.9-2 2-2h36c1.1 0 2 .9 2 2zm0 14c0 1.1-.9 2-2 2h-8c-1.1 0-2-.9-2-2v-4c0-1.1.9-2 2-2h8c1.1 0 2 .9 2 2zm-16 0c0 1.1-.9 2-2 2h-8c-1.1 0-2-.9-2-2v-4c0-1.1.9-2 2-2h8c1.1 0 2 .9 2 2z" opacity=".1"/><path d="M52 19c0 1.1-.9 2-2 2H14c-1.1 0-2-.9-2-2v-4c0-1.1.9-2 2-2h36c1.1 0 2 .9 2 2zm0 14c0 1.1-.9 2-2 2H14c-1.1 0-2-.9-2-2v-4c0-1.1.9-2 2-2h36c1.1 0 2 .9 2 2z" fill="#fff"/><path d="M52 47c0 1.1-.9 2-2 2h-8c-1.1 0-2-.9-2-2v-4c0-1.1.9-2 2-2h8c1.1 0 2 .9 2 2zm-16 0c0 1.1-.9 2-2 2h-8c-1.1 0-2-.9-2-2v-4c0-1.1.9-2 2-2h8c1.1 0 2 .9 2 2z" fill="#bdc3c7"/></svg>