<svg viewBox="0 0 256 164" xmlns="http://www.w3.org/2000/svg"><path d="M254 164H2a2 2 0 0 1-2-2V2a2 2 0 0 1 2-2h252a2 2 0 0 1 2 2v160a2 2 0 0 1-2 2z" fill="#ccc"/><path d="M254 163H2a1 1 0 0 1-1-1V2a1 1 0 0 1 1-1h252a1 1 0 0 1 1 1v160a1 1 0 0 1-1 1z" fill="#f5f5f5"/><path d="M186 141c0 1.1-.9 2-2 2H72c-1.1 0-2-.9-2-2V25c0-1.1.9-2 2-2h112c1.1 0 2 .9 2 2z" opacity=".04"/><path d="M186 140c0 1.1-.9 2-2 2H72c-1.1 0-2-.9-2-2V24c0-1.1.9-2 2-2h112c1.1 0 2 .9 2 2z" fill="#ccc"/><path d="M185 140c0 .55-.45 1-1 1H72c-.55 0-1-.45-1-1V24c0-.55.45-1 1-1h112c.55 0 1 .45 1 1z" fill="#fff"/><path d="M140 57.143a.86.86 0 0 1-.857.857h-22.286a.86.86 0 0 1-.857-.857V34.857a.86.86 0 0 1 .857-.857h22.286a.86.86 0 0 1 .857.857z" fill="#ebebeb"/><path d="M175 93c0 .55-.45 1-1 1H81c-.55 0-1-.45-1-1V83c0-.55.45-1 1-1h93c.55 0 1 .45 1 1z" fill="#c8cacc"/><path d="M174 83v10H81V83z" fill="#fff"/><path d="M175 112c0 .55-.45 1-1 1H81c-.55 0-1-.45-1-1v-10c0-.55.45-1 1-1h93c.55 0 1 .45 1 1z" fill="#c8cacc"/><path d="M174 102v10H81v-10z" fill="#fff"/><g fill="#ccc"><path d="M176 130c0 .55-.45 1-1 1H81c-.55 0-1-.45-1-1v-9c0-.55.45-1 1-1h94c.55 0 1 .45 1 1zm-71.41-64.025h1.33l2.75 7.14h-1.34l-.67-1.89h-2.85l-.67 1.89h-1.29zm-.44 4.3h2.18l-1.07-3.07h-.03zm5.07-2.33h1.08v.7h.02c.16-.3.383-.515.67-.645s.597-.195.93-.195c.406 0 .762.072 1.065.215.303.144.555.34.755.59s.35.542.45.875.15.69.15 1.07c0 .347-.045.684-.135 1.01a2.63 2.63 0 0 1-.41.865c-.184.25-.415.45-.695.6s-.61.225-.99.225c-.167 0-.333-.015-.5-.045s-.327-.079-.48-.145c-.153-.067-.295-.152-.425-.255s-.239-.225-.325-.365h-.02v2.58h-1.14zm3.98 2.59c0-.233-.03-.46-.09-.68s-.15-.415-.27-.585-.27-.306-.45-.41-.387-.155-.62-.155c-.48 0-.842.167-1.085.5-.244.333-.365.777-.365 1.33 0 .26.032.502.095.725.063.224.158.415.285.575a1.303 1.303 0 0 0 1.07.52c.26 0 .48-.054.66-.16s.329-.245.445-.415.2-.363.25-.58c.05-.216.075-.438.075-.665zm2.13-2.59h1.08v.7h.02c.16-.3.383-.515.67-.645s.597-.195.93-.195c.406 0 .762.072 1.065.215.303.144.555.34.755.59s.35.542.45.875.15.69.15 1.07c0 .347-.045.684-.135 1.01a2.63 2.63 0 0 1-.41.865c-.184.25-.415.45-.695.6s-.61.225-.99.225c-.167 0-.333-.015-.5-.045s-.327-.079-.48-.145c-.153-.067-.295-.152-.425-.255s-.239-.225-.325-.365h-.02v2.58h-1.14zm3.98 2.59c0-.233-.03-.46-.09-.68s-.15-.415-.27-.585-.27-.306-.45-.41-.387-.155-.62-.155c-.48 0-.842.167-1.085.5-.244.333-.365.777-.365 1.33 0 .26.032.502.095.725.063.224.158.415.285.575a1.303 1.303 0 0 0 1.07.52c.26 0 .48-.054.66-.16s.329-.245.445-.415.2-.363.25-.58c.05-.216.075-.438.075-.665zm2.13-4.56h1.14v7.14h-1.14zm2.41 0h1.14v1.08h-1.14zm0 1.97h1.14v5.17h-1.14zm5.87 1.73c-.046-.32-.175-.562-.385-.725s-.475-.245-.795-.245c-.147 0-.304.025-.47.075s-.32.144-.46.28c-.14.137-.257.327-.35.57s-.14.562-.14.955c0 .213.025.426.075.64.05.213.13.404.24.57a1.201 1.201 0 0 0 1.055.56c.333 0 .608-.104.825-.31.216-.207.352-.497.405-.87h1.14c-.107.673-.362 1.188-.765 1.545s-.938.535-1.605.535c-.407 0-.765-.068-1.075-.205s-.572-.323-.785-.56a2.374 2.374 0 0 1-.485-.845 3.299 3.299 0 0 1-.165-1.06c0-.387.053-.75.16-1.09s.267-.635.48-.885.478-.447.795-.59c.316-.143.688-.215 1.115-.215.3 0 .585.039.855.115s.51.191.72.345.381.347.515.58c.133.233.213.51.24.83zm6.4 2.29c0 .14.018.24.055.3s.108.09.215.09h.12c.047 0 .1-.007.16-.02v.79c-.04.014-.092.028-.155.045s-.128.031-.195.045a2.243 2.243 0 0 1-.37.04c-.233 0-.426-.047-.58-.14s-.253-.256-.3-.49c-.227.22-.505.38-.835.48s-.648.15-.955.15c-.233 0-.457-.032-.67-.095s-.402-.156-.565-.28c-.164-.124-.293-.28-.39-.47s-.145-.412-.145-.665c0-.32.059-.58.175-.78s.27-.356.46-.47c.19-.113.403-.195.64-.245.236-.05.475-.088.715-.115.207-.04.403-.068.59-.085s.352-.045.495-.085.256-.102.34-.185.125-.208.125-.375c0-.146-.035-.267-.105-.36s-.157-.165-.26-.215c-.104-.05-.219-.083-.345-.1s-.247-.025-.36-.025c-.32 0-.583.067-.79.2s-.323.34-.35.62h-1.14c.02-.333.1-.61.24-.83s.318-.396.535-.53c.216-.133.461-.227.735-.28s.553-.08.84-.08c.253 0 .503.027.75.08s.468.14.665.26.355.275.475.465.18.421.18.695zm-1.14-1.44c-.173.113-.387.182-.64.205s-.507.058-.76.105c-.12.02-.237.048-.35.085s-.213.086-.3.15c-.087.063-.155.146-.205.25s-.075.229-.075.375c0 .126.037.233.11.32s.162.155.265.205.217.085.34.105c.124.02.235.03.335.03.127 0 .264-.017.41-.05s.285-.09.415-.17.238-.182.325-.305a.776.776 0 0 0 .13-.455zm1.85-2.58h.86v-1.55h1.14v1.55h1.03v.85h-1.03v2.76c0 .12.005.224.015.31.01.087.033.16.07.22s.091.105.165.135a.81.81 0 0 0 .3.045c.08 0 .16-.001.24-.005s.16-.015.24-.035v.88c-.126.013-.25.026-.37.04s-.244.02-.37.02c-.3 0-.542-.028-.725-.085a.965.965 0 0 1-.43-.25c-.104-.11-.173-.248-.21-.415s-.058-.356-.065-.57v-3.05h-.86zm3.88-1.97h1.14v1.08h-1.14zm0 1.97h1.14v5.17h-1.14zm4.75 5.31c-.414 0-.782-.068-1.105-.205-.324-.137-.597-.325-.82-.565s-.394-.527-.51-.86a3.3 3.3 0 0 1-.175-1.1c0-.394.059-.757.175-1.09s.287-.62.51-.86.497-.428.82-.565.691-.205 1.105-.205c.413 0 .781.068 1.105.205.323.137.596.325.82.565.223.24.393.527.51.86s.175.697.175 1.09c0 .4-.059.767-.175 1.1a2.43 2.43 0 0 1-.51.86c-.224.24-.497.428-.82.565s-.691.205-1.105.205zm0-.9c.253 0 .473-.054.66-.16s.34-.247.46-.42.208-.369.265-.585a2.602 2.602 0 0 0 0-1.325c-.057-.22-.145-.415-.265-.585s-.273-.308-.46-.415a1.316 1.316 0 0 0-.66-.16 1.314 1.314 0 0 0-1.12.575c-.12.17-.208.365-.265.585a2.621 2.621 0 0 0 0 1.325c.057.216.145.412.265.585s.273.313.46.42.407.16.66.16zm3.56-4.41h1.08v.76l.02.02c.173-.287.4-.511.68-.675s.59-.245.93-.245c.566 0 1.013.147 1.34.44s.49.733.49 1.32v3.55h-1.14v-3.25c-.014-.407-.1-.702-.26-.885-.16-.184-.41-.275-.75-.275-.194 0-.367.035-.52.105a1.12 1.12 0 0 0-.39.29c-.107.124-.19.269-.25.435-.06.167-.09.344-.09.53v3.05h-1.14zM134 40h-12c-.55 0-1 .45-1 1v10c0 .55.45 1 1 1h12c.55 0 1-.45 1-1V41c0-.55-.45-1-1-1zm-12 11v-7h3v7zm12 0h-8v-3h8zm0-4h-8v-3h8zm-8-4h-4v-2h12v2z"/><circle cx="87" cy="107" r="2"/><circle cx="93" cy="107" r="2"/><circle cx="99" cy="107" r="2"/><circle cx="105" cy="107" r="2"/><circle cx="111" cy="107" r="2"/><circle cx="117" cy="107" r="2"/><circle cx="123" cy="107" r="2"/><circle cx="129" cy="107" r="2"/></g></svg>