<svg viewBox="0 0 256 164" xmlns="http://www.w3.org/2000/svg"><path d="M0 2C0 .9.9 0 2 0h252c1.1 0 2 .9 2 2v160a2 2 0 0 1-2 2H2c-1.1 0-2-.9-2-2z" fill="#c2c2c2"/><path d="M254 1H2a1 1 0 0 0-1 1v11h254V2a1 1 0 0 0-1-1zM1 14h50v12H1zm51 0h50v12H52zm51 0h50v12h-50zm51 0h50v12h-50zm51 0h50v12h-50z" fill="#ebebeb"/><path d="M1 54v108a1 1 0 0 0 1 1h46V54zm48 0h166v109H49z" fill="#fafafa"/><path d="M1 27h203v11h11v15H1z" fill="#fff"/><path d="M205 27h10v10h-10zm11 0v136h38a1 1 0 0 0 1-1V27z" fill="#fafafa"/><path d="M208 30h4v1h-4zm0 3h4v1h-4z" fill="#c2c2c2"/></svg>