<svg height="36" viewBox="64.5 0 72 36" width="72" xmlns="http://www.w3.org/2000/svg"><g opacity=".05"><path d="M89.336 19.551v.547h-4.922v-.547zm0-.274h-4.922a.274.274 0 0 0-.273.273v.547c0 .15.123.273.273.273h4.922c.15 0 .273-.123.273-.273v-.547a.274.274 0 0 0-.273-.273zm0 2.188v.547h-4.922v-.547zm0-.274h-4.922a.274.274 0 0 0-.273.273v.547c0 .15.123.273.273.273h4.922c.15 0 .273-.123.273-.273v-.547a.274.274 0 0 0-.273-.273zm0 2.188v.547h-1.094v-.547zm0-.274h-1.094a.274.274 0 0 0-.273.273v.547c0 .15.123.273.273.273h1.094c.15 0 .273-.123.273-.273v-.547a.275.275 0 0 0-.273-.273zm-2.188.274v.547h-1.094v-.547zm0-.274h-1.094a.274.274 0 0 0-.273.273v.547c0 .15.123.273.273.273h1.094c.15 0 .273-.123.273-.273v-.547a.273.273 0 0 0-.273-.273zm-15.312-3.964h-4.922a.274.274 0 0 0-.273.273v4.922c0 .15.123.273.273.273h4.922c.15 0 .273-.123.273-.273v-4.922a.274.274 0 0 0-.273-.273zm-3.828 5.195h-1.094v-4.102h1.094zm2.461 0h-2.188v-4.102h2.188zm1.367 0h-1.094v-4.102h1.094zm0-4.375h-4.922v-.547h4.922zm61.25 7.93h-4.922a.274.274 0 0 0-.273.273v4.922c0 .15.123.273.273.273h4.922c.15 0 .273-.123.273-.273v-4.922a.274.274 0 0 0-.273-.273zm-3.828 5.195h-1.094v-4.102h1.094zm3.554 0h-3.281v-.273h3.281zm0-.547h-3.281v-.273h3.281zm-.832-1.914h.552a1.369 1.369 0 0 1-2.225.921l.391-.391a.818.818 0 0 0 1.282-.53zm-.671-.945v-.552a1.369 1.369 0 0 1 1.223 1.224h-.552a.823.823 0 0 0-.671-.672zm-.274 0a.822.822 0 0 0-.532 1.284l-.391.391a1.369 1.369 0 0 1 .921-2.225v.55zm2.051-.969h-4.922v-.547h4.922zm-52.242-6.655l-1.006-1.094a.137.137 0 0 0-.101-.044h-4.073a.137.137 0 0 0-.137.137v2.188c0 .076.061.137.137.137h4.074a.139.139 0 0 0 .101-.044l1.006-1.094a.14.14 0 0 0-.001-.186zm-5.043 1.049v-1.914h.784l.88.957-.88.957zm1.155 0l.88-.957-.88-.957h1.167l.88.957-.88.957zm2.721 0h-1.184l.88-.957-.88-.957h1.184l.88.957zm44.112 6.153h-3.828a.822.822 0 0 0-.82.82v1.094c0 .451.369.82.82.82h3.828c.451 0 .82-.369.82-.82v-1.094a.822.822 0 0 0-.82-.82zm.547 1.914a.547.547 0 0 1-.547.547h-3.828a.547.547 0 0 1-.547-.547v-1.094c0-.302.245-.547.547-.547h3.828c.302 0 .547.245.547.547z"/><path d="M123.13 31.309a.144.144 0 0 1-.097-.04.137.137 0 0 1 0-.193l.45-.45-.45-.45a.137.137 0 0 1 0-.193.135.135 0 0 1 .193 0l.644.644-.644.644a.143.143 0 0 1-.096.038zM96.445 19.961h-1.641v-.273c0-.15.123-.273.273-.273h1.094c.151 0 .273.123.273.273v.273zm1.914 0h-1.641v-.273c0-.15.123-.273.273-.273h1.094c.151 0 .273.123.273.273v.273z"/><path d="M94.531 20.234v-.547a.274.274 0 0 0-.273-.273h-1.094a.273.273 0 0 0-.273.273v1.094h5.469v-.547zm-.41 1.641l1.231 1.23h-.411v1.094h-.546v-.82h-.547v.82h-.547v-1.094h-.41zm4.102-.137h-2.188a.138.138 0 0 0-.137.137v2.461c0 .075.062.137.137.137h2.188a.138.138 0 0 0 .137-.137v-2.461a.139.139 0 0 0-.137-.137zm-1.094.41a.41.41 0 1 1 0 .82.41.41 0 0 1 0-.82zm.82 1.914h-1.641v-.273h1.641zm0-.546h-1.641v-.273h1.641zm26.387-4.239h-4.922a.274.274 0 0 0-.273.273v4.375c0 .15.123.273.273.273h4.922c.15 0 .273-.123.273-.273V19.55a.274.274 0 0 0-.273-.273zm-3.828 4.512h-.957v-.82h.957zm0-1.094h-.957v-.82h.957zm0-1.093h-.957v-.82h.957zm1.23 2.187h-.957v-.82h.957zm0-1.094h-.957v-.82h.957zm0-1.093h-.957v-.82h.957zm1.231 2.187h-.957v-.82h.957zm0-1.094h-.957v-.82h.957zm0-1.093h-.957v-.82h.957zm1.23 2.187h-.957v-.82h.957zm0-1.094h-.957v-.82h.957zm0-1.093h-.957v-.82h.957zm0-1.094h-4.648v-.82h4.648zm-17.363-.684h-4.922a.274.274 0 0 0-.273.273v3.555c0 .15.123.273.273.273h4.922c.15 0 .273-.123.273-.273v-3.555a.274.274 0 0 0-.273-.273zm-2.871 3.555h-1.914v-.547h1.914zm0-.82h-1.914v-.547h1.914zm0-.821h-1.914v-.547h1.914zm0-.82h-1.914v-.547h1.914zm1.914 2.461h-1.641v-.547h1.641zm0-.82h-1.641v-.547h1.641zm0-.821h-1.641v-.547h1.641zm0-.82h-1.641v-.547h1.641zm.82 2.461h-.547v-.547h.547zm0-.82h-.547v-.547h.547zm0-.821h-.547v-.547h.547zm0-.82h-.547v-.547h.547zm3.965-1.777a.546.546 0 1 0-.001 1.093.546.546 0 0 0 .001-1.093zm0 .82c-.15 0-.273-.123-.273-.273s.123-.273.273-.273.273.123.273.273-.123.273-.273.273zm0 1.367a.546.546 0 1 0-.001 1.093.546.546 0 0 0 .001-1.093zm0 .82c-.15 0-.273-.123-.273-.273s.123-.273.273-.273.273.123.273.273-.123.273-.273.273zm0 1.368a.546.546 0 1 0-.001 1.093.546.546 0 0 0 .001-1.093zm0 .82c-.15 0-.273-.123-.273-.273s.123-.273.273-.273.273.123.273.273-.123.273-.273.273zm1.641-4.375h3.281v.273h-3.281zm0-.82h3.281v.273h-3.281zm0 3.007h3.281v.273h-3.281zm0-.82h3.281v.273h-3.281zm0 3.008h3.281v.273h-3.281zm0-.82h3.281v.273h-3.281z"/><circle cx="102.188" cy="28.711" r=".547"/><path d="M104.922 28.574h2.188v.273h-2.188zm0 1.914h2.188v.273h-2.188zm0 1.914h2.188v.273h-2.188z"/><circle cx="102.188" cy="30.625" r=".547"/><circle cx="102.188" cy="32.539" r=".547"/><circle cx="103.828" cy="28.711" r=".547"/><circle cx="103.828" cy="30.625" r=".547"/><circle cx="103.828" cy="32.539" r=".547"/><path d="M98.086 28.027h-4.922a.274.274 0 0 0-.273.273v1.094c0 .15.123.273.273.273h4.922c.15 0 .273-.123.273-.273V28.3a.274.274 0 0 0-.273-.273zm-4.375 1.094h-.273v-.547h.273zm.547 0h-.273v-.547h.273zm.547 0h-.273v-.547h.273zm2.734 0a.273.273 0 1 1 0-.547.273.273 0 0 1 0 .547zm.547.82h-4.922a.274.274 0 0 0-.273.273v1.094c0 .15.123.273.273.273h4.922c.15 0 .273-.123.273-.273v-1.094a.274.274 0 0 0-.273-.273zm-4.375 1.094h-.273v-.547h.273zm.547 0h-.273v-.547h.273zm.547 0h-.273v-.547h.273zm2.734 0a.273.273 0 1 1 0-.547.273.273 0 0 1 0 .547zm.547.82h-4.922a.274.274 0 0 0-.273.273v1.094c0 .15.123.273.273.273h4.922c.15 0 .273-.123.273-.273v-1.094a.275.275 0 0 0-.273-.273zm-4.375 1.094h-.273v-.547h.273zm.547 0h-.273v-.547h.273zm.547 0h-.273v-.547h.273zm2.734 0a.273.273 0 1 1 0-.547.273.273 0 0 1 0 .547z"/><circle cx="78.125" cy="29.121" r=".684"/><circle cx="80.039" cy="29.121" r=".684"/><circle cx="76.211" cy="29.121" r=".684"/><path d="M79.589 32.772l-.193-.193.723-.724-.723-.723.193-.194.917.917zm-2.928 0l-.917-.917.917-.917.193.194-.723.723.723.724zm-4.69-.143s-1.107-1.102-1.552-1.538a2.095 2.095 0 1 0-.587.584l1.546 1.546a.28.28 0 0 0 .395 0l.197-.197c.11-.11.11-.286.001-.395zm-4.828-2.701a1.536 1.536 0 1 1 3.071.001 1.536 1.536 0 0 1-3.071-.001zm65.943-10.787h-4.922a.274.274 0 0 0-.273.273v4.922c0 .15.123.273.273.273h4.922c.15 0 .273-.123.273-.273v-4.922a.274.274 0 0 0-.273-.273zm0 5.195h-4.922v-3.828h4.922zm0-4.102h-4.922v-.82h4.922zm-21.055 9.297h2.188c.15 0 .273-.123.273-.273v-.547h-.547a.82.82 0 1 0-1.64 0h-.547v.547c0 .15.123.273.273.273zm1.094-1.093c.15 0 .273.123.273.273s-.123.273-.273.273-.273-.123-.273-.273.123-.273.273-.273z"/><path d="M115.039 28.711h-.273v.547a.547.547 0 0 1-.547.547h-2.188a.547.547 0 0 1-.547-.547v-.547h-.273a.274.274 0 0 0-.273.273v4.102c0 .15.123.273.273.273h3.828c.15 0 .273-.123.273-.273v-4.102a.274.274 0 0 0-.273-.273zm-3.281 3.827a.273.273 0 1 1 0-.547.273.273 0 0 1 0 .547zm0-.957a.273.273 0 1 1 0-.547.273.273 0 0 1 0 .547zm0-.957a.273.273 0 1 1 0-.547.273.273 0 0 1 0 .547zm3.008 1.778h-2.188v-.273h2.188zm0-.957h-2.188v-.273h2.188zm0-.957h-2.188v-.273h2.188zm-25.962-2.597h-3.585a.396.396 0 0 0-.395.395v.426h-.41a.41.41 0 0 0-.41.41v1.094c0 .227.184.41.41.41h2.324c.075 0 .137.061.137.137v.424a.684.684 0 0 0-.547.67v1.777c0 .15.123.273.273.273h.82a.273.273 0 0 0 .273-.273v-1.777a.685.685 0 0 0-.547-.67v-.424a.41.41 0 0 0-.41-.41h-2.324a.137.137 0 0 1-.137-.137v-1.094c0-.076.062-.137.137-.137h.41v.289c0 .217.178.395.395.395h3.585a.396.396 0 0 0 .395-.395v-.988a.394.394 0 0 0-.394-.395zm-1.382 3.964v1.641a.137.137 0 0 1-.137.137h-.547a.137.137 0 0 1-.137-.137v-1.641a.41.41 0 1 1 .821 0zm1.504-2.642c0 .1-.082.182-.182.182H85.28a.183.183 0 0 1-.183-.182v-.866c0-.101.082-.183.183-.183h3.463c.101 0 .182.082.182.183v.866z"/><path d="M88.683 30.268s.205.268.205.479c0 .136-.092.205-.205.205s-.205-.068-.205-.205c0-.212.205-.479.205-.479zm35.653-28.217v.547h-4.922v-.547zm0-.274h-4.922a.274.274 0 0 0-.273.273v.547c0 .15.123.273.273.273h4.922c.15 0 .273-.123.273-.273v-.546a.274.274 0 0 0-.273-.274zm0 2.188v.547h-4.922v-.547zm0-.274h-4.922a.274.274 0 0 0-.273.273v.547c0 .15.123.273.273.273h4.922c.15 0 .273-.123.273-.273v-.546a.274.274 0 0 0-.273-.274zm0 2.188v.547h-1.094v-.547zm0-.274h-1.094a.274.274 0 0 0-.273.273v.547c0 .15.123.273.273.273h1.094c.15 0 .273-.123.273-.273v-.546a.275.275 0 0 0-.273-.274zm-2.188.274v.547h-1.094v-.547zm0-.274h-1.094a.274.274 0 0 0-.273.273v.547c0 .15.123.273.273.273h1.094c.15 0 .273-.123.273-.273v-.546a.274.274 0 0 0-.273-.274zm-15.312-3.964h-4.922a.274.274 0 0 0-.273.273v4.922c0 .15.123.273.273.273h4.922c.15 0 .273-.123.273-.273V1.914a.274.274 0 0 0-.273-.273zm-3.828 5.195h-1.094V2.734h1.094zm2.461 0h-2.188V2.734h2.188zm1.367 0h-1.094V2.734h1.094zm0-4.375h-4.922v-.547h4.922zm9.008 2.095l-1.006-1.094a.135.135 0 0 0-.101-.044h-4.073a.137.137 0 0 0-.137.137v2.188c0 .076.061.137.137.137h4.074a.138.138 0 0 0 .1-.044l1.006-1.094a.136.136 0 0 0 0-.186zm-5.043 1.049V3.691h.783l.881.957-.881.957zm1.154 0l.881-.957-.881-.957h1.168l.88.957-.88.957zm2.723 0h-1.184l.88-.957-.88-.957h1.184l.88.957zm16.767-3.144h-1.641v-.273c0-.151.123-.273.273-.273h1.094c.15 0 .273.123.273.273v.273zm1.914 0h-1.641v-.273c0-.151.123-.273.273-.273h1.094c.15 0 .273.123.273.273v.273z"/><path d="M129.531 2.734v-.546a.273.273 0 0 0-.273-.273h-1.094a.274.274 0 0 0-.273.273v1.094h5.469v-.548zm-.41 1.641l1.231 1.23h-.411v1.094h-.546v-.82h-.547v.82h-.547V5.605h-.41zm4.102-.137h-2.188a.138.138 0 0 0-.137.137v2.461c0 .075.062.137.137.137h2.188a.138.138 0 0 0 .137-.137V4.375a.139.139 0 0 0-.137-.137zm-1.094.41a.41.41 0 1 1 0 .82.41.41 0 0 1 0-.82zm.82 1.914h-1.641v-.273h1.641zm0-.546h-1.641v-.274h1.641zm.137 4.511h-4.922a.274.274 0 0 0-.273.273v1.094c0 .15.123.273.273.273h4.922c.15 0 .273-.123.273-.273V10.8a.274.274 0 0 0-.273-.273zm-4.375 1.094h-.273v-.547h.273zm.547 0h-.273v-.547h.273zm.547 0h-.273v-.547h.273zm2.734 0c-.15 0-.273-.123-.273-.273s.123-.273.273-.273.273.123.273.273-.123.273-.273.273zm.547.82h-4.922a.274.274 0 0 0-.273.273v1.094c0 .15.123.273.273.273h4.922c.15 0 .273-.123.273-.273v-1.094a.274.274 0 0 0-.273-.273zm-4.375 1.094h-.273v-.547h.273zm.547 0h-.273v-.547h.273zm.547 0h-.273v-.547h.273zm2.734 0c-.15 0-.273-.123-.273-.273s.123-.273.273-.273.273.123.273.273-.123.273-.273.273zm.547.82h-4.922a.274.274 0 0 0-.273.273v1.094c0 .15.123.273.273.273h4.922c.15 0 .273-.123.273-.273v-1.094a.275.275 0 0 0-.273-.273zm-4.375 1.094h-.273v-.547h.273zm.547 0h-.273v-.547h.273zm.547 0h-.273v-.547h.273zm2.734 0c-.15 0-.273-.123-.273-.273s.123-.273.273-.273.273.123.273.273-.123.273-.273.273z"/><circle cx="113.125" cy="11.621" r=".684"/><circle cx="115.039" cy="11.621" r=".684"/><circle cx="111.211" cy="11.621" r=".684"/><path d="M114.589 15.272l-.193-.193.723-.724-.723-.723.193-.194.917.917zm-2.928 0l-.917-.917.917-.917.193.194-.723.723.723.724zm-4.69-.144s-1.106-1.101-1.551-1.538a2.094 2.094 0 1 0-.588.583l1.547 1.546a.28.28 0 0 0 .395 0l.197-.198a.277.277 0 0 0 0-.393zm-4.828-2.7a1.536 1.536 0 1 1 3.072 0 1.536 1.536 0 0 1-3.072 0zm-4.057-2.037h-4.922a.274.274 0 0 0-.273.273v4.922c0 .15.123.273.273.273h4.922c.15 0 .273-.123.273-.273v-4.922a.274.274 0 0 0-.273-.273zm-3.828 5.195h-1.094v-4.102h1.094zm3.554 0h-3.281v-.273h3.281zm0-.547h-3.281v-.273h3.281zm-.832-1.914h.552a1.368 1.368 0 0 1-2.225.921l.391-.39a.817.817 0 0 0 1.282-.531zm-.671-.945v-.552a1.369 1.369 0 0 1 1.223 1.224h-.552a.823.823 0 0 0-.671-.672zm-.274 0a.821.821 0 0 0-.532 1.283l-.391.391a1.368 1.368 0 0 1 .921-2.225v.551zm2.051-.969h-4.922v-.547h4.922zm-9.297.547h-3.828a.822.822 0 0 0-.82.82v1.094c0 .451.369.82.82.82h3.828c.451 0 .82-.369.82-.82v-1.094a.822.822 0 0 0-.82-.82zm.547 1.914a.547.547 0 0 1-.547.547h-3.828a.547.547 0 0 1-.547-.547v-1.094c0-.302.245-.547.547-.547h3.828c.302 0 .547.245.547.547zm0 1.914v.273z"/><path d="M88.13 13.809a.136.136 0 0 1-.097-.233l.45-.45-.45-.45a.137.137 0 0 1 0-.193.137.137 0 0 1 .193 0l.644.644-.644.644a.143.143 0 0 1-.096.038zm1.206-12.032h-4.922a.273.273 0 0 0-.273.273v4.375c0 .151.123.273.273.273h4.922a.273.273 0 0 0 .273-.273V2.051a.274.274 0 0 0-.273-.274zm-3.828 4.512h-.957v-.82h.957zm0-1.094h-.957v-.82h.957zm0-1.093h-.957v-.82h.957zm1.23 2.187h-.957v-.82h.957zm0-1.094h-.957v-.82h.957zm0-1.093h-.957v-.82h.957zm1.231 2.187h-.957v-.82h.957zm0-1.094h-.957v-.82h.957zm0-1.093h-.957v-.82h.957zm1.23 2.187h-.957v-.82h.957zm0-1.094h-.957v-.82h.957zm0-1.093h-.957v-.82h.957zm0-1.094h-4.648v-.82h4.648zm-17.363-.684h-4.922a.274.274 0 0 0-.273.273v3.555c0 .15.123.273.273.273h4.922c.15 0 .273-.123.273-.273V2.598a.274.274 0 0 0-.273-.274zm-2.871 3.555h-1.914v-.547h1.914zm0-.82h-1.914v-.547h1.914zm0-.821h-1.914v-.547h1.914zm0-.82h-1.914v-.547h1.914zm1.914 2.461h-1.641v-.547h1.641zm0-.82h-1.641v-.547h1.641zm0-.821h-1.641v-.547h1.641zm0-.82h-1.641v-.547h1.641zm.82 2.461h-.547v-.547h.547zm0-.82h-.547v-.547h.547zm0-.821h-.547v-.547h.547zm0-.82h-.547v-.547h.547zm3.965-1.777a.547.547 0 1 0 0 1.094.547.547 0 0 0 0-1.094zm0 .82a.273.273 0 1 1 0-.547.273.273 0 0 1 0 .547zm0 1.367a.547.547 0 1 0 0 1.094.547.547 0 0 0 0-1.094zm0 .82a.273.273 0 1 1 0-.547.273.273 0 0 1 0 .547zm0 1.368a.547.547 0 1 0 0 1.094.547.547 0 0 0 0-1.094zm0 .82a.273.273 0 1 1 0-.547.273.273 0 0 1 0 .547zm1.641-4.375h3.281v.273h-3.281zm0-.82h3.281v.273h-3.281zm0 3.007h3.281v.273h-3.281zm0-.82h3.281v.273h-3.281zm0 3.008h3.281v.273h-3.281zm0-.82h3.281v.273h-3.281z"/><circle cx="67.188" cy="11.211" r=".547"/><path d="M69.922 11.074h2.188v.273h-2.188zm0 1.914h2.188v.273h-2.188zm0 1.914h2.188v.273h-2.188z"/><circle cx="67.188" cy="13.125" r=".547"/><circle cx="67.188" cy="15.039" r=".547"/><circle cx="68.828" cy="11.211" r=".547"/><circle cx="68.828" cy="13.125" r=".547"/><circle cx="68.828" cy="15.039" r=".547"/><path d="M98.086 1.641h-4.922a.274.274 0 0 0-.273.273v4.922c0 .15.123.273.273.273h4.922c.15 0 .273-.123.273-.273V1.914a.274.274 0 0 0-.273-.273zm0 5.195h-4.922V3.008h4.922zm0-4.102h-4.922v-.82h4.922zm-21.055 9.297h2.188a.273.273 0 0 0 .273-.273v-.547h-.547a.82.82 0 1 0-1.64 0h-.547v.547c0 .151.122.273.273.273zm1.094-1.093a.273.273 0 1 1 0 .547.273.273 0 0 1 0-.547z"/><path d="M80.039 11.211h-.273v.547a.547.547 0 0 1-.547.547h-2.188a.547.547 0 0 1-.547-.547v-.547h-.273a.273.273 0 0 0-.273.273v4.102c0 .151.123.273.273.273h3.828a.273.273 0 0 0 .273-.273v-4.102a.273.273 0 0 0-.273-.273zm-3.281 3.827a.273.273 0 1 1 0-.547.273.273 0 0 1 0 .547zm0-.957a.273.273 0 1 1 0-.547.273.273 0 0 1 0 .547zm0-.957a.273.273 0 1 1 0-.547.273.273 0 0 1 0 .547zm3.008 1.778h-2.188v-.273h2.188zm0-.957h-2.188v-.273h2.188zm0-.957h-2.188v-.273h2.188zm44.039-2.597h-3.586a.396.396 0 0 0-.395.395v.425h-.41a.41.41 0 0 0-.41.41v1.094c0 .226.184.41.41.41h2.324c.075 0 .137.061.137.137v.424a.684.684 0 0 0-.547.67v1.777c0 .151.123.273.273.273h.82c.15 0 .273-.123.273-.273v-1.777a.683.683 0 0 0-.547-.67v-.424a.41.41 0 0 0-.41-.41h-2.324a.137.137 0 0 1-.137-.137v-1.094c0-.076.062-.137.137-.137h.41v.289c0 .217.178.395.395.395h3.586a.396.396 0 0 0 .395-.395v-.987a.396.396 0 0 0-.394-.395zm-1.383 3.964v1.641a.137.137 0 0 1-.137.137h-.547a.137.137 0 0 1-.137-.137v-1.641a.41.41 0 1 1 .821 0zm1.504-2.643a.182.182 0 0 1-.182.182h-3.464a.183.183 0 0 1-.183-.182v-.866c0-.101.082-.183.183-.183h3.464c.1 0 .182.082.182.183z"/><path d="M123.684 12.768s.205.268.205.479c0 .136-.092.205-.205.205s-.205-.069-.205-.205c0-.211.205-.479.205-.479z"/></g></svg>