<svg xmlns="http://www.w3.org/2000/svg" width="96" height="72"><path fill="#fff" d="M4 4h42v30H4z"/><path fill="#5c926d" d="M8 18h34v12H8z"/><path fill="#d4cfca" d="M8 8h24v2H8zm0 4h12v2H8z"/><path fill="#fff" d="M50 4h42v30H50z"/><path fill="#deb068" d="M54 18h34v12H54z"/><path fill="#d4cfca" d="M54 8h24v2H54zm0 4h12v2H54z"/><path fill="#fff" d="M4 38h42v30H4z"/><path fill="#deb068" d="M8 52h34v12H8z"/><path fill="#d4cfca" d="M8 42h24v2H8zm0 4h12v2H8z"/><path fill="#fff" d="M50 38h42v30H50z"/><path fill="#437c94" d="M54 52h34v12H54z"/><path fill="#d4cfca" d="M54 42h34v2H54zm0 4h12v2H54z"/></svg>