<svg xmlns="http://www.w3.org/2000/svg" width="96" height="72"><path fill="#312d2a" d="M4 4h27v36H4z"/><path fill="#5c926d" d="M8 18h19v18H8z"/><path fill="#665f5b" d="M8 8h19v2H8zm0 4h10v2H8z"/><path fill="#312d2a" d="M35 4h26v30H35z"/><path fill="#437c94" d="M39 18h18v12H39z"/><path fill="#665f5b" d="M39 8h18v2H39zm0 4h9v2h-9z"/><path fill="#312d2a" d="M65 4h27v24H65z"/><path fill="#deb068" d="M69 18h19v6H69z"/><path fill="#665f5b" d="M69 8h19v2H69zm0 4h10v2H69z"/><path fill="#312d2a" d="M4 44h27v24H4z"/><path fill="#deb068" d="M8 58h19v6H8z"/><path fill="#665f5b" d="M8 48h19v2H8zm0 4h10v2H8z"/><path fill="#312d2a" d="M35 38h26v30H35z"/><path fill="#5c926d" d="M39 52h18v12H39z"/><path fill="#665f5b" d="M39 42h18v2H39zm0 4h9v2h-9z"/><path fill="#312d2a" d="M65 32h27v36H65z"/><path fill="#437c94" d="M69 46h19v18H69z"/><path fill="#665f5b" d="M69 36h19v2H69zm0 4h10v2H69z"/></svg>