<svg xmlns="http://www.w3.org/2000/svg" width="96" height="72"><path fill="#312d2a" d="M4 4h88v64H4z"/><path fill="#665f5b" d="M12 58h72v2H12zm0-6h2v2h-2zm0-16h2v2h-2zm0 8h2v2h-2zm0-16h2v2h-2zm0-8h2v2h-2zm0-8h2v2h-2z"/><path fill="#deb068" d="m34.214 36.027 16.614-8.055 16.612 2.013L84 25.971V17l-16.5 6L51 15 34.5 29.25l-16.5-4v12.743l16.214-1.966z"/><path fill="#5c926d" d="m33.832 47.066 17.062-10.34L67.5 44.777l16.5-8V28l-16.5 4L51 30l-16.5 8L18 40v8.985l15.832-1.919z"/><path fill="#437c94" d="M18 54v-3l16.5-2L51 39l16.5 8L84 39v15H18z"/></svg>