<svg xmlns="http://www.w3.org/2000/svg" width="96" height="72"><path fill="#fff" d="M4 4h88v64H4z"/><path d="M20 42.2a31.3 31.3 0 0 0 17.91 5.885A31.3 31.3 0 0 0 55.82 42.2l.456-.317c7.988-5.54 17.012-7.228 25.724-4.811V54H20z" fill="#5c926d" opacity=".6"/><path d="M62 13c-8.723 0-17.333 3.776-25.185 11.045l-.642.594A41.783 41.783 0 0 1 20 34.312V42.2a31.3 31.3 0 0 0 17.91 5.885A31.3 31.3 0 0 0 55.82 42.2l.456-.317c7.988-5.54 17.012-7.228 25.724-4.811V19.839C75.61 15.332 68.84 13 62 13z" fill="#deb068" opacity=".6"/><path fill="#d4cfca" d="M12 58h72v2H12zm0-6h2v2h-2zm0-16h2v2h-2zm0 8h2v2h-2zm0-16h2v2h-2zm0-8h2v2h-2zm0-8h2v2h-2z"/><path d="M20 35.312a1 1 0 0 1-.289-1.957 40.8 40.8 0 0 0 15.783-9.45l.642-.594C44.128 15.911 53.072 12 62 12c7.047 0 13.97 2.362 20.576 7.022a1 1 0 0 1-1.152 1.635C75.161 16.239 68.626 14 62 14c-8.415 0-16.889 3.728-24.506 10.778l-.642.6a42.781 42.781 0 0 1-16.563 9.9 1 1 0 0 1-.289.034z" fill="#deb068"/><path d="M37.91 49.087a32.469 32.469 0 0 1-18.48-6.064 1 1 0 1 1 1.14-1.642 30.49 30.49 0 0 0 17.34 5.706 30.49 30.49 0 0 0 17.34-5.706l.456-.318c8.183-5.675 17.616-7.434 26.562-4.953a1 1 0 0 1-.536 1.928c-8.483-2.355-17.088-.738-24.886 4.668l-.455.317a32.475 32.475 0 0 1-18.481 6.064z" fill="#5c926d"/></svg>