<svg xmlns="http://www.w3.org/2000/svg" width="96" height="72"><path fill="#fff" d="M4 4h88v64H4z"/><path fill="#deb068" d="M44 18h8v8h-8zm2 20h8v8h-8zM20 26h8v8h-8z"/><path fill="#d66959" d="m34 12 4 4.001-4 4-4-4zM24 41.001l4 4-4 4-4-4zM60 28l4 4-4 4-4-4zm10-8 4 4-4 4-4-4z"/><circle cx="38" cy="36" r="4" fill="#5c926d"/><circle cx="80" cy="16" r="4" fill="#5c926d"/><circle cx="34" cy="50" r="4" fill="#5c926d"/><path fill="#d4cfca" d="M12 58h72v2H12zm0-6h2v2h-2zm0-16h2v2h-2zm0 8h2v2h-2zm0-16h2v2h-2zm0-8h2v2h-2zm0-8h2v2h-2z"/></svg>