<svg xmlns="http://www.w3.org/2000/svg" width="96" height="72"><path fill="#312d2a" d="M4 4h88v64H4z"/><path fill="#665f5b" d="M12 58h72v2H12zm0-6h2v2h-2zm0-16h2v2h-2zm0 8h2v2h-2zm0-16h2v2h-2zm0-8h2v2h-2zm0-8h2v2h-2z"/><path d="M30.92 45.979A30.766 30.766 0 0 1 19.635 43.8a1 1 0 1 1 .73-1.861c11.951 4.68 24.091 1.451 35.108-9.339l.641-.628C64.111 24.14 73.062 20 82 20a1 1 0 0 1 0 2c-8.4 0-16.871 3.942-24.486 11.4l-.641.628c-8.059 7.893-16.992 11.951-25.953 11.951z" fill="#437c94"/><path d="M82 33a58.6 58.6 0 0 1-25.625-5.944l-.643-.315a56.554 56.554 0 0 0-35.54-4.693 1 1 0 0 1-.384-1.963 58.587 58.587 0 0 1 36.8 4.859l.643.315A56.567 56.567 0 0 0 82 31a1 1 0 0 1 0 2z" fill="#5c926d"/><path d="M82 53c-8.9 0-17.832-3.445-25.817-9.964l-.642-.523C44.5 33.5 32.314 30.809 20.311 34.728a1 1 0 0 1-.622-1.9c12.5-4.083 25.686-1.192 37.116 8.137l.641.523C65.071 47.711 73.562 51 82 51a1 1 0 0 1 0 2z" fill="#deb068"/></svg>