<svg xmlns="http://www.w3.org/2000/svg" width="96" height="72"><path fill="#fff" d="M4 4h88v64H4z"/><path d="M48 12a24 24 0 1 0 24 24 24 24 0 0 0-24-24zm0 38a14 14 0 1 1 14-14 14 14 0 0 1-14 14z" fill="#d4cfca"/><path d="M48 58a21.862 21.862 0 0 1-15.556-6.442l4.242-4.245A16 16 0 1 0 48 20v-6a22 22 0 0 1 0 44z" fill="#5c926d"/><path d="M41.952 32.693a2.626 2.626 0 0 1 .745-1.954 3.017 3.017 0 0 1 3.956 0 2.9 2.9 0 0 1-.008 3.9 2.969 2.969 0 0 1-3.938 0 2.616 2.616 0 0 1-.755-1.946zm2.723 1.723a1.493 1.493 0 0 0 1.166-.468 2.069 2.069 0 0 0 0-2.52 1.512 1.512 0 0 0-1.166-.46 1.491 1.491 0 0 0-1.157.46 2.108 2.108 0 0 0 0 2.52 1.472 1.472 0 0 0 1.157.468zm-1.444 7.469 8.044-11.77h1.476l-8.026 11.77zm5.369-2.578a2.616 2.616 0 0 1 .747-1.952 3.017 3.017 0 0 1 3.956 0 2.907 2.907 0 0 1-.01 3.9 2.969 2.969 0 0 1-3.938 0 2.615 2.615 0 0 1-.755-1.948zm2.725 1.725a1.5 1.5 0 0 0 1.165-.468 2.076 2.076 0 0 0 0-2.52 1.515 1.515 0 0 0-1.165-.46 1.487 1.487 0 0 0-1.158.46 2.108 2.108 0 0 0 0 2.52 1.476 1.476 0 0 0 1.158.468z" fill="#312d2a"/></svg>