<svg xmlns="http://www.w3.org/2000/svg" width="96" height="72"><path fill="#312d2a" d="M4 4h88v64H4z"/><path fill="#665f5b" d="M18 58h2v2h-2zm8 0h2v2h-2zm8 0h2v2h-2zm8 0h2v2h-2zm8 0h2v2h-2zm8 0h2v2h-2zm8 0h2v2h-2zm8 0h2v2h-2zm8 0h2v2h-2zM12 12h2v48h-2z"/><path d="M61 45H39v6h22z" fill="#437c94"/><path fill="#437c94" opacity=".6" d="M61 45h23v6H61z"/><path d="M34 35H18v6h16z" fill="#deb068"/><path d="M56 25H30v6h26z" fill="#d66959"/><path fill="#d66959" opacity=".6" d="M56 25h8v6h-8z"/><path d="M64 15H48v6h16z" fill="#5c926d"/><path fill="#deb068" opacity=".6" d="M34 35h12v6H34z"/><path fill="#5c926d" opacity=".6" d="M64 15h20v6H64z"/></svg>