<svg xmlns="http://www.w3.org/2000/svg" width="96" height="72"><path fill="#d4cfca" d="M4 4h88v64H4z"/><path fill="#fff" d="M4 4h88v64H4z"/><path d="m49.519 54-3.071-4h-5.064c.255 2.555.4 5.166.4 7.833V58h4.762v-.167z" fill="#437c94"/><path d="m48 43-5.124-5H39.2a73.548 73.548 0 0 1 1.961 10h2.854z" fill="#d66959"/><path d="m50.281 31-4.348-5H34.644a61.153 61.153 0 0 1 4.008 10h7.9z" fill="#deb068"/><path d="M41.49 14H26a42.975 42.975 0 0 1 7.6 10h10.137L47 19z" fill="#5c926d"/><path d="M70 14H41.49a78.284 78.284 0 0 1 2.247 10h18.668A42.975 42.975 0 0 1 70 14zM45.933 26c.242 3.075.452 6.417.62 10h10.8a61.153 61.153 0 0 1 4.008-10zm-3.057 12c.5 3.186.888 6.528 1.142 10h10.818A73.548 73.548 0 0 1 56.8 38zm11.74 12h-8.168c.06 2.557.1 5.164.1 7.833V58h7.674v-.167A76.751 76.751 0 0 1 54.616 50z" fill="#d4cfca"/></svg>