<svg xmlns="http://www.w3.org/2000/svg" width="96" height="72"><path fill="#fff" d="M4 4h88v64H4z"/><path d="M59.113 14.752A23.851 23.851 0 0 0 49 12.043v10.022a13.9 13.9 0 0 1 5.092 1.383z" fill="#d66959"/><path d="M62 36a13.837 13.837 0 0 1-1.438 6.1l8.685 5.015a23.9 23.9 0 0 0-8.4-31.357l-5.008 8.672A13.954 13.954 0 0 1 62 36z" fill="#437c94"/><path d="M59.572 43.835a13.943 13.943 0 0 1-23.144 0l-8.673 5.007a23.945 23.945 0 0 0 40.49 0z" fill="#5c926d"/><path d="M24 36a23.868 23.868 0 0 0 2.741 11.12l8.686-5.015A13.927 13.927 0 0 1 47 22.068V12.035A23.991 23.991 0 0 0 24 36z" fill="#deb068"/></svg>