<svg xmlns="http://www.w3.org/2000/svg" width="96" height="72"><path fill="#fff" d="M4 4h88v64H4z"/><path fill="#deb068" d="M21 38v16h60v-5l-30-3-30-8z"/><path fill="#d4cfca" d="M12 58h72v2H12zm0-6h2v2h-2zm0-16h2v2h-2zm0 8h2v2h-2zm0-16h2v2h-2zm0-8h2v2h-2zm0-8h2v2h-2z"/><path fill="#437c94" d="M18 18h6v36h-6z"/><path fill="#d66959" d="M30 34h6v20h-6z"/><path fill="#437c94" d="M42 32h6v22h-6z"/><path fill="#d66959" d="M54 42h6v12h-6z"/><path fill="#437c94" d="M66 38h6v16h-6z"/><path fill="#d66959" d="M78 46h6v8h-6z"/><path d="M75 35a1.017 1.017 0 0 1-.243-.03l-15.152-3.788a64.942 64.942 0 0 1-16.987-6.914L26.5 14.864a1 1 0 1 1 1-1.728l16.122 9.4a62.913 62.913 0 0 0 16.464 6.7l15.156 3.794A1 1 0 0 1 75 35z" fill="#5c926d"/></svg>