<svg xmlns="http://www.w3.org/2000/svg" width="96" height="72"><path fill="#312d2a" d="M4 4h88v64H4z"/><path fill="#665f5b" d="M12 58h72v2H12zm0-6h2v2h-2zm0-16h2v2h-2zm0 8h2v2h-2zm0-16h2v2h-2zm0-8h2v2h-2zm0-8h2v2h-2z"/><path fill="#5c926d" d="M30 23h2v-5h1v-1h-4v1h1v5zm8 18V25H24v16zM26 27h10v6H26zm0 8h10v4H26zm6 8h-2v5h-1v1h4v-1h-1v-5z"/><path fill="#d66959" d="M53 38h-2v5h-1v1h4v-1h-1v-5zm-2-20h2v-5h1v-1h-4v1h1v5zm-6 2v16h14V20zm12 14H47v-4h10zm0-6H47v-6h10z"/><path fill="#437c94" d="M72 28h2v-5h1v-1h-4v1h1v5zm2 20h-2v5h-1v1h4v-1h-1v-5zm6-2V30H66v16zM68 32h10v6H68zm0 8h10v4H68z"/><path d="M47 22h10v6H47zm0 8h10v4H47z" opacity=".4" fill="#d66959"/><path d="M26 35h10v4H26zm0-8h10v6H26z" opacity=".4" fill="#5c926d"/><path d="M68 40h10v4H68zm0-8h10v6H68z" opacity=".4" fill="#437c94"/></svg>