<svg xmlns="http://www.w3.org/2000/svg" width="96" height="72"><path fill="#312d2a" d="M4 4h88v64H4z"/><path d="m48 15.472 21.833 15.862L61.493 57H34.507l-8.34-25.666L48 15.472M48 13 23.816 30.57 33.054 59h29.892l9.238-28.43L48 13z" fill="#665f5b"/><path d="M55.6 49.75a.777.777 0 0 1-.189-.024l-12.775-3.344a.755.755 0 0 1-.443-.321L35.064 34.94a.749.749 0 0 1 .192-1.01l12.3-8.94a.747.747 0 0 1 .88 0l12.3 8.94a.748.748 0 0 1 .273.838l-4.7 14.463a.748.748 0 0 1-.709.519zm-12.3-4.745L55.109 48.1l4.313-13.274L48 26.523l-11.29 8.2z" fill="#437c94"/><circle cx="48" cy="25.597" r="3" fill="#437c94"/><circle cx="35.696" cy="34.536" r="3" fill="#437c94"/><circle cx="60.304" cy="34.536" r="3" fill="#437c94"/><circle cx="55.604" cy="49" r="3" fill="#437c94"/><circle cx="42.825" cy="45.656" r="3" fill="#437c94"/></svg>