<svg xmlns="http://www.w3.org/2000/svg" width="96" height="72"><path fill="#312d2a" d="M4 4h88v64H4z"/><path fill="#665f5b" d="M40 27h2v8h-2zm0 23h2v4h-2zm16-4h2v8h-2zm0-24h2v4h-2zm16 22h2v4h-2zm0-32h2v4h-2z"/><path fill="#deb068" d="M69 18h8v24h-8z"/><path fill="#665f5b" d="M24 46h2v8h-2zm0-30h2v6h-2z"/><path fill="#d66959" d="M21 24h8v20h-8z"/><path fill="#deb068" d="M37 36h8v12h-8z"/><path fill="#d66959" d="M53 28h8v16h-8z"/><path fill="#665f5b" d="M12 58h72v2H12zm0-6h2v2h-2zm0-16h2v2h-2zm0 8h2v2h-2zm0-16h2v2h-2zm0-8h2v2h-2zm0-8h2v2h-2z"/></svg>