<svg xmlns="http://www.w3.org/2000/svg" width="96" height="72"><path fill="#fff" d="M4 4h88v64H4z"/><path fill="#d4cfca" d="M12 58h72v2H12zm0-6h2v2h-2zm0-16h2v2h-2zm0 8h2v2h-2zm0-16h2v2h-2zm0-8h2v2h-2zm0-8h2v2h-2z"/><circle cx="74" cy="22" r="10" fill="#5c926d"/><circle cx="48" cy="22" r="6" fill="#437c94"/><circle cx="30" cy="31" r="4" fill="#d66959"/><circle cx="42" cy="36" r="4" fill="#deb068"/><circle cx="57" cy="37" r="6" fill="#d66959"/><circle cx="23" cy="42" r="4" fill="#deb068"/><circle cx="34" cy="48" r="4" fill="#5c926d"/></svg>