<svg xmlns="http://www.w3.org/2000/svg" width="96" height="72"><path fill="#312d2a" d="M35 38h26v30H35zM4 38h27v30H4z"/><path d="M17.5 45.5a7.5 7.5 0 1 0 5.3 12.8z" fill="#5c926d"/><path d="M24.429 50.13A7.5 7.5 0 0 0 17.5 45.5V53z" fill="#437c94"/><path d="M24.429 50.13 17.5 53l5.3 5.3a7.5 7.5 0 0 0 1.626-8.173z" fill="#deb068"/><path fill="#437c94" d="M45 49h2v11h-2z"/><path fill="#5c926d" d="M41 46h2v14h-2z"/><path fill="#deb068" d="M49 52h2v8h-2z"/><path fill="#5c926d" d="M53 55h2v5h-2z"/><path fill="#312d2a" d="M65 38h27v30H65z"/><path fill="#665f5b" d="m72.947 58.724-.894-.448 4.349-8.699 4 5 3.651-7.301.894.448-4.349 8.699-4-5-3.651 7.301z"/><circle cx="80.5" cy="55.5" r="1.5" fill="#5c926d"/><circle cx="84.5" cy="47.5" r="1.5" fill="#5c926d"/><circle cx="72.5" cy="58.5" r="1.5" fill="#5c926d"/><circle cx="76.5" cy="50.5" r="1.5" fill="#5c926d"/><path fill="#312d2a" d="M4 4h88v30H4z"/><path fill="#5c926d" d="m86 10-8 7-8-4-7 3-9-6-8 7-8 1-8-8-8 6-6-3-6 5v6l2 1h73l1-10v-5z"/><path fill="#5c926d" d="m86 16-8 9-8-5-7 4-9-7-8 6-8 2-8-4-8 4-6-1-6 1v2h76V16z"/><path fill="#deb068" d="m86 15-8 9-8-5-7 4-9-7-8 6-8 2-8-4-8 4-6-1-6 1v4h76V15z"/></svg>