<svg xmlns="http://www.w3.org/2000/svg" width="96" height="72"><path fill="#fff" d="M4 4h27v30H4z"/><path fill="#5c926d" d="m21 15-4-3-3 4-4-1v5l2 3h11l2-6v-6l-4 4z"/><path fill="#deb068" d="m21.364 20-4.728-2L14 21l-4-1v7h15V17l-3.636 3z"/><path fill="#fff" d="M35 38h26v30H35z"/><path fill="#5c926d" d="m51 49-3-3-3 4-4-1v5l2 3h10l2-6v-6l-4 4z"/><path fill="#deb068" d="m51.364 54-3.728-2L45 55l-4-1v7h14V51l-3.636 3z"/><path fill="#fff" d="M65 38h27v30H65z"/><path d="M78.5 45.5a7.5 7.5 0 1 0 5.3 12.8z" fill="#5c926d"/><path d="M85.429 50.13A7.5 7.5 0 0 0 78.5 45.5V53z" fill="#437c94"/><path d="M85.429 50.13 78.5 53l5.3 5.3a7.5 7.5 0 0 0 1.626-8.173z" fill="#deb068"/><path fill="#fff" d="M4 38h27v30H4z"/><path fill="#d4cfca" d="m11.947 58.724-.894-.448 4.349-8.699 4 5 3.651-7.301.894.448-4.349 8.699-4-5-3.651 7.301z"/><circle cx="19.5" cy="55.5" r="1.5" fill="#5c926d"/><circle cx="23.5" cy="47.5" r="1.5" fill="#5c926d"/><circle cx="11.5" cy="58.5" r="1.5" fill="#5c926d"/><circle cx="15.5" cy="50.5" r="1.5" fill="#5c926d"/><path fill="#fff" d="M65 4h27v30H65zM35 4h26v30H35z"/><path d="M48 11.5a7.5 7.5 0 1 0 5.3 12.8z" fill="#5c926d"/><path d="M54.929 16.13A7.5 7.5 0 0 0 48 11.5V19z" fill="#437c94"/><path d="M54.929 16.13 48 19l5.3 5.3a7.5 7.5 0 0 0 1.626-8.173z" fill="#deb068"/><path d="M76 15h2v11h-2zm-4-3h2v14h-2zm8 6h2v8h-2zm4 3h2v5h-2z" fill="#d4cfca"/></svg>