<svg xmlns="http://www.w3.org/2000/svg" width="96" height="72"><path fill="#fff" d="M4 4h88v30H4z"/><path fill="#5c926d" d="m86 10-8 7-8-4-7 3-9-6-8 7-8 1-8-8-8 6-6-3-6 5v6l2 1h73l1-10v-5z"/><path fill="#5c926d" d="m86 16-8 9-8-5-7 4-9-7-8 6-8 2-8-4-8 4-6-1-6 1v2h76V16z"/><path fill="#deb068" d="m86 15-8 9-8-5-7 4-9-7-8 6-8 2-8-4-8 4-6-1-6 1v4h76V15z"/><path fill="#fff" d="M4 38h42v30H4zm46 0h42v30H50z"/><path d="M25 44a9 9 0 1 0 6.364 15.364z" fill="#5c926d"/><path d="M33.314 49.556A9 9 0 0 0 25 44v9z" fill="#437c94"/><path d="M33.314 49.556 25 53l6.364 6.364a9 9 0 0 0 1.95-9.808z" fill="#deb068"/><path fill="#437c94" d="M67 48h3v14h-3z"/><path fill="#5c926d" d="M62 44h3v18h-3z"/><path fill="#deb068" d="M72 52h3v10h-3z"/><path fill="#5c926d" d="M77 56h3v6h-3z"/></svg>