<svg xmlns="http://www.w3.org/2000/svg" width="96" height="72"><path fill="#312d2a" d="M4 4h42v30H4zm0 34h42v30H4z"/><path fill="#437c94" d="M21 48h3v14h-3z"/><path fill="#5c926d" d="M16 44h3v18h-3z"/><path fill="#deb068" d="M26 52h3v10h-3z"/><path fill="#5c926d" d="M31 56h3v6h-3z"/><path fill="#312d2a" d="M50 38h42v30H50z"/><path fill="#5c926d" d="M33.6 15.429 30 12l-4.15 5.071L21.8 10l-5.4 6.786-6.4-1.357v6.785l3.7 4.072h22.6l3.7-8.143V10l-6.4 5.429z"/><path fill="#deb068" d="M34.091 20.857 30 19l-4.273 4.857-4.909-5.714-4.909 4.071L10 20.857V28h30V16.786l-5.909 4.071z"/><path fill="#312d2a" d="M50 4h42v30H50z"/><path d="M71 10a9 9 0 1 0 6.364 15.364z" fill="#5c926d"/><path d="M79.314 15.556A9 9 0 0 0 71 10v9z" fill="#437c94"/><path d="M79.314 15.556 71 19l6.364 6.364a9 9 0 0 0 1.95-9.808z" fill="#deb068"/><path fill="#665f5b" d="m58.354 59.354-.708-.708 8.219-8.218 9.019 3.007 8.784-7.809.664.748-9.216 8.191-8.981-2.993-7.781 7.782z"/><circle cx="75" cy="54" r="2" fill="#5c926d"/><circle cx="84" cy="46" r="2" fill="#5c926d"/><circle cx="58" cy="59" r="2" fill="#5c926d"/><circle cx="66" cy="51" r="2" fill="#5c926d"/></svg>