<svg xmlns="http://www.w3.org/2000/svg" width="96" height="72"><path fill="#fff" d="M4 4h88v64H4z"/><path fill="#6ba1b6" d="M8 8h80v56H8z"/><path d="m40 8-5.518 2.759a2 2 0 0 0-.52 3.2l5.37 5.37A4.012 4.012 0 0 1 40.3 20.9l3.5 10.488a4 4 0 0 1 .2 1.265v4.115a2 2 0 0 1-2.894 1.789l-3.624-1.812a4 4 0 0 1-2.006-2.313l-2.453-7.362a2 2 0 0 0-3.311-.782l-.54.54A4 4 0 0 0 28 29.657v8.2a4 4 0 0 0 1.781 3.329l1.99 1.326a4 4 0 0 1 1.7 4.113l-1.109 5.545a4 4 0 0 0 .8 3.284L40 64h48V8zm-11.447 9.105-1.659-3.316a4 4 0 0 1 0-3.578L28 8H16l1.625 6.5a4 4 0 0 0 1.662 2.358l3.705 2.47a4 4 0 0 0 2.219.672h1.553a2 2 0 0 0 1.789-2.895z" fill="#d4cfca"/><path d="M48.4 52.75h7.164L61.993 64h1.728l-6.706-11.734 18.413-11.05L78.933 64h1.518l-3.627-23.574 6.666-3.333a3.265 3.265 0 0 1 1.454-.343H88v-1.5h-3.056a4.778 4.778 0 0 0-2.124.5l-6.513 3.26-3.5-7.066 3.381-10.134a3.224 3.224 0 0 1 1.629-1.88l3.226-1.614a4.777 4.777 0 0 0 2.287-6.011L81.608 8h-1.616l1.945 4.861a3.268 3.268 0 0 1-1.564 4.114l-3.227 1.613a4.724 4.724 0 0 0-2.381 2.747l-3.1 9.3-1.961-2a4.783 4.783 0 0 0-3.359-1.392h-5.516a1.246 1.246 0 0 1-.885-.366L57.061 24l2.45-2.45a2.747 2.747 0 0 0 .515-3.174L57.4 13.113a3.231 3.231 0 0 1-.192-2.431L58.049 8h-1.573l-.7 2.23a4.727 4.727 0 0 0 .281 3.553l2.632 5.263a1.251 1.251 0 0 1-.235 1.443L55.47 23.47l-.531.53-3.25 3.25h-5.054l-1.711-10.271a3.245 3.245 0 0 1 .188-1.74L48.008 8h-1.616l-2.673 6.683a4.745 4.745 0 0 0-.275 2.544l1.737 10.418-2.154 1.436.492 1.475 2.708-1.806h5.31l2.9 5.8a1.253 1.253 0 0 1-.56 1.678l-5.1 2.552a2.738 2.738 0 0 0-1.52 2.46v9.8l-13.96-3.49L33 49.022l13.79 3.448-3.536 5.3V64h1.5v-5.772zm.349-11.514a1.244 1.244 0 0 1 .691-1.118l5.1-2.553a2.747 2.747 0 0 0 1.23-3.689l-2.864-5.728L56 25.061l2.884 2.883a2.73 2.73 0 0 0 1.945.806h5.514a3.273 3.273 0 0 1 2.3.952l2.743 2.742 3.634 7.27L55.792 51.25H48.75z" fill="#fff" opacity=".4"/><path d="m43.75 46.25 5 5h7.042l19.226-11.536-3.634-7.27-5-5" fill="#5c926d"/><path d="m49.546 32.565-5.1 2.553a1.244 1.244 0 0 0-.691 1.118V46.25h7.042l19.221-11.536-3.634-7.27-2.743-2.744a3.273 3.273 0 0 0-2.3-.952h-5.512a2.73 2.73 0 0 1-1.945-.806L51 20.061l-3.088 3.087 2.864 5.728a2.747 2.747 0 0 1-1.23 3.689z" fill="#5c926d"/><path d="m48.129 52.75-5.879-5.879V36.236a2.734 2.734 0 0 1 1.521-2.46l5.1-2.552a1.25 1.25 0 0 0 .56-1.675l-3.349-6.7L51 17.939l3.944 3.945a1.23 1.23 0 0 0 .884.366h5.516a4.778 4.778 0 0 1 3.356 1.393l7.914 7.913 4.365 8.729L56.207 52.75z" fill="#fff"/><path d="m71.384 32.444-5-5-2.743-2.744a3.273 3.273 0 0 0-2.3-.952h-5.512a2.73 2.73 0 0 1-1.945-.806L51 20.061l-3.088 3.087 2.864 5.728a2.747 2.747 0 0 1-1.23 3.689l-5.1 2.553a1.244 1.244 0 0 0-.691 1.118V46.25l5 5h7.042l19.221-11.536z" fill="#5c926d"/><path opacity=".2" d="m70.018 34.714-3.634-7.27v.001l5 4.999 3.634 7.27-5-5z"/><path opacity=".4" d="M50.792 46.25H43.75l5 5h7.042l-5-5z"/><path opacity=".3" d="M70.018 34.714 50.792 46.25l5 5 19.226-11.536-5-5z"/></svg>