<svg xmlns="http://www.w3.org/2000/svg" width="96" height="72"><path fill="#312d2a" d="M4 4h88v64H4z"/><path fill="#6ba1b6" d="M8 8h80v56H8z"/><path d="m40 8-5.518 2.759a2 2 0 0 0-.52 3.2l5.37 5.37A4.012 4.012 0 0 1 40.3 20.9l3.5 10.488a4 4 0 0 1 .2 1.265v4.115a2 2 0 0 1-2.894 1.789l-3.624-1.812a4 4 0 0 1-2.006-2.313l-2.453-7.362a2 2 0 0 0-3.311-.782l-.54.54A4 4 0 0 0 28 29.657v8.2a4 4 0 0 0 1.781 3.328l1.99 1.327a4 4 0 0 1 1.7 4.113l-1.109 5.545a4 4 0 0 0 .8 3.283L40 64h48V8z" fill="#665f5b"/><path d="M48.4 52.75h7.164L61.993 64h1.728l-6.706-11.734 18.413-11.05L78.933 64h1.518l-3.627-23.574 6.666-3.333a3.265 3.265 0 0 1 1.454-.343H88v-1.5h-3.056a4.778 4.778 0 0 0-2.124.5l-6.513 3.26-3.5-7.066 3.381-10.134a3.224 3.224 0 0 1 1.629-1.88l3.226-1.614a4.777 4.777 0 0 0 2.287-6.011L81.608 8h-1.616l1.945 4.861a3.268 3.268 0 0 1-1.564 4.114l-3.227 1.613a4.724 4.724 0 0 0-2.381 2.747l-3.1 9.3-1.961-2a4.783 4.783 0 0 0-3.359-1.392h-5.516a1.246 1.246 0 0 1-.885-.366L57.061 24l2.45-2.45a2.747 2.747 0 0 0 .515-3.174L57.4 13.113a3.231 3.231 0 0 1-.192-2.431L58.049 8h-1.573l-.7 2.23a4.727 4.727 0 0 0 .281 3.553l2.632 5.263a1.251 1.251 0 0 1-.235 1.443L55.47 23.47l-.531.53-3.25 3.25h-5.054l-1.711-10.271a3.245 3.245 0 0 1 .188-1.74L48.008 8h-1.616l-2.673 6.683a4.745 4.745 0 0 0-.275 2.544l1.737 10.418-2.154 1.436.492 1.475 2.708-1.806h5.31l2.9 5.8a1.253 1.253 0 0 1-.56 1.678l-5.1 2.552a2.738 2.738 0 0 0-1.52 2.46v9.8l-13.96-3.49L33 49.022l13.79 3.448-3.536 5.3V64h1.5v-5.772zm.349-11.514a1.244 1.244 0 0 1 .691-1.118l5.1-2.553a2.747 2.747 0 0 0 1.23-3.689l-2.864-5.728L56 25.061l2.884 2.883a2.73 2.73 0 0 0 1.945.806h5.514a3.273 3.273 0 0 1 2.3.952l2.743 2.742 3.634 7.27L55.792 51.25H48.75z" fill="#312d2a" opacity=".4"/><path d="m28 8-1.106 2.211a4 4 0 0 0 0 3.578l1.659 3.317A2 2 0 0 1 26.764 20h-1.553a4 4 0 0 1-2.219-.672l-3.705-2.47a4 4 0 0 1-1.662-2.358L16 8z" fill="#665f5b"/><path d="M47.25 52.75V41.236a2.736 2.736 0 0 1 1.521-2.46l5.1-2.552a1.248 1.248 0 0 0 .56-1.676l-3.348-6.695L56 22.939l3.944 3.945a1.23 1.23 0 0 0 .885.366h5.515a4.778 4.778 0 0 1 3.356 1.393l2.914 2.913 4.365 8.729L56.207 52.75z" fill="#312d2a"/><path d="m54.546 37.565-5.1 2.553a1.244 1.244 0 0 0-.691 1.118V51.25h7.042l19.221-11.536-3.634-7.27-2.743-2.744a3.273 3.273 0 0 0-2.3-.952h-5.512a2.73 2.73 0 0 1-1.945-.806L56 25.061l-3.088 3.087 2.864 5.728a2.747 2.747 0 0 1-1.23 3.689z" fill="#ca4d3c"/></svg>