<svg xmlns="http://www.w3.org/2000/svg" width="96" height="72"><path fill="#fff" d="M56 38h36v30H56zm0-18h36v14H56z"/><path fill="#d4cfca" d="M60 42h28v4H60zm0-18h26v2H60zm0 4h14v2H60zm0 20h13v4H60zm0 6h13v4H60zm15-6h13v4H75zm0 6h13v4H75zm-15 6h13v4H60zm15 0h13v4H75z"/><path fill="#fff" d="M4 4h36v48H4z"/><path fill="#d4cfca" d="M8 8h28v4H8zm0 6h13v4H8zm15 0h13v4H23z"/><path fill="#5c926d" d="M36 30H23v-4h13zm-15 0H8v-4h13z"/><path fill="#d4cfca" d="M36 24H23v-4h13zm-15 0H8v-4h13zM8 32h13v4H8zm15 0h13v4H23zM8 38h13v4H8zm15 0h13v4H23zM8 44h13v4H8zm15 0h13v4H23z"/><path fill="#5c926d" d="M49 26h-7v4h7v3l5-5-5-5v3z"/></svg>