<svg xmlns="http://www.w3.org/2000/svg" width="96" height="72"><path fill="#312d2a" d="M28 4h64v18H28zM4 4h20v6H4z"/><path fill="#5c926d" d="M4 14h20v6H4z"/><path fill="#312d2a" d="M4 24h20v6H4zm0 10h20v6H4zm0 10h20v6H4z"/><path fill="#665f5b" d="M32 8h56v2H32zm0 4h28v2H32zm0 4h28v2H32z"/><path fill="#312d2a" d="M28 26h64v36H28z"/><path fill="#665f5b" d="M32 30h56v4H32zm6 6h21v4H38zm23 0h27v4H61zm-29 0h4v4h-4zm6 6h21v4H38zm23 0h27v4H61zm-29 0h4v4h-4zm6 6h21v4H38zm23 0h27v4H61zm-29 0h4v4h-4zm6 6h21v4H38zm23 0h27v4H61zm-29 0h4v4h-4z"/></svg>