<svg xmlns="http://www.w3.org/2000/svg" viewBox="0 0 96 72"><path fill="#d4cfca" d="M96 72H0V0h96z" data-name="bkgds_rw_light"/><g data-name="icons_rw_light"><path fill="#fff" d="M92 68H4V4h88z"/><circle cx="80" cy="16" r="2" fill="#5c926d"/><path fill="#d4cfca" d="M12 12v12h54v-3l4-3-4-3v-3zm0 34h72v14H12z"/><path fill="#fff" d="M14 48h68v10H14z"/><path fill="#5c926d" d="M68 51h12v4H68zm8.142-29h7.717c-.446-1.722-1.997-3-3.858-3s-3.412 1.278-3.858 3Z"/><circle cx="16" cy="34" r="2" fill="#5c926d"/><path fill="#d4cfca" d="M30 30v3l-4 3 4 3v3h54V30z"/><path fill="#5c926d" d="M12.142 40h7.717c-.446-1.722-1.997-3-3.858-3s-3.412 1.278-3.858 3Z"/></g></svg>