<svg xmlns="http://www.w3.org/2000/svg" viewBox="0 0 96 72"><path fill="#665f5b" d="M0 0h96v72H0z" data-name="bkgds_rw_dark"/><g data-name="icons_rw_dark"><path fill="#312d2a" d="M4 4h88v64H4z"/><path fill="#665f5b" d="M10 11h76v14H10z"/><path fill="#312d2a" d="M12 13h72v10H12z"/><path fill="#665f5b" d="M36 17h44v2H36zm-10-2h6v6h-6zm-10 0h6v6h-6z"/><path fill="#312d2a" d="M18 17h2v2h-2z"/><path fill="#665f5b" d="M10 29h76v14H10z"/><path fill="#312d2a" d="M12 31h72v10H12z"/><path fill="#665f5b" d="M26 33h6v6h-6zM10 47h76v14H10z"/><path fill="#312d2a" d="M12 49h72v10H12z"/><path fill="#665f5b" d="M26 51h6v6h-6zm10-16h44v2H36zm0 18h44v2H36zm-20-2h6v6h-6z"/><path fill="#312d2a" d="M18 53h2v2h-2z"/><path fill="none" stroke="#5c926d" stroke-miterlimit="10" stroke-width="2" d="m16 36 2 2 4-4"/></g></svg>