<svg xmlns="http://www.w3.org/2000/svg" width="96" height="72"><path fill="#312d2a" d="M4 4h88v64H4z"/><path fill="#665f5b" d="M18 14h-6l3.068 4L18 14zm14 0h22v2H32z"/><path fill="#deb068" d="m36 24-2-2h-2v6h8v-4h-4z"/><path fill="#5c926d" d="m24 14-2-2h-2v6h8v-4h-4z"/><path fill="#665f5b" d="M28 24h-6l3.068 4L28 24zm16 0h22v2H44z"/><path fill="#437c94" d="m46 36-2-2h-2v6h8v-4h-4z"/><path fill="#665f5b" d="M34 34v6l4-3.068L34 34zm20 2h30v2H54z"/><path fill="#437c94" d="m46 46-2-2h-2v6h8v-4h-4z"/><path fill="#665f5b" d="M34 44v6l4-3.068L34 44zm20 2h30v2H54z"/><path fill="#437c94" d="m46 56-2-2h-2v6h8v-4h-4z"/><path fill="#665f5b" d="M34 54v6l4-3.068L34 54zm20 2h30v2H54z"/></svg>