<svg xmlns="http://www.w3.org/2000/svg" width="96" height="72"><path fill="#fff" d="M4 4h88v64H4z"/><path fill="#deb068" d="M68 20h6v34h-6z"/><path fill="#437c94" d="M58 12h6v42h-6z"/><path fill="#5c926d" d="M48 20h6v34h-6z"/><path fill="#deb068" d="M38 24h6v30h-6z"/><path fill="#437c94" d="M28 28h6v26h-6z"/><path fill="#5c926d" d="M18 32h6v22h-6zm60-8h6v30h-6z"/><path fill="#d4cfca" d="M12 58h72v2H12zm0-6h2v2h-2zm0-12h2v2h-2zm0 6h2v2h-2zm0-12h2v2h-2zm0-6h2v2h-2zm0-12h2v2h-2zm0 6h2v2h-2z"/></svg>