<svg width="96" height="72" xmlns="http://www.w3.org/2000/svg" viewBox="0 0 96 72"><path fill="#d4cfca" d="M0 0h96v72H0z" data-name="bkgds_rw_light"/><g data-name="icons_rw_light"><path fill="#fff" d="M4 4h27v30H4z"/><path fill="#5c926d" d="m21 15-4-3-3 4-4-1v5l2 3h11l2-6v-6z"/><path fill="#deb068" d="m21.364 20-4.728-2L14 21l-4-1v7h15V17z"/><path fill="#fff" d="M35 38h26v30H35z"/><path fill="#5c926d" d="m51 49-3-3-3 4-4-1v5l2 3h10l2-6v-6z"/><path fill="#deb068" d="m51.364 54-3.728-2L45 55l-4-1v7h14V51z"/><path fill="#fff" d="M65 38h27v30H65z"/><path fill="#5c926d" d="M78.5 45.5a7.5 7.5 0 1 0 5.303 12.803z"/><path fill="#437c94" d="M85.429 50.13A7.5 7.5 0 0 0 78.5 45.5V53z"/><path fill="#deb068" d="M85.429 50.13 78.5 53l5.303 5.303A7.477 7.477 0 0 0 86 53a7.486 7.486 0 0 0-.571-2.87"/><path fill="#fff" d="M4 38h27v30H4z"/><path fill="#d4cfca" d="m11.947 58.724-.894-.448 4.349-8.699 4 5 3.651-7.301.894.448-4.349 8.699-4-5z"/><circle cx="19.5" cy="55.5" r="1.5" fill="#5c926d"/><circle cx="23.5" cy="47.5" r="1.5" fill="#5c926d"/><circle cx="11.5" cy="58.5" r="1.5" fill="#5c926d"/><circle cx="15.5" cy="50.5" r="1.5" fill="#5c926d"/><path fill="#fff" d="M65 4h27v30H65zM35 4h26v30H35z"/><path fill="#5c926d" d="M48 11.5a7.5 7.5 0 1 0 5.303 12.803z"/><path fill="#437c94" d="M54.929 16.13A7.5 7.5 0 0 0 48 11.5V19z"/><path fill="#deb068" d="M54.929 16.13 48 19l5.303 5.303A7.477 7.477 0 0 0 55.5 19a7.486 7.486 0 0 0-.571-2.87"/><path fill="#d4cfca" d="M76 15h2v11h-2zm-4-3h2v14h-2zm8 6h2v8h-2zm4 3h2v5h-2z"/></g></svg>
