<svg width="96" height="72" xmlns="http://www.w3.org/2000/svg" viewBox="0 0 96 72"><path fill="#d4cfca" d="M0 0h96v72H0z" data-name="bkgds_rw_light"/><g data-name="icons_rw_light"><path fill="#fff" d="M35 38h26v30H35zM4 38h27v30H4z"/><path fill="#5c926d" d="M17.5 45.5a7.5 7.5 0 1 0 5.303 12.803z"/><path fill="#437c94" d="M24.429 50.13A7.5 7.5 0 0 0 17.5 45.5V53z"/><path fill="#deb068" d="M24.429 50.13 17.5 53l5.303 5.303A7.477 7.477 0 0 0 25 53a7.486 7.486 0 0 0-.571-2.87"/><path fill="#d4cfca" d="M45 49h2v11h-2zm-4-3h2v14h-2zm8 6h2v8h-2zm4 3h2v5h-2z"/><path fill="#fff" d="M65 38h27v30H65z"/><path fill="#d4cfca" d="m72.947 58.724-.894-.448 4.349-8.699 4 5 3.651-7.301.894.448-4.349 8.699-4-5z"/><circle cx="80.5" cy="55.5" r="1.5" fill="#5c926d"/><circle cx="84.5" cy="47.5" r="1.5" fill="#5c926d"/><circle cx="72.5" cy="58.5" r="1.5" fill="#5c926d"/><circle cx="76.5" cy="50.5" r="1.5" fill="#5c926d"/><path fill="#fff" d="M4 4h88v30H4z"/><path fill="#5c926d" d="m86 10-8 7-8-4-7 3-9-6-8 7-8 1-8-8-8 6-6-3-6 5v6l2 1h73l1-10z"/><path fill="#5c926d" d="m86 16-8 9-8-5-7 4-9-7-8 6-8 2-8-4-8 4-6-1-6 1v2h76z"/><path fill="#deb068" d="m86 15-8 9-8-5-7 4-9-7-8 6-8 2-8-4-8 4-6-1-6 1v4h76z"/></g></svg>
