<svg xmlns="http://www.w3.org/2000/svg" viewBox="0 0 96 72"><path fill="#d4cfca" d="M0 0h96v72H0z" data-name="bkgds_rw_light"/><g data-name="icons_rw_light"><path fill="#fff" d="M4 5h88v18H4zm0 22h18.667v18H4zm22.667 0H46v18H26.667zM50 27h19.333v18H50zm23.333 0H92v18H73.333zM4 49h18.667v18H4zm22.667 0H46v18H26.667zM50 49h19.333v18H50zm23.333 0H92v18H73.333z"/><path fill="#5c926d" d="M77 12h11v4H77z"/><path fill="#d4cfca" d="m15.675 16.776-1.77-1.771c.33-.491.523-1.081.523-1.716 0-1.703-1.386-3.089-3.089-3.089S8.25 11.586 8.25 13.289s1.386 3.089 3.089 3.089a3.07 3.07 0 0 0 1.717-.524l1.769 1.77a.601.601 0 0 0 .85-.848m-4.336-1.598c-1.042 0-1.889-.848-1.889-1.889s.847-1.889 1.889-1.889 1.889.848 1.889 1.889-.847 1.889-1.889 1.889M18 12h54v4H18z"/></g></svg>