<svg xmlns="http://www.w3.org/2000/svg" width="96" height="72"><path fill="#312d2a" d="M4 4h88v64H4z"/><path fill="#665f5b" d="M12 50h22v4H12zm24 0h24v4H36zm26 0h22v4H62zm-50 6h22v4H12zm24 0h24v4H36zm26 0h22v4H62zM12 44h22v4H12zm24 0h24v4H36zm26 0h22v4H62zm-50-6h22v4H12zm0-6h72v4H12zm24 6h24v4H36zm26 0h22v4H62zM19.675 18.776l-1.77-1.771a3.09 3.09 0 1 0-.849.85l1.769 1.769a.6.6 0 0 0 .425.176.6.6 0 0 0 .425-1.024zm-4.336-1.6a1.889 1.889 0 1 1 1.889-1.889 1.891 1.891 0 0 1-1.889 1.891z"/><rect x="23.65" y="12" width="28" height="8" rx="1" fill="#5c926d"/><path fill="#312d2a" d="m50.012 14.683-.565-.566-1.317 1.317-1.317-1.317-.566.566L47.564 16l-1.317 1.317.566.566 1.317-1.317 1.317 1.317.565-.566L48.695 16l1.317-1.317z"/><rect x="53.25" y="12" width="24" height="8" rx="1" fill="#665f5b"/><path fill="#312d2a" d="m75.613 14.683-.566-.566-1.317 1.317-1.317-1.317-.566.566L73.164 16l-1.317 1.317.566.566 1.317-1.317 1.317 1.317.566-.566L74.295 16l1.318-1.317z"/><path fill="#665f5b" d="M12 24h16v4H12zm36 0h16v4H48zm-18 0h16v4H30z"/></svg>