<svg width="96" height="72" xmlns="http://www.w3.org/2000/svg" viewBox="0 0 96 72"><path fill="#665f5b" d="M0 0h96v72H0z" data-name="bkgds_rw_dark"/><g data-name="icons_rw_dark"><path fill="#312d2a" d="M4 4h88v64H4z"/><path fill="#665f5b" d="M44 16h40v4H44zm0 6h24v4H44zm0 6h40v4H44zM12 44h72v4H12zm0 6h72v4H12zm0 6h56v4H12z"/><rect width="24" height="24" x="12" y="12" fill="#5c926d" rx="2" ry="2"/><path fill="#312d2a" d="M29 23h-1.5v-2.5c0-1.93-1.57-3.5-3.5-3.5s-3.5 1.57-3.5 3.5V23H19a.5.5 0 0 0-.5.5v7a.5.5 0 0 0 .5.5h10a.5.5 0 0 0 .5-.5v-7a.5.5 0 0 0-.5-.5m-7.5-2.5c0-1.378 1.121-2.5 2.5-2.5s2.5 1.122 2.5 2.5V23h-5zm7 9.5h-9v-6h9z"/></g></svg>
