<svg xmlns="http://www.w3.org/2000/svg" width="96" height="72"><path fill="#fff" d="M4 4h88v64H4z"/><path fill="#d4cfca" d="M44 32h20v4H44zm22 0h18v4H66zm-22 6h20v4H44zm22 0h18v4H66zM44 26h20v4H44zm22 0h18v4H66zM44 12h40v4H44zm0 8h20v4H44zm22 0h18v4H66zM44 56h20v4H44zm22 0h18v4H66zm-22-6h20v4H44zm22 0h18v4H66zm-22-6h20v4H44zm22 0h18v4H66z"/><rect x="12" y="12" width="24" height="24" rx="2" fill="#437c94"/><path d="M26.5 32a.5.5 0 0 1-.467-.32L21.6 20.156l-1.617 6.465A.5.5 0 0 1 19.5 27h-3a.5.5 0 0 1 0-1h2.609l1.906-7.621A.5.5 0 0 1 21.47 18a.491.491 0 0 1 .5.319l4.43 11.525 1.617-6.465A.5.5 0 0 1 28.5 23h3a.5.5 0 0 1 0 1h-2.609l-1.906 7.621a.5.5 0 0 1-.455.379z" fill="#fff"/></svg>