<svg width="96" height="72" xmlns="http://www.w3.org/2000/svg" viewBox="0 0 96 72"><path fill="#665f5b" d="M0 0h96v72H0z" data-name="bkgds_rw_dark"/><g data-name="icons_rw_dark"><path fill="#312d2a" d="M4 4h88v64H4z"/><path fill="#665f5b" d="M44 16h40v4H44zm0 6h16v4H44z"/><path fill="#5c926d" d="M76 56h8v4h-8z"/><path fill="#665f5b" d="M66 56h8v4h-8zM52 39h32v4H52zm0 6h32v4H52zm0-12h28v4H52zm-8 0h4v4h-4zm0 6h4v4h-4zm0 6h4v4h-4z"/><rect width="24" height="24" x="12" y="12" fill="#5c926d" rx="2" ry="2"/><path fill="#312d2a" d="M31.778 20.347a.859.859 0 0 0-.712-.347h-12.11l-.284-1.136A1.168 1.168 0 0 0 17.566 18h-1a.5.5 0 0 0 0 1h1c.06.011.11.051.136.106l1.758 7.03c.135.502.586.854 1.106.864h8.5a1.238 1.238 0 0 0 1.132-.816l1.684-5.052a.86.86 0 0 0-.104-.785m-2.528 5.521a.259.259 0 0 1-.184.132h-8.5a.189.189 0 0 1-.136-.106L19.206 21h11.666zM21.066 28a1 1 0 1 1 0 2 1 1 0 0 1 0-2m7 0a1 1 0 1 1 0 2 1 1 0 0 1 0-2"/></g></svg>
