<svg xmlns="http://www.w3.org/2000/svg" viewBox="0 0 96 72"><path fill="#d4cfca" d="M96 72H0V0h96z" data-name="bkgds_rw_light"/><g data-name="icons_rw_light"><path fill="#fff" d="M4 4h88v64H4z"/><path fill="#5c926d" d="M4 4h6v64H4z"/><path fill="#d4cfca" d="M52 10h34v12H52z"/><path fill="#fff" d="M54 12h30v8H54z"/><path fill="#d4cfca" d="M52 26h34v12H52z"/><path fill="#fff" d="M54 28h30v8H54z"/><path fill="#d4cfca" d="M15 10h34v12H15z"/><path fill="#fff" d="M17 12h30v8H17z"/><path fill="#d4cfca" d="M15 26h34v12H15z"/><path fill="#fff" d="M17 28h30v8H17z"/><path fill="#d4cfca" d="M52 42h34v12H52z"/><path fill="#fff" d="M54 44h30v8H54z"/><path fill="#d4cfca" d="M15 42h34v12H15z"/><path fill="#fff" d="M17 44h30v8H17z"/><path fill="#5c926d" d="M78 58h8v4h-8z"/><path fill="#d4cfca" d="M68 58h8v4h-8z"/></g></svg>