<svg xmlns="http://www.w3.org/2000/svg" width="96" height="72"><path fill="#312d2a" d="M4 4h88v64H4z"/><path fill="#665f5b" d="M32 12h52v6H32z"/><path fill="#312d2a" d="M34 14h48v2H34z"/><path fill="#665f5b" d="M32 32h52v20H32z"/><path fill="#312d2a" d="M34 34h48v16H34z"/><path fill="#665f5b" d="M12 14h16v2H12zm20 8h52v6H32z"/><path fill="#312d2a" d="M34 24h44v2H34zm46 0h2v2h-2z"/><path fill="#665f5b" d="M12 24h16v2H12zm0 10h16v2H12z"/><path fill="#5c926d" d="M76 56h8v4h-8z"/><path fill="#665f5b" d="M66 56h8v4h-8z"/></svg>