<svg width="96" height="72" xmlns="http://www.w3.org/2000/svg" viewBox="0 0 96 72"><path fill="#d4cfca" d="M0 0h96v72H0z" data-name="bkgds_rw_light"/><g data-name="icons_rw_light"><path fill="#fff" d="M4 4h88v64H4z"/><path fill="#d4cfca" d="M44 16h40v4H44zm0 6h16v4H44zm0 32h16v4H44zm0-18h40v4H44zm0 6h40v4H44zm0-12h36v4H44zm0 18h36v4H44z"/><rect width="24" height="24" x="12" y="12" fill="#5c926d" rx="2" ry="2"/><path fill="#fff" d="M24 16a8 8 0 1 0 8 8 8.01 8.01 0 0 0-8-8m0 15a7 7 0 1 1 7-7 7.008 7.008 0 0 1-7 7m0-11a1 1 0 1 1 0 2 1 1 0 0 1 0-2m2 7.5a.5.5 0 0 1-.5.5h-3a.5.5 0 0 1 0-1h.75v-3h-.75a.5.5 0 0 1 0-1h1.75a.5.5 0 0 1 .5.5V27h.75a.5.5 0 0 1 .5.5"/></g></svg>
