<svg width="96" height="72" xmlns="http://www.w3.org/2000/svg" viewBox="0 0 96 72"><path fill="#d4cfca" d="M0 0h96v72H0z" data-name="bkgds_rw_light"/><g data-name="icons_rw_light"><path fill="#fff" d="M4 4h88v64H4z"/><rect width="24" height="24" x="12" y="12" fill="#5c926d" rx="1" ry="1"/><path fill="#d4cfca" d="M12 56h24v4H12zm32 0h42v4H44zm-32-6h24v4H12zm32 0h42v4H44zm-32-6h24v4H12zm32 0h42v4H44z"/><path fill="#fff" d="m31.842 24.135-7.5-7a.5.5 0 0 0-.683 0l-7.5 7a.5.5 0 1 0 .65.76l.032-.03 1.16-1.081V30.5a.5.5 0 0 0 .5.5h4a.5.5 0 0 0 .5-.5V27h2v3.5a.5.5 0 0 0 .5.5h4a.5.5 0 0 0 .5-.5v-6.716l1.159 1.081a.5.5 0 1 0 .682-.73M29.001 30h-3v-3.5a.5.5 0 0 0-.5-.5h-3a.5.5 0 0 0-.5.5V30h-3v-7.149l5-4.667 5 4.666z" data-name="Layer 4"/><path fill="#d4cfca" d="M44 16h40v4H44zm0 6h24v4H44z"/><path fill="#5c926d" d="M76 28h8v4h-8z"/></g></svg>
