<svg xmlns="http://www.w3.org/2000/svg" width="96" height="72"><path fill="#fff" d="M4 4h88v64H4z"/><path fill="#5c926d" d="M12 56h4v4h-4z"/><path fill="#d4cfca" d="M18 56h32v4H18zm34 0h32v4H52z"/><path fill="#5c926d" d="M12 50h4v4h-4z"/><path fill="#d4cfca" d="M18 50h32v4H18zm34 0h32v4H52z"/><path fill="#5c926d" d="M12 44h4v4h-4z"/><path fill="#d4cfca" d="M18 44h32v4H18zm34 0h32v4H52z"/><path fill="#5c926d" d="M12 38h4v4h-4z"/><path fill="#d4cfca" d="M18 38h32v4H18zm34 0h32v4H52z"/><path fill="#5c926d" d="M12 32h4v4h-4z"/><path fill="#d4cfca" d="M18 32h32v4H18zm34 0h32v4H52zm-40-6h72v4H12zm64-12h8v4h-8zm-10 0h8v4h-8zm-46.325 4.776-1.77-1.771a3.09 3.09 0 1 0-.849.85l1.769 1.769a.6.6 0 0 0 .425.176.6.6 0 0 0 .425-1.024zm-4.336-1.6a1.889 1.889 0 1 1 1.889-1.889 1.891 1.891 0 0 1-1.889 1.891zM23 14h38v4H23z"/></svg>