<svg width="96" height="72" xmlns="http://www.w3.org/2000/svg" viewBox="0 0 96 72"><path fill="#d4cfca" d="M0 0h96v72H0z" data-name="bkgds_rw_light"/><g data-name="icons_rw_light"><path fill="#fff" d="M4 4h42v30H4zm0 34h42v30H4z"/><path fill="#437c94" d="M21 48h3v14h-3z"/><path fill="#5c926d" d="M16 44h3v18h-3z"/><path fill="#deb068" d="M26 52h3v10h-3z"/><path fill="#5c926d" d="M31 56h3v6h-3z"/><path fill="#fff" d="M50 38h42v30H50z"/><path fill="#5c926d" d="M33.6 15.429 30 12l-4.15 5.071L21.8 10l-5.4 6.786-6.4-1.357v6.785l3.7 4.072h22.6l3.7-8.143V10z"/><path fill="#deb068" d="M34.091 20.857 30 19l-4.273 4.857-4.909-5.714-4.909 4.071L10 20.857V28h30V16.786z"/><path fill="#fff" d="M50 4h42v30H50z"/><path fill="#5c926d" d="M71 10c-4.971 0-9 4.029-9 9s4.029 9 9 9a8.972 8.972 0 0 0 6.364-2.636z"/><path fill="#437c94" d="M79.314 15.556A9 9 0 0 0 71 10v9z"/><path fill="#deb068" d="M79.314 15.556 71 19l6.364 6.364A8.972 8.972 0 0 0 80 19a8.97 8.97 0 0 0-.686-3.444"/><path fill="#d4cfca" d="m58.354 59.354-.708-.708 8.219-8.218 9.019 3.007 8.784-7.809.664.748-9.216 8.191-8.981-2.993z"/><circle cx="75" cy="54" r="2" fill="#5c926d"/><circle cx="84" cy="46" r="2" fill="#5c926d"/><circle cx="58" cy="59" r="2" fill="#5c926d"/><circle cx="66" cy="51" r="2" fill="#5c926d"/></g></svg>
