<svg xmlns="http://www.w3.org/2000/svg" width="96" height="72"><path fill="#312d2a" d="M4 4h88v64H4z"/><path fill="#665f5b" d="M12 36h24v2H12zm0 10h32v2H12zm0 10h16v2H12zm10-42h8v4h-8zm-10 0h8v4h-8zm7.675 14.776-1.77-1.771a3.09 3.09 0 1 0-.849.85l1.769 1.769a.6.6 0 0 0 .425.176.6.6 0 0 0 .425-1.024zm-4.336-1.6a1.889 1.889 0 1 1 1.889-1.889 1.891 1.891 0 0 1-1.889 1.891zM23 24h61v4H23z"/><circle cx="69.5" cy="37" r="3" fill="#5c926d"/><circle cx="80.5" cy="37" r="3" fill="#d66959"/><circle cx="69.5" cy="47" r="3" fill="#5c926d"/><circle cx="80.5" cy="47" r="3" fill="#d66959"/><circle cx="69.5" cy="57" r="3" fill="#5c926d"/><circle cx="80.5" cy="57" r="3" fill="#d66959"/></svg>