<svg xmlns="http://www.w3.org/2000/svg" width="96" height="72"><path fill="#fff" d="M4 4h88v64H4z"/><rect x="12" y="12" width="24" height="24" rx="2" fill="#665f5b"/><path d="M29.354 20.146a.5.5 0 0 0-.707 0L22 26.793l-2.646-2.647a.5.5 0 0 0-.707.707l3 3A.493.493 0 0 0 22 28a.5.5 0 0 0 .354-.146l7-7a.5.5 0 0 0 0-.708z" fill="#fff"/><path fill="#d4cfca" d="M52 16h32v2H52zm-8-1h4v4h-4zm8 9h24v2H52zm-8-1h4v4h-4zm8 9h32v2H52zm-8-1h4v4h-4zm8 9h16v2H52zm-8-1h4v4h-4zm8 9h32v2H52zm-8-1h4v4h-4zm8 9h24v2H52zm-8-1h4v4h-4z"/></svg>