<svg xmlns="http://www.w3.org/2000/svg" width="96" height="72"><path fill="#312d2a" d="M4 4h88v64H4z"/><path d="M84 60h-5v-2h3v-3h2v5zm-8.875 0h-7.75v-2h7.75zM63.5 60h-7.75v-2h7.75zm-11.625 0h-7.75v-2h7.75zM40.25 60H32.5v-2h7.75zm-11.625 0h-7.75v-2h7.75zM17 60h-5v-5h2v3h3v2zm-3-8.8h-2v-7.6h2zm0-11.4h-2v-7.6h2zm0-11.4h-2v-7.6h2zM14 17h-2v-5h5v2h-3v3zm61.125-3h-7.75v-2h7.75zM63.5 14h-7.75v-2h7.75zm-11.625 0h-7.75v-2h7.75zM40.25 14H32.5v-2h7.75zm-11.625 0h-7.75v-2h7.75zM84 17h-2v-3h-3v-2h5v5zm0 34.2h-2v-7.6h2zm0-11.4h-2v-7.6h2zm0-11.4h-2v-7.6h2z" fill="#665f5b"/><path d="M48 21.5A14.5 14.5 0 1 0 62.5 36 14.517 14.517 0 0 0 48 21.5zM59.449 31h-5.977a22 22 0 0 0-2.717-7.184A12.54 12.54 0 0 1 59.449 31zm1.051 5a12.471 12.471 0 0 1-.379 3H53.8a22.826 22.826 0 0 0 0-6h6.319a12.471 12.471 0 0 1 .381 3zM48 48.447c-.807-.547-2.549-3.407-3.443-7.447h6.886c-.894 4.04-2.636 6.9-3.443 7.447zM44.205 39a22.054 22.054 0 0 1 0-6H51.8a22.054 22.054 0 0 1 0 6zm-8.7-3a12.471 12.471 0 0 1 .379-3H42.2a22.826 22.826 0 0 0 0 6h-6.321a12.471 12.471 0 0 1-.379-3zM48 23.553c.807.552 2.549 3.407 3.443 7.447h-6.886c.894-4.04 2.636-6.895 3.443-7.447zm-2.755.263A22 22 0 0 0 42.528 31h-5.977a12.54 12.54 0 0 1 8.694-7.184zM36.551 41h5.977a22 22 0 0 0 2.717 7.184A12.54 12.54 0 0 1 36.551 41zm14.2 7.184A22 22 0 0 0 53.472 41h5.977a12.54 12.54 0 0 1-8.694 7.184z" fill="#437c94"/></svg>