<svg xmlns="http://www.w3.org/2000/svg" width="96" height="72"><path fill="#fff" d="M4 4h88v64H4z"/><path fill="#d1cecc" d="M12 26h72v4H12zm64-12h8v4h-8zm-10 0h8v4h-8zM12 50h4v4h-4zm40 0h32v4H52zm-40 6h4v4h-4zm6 0h32v4H18zm-6-18h4v4h-4zm40 0h32v4H52z"/><path fill="#5c926d" d="M12 32h4v4h-4zm6 0h32v4H18zm34 0h32v4H52z"/><path fill="#d1cecc" d="M52 56h32v4H52zM12 44h4v4h-4zm40 0h32v4H52zm-34-6h32v16H18z"/><path fill="#fff" d="M20 40h28v12H20z"/><path fill="#437c94" d="M46 38h4v4h-4z"/><path d="m19.675 18.776-1.77-1.771a3.09 3.09 0 1 0-.849.85l1.769 1.769a.6.6 0 0 0 .425.176.6.6 0 0 0 .425-1.024zm-4.336-1.6a1.889 1.889 0 1 1 1.889-1.889 1.891 1.891 0 0 1-1.889 1.891zM23 14h38v4H23z" fill="#d1cecc"/></svg>