<svg xmlns="http://www.w3.org/2000/svg" width="96" height="72"><path fill="#fff" d="M4 4h88v64H4z"/><rect x="12" y="12" width="24" height="24" rx="2" fill="#5c926d"/><path fill="#d4cfca" d="M12 52h22v2H12zm0 6h16v2H12z"/><path d="M31 16H20a1 1 0 0 0-1 1v1h-1.5a1.5 1.5 0 0 0-1.5 1.5v3a1.5 1.5 0 0 0 1.5 1.5h7a.5.5 0 0 1 .5.5V26a1 1 0 0 0-1 1v4a1 1 0 0 0 1 1h1a1 1 0 0 0 1-1v-4a1 1 0 0 0-1-1v-1.5a1.5 1.5 0 0 0-1.5-1.5h-7a.5.5 0 0 1-.5-.5v-3a.5.5 0 0 1 .5-.5H19v1a1 1 0 0 0 1 1h11a1 1 0 0 0 1-1v-3a1 1 0 0 0-1-1zm-5 15h-1v-4h1zm5-11H20v-3h11z" fill="#fff"/><path d="m74.459 32.6 8.557-2.781A20 20 0 0 0 64 16v9a11 11 0 0 1 10.459 7.6z" fill="#d66959"/><path d="M64 25v-9a20 20 0 0 0-19.021 13.82l8.559 2.78A11 11 0 0 1 64 25z" fill="#d4cfca"/><path d="m53.541 32.6-8.557-2.781a20 20 0 0 0 7.26 22.359l5.29-7.281A11 11 0 0 1 53.541 32.6z" fill="#deb068"/><path d="m57.536 44.9-5.289 7.279a20 20 0 0 0 23.509 0l-5.29-7.279a11 11 0 0 1-12.93 0z" fill="#5c926d"/><path d="m70.464 44.9 5.289 7.279a20 20 0 0 0 7.268-22.359l-8.559 2.78a11 11 0 0 1-3.998 12.3z" fill="#437c94"/></svg>