<svg xmlns="http://www.w3.org/2000/svg" viewBox="0 0 96 72"><path fill="#d4cfca" d="M0 0h96v72H0z" data-name="bkgds_rw_light"/><g data-name="icons_rw_light"><path fill="#fff" d="M4 4h88v16H4zm0 18h88v46H4z"/><path fill="#d4cfca" d="M8 26h64v4H8zm0 10h24v4H8zm0 6h48v2H8zm0 4h64v2H8zm0 16h28v2H8zm64 0h16v2H72zM12.477 11.479A2.377 2.377 0 0 0 10.375 8H8v8h3.458a2.377 2.377 0 0 0 2.375-2.375 2.38 2.38 0 0 0-1.356-2.146M9.5 9.5h.875c.482 0 .875.393.875.875s-.393.875-.875.875H9.5zm1.958 5H9.5v-1.75h1.958c.482 0 .875.393.875.875s-.393.875-.875.875M22 9V8h-4v1h1.295l-1.714 6H16v1h4v-1h-1.295l1.714-6zm6 5c-1.654 0-3-1.346-3-3V8h1v3c0 1.103.897 2 2 2s2-.897 2-2V8h1v3c0 1.654-1.346 3-3 3m-3 1h6v1h-6zm10-2.333h3v1h-3zM35 15h7v1h-7zm0-7h3v1h-3zm0 2.333h7v1h-7zM49 8h6v1h-6zm-3 0h2v2h-2zm3 3h6v1h-6zm-3 0h2v2h-2zm3 3h6v1h-6zm-3 0h2v2h-2zm21 2h-5v-5h5zm-4-1h3v-3h-3z"/><path fill="#d4cfca" d="M61 13h-2V8h5v2h-1V9h-3v3h1z"/></g></svg>