<svg xmlns="http://www.w3.org/2000/svg" viewBox="0 0 96 72"><path fill="#665f5b" d="M0 0h96v72H0z" data-name="bkgds_rw_dark"/><g data-name="icons_rw_dark"><path fill="#312d2a" d="M4 4h88v64H4z"/><path fill="#665f5b" d="M10 11h76v14H10z"/><path fill="#312d2a" d="M12 13h72v10H12z"/><path fill="#665f5b" d="M24 17h26v2H24z"/><path fill="#5c926d" d="M14 15h6v6h-6zm56 1h12v4H70z"/><path fill="#665f5b" d="M10 29h76v14H10z"/><path fill="#312d2a" d="M12 31h72v10H12z"/><path fill="#5c926d" d="M14 33h6v6h-6z"/><path fill="#665f5b" d="M78 34h4v4h-4zM10 47h76v14H10z"/><path fill="#312d2a" d="M12 49h72v10H12z"/><path fill="#5c926d" d="M14 51h6v6h-6zm56 1h12v4H70z"/><path fill="#665f5b" d="M24 35h48v2H24zm0 18h18v2H24z"/></g></svg>