<svg xmlns="http://www.w3.org/2000/svg" viewBox="0 0 96 72"><path fill="#665f5b" d="M0 0h96v72H0z" data-name="bkgds_rw_dark"/><g data-name="icons_rw_dark"><path fill="#312d2a" d="M4 5h88v18H4zm0 22h18.667v24H4zm22.667 0H46v12H26.667zM50 27h19.333v24H50zm23.333 0H92v12H73.333zM4 55h18.667v12H4zm22.667-12H46v24H26.667zM50 55h19.333v12H50zm23.333-12H92v24H73.333z"/><path fill="#5c926d" d="M77 12h11v4H77z"/><path fill="#665f5b" d="m15.675 16.776-1.77-1.771c.33-.491.523-1.081.523-1.716 0-1.703-1.386-3.089-3.089-3.089S8.25 11.586 8.25 13.289s1.386 3.089 3.089 3.089a3.07 3.07 0 0 0 1.717-.524l1.769 1.77a.601.601 0 0 0 .85-.848m-4.336-1.598c-1.042 0-1.889-.848-1.889-1.889s.847-1.889 1.889-1.889 1.889.848 1.889 1.889-.847 1.889-1.889 1.889M19 12h54v4H19z"/></g></svg>