<svg xmlns="http://www.w3.org/2000/svg" viewBox="0 0 96 72"><path fill="#d4cfca" d="M0 0h96v72H0z" data-name="bkgds_rw_light"/><g data-name="icons_rw_light"><path fill="#fff" d="M4 4h88v27H4zm0 29h88v35H4z"/><path fill="#5c926d" d="M76 8h12v4H76z"/><path fill="#d4cfca" d="M8 8h12v4H8zm0 17h8v2H8zm10 0h12v2H18zm14 0h8v2h-8zm10 0h8v2h-8zm-26.325-4.224-1.77-1.771c.33-.491.523-1.081.523-1.716 0-1.703-1.386-3.089-3.089-3.089S8.25 15.586 8.25 17.289s1.386 3.089 3.089 3.089a3.07 3.07 0 0 0 1.717-.524l1.769 1.77a.601.601 0 0 0 .85-.848m-4.336-1.598c-1.042 0-1.889-.848-1.889-1.889s.847-1.889 1.889-1.889 1.889.848 1.889 1.889-.847 1.889-1.889 1.889M18 16h70v4H18z"/></g></svg>