<svg xmlns="http://www.w3.org/2000/svg" width="96" height="72"><path fill="#fff" d="M4 4h88v64H4z"/><path fill="#437c94" d="M38 56h8v8h-8z"/><path fill="#deb068" d="M78 8h8v8h-8z"/><path d="M17 55s5-5 5-10a5 5 0 0 0-10 0c0 5 5 10 5 10z" fill="#d66959"/><path d="M17 43.333A1.667 1.667 0 1 0 18.667 45 1.667 1.667 0 0 0 17 43.333z" fill="#fff"/><path d="M49 29s5-5 5-10a5 5 0 0 0-10 0c0 5 5 10 5 10z" fill="#d66959"/><path d="M49 17.333A1.667 1.667 0 1 0 50.667 19 1.667 1.667 0 0 0 49 17.333z" fill="#fff"/><path d="M62 64v-1.024a8 8 0 0 1 4.464-7.176l2.32-1.143a16 16 0 0 0 7.7-8.207l1.465-3.523A8 8 0 0 1 85.337 38h2.626v26zM8 8v26h3.937a9.453 9.453 0 0 0 8.481-5.283l1.351-2.746a18.919 18.919 0 0 1 9.7-9.114l4.163-1.734A9.457 9.457 0 0 0 41.3 8z" fill="#5c926d"/><path d="m88 20.671-18 7.548V8h-4v21.9l-13.757 5.765a18.163 18.163 0 0 0-2.725-2.124L28.941 20.723A17.964 17.964 0 0 0 19.424 18H8v4h11.424a13.98 13.98 0 0 1 7.4 2.117L47.4 36.936c.236.146.446.32.67.478l-11.031 4.627A17.96 17.96 0 0 0 26 58.641V64h4v-5.359a13.972 13.972 0 0 1 8.586-12.912l12.627-5.3A13.924 13.924 0 0 1 54 48.818V64h4V48.818a17.9 17.9 0 0 0-3.029-9.961L88 25.007z" fill="#d4cfca"/></svg>