<svg xmlns="http://www.w3.org/2000/svg" width="96" height="72"><path fill="#fff" d="M4 4h88v64H4z"/><path d="M58.254 25.747A14.5 14.5 0 0 0 34.9 42.215a1 1 0 0 0 1.808-.858 12.5 12.5 0 1 1 3.192 4.162l4.266-4.266 1.515 1.515a2 2 0 0 0 2.829 0l4.04-4.041.455.455a.643.643 0 1 0 .909-.909l-1.238-1.239 3-3a.82.82 0 0 0-1.16-1.16l-3 3.005-3.386-3.386 3.005-3a.82.82 0 1 0-1.16-1.16l-3 3-1.238-1.238a.643.643 0 1 0-.909.909l.454.454-4.04 4.041a2 2 0 0 0 0 2.828l1.515 1.516-5 5a1 1 0 0 0 0 1.414 14.5 14.5 0 1 0 20.497-20.51z" fill="#5c926d"/><path d="M84 60h-5v-2h3v-3h2v5zm-8.875 0h-7.75v-2h7.75zM63.5 60h-7.75v-2h7.75zm-11.625 0h-7.75v-2h7.75zM40.25 60H32.5v-2h7.75zm-11.625 0h-7.75v-2h7.75zM17 60h-5v-5h2v3h3v2zm-3-8.8h-2v-7.6h2zm0-11.4h-2v-7.6h2zm0-11.4h-2v-7.6h2zM14 17h-2v-5h5v2h-3v3zm61.125-3h-7.75v-2h7.75zM63.5 14h-7.75v-2h7.75zm-11.625 0h-7.75v-2h7.75zM40.25 14H32.5v-2h7.75zm-11.625 0h-7.75v-2h7.75zM84 17h-2v-3h-3v-2h5v5zm0 34.2h-2v-7.6h2zm0-11.4h-2v-7.6h2zm0-11.4h-2v-7.6h2z" fill="#d4cfca"/></svg>