<svg width="96" height="72" xmlns="http://www.w3.org/2000/svg" viewBox="0 0 96 72"><path fill="#665f5b" d="M0 0h96v72H0z" data-name="bkgds_rw_dark"/><g data-name="icons_rw_dark"><path fill="#312d2a" d="M4 4h88v64H4z"/><path fill="#665f5b" d="M44 12h40v6H44z"/><path fill="#312d2a" d="M46 14h36v2H46z"/><path fill="#665f5b" d="M44 32h40v20H44z"/><path fill="#312d2a" d="M46 34h36v16H46z"/><path fill="#665f5b" d="M44 22h40v6H44z"/><path fill="#312d2a" d="M46 24h32v2H46zm34 0h2v2h-2z"/><path fill="#5c926d" d="M76 56h8v4h-8z"/><path fill="#665f5b" d="M66 56h8v4h-8z"/><rect width="24" height="24" x="12" y="12" fill="#5c926d" rx="2" ry="2"/><path fill="#312d2a" d="m26.146 19.854.707-.707 2 2-.707.707zM17.5 31a.5.5 0 0 1-.474-.658l.813-2.44c.148-.442.396-.843.725-1.173l9.169-9.169a1.913 1.913 0 1 1 2.707 2.707l-9.169 9.169c-.33.329-.731.577-1.173.725l-2.44.813A.498.498 0 0 1 17.5 31m11.59-13a.905.905 0 0 0-.65.267l-9.169 9.169c-.22.22-.385.487-.483.782l-.5 1.491 1.491-.5c.295-.098.562-.263.782-.483l9.172-9.166a.914.914 0 0 0-.642-1.56Z"/></g></svg>
