<svg width="96" height="72" xmlns="http://www.w3.org/2000/svg" viewBox="0 0 96 72"><path fill="#d4cfca" d="M0 0h96v72H0z" data-name="bkgds_rw_light"/><g data-name="icons_rw_light"><path fill="#fff" d="M4 4h88v64H4z"/><path fill="#d1cecc" d="M44 36h40v12H44z"/><path fill="#fff" d="M46 38h36v8H46z"/><path fill="#5c926d" d="M76 56h8v4h-8z"/><path fill="#d4cfca" d="M66 56h8v4h-8z"/><circle cx="64" cy="42" r="1.5" fill="#5c926d"/><circle cx="57" cy="42" r="1.5" fill="#5c926d"/><circle cx="50" cy="42" r="1.5" fill="#5c926d"/><circle cx="71" cy="42" r="1.5" fill="#5c926d"/><circle cx="78" cy="42" r="1.5" fill="#5c926d"/><path fill="#d1cecc" d="M44 20h40v12H44z"/><path fill="#fff" d="M46 22h36v8H46z"/><rect width="24" height="24" x="12" y="12" fill="#5c926d" rx="2" ry="2"/><path fill="#fff" d="M28 17h-6a2 2 0 0 0-2 2v1.5a.5.5 0 0 0 1 0V19a1 1 0 0 1 1-1h6a1 1 0 0 1 1 1v10a1 1 0 0 1-1 1h-6a1 1 0 0 1-1-1v-1.5a.5.5 0 0 0-1 0V29a2 2 0 0 0 2 2h6a2 2 0 0 0 2-2V19a2 2 0 0 0-2-2m-4.019 10.019a.5.5 0 0 1-.341-.866l1.652-1.652H16.5a.5.5 0 0 1 0-1h8.792l-1.646-1.646a.5.5 0 0 1 .712-.701l2.494 2.494a.5.5 0 0 1 0 .707l-2.5 2.5a.527.527 0 0 1-.372.165Z"/></g></svg>
