<svg xmlns="http://www.w3.org/2000/svg" viewBox="0 0 96 72"><path fill="#d4cfca" d="M0 0h96v72H0z" data-name="bkgds_rw_light"/><g data-name="icons_rw_light"><path fill="#fff" d="M4 18h28v22H4zm0 38h28v12H4zm30 0h28v12H34zM4 42h58v12H4zm30-24h28v10H34zm0 12h28v10H34zm30-12h28v50H64z"/><path fill="#d4cfca" d="M68 22h20v2H68zm0 4h12v2H68zm-32-2h12v2H36zm0 12h12v2H36zm0 28h12v2H36zm32-34h16v2H68zM6 32h8v2H6zm0 4h16v2H6zm0 10h8v2H6zm0 4h32v2H6zm62-16h12v2H68z"/><path fill="#fff" d="M4 4h88v12H4z"/><path fill="#d4cfca" d="M8 8h50v4H8z"/><circle cx="86" cy="10" r="2" fill="#d4cfca"/></g></svg>