<svg xmlns="http://www.w3.org/2000/svg" width="96" height="72"><path fill="#fff" d="M4 4h88v64H4z"/><path fill="#d4cfca" d="M20 17h8v2h-8zm0 12h8v2h-8zm0 12h8v2h-8zm0 12h8v2h-8zm48-36h16v2H68zm0 12h16v2H68zm0 12h8v2h-8zm0 12h16v2H68z"/><circle cx="15" cy="18" r="3" fill="#d4cfca"/><circle cx="15" cy="30" r="3" fill="#d4cfca"/><circle cx="15" cy="42" r="3" fill="#d4cfca"/><circle cx="15" cy="54" r="3" fill="#d4cfca"/><path fill="#437c94" d="M36 14h28v8H36z"/><path fill="#5c926d" d="M36 50h28v8H36z"/><path fill="#437c94" d="M36 38h28v8H36z"/><path fill="#d66959" d="M36 26h28v8H36z"/><circle cx="40.5" cy="18" r="1.5" fill="#fff"/><circle cx="40.5" cy="30" r="1.5" fill="#fff"/><circle cx="40.5" cy="42" r="1.5" fill="#fff"/><circle cx="40.5" cy="54" r="1.5" fill="#fff"/></svg>