<svg width="96" height="72" xmlns="http://www.w3.org/2000/svg" viewBox="0 0 96 72"><path fill="#d4cfca" d="M0 0h96v72H0z" data-name="bkgds_rw_light"/><g data-name="icons_rw_light"><path fill="#fff" d="M4 4h88v64H4z"/><path fill="#d4cfca" d="M44 16h40v4H44zm0 6h16v4H44z"/><path fill="#5c926d" d="M76 56h8v4h-8z"/><path fill="#d4cfca" d="M66 56h8v4h-8zM52 39h32v4H52zm0 6h32v4H52zm0-12h28v4H52zm-8 0h4v4h-4zm0 6h4v4h-4zm0 6h4v4h-4z"/><rect width="24" height="24" x="12" y="12" fill="#5c926d" rx="2" ry="2"/><path fill="#fff" d="m30.239 19.828-6-3.267a.502.502 0 0 0-.479 0l-6 3.267a.5.5 0 0 0-.26.439v7.467c0 .183.101.352.261.439l6 3.267.005-.003A.515.515 0 0 0 24 31.5c.082 0 .164-.02.239-.061l6-3.267a.5.5 0 0 0 .261-.439v-7.466a.5.5 0 0 0-.261-.439M23.5 30.159l-5-2.722v-6.329l5 2.722zm.5-7.195-4.954-2.697L24 17.569l4.954 2.697zm5.5 4.473-5 2.722V23.83l5-2.722z"/></g></svg>
