<svg xmlns="http://www.w3.org/2000/svg" width="96" height="72"><path fill="#fff" d="M4 4h88v64H4z"/><path fill="#d4cfca" d="M44 12h40v4H44zm0 8h16v4H44zm0 34h16v4H44zm0-18h40v4H44zm0 6h40v4H44zm0-12h36v4H44zm0 18h36v4H44z"/><rect x="12" y="12" width="24" height="24" rx="2" fill="#5c926d"/><path d="M24 16a8 8 0 1 0 8 8 8 8 0 0 0-8-8zm0 15a7 7 0 1 1 7-7 7 7 0 0 1-7 7z" fill="#fff"/><circle cx="24" cy="21" r="1" fill="#fff"/><path d="M25.5 27h-.75v-3.5a.5.5 0 0 0-.5-.5H22.5a.5.5 0 0 0 0 1h.75v3h-.75a.5.5 0 0 0 0 1h3a.5.5 0 0 0 0-1z" fill="#fff"/></svg>