<svg xmlns="http://www.w3.org/2000/svg" width="96" height="72"><path fill="#fff" d="M4 4h88v64H4z"/><path fill="#5c926d" d="M14 12h68v4H14z"/><path fill="#d4cfca" d="M24 22h8v8h-8zm10 0h8v8h-8zm10 0h8v8h-8zm10 0h8v8h-8zm10 0h8v8h-8zm10 0h8v8h-8zM14 32h8v8h-8zm10 0h8v8h-8zm10 0h8v8h-8zm10 0h8v8h-8zm10 0h8v8h-8zm10 0h8v8h-8zm10 0h8v8h-8zM14 42h8v8h-8zm10 0h8v8h-8z"/><path fill="#5c926d" d="M34 42h8v8h-8z"/><path fill="#d4cfca" d="M44 42h8v8h-8zm10 0h8v8h-8zm10 0h8v8h-8zm10 0h8v8h-8zM14 52h8v8h-8zm10 0h8v8h-8zm10 0h8v8h-8zm10 0h8v8h-8zm10 0h8v8h-8z"/></svg>