<svg xmlns="http://www.w3.org/2000/svg" width="96" height="72"><path fill="#312d2a" d="M4 4h88v64H4z"/><path fill="#665f5b" d="M44 12h40v4H44zm0 18h20v4H44z"/><rect x="12" y="12" width="24" height="24" rx="2" fill="#437c94"/><path d="M72 36h8a4 4 0 0 0 0-8h-8a4 4 0 0 0 0 8zm0-7a3 3 0 1 1-3 3 3 3 0 0 1 3-3zM44 42h20v4H44z" fill="#665f5b"/><path d="M80 40h-8a4 4 0 0 0 0 8h8a4 4 0 0 0 0-8zm0 7a3 3 0 1 1 3-3 3 3 0 0 1-3 3z" fill="#5c926d"/><path fill="#665f5b" d="M44 54h20v4H44z"/><path d="M80 52h-8a4 4 0 0 0 0 8h8a4 4 0 0 0 0-8zm0 7a3 3 0 1 1 3-3 3 3 0 0 1-3 3z" fill="#5c926d"/><path fill="#665f5b" d="M44 20h16v4H44z"/><path d="M29.354 20.146a.5.5 0 0 0-.707 0L22 26.793l-2.646-2.647a.5.5 0 0 0-.707.707l3 3A.493.493 0 0 0 22 28a.5.5 0 0 0 .354-.146l7-7a.5.5 0 0 0 0-.708z" fill="#312d2a"/></svg>