<svg xmlns="http://www.w3.org/2000/svg" viewBox="0 0 96 72"><path fill="#665f5b" d="M0 0h96v72H0z" data-name="bkgds_rw_dark"/><g data-name="icons_rw_dark"><path fill="#312d2a" d="M4 4h88v12H4zm0 14h88v38H4zm0 40h88v10H4z"/><path fill="#665f5b" d="M8 8h40v4H8z"/><path fill="#5c926d" d="M76 8h12v4H76zM4 36h88v10H4z"/><path fill="#665f5b" d="M8 40h8v2H8zm40 0h8v2h-8zm-16 0h6v2h-6zm8 0h6v2h-6zM24 50h8v2h-8zM8 50h6v2H8z"/><path fill="#5c926d" d="M8 56h6v2H8z"/><path fill="#665f5b" d="M16 50h6v2h-6zm2-10h12v2H18z"/></g></svg>