<svg xmlns="http://www.w3.org/2000/svg" viewBox="0 0 96 72"><path fill="#d4cfca" d="M0 0h96v72H0z" data-name="bkgds_rw_light"/><g data-name="icons_rw_light"><path fill="#fff" d="M4 18h58v50H4zm60 0h28v50H64zM4 4h88v12H4z"/><path fill="#5c926d" d="M8 23h6v6H8z"/><path fill="#d4cfca" d="M8 8h50v4H8zm10 16h36v4H18z"/><path fill="#5c926d" d="M8 34h6v6H8z"/><path fill="#d4cfca" d="M18 35h24v4H18z"/><path fill="#5c926d" d="M8 45h6v6H8z"/><path fill="#d4cfca" d="M18 46h40v4H18z"/><path fill="#5c926d" d="M8 56h6v6H8z"/><path fill="#d4cfca" d="M18 57h16v4H18zm50-35h20v2H68zm0 4h12v2H68zm0 4h16v2H68zm0 4h12v2H68z"/><circle cx="86" cy="10" r="2" fill="#d4cfca"/></g></svg>