<svg width="96" height="72" xmlns="http://www.w3.org/2000/svg" viewBox="0 0 96 72"><path fill="#d4cfca" d="M0 0h96v72H0z" data-name="bkgds_rw_light"/><g data-name="icons_rw_light"><path fill="#fff" d="M35 4h26v30H35z"/><circle cx="48" cy="13" r="3" fill="#5c926d"/><path fill="#d4cfca" d="M41 20h14v2H41zm0 4h14v2H41z"/><path fill="#fff" d="M66 4h26v30H66z"/><circle cx="79" cy="13" r="3" fill="#5c926d"/><path fill="#d4cfca" d="M72 20h14v2H72zm0 4h14v2H72z"/><path fill="#fff" d="M35 38h26v30H35z"/><circle cx="48" cy="47" r="3" fill="#5c926d"/><path fill="#d4cfca" d="M41 54h14v2H41zm0 4h14v2H41z"/><path fill="#fff" d="M4 4h26v30H4z"/><circle cx="17" cy="13" r="3" fill="#5c926d"/><path fill="#d4cfca" d="M10 20h14v2H10zm0 4h14v2H10z"/><path fill="#fff" d="M4 38h26v30H4z"/><circle cx="17" cy="47" r="3" fill="#5c926d"/><path fill="#d4cfca" d="M10 54h14v2H10zm0 4h14v2H10z"/><path fill="#fff" d="M66 38h26v30H66z"/><circle cx="79" cy="47" r="3" fill="#5c926d"/><path fill="#d4cfca" d="M72 54h14v2H72zm0 4h14v2H72z"/></g></svg>
