<svg width="96" height="72" xmlns="http://www.w3.org/2000/svg" viewBox="0 0 96 72"><path fill="#665f5b" d="M0 0h96v72H0z" data-name="bkgds_rw_dark"/><g data-name="icons_rw_dark"><path fill="#312d2a" d="M4 4h88v64H4z"/><rect width="24" height="24" x="11.552" y="12" fill="#5c926d" rx="2" ry="2"/><path fill="#312d2a" d="M24 28.878a1 1 0 1 1 0 2 1 1 0 0 1 0-2m0-11.75a4.029 4.029 0 0 0-4.25 3.75.75.75 0 0 0 1.5 0 2.54 2.54 0 0 1 2.75-2.25 2.54 2.54 0 0 1 2.75 2.25c0 1.155-.657 1.718-1.488 2.431a4.489 4.489 0 0 0-2.012 3.569.75.75 0 0 0 1.5 0c0-1.155.657-1.718 1.488-2.431a4.489 4.489 0 0 0 2.012-3.569 4.029 4.029 0 0 0-4.25-3.75"/><path fill="#665f5b" d="M60 42h16v4H60zm0-6h24v4H60zm0 20h16v4H60zm0-6h24v4H60zm-9.375-29.224-1.77-1.771c.33-.491.523-1.081.523-1.716 0-1.703-1.386-3.089-3.089-3.089S43.2 15.586 43.2 17.289s1.386 3.089 3.089 3.089a3.07 3.07 0 0 0 1.717-.524l1.769 1.77a.601.601 0 0 0 .85-.848m-4.336-1.598c-1.042 0-1.889-.848-1.889-1.889s.847-1.889 1.889-1.889 1.889.848 1.889 1.889-.847 1.889-1.889 1.889M54 16h30v4H54zm-4 20c-3.309 0-6 1.95-6 4.348 0 1.246.73 2.422 2.009 3.247a5.256 5.256 0 0 1-1.098 2.044.22.22 0 0 0-.026.252.214.214 0 0 0 .226.106 5.508 5.508 0 0 0 2.884-1.553 8.023 8.023 0 0 0 2.004.253c3.309 0 6-1.95 6-4.348s-2.691-4.348-6-4.348Zm0 14c-3.309 0-6 1.95-6 4.348 0 1.246.73 2.422 2.009 3.247a5.256 5.256 0 0 1-1.098 2.044.22.22 0 0 0-.026.252.214.214 0 0 0 .226.106 5.508 5.508 0 0 0 2.884-1.553 8.023 8.023 0 0 0 2.004.253c3.309 0 6-1.95 6-4.348s-2.691-4.348-6-4.348Zm-6-24h8v4h-8zm10 0h8v4h-8zm10 0h8v4h-8z"/></g></svg>
