<svg xmlns="http://www.w3.org/2000/svg" width="96" height="72"><path fill="#312d2a" d="M4 4h88v64H4z"/><path d="M84 60h-5v-2h3v-3h2v5zm-8.875 0h-7.75v-2h7.75zM63.5 60h-7.75v-2h7.75zm-11.625 0h-7.75v-2h7.75zM40.25 60H32.5v-2h7.75zm-11.625 0h-7.75v-2h7.75zM17 60h-5v-5h2v3h3v2zm-3-8.8h-2v-7.6h2zm0-11.4h-2v-7.6h2zm0-11.4h-2v-7.6h2zM14 17h-2v-5h5v2h-3v3zm61.125-3h-7.75v-2h7.75zM63.5 14h-7.75v-2h7.75zm-11.625 0h-7.75v-2h7.75zM40.25 14H32.5v-2h7.75zm-11.625 0h-7.75v-2h7.75zM84 17h-2v-3h-3v-2h5v5zm0 34.2h-2v-7.6h2zm0-11.4h-2v-7.6h2zm0-11.4h-2v-7.6h2z" fill="#665f5b"/></svg>