<svg xmlns="http://www.w3.org/2000/svg" width="96" height="72"><path fill="#312d2a" d="M30 20h34V4H4v46h26V20z"/><path fill="#665f5b" d="M18 20h10v4H18zm0 6h10v4H18zm0 6h10v4H18zm0 6h10v4H18zm-6-26h44v4H12zm0 26h4v4h-4zm0-6h4v4h-4zm0-6h4v4h-4z"/><path fill="#d4cfca" d="M69 56h21v4H69z"/><path fill="#665f5b" d="M12 20h4v4h-4z"/><path fill="#312d2a" d="M32 22h60v46H32z"/><path fill="#665f5b" d="M40 30h44v6H40z"/><path fill="#312d2a" d="M42 32h40v2H42z"/><path fill="#665f5b" d="M40 40h44v12H40z"/><path fill="#312d2a" d="M42 42h40v8H42z"/><path fill="#d4cfca" d="M77 56h8v4h-8z"/><path fill="#665f5b" d="M67 56h8v4h-8z"/></svg>