<svg xmlns="http://www.w3.org/2000/svg" viewBox="0 0 96 72"><path fill="#d4cfca" d="M0 0h96v72H0z" data-name="bkgds_rw_light"/><g data-name="icons_rw_light"><path fill="#fff" d="M4 26h58v42H4zm60 0h28v42H64zM4 4h88v20H4z"/><path fill="#d4cfca" d="M18 10h16v4H18zm-2 10H8v-2h8zm14 0H18v-2h12zm6 0h-4v-2h4zm6 0h-4v-2h4z"/><path fill="#5c926d" d="M76 8h12v4H76z"/><circle cx="12" cy="10" r="2" fill="#5c926d"/><path fill="#5c926d" d="M8.142 16h7.717c-.446-1.722-1.997-3-3.858-3s-3.412 1.278-3.858 3Z"/><path fill="#d4cfca" d="M8 30h12v4H8zm0 6h34v2H8zm0 4h30v2H8zm0 4h42v2H8zm60-14h16v2H68zm0 12h16v2H68zm0 4h8v2h-8zm0-12h8v2h-8zm0 4h12v2H68z"/></g></svg>