<svg xmlns="http://www.w3.org/2000/svg" width="96" height="72"><path fill="#312d2a" d="M4 4h88v64H4z"/><rect x="10" y="10" width="24" height="24" rx="1" fill="#665f5b"/><rect x="10" y="38" width="24" height="24" rx="1" fill="#5c926d"/><path fill="#665f5b" d="M40 16h22v2H40zm0 6h22v2H40zm0 6h16v2H40zm0 16h22v2H40zm0 6h22v2H40zm0 6h16v2H40zm41-36h-1v-2a4 4 0 0 0-8 0v2h-1a2 2 0 0 0-2 2v6a2 2 0 0 0 2 2h10a2 2 0 0 0 2-2v-6a2 2 0 0 0-2-2zm-8-2a3 3 0 0 1 6 0v2h-6z"/><path d="m83.33 53.566-4.852-4.852a.568.568 0 0 1-.153-.53 4.5 4.5 0 0 0 .115-.8 5.221 5.221 0 1 0-10.434 0 5.266 5.266 0 0 0 2.985 4.361 4.667 4.667 0 0 0 3.883.217.571.571 0 0 1 .6.133l1.335 1.334h2.049a.572.572 0 0 1 .572.571v1.715h1.714a.571.571 0 0 1 .571.571V58H84v-2.816a2.31 2.31 0 0 0-.67-1.618zM72.5 48a1.5 1.5 0 1 1 1.5-1.5 1.5 1.5 0 0 1-1.5 1.5z" fill="#5c926d"/><path d="m27.864 25.381-2.02-.857a2 2 0 0 1-1.16-1.356l-.037-.145A5.174 5.174 0 0 0 26.5 19a4.775 4.775 0 0 0-4.5-5 4.775 4.775 0 0 0-4.5 5 5.175 5.175 0 0 0 1.854 4.024l-.037.145a2.007 2.007 0 0 1-1.161 1.356l-2.019.855A3.493 3.493 0 0 0 14 28.6v.9a.5.5 0 0 0 1 0v-.9a2.5 2.5 0 0 1 1.526-2.3l2.02-.855a3.006 3.006 0 0 0 1.675-1.857 4.053 4.053 0 0 0 3.559 0 3 3 0 0 0 1.674 1.857l2.021.857A2.493 2.493 0 0 1 29 28.6v.9a.5.5 0 0 0 1 0v-.9a3.49 3.49 0 0 0-2.136-3.219zM18.5 19a3.779 3.779 0 0 1 3.5-4 3.779 3.779 0 0 1 3.5 4 3.779 3.779 0 0 1-3.5 4 3.779 3.779 0 0 1-3.5-4zm9.364 34.381-2.02-.857a2 2 0 0 1-1.16-1.356l-.037-.145A5.174 5.174 0 0 0 26.5 47a4.775 4.775 0 0 0-4.5-5 4.775 4.775 0 0 0-4.5 5 5.175 5.175 0 0 0 1.854 4.024l-.037.145a2.007 2.007 0 0 1-1.161 1.356l-2.019.855A3.493 3.493 0 0 0 14 56.6v.9a.5.5 0 0 0 1 0v-.9a2.5 2.5 0 0 1 1.526-2.3l2.02-.855a3.006 3.006 0 0 0 1.675-1.857 4.053 4.053 0 0 0 3.559 0 3 3 0 0 0 1.674 1.857l2.021.857A2.493 2.493 0 0 1 29 56.6v.9a.5.5 0 0 0 1 0v-.9a3.49 3.49 0 0 0-2.136-3.219zM18.5 47a3.779 3.779 0 0 1 3.5-4 4.036 4.036 0 0 1 0 8 3.779 3.779 0 0 1-3.5-4z" fill="#312d2a"/></svg>