<svg width="96" height="72" xmlns="http://www.w3.org/2000/svg" viewBox="0 0 96 72"><path fill="#665f5b" d="M0 0h96v72H0z" data-name="bkgds_rw_dark"/><g data-name="icons_rw_dark"><path fill="#312d2a" d="M4 4h88v64H4z"/><path fill="#665f5b" d="M28 46h40v4H28zm10 6h20v4H38z"/><rect width="24" height="24" x="36" y="16" fill="#5c926d" rx="2" ry="2"/><path fill="#312d2a" d="M54 21H42c-1.103 0-2 .897-2 2v10c0 1.103.897 2 2 2h12c1.103 0 2-.897 2-2V23c0-1.103-.897-2-2-2m1 12c0 .552-.449 1-1 1H42c-.551 0-1-.448-1-1V23c0-.551.449-1 1-1h12c.551 0 1 .449 1 1zm-10-6.293-1.146 1.147a.502.502 0 0 1-.708 0 .5.5 0 0 1 0-.707L44.293 26l-1.147-1.146a.5.5 0 0 1 .707-.707L45 25.293l1.146-1.146a.5.5 0 0 1 .707.707L45.707 26l1.146 1.146a.5.5 0 0 1-.707.708zm7.854-1.853L51.707 26l1.146 1.146a.5.5 0 0 1-.707.708L51 26.707l-1.146 1.147a.502.502 0 0 1-.708 0 .5.5 0 0 1 0-.707L50.293 26l-1.147-1.146a.5.5 0 0 1 .707-.707L51 25.293l1.146-1.146a.5.5 0 0 1 .708.707m-.932 6.914a.499.499 0 0 1-.689.155c-1.905-1.207-4.56-1.207-6.465 0a.501.501 0 0 1-.535-.845c2.226-1.408 5.31-1.408 7.535 0a.5.5 0 0 1 .154.69"/></g></svg>
