<svg id="Layer_1" xmlns="http://www.w3.org/2000/svg" width="96" height="72"><defs><style>.cls-2{fill:#fff}</style></defs><path class="cls-2" d="M4 4h88v64H4V4Z"/><path d="M44 12h40v4H44v-4Zm0 8h16v4H44v-4Zm0 34h16v4H44v-4Zm0-18h40v4H44v-4Zm0 6h40v4H44v-4Zm0-12h36v4H44v-4Zm0 18h36v4H44v-4Z" style="fill:#d5cfca"/><rect x="11.88" y="12" width="24" height="24" rx="2" ry="2" style="fill:#f1cc6f"/><path class="cls-2" d="M24.79 30.92c0 .55-.46.99-1.01.99s-.99-.46-.99-1.01.46-.99 1.01-.99.99.46.99 1.01Zm4.95-2.71-1.39-2.13c-.32-.5-.49-1.08-.48-1.67l.03-2.45c.02-1.81-1.22-3.41-2.95-3.88v-1.14c.02-.55-.42-1.01-.97-1.01s-1.01.44-1.01.99v1.14c-1.76.43-3.04 2-3.06 3.81l-.03 2.45c0 .59-.19 1.17-.52 1.66l-1.44 2.1c-.1.15-.12.35-.03.51s.25.27.44.27l11 .13c.18 0 .36-.1.44-.26s.08-.36-.02-.51Z"/></svg>