<svg width="96" height="72" xmlns="http://www.w3.org/2000/svg" viewBox="0 0 96 72"><path fill="#665f5b" d="M0 0h96v72H0z" data-name="bkgds_rw_dark"/><g data-name="icons_rw_dark"><path fill="#312d2a" d="M4 4h88v64H4z"/><path fill="#5c926d" d="M14 12h68v4H14z"/><path fill="#665f5b" d="M24 22h8v8h-8zm10 0h8v8h-8zm10 0h8v8h-8zm10 0h8v8h-8zm10 0h8v8h-8zm10 0h8v8h-8zM14 32h8v8h-8zm10 0h8v8h-8zm10 0h8v8h-8zm10 0h8v8h-8zm10 0h8v8h-8zm10 0h8v8h-8zm10 0h8v8h-8zM14 42h8v8h-8zm10 0h8v8h-8z"/><path fill="#5c926d" d="M34 42h8v8h-8z"/><path fill="#665f5b" d="M44 42h8v8h-8zm10 0h8v8h-8zm10 0h8v8h-8zm10 0h8v8h-8zM14 52h8v8h-8zm10 0h8v8h-8zm10 0h8v8h-8zm10 0h8v8h-8zm10 0h8v8h-8z"/></g></svg>
