<svg width="96" height="72" xmlns="http://www.w3.org/2000/svg" viewBox="0 0 96 72"><path fill="#d4cfca" d="M0 0h96v72H0z" data-name="bkgds_rw_light"/><g data-name="icons_rw_light"><path fill="#fff" d="M4 4h88v64H4z"/><rect width="24" height="24" x="12" y="12" fill="#5c926d" rx="1" ry="1"/><path fill="#d4cfca" d="M44 16h40v4H44zm0 6h32v4H44zm0 6h40v4H44z"/><g fill="#fff"><path d="M20.501 22.5h1v1h-1zm2 0h1v1h-1zm2 0h1v1h-1zm2 0h1v1h-1zm-6 2h1v1h-1zm2 0h1v1h-1zm2 0h1v1h-1zm2 0h1v1h-1zm-6 2h1v1h-1zm2 0h1v1h-1zm2 0h1v1h-1zm2 0h1v1h-1zm-6 2h1v1h-1zm6 0h1v1h-1z"/><path d="M30.016 30.5h-.515V21a.5.5 0 0 0-.5-.5h-2.5v-1.442a.5.5 0 0 0-.493-.5l-1.492-.022V17a.5.5 0 0 0-1 0v1.522l-1.508-.022c-.112.027-.264.05-.358.144a.501.501 0 0 0-.149.356v1.5h-2.5a.5.5 0 0 0-.5.5v9.5h-.515a.5.5 0 0 0 0 1h12.029a.5.5 0 0 0 .001-1m-7.515-10.993 3 .043v.942l-3-.042zm3 10.993v-2h-1v2h-1v-2h-1v2h-3v-9h9v9z"/></g><path fill="#d4cfca" d="M30.5 44h-13a1.5 1.5 0 0 0-1.5 1.5v9a1.5 1.5 0 0 0 1.5 1.5h13a1.5 1.5 0 0 0 1.5-1.5v-9a1.5 1.5 0 0 0-1.5-1.5m-.687 2.694-4.562 3.669a1.984 1.984 0 0 1-2.5 0l-4.564-3.669a.5.5 0 0 1 .598-.802l.028.022 4.562 3.668a.99.99 0 0 0 1.25 0l4.562-3.668a.5.5 0 1 1 .626.778Z" data-name="envelope-filled"/><path fill="#d4cfca" d="m56.862 54.651-2.903-2.916a.473.473 0 0 0-.671-.002l-1.533 1.51a6.53 6.53 0 0 1-5.493-5.527l1.498-1.497a.474.474 0 0 0 0-.67l-2.904-2.917a.506.506 0 0 0-.684 0l-1.481 1.482a2.415 2.415 0 0 0-.619 2.29 15.177 15.177 0 0 0 11 11.019c.198.051.4.075.599.075.629 0 1.243-.243 1.69-.688l1.498-1.49a.472.472 0 0 0 .002-.67ZM72 43a5.256 5.256 0 0 0-5.25 5.25c0 3.989 4.751 8.446 4.953 8.633a.437.437 0 0 0 .595 0c.202-.187 4.953-4.644 4.953-8.633a5.256 5.256 0 0 0-5.25-5.25Zm0 7.178a2 2 0 1 1-.001-3.999A2 2 0 0 1 72 50.178"/></g></svg>
