<svg xmlns="http://www.w3.org/2000/svg" width="96" height="72" viewBox="0 0 96 72"><path fill="#665f5b" d="M0 0h96v72H0z" data-name="bkgds_rw_dark"/><g data-name="icons_rw_dark"><path fill="#312d2a" d="M4 4h88v64H4z"/><path fill="#665f5b" d="M12 33h24v2H12zm0 4h24v2H12zm0 18h32v2H12zm0 4h16v2H12zm0-47h32v4H12zm7.675 14.776-1.77-1.771c.33-.491.523-1.081.523-1.716 0-1.703-1.386-3.089-3.089-3.089s-3.089 1.386-3.089 3.089 1.386 3.089 3.089 3.089a3.07 3.07 0 0 0 1.717-.524l1.769 1.77a.601.601 0 0 0 .85-.848m-4.336-1.598c-1.042 0-1.889-.848-1.889-1.889s.847-1.889 1.889-1.889 1.889.848 1.889 1.889-.847 1.889-1.889 1.889M23 22h61v4H23z"/><path fill="#5c926d" d="m60 40.414-3.707-3.707 1.414-1.414L60 37.586l5.293-5.293 1.414 1.414z"/><path fill="#d66959" d="m80.707 33.707-1.414-1.414L77 34.586l-2.293-2.293-1.414 1.414L75.586 36l-2.293 2.293 1.414 1.414L77 37.414l2.293 2.293 1.414-1.414L78.414 36z"/><path fill="#5c926d" d="m60 62.414-3.707-3.707 1.414-1.414L60 59.586l5.293-5.293 1.414 1.414z"/><path fill="#d66959" d="m80.707 55.707-1.414-1.414L77 56.586l-2.293-2.293-1.414 1.414L75.586 58l-2.293 2.293 1.414 1.414L77 59.414l2.293 2.293 1.414-1.414L78.414 58z"/><path fill="#665f5b" d="M12 46h72v2H12z"/></g></svg>
