<svg xmlns="http://www.w3.org/2000/svg" width="96" height="72"><path fill="#312d2a" d="M4 4h88v64H4z"/><path fill="#deb068" d="M68 22h6v32h-6z"/><path fill="#437c94" d="M58 14h6v40h-6z"/><path fill="#5c926d" d="M48 22h6v32h-6z"/><path fill="#deb068" d="M38 26h6v28h-6z"/><path fill="#437c94" d="M28 30h6v24h-6z"/><path fill="#5c926d" d="M18 34h6v20h-6zm60-8h6v28h-6z"/><path fill="#665f5b" d="M12 56h72v2H12zm0-6h2v2h-2zm0-12h2v2h-2zm0 6h2v2h-2zm0-12h2v2h-2zm0-6h2v2h-2zm0-12h2v2h-2zm0 6h2v2h-2z"/></svg>