<svg id="Layer_1" xmlns="http://www.w3.org/2000/svg" width="96" height="72"><defs><style>.cls-3{fill:#312d2b}</style></defs><path class="cls-3" d="M4 4h88v64H4V4Z"/><path d="M44 12h40v4H44v-4Zm0 8h16v4H44v-4Zm0 34h16v4H44v-4Zm0-18h40v4H44v-4Zm0 6h40v4H44v-4Zm0-12h36v4H44v-4Zm0 18h36v4H44v-4Z" style="fill:#67605c"/><rect x="11.88" y="12" width="24" height="24" rx="2" ry="2" style="fill:#f1cc6f"/><path class="cls-3" d="M24.88 30.91c0 .55-.45 1-1 1s-1-.45-1-1 .45-1 1-1 1 .45 1 1Zm4.91-2.77-1.41-2.12a2.97 2.97 0 0 1-.5-1.66v-2.45c0-1.81-1.26-3.4-3-3.85v-1.14c0-.55-.45-1-1-1s-1 .45-1 1v1.14c-1.74.45-3 2.03-3 3.85v2.45c0 .59-.17 1.17-.5 1.66l-1.41 2.12c-.1.15-.11.35-.03.51s.26.27.44.27h11c.19 0 .35-.1.44-.26s.08-.36-.03-.51Z"/></svg>