<svg xmlns="http://www.w3.org/2000/svg" width="96" height="72"><path fill="#fff" d="M4 4h88v64H4z"/><path fill="#d4cfca" d="M36 12h26v2H36z"/><circle cx="21" cy="25" r="3" fill="#d4cfca"/><circle cx="39" cy="25" r="3" fill="#d4cfca"/><circle cx="57" cy="25" r="3" fill="#5c926d"/><circle cx="75" cy="25" r="3" fill="#d4cfca"/><path fill="#d4cfca" d="M34 42h46v6H34z"/><path fill="#fff" d="M36 44h42v2H36z"/><path fill="#d4cfca" d="M16 44h14v2H16zm18-12h46v6H34z"/><path fill="#fff" d="M36 34h38v2H36zm40 0h2v2h-2z"/><path fill="#d4cfca" d="M16 34h14v2H16z"/><path fill="#5c926d" d="M72 56h12v4H72z"/><path fill="#d4cfca" d="M12 56h12v4H12zm14-32h8v2h-8zm18 0h8v2h-8zm18 0h8v2h-8z"/></svg>