<svg xmlns="http://www.w3.org/2000/svg" viewBox="0 0 96 72"><path fill="#665f5b" d="M0 0h96v72H0z" data-name="bkgds_rw_dark"/><g data-name="icons_rw_dark"><path fill="#312d2a" d="M4 4h88v64H4z"/><path fill="#665f5b" d="M9 9h12v12H9zm0 14h12v12H9zm0 14h12v12H9zm0 14h12v12H9zM23 9h26v12H23z"/><path fill="#5c926d" d="M23 23h26v26H23z"/><path fill="#665f5b" d="M23 51h26v12H23zM51 9h12v12H51zm0 14h12v26H51zm0 28h12v12H51zM65 9h12v12H65zm0 14h12v26H65zm0 28h12v12H65zM83 9h2v6h-2z"/><path fill="#665f5b" d="M87 11v2h-6v-2zm0 10v2h-6v-2z"/><circle cx="84" cy="32" r="3" fill="#665f5b"/><path fill="#312d2a" d="M36 30a4 4 0 0 0-4 4c0 4 4 8 4 8s4-4 4-8a4 4 0 0 0-4-4m0 5.334a1.333 1.333 0 1 1 0-2.667 1.333 1.333 0 0 1 0 2.667"/></g></svg>