<svg xmlns="http://www.w3.org/2000/svg" width="96" height="72"><path fill="#312d2a" d="M4 4h88v64H4z"/><rect x="10" y="24" width="24" height="24" rx="2" fill="#5c926d"/><rect x="62" y="24" width="24" height="24" rx="2" transform="rotate(-180 74 36)" fill="#d66959"/><rect x="36" y="24" width="24" height="24" rx="2" transform="rotate(-180 48 36)" fill="#deb068"/><path fill="#5c926d" d="M80 56h8v4h-8z"/><path fill="#665f5b" d="M70 56h8v4h-8zM28 12h40v4H28z"/><path d="M48 44a8 8 0 1 1 8-8 8.009 8.009 0 0 1-8 8zm0-15a7 7 0 1 0 7 7 7.008 7.008 0 0 0-7-7zM22.205 44.086a8 8 0 1 1 8-8 8.009 8.009 0 0 1-8 8zm0-15a7 7 0 1 0 7 7 7.008 7.008 0 0 0-7-7zM74 44a8 8 0 0 1 0-16 8 8 0 0 1 0 16zm0-15a7 7 0 1 0 7 7 7.008 7.008 0 0 0-7-7z" fill="#312d2a"/><circle cx="19.205" cy="34.086" r="1" fill="#312d2a"/><path d="M25.59 38.406a4.249 4.249 0 0 1-6.769 0 .5.5 0 1 1 .769-.638 3.253 3.253 0 0 0 5.23 0 .5.5 0 1 1 .77.638z" fill="#312d2a"/><circle cx="25.205" cy="34.086" r="1" fill="#312d2a"/><circle cx="45" cy="34" r="1" fill="#312d2a"/><path d="M51 39h-6a.5.5 0 0 1 0-1h6a.5.5 0 0 1 0 1z" fill="#312d2a"/><circle cx="51" cy="34" r="1" fill="#312d2a"/><circle cx="71" cy="34" r="1" fill="#312d2a"/><path d="M77.291 39.407a.5.5 0 0 1-.7-.116 3.25 3.25 0 0 0-5.186 0 .5.5 0 0 1-.814-.582 4.251 4.251 0 0 1 6.814 0 .5.5 0 0 1-.114.698z" fill="#312d2a"/><circle cx="77" cy="34" r="1" fill="#312d2a"/></svg>