<svg xmlns="http://www.w3.org/2000/svg" width="96" height="72"><path fill="#fff" d="M4 4h88v64H4z"/><path fill="#d4cfca" d="M44 32h20v4H44zm22 0h18v4H66zm-22 6h20v4H44zm22 0h18v4H66zM44 26h20v4H44zm22 0h18v4H66zM44 12h40v4H44zm0 8h20v4H44zm22 0h18v4H66zM44 56h20v4H44zm22 0h18v4H66zm-22-6h20v4H44zm22 0h18v4H66zm-22-6h20v4H44zm22 0h18v4H66z"/><rect x="12" y="12" width="24" height="24" rx="2" fill="#437c94"/><g fill="#fff"><path d="M30.5 18h-13a1.5 1.5 0 0 0-1.5 1.5v9a1.5 1.5 0 0 0 1.5 1.5h13a1.5 1.5 0 0 0 1.5-1.5v-9a1.5 1.5 0 0 0-1.5-1.5zm.5 10.5a.5.5 0 0 1-.5.5h-13a.5.5 0 0 1-.5-.5v-9a.5.5 0 0 1 .5-.5h13a.5.5 0 0 1 .5.5z"/><path d="m29.213 19.893-.028.022-4.562 3.668a.991.991 0 0 1-1.25 0l-4.562-3.668a.5.5 0 0 0-.654.757l.028.022 4.562 3.669a1.984 1.984 0 0 0 2.5 0l4.562-3.669a.5.5 0 1 0-.6-.8z"/></g></svg>