<svg xmlns="http://www.w3.org/2000/svg" viewBox="0 0 96 72"><path fill="#d4cfca" d="M0 0h96v72H0z" data-name="bkgds_rw_light"/><g data-name="icons_rw_light"><path fill="#fff" d="M4 5h42v18H4z"/><circle cx="11" cy="14" r="3" fill="#5c926d"/><path fill="#d4cfca" d="M16 11h12v2H16zm0 4h22v2H16z"/><path fill="#fff" d="M50 5h42v18H50z"/><circle cx="57" cy="14" r="3" fill="#5c926d"/><path fill="#d4cfca" d="M62 11h12v2H62zm0 4h22v2H62z"/><path fill="#fff" d="M4 27h42v18H4z"/><circle cx="11" cy="36" r="3" fill="#5c926d"/><path fill="#d4cfca" d="M16 33h12v2H16zm0 4h22v2H16z"/><path fill="#fff" d="M50 27h42v18H50z"/><circle cx="57" cy="36" r="3" fill="#5c926d"/><path fill="#d4cfca" d="M62 33h12v2H62zm0 4h22v2H62z"/><path fill="#fff" d="M4 49h42v18H4z"/><circle cx="11" cy="58" r="3" fill="#5c926d"/><path fill="#d4cfca" d="M16 55h12v2H16zm0 4h22v2H16z"/><path fill="#fff" d="M50 49h42v18H50z"/><circle cx="57" cy="58" r="3" fill="#5c926d"/><path fill="#d4cfca" d="M62 55h12v2H62zm0 4h22v2H62z"/></g></svg>