<svg xmlns="http://www.w3.org/2000/svg" width="96" height="72"><path fill="#312d2a" d="M36 44h56v24H36z"/><path fill="#665f5b" d="M58 54h30v4H58zm-18-6h48v4H40zm0 6h16v4H40zm18 6h30v4H58zm-18 0h16v4H40z"/><path fill="#312d2a" d="M36 4h56v36H36z"/><path fill="#665f5b" d="M58 20h30v4H58zm0 6h30v4H58zm-18-6h16v4H40zm18-6h30v4H58zm-18 0h16v4H40zm0 12h16v4H40zm18 6h30v4H58zm-18 0h16v4H40z"/><path fill="#5c926d" d="M40 8h48v4H40z"/><path fill="#312d2a" d="M4 4h28v64H4z"/><path fill="#665f5b" d="M8 8h20v8H8z"/><path fill="#5c926d" d="M8 20h20v8H8z"/><path fill="#665f5b" d="M8 32h20v8H8zm0 12h20v8H8zm0 12h20v8H8z"/></svg>