<svg xmlns="http://www.w3.org/2000/svg" viewBox="0 0 96 72"><path fill="#d4cfca" d="M0 0h96v72H0z" data-name="bkgds_rw_light"/><g data-name="icons_rw_light"><path fill="#fff" d="M4 4h88v64H4z"/><path fill="#d4cfca" d="M10 10h24v46H10z"/><path fill="#fff" d="M12 12h20v42H12z"/><circle cx="22" cy="19" r="3" fill="#5c926d"/><path fill="#5c926d" d="M16.212 28h11.575c-.669-2.583-2.995-4.5-5.788-4.5s-5.119 1.917-5.788 4.5Z"/><path fill="#d4cfca" d="M38 24h48v8H38z"/><path fill="#fff" d="M40 26h44v4H40z"/><path fill="#d4cfca" d="M38 36h48v8H38z"/><path fill="#fff" d="M40 38h44v4H40z"/><path fill="#d4cfca" d="M38 48h48v8H38z"/><path fill="#fff" d="M40 50h44v4H40z"/><path fill="#d4cfca" d="M38 16h12v4H38z"/></g></svg>