<svg xmlns="http://www.w3.org/2000/svg" width="96" height="72"><path fill="#312d2a" d="M50 4h42v32H50zM4 4h42v32H4zm0 36h42v28H4zm46 0h42v28H50z"/><path fill="#deb068" d="M32 50h4v14h-4z"/><path fill="#437c94" d="M26 46h4v18h-4zM8 58h4v6H8z"/><path fill="#deb068" d="M14 54h4v10h-4z"/><path fill="#5c926d" d="M38 54h4v10h-4zm-18-4h4v14h-4zm34 14h34V44L74 54l-14-6-6 8v8z"/><path fill="#deb068" d="M54 64h34V52l-14 8-14-4-6 8z"/><path fill="#665f5b" d="M54 9h16v4H54zm18 0h16v4H72zm-18 6h16v4H54zm18 0h16v4H72zm-18 6h16v4H54zm18 0h16v4H72zm-18 6h16v4H54zm18 0h16v4H72z"/><path d="M25 9a11 11 0 1 0 7.778 18.778z" fill="#5c926d"/><path d="M35.162 15.791A11 11 0 0 0 25 9v11z" fill="#437c94"/><path d="M35.162 15.791 25 20l7.778 7.778a11 11 0 0 0 2.384-11.987z" fill="#deb068"/></svg>