<svg width="96" height="72" xmlns="http://www.w3.org/2000/svg" viewBox="0 0 96 72"><path fill="#d4cfca" d="M0 0h96v72H0z" data-name="bkgds_rw_light"/><g data-name="icons_rw_light"><path fill="#fff" d="M4 4h88v64H4z"/><path fill="#d4cfca" d="M44 12h40v6H44z"/><path fill="#fff" d="M46 14h36v2H46z"/><path fill="#d4cfca" d="M44 32h40v20H44z"/><path fill="#fff" d="M46 34h36v16H46z"/><path fill="#d4cfca" d="M44 22h40v6H44z"/><path fill="#fff" d="M46 24h32v2H46zm34 0h2v2h-2z"/><path fill="#5c926d" d="M76 56h8v4h-8z"/><path fill="#d4cfca" d="M66 56h8v4h-8z"/><rect width="24" height="24" x="12" y="12" fill="#5c926d" rx="2" ry="2"/><path fill="#fff" d="M30 18H18a2 2 0 0 0-2 2v8a2 2 0 0 0 2 2h12a2 2 0 0 0 2-2v-8a2 2 0 0 0-2-2m1 10a1 1 0 0 1-1 1H18a1 1 0 0 1-1-1v-5.5h14zm0-7H17v-1a1 1 0 0 1 1-1h12a1 1 0 0 1 1 1z" data-name="Layer 4"/></g></svg>
