<svg xmlns="http://www.w3.org/2000/svg" width="96" height="72"><path fill="#fff" d="M4 4h88v64H4z"/><path fill="#5c926d" d="M76 14h8v4h-8z"/><path fill="#d4cfca" d="M12 27h4v4h-4zm7.675-8.224-1.77-1.771c.33-.491.523-1.081.523-1.716 0-1.703-1.386-3.089-3.089-3.089s-3.089 1.386-3.089 3.089 1.386 3.089 3.089 3.089a3.07 3.07 0 0 0 1.717-.524l1.769 1.77a.601.601 0 0 0 .85-.848Zm-4.336-1.598c-1.042 0-1.889-.848-1.889-1.889s.847-1.889 1.889-1.889 1.889.848 1.889 1.889-.847 1.889-1.889 1.889ZM23 14h49v4H23zm-5 17h48v2H18zm0-4h24v2H18zm-6 9h4v4h-4zm6 4h40v2H18zm0-4h12v2H18zm-6 9h4v4h-4zm6 0h24v2H18zm0 4h20v2H18zm-6 5h4v4h-4zm6 0h8v2h-8zm0 4h32v2H18z"/></svg>