<svg xmlns="http://www.w3.org/2000/svg" width="96" height="72" viewBox="0 0 96 72"><path fill="#665f5b" d="M0 0h96v72H0z" data-name="bkgds_rw_dark"/><g data-name="icons_rw_dark"><path fill="#312d2a" d="M4 4h88v64H4z"/><path fill="#665f5b" d="M12 34h12v4H12zm16 3h32v2H28zm0-4h16v2H28zM12 12h32v4H12zm7.675 14.776-1.77-1.771c.33-.491.523-1.081.523-1.716 0-1.703-1.386-3.089-3.089-3.089s-3.089 1.386-3.089 3.089 1.386 3.089 3.089 3.089a3.07 3.07 0 0 0 1.717-.524l1.769 1.77a.601.601 0 0 0 .85-.848m-4.336-1.598c-1.042 0-1.889-.848-1.889-1.889s.847-1.889 1.889-1.889 1.889.848 1.889 1.889-.847 1.889-1.889 1.889M23 22h61v4H23zM12 45h12v4H12zm16 3h32v2H28zm0-4h16v2H28zM12 56h12v4H12zm16 3h32v2H28zm0-4h16v2H28z"/><circle cx="82" cy="36" r="2" fill="#d66959"/><circle cx="82" cy="47" r="2" fill="#d66959"/><circle cx="82" cy="58" r="2" fill="#d66959"/></g></svg>
