<svg xmlns="http://www.w3.org/2000/svg" viewBox="0 0 96 72"><path fill="#d4cfca" d="M96 72H0V0h96z" data-name="bkgds_rw_light"/><g data-name="icons_rw_light"><path fill="#fff" d="M4 4h88v64H4z"/><path fill="#d4cfca" d="M12 20h44v40H12zm48-8h24v34H60z"/><path fill="#fff" d="M14 22h40v36H14z"/><path fill="#d4cfca" d="M12 12h28v4H12zm30 38h8v4h-8zM18 26h16v2H18zm24 0h8v2h-8zm-24 4h8v2h-8zm20 0h12v2H38zm-20 4h12v2H18zm0 6h32v2H18zm0 4h16v2H18zm16-10h16v2H34z"/><path fill="#5c926d" d="M72 56h12v4H72z"/></g></svg>