<svg xmlns="http://www.w3.org/2000/svg" width="96" height="72"><path fill="#fff" d="M4 4h88v64H4z"/><path fill="#d4cfca" d="M12 32h22v4H12zm24 0h24v4H36zm26 0h22v4H62zm-50 6h22v4H12zm24 0h24v4H36zm26 0h22v4H62zM12 26h22v4H12zm24 0h24v4H36zm26 0h22v4H62zm-50-6h22v4H12zm0-8h72v4H12zm24 8h24v4H36zm26 0h22v4H62zM12 56h22v4H12zm24 0h24v4H36zm26 0h22v4H62zm-50-6h22v4H12zm24 0h24v4H36zm26 0h22v4H62zm-50-6h22v4H12zm24 0h24v4H36zm26 0h22v4H62z"/><circle cx="48" cy="37" r="18" fill="#665f5b"/><path d="M54.864 34.108a4.143 4.143 0 0 0-4.122-4.153 4 4 0 0 0-1.649.355 4.808 4.808 0 0 0-9.269 1.8 4.675 4.675 0 0 0 .113 1.007 4.844 4.844 0 0 0 1.874 9.3.689.689 0 0 0 0-1.377 3.465 3.465 0 0 1-.856-6.815.689.689 0 0 0 .49-.841q-.008-.029-.018-.057a3.428 3.428 0 1 1 6.578-1.844.687.687 0 0 0 .8.557.68.68 0 0 0 .3-.136 2.707 2.707 0 0 1 1.649-.568 2.748 2.748 0 0 1 2.667 3.411.689.689 0 0 0 .514.827.705.705 0 0 0 .31 0 2.711 2.711 0 0 1 .628-.082 2.779 2.779 0 0 1 .55 5.5.689.689 0 0 0 .274 1.35 4.156 4.156 0 0 0-.824-8.224z" fill="#fff"/><path d="M48.487 35.272a.688.688 0 0 0-.972 0l-3.436 3.437a.688.688 0 0 0 .973.974l2.263-2.265v6.59a.687.687 0 1 0 1.374 0v-6.59l2.263 2.265a.688.688 0 0 0 .973-.974z" fill="#fff"/></svg>