<svg xmlns="http://www.w3.org/2000/svg" width="96" height="72"><path fill="#312d2a" d="M4 4h88v64H4z"/><path fill="#665f5b" d="M44 32h20v4H44zm22 0h18v4H66zm-22 6h20v4H44zm22 0h18v4H66zM44 26h20v4H44zm22 0h18v4H66zM44 12h40v4H44zm0 8h20v4H44zm22 0h18v4H66zM44 56h20v4H44zm22 0h18v4H66zm-22-6h20v4H44zm22 0h18v4H66zm-22-6h20v4H44zm22 0h18v4H66z"/><rect x="12" y="12" width="24" height="24" rx="2" fill="#5c926d"/><g data-name="Layer 4" fill="#312d2a"><path d="M24 16a8 8 0 1 0 8 8 8 8 0 0 0-8-8zm0 15a7 7 0 1 1 7-7 7 7 0 0 1-7 7z"/><path d="M27.765 26.076 24 23.723V19.5a.5.5 0 0 0-1 0V24a.5.5 0 0 0 .235.424l4 2.5A.5.5 0 0 0 27.5 27a.5.5 0 0 0 .265-.924z"/></g></svg>