<svg xmlns="http://www.w3.org/2000/svg" viewBox="0 0 96 72"><path fill="#d4cfca" d="M0 0h96v72H0z" data-name="bkgds_rw_light"/><g data-name="icons_rw_light"><path fill="#fff" d="M92 68H40V18h52zm-54 0H4V18h34z"/><path fill="#5c926d" d="M38 43H4V31h34z"/><path fill="#fff" d="M4 4h88v12H4z"/><path fill="#d4cfca" d="M8 8h16v4H8zm12 16H8v-2h12zm12 4H8v-2h24zm-12 8H8v-2h12zm12 4H8v-2h24zm-12 8H8v-2h12zm12 4H8v-2h24zm-12 8H8v-2h12zm12 4H8v-2h24zm12-34h44v11H44z"/><path fill="#fff" d="M46 32h40v7H46z"/><path fill="#d4cfca" d="M44 45h44v11H44z"/><path fill="#fff" d="M46 47h40v7H46z"/><path fill="#d4cfca" d="M44 22h10v4H44z"/><path fill="#5c926d" d="M80 60h8v4h-8z"/><path fill="#d4cfca" d="M70 60h8v4h-8z"/></g></svg>