<svg xmlns="http://www.w3.org/2000/svg" viewBox="0 0 96 72"><path fill="#665f5b" d="M0 0h96v72H0z" data-name="bkgds_rw_dark"/><g data-name="icons_rw_dark"><path fill="#312d2a" d="M4 4h88v18H4z"/><path fill="#665f5b" d="M8 8h12v4H8zm24 10H8v-2h24zm4-10h12v4H36zm24 10H36v-2h24zm4-10h12v4H64zm24 10H64v-2h24z"/><path fill="#312d2a" d="M4 26h42v40H4zm46 0h19.333v18H50zm23.333 0H92v18H73.333zM50 48h19.333v18H50zm23.333 0H92v18H73.333z"/><path fill="#5c926d" d="M33.6 42.429 30 39l-4.15 5.071L21.8 37l-5.4 6.786-6.4-1.357v6.785l3.7 4.072h22.6l3.7-8.143V37z"/><path fill="#665f5b" d="M34.091 47.857 30 46l-4.273 4.857-4.909-5.714-4.909 4.071L10 47.857V55h30V43.786z"/></g></svg>