<svg xmlns="http://www.w3.org/2000/svg" viewBox="0 0 96 72"><path fill="#d4cfca" d="M0 0h96v72H0z" data-name="bkgds_rw_light"/><g data-name="icons_rw_light"><path fill="#fff" d="M4 4h58v64H4z"/><path fill="#5c926d" d="M62 4h30v64H62z"/><path fill="#d4cfca" d="M8 8h28v4H8z"/><path fill="#5c926d" d="M46 8h12v4H46z"/><path fill="#d4cfca" d="M68 8h8v8h-8zm0 29h18v2H68zM8 38h40v8H8z"/><path fill="#fff" d="M10 40h36v4H10z"/><path fill="#d4cfca" d="M8 32h12v4H8zm0 24h40v8H8z"/><path fill="#fff" d="M10 58h36v4H10z"/><path fill="#d4cfca" d="M8 50h16v4H8zm60-5h18v2H68zm0 8h18v2H68zm0 8h18v2H68z"/><path fill="#fff" d="m61 34 4 4-4 4z"/></g></svg>