<svg width="96" height="72" xmlns="http://www.w3.org/2000/svg" viewBox="0 0 96 72"><path fill="#665f5b" d="M0 0h96v72H0z" data-name="bkgds_rw_dark"/><g data-name="icons_rw_dark"><path fill="#312d2a" d="M4 4h88v64H4z"/><path fill="#665f5b" d="M44 16h40v4H44zm0 6h24v4H44zm0 6h40v4H44zM12 44h72v4H12zm0 6h72v4H12zm0 6h56v4H12z"/><rect width="24" height="24" x="12" y="12" fill="#5c926d" rx="2" ry="2"/><path fill="#312d2a" d="M19.6 23.779c1.103 0 2-.897 2-2s-.897-2-2-2-2 .897-2 2 .897 2 2 2m0-3a1.001 1.001 0 1 1-1 1c0-.552.449-1 1-1m10-3h-12c-1.103 0-2 .897-2 2v8c0 1.103.897 2 2 2h12c1.103 0 2-.897 2-2v-8c0-1.103-.897-2-2-2m-13 10v-8c0-.552.449-1 1-1h12c.551 0 1 .448 1 1v3.293l-1.146-1.146a.5.5 0 0 0-.707 0L25.1 25.572l-1.646-1.647a.5.5 0 0 0-.707 0l-4.854 4.854H17.6c-.551 0-1-.448-1-1m7.793-1.5-2.5 2.5h-2.586l3.793-3.793zm5.207 2.5h-6.293l5.793-5.793 1.5 1.5v3.293c0 .552-.449 1-1 1"/></g></svg>
