<svg xmlns="http://www.w3.org/2000/svg" width="96" height="72"><path fill="#312d2a" d="M4 4h28v64H4z"/><path fill="#665f5b" d="M19 15v4h-2v-4l-6-6h14l-6 6zm-6 14h14v2H13zm0 6h14v2H13zm0 6h14v2H13zm0 6h14v2H13zM9 29h2v2H9zm0 6h2v2H9zm0 6h2v2H9zm0 6h2v2H9z"/><path fill="#312d2a" d="M36 4h26v30H36z"/><circle cx="49" cy="13" r="3" fill="#d66959"/><path fill="#665f5b" d="M42 20h14v2H42zm0 4h14v2H42z"/><path fill="#312d2a" d="M66 4h26v30H66z"/><circle cx="79" cy="13" r="3" fill="#437c94"/><path fill="#665f5b" d="M72 20h14v2H72zm0 4h14v2H72z"/><path fill="#312d2a" d="M36 38h26v30H36z"/><circle cx="49" cy="47" r="3" fill="#5c926d"/><path fill="#665f5b" d="M42 54h14v2H42zm0 4h14v2H42z"/><path fill="#312d2a" d="M66 38h26v30H66z"/><circle cx="79" cy="47" r="3" fill="#deb068"/><path fill="#665f5b" d="M72 54h14v2H72zm0 4h14v2H72z"/></svg>