<svg xmlns="http://www.w3.org/2000/svg" width="96" height="72"><path fill="#fff" d="M4 4h88v64H4z"/><path d="M84 60h-5v-2h3v-3h2v5zm-8.875 0h-7.75v-2h7.75v2ZM63.5 60h-7.75v-2h7.75v2Zm-11.625 0h-7.75v-2h7.75v2ZM40.25 60H32.5v-2h7.75v2Zm-11.625 0h-7.75v-2h7.75v2ZM17 60h-5v-5h2v3h3v2zm-3-8.8h-2v-7.6h2v7.6Zm0-11.4h-2v-7.6h2v7.6Zm0-11.399h-2V20.8h2v7.601ZM14 17h-2v-5h5v2h-3v3zm61.125-3h-7.75v-2h7.75v2ZM63.5 14h-7.75v-2h7.75v2Zm-11.625 0h-7.75v-2h7.75v2ZM40.25 14H32.5v-2h7.75v2Zm-11.625 0h-7.75v-2h7.75v2ZM84 17h-2v-3h-3v-2h5v5zm0 34.2h-2v-7.601h2V51.2Zm0-11.4h-2v-7.6h2v7.6Zm0-11.4h-2v-7.6h2v7.6Z" fill="#d4cfca"/><path fill="#5c926d" d="M36 39h9v9h-9zm0-15h9v9h-9z"/><path fill="#437c94" d="m49.136 28.5 6.364-6.364 6.364 6.364-6.364 6.364z"/><path fill="#5c926d" d="M51 39h9v9h-9z"/></svg>