<svg viewBox="0 0 64 64" xmlns="http://www.w3.org/2000/svg"><path d="M52 51c0 1.1-.9 2-2 2H14c-1.1 0-2-.9-2-2V15c0-1.1.9-2 2-2h36c1.1 0 2 .9 2 2z" opacity=".1"/><path d="M52 50c0 1.1-.9 2-2 2H14c-1.1 0-2-.9-2-2V14c0-1.1.9-2 2-2h36c1.1 0 2 .9 2 2z" fill="#fff"/><path d="M14 20h8v30h-8zm0-6h36v4H14zm10 30h24v2H24zm0 4h24v2H24zm21.948-18c-.471-4.717-4.231-8.479-8.948-8.949v4.04a6.007 6.007 0 0 1 4.909 4.91h4.039zm-4.038 2c-.478 2.833-2.942 5-5.91 5a5.955 5.955 0 0 1-3.473-1.113l-2.856 2.856A9.925 9.925 0 0 0 36 41c5.177 0 9.446-3.954 9.949-9zM35 25.09v-4.04c-5.046.503-9 4.773-9 9.949 0 2.335.795 4.547 2.257 6.33l2.856-2.856A5.95 5.95 0 0 1 30 31c0-2.967 2.167-5.431 5-5.91z" fill="#bdc3c7"/></svg>