<svg viewBox="0 0 256 164" xmlns="http://www.w3.org/2000/svg"><path d="M254 164H2a2 2 0 0 1-2-2V2a2 2 0 0 1 2-2h252a2 2 0 0 1 2 2v160a2 2 0 0 1-2 2z" fill="#ccc"/><path d="M254 163H2a1 1 0 0 1-1-1V2a1 1 0 0 1 1-1h252a1 1 0 0 1 1 1v160a1 1 0 0 1-1 1z" fill="#f5f5f5"/><path d="M196 141c0 1.1-.9 2-2 2H62c-1.1 0-2-.9-2-2V25c0-1.1.9-2 2-2h132c1.1 0 2 .9 2 2z" opacity=".04"/><path d="M196 140c0 1.1-.9 2-2 2H62c-1.1 0-2-.9-2-2V24c0-1.1.9-2 2-2h132c1.1 0 2 .9 2 2z" fill="#ccc"/><path d="M195 36v104c0 .55-.45 1-1 1H62c-.55 0-1-.45-1-1V36z" fill="#fff"/><path d="M61 35V24c0-.55.45-1 1-1h132c.55 0 1 .45 1 1v11z" fill="#f8f8f8"/><path d="M186 68c0 .55-.45 1-1 1H71c-.55 0-1-.45-1-1V43c0-.55.45-1 1-1h114c.55 0 1 .45 1 1z" fill="#c8cacc"/><path d="M185 43v25H71V43z" fill="#f8f8f8"/><path d="M186 101c0 .55-.45 1-1 1H71c-.55 0-1-.45-1-1V76c0-.55.45-1 1-1h114c.55 0 1 .45 1 1z" fill="#c8cacc"/><path d="M185 76v25H71V76z" fill="#f8f8f8"/><path d="M186 134c0 .55-.45 1-1 1H71c-.55 0-1-.45-1-1v-25c0-.55.45-1 1-1h114c.55 0 1 .45 1 1z" fill="#c8cacc"/><path d="M185 109v25H71v-25z" fill="#f8f8f8"/><circle cx="189" cy="29" fill="#ccc" r="4"/><circle cx="189" cy="29" fill="#fff" r="3"/><path d="M190.854 27.854l-.708-.708L189 28.293l-1.146-1.147-.708.708L188.293 29l-1.147 1.146.708.708L189 29.707l1.146 1.147.708-.708L189.707 29z" fill="#ccc"/></svg>