<svg viewBox="0 0 256 164" xmlns="http://www.w3.org/2000/svg"><path d="M254 164H2a2 2 0 0 1-2-2V2a2 2 0 0 1 2-2h252a2 2 0 0 1 2 2v160a2 2 0 0 1-2 2z" fill="#ccc"/><path d="M254 163H2a1 1 0 0 1-1-1V2a1 1 0 0 1 1-1h252a1 1 0 0 1 1 1v160a1 1 0 0 1-1 1z" fill="#f5f5f5"/><path d="M196 141c0 1.1-.9 2-2 2H62c-1.1 0-2-.9-2-2V25c0-1.1.9-2 2-2h132c1.1 0 2 .9 2 2z" opacity=".04"/><path d="M196 140c0 1.1-.9 2-2 2H62c-1.1 0-2-.9-2-2V24c0-1.1.9-2 2-2h132c1.1 0 2 .9 2 2z" fill="#ccc"/><path d="M61 119V24c0-.55.45-1 1-1h132c.55 0 1 .45 1 1v95z" fill="#fff"/><path d="M195 120v20c0 .55-.45 1-1 1H62c-.55 0-1-.45-1-1v-20z" fill="#f8f8f8"/><path d="M186 112c0 .55-.45 1-1 1H71c-.55 0-1-.45-1-1V78c0-.55.45-1 1-1h114c.55 0 1 .45 1 1z" fill="#c8cacc"/><path d="M185 78v34H71V78z" fill="#f8f8f8"/><circle cx="189" cy="29" fill="#ccc" r="4"/><circle cx="189" cy="29" fill="#fff" r="3"/><g fill="#ccc"><path d="M190.854 27.854l-.708-.708L189 28.293l-1.146-1.147-.708.708L188.293 29l-1.147 1.146.708.708L189 29.707l1.146 1.147.708-.708L189.707 29z"/><circle cx="75" cy="46" r="4"/><circle cx="101" cy="46" r="4"/><circle cx="127" cy="46" r="6"/></g><path d="M74.916 68.5v-6.096h-2.208v-.816c.288 0 .568-.022.84-.066s.518-.126.738-.246.406-.284.558-.492.256-.472.312-.792h.78V68.5zm23.408-6.696c.111-.368.285-.686.521-.954s.53-.478.882-.63a3.004 3.004 0 0 1 1.2-.228c.368 0 .714.054 1.038.162s.606.264.846.468.431.458.57.762c.14.304.21.656.21 1.056 0 .376-.058.708-.174.996s-.271.546-.462.774c-.192.228-.412.434-.66.618s-.504.36-.769.528c-.264.16-.527.318-.792.474-.264.156-.506.322-.726.498s-.408.366-.563.57a1.614 1.614 0 0 0-.307.702h4.368v.9H97.95c.04-.504.13-.934.27-1.29s.318-.666.534-.93.46-.496.732-.696c.271-.2.556-.388.852-.564.36-.224.676-.43.948-.618.271-.188.498-.378.678-.57s.316-.4.408-.624.138-.484.138-.78c0-.232-.044-.442-.132-.63s-.206-.35-.354-.486c-.147-.136-.321-.24-.521-.312s-.412-.108-.636-.108c-.297 0-.551.062-.763.186s-.386.286-.521.486a2.01 2.01 0 0 0-.294.678 2.845 2.845 0 0 0-.078.762H98.19a3.488 3.488 0 0 1 .134-1.2zm28.064 1.848h.336c.216 0 .422-.03.618-.09s.368-.148.516-.264.267-.262.354-.438c.088-.176.132-.376.132-.6 0-.456-.144-.798-.432-1.026s-.648-.342-1.08-.342c-.272 0-.51.05-.714.15s-.372.234-.504.402c-.133.168-.23.364-.295.588-.063.224-.096.46-.096.708h-1.02c.016-.408.082-.78.197-1.116.116-.336.282-.624.498-.864.217-.24.486-.428.811-.564a2.876 2.876 0 0 1 1.122-.204c.367 0 .71.046 1.025.138.316.092.59.23.822.414s.414.42.546.708.198.628.198 1.02c0 .384-.112.724-.336 1.02-.225.296-.504.52-.84.672v.024c.52.112.906.356 1.158.732s.378.82.378 1.332c0 .424-.078.798-.234 1.122s-.366.594-.63.81-.574.378-.93.486-.734.162-1.135.162c-.432 0-.823-.06-1.176-.18a2.404 2.404 0 0 1-.899-.534c-.248-.236-.438-.526-.57-.87s-.194-.736-.187-1.176h1.021c.016.552.176 1.002.479 1.35.305.348.748.522 1.332.522.248 0 .484-.038.708-.114.225-.076.42-.184.588-.324s.303-.312.402-.516.15-.434.15-.69c0-.264-.048-.498-.145-.702-.096-.204-.224-.376-.384-.516s-.35-.244-.57-.312-.458-.102-.714-.102c-.216 0-.42.012-.611.036v-.864a.593.593 0 0 0 .111.012z" fill="#c8cacc"/><path d="M156.844 65.608v.9h-1.152V68.5h-.96v-1.992H151v-.984l3.876-5.532h.815v5.616zm-2.113-4.164h-.023l-2.832 4.164h2.855zm24.141-.408l-.456 2.448.024.024c.184-.208.422-.362.714-.462s.582-.15.87-.15c.376 0 .732.06 1.068.18s.628.302.876.546.444.548.588.912.216.79.216 1.278c0 .36-.062.71-.186 1.05s-.31.642-.558.906-.558.474-.93.63-.806.234-1.302.234c-.368 0-.714-.054-1.038-.162s-.61-.264-.858-.468-.444-.458-.588-.762-.22-.648-.228-1.032h1.02c.016.216.07.418.162.606a1.6 1.6 0 0 0 .924.816c.212.076.446.114.702.114.24 0 .47-.042.69-.126s.412-.21.576-.378.294-.378.39-.63.144-.546.144-.882c0-.28-.046-.538-.138-.774s-.222-.44-.39-.612-.37-.306-.606-.402-.498-.144-.786-.144c-.336 0-.634.074-.894.222s-.49.342-.69.582l-.876-.048.792-4.416h4.2v.9z" fill="#cacaca"/><path d="M75 46.5h105" fill="#fff" stroke="#ccc" stroke-miterlimit="10"/><circle cx="154" cy="46" fill="#ccc" r="4"/><circle cx="154" cy="46" fill="#fff" r="3"/><circle cx="180" cy="46" fill="#ccc" r="4"/><circle cx="180" cy="46" fill="#fff" r="3"/><path d="M83 125a1 1 0 0 0-1-1H71a1 1 0 0 0-1 1v11a1 1 0 0 0 1 1h11a1 1 0 0 0 1-1z" fill="#ccc"/><path d="M71 125h11v11H71z" fill="#f8f8f8"/><path d="M78 134.1a.6.6 0 0 1-.424-.176l-3.424-3.424 3.424-3.424a.601.601 0 0 1 .849.849l-2.576 2.576 2.576 2.576a.601.601 0 0 1 0 .849.605.605 0 0 1-.425.174zm108 1.718c0 .653-.529 1.182-1.182 1.182h-10.636a1.182 1.182 0 0 1-1.182-1.182v-10.636c0-.653.529-1.182 1.182-1.182h10.636c.653 0 1.182.529 1.182 1.182z" fill="#ccc"/><path d="M178 134.1a.6.6 0 0 1-.424-1.025l2.576-2.576-2.576-2.576a.601.601 0 0 1 .849-.849l3.424 3.424-3.424 3.424a.593.593 0 0 1-.425.178z" fill="#fff"/></svg>