<svg xmlns="http://www.w3.org/2000/svg" viewBox="0 0 64 64"><path d="M44 16H20a2.002 2.002 0 0 0-2 2v14.582a10.973 10.973 0 0 0 3.958 8.45l7.07 5.893a4.644 4.644 0 0 0 5.944 0l7.07-5.892A10.973 10.973 0 0 0 46 32.582V18a2.002 2.002 0 0 0-2-2zm-24 1h14.488L19 29.1V18a1.001 1.001 0 0 1 1-1zm-1 13.369L36.112 17H44a.994.994 0 0 1 .985.924l-24.792 19.37A9.97 9.97 0 0 1 19 32.581zm1.713 7.787L45 19.181v7.856L25.246 42.47l-2.648-2.206a10.002 10.002 0 0 1-1.885-2.108zm20.689 2.108-7.071 5.892a3.737 3.737 0 0 1-4.662 0l-3.638-3.03L45 28.305v4.276a9.974 9.974 0 0 1-3.598 7.682z" opacity=".2"/><path d="M19 30.369 36.112 17H44a.994.994 0 0 1 .985.924l-24.792 19.37A9.97 9.97 0 0 1 19 32.581zm1.713 7.787L45 19.181v7.856L25.246 42.47l-2.648-2.206a10.002 10.002 0 0 1-1.885-2.108z" fill="#fff"/><path d="M20 17h14.488L19 29.1V18a1.001 1.001 0 0 1 1-1zm21.402 23.264-7.071 5.892a3.737 3.737 0 0 1-4.662 0l-3.638-3.03L45 28.305v4.276a9.974 9.974 0 0 1-3.598 7.682z" fill="#fcfbfa" opacity=".4"/></svg>