<svg xmlns="http://www.w3.org/2000/svg" viewBox="0 0 64 64"><path d="M43.715 32.395A6.425 6.425 0 0 0 44 30.5a6.508 6.508 0 0 0-6.5-6.5c-.176 0-.35.018-.524.033A5.505 5.505 0 0 0 31.5 19a5.443 5.443 0 0 0-4.445 2.29A4.366 4.366 0 0 0 25.5 21a4.505 4.505 0 0 0-4.5 4.5 3.806 3.806 0 0 0 .036.52A5.507 5.507 0 0 0 16 31.5a5.446 5.446 0 0 0 1.748 3.981A6.494 6.494 0 0 0 23.5 45h18a6.497 6.497 0 0 0 2.215-12.605zM17 31.5a4.503 4.503 0 0 1 4.502-4.498h.004c.018.003.106.012.126.013a.468.468 0 0 0 .406-.19.502.502 0 0 0 .092-.438A3.426 3.426 0 0 1 22 25.5a3.504 3.504 0 0 1 3.5-3.5 3.458 3.458 0 0 1 1.521.364.498.498 0 0 0 .646-.19 4.475 4.475 0 0 1 8.304 2.013 6.514 6.514 0 0 0-3.863 2.687A5.932 5.932 0 0 0 29 26a6.007 6.007 0 0 0-6 6v.019a6.495 6.495 0 0 0-4.708 2.603A4.446 4.446 0 0 1 17 31.5zM41.5 44h-18a5.5 5.5 0 0 1-.004-11h.002a.48.48 0 0 0 .387-.15.5.5 0 0 0 .138-.392A5.038 5.038 0 0 1 24 32a4.993 4.993 0 0 1 7.965-4.019.5.5 0 0 0 .733-.159A5.498 5.498 0 0 1 43 30.5a5.451 5.451 0 0 1-.393 2.03.5.5 0 0 0 .334.668A5.497 5.497 0 0 1 41.5 44z" opacity=".2"/><path d="M41.5 44h-18a5.5 5.5 0 0 1-.004-11h.002a.48.48 0 0 0 .387-.15.5.5 0 0 0 .138-.392A5.038 5.038 0 0 1 24 32a4.993 4.993 0 0 1 7.965-4.019.5.5 0 0 0 .733-.159A5.498 5.498 0 0 1 43 30.5a5.451 5.451 0 0 1-.393 2.03.5.5 0 0 0 .334.668A5.497 5.497 0 0 1 41.5 44z" fill="#fcfbfa" opacity=".9"/><path d="M17 31.5a4.503 4.503 0 0 1 4.502-4.498h.004c.018.003.106.012.126.013a.468.468 0 0 0 .406-.19.502.502 0 0 0 .092-.438A3.426 3.426 0 0 1 22 25.5a3.504 3.504 0 0 1 3.5-3.5 3.458 3.458 0 0 1 1.521.364.498.498 0 0 0 .646-.19 4.475 4.475 0 0 1 8.304 2.013 6.514 6.514 0 0 0-3.863 2.687A5.932 5.932 0 0 0 29 26a6.007 6.007 0 0 0-6 6v.019a6.495 6.495 0 0 0-4.708 2.603A4.446 4.446 0 0 1 17 31.5z" fill="#fcfbfa" opacity=".4"/></svg>