<svg xmlns="http://www.w3.org/2000/svg" viewBox="0 0 64 64"><path d="M32 47c-6.815 0-11-1.747-11-3v-6.328C22.978 39.193 27.59 40 32 40s9.022-.807 11-2.328V44c0 1.253-4.185 3-11 3zm0-8c-6.815 0-11-1.747-11-3v-6.328C22.978 31.193 27.59 32 32 32s9.022-.807 11-2.328V36c0 1.253-4.185 3-11 3zm0-8c-6.815 0-11-1.747-11-3v-6.328C22.978 23.193 27.59 24 32 24s9.022-.807 11-2.328V28c0 1.253-4.185 3-11 3z" fill="#fcfbfa" opacity=".4"/><path d="M32 17c6.815 0 11 1.747 11 3s-4.185 3-11 3-11-1.747-11-3 4.185-3 11-3z" fill="#fff" opacity=".95"/><path d="M32 16c-5.817 0-12 1.402-12 4v24c0 2.598 6.183 4 12 4s12-1.402 12-4V20c0-2.598-6.183-4-12-4zm0 1c6.815 0 11 1.747 11 3s-4.185 3-11 3-11-1.747-11-3 4.185-3 11-3zm0 30c-6.815 0-11-1.747-11-3v-6.328C22.978 39.193 27.59 40 32 40s9.022-.807 11-2.328V44c0 1.253-4.185 3-11 3zm0-8c-6.815 0-11-1.747-11-3v-6.328C22.978 31.193 27.59 32 32 32s9.022-.807 11-2.328V36c0 1.253-4.185 3-11 3zm0-8c-6.815 0-11-1.747-11-3v-6.328C22.978 23.193 27.59 24 32 24s9.022-.807 11-2.328V28c0 1.253-4.185 3-11 3z" opacity=".2"/></svg>