<svg xmlns="http://www.w3.org/2000/svg" viewBox="0 0 64 64"><path d="M46 26h-6v-7a2.002 2.002 0 0 0-2-2H18a2.002 2.002 0 0 0-2 2v12a2.002 2.002 0 0 0 2 2h2v4.5a.5.5 0 0 0 .854.354L24 34.707V40a2.002 2.002 0 0 0 2 2h12.293l4.854 4.854A.5.5 0 0 0 44 46.5V42h2a2.002 2.002 0 0 0 2-2V28a2.002 2.002 0 0 0-2-2zm-25.5 6H18a1.001 1.001 0 0 1-1-1V19a1.001 1.001 0 0 1 1-1h20a1.001 1.001 0 0 1 1 1v12a1.001 1.001 0 0 1-1 1H25.5a.5.5 0 0 0-.354.146L21 36.293V32.5a.5.5 0 0 0-.5-.5zM47 40a1.001 1.001 0 0 1-1 1h-2.5a.5.5 0 0 0-.5.5v3.793l-4.146-4.146A.5.5 0 0 0 38.5 41H26a1.001 1.001 0 0 1-1-1v-6.293l.707-.707H38a2.002 2.002 0 0 0 2-2v-4h6a1.001 1.001 0 0 1 1 1z" opacity=".2"/><path d="M47 40a1.001 1.001 0 0 1-1 1h-2.5a.5.5 0 0 0-.5.5v3.793l-4.146-4.146A.5.5 0 0 0 38.5 41H26a1.001 1.001 0 0 1-1-1v-6.293l.707-.707H38a2.002 2.002 0 0 0 2-2v-4h6a1.001 1.001 0 0 1 1 1z" fill="#fcfbfa" opacity=".4"/><path d="M20.5 32H18a1.001 1.001 0 0 1-1-1V19a1.001 1.001 0 0 1 1-1h20a1.001 1.001 0 0 1 1 1v12a1.001 1.001 0 0 1-1 1H25.5a.5.5 0 0 0-.354.146L21 36.293V32.5a.5.5 0 0 0-.5-.5z" fill="#fcfbfa" opacity=".9"/></svg>