<svg xmlns="http://www.w3.org/2000/svg" viewBox="0 0 64 64"><path d="M32 27.5a4.5 4.5 0 1 0 4.5 4.5 4.505 4.505 0 0 0-4.5-4.5zm0 8a3.5 3.5 0 1 1 3.5-3.5 3.504 3.504 0 0 1-3.5 3.5zM32 16a4.5 4.5 0 1 0 4.5 4.5A4.505 4.505 0 0 0 32 16zm0 8a3.5 3.5 0 1 1 3.5-3.5A3.504 3.504 0 0 1 32 24zm0 15a4.5 4.5 0 1 0 4.5 4.5A4.505 4.505 0 0 0 32 39zm0 8a3.5 3.5 0 1 1 3.5-3.5A3.504 3.504 0 0 1 32 47zm9.96-16.25a4.5 4.5 0 1 0-4.5-4.5 4.505 4.505 0 0 0 4.5 4.5zm0-8a3.5 3.5 0 1 1-3.5 3.5 3.504 3.504 0 0 1 3.5-3.5zm-19.92 10.5a4.5 4.5 0 1 0 4.5 4.5 4.505 4.505 0 0 0-4.5-4.5zm0 8a3.5 3.5 0 1 1 3.5-3.5 3.504 3.504 0 0 1-3.5 3.5zm19.92-8a4.5 4.5 0 1 0 4.5 4.5 4.505 4.505 0 0 0-4.5-4.5zm0 8a3.5 3.5 0 1 1 3.5-3.5 3.504 3.504 0 0 1-3.5 3.5zm-19.92-19.5a4.5 4.5 0 1 0 4.5 4.5 4.505 4.505 0 0 0-4.5-4.5zm0 8a3.5 3.5 0 1 1 3.5-3.5 3.504 3.504 0 0 1-3.5 3.5z" opacity=".2"/><path d="M32 35.5a3.5 3.5 0 1 1 3.5-3.5 3.504 3.504 0 0 1-3.5 3.5zm9.96 5.75a3.5 3.5 0 1 1 3.5-3.5 3.504 3.504 0 0 1-3.5 3.5z" opacity=".4" fill="#fcfbfa"/><path d="M32 24a3.5 3.5 0 1 1 3.5-3.5A3.504 3.504 0 0 1 32 24zm-9.96 17.25a3.5 3.5 0 1 1 3.5-3.5 3.504 3.504 0 0 1-3.5 3.5z" opacity=".6" fill="#fcfbfa"/><path d="M32 47a3.5 3.5 0 1 1 3.5-3.5A3.504 3.504 0 0 1 32 47zm9.96-24.25a3.5 3.5 0 1 1-3.5 3.5 3.504 3.504 0 0 1 3.5-3.5zm-19.92 7a3.5 3.5 0 1 1 3.5-3.5 3.504 3.504 0 0 1-3.5 3.5z" opacity=".95" fill="#fff"/></svg>