<svg xmlns="http://www.w3.org/2000/svg" viewBox="0 0 64 64"><path d="M32 17a15 15 0 1 0 15 15 15.017 15.017 0 0 0-15-15zm0 29a14 14 0 1 1 14-14 14.016 14.016 0 0 1-14 14z" opacity=".2"/><path d="M37.5 30a1.5 1.5 0 1 0-1.5-1.5 1.502 1.502 0 0 0 1.5 1.5zm-11 0a1.5 1.5 0 1 0-1.5-1.5 1.502 1.502 0 0 0 1.5 1.5zm12.975 3h-14.95a.5.5 0 0 0-.499.533 7.99 7.99 0 0 0 15.948 0 .5.5 0 0 0-.5-.533zM32 40a6.995 6.995 0 0 1-5.728-3h11.456A6.995 6.995 0 0 1 32 40zm6.31-4H25.69a6.92 6.92 0 0 1-.61-2h13.84a6.92 6.92 0 0 1-.61 2z" opacity=".2"/><path d="M38.31 36H25.69a6.92 6.92 0 0 1-.61-2h13.84a6.92 6.92 0 0 1-.61 2z" fill="#fcfbfa" opacity=".9"/><path d="M32 18a14 14 0 1 0 14 14 14.016 14.016 0 0 0-14-14zm-5.5 9a1.5 1.5 0 1 1-1.5 1.5 1.502 1.502 0 0 1 1.5-1.5zm11 0a1.5 1.5 0 1 1-1.5 1.5 1.502 1.502 0 0 1 1.5-1.5zM32 41a8.011 8.011 0 0 1-7.974-7.467.5.5 0 0 1 .5-.533h14.949a.5.5 0 0 1 .499.533A8.011 8.011 0 0 1 32 41z" fill="#fcfbfa" opacity=".6"/><path d="M32 40a6.995 6.995 0 0 1-5.728-3h11.456A6.995 6.995 0 0 1 32 40z" fill="#fcfbfa" opacity=".2"/></svg>