<svg xmlns="http://www.w3.org/2000/svg" viewBox="0 0 64 64"><path d="M32 16a16 16 0 1 0 16 16 16.018 16.018 0 0 0-16-16zm5.284 20.577a6.962 6.962 0 0 0 1.69-4.077h8a14.924 14.924 0 0 1-4.036 9.731zM32 26a6 6 0 1 1-6 6 6.007 6.007 0 0 1 6-6zm14.975 5.5h-8a7 7 0 0 0-6.475-6.475v-8A14.997 14.997 0 0 1 46.975 31.5zM17 32a15.007 15.007 0 0 1 14.5-14.975v8a6.996 6.996 0 1 0 5.077 12.26l5.654 5.653A14.976 14.976 0 0 1 17 32z" opacity=".2"/><path d="M17 32a15.007 15.007 0 0 1 14.5-14.975v8a6.996 6.996 0 1 0 5.077 12.26l5.654 5.653A14.976 14.976 0 0 1 17 32z" fill="#fcfbfa" opacity=".6"/><path d="M46.975 31.5h-8a7 7 0 0 0-6.475-6.475v-8A14.997 14.997 0 0 1 46.975 31.5z" fill="#fff"/><path d="M37.284 36.577a6.962 6.962 0 0 0 1.69-4.077h8a14.924 14.924 0 0 1-4.036 9.731z" fill="#fcfbfa" opacity=".4"/></svg>