<svg xmlns="http://www.w3.org/2000/svg" viewBox="0 0 64 64"><path d="M46 20H18a2.002 2.002 0 0 0-2 2v20a2.002 2.002 0 0 0 2 2h28a2.002 2.002 0 0 0 2-2V22a2.002 2.002 0 0 0-2-2zM21 38.023v-4h12v4zm12 1V43H21v-3.977zm-13-5v4h-3v-4zm-3-1v-4h3v4zm17 1h13v4H34zm0-1v-4h13v4zm-1 0H21v-4h12zm-12-5V24h12v4.023zM21 23v-2h12v2zm-4-1a1.001 1.001 0 0 1 1-1h2v2h-3zm3 2v4.023h-3V24zm-3 18v-2.977h3V43h-2a1.001 1.001 0 0 1-1-1zm29 1H34v-3.977h13V42a1.001 1.001 0 0 1-1 1zm1-14.977H34V24h13zM34 23v-2h12a1.001 1.001 0 0 1 1 1v1z" opacity=".2"/><path fill="#fcfbfa" opacity=".4" d="M34 34.023h13v4H34zm0-5h13v4H34zM46 43H34v-3.977h13V42a1.001 1.001 0 0 1-1 1zM34 24h13v4.023H34zm0-1v-2h12a1.001 1.001 0 0 1 1 1v1z"/><path fill="#fcfbfa" opacity=".9" d="M21 34.023h12v4H21zm0 5h12V43H21zm0-10h12v4H21zM21 24h12v4.023H21zm0-3h12v2H21z"/><path fill="#fcfbfa" opacity=".4" d="M17.035 34.023h3v4h-3zm0-5h3v4h-3zm0-7.023a1.001 1.001 0 0 1 1-1h2v2h-3zm0 2h3v4.023h-3zm0 18v-2.977h3V43h-2a1.001 1.001 0 0 1-1-1z"/></svg>