<svg xmlns="http://www.w3.org/2000/svg" viewBox="0 0 64 64"><g opacity=".2"><path d="M42 29h-1v-4a9 9 0 0 0-18 0v4h-1a3.003 3.003 0 0 0-3 3v13a3.003 3.003 0 0 0 3 3h20a3.003 3.003 0 0 0 3-3V32a3.003 3.003 0 0 0-3-3zm-18-4a8 8 0 0 1 16 0v4h-3v-4a5 5 0 0 0-10 0v4h-3zm12 4h-8v-4a4 4 0 0 1 8 0zm8 16a2.002 2.002 0 0 1-2 2H22a2.002 2.002 0 0 1-2-2V32a2.002 2.002 0 0 1 2-2h20a2.002 2.002 0 0 1 2 2z"/><path d="M32 36a2.002 2.002 0 0 0-2 2v1a2 2 0 0 0 4 0v-1a2.002 2.002 0 0 0-2-2zm1 3a1 1 0 0 1-2 0v-1a1 1 0 0 1 2 0z"/></g><path d="M27 25a5 5 0 0 1 10 0v4h3v-4a8 8 0 0 0-16 0v4h3zm5 12a1.001 1.001 0 0 0-1 1v1a1 1 0 0 0 2 0v-1a1.001 1.001 0 0 0-1-1z" fill="#fcfbfa" opacity=".4"/><path d="M42 30H22a2.002 2.002 0 0 0-2 2v13a2.002 2.002 0 0 0 2 2h20a2.002 2.002 0 0 0 2-2V32a2.002 2.002 0 0 0-2-2zm-8 9a2 2 0 0 1-4 0v-1a2 2 0 0 1 4 0z" fill="#fcfbfa" opacity=".6"/></svg>