<svg xmlns="http://www.w3.org/2000/svg" viewBox="0 0 64 64"><path d="m47.8 39.1-3.4-2.55a1.005 1.005 0 0 1-.4-.8V32a1.001 1.001 0 0 0-1-1h-3a7.938 7.938 0 0 0-.835-3.537l2.17-2.17a2.012 2.012 0 0 0 .586-1.414V19.12a1.007 1.007 0 0 1 .293-.707l1.56-1.56a.5.5 0 0 0-.706-.707l-1.56 1.56a2.012 2.012 0 0 0-.587 1.414v4.758a1.007 1.007 0 0 1-.293.707l-1.976 1.977A8.055 8.055 0 0 0 36 24.083V24a3.987 3.987 0 0 0-1.98-3.433l.014-1.45a.995.995 0 0 1 .292-.697l1.548-1.546a.5.5 0 1 0-.707-.707l-1.548 1.547a1.99 1.99 0 0 0-.585 1.394l-.01 1.041a3.58 3.58 0 0 0-2.057.003v-1.03a2.013 2.013 0 0 0-.585-1.415l-1.545-1.544a.5.5 0 0 0-.707.707l1.545 1.544a1.007 1.007 0 0 1 .292.707v1.453A3.988 3.988 0 0 0 28 24v.082a8.053 8.053 0 0 0-2.681 2.53l-2.026-2.026a1.007 1.007 0 0 1-.293-.707V19.12a2.012 2.012 0 0 0-.586-1.414l-1.56-1.56a.5.5 0 0 0-.707.706l1.56 1.561a1.007 1.007 0 0 1 .293.707v4.758a2.012 2.012 0 0 0 .586 1.414l2.223 2.223A7.938 7.938 0 0 0 24 31h-3a1.001 1.001 0 0 0-1 1v3.75a1.006 1.006 0 0 1-.4.8l-3.4 2.55a.5.5 0 1 0 .6.8l3.4-2.55a2.01 2.01 0 0 0 .8-1.6V32h3v7a7.989 7.989 0 0 0 .097 1.178L20.8 42.65a2.01 2.01 0 0 0-.8 1.6v3.25a.5.5 0 0 0 1 0v-3.25a1.006 1.006 0 0 1 .4-.8l2.929-2.197a7.995 7.995 0 0 0 15.33.05l2.862 2.147a1.005 1.005 0 0 1 .4.8v3.25a.5.5 0 0 0 1 0v-3.25a2.01 2.01 0 0 0-.8-1.6l-3.226-2.42A7.982 7.982 0 0 0 40 39v-7h3v3.75a2.01 2.01 0 0 0 .8 1.6l3.4 2.55a.5.5 0 1 0 .6-.8zM32 21a2.995 2.995 0 0 1 2.957 2.573 7.913 7.913 0 0 0-5.914 0A2.995 2.995 0 0 1 32 21zm0 3a7.006 7.006 0 0 1 6.525 4.485 6.973 6.973 0 0 1-13.05 0A7.006 7.006 0 0 1 32 24zm-7 15v-8a6.99 6.99 0 0 1 .083-1.02A8 8 0 0 0 29 33.387v11.928A7.002 7.002 0 0 1 25 39zm5 6.705V33.722a7.32 7.32 0 0 0 4 0v11.983a6.932 6.932 0 0 1-4 0zm5-.39V33.387a8 8 0 0 0 3.917-3.407A6.99 6.99 0 0 1 39 31v8a7.002 7.002 0 0 1-4 6.315z" opacity=".2"/><path d="M32 21a2.995 2.995 0 0 1 2.957 2.573 7.913 7.913 0 0 0-5.914 0A2.995 2.995 0 0 1 32 21z" fill="#fcfbfa" opacity=".4"/><path d="M32 24a7.006 7.006 0 0 1 6.525 4.485 6.973 6.973 0 0 1-13.05 0A7.006 7.006 0 0 1 32 24z" fill="#fff" opacity=".95"/><path d="M25 39v-8a6.99 6.99 0 0 1 .083-1.02A8 8 0 0 0 29 33.387v11.928A7.002 7.002 0 0 1 25 39zm10 6.315V33.387a8 8 0 0 0 3.917-3.407A6.99 6.99 0 0 1 39 31v8a7.002 7.002 0 0 1-4 6.315z" fill="#fcfbfa" opacity=".6"/><path d="M30 45.705V33.722a7.32 7.32 0 0 0 4 0v11.983a6.932 6.932 0 0 1-4 0z" fill="#fcfbfa" opacity=".4"/></svg>