<svg xmlns="http://www.w3.org/2000/svg" viewBox="0 0 64 64"><path d="M47.44 27.56a1.914 1.914 0 0 0-2.708 0l-2.715 2.716v-7.09a2.014 2.014 0 0 0-.586-1.413L36.31 16.65a2.012 2.012 0 0 0-1.414-.585h-14.88a2.002 2.002 0 0 0-2 2v28a2.002 2.002 0 0 0 2 2h20a2.002 2.002 0 0 0 2-2V35.69l5.423-5.422a1.914 1.914 0 0 0 0-2.707zM35.016 17.09a.999.999 0 0 1 .586.269l5.12 5.12a.993.993 0 0 1 .27.587h-4.976a1.001 1.001 0 0 1-1-1zm6 28.976a1.001 1.001 0 0 1-1 1h-20a1.001 1.001 0 0 1-1-1v-28a1.001 1.001 0 0 1 1-1h14v5a2.002 2.002 0 0 0 2 2h5v7.21l-7.454 7.454a3.006 3.006 0 0 0-.725 1.173l-.813 2.44A.5.5 0 0 0 32.5 43a.48.48 0 0 0 .158-.026l2.44-.813a3.007 3.007 0 0 0 1.173-.725l4.747-4.747zm-5.457-5.34a2 2 0 0 1-.782.484l-1.175.394-.21-.21.394-1.175a2 2 0 0 1 .483-.782l9.229-9.229L44.79 31.5zm11.172-11.165L45.5 30.794 44.206 29.5l1.233-1.233a.914.914 0 0 1 1.293 1.293z" opacity=".2"/><path d="M23.5 28h13a.5.5 0 0 0 0-1h-13a.5.5 0 0 0 0 1zm0 5h11a.5.5 0 0 0 0-1h-11a.5.5 0 0 0 0 1zm8 4h-8a.5.5 0 0 0 0 1h8a.5.5 0 0 0 0-1z" opacity=".2"/><path d="M35.017 17.09a.999.999 0 0 1 .586.269l5.12 5.12a.993.993 0 0 1 .27.587h-4.976a1.001 1.001 0 0 1-1-1z" fill="#fcfbfa" opacity=".6"/><path d="M32.838 39.903a3.006 3.006 0 0 1 .725-1.173l7.454-7.454v-7.21h-5a2.002 2.002 0 0 1-2-2v-5h-14a1.001 1.001 0 0 0-1 1v28a1.001 1.001 0 0 0 1 1h20a1.001 1.001 0 0 0 1-1V36.69l-4.747 4.747a3.007 3.007 0 0 1-1.173.725l-2.44.813A.48.48 0 0 1 32.5 43a.5.5 0 0 1-.474-.658zM23.5 27h13a.5.5 0 0 1 0 1h-13a.5.5 0 0 1 0-1zm0 5h11a.5.5 0 0 1 0 1h-11a.5.5 0 0 1 0-1zm8 6h-8a.5.5 0 0 1 0-1h8a.5.5 0 0 1 0 1z" fill="#fff" opacity=".9"/><path d="M35.56 40.727a2 2 0 0 1-.782.483l-1.175.394-.21-.21.394-1.175a2 2 0 0 1 .483-.782l9.229-9.229 1.292 1.292z" fill="#fcfbfa" opacity=".4"/><path d="M46.732 29.56 45.5 30.795 44.206 29.5l1.233-1.233a.914.914 0 0 1 1.293 1.293z" fill="#fcfbfa" opacity=".6"/></svg>