<svg xmlns="http://www.w3.org/2000/svg" viewBox="0 0 64 64"><path d="M19.71 29.908a7.257 7.257 0 0 0 5.552 2.544 7.445 7.445 0 0 1 5.236 2.168L41.01 45.137a2.92 2.92 0 0 0 2.537.814 2.975 2.975 0 0 0 2.186-1.665 2.942 2.942 0 0 0-.649-3.312L33.661 29.545a4.206 4.206 0 0 1-1.238-2.992v-1.322a7.214 7.214 0 0 0-7.235-7.22 7.6 7.6 0 0 0-1.693.191 6.77 6.77 0 0 0-1.89.75l4.97 2.871a1.432 1.432 0 0 1 .525 1.958l-1.961 3.4v-.001h-.001a1.434 1.434 0 0 1-1.96.525l-5.162-2.983a7.26 7.26 0 0 0 1.693 5.186zm22.287 13.086a1 1 0 1 1 1 1 1 1 0 0 1-1-1zm-12.08-17.01-1-.578a.5.5 0 0 1 .5-.866l1 .577a.5.5 0 0 1-.5.867zm-.981 1.7-1-.578a.5.5 0 0 1 .5-.866l1 .577a.5.5 0 0 1-.5.866zm-2.163.439a.499.499 0 0 1 .682-.183l1 .577a.5.5 0 0 1-.5.866l-1-.577a.5.5 0 0 1-.182-.683z" fill="#fff" opacity=".6"/><g opacity=".2"><circle cx="42.997" cy="42.994" r="1"/><path d="m30.416 25.117-1-.577a.5.5 0 0 0-.5.866l1 .578a.5.5 0 0 0 .5-.867zm-.98 1.7-1-.577a.5.5 0 0 0-.5.866l1 .577a.5.5 0 0 0 .5-.866zm-.981 1.7-1-.577a.5.5 0 0 0-.5.866l1 .577a.5.5 0 0 0 .5-.866zm-1.309 7.629-7 7a.5.5 0 1 0 .707.707l7-7a.5.5 0 0 0-.707-.707z"/><path d="M45.5 22a.5.5 0 0 0 .447-.276l2-4a.5.5 0 0 0-.093-.578l-1-1a.5.5 0 0 0-.578-.093l-4 2A.501.501 0 0 0 42 18.5v2.793l-7.588 7.588-.044-.043a3.213 3.213 0 0 1-.945-2.285v-1.322a8.187 8.187 0 0 0-3.1-6.434 8.275 8.275 0 0 0-7.05-1.57 7.94 7.94 0 0 0-2.917 1.347.5.5 0 0 0 .045.837l5.674 3.278a.425.425 0 0 1 .202.262.431.431 0 0 1-.043.33h-.001l-1.961 3.4a.434.434 0 0 1-.593.158l-5.822-3.363a.5.5 0 0 0-.744.351 8.285 8.285 0 0 0 1.833 6.728 8.182 8.182 0 0 0 5.913 2.88l-7.677 7.676a4.035 4.035 0 1 0 5.707 5.707l9.196-9.196 8.218 8.222a3.92 3.92 0 0 0 3.407 1.094 3.96 3.96 0 0 0 2.92-2.21 3.9 3.9 0 0 0-.839-4.461L35.118 29.589 42.707 22zM22.182 46.11a3.036 3.036 0 0 1-4.293-4.292l8.276-8.276a6.513 6.513 0 0 1 3.626 1.785l1.587 1.588zm23.55-1.824a2.975 2.975 0 0 1-2.185 1.665 2.92 2.92 0 0 1-2.537-.814L30.498 34.62a7.445 7.445 0 0 0-5.236-2.168 7.209 7.209 0 0 1-7.246-7.73l5.163 2.983a1.434 1.434 0 0 0 1.959-.525h.001l1.96-3.4a1.432 1.432 0 0 0-.523-1.957l-4.971-2.871a6.77 6.77 0 0 1 1.89-.75 7.6 7.6 0 0 1 1.693-.192 7.214 7.214 0 0 1 7.235 7.22v1.323a4.206 4.206 0 0 0 1.238 2.992l11.423 11.429a2.942 2.942 0 0 1 .649 3.312zM43 18.809l3.401-1.7.49.49-1.7 3.401H43z"/></g><path d="m26.165 33.542-8.276 8.276a3.036 3.036 0 1 0 4.293 4.293l9.196-9.196-1.587-1.588a6.513 6.513 0 0 0-3.626-1.785zm1.689 3.312-7 7a.5.5 0 0 1-.707-.707l7-7a.5.5 0 0 1 .707.707zm18.547-19.746L43 18.809V21h2.191l1.701-3.401-.491-.491z" opacity=".4" fill="#fcfbfa"/></svg>