<svg xmlns="http://www.w3.org/2000/svg" viewBox="0 0 64 64"><g opacity=".2"><path d="M40.853 25.146a2.623 2.623 0 0 0-3.706 0L29 33.293l-2.147-2.147a2.621 2.621 0 0 0-3.707 3.707l4.44 4.44a2.002 2.002 0 0 0 2.828 0l10.44-10.44a2.623 2.623 0 0 0 0-3.706zm-.706 3-10.44 10.44a1.001 1.001 0 0 1-1.414 0l-4.44-4.44a1.621 1.621 0 0 1 2.293-2.293l2.5 2.5a.5.5 0 0 0 .708 0l8.5-8.5a1.621 1.621 0 0 1 2.292 0l.002.001a1.622 1.622 0 0 1 0 2.292z"/><path d="M32 16a16 16 0 1 0 16 16 16.018 16.018 0 0 0-16-16zm0 31a15 15 0 1 1 15-15 15.017 15.017 0 0 1-15 15z"/></g><path d="M32 17a15 15 0 1 0 15 15 15.017 15.017 0 0 0-15-15zm8.854 11.853-10.44 10.44a2.002 2.002 0 0 1-2.828 0l-4.44-4.44a2.621 2.621 0 0 1 3.707-3.707L29 33.293l8.147-8.147a2.623 2.623 0 0 1 3.706 0l.002.001a2.623 2.623 0 0 1 0 3.706z" fill="#fcfbfa" opacity=".4"/><path d="m40.147 28.146-10.44 10.44a1.001 1.001 0 0 1-1.414 0l-4.44-4.44a1.621 1.621 0 0 1 2.293-2.293l2.5 2.5a.5.5 0 0 0 .708 0l8.5-8.5a1.621 1.621 0 0 1 2.292 0l.002.001a1.622 1.622 0 0 1 0 2.292z" fill="#fff"/></svg>