<svg xmlns="http://www.w3.org/2000/svg" viewBox="0 0 64 64"><g opacity=".2"><path d="M43.37 32.755a1 1 0 0 1 0-1.51l3.196-2.775a2.003 2.003 0 0 0 .422-2.51l-2.263-3.92a2.004 2.004 0 0 0-2.385-.89l-4.001 1.382a1 1 0 0 1-1.309-.756l-.804-4.156A2.003 2.003 0 0 0 34.263 16h-4.526a2.003 2.003 0 0 0-1.963 1.62l-.804 4.156a1 1 0 0 1-1.309.756L21.66 21.15a2.004 2.004 0 0 0-2.385.89l-2.263 3.92a2.003 2.003 0 0 0 .422 2.51l3.197 2.775a1 1 0 0 1 0 1.51l-3.197 2.775a2.003 2.003 0 0 0-.422 2.51l2.263 3.92a2.005 2.005 0 0 0 2.385.89l4.001-1.382a1 1 0 0 1 1.309.756l.804 4.156A2.003 2.003 0 0 0 29.737 48h4.526a2.003 2.003 0 0 0 1.963-1.62l.804-4.156a1 1 0 0 1 1.309-.756l4.001 1.382a2.005 2.005 0 0 0 2.385-.89l2.263-3.92a2.003 2.003 0 0 0-.422-2.51zm2.752 4.786-2.263 3.918a1 1 0 0 1-1.192.446l-4.002-1.382a2 2 0 0 0-2.616 1.51l-.804 4.157a1.002 1.002 0 0 1-.982.81h-4.526a1.002 1.002 0 0 1-.982-.81l-.804-4.157a2 2 0 0 0-2.616-1.51l-4.002 1.382a1 1 0 0 1-1.192-.446l-2.263-3.918a1.002 1.002 0 0 1 .21-1.256l3.198-2.775a2 2 0 0 0 0-3.02l-3.197-2.775a1.002 1.002 0 0 1-.21-1.256l2.262-3.918a1 1 0 0 1 1.193-.446l4.001 1.382a2 2 0 0 0 2.616-1.51l.804-4.157a1.002 1.002 0 0 1 .982-.81h4.526a1.002 1.002 0 0 1 .982.81l.804 4.157a2 2 0 0 0 2.616 1.51l4.001-1.382a1 1 0 0 1 1.193.445l2.263 3.92a1.002 1.002 0 0 1-.21 1.255l-3.198 2.775a2 2 0 0 0 0 3.02l3.197 2.775a1.002 1.002 0 0 1 .21 1.256z"/><path d="M32 26a6 6 0 1 0 6 6 6.007 6.007 0 0 0-6-6zm0 11a5 5 0 1 1 5-5 5.006 5.006 0 0 1-5 5z"/></g><path d="M42.714 33.51a2 2 0 0 1 0-3.02l3.197-2.775a1.002 1.002 0 0 0 .21-1.256l-2.262-3.918a1 1 0 0 0-1.192-.446l-4.002 1.382a2 2 0 0 1-2.616-1.51l-.804-4.157a1.002 1.002 0 0 0-.982-.81h-4.526a1.002 1.002 0 0 0-.982.81l-.804 4.157a2 2 0 0 1-2.616 1.51l-4.002-1.382a1 1 0 0 0-1.192.446l-2.263 3.918a1.002 1.002 0 0 0 .21 1.256l3.198 2.775a2 2 0 0 1 0 3.02l-3.197 2.775a1.002 1.002 0 0 0-.21 1.256l2.262 3.918a1 1 0 0 0 1.193.446l4.001-1.382a2 2 0 0 1 2.616 1.51l.804 4.157a1.002 1.002 0 0 0 .982.81h4.526a1.002 1.002 0 0 0 .982-.81l.804-4.157a2 2 0 0 1 2.616-1.51l4.001 1.382a1 1 0 0 0 1.193-.445l2.263-3.92a1.002 1.002 0 0 0-.21-1.255zM32 38a6 6 0 1 1 6-6 6.007 6.007 0 0 1-6 6z" fill="#fcfbfa" opacity=".6"/></svg>