<svg xmlns="http://www.w3.org/2000/svg" viewBox="0 0 64 64"><g opacity=".2"><path d="M33.717 35.01A1.978 1.978 0 0 0 34 34a2 2 0 1 0-2 2 1.978 1.978 0 0 0 1.01-.283l5.136 5.137a.5.5 0 0 0 .707-.707zM32 35a1 1 0 1 1 1-1 1.001 1.001 0 0 1-1 1z"/><circle cx="32" cy="26" r="1"/><circle cx="32" cy="42" r="1"/><circle cx="40" cy="34" r="1"/><circle cx="24" cy="34" r="1"/><path d="M38.364 29.05a1 1 0 1 0-1.414 0 1 1 0 0 0 1.414 0zm-12.728 9.9a1 1 0 1 0 1.414 0 1 1 0 0 0-1.414 0zm0-11.314a1 1 0 1 0 1.414 0 1 1 0 0 0-1.414 0z"/><path d="m44.5 22.207.646.646a.5.5 0 1 0 .707-.707l-2-2a.5.5 0 0 0-.707.707l.647.647-2.268 2.268A13.962 13.962 0 0 0 35 20.332V17h.5a.5.5 0 0 0 0-1h-7a.5.5 0 0 0 0 1h.5v3.332a14.03 14.03 0 1 0 13.232 4.143zM30 17h4v3.16a12.601 12.601 0 0 0-4 0zm2 30a13 13 0 1 1 13-13 13.014 13.014 0 0 1-13 13z"/></g><path d="M30 17h4v3.16a12.601 12.601 0 0 0-4 0z" fill="#fcfbfa" opacity=".6"/><path d="M32 35a1 1 0 1 1 1-1 1.001 1.001 0 0 1-1 1z" fill="#fcfbfa" opacity=".4"/><path d="M32 21a13 13 0 1 0 13 13 13.014 13.014 0 0 0-13-13zm4.95 6.636a1 1 0 1 1 0 1.414 1 1 0 0 1 0-1.414zM32 25a1 1 0 1 1-1 1 1 1 0 0 1 1-1zm-8 10a1 1 0 1 1 1-1 1 1 0 0 1-1 1zm3.05 5.364a1 1 0 1 1 0-1.414 1 1 0 0 1 0 1.414zm0-11.314a1 1 0 1 1 0-1.414 1 1 0 0 1 0 1.414zM32 43a1 1 0 1 1 1-1 1 1 0 0 1-1 1zm6.854-2.146a.5.5 0 0 1-.707 0l-5.137-5.137A1.978 1.978 0 0 1 32 36a2 2 0 1 1 2-2 1.978 1.978 0 0 1-.283 1.01l5.137 5.136a.5.5 0 0 1 0 .708zM40 35a1 1 0 1 1 1-1 1 1 0 0 1-1 1z" fill="#fff" opacity=".95"/></svg>