<svg xmlns="http://www.w3.org/2000/svg" viewBox="0 0 64 64"><path d="M45.378 47a1.61 1.61 0 0 1-1.146-.475l-4.646-4.646A1.987 1.987 0 0 1 39 40.464V39h1.464a1.987 1.987 0 0 1 1.415.586l4.646 4.646A1.621 1.621 0 0 1 45.378 47z" fill="#fcfbfa" opacity=".4"/><g opacity=".2"><path d="m47.232 43.525-4.646-4.646A2.98 2.98 0 0 0 40.464 38h-1.757l-.742-.742a11.544 11.544 0 1 0-.707.707l.742.742v1.757a2.98 2.98 0 0 0 .879 2.122l4.646 4.646a2.621 2.621 0 0 0 3.707-3.707zM29.5 40A10.5 10.5 0 1 1 40 29.5 10.512 10.512 0 0 1 29.5 40zm15.878 7a1.61 1.61 0 0 1-1.146-.475l-4.646-4.646A1.987 1.987 0 0 1 39 40.464V39h1.464a1.987 1.987 0 0 1 1.415.586l4.646 4.646A1.621 1.621 0 0 1 45.378 47z"/><path d="M35.5 34H35v-5.5a.5.5 0 0 0-.5-.5h-2a.5.5 0 0 0-.5.5V34h-1v-9.5a.5.5 0 0 0-.5-.5h-2a.5.5 0 0 0-.5.5V34h-1v-6.5a.5.5 0 0 0-.5-.5h-2a.5.5 0 0 0-.5.5V34h-.5a.5.5 0 0 0 0 1h12a.5.5 0 0 0 0-1zM26 34h-1v-6h1zm4 0h-1v-9h1zm4 0h-1v-5h1z"/></g><path d="M33 29h1v5h-1zm-4-4h1v9h-1zm-4 3h1v6h-1z" fill="#fcfbfa" opacity=".9"/><path d="M29.5 19A10.5 10.5 0 1 0 40 29.5 10.512 10.512 0 0 0 29.5 19zM23 34.5a.5.5 0 0 1 .5-.5h.5v-6.5a.5.5 0 0 1 .5-.5h2a.5.5 0 0 1 .5.5V34h1v-9.5a.5.5 0 0 1 .5-.5h2a.5.5 0 0 1 .5.5V34h1v-5.5a.5.5 0 0 1 .5-.5h2a.5.5 0 0 1 .5.5V34h.5a.5.5 0 0 1 0 1h-12a.5.5 0 0 1-.5-.5z" fill="#fcfbfa" opacity=".6"/></svg>