<svg xmlns="http://www.w3.org/2000/svg" viewBox="0 0 64 64"><path d="M44 18H20a2.002 2.002 0 0 0-2 2v24a2.002 2.002 0 0 0 2 2h24a2.002 2.002 0 0 0 2-2V20a2.002 2.002 0 0 0-2-2zm1 2v7h-8v-8h7a1.001 1.001 0 0 1 1 1zM28 36v-8h8v8zm8 1v8h-8v-8zm-9-1h-8v-8h8zm1-9v-8h8v8zm9 1h8v8h-8zm-17-9h7v8h-8v-7a1.001 1.001 0 0 1 1-1zm-1 25v-7h8v8h-7a1.001 1.001 0 0 1-1-1zm25 1h-7v-8h8v7a1.001 1.001 0 0 1-1 1z" opacity=".2"/><path d="M36 37v8h-8v-8zm1-9h8v8h-8zm-17-9h7v8h-8v-7a1.001 1.001 0 0 1 1-1z" fill="#fff" opacity=".9"/><path d="M45 20v7h-8v-8h7a1.001 1.001 0 0 1 1 1zM28 36v-8h8v8zm-9 8v-7h8v8h-7a1.001 1.001 0 0 1-1-1z" fill="#fcfbfa" opacity=".4"/><path d="M27 36h-8v-8h8zm1-9v-8h8v8zm16 18h-7v-8h8v7a1.001 1.001 0 0 1-1 1z" fill="#fcfbfa" opacity=".6"/></svg>