<svg xmlns="http://www.w3.org/2000/svg" viewBox="0 0 64 64"><path d="M46.5 45H45V28a1.001 1.001 0 0 0-1-1h-3a1.001 1.001 0 0 0-1 1v17h-2V33a1.001 1.001 0 0 0-1-1h-3a1.001 1.001 0 0 0-1 1v12h-2V33a1.001 1.001 0 0 0-1-1h-3a1.001 1.001 0 0 0-1 1v12h-2v-6a1.001 1.001 0 0 0-1-1h-3a1.001 1.001 0 0 0-1 1v6h-1.5a.5.5 0 0 0 0 1h29a.5.5 0 0 0 0-1zM23 45h-3v-6h3zm7 0h-3V33h3zm7 0h-3V33h3zm7 0h-3V28h3zM21.5 32a1.491 1.491 0 0 0 1.396-2.038l4.861-4.167A1.482 1.482 0 0 0 28.5 26a1.498 1.498 0 0 0 1.408-1h4.184A1.496 1.496 0 0 0 37 24.5a1.479 1.479 0 0 0-.065-.411l4.707-3.362a1.558 1.558 0 1 0-.577-.816l-4.707 3.362a1.49 1.49 0 0 0-2.266.727h-4.184a1.495 1.495 0 1 0-2.804 1.038l-4.861 4.167A1.482 1.482 0 0 0 21.5 29a1.5 1.5 0 0 0 0 3zm21-13a.5.5 0 1 1-.5.5.5.5 0 0 1 .5-.5zm-7 5a.5.5 0 1 1-.5.5.5.5 0 0 1 .5-.5zm-7 0a.5.5 0 1 1-.5.5.5.5 0 0 1 .5-.5zm-7 6a.5.5 0 1 1-.5.5.5.5 0 0 1 .5-.5z" opacity=".2"/><path d="M42.5 19a.5.5 0 1 1-.5.5.5.5 0 0 1 .5-.5zm-7 5a.5.5 0 1 1-.5.5.5.5 0 0 1 .5-.5zm-7 0a.5.5 0 1 1-.5.5.5.5 0 0 1 .5-.5zm-7 6a.5.5 0 1 1-.5.5.5.5 0 0 1 .5-.5z" fill="#fcfbfa" opacity=".4"/><path fill="#fcfbfa" opacity=".9" d="M20 39h3v6h-3z"/><path fill="#fcfbfa" opacity=".4" d="M27 33h3v12h-3z"/><path fill="#fcfbfa" opacity=".9" d="M34 33h3v12h-3z"/><path fill="#fcfbfa" opacity=".4" d="M41 28h3v17h-3z"/></svg>