<svg xmlns="http://www.w3.org/2000/svg" viewBox="0 0 64 64"><g opacity=".2"><path d="M46.966 35.319a.498.498 0 0 0-.287-.286L42 33.246V26a3.003 3.003 0 0 0-3-3h-3v-5a2.002 2.002 0 0 0-2-2h-4a2.002 2.002 0 0 0-2 2v5h-3a3.003 3.003 0 0 0-3 3v7.246l-4.679 1.787a.501.501 0 0 0-.268.69L22.69 47H19.5a.5.5 0 0 0 0 1h25a.5.5 0 0 0 0-1h-3.19l5.637-11.276a.496.496 0 0 0 .019-.405zM29 18a1.001 1.001 0 0 1 1-1h4a1.001 1.001 0 0 1 1 1v5h-6zm-6 8a2.002 2.002 0 0 1 2-2h14a2.002 2.002 0 0 1 2 2v6.865l-6.097-2.328a8.15 8.15 0 0 0-5.806 0L23 32.865zm17.19 21H23.81l-5.616-11.23 11.26-4.298a7.138 7.138 0 0 1 5.092 0l11.26 4.298z"/><path d="M32 34a.5.5 0 0 0-.5.5v10a.5.5 0 0 0 1 0v-10a.5.5 0 0 0-.5-.5zm-4.5-7h-2a.5.5 0 0 0 0 1h2a.5.5 0 0 0 0-1zm9 1h2a.5.5 0 0 0 0-1h-2a.5.5 0 0 0 0 1zm-6 0h3a.5.5 0 0 0 0-1h-3a.5.5 0 0 0 0 1z"/></g><path d="M34.546 31.472a7.138 7.138 0 0 0-5.092 0l-11.26 4.298L23.81 47h16.382l5.615-11.23zM32.5 44.5a.5.5 0 0 1-1 0v-10a.5.5 0 0 1 1 0z" fill="#fff" opacity=".4"/><path d="M39 24H25a2.002 2.002 0 0 0-2 2v6.865l6.097-2.328a8.15 8.15 0 0 1 5.806 0L41 32.865V26a2.002 2.002 0 0 0-2-2zm-11.5 4h-2a.5.5 0 0 1 0-1h2a.5.5 0 0 1 0 1zm6 0h-3a.5.5 0 0 1 0-1h3a.5.5 0 0 1 0 1zm5 0h-2a.5.5 0 0 1 0-1h2a.5.5 0 0 1 0 1z" fill="#fcfbfa" opacity=".95"/><path d="M29 18a1.001 1.001 0 0 1 1-1h4a1.001 1.001 0 0 1 1 1v5h-6z" fill="#fff" opacity=".6"/></svg>