<svg xmlns="http://www.w3.org/2000/svg" viewBox="0 0 64 64"><path d="M34.468 46.447a.995.995 0 0 1-.895.553h-3.146a.996.996 0 0 1-.895-.553l-1.11-2.22c-.036-.072-.05-.153-.082-.227h7.32c-.031.074-.046.155-.082.227zM35.934 43h-7.868a3.989 3.989 0 0 1-.066-.563V40h8v2.438a3.989 3.989 0 0 1-.066.562z" fill="#fcfbfa" opacity=".4"/><path d="M32 16a10.271 10.271 0 0 0-10 10.5 10.695 10.695 0 0 0 3.596 8.063A4.05 4.05 0 0 1 27 37.598v4.84a5.043 5.043 0 0 0 .527 2.236l1.11 2.221A1.991 1.991 0 0 0 30.428 48h3.146a1.99 1.99 0 0 0 1.79-1.105l1.11-2.222A5.04 5.04 0 0 0 37 42.437v-4.84a4.053 4.053 0 0 1 1.403-3.034A10.692 10.692 0 0 0 42 26.5 10.271 10.271 0 0 0 32 16zm3.578 28.227-1.11 2.22a.995.995 0 0 1-.895.553h-3.146a.996.996 0 0 1-.895-.553l-1.11-2.22c-.036-.072-.05-.153-.082-.227h7.32c-.032.074-.046.155-.082.227zm.422-1.79a3.989 3.989 0 0 1-.066.563h-7.868a3.989 3.989 0 0 1-.066-.563V40h8zm1.744-8.626A5.053 5.053 0 0 0 36 37.598V39h-8v-1.402a5.05 5.05 0 0 0-1.745-3.787A9.696 9.696 0 0 1 23 26.5a9.27 9.27 0 0 1 9-9.5 9.27 9.27 0 0 1 9 9.5 9.693 9.693 0 0 1-3.256 7.311zM20 26.5a.5.5 0 0 0-.5-.5h-3a.5.5 0 0 0 0 1h3a.5.5 0 0 0 .5-.5zm27.5-.5h-3a.5.5 0 0 0 0 1h3a.5.5 0 0 0 0-1zm-26.026 7.26-2.458 1.721a.5.5 0 0 0 .574.82l2.458-1.721a.5.5 0 0 0-.574-.82zM42.24 19.83a.5.5 0 0 0 .286-.09l2.458-1.721a.5.5 0 0 0-.574-.82l-2.458 1.721a.5.5 0 0 0 .287.91zm.286 13.43a.5.5 0 0 0-.574.82l2.458 1.72a.5.5 0 0 0 .574-.819zM21.474 19.74a.5.5 0 0 0 .574-.82L19.59 17.2a.5.5 0 0 0-.574.819z" opacity=".2"/><path d="M27.417 27a.5.5 0 0 1-.5-.5A5.31 5.31 0 0 1 32 21a.5.5 0 0 1 0 1 4.312 4.312 0 0 0-4.083 4.5.5.5 0 0 1-.5.5z" opacity=".2"/><path d="M32 17a9.27 9.27 0 0 0-9 9.5 9.696 9.696 0 0 0 3.255 7.311A5.05 5.05 0 0 1 28 37.598V39h8v-1.402a5.053 5.053 0 0 1 1.744-3.787A9.693 9.693 0 0 0 41 26.5a9.27 9.27 0 0 0-9-9.5zm0 5a4.312 4.312 0 0 0-4.083 4.5.5.5 0 0 1-1 0A5.31 5.31 0 0 1 32 21a.5.5 0 0 1 0 1z" fill="#fff" opacity=".95"/></svg>