<svg xmlns="http://www.w3.org/2000/svg" viewBox="0 0 64 64"><g opacity=".2"><path d="M46 21h-4v-1.5a.5.5 0 0 0-1 0V21H23v-1.5a.5.5 0 0 0-1 0V21h-4a2.002 2.002 0 0 0-2 2v20a2.002 2.002 0 0 0 2 2h28a2.002 2.002 0 0 0 2-2V23a2.002 2.002 0 0 0-2-2zM27 38v-5h10v5zm10 1v5H27v-5zm0-12v5H27v-5zm10 0v5h-9v-5zm-21 5h-9v-5h9zm-9 1h9v5h-9zm21 0h9v5h-9zM18 22h4v1.5a.5.5 0 0 0 1 0V22h18v1.5a.5.5 0 0 0 1 0V22h4a1.001 1.001 0 0 1 1 1v3H17v-3a1.001 1.001 0 0 1 1-1zm-1 21v-4h9v5h-8a1.001 1.001 0 0 1-1-1zm29 1h-8v-5h9v4a1.001 1.001 0 0 1-1 1z"/><path d="m43.207 35.5.646-.646a.5.5 0 0 0-.707-.707l-.646.646-.646-.646a.5.5 0 0 0-.707.707l.646.646-.646.646a.5.5 0 1 0 .707.707l.646-.646.646.646a.5.5 0 0 0 .707-.707z"/></g><path d="M18 22h4v1.5a.5.5 0 0 0 1 0V22h18v1.5a.5.5 0 0 0 1 0V22h4a1.001 1.001 0 0 1 1 1v3H17v-3a1.001 1.001 0 0 1 1-1z" fill="#fcfbfa" opacity=".4"/><path fill="#fcfbfa" opacity=".9" d="M27 33h10v5H27zm0 6h10v5H27zm0-12h10v5H27zm11 0h9v5h-9zm-21 0h9v5h-9zm0 6h9v5h-9zm0 10v-4h9v5h-8a1 1 0 0 1-1-1zm29 1h-8v-5h9v4a1 1 0 0 1-1 1z"/><path d="M38 33v5h9v-5zm5.854 3.146a.5.5 0 1 1-.707.707l-.647-.646-.646.646a.5.5 0 0 1-.707-.707l.646-.646-.646-.646a.5.5 0 0 1 .707-.707l.646.646.646-.646a.5.5 0 0 1 .707.707l-.646.646z" fill="#fcfbfa" opacity=".6"/></svg>