<svg xmlns="http://www.w3.org/2000/svg" viewBox="0 0 64 64"><path d="M18 21h7.464a1.987 1.987 0 0 1 1.415.586l2.535 2.535a2.98 2.98 0 0 0 2.122.879H46a1.001 1.001 0 0 1 1 1v.023H30.144a2.012 2.012 0 0 0-1.414.586l-1.144 1.144a1.007 1.007 0 0 1-.707.293H17V22a1.001 1.001 0 0 1 1-1z" fill="#fcfbfa" opacity=".4"/><path d="M46 24H31.536a1.987 1.987 0 0 1-1.415-.586l-2.535-2.535A2.98 2.98 0 0 0 25.464 20H18a2.002 2.002 0 0 0-2 2v20a2.002 2.002 0 0 0 2 2h28a2.002 2.002 0 0 0 2-2V26a2.002 2.002 0 0 0-2-2zm1 18a1.001 1.001 0 0 1-1 1H18a1.001 1.001 0 0 1-1-1V29.046h9.879a2.012 2.012 0 0 0 1.414-.586l1.144-1.144a1.007 1.007 0 0 1 .707-.293H47zm0-15.977H30.144a2.012 2.012 0 0 0-1.414.586l-1.144 1.144a1.007 1.007 0 0 1-.707.293H17V22a1.001 1.001 0 0 1 1-1h7.464a1.987 1.987 0 0 1 1.415.586l2.535 2.535a2.98 2.98 0 0 0 2.122.879H46a1.001 1.001 0 0 1 1 1z" opacity=".2"/><path d="M46 43H18a1.001 1.001 0 0 1-1-1V29.046h9.879a2.012 2.012 0 0 0 1.414-.586l1.144-1.144a1.007 1.007 0 0 1 .707-.293H47V42a1.001 1.001 0 0 1-1 1z" fill="#fcfbfa" opacity=".9"/></svg>