<svg xmlns="http://www.w3.org/2000/svg" viewBox="0 0 64 64"><path d="M18 21h28a1.001 1.001 0 0 1 1 1v.267L33.285 33.77a1.997 1.997 0 0 1-2.57-.001L17 22.267V22a1.001 1.001 0 0 1 1-1z" fill="#fff" opacity=".95"/><path d="M47 23.572v16.856L36.951 32zM27.05 32 17 40.428V23.572z" fill="#fcfbfa" opacity=".6"/><path d="M46 43H18a1.001 1.001 0 0 1-1-1v-.267l10.827-9.08 2.245 1.882a2.995 2.995 0 0 0 3.856 0l2.245-1.882L47 41.733V42a1.001 1.001 0 0 1-1 1z" fill="#fcfbfa" opacity=".4"/><path d="M46 20H18a2.002 2.002 0 0 0-2 2v20a2.002 2.002 0 0 0 2 2h28a2.002 2.002 0 0 0 2-2V22a2.002 2.002 0 0 0-2-2zm-28 1h28a1.001 1.001 0 0 1 1 1v.267L33.285 33.77a1.997 1.997 0 0 1-2.57-.001L17 22.267V22a1.001 1.001 0 0 1 1-1zm29 2.572v16.856L36.951 32zM27.05 32 17 40.428V23.572zM46 43H18a1.001 1.001 0 0 1-1-1v-.267l10.827-9.08 2.245 1.882a2.995 2.995 0 0 0 3.856 0l2.245-1.882L47 41.733V42a1.001 1.001 0 0 1-1 1z" opacity=".2"/></svg>