<svg xmlns="http://www.w3.org/2000/svg" viewBox="0 0 64 64"><path d="M42 18H22a4.004 4.004 0 0 0-4 4v20a4.004 4.004 0 0 0 4 4h20a4.004 4.004 0 0 0 4-4V22a4.004 4.004 0 0 0-4-4zm3 24a3.003 3.003 0 0 1-3 3H22a3.003 3.003 0 0 1-3-3v-5.99h2.534a2.003 2.003 0 0 0 1.82-1.174l4.393-9.671a.293.293 0 0 1 .51-.003l6.58 14.099a1.28 1.28 0 0 0 2.326-.011l4.393-9.664a1.002 1.002 0 0 1 .91-.586H45zm0-14h-2.534a2.004 2.004 0 0 0-1.82 1.172l-4.393 9.663a.292.292 0 0 1-.51.003l-6.58-14.099a1.28 1.28 0 0 0-2.326.012l-4.393 9.672a1.002 1.002 0 0 1-.91.586H19V22a3.003 3.003 0 0 1 3-3h20a3.003 3.003 0 0 1 3 3z" opacity=".2"/><path d="M45 42a3.003 3.003 0 0 1-3 3H22a3.003 3.003 0 0 1-3-3v-5.99h2.534a2.003 2.003 0 0 0 1.82-1.174l4.393-9.671a.293.293 0 0 1 .51-.003l6.58 14.099a1.28 1.28 0 0 0 2.326-.011l4.393-9.664a1.002 1.002 0 0 1 .91-.586H45z" fill="#fcfbfa" opacity=".6"/><path d="M45 28h-2.534a2.004 2.004 0 0 0-1.82 1.172l-4.393 9.663a.292.292 0 0 1-.51.003l-6.58-14.099a1.28 1.28 0 0 0-2.326.012l-4.393 9.672a1.002 1.002 0 0 1-.91.586H19V22a3.003 3.003 0 0 1 3-3h20a3.003 3.003 0 0 1 3 3z" fill="#fff" opacity=".9"/></svg>