<svg xmlns="http://www.w3.org/2000/svg" viewBox="0 0 64 64"><path d="M47.7 33.292 40 29.923V19.75h-.075a.492.492 0 0 0-.226-.209l-7.5-3.25a.504.504 0 0 0-.398 0l-7.5 3.25a.492.492 0 0 0-.226.209H24v10.173l-7.7 3.369a.499.499 0 0 0-.3.458v10a.499.499 0 0 0 .3.458l8 3.5a.5.5 0 0 0 .412-.005L32 44.302l7.288 3.401a.5.5 0 0 0 .412.005l8-3.5a.499.499 0 0 0 .3-.458v-10a.499.499 0 0 0-.3-.458zM25 20.762l6.5 2.817v9.386L25 29.93zm14 9.17-6.5 3.033v-9.386l6.5-2.817zm-6.5 4.603L39 37.57v8.896l-6.5-3.034zm7.007 2.166-6.324-2.951 6.324-2.951 6.746 2.951zM32 17.295 38.242 20 32 22.705 25.758 20zm-7.507 13.504 6.324 2.951-6.324 2.951-6.746-2.951zM17 34.514l7 3.063v8.908l-7-3.062zm8 11.95V37.57l6.5-3.034v8.897zm15 .021v-8.908l7-3.063v8.909z" opacity=".2"/><path d="m25 20.762 6.5 2.817v9.386L25 29.93zm7.5 13.773L39 37.57v8.896l-6.5-3.034zm-15.5-.02 7 3.062v8.908l-7-3.062z" fill="#fcfbfa" opacity=".9"/><path d="m39.507 36.701-6.324-2.951 6.324-2.951 6.746 2.951zM32 17.295 38.242 20 32 22.705 25.758 20zm-7.507 13.504 6.324 2.951-6.324 2.951-6.746-2.951z" fill="#fcfbfa" opacity=".4"/><path d="m39 29.931-6.5 3.034v-9.386l6.5-2.817zM25 46.465v-8.896l6.5-3.034v8.897zm15 .02v-8.908l7-3.063v8.909z" fill="#fcfbfa" opacity=".6"/></svg>