<svg xmlns="http://www.w3.org/2000/svg" viewBox="0 0 64 64"><path d="M23 24a4 4 0 1 0-4-4 4.004 4.004 0 0 0 4 4zm0-7a3 3 0 1 1-3 3 3.003 3.003 0 0 1 3-3zm9 9a4 4 0 1 0-4-4 4.004 4.004 0 0 0 4 4zm0-7a3 3 0 1 1-3 3 3.003 3.003 0 0 1 3-3zm9 9a4 4 0 1 0-4-4 4.004 4.004 0 0 0 4 4zm0-7a3 3 0 1 1-3 3 3.003 3.003 0 0 1 3-3z" opacity=".2"/><path d="M44 29h-6c-.061 0-.118.014-.179.018A2.995 2.995 0 0 0 35 27h-6c-.061 0-.118.014-.179.018A2.995 2.995 0 0 0 26 25h-6a3.003 3.003 0 0 0-3 3v6a1.001 1.001 0 0 0 1 1h1v8a1.001 1.001 0 0 0 1 1h6a1.001 1.001 0 0 0 1-1v-6h1v8a1.001 1.001 0 0 0 1 1h6a1.001 1.001 0 0 0 1-1v-6h1v8a1.001 1.001 0 0 0 1 1h6a1.001 1.001 0 0 0 1-1v-8h1a1.001 1.001 0 0 0 1-1v-6a3.003 3.003 0 0 0-3-3zm-18 1v13h-6v-9h-2v-6a2.002 2.002 0 0 1 2-2h6a2.002 2.002 0 0 1 1.846 1.232c.022-.01.047-.013.07-.022A2.999 2.999 0 0 0 26 30zm9 2v13h-6v-9h-2v-6a2.002 2.002 0 0 1 2-2h6a2.002 2.002 0 0 1 1.846 1.232c.022-.01.047-.013.07-.022A2.999 2.999 0 0 0 35 32zm11 6h-2v9h-6v-9h-2v-6a2.002 2.002 0 0 1 2-2h6a2.002 2.002 0 0 1 2 2z" opacity=".2"/><path d="M41 21a3 3 0 1 1-3 3 3.003 3.003 0 0 1 3-3zm5 17h-2v9h-6v-9h-2v-6a2.002 2.002 0 0 1 2-2h6a2.002 2.002 0 0 1 2 2z" fill="#fcfbfa"/><path d="M32 19a3 3 0 1 1-3 3 3.003 3.003 0 0 1 3-3zm3 13v13h-6v-9h-2v-6a2.002 2.002 0 0 1 2-2h6a2.002 2.002 0 0 1 1.846 1.232c.022-.01.047-.013.07-.022A2.999 2.999 0 0 0 35 32z" fill="#fcfbfa" opacity=".6"/><path d="M23 17a3 3 0 1 1-3 3 3.003 3.003 0 0 1 3-3zm3 13v13h-6v-9h-2v-6a2.002 2.002 0 0 1 2-2h6a2.002 2.002 0 0 1 1.846 1.232c.022-.01.047-.013.07-.022A2.999 2.999 0 0 0 26 30z" fill="#fcfbfa" opacity=".4"/></svg>