<svg xmlns="http://www.w3.org/2000/svg" viewBox="0 0 64 64"><g opacity=".2"><path d="M32 16a16 16 0 1 0 16 16 16.018 16.018 0 0 0-16-16zm-9.151 27.858 2.687-2.687A3.973 3.973 0 0 1 28.364 40h7.272a3.973 3.973 0 0 1 2.828 1.171l2.687 2.687a14.899 14.899 0 0 1-18.302 0zm19.075-.64-2.753-2.754A4.967 4.967 0 0 0 35.636 39h-7.272a4.967 4.967 0 0 0-3.535 1.464l-2.753 2.753a15 15 0 1 1 19.848 0z"/><circle cx="32" cy="21" r="1"/><circle cx="21" cy="32" r="1"/><circle cx="43" cy="32" r="1"/><path d="M23.515 23.515a1 1 0 1 0 1.414 0 1 1 0 0 0-1.414 0zm16.131.131-6.636 6.637A1.978 1.978 0 0 0 32 30a2.002 2.002 0 0 0-2 2 1.978 1.978 0 0 0 .283 1.01l-2.137 2.136a.5.5 0 1 0 .707.707l2.137-2.136A1.978 1.978 0 0 0 32 34a2.002 2.002 0 0 0 2-2 1.978 1.978 0 0 0-.283-1.01l6.637-6.636a.5.5 0 1 0-.707-.707zM32 33a1 1 0 1 1 1-1 1.001 1.001 0 0 1-1 1z"/></g><path d="M32 17a14.98 14.98 0 0 0-9.924 26.217l2.753-2.753A4.967 4.967 0 0 1 28.364 39h7.272a4.967 4.967 0 0 1 3.535 1.464l2.753 2.753A14.98 14.98 0 0 0 32 17zM21 33a1 1 0 1 1 1-1 1 1 0 0 1-1 1zm11-13a1 1 0 1 1-1 1 1 1 0 0 1 1-1zm-7.071 4.929a1 1 0 1 1 0-1.414 1 1 0 0 1 0 1.414zm15.425-.575-6.637 6.636A1.978 1.978 0 0 1 34 32a2.002 2.002 0 0 1-2 2 1.978 1.978 0 0 1-1.01-.283l-2.136 2.137a.5.5 0 0 1-.707-.707l2.136-2.137A1.978 1.978 0 0 1 30 32a2.002 2.002 0 0 1 2-2 1.978 1.978 0 0 1 1.01.283l6.636-6.637a.5.5 0 1 1 .707.707zM43 33a1 1 0 1 1 1-1 1 1 0 0 1-1 1z" fill="#fff" opacity=".95"/><path d="m22.849 43.858 2.687-2.687A3.973 3.973 0 0 1 28.364 40h7.272a3.973 3.973 0 0 1 2.828 1.171l2.687 2.687a14.899 14.899 0 0 1-18.302 0z" fill="#fcfbfa" opacity=".4"/><circle cx="32" cy="32" r="1" fill="#fcfbfa" opacity=".6"/></svg>