<svg xmlns="http://www.w3.org/2000/svg" viewBox="0 0 64 64"><g opacity=".2"><path d="M32 16a15.99 15.99 0 0 0-11.34 27.273.121.121 0 0 0 .067.067A15.996 15.996 0 1 0 32 16zm10 16a10 10 0 1 1-10-10 10.011 10.011 0 0 1 10 10zm-25 0a15.007 15.007 0 0 1 14.5-14.975v4a10.97 10.97 0 0 0-7.611 18.38l-2.827 2.826A14.929 14.929 0 0 1 17 32zm15 15a14.929 14.929 0 0 1-10.231-4.062l2.827-2.827A10.988 10.988 0 1 0 32.5 21.025v-4A14.991 14.991 0 0 1 32 47z"/><path d="M25.5 37h13a.5.5 0 0 0 0-1H37v-5.5a.5.5 0 0 0-.5-.5H34v-4.5a.5.5 0 0 0-.5-.5h-3a.5.5 0 0 0-.5.5V31h-2.5a.5.5 0 0 0-.5.5V36h-1.5a.5.5 0 0 0 0 1zm8.5-6h2v5h-2zm-3 .5V26h2v10h-2zm-3 .5h2v4h-2z"/></g><path d="M17 32a15.007 15.007 0 0 1 14.5-14.975v4a10.97 10.97 0 0 0-7.611 18.38l-2.827 2.826A14.929 14.929 0 0 1 17 32z" fill="#fcfbfa" opacity=".6"/><path d="M32 47a14.929 14.929 0 0 1-10.231-4.062l2.827-2.827A10.988 10.988 0 1 0 32.5 21.025v-4A14.991 14.991 0 0 1 32 47z" fill="#fcfbfa" opacity=".8"/><path fill="#fcfbfa" opacity=".9" d="M28 32h2v4h-2zm6-1h2v5h-2zm-3-5h2v10h-2z"/></svg>