<svg xmlns="http://www.w3.org/2000/svg" viewBox="0 0 64 64"><g opacity=".2"><path d="m43.414 21.707-5.121-5.121A2.012 2.012 0 0 0 36.879 16H22a2.002 2.002 0 0 0-2 2v28a2.002 2.002 0 0 0 2 2h20a2.002 2.002 0 0 0 2-2V23.121a2.014 2.014 0 0 0-.586-1.414zm-.707.707a.993.993 0 0 1 .269.586H38a1.001 1.001 0 0 1-1-1v-4.976a.999.999 0 0 1 .586.269zM42 47H22a1.001 1.001 0 0 1-1-1V18a1.001 1.001 0 0 1 1-1h14v5a2.002 2.002 0 0 0 2 2h5v22a1.001 1.001 0 0 1-1 1z"/><path d="M31.146 27.146 26.5 31.793l-1.646-1.646a.5.5 0 0 0-.707.707l2 2a.5.5 0 0 0 .707 0l5-5.001a.5.5 0 0 0-.707-.707zM39.5 28h-5a.5.5 0 0 0 0 1h5a.5.5 0 0 0 0-1zm0 3h-5a.5.5 0 0 0 0 1h5a.5.5 0 0 0 0-1zm-8.354 6.146L26.5 41.793l-1.646-1.646a.5.5 0 0 0-.707.707l2 2a.5.5 0 0 0 .707 0l5-5.001a.5.5 0 0 0-.707-.707zM39.5 38h-5a.5.5 0 0 0 0 1h5a.5.5 0 0 0 0-1zm0 3h-5a.5.5 0 0 0 0 1h5a.5.5 0 0 0 0-1z"/></g><path d="M42.707 22.414a.993.993 0 0 1 .269.586H38a1.001 1.001 0 0 1-1-1v-4.976a.999.999 0 0 1 .586.269z" fill="#fcfbfa" opacity=".4"/><path d="M38 24a2.002 2.002 0 0 1-2-2v-5H22a1.001 1.001 0 0 0-1 1v28a1.001 1.001 0 0 0 1 1h20a1.001 1.001 0 0 0 1-1V24zm-6.146 13.853-5 5a.5.5 0 0 1-.707 0l-2-2a.5.5 0 0 1 .707-.707l1.646 1.647 4.646-4.647a.5.5 0 0 1 .707.707zm0-10-5 5a.5.5 0 0 1-.707 0l-2-2a.5.5 0 0 1 .707-.707l1.646 1.647 4.646-4.647a.5.5 0 0 1 .707.707zM39.5 42h-5a.5.5 0 0 1 0-1h5a.5.5 0 0 1 0 1zm0-3h-5a.5.5 0 0 1 0-1h5a.5.5 0 0 1 0 1zm0-7h-5a.5.5 0 0 1 0-1h5a.5.5 0 0 1 0 1zm0-3h-5a.5.5 0 0 1 0-1h5a.5.5 0 0 1 0 1z" fill="#fcfbfa" opacity=".9"/></svg>