<svg xmlns="http://www.w3.org/2000/svg" viewBox="0 0 96 72"><path fill="#fff" d="M4 4h42v30H4z"/><path fill="#6eb6f0" d="M8 18h34v12H8z"/><path fill="#d7dbdd" d="M8 8h24v2H8zm0 4h12v2H8z"/><path fill="#fff" d="M50 4h42v30H50z"/><path fill="#fbce4a" d="M54 18h34v12H54z"/><path fill="#d7dbdd" d="M54 8h24v2H54zm0 4h12v2H54z"/><path fill="#fff" d="M4 38h42v30H4z"/><path fill="#fbce4a" d="M8 52h34v12H8z"/><path fill="#d7dbdd" d="M8 42h24v2H8zm0 4h12v2H8z"/><path fill="#fff" d="M50 38h42v30H50z"/><path fill="#ff9b5c" d="M54 52h34v12H54z"/><path fill="#d7dbdd" d="M54 42h34v2H54zm0 4h12v2H54z"/></svg>