<svg xmlns="http://www.w3.org/2000/svg" viewBox="0 0 96 72"><path fill="#fff" d="M4 4h27v30H4z"/><path fill="#6eb6f0" d="M8 18h19v12H8z"/><path fill="#d7dbdd" d="M8 8h19v2H8zm0 4h10v2H8z"/><path fill="#fff" d="M35 4h26v30H35z"/><path fill="#ff9b5c" d="M39 18h18v12H39z"/><path fill="#d7dbdd" d="M39 8h18v2H39zm0 4h9v2h-9z"/><path fill="#fff" d="M65 4h27v30H65z"/><path fill="#fbce4a" d="M69 18h19v12H69z"/><path fill="#d7dbdd" d="M69 8h19v2H69zm0 4h10v2H69z"/><path fill="#fff" d="M4 38h27v30H4z"/><path fill="#fbce4a" d="M8 52h19v12H8z"/><path fill="#d7dbdd" d="M8 42h19v2H8zm0 4h10v2H8z"/><path fill="#fff" d="M35 38h26v30H35z"/><path fill="#6eb6f0" d="M39 52h18v12H39z"/><path fill="#d7dbdd" d="M39 42h18v2H39zm0 4h9v2h-9z"/></svg>