<svg viewBox="0 0 64 48" xmlns="http://www.w3.org/2000/svg"><path d="M16 15h44v30H16z" opacity=".02"/><path d="M16 14h44v30H16z" fill="#fff"/><path d="M20 23h2v2h-2zm3 0h16v2H23zm17 0h16v2H40zm12-5h4v2h-4zm-5 0h4v2h-4zM20 35h2v2h-2zm20 0h16v2H40zm-20 3h2v2h-2zm3 0h16v2H23zm-3-9h2v2h-2zm20 0h16v2H40z" fill="#d7dbdd"/><path d="M20 26h2v2h-2zm3 0h16v2H23zm17 0h16v2H40z" fill="#6eb6f0"/><path d="M40 38h16v2H40zm-20-6h2v2h-2zm20 0h16v2H40zm-17-3h16v8H23z" fill="#d7dbdd"/><path d="M24 30h14v6H24z" fill="#f2f3f4"/><path d="M37 29h2v2h-2z"/></svg>