<svg viewBox="0 0 64 48" xmlns="http://www.w3.org/2000/svg"><path d="M16 15h44v30H16z" opacity=".02"/><path d="M16 14h44v30H16z" fill="#fff"/><path d="M20 38h2v2h-2z" fill="#fbce4a"/><path d="M23 38h16v2H23zm17 0h16v2H40z" fill="#d7dbdd"/><path d="M20 35h2v2h-2z" fill="#fbce4a"/><path d="M23 35h16v2H23zm17 0h16v2H40z" fill="#d7dbdd"/><path d="M20 32h2v2h-2z" fill="#fbce4a"/><path d="M23 32h16v2H23zm17 0h16v2H40z" fill="#d7dbdd"/><path d="M20 29h2v2h-2z" fill="#fbce4a"/><path d="M23 29h16v2H23zm17 0h16v2H40z" fill="#d7dbdd"/><path d="M20 26h2v2h-2z" fill="#fbce4a"/><path d="M23 26h16v2H23zm17 0h16v2H40z" fill="#d7dbdd"/><path d="M20 23h2v2h-2z" fill="#fbce4a"/><path d="M23 23h16v2H23zm17 0h16v2H40zm12-5h4v2h-4zm-5 0h4v2h-4z" fill="#d7dbdd"/></svg>