<svg viewBox="0 0 64 48" xmlns="http://www.w3.org/2000/svg"><path d="M16 15h44v30H16z" opacity=".02"/><path d="M16 14h44v30H16z" fill="#fff"/><circle cx="21.5" cy="19.5" fill="#92c8f4" r="1.5"/><path d="M24 19h5v1h-5zm22-1h10v1H46zm0 2h5v1h-5z" fill="#d7dbdd"/><path d="M33 18h12v3H33z" fill="#fbce4a"/><circle cx="21.5" cy="25.5" fill="#92c8f4" r="1.5"/><path d="M24 25h5v1h-5zm22-1h10v1H46zm0 2h5v1h-5z" fill="#d7dbdd"/><path d="M33 24h12v3H33z" fill="#6eb6f0"/><circle cx="21.5" cy="31.5" fill="#92c8f4" r="1.5"/><path d="M24 31h5v1h-5zm22-1h10v1H46zm0 2h5v1h-5z" fill="#d7dbdd"/><path d="M33 30h12v3H33z" fill="#ff9b5c"/><circle cx="21.5" cy="37.5" fill="#92c8f4" r="1.5"/><path d="M24 37h5v1h-5zm22-1h10v1H46zm0 2h5v1h-5z" fill="#d7dbdd"/><path d="M33 36h12v3H33z" fill="#6eb6f0"/></svg>