<svg xmlns="http://www.w3.org/2000/svg" viewBox="0 0 64 48"><path fill="#fff" d="M16 14h44v31H16z"/><path opacity=".02" d="M16 45h44v1H16z"/><path fill="#d7dbdd" d="M20 39h11v2H20zm12 0h12v2H32zm13 0h11v2H45zm-25-3h11v2H20zm12 0h12v2H32zm13 0h11v2H45zm-25-3h11v2H20zm0-3h36v2H20zm12 3h12v2H32zm13 0h11v2H45z"/><path d="m24.766 22.235-1.107-1.107a1.93 1.93 0 1 0-.53.531l1.105 1.106a.378.378 0 0 0 .266.11.376.376 0 0 0 .266-.64zm-2.71-1a1.181 1.181 0 1 1 1.18-1.18 1.181 1.181 0 0 1-1.18 1.181z" fill="#cacfd2"/><rect x="26" y="18" width="16" height="5" rx="1" fill="#6eb6f0"/><path fill="#fff" d="m40.977 19.677-.354-.354-.823.823-.823-.823-.354.354.823.823-.823.823.354.354.823-.823.823.823.354-.354-.824-.823.824-.823z"/><rect x="43" y="18" width="13" height="5" rx="1" fill="#d7dbdd"/><path fill="#fff" d="m54.977 19.677-.354-.354-.823.823-.823-.823-.354.354.823.823-.823.823.354.354.823-.823.823.823.354-.354-.824-.823.824-.823z"/><path fill="#d7dbdd" d="M20 25h8v2h-8zm20 0h8v2h-8zm-10 0h8v2h-8z"/></svg>