<svg xmlns="http://www.w3.org/2000/svg" viewBox="0 0 64 48"><path opacity=".02" d="M16 15h44v30H16z"/><path fill="#fff" d="M16 14h44v30H16z"/><path fill="#fbce4a" d="M33 38h4v4h-4zm20-22h4v4h-4z"/><path d="M22.5 37.5s2.5-2.5 2.5-5a2.5 2.5 0 0 0-5 0c0 2.5 2.5 5 2.5 5z" fill="#ff9b5c"/><path d="M22.5 31.667a.833.833 0 1 0 .833.833.833.833 0 0 0-.833-.833z" fill="#fff"/><path d="M38.5 24.5s2.5-2.5 2.5-5a2.5 2.5 0 0 0-5 0c0 2.5 2.5 5 2.5 5z" fill="#ff9b5c"/><path d="M38.5 18.667a.833.833 0 1 0 .833.833.833.833 0 0 0-.833-.833z" fill="#fff"/><path d="M45 42v-.512a4 4 0 0 1 2.232-3.588l1.16-.572a8 8 0 0 0 3.85-4.1l.733-1.761A4 4 0 0 1 56.668 29h1.313v13zM18 16v11h2.512a4 4 0 0 0 3.588-2.235l.572-1.162a8 8 0 0 1 4.1-3.856l1.761-.734A4 4 0 0 0 32.936 16z" fill="#6eb6f0"/><path d="m58 21.335-9 3.774V16h-2v9.948l-6.878 2.885a8.983 8.983 0 0 0-1.363-1.062l-10.288-6.41A8.995 8.995 0 0 0 23.712 20H18v2h5.712a6.986 6.986 0 0 1 3.7 1.059L37.7 29.468c.118.073.223.16.335.239l-5.515 2.314A8.98 8.98 0 0 0 27 40.32V42h2v-1.68a6.987 6.987 0 0 1 4.293-6.456l6.314-2.647A6.961 6.961 0 0 1 41 35.409V42h2v-6.591a8.957 8.957 0 0 0-1.514-4.98L58 23.5z" fill="#d7dbdd"/></svg>