<svg viewBox="0 0 64 48" xmlns="http://www.w3.org/2000/svg"><path d="M32 32h28v12H32z" fill="#fff"/><path d="M43 37h15v2H43zm-9-3h24v2H34zm0 3h8v2h-8zm9 3h15v2H43zm-9 0h8v2h-8z" fill="#d7dbdd"/><path d="M32 29h28v1H32zm0 15h28v1H32z" opacity=".02"/><path d="M32 14h28v15H32z" fill="#fff"/><path d="M43 22h15v2H43zm0 3h15v2H43zm-9-3h8v2h-8zm9-3h15v2H43zm-9 0h8v2h-8zm0 6h8v2h-8zm0-9h24v2H34z" fill="#d7dbdd"/><path d="M12 10h16v38H12z" fill="#fff"/><path d="M14 12h12v5H14z" fill="#e5e7e9"/><path d="M14 19h12v5H14z" fill="#92c8f4"/><path d="M14 26h12v5H14zm0 7h12v5H14zm0 7h12v5H14z" fill="#e5e7e9"/></svg>