<svg viewBox="0 0 64 48" xmlns="http://www.w3.org/2000/svg"><path d="M16 15h44v30H16z" opacity=".02"/><path d="M16 14h44v30H16z" fill="#fff"/><path d="M21 18h34v2H21zm5 3h4v4h-4zm5 0h4v4h-4zm5 0h4v4h-4zm5 0h4v4h-4zm5 0h4v4h-4zm5 0h4v4h-4zm-30 5h4v4h-4zm5 0h4v4h-4zm5 0h4v4h-4zm5 0h4v4h-4zm5 0h4v4h-4zm5 0h4v4h-4zm5 0h4v4h-4zm-30 5h4v4h-4zm5 0h4v4h-4z" fill="#d7dbdd"/><path d="M31 31h4v4h-4z" fill="#6eb6f0"/><path d="M36 31h4v4h-4zm5 0h4v4h-4zm5 0h4v4h-4zm5 0h4v4h-4zm-30 5h4v4h-4zm5 0h4v4h-4zm5 0h4v4h-4zm5 0h4v4h-4zm5 0h4v4h-4z" fill="#d7dbdd"/></svg>