<svg viewBox="0 0 64 48" xmlns="http://www.w3.org/2000/svg"><rect height="48" opacity=".1" rx="1" width="64"/><rect height="32" opacity=".02" rx="1" width="48" x="8" y="9"/><rect fill="#fff" height="32" rx="1" width="48" x="8" y="8"/><g fill="#d7dbdd"><path d="M26 12h12v1H26z"/><circle cx="17.5" cy="18.5" r="1.5"/><circle cx="26.5" cy="18.5" r="1.5"/></g><circle cx="36.5" cy="18.5" fill="#1d7ed7" r="1.5"/><circle cx="46.5" cy="18.5" fill="#d7dbdd" r="1.5"/><path d="M24 27h26v3H24z" fill="#d7dbdd"/><path d="M25 28h24v1H25z" fill="#f2f3f4"/><path d="M14 28h8v1h-8zm10-6h26v3H24z" fill="#d7dbdd"/><path d="M25 23h22v1H25zm23 0h1v1h-1z" fill="#f2f3f4"/><path d="M14 23h8v1h-8z" fill="#d7dbdd"/><path d="M46 34h6v2h-6z" fill="#1d7ed7"/><path d="M12 34h6v2h-6zm8-16h4v1h-4zm9 0h5v1h-5zm10 0h5v1h-5z" fill="#d7dbdd"/></svg>