<svg viewBox="0 0 64 48" xmlns="http://www.w3.org/2000/svg"><path d="M39 32h21v13H39zm-23 0h21v13H16zm23-17h21v15H39zm-23 0h21v15H16z" opacity=".02"/><path d="M39 14h21v15H39zm-23 0h21v15H16zm0 17h21v13H16zm23 0h21v13H39z" fill="#fff"/><path d="M30 35h2v7h-2z" fill="#fbce4a"/><path d="M27 33h2v9h-2zm-9 6h2v3h-2z" fill="#ff9b5c"/><path d="M21 37h2v5h-2z" fill="#fbce4a"/><path d="M33 37h2v5h-2zm-9-2h2v7h-2z" fill="#6eb6f0"/><path d="M41 42h17v-9l-7 5-7-4z" fill="#fbce4a"/><path d="M41 42h17v-6l-7 4-7-2z" fill="#6eb6f0"/><path d="M41 16h8v2h-8zm9 0h8v2h-8zm-9 3h8v2h-8zm9 0h8v2h-8zm-9 3h8v2h-8zm9 0h8v2h-8zm-9 3h8v2h-8zm9 0h8v2h-8z" fill="#d7dbdd"/><path d="M26.5 16a5.5 5.5 0 1 0 3.889 9.389z" fill="#6eb6f0"/><path d="M31.581 19.4A5.5 5.5 0 0 0 26.5 16v5.5z" fill="#ff9b5c"/><path d="M31.581 19.4 26.5 21.5l3.889 3.889a5.5 5.5 0 0 0 1.192-5.989z" fill="#fbce4a"/></svg>