<svg viewBox="0 0 64 48" xmlns="http://www.w3.org/2000/svg"><path d="M16 15h44v30H16z" opacity=".02"/><path d="M16 14h44v30H16z" fill="#fff"/><path d="M48 22h3v16h-3z" fill="#ff9b5c"/><path d="M43 18h3v20h-3z" fill="#fbce4a"/><path d="M38 22h3v16h-3z" fill="#6eb6f0"/><path d="M33 24h3v14h-3z" fill="#ff9b5c"/><path d="M28 26h3v12h-3z" fill="#fbce4a"/><path d="M23 28h3v10h-3zm30-4h3v14h-3z" fill="#6eb6f0"/><path d="M20 39h36v1H20zm0-3h1v1h-1zm0-6h1v1h-1zm0 3h1v1h-1zm0-6h1v1h-1zm0-3h1v1h-1zm0-6h1v1h-1zm0 3h1v1h-1z" fill="#e5e7e9"/></svg>