<svg viewBox="0 0 64 48" xmlns="http://www.w3.org/2000/svg"><path d="M32 15h13v14H32zm15 0h13v14H47zM32 31h13v14H32zm15 0h13v14H47z" opacity=".02"/><path d="M32 14h13v14H32zm-20-4h16v38H12z" fill="#fff"/><path d="M21 17v2h-1v-2l-3-3h7z" fill="#cacfd2"/><path d="M18 24h6v1h-6zm0 3h6v1h-6zm0 3h6v1h-6zm0 3h6v1h-6zm-2-9h1v1h-1zm0 3h1v1h-1zm0 3h1v1h-1zm0 3h1v1h-1z" fill="#d7dbdd"/><circle cx="38.5" cy="18.5" fill="#6eb6f0" r="1.5"/><path d="M35 22h7v1h-7zm0 2h7v1h-7z" fill="#d7dbdd"/><path d="M47 14h13v14H47z" fill="#fff"/><circle cx="53.5" cy="18.5" fill="#ff9b5c" r="1.5"/><path d="M50 22h7v1h-7zm0 2h7v1h-7z" fill="#d7dbdd"/><path d="M32 30h13v14H32z" fill="#fff"/><circle cx="38.5" cy="34.5" fill="#fbce4a" r="1.5"/><path d="M35 38h7v1h-7zm0 2h7v1h-7z" fill="#d7dbdd"/><path d="M47 30h13v14H47z" fill="#fff"/><circle cx="53.5" cy="34.5" fill="#6eb6f0" r="1.5"/><path d="M50 38h7v1h-7zm0 2h7v1h-7z" fill="#d7dbdd"/></svg>