<svg viewBox="0 0 64 64" xmlns="http://www.w3.org/2000/svg"><path d="M52 51c0 .55-.45 1-1 1H35c-.55 0-1-.45-1-1V33c0-.55.45-1 1-1h16c.55 0 1 .45 1 1zM21 33l9 9h-3v8h-4v-6h-4v6h-4v-8h-3z" opacity=".1"/><path d="M38 21H26v-5a2 2 0 0 1 2-2h8a2 2 0 0 1 2 2zm14 0H40v-5a2 2 0 0 1 2-2h8a2 2 0 0 1 2 2z" fill="#cacfd2"/><path d="M12 21h40v4H12z" opacity=".1"/><g fill="#fff"><path d="M12 20h40v4H12z"/><path d="M24 21H12v-5a2 2 0 0 1 2-2h8a2 2 0 0 1 2 2zm28 29c0 .55-.45 1-1 1H35c-.55 0-1-.45-1-1V32c0-.55.45-1 1-1h16c.55 0 1 .45 1 1z"/></g><path d="M21 32l9 9h-3v8h-4v-6h-4v6h-4v-8h-3z" fill="#7cbdf1"/><path d="M37 42h12v1.997H37zm0 4h12v1.997H37z" fill="#bdc3c7"/><circle cx="43" cy="37" fill="#7cbdf1" r="3"/></svg>