<svg viewBox="0 0 256 164" xmlns="http://www.w3.org/2000/svg"><path d="M0 2C0 .9.9 0 2 0h252c1.1 0 2 .9 2 2v160a2 2 0 0 1-2 2H2c-1.1 0-2-.9-2-2z" fill="#c2c2c2"/><path d="M254 1H2a1 1 0 0 0-1 1v11h254V2a1 1 0 0 0-1-1z" fill="#ebebeb"/><path d="M1 41v121a1 1 0 0 0 1 1h252a1 1 0 0 0 1-1V41z" fill="#fafafa"/><path d="M1 14h254v26H1z" fill="#fff"/><path d="M248 79c0 .55-.45 1-1 1H9c-.55 0-1-.45-1-1V48c0-.55.45-1 1-1h238c.55 0 1 .45 1 1z" fill="#c8cacc"/><path d="M247 48v31H9V48z" fill="#f8f8f8"/><path d="M248 118c0 .55-.45 1-1 1H9c-.55 0-1-.45-1-1V87c0-.55.45-1 1-1h238c.55 0 1 .45 1 1z" fill="#c8cacc"/><path d="M247 87v31H9V87z" fill="#f8f8f8"/><path d="M248 156c0 .55-.45 1-1 1H9c-.55 0-1-.45-1-1v-30c0-.55.45-1 1-1h238c.55 0 1 .45 1 1z" fill="#c8cacc"/><path d="M247 126v30H9v-30z" fill="#f8f8f8"/></svg>