<?xml version="1.0" standalone="no"?>
<!DOCTYPE svg PUBLIC "-//W3C//DTD SVG 1.1//EN" "http://www.w3.org/Graphics/SVG/1.1/DTD/svg11.dtd">
<svg xmlns="http://www.w3.org/2000/svg">
<metadata>Oracle</metadata>
<defs>
<font id="Font-APEX-Large" horiz-adv-x="1024" >
<font-face font-family="Font-APEX-Large" font-weight="400" font-stretch="normal" units-per-em="1024" ascent="960" descent="-64" />
<missing-glyph horiz-adv-x="1024" />
<glyph glyph-name="modifier-25-percent" unicode="&#xe9ca;" d="M512 960c-283 0-512-229-512-512s229-512 512-512c283 0 512 229 512 512v0c0 283-229 512-512 512v0z m0-512v341c189 0 341-152 341-341v0z" />
<glyph glyph-name="modifier-50-percent" unicode="&#xe9ec;" d="M512 960c-283 0-512-229-512-512s229-512 512-512c283 0 512 229 512 512v0c0 283-229 512-512 512v0z m0-853v682c189 0 341-152 341-341s-152-341-341-341v0z" />
<glyph glyph-name="modifier-75-percent" unicode="&#xe9ed;" d="M512 960c-283 0-512-229-512-512s229-512 512-512c283 0 512 229 512 512v0c0 283-229 512-512 512v0z m0-853c-189 0-341 152-341 341v0h341v341c189 0 341-152 341-341s-152-341-341-341v0z" />
<glyph glyph-name="modifier-100-percent" unicode="&#xe9ee;" d="M512 960c-283 0-512-229-512-512s229-512 512-512c283 0 512 229 512 512v0c0 283-229 512-512 512v0z m0-853c-189 0-341 152-341 341s152 341 341 341c189 0 341-152 341-341v0c0-189-152-341-341-341v0z" />
<glyph glyph-name="modifier-arrow-down" unicode="&#xe9ef;" d="M512 960c-283 0-512-229-512-512s229-512 512-512c283 0 512 229 512 512v0c0 283-229 512-512 512v0z m268-552l-228-228c-10-10-24-16-40-16s-30 6-40 16l-228 228c-10 10-17 24-17 40 0 31 26 57 57 57 16 0 30-7 41-17l130-130v318c0 31 26 56 57 56s57-25 57-56v0-318l130 130c11 11 25 18 41 18 32 0 57-26 57-57 0-16-7-31-17-41l0 0z" />
<glyph glyph-name="modifier-arrow-left" unicode="&#xe9f0;" d="M512 960c-283 0-512-229-512-512s229-512 512-512c283 0 512 229 512 512v0c0 283-229 512-512 512v0z m228-569h-318l130-130c12-11 19-26 19-43 0-32-25-57-56-57-18 0-33 8-43 20l0 0-228 227c-10 11-17 25-17 40s7 30 17 41l228 227c10 10 24 17 40 17 31 0 57-26 57-57 0-16-7-30-17-41l0 0-130-130h318c31 0 56-26 56-57s-25-57-56-57v0z" />
<glyph glyph-name="modifier-arrow-right" unicode="&#xe9f1;" d="M512 960c-283 0-512-229-512-512s229-512 512-512c283 0 512 229 512 512v0c0 283-229 512-512 512v0z m268-552l-228-228c-10-10-24-16-40-16-31 0-57 25-57 57 0 15 7 30 17 40l130 130h-318c-31 0-56 26-56 57s25 57 56 57v0h318l-130 130c-10 11-16 25-16 40 0 31 25 57 57 57 15 0 29-6 39-16l0 0 228-228c10-10 16-24 16-40s-6-30-16-40v0z" />
<glyph glyph-name="modifier-arrow-up" unicode="&#xe9f2;" d="M512 960c-283 0-512-229-512-512s229-512 512-512c283 0 512 229 512 512v0c0 283-229 512-512 512v0z m267-552c-10-10-24-16-40-16s-30 6-40 16v0l-130 130v-317c0-32-26-57-57-57s-57 25-57 57v0 317l-130-130c-11-11-26-18-42-18-32 0-57 25-57 57 0 16 7 31 18 41l0 1 228 227c10 10 24 17 40 17s30-7 40-17l228-227c10-11 16-25 16-40 0-16-6-30-17-41l0 0z" />
<glyph glyph-name="modifier-blank" unicode="&#xe9f3;" d="M1024 448c0-283-229-512-512-512s-512 229-512 512c0 283 229 512 512 512s512-229 512-512z" />
<glyph glyph-name="modifier-check" unicode="&#xe9f4;" d="M512 960c-283 0-512-229-512-512s229-512 512-512c283 0 512 229 512 512v0c0 283-229 512-512 512v0z m268-382l-342-341c-10-10-24-17-40-17s-30 7-40 17l-114 114c-11 10-19 25-19 42 0 32 26 57 57 57 17 0 32-7 43-19l0 0 73-73 301 301c11 11 26 19 43 19 31 0 57-26 57-57 0-17-8-32-19-43l0 0z" />
<glyph glyph-name="modifier-circle" unicode="&#xe9f5;" d="M512 960c-283 0-512-229-512-512s229-512 512-512c283 0 512 229 512 512v0c0 283-229 512-512 512v0z m0-683c-94 0-171 77-171 171s77 171 171 171c94 0 171-77 171-171v0c0-94-77-171-171-171v0z" />
<glyph glyph-name="modifier-clock" unicode="&#xe9f6;" d="M512 960c-283 0-512-229-512-512s229-512 512-512c283 0 512 229 512 512v0c0 283-229 512-512 512v0z m212-724c-11-10-25-16-41-16s-29 6-40 16l-171 172c-11 10-17 24-17 40v228c0 31 26 56 57 56s57-25 57-56v0-204l155-155c10-10 16-25 16-40 0-16-6-30-16-41l0 0z" />
<glyph glyph-name="modifier-ellipsis-h" unicode="&#xe9f7;" d="M512 960c-283 0-512-229-512-512s229-512 512-512c283 0 512 229 512 512v0c0 283-229 512-512 512v0z m-228-569c-31 0-56 26-56 57s25 57 56 57c32 0 57-26 57-57v0c0-31-25-57-57-57v0z m228 0c-31 0-57 26-57 57s26 57 57 57c31 0 57-26 57-57v0c0-31-26-57-57-57v0z m228 0c-32 0-57 26-57 57s25 57 57 57c31 0 56-26 56-57v0c0-31-25-57-56-57v0z" />
<glyph glyph-name="modifier-ellipsis-v" unicode="&#xe9f8;" d="M512 960c-283 0-512-229-512-512s229-512 512-512c283 0 512 229 512 512v0c0 283-229 512-512 512v0z m0-796c-31 0-57 25-57 56s26 57 57 57c31 0 57-25 57-57v0c0-31-26-56-57-56v0z m0 227c-31 0-57 26-57 57s26 57 57 57c31 0 57-26 57-57v0c0-31-26-57-57-57v0z m0 228c-31 0-57 25-57 57s26 56 57 56c31 0 57-25 57-56v0c0-32-26-57-57-57v0z" />
<glyph glyph-name="modifier-heart" unicode="&#xe9f9;" d="M512 960c-283 0-512-229-512-512s229-512 512-512c283 0 512 229 512 512v0c0 283-229 512-512 512v0z m245-562l-245-234-245 234c-24 23-39 56-39 92s15 68 39 91l0 0c25 23 58 38 95 38s71-15 96-38l0 0 54-52 54 52c25 23 59 38 96 38s70-15 95-38l0 0c24-23 39-55 39-91 0-36-15-69-39-92l0 0z" />
<glyph glyph-name="modifier-information" unicode="&#xe9fa;" d="M512 960c-283 0-512-229-512-512s229-512 512-512c283 0 512 229 512 512v0c0 283-229 512-512 512v0z m57-740c0-31-26-56-57-56s-57 25-57 56v0 228c0 31 26 57 57 57s57-26 57-57v0z m-57 399c-31 0-57 25-57 57s26 56 57 56c31 0 57-25 57-56v0c0-32-26-57-57-57v0z" />
<glyph glyph-name="modifier-minus" unicode="&#xe9fb;" d="M512 960c-283 0-512-229-512-512s229-512 512-512c283 0 512 229 512 512v0c0 283-229 512-512 512v0z m228-569h-456c-31 0-56 26-56 57s25 57 56 57v0h456c31 0 56-26 56-57s-25-57-56-57v0z" />
<glyph glyph-name="modifier-pause" unicode="&#xe9fc;" d="M512 960c-283 0-512-229-512-512s229-512 512-512c283 0 512 229 512 512v0c0 283-229 512-512 512v0z m-57-626c0-31-25-57-57-57s-57 26-57 57v0 228c0 31 26 57 57 57s57-26 57-57v0z m228 0c0-31-26-57-57-57s-57 26-57 57v0 228c0 31 25 57 57 57s57-26 57-57v0z" />
<glyph glyph-name="modifier-play" unicode="&#xe9fd;" d="M512 960c-283 0-512-229-512-512s229-512 512-512c283 0 512 229 512 512v0c0 283-229 512-512 512v0z m200-561l-285-171c-8-5-18-8-29-8-31 0-57 26-57 57 0 0 0 0 0 0v0 342c0 31 26 57 57 57 11 0 21-4 30-9l-1 0 285-170c17-10 28-28 28-49s-11-39-28-49l0 0z" />
<glyph glyph-name="modifier-plus" unicode="&#xe9fe;" d="M512 960c-283 0-512-229-512-512s229-512 512-512c283 0 512 229 512 512v0c0 283-229 512-512 512v0z m228-569h-171v-171c0-31-26-56-57-56s-57 25-57 56v0 171h-171c-31 0-56 26-56 57s25 57 56 57v0h171v171c0 31 26 56 57 56s57-25 57-56v0-171h171c31 0 56-26 56-57s-25-57-56-57v0z" />
<glyph glyph-name="modifier-sleep" unicode="&#xe9ff;" d="M512 960c-283 0-512-229-512-512s229-512 512-512c283 0 512 229 512 512v0c0 283-229 512-512 512v0z m8-796c-1 0-1 0-1 0-161 0-292 130-292 291 0 129 84 239 201 277l2 0c-27-40-43-90-43-144 0-147 118-265 265-265 54 0 104 16 145 43l-1 0c-38-118-148-202-276-202h0z" />
<glyph glyph-name="modifier-star" unicode="&#xea00;" d="M512 960c-283 0-512-229-512-512s229-512 512-512c283 0 512 229 512 512v0c0 283-229 512-512 512v0z m250-591c17-10 28-28 28-49 0-31-25-57-57-57h0c-10 0-20 3-28 8l0 0-136 79v-158c0-31-26-57-57-57s-57 26-57 57v0 158l-136-79c-9-5-18-8-29-8h0c-31 0-57 26-57 57 0 21 12 39 28 49l1 0 136 79-136 79c-17 10-28 28-28 49 0 31 25 57 56 57 11 0 20-3 29-8l0 0 136-78v157c0 31 26 57 57 57s57-26 57-57v0-157l136 78c9 5 18 8 28 8 32 0 57-26 57-57 0-21-11-39-27-49l-1 0-136-79z" />
<glyph glyph-name="modifier-stop" unicode="&#xea01;" d="M512 960c-283 0-512-229-512-512s229-512 512-512c283 0 512 229 512 512v0c0 283-229 512-512 512v0z m171-626c0-31-26-57-57-57v0h-228c-31 0-57 26-57 57v0 228c0 31 26 57 57 57v0h228c31 0 57-26 57-57v0z" />
<glyph glyph-name="modifier-warning" unicode="&#xea02;" d="M512 960c-283 0-512-229-512-512s229-512 512-512c283 0 512 229 512 512v0c0 283-229 512-512 512v0z m40-779c-10-10-25-17-40-17-31 0-57 25-57 56v0c0 1 0 1 0 2 0 7 2 14 5 20l0 0c2 7 6 14 12 18l0 0c10 10 24 16 40 16s29-6 40-16l0 0c5-5 10-11 12-18l0 0c3-6 5-13 5-20 0-1 0-1 0-2l0 0c0 0 0 0 0 0 0-16-7-30-17-39l0 0z m17 267c0-31-26-57-57-57s-57 26-57 57v0 228c0 31 26 56 57 56s57-25 57-56v0z" />
<glyph glyph-name="modifier-x" unicode="&#xea03;" d="M512 960c-283 0-512-229-512-512s229-512 512-512c283 0 512 229 512 512v0c0 283-229 512-512 512v0z m239-671c11-10 18-25 18-41 0-32-25-57-57-57-16 0-31 7-41 18l0 0-159 159-159-159c-10-10-24-16-39-16-31 0-57 26-57 57 0 15 6 29 16 39l0 0 159 159-159 159c-11 10-18 25-18 41 0 31 26 57 57 57 16 0 31-7 41-18l0 0 159-159 159 159c10 11 25 18 41 18 31 0 57-26 57-57 0-16-7-31-18-41l0 0-159-159z" />
<glyph glyph-name="american-sign-language-interpreting" unicode="&#xf2a3;" d="M640 241l220 247c3 3 4 7 4 11 0 4-2 8-5 11l0 0c-22 22-53 35-87 35-35 0-66-13-89-36l0 0-11-11v334c0 35-29 64-64 64s-64-29-64-64v0-137c-10 6-21 9-33 9-27 0-51-18-60-43l0 0c-10 7-22 11-35 11-12 0-23-3-33-9l1 0v105c0 35-29 64-64 64s-64-29-64-64v0-432c0 0 0 0 0 0 0-41 17-79 46-105l0 0c10-9 17-22 18-37l0 0v-34h-48c-9 0-16-7-16-16v0-128c0-9 7-16 16-16s16 7 16 16v0 112h352v-112c0-9 7-16 16-16s16 7 16 16v0 128c0 9-8 16-16 16v0h-48v5c1 30 13 56 32 76l0 0z m-160 399c0 18 14 32 32 32s32-14 32-32v0-128c0-18-15-32-32-32s-32 14-32 32v0 128z m-64 0c17 0 32-14 32-32v0-128c0-18-15-32-32-32s-32 14-32 32v0 128c0 18 14 32 32 32v0z m-64-480v34c-1 24-12 46-29 61l0 0c-22 20-35 49-35 81 0 0 0 0 0 0v0 432c0 18 14 32 32 32s32-14 32-32v0-288c0 0 0 0 0 0 0-35 28-64 63-64 28 0 52 18 61 43l0 0c10-7 22-11 36-11 35 0 64 29 64 64v320c0 18 14 32 32 32s32-14 32-32v0-364l-55-52c-52-2-99-22-134-55l0 0c-3-3-5-7-5-12 0-8 7-15 16-15 4 0 8 1 11 4l0 0c31 28 72 46 118 46 0 0 1 0 1 0h0c0 0 0 0 0 0 4 0 8 2 11 4l0 0 103 98c17 17 40 27 66 27 20 0 38-6 53-16l0 0-209-235c-24-25-39-59-40-96l0 0v-6z" />
<glyph glyph-name="assistive-listening-systems" unicode="&#xf2a2;" d="M400 896c-150 0-272-122-272-272v0c0-9 7-16 16-16s16 7 16 16v0c0 133 107 240 240 240s240-107 240-240v0c0-107-45-159-92-214-49-57-100-116-100-234 0-80-65-144-144-144h0c-9 0-16-7-16-16s7-16 16-16v0c97 0 176 79 176 176v0c0 106 45 158 92 213 49 57 100 117 100 235 0 150-122 272-272 272h0z m-96-672c62 0 112 50 112 112s-50 112-112 112c-62 0-112-50-112-112v0c0-8 1-16 3-24l-1 1-84-84c-9-9-14-21-14-34s5-26 14-34l19-19c9-9 21-14 34-14s25 5 34 14l84 84c7-1 15-2 23-2h0z m0 192c44 0 80-36 80-80s-36-80-80-80c-44 0-80 36-80 80v0c0 44 36 80 80 80v0z m-130-251c-3-3-7-5-11-5s-9 2-12 5v0l-18 19c-3 2-5 6-5 11s2 8 5 11v0l74 75c10-18 24-32 41-41l1-1z m572 613c-5-2-9-8-9-14 0-3 0-5 1-7l0 0c19-44 30-95 30-149s-11-105-31-152l1 3c-1-2-1-4-1-7 0-6 4-12 9-14l0 0c2-1 4-2 7-2 6 0 12 4 14 10l0 0c21 48 33 104 33 162s-12 114-34 165l1-3c-2 6-8 10-14 10-3 0-5-1-7-2l0 0z m139 42c-2 6-8 10-14 10-9 0-16-8-16-16 0-3 0-5 1-7l0 0c25-59 40-127 40-199s-15-140-41-203l1 4c-1-2-1-4-1-6 0-7 4-13 9-15l0 0c2-1 4-2 7-2 0 0 0 0 0 0h0c0 0 0 0 0 0 6 0 12 4 14 10l0 0c27 63 43 135 43 212s-16 149-44 215l1-3z m-379-337c2-2 6-3 9-3 5 0 10 2 13 6l0 0c30 35 48 81 48 131 0 2 0 5 0 7l0 0c0 97-79 176-176 176h0l-16 0v-1l-3 0c-88-8-157-81-157-171 0-2 0-3 0-4l0 0c0-1 0-2 0-3 0-25 6-48 17-69l0 1c4-8 8-18 10-28l0-1c2-7 8-13 16-13 9 0 16 8 16 16 0 2 0 3-1 5l0 0c-3 13-7 24-13 35l1-1c-9 16-14 35-14 55 0 1 0 2 0 3l0 0c0 1 0 2 0 3 0 73 56 134 128 140l0 0c4 0 8 1 12 1 1 0 3 0 4 0l0 0h8c76-5 136-68 136-144v0c0-3 0-5 0-8 0-42-16-81-41-110l0 0c-2-3-3-6-3-10 0-5 2-10 6-13l0 0z" />
<glyph glyph-name="audio-description" unicode="&#xf29e;" d="M832 736h-640c-53 0-96-43-96-96v0-384c0-53 43-96 96-96v0h200l107-153c3-4 8-7 13-7s10 3 13 7l0 0 107 153h200c53 0 96 43 96 96v0 384c0 53-43 96-96 96v0z m64-480c0-35-29-64-64-64v0h-208c-5 0-10-3-13-7l0 0-99-141-99 141c-3 4-8 7-13 7 0 0 0 0 0 0h-208c-35 0-64 29-64 64v0 384c0 35 29 64 64 64v0h640c35 0 64-29 64-64v0z m-256 352h-80c-9 0-16-7-16-16v0-288c0-9 7-16 16-16v0h80c88 0 160 72 160 160s-72 160-160 160v0z m0-288h-64v256h64c71 0 128-57 128-128s-57-128-128-128v0z m-249 278c-3 6-8 10-15 10h-16c-7 0-12-4-15-10l0 0-120-288c0-1-1-3-1-5 0-9 8-16 16-16 7 0 12 3 15 9l0 0 36 86h154l36-86c3-6 8-10 15-10h0c0 0 0 0 0 0 2 0 4 0 6 1l0 0c6 3 10 8 10 15 0 2-1 4-1 6l0 0z m-87-182l64 154 64-154z" />
<glyph glyph-name="blind" unicode="&#xf296;" d="M448 704c53 0 96 43 96 96s-43 96-96 96c-53 0-96-43-96-96v0c0-53 43-96 96-96v0z m0 160c35 0 64-29 64-64s-29-64-64-64c-35 0-64 29-64 64v0c0 35 29 64 64 64v0z m479-810l-128 320c-3 6-8 10-15 10-9 0-16-7-16-16 0-2 0-4 1-6l0 0 128-320c3-6 8-10 15-10v0c0 0 0 0 0 0 2 0 4 0 6 1l0 0c6 3 10 8 10 15 0 2 0 4-1 6l0 0z m-342 390c18-17 42-28 68-28 0 0 0 0 0 0h85c0 0 1 0 2 0 29 0 54 20 62 47l0 0c2 5 3 11 3 17 0 18-8 34-19 45l0 0c-12 12-28 19-45 19 0 0 0 0-1 0h-74l-85 86c-26 26-62 42-102 42 0 0 0 0 0 0h-62c0 0 0 0 0 0-40 0-76-16-102-42l-166-166c-12-12-20-29-20-48 0-16 5-30 14-42l0 1c12-14 30-22 49-22 18 0 34 7 45 18l0 0 115 114v-84c0-22-3-42-8-62l0 2-27-106c-4-14-12-26-23-35l0 0-90-67c-17-13-27-32-27-54 0-10 2-20 6-28l0 0c11-21 32-35 57-35v0c0 0 0 0 0 0 15 0 28 5 39 13l-1 0 92 69c35 26 60 62 71 104l0 1 20 76 122-244c11-21 32-35 57-35 35 0 64 28 64 64 0 10-2 20-7 29l0-1-141 283c-8 15-12 32-12 51 0 0 0 0 0 0v0 59z m-58-83l142-283c2-4 3-9 3-14 0-12-7-23-17-29l-1 0c-4-2-9-3-14-3-12 0-23 7-29 17l0 1-141 282c-2 5-8 9-14 9v0c0 0-1 0-1 0s0 0-1 0l0 0c-6-1-12-6-13-12l0 0-31-117c-9-37-30-67-58-88l-1-1-92-69c-5-3-12-6-19-6-12 0-23 7-29 18l0 0c-2 4-3 9-3 14 0 11 6 21 14 27l1 0 90 68c17 13 29 31 35 52l0 0 27 106c6 20 9 44 9 68v123c0 9-7 16-16 16-4 0-8-2-11-5v0l-142-142c-6-5-14-9-23-9-10 0-18 5-24 11l-1 0c-4 6-6 13-6 21 0 10 4 19 11 25l0 0 166 166c20 20 48 33 79 33 0 0 0 0 0 0h62c0 0 0 0 0 0 31 0 59-12 79-33l90-90c3-3 7-5 12-5h80c0 0 0 0 1 0 17 0 32-14 32-32 0-3-1-6-2-9l0 0c-4-13-17-23-32-23 0 0-1 0-1 0l0 0h-85c0 0 0 0 0 0-18 0-33 7-45 19l-69 68c-3 3-7 5-11 5-9 0-16-7-16-16v0-98c0-24 6-46 16-66l-1 1z" />
<glyph glyph-name="braille" unicode="&#xf2a1;" d="M352 896c-71 0-128-57-128-128s57-128 128-128c71 0 128 57 128 128v0c0 71-57 128-128 128v0z m0-224c-53 0-96 43-96 96s43 96 96 96c53 0 96-43 96-96v0c0-53-43-96-96-96v0z m320-32c71 0 128 57 128 128s-57 128-128 128c-71 0-128-57-128-128v0c0-71 57-128 128-128v0z m0 224c53 0 96-43 96-96s-43-96-96-96c-53 0-96 43-96 96v0c0 53 43 96 96 96v0z m-320-288c-71 0-128-57-128-128s57-128 128-128c71 0 128 57 128 128v0c0 71-57 128-128 128v0z m0-224c-53 0-96 43-96 96s43 96 96 96c53 0 96-43 96-96v0c0-53-43-96-96-96v0z m320 224c-71 0-128-57-128-128s57-128 128-128c71 0 128 57 128 128v0c0 71-57 128-128 128v0z m0-224c-53 0-96 43-96 96s43 96 96 96c53 0 96-43 96-96v0c0-53-43-96-96-96v0z m-320-96c-71 0-128-57-128-128s57-128 128-128c71 0 128 57 128 128v0c0 71-57 128-128 128v0z m0-224c-53 0-96 43-96 96s43 96 96 96c53 0 96-43 96-96v0c0-53-43-96-96-96v0z m320 224c-71 0-128-57-128-128s57-128 128-128c71 0 128 57 128 128v0c0 71-57 128-128 128v0z m0-224c-53 0-96 43-96 96s43 96 96 96c53 0 96-43 96-96v0c0-53-43-96-96-96v0z" />
<glyph glyph-name="deaf" unicode="&#xf2a4;" d="M240 608c9 0 16 7 16 16v0c0 132 108 240 240 240 90 0 169-50 210-124l0-1c3-5 8-8 14-8 9 0 17 7 17 16 0 3-1 5-2 8l0 0c-48 84-137 141-239 141-150 0-272-122-272-272v0c0-9 7-16 16-16v0z m512 4c-1 0-1 0-2 0-8 0-15-7-15-15l0 0c-7-88-48-136-91-187-49-57-100-116-100-234 0-79-64-144-144-144h0c-9 0-16-7-16-16s7-16 16-16v0c97 0 176 79 176 176v0c0 106 45 158 92 213 45 53 91 107 99 206 0 0 0 1 0 1 0 8-7 15-15 16l0 0z m139 215c-3 3-7 5-11 5s-8-2-11-5v0l-736-736c-3-3-5-7-5-11 0-9 7-16 16-16 4 0 8 2 11 5l736 736c3 3 5 7 5 11s-2 8-5 11v0z m-395-59c21 0 41-5 58-13l0 1c2-1 4-2 6-2 9 0 16 7 16 16 0 7-4 12-9 15l0 0c-21 9-45 15-71 15h0c-97 0-176-79-176-176v0c0-1 0-2 0-3 0-25 7-49 18-69l0 1c9-16 14-34 14-54 0-1 0-2 0-3l0 0c0 0 0-1 0-1 0-12-3-23-9-32l0 0c-1-2-2-5-2-8 0-9 7-16 16-16 6 0 11 3 14 8l0 0c8 14 13 30 13 48 0 0 0 1 0 1l0 0c0 1 0 2 0 3 0 25-7 48-18 69l0-1c-9 15-14 34-14 54 0 1 0 2 0 3l0 0c0 80 65 144 144 144h0z" />
<glyph glyph-name="low-vision" unicode="&#xf2a8;" d="M956 459c-62 69-230 229-444 229-43 0-85-7-125-18l4 1-137 217c-3 5-8 8-14 8-9 0-16-7-16-16 0-3 1-6 3-9l0 0 132-210c-115-46-213-114-290-202l-1 0c-2-3-4-7-4-11s2-8 4-11l0 0c62-69 230-229 444-229 43 0 85 7 125 18l-4-1 137-218c3-4 8-7 14-7 9 0 16 7 16 16 0 3-1 6-3 9l0 0-132 210c115 45 213 114 290 202l1 0c2 3 4 7 4 11s-2 8-4 11l0 0z m-690 122l213-339c-46 4-89 15-128 31l3-1-162 258c21 17 45 33 70 49l4 2z m-164-133c20 21 41 41 63 60l2 1 134-213c-77 41-142 92-199 152l0 0z m416-208l-225 356c24 13 51 26 80 36l4 1 238-379c-29-8-62-13-97-14l0 0z m129 23l-61 97c25 22 41 53 41 88v0c0 64-51 115-115 115v0c-17 0-33-4-48-11l1 1-56 89c31 9 66 14 103 14h0c194 0 353-147 410-208-74-80-166-143-270-183l-5-2z" />
<glyph glyph-name="sign-language" unicode="&#xf2a7;" d="M941 308c-8 8-17 14-28 17l-1 0 6 6h1l1 1c0 1 1 1 1 2l0 0c10 11 16 26 16 42 0 31-22 57-51 63l0 0c4 8 6 17 6 28 0 17-7 33-19 45l0 0c-11 11-27 18-45 18-10 0-20-2-28-6l0 0c-2 13-8 25-17 33l0 0c-12 11-28 18-45 18s-34-7-46-18l0 0-185-185c-3-3-7-4-11-4-9 0-16 7-16 15v0 93c0 35-29 64-64 64v0 0c-35 0-64-29-64-64v0-270c0 0 0 0 0-1 0-39 16-75 42-101l99-99c3-3 7-5 12-5 9 0 16 7 16 16 0 4-2 8-5 11v0l-99 100c-21 20-33 48-33 79 0 0 0 0 0 0v0 270c0 18 14 32 32 32v0 0c18 0 32-14 32-32v0-93c0-26 22-48 48-48 13 0 25 6 34 15l185 185c6 5 14 9 23 9s16-4 22-9l0 0c6-6 10-14 10-23s-4-17-10-23l-147-147c-3-3-5-7-5-11 0-9 8-16 16-16 0 0 0 0 0 0h0c5 0 9 2 12 4v0l169 170c6 6 14 9 23 9s17-3 23-9l0 0c5-6 9-14 9-23s-4-16-9-22v0l-170-170c-3-3-5-7-5-11 0-9 8-16 16-16 5 0 9 2 12 5l147 147c5 5 13 8 21 8 18 0 32-15 32-32 0-8-3-16-8-21l0 0-147-147c-3-3-5-7-5-12 0-9 7-16 16-16v0c0 0 0 0 0 0 5 0 9 2 11 5l102 102c6 6 14 9 23 9 18 0 32-14 32-32 0-9-4-17-10-23l-213-213c-3-3-4-7-4-11 0-9 7-16 16-16 4 0 8 2 11 5v0l213 213c12 11 19 27 19 45 0 18-7 34-19 45l0 0z m-790 227l55-56c9-8 21-14 34-14 27 0 48 22 48 48 0 0 0 0 0 0v0 287c0 18 14 32 32 32s32-14 32-32v0-208c0-9 7-16 16-16s16 7 16 16v0 240c0 18 14 32 32 32s32-14 32-32v0-240c0-9 7-16 16-16s16 7 16 16v0 208c0 18 14 32 32 32s32-14 32-32v0-208c0-9 7-16 16-16s16 7 16 16v0 144c0 18 14 32 32 32s32-14 32-32v0-144c0-9 7-16 16-16s16 7 16 16v0 144c0 35-29 64-64 64-12 0-23-3-32-9l0 0v11c0 0 0 1 0 1-2 34-30 61-64 61-13 0-25-4-36-11l0 0c-8 25-32 43-60 43s-51-18-60-42l0-1c-10 7-23 11-36 11-35 0-64-29-64-64 0 0 0 0 0 0v0-287c0 0 0 0 0 0 0-9-7-16-16-16-4 0-8 2-11 5v0l-56 55c-12 12-27 18-45 18s-33-6-45-18l0 0c-12-11-19-27-19-45s7-34 19-45l168-169c13-13 29-23 46-31l1 0c2-1 4-1 6-1 0 0 0 0 0 0h0c0 0 0 0 0 0 9 0 16 7 16 16 0 6-4 12-10 15l0 0c-14 5-26 14-36 24l-169 168c-5 6-9 14-9 23s4 17 9 23v0c6 5 14 9 23 9s17-4 23-9l0 0z" />
<glyph glyph-name="universal-access" unicode="&#xf29a;" d="M560 640c0-27-21-48-48-48s-48 21-48 48c0 27 21 48 48 48s48-21 48-48z m-48 256c-246 0-448-202-448-448s202-448 448-448c246 0 448 202 448 448s-202 448-448 448z m0-864c-230 0-416 186-416 416s186 416 416 416c230 0 416-186 416-416s-186-416-416-416z m189 534l-61-9c-83-16-170-16-253 0l-61 13c-12 3-25-7-28-20s6-25 19-28l61-13c25-7 54-10 80-13v-61c0-9-4-22-7-32l-57-173c0 0 0 0 0 0-4-12 3-25 16-28 3 0 6 0 6 0 10 0 19 6 22 16l55 160c0 0 0 0 0 0 3 3 6 9 9 9 10 3 23 0 29-9 0 0 0 0 0 0l55-160c3-10 12-16 22-16 3 0 6 0 6 0s0 0 0 0c13 3 20 19 16 28l-57 173c-3 10-7 23-7 32v61c26 3 55 6 80 13l61 13c13 3 19 16 19 28-3 10-12 20-25 16z" />
<glyph glyph-name="volume-control-phone" unicode="&#xf2a0;" d="M765 765c-3 3-7 5-12 5-9 0-16-7-16-16 0-5 2-9 5-12l0 0c75-75 122-179 122-294s-47-219-122-294v0c-3-3-5-7-5-11 0-9 8-16 16-16 0 0 0 0 0 0h0c0 0 0 0 0 0 5 0 9 1 12 4l0 0c81 81 131 193 131 317s-50 236-131 317v0z m-91-91c-3 3-7 5-11 5-9 0-16-7-16-16 0-4 2-8 5-11l0 0c52-53 84-124 84-204s-32-151-84-204l0 0c-3-3-5-7-5-11 0-9 7-16 16-16 0 0 0 0 0 0h0c4 0 8 2 11 5v0c58 58 94 138 94 226s-36 168-94 226l0 0z m-113-90c-3-3-5-7-5-12s2-8 5-11v0c29-29 47-69 47-113s-18-84-47-113v0c-3-3-4-7-4-11 0-9 7-16 16-16 4 0 8 1 11 4l0 0c34 35 56 83 56 136s-22 101-56 136v0c-3 3-7 4-12 4s-8-1-11-4v0z m-174-9c7 0 14 6 15 13l0 0c17 69 43 131 77 186l-1-2c1 2 2 5 2 8 0 6-3 10-7 13l0 0-151 100c-2 2-5 3-8 3-5 0-9-2-12-5l0 0c-108-116-174-272-174-443s66-327 174-443l0 0c3-3 7-5 12-5 3 0 6 1 8 3l0 0 151 100c4 3 7 7 7 13 0 3-1 6-3 9l1-1c-33 53-59 115-75 180l-1 4c-2 7-8 13-15 13h-112c-12 38-19 82-19 127s7 89 19 130l0-3z m-139 21c-15-44-24-95-24-148s9-104 25-152l-1 4c2-7 8-11 15-11h111c16-64 40-120 70-171l-2 3-126-84c-97 109-156 253-156 411s59 302 157 412l-1-1 126-84c-28-48-52-104-67-163l-1-5h-111c-7 0-13-4-15-11l0 0z" />
<glyph glyph-name="wheelchair-alt" unicode="&#xf29b;" d="M672 672c53 0 96 43 96 96s-43 96-96 96c-53 0-96-43-96-96v0c0-53 43-96 96-96v0z m0 160c35 0 64-29 64-64s-29-64-64-64c-35 0-64 29-64 64v0c0 35 29 64 64 64v0z m-304-512c-26 0-48-22-48-48s22-48 48-48c27 0 48 21 48 48v0c0 26-21 48-48 48v0z m0-64c-9 0-16 7-16 16s7 16 16 16c9 0 16-7 16-16v0c0-9-7-16-16-16v0z m516-27l-130 185c-15 21-39 34-66 34 0 0 0 0 0 0h-157c-7 7-15 13-23 19l-1 0 89 80c16 14 26 35 26 58 0 23-9 43-24 57l0 0-96 96c-26 25-62 41-102 41-39 0-75-16-101-42l0 0-86-85c-12-12-20-29-20-48 0-16 5-30 14-41l0 0c12-14 30-22 49-22 18 0 33 7 45 18l0 0 89 88c2 3 6 5 11 5 4 0 8-2 11-5l0 0 37-36-124-123c-113-21-198-119-198-236 0-133 108-240 240-240 97 0 180 57 218 138l1 2 128-108h134c9 0 16 7 16 16s-7 16-16 16v0h-122l-128 107c6 21 10 45 10 69 0 17-2 34-5 50l0-2h60l117-165c11-16 30-27 52-27 35 0 64 29 64 64 0 14-4 27-12 37l0 0z m-401 414l-49 47c-8 8-20 14-33 14-13 0-25-6-34-14l0 0-88-89c-6-5-14-9-23-9-10 0-18 5-24 11l0 0c-5 6-7 13-7 21 0 10 4 19 11 25l0 0 85 86c21 20 49 32 80 32 30 0 58-12 79-32l0 0 96-96c8-8 14-20 14-34 0-14-6-26-15-35l0 0-96-85c-30 16-66 26-104 27l-1 0 109 108c3 3 5 7 5 12s-2 8-5 11l0 0z m-115-579c-115 0-208 93-208 208s93 208 208 208c115 0 208-93 208-208v0c0-115-93-208-208-208h0z m482 102c-5-4-11-6-18-6-11 0-20 5-26 13l0 1-121 171c-3 4-8 7-13 7 0 0 0 0 0 0h-78c-9 24-20 46-35 65l1-1h128c16 0 31-8 39-20l0 0 131-186c4-5 6-11 6-18 0-11-5-20-13-26l-1 0z" />
<glyph glyph-name="calendar-alarm" unicode="&#xe9aa;" d="M901 141c-3 15-5 32-5 49l0 1v49c0 74-56 134-127 142l-1 0v18c0 9-7 16-16 16s-16-7-16-16v0-18c-72-8-128-68-128-142v-49c0-18-2-35-5-51l0 2-54-50c-3-3-5-7-5-12 0-9 7-16 16-16 0 0 0 0 0 0h144v-16c0-26 22-48 48-48s48 22 48 48v0 16h144c0 0 0 0 0 0 9 0 16 7 16 16 0 5-2 9-5 12l0 0z m-133-93c0-9-7-16-16-16s-16 7-16 16v0 16h32z m-167 48l26 24c1 1 2 2 2 3l0 0c7 20 11 42 11 66 0 1 0 1 0 2v0 49c0 62 50 112 112 112s112-50 112-112v0-49c0-1 0-1 0-2 0-24 4-46 11-67l0 1c0-1 1-2 2-3l0 0 26-24z m263 672h-64v16c0 9-7 16-16 16s-16-7-16-16v0-16h-512v16c0 9-7 16-16 16s-16-7-16-16v0-16h-64c-53 0-96-43-96-96v0-448c0-53 43-96 96-96v0h304c9 0 16 7 16 16s-7 16-16 16v0h-304c-35 0-64 29-64 64v0 384h832v-112c0-9 7-16 16-16s16 7 16 16v0 176c0 53-43 96-96 96v0z m-768-128v32c0 35 29 64 64 64v0h64v-16c0-9 7-16 16-16s16 7 16 16v0 16h512v-16c0-9 7-16 16-16s16 7 16 16v0 16h64c35 0 64-29 64-64v0-32z" />
<glyph glyph-name="calendar-arrow-down" unicode="&#xe9ab;" d="M864 768h-64v16c0 9-7 16-16 16s-16-7-16-16v0-16h-512v16c0 9-7 16-16 16s-16-7-16-16v0-16h-64c-53 0-96-43-96-96v0-448c0-53 43-96 96-96v0h304c9 0 16 7 16 16s-7 16-16 16v0h-304c-35 0-64 29-64 64v0 384h832v-112c0-9 7-16 16-16s16 7 16 16v0 176c0 53-43 96-96 96v0z m-768-128v32c0 35 29 64 64 64v0h64v-16c0-9 7-16 16-16s16 7 16 16v0 16h512v-16c0-9 7-16 16-16s16 7 16 16v0 16h64c35 0 64-29 64-64v0-32z m773-453l-101-100v281c0 9-7 16-16 16s-16-7-16-16v0-281l-101 100c-3 3-7 5-11 5-9 0-16-7-16-16 0-4 2-8 5-11l128-128c3-3 7-5 11-5s8 2 11 5v0l128 128c3 3 5 7 5 11 0 9-7 16-16 16-4 0-8-2-11-5v0z" />
<glyph glyph-name="calendar-arrow-up" unicode="&#xe9ac;" d="M864 768h-64v16c0 9-7 16-16 16s-16-7-16-16v0-16h-512v16c0 9-7 16-16 16s-16-7-16-16v0-16h-64c-53 0-96-43-96-96v0-448c0-53 43-96 96-96v0h304c9 0 16 7 16 16s-7 16-16 16v0h-304c-35 0-64 29-64 64v0 384h832v-112c0-9 7-16 16-16s16 7 16 16v0 176c0 53-43 96-96 96v0z m-768-128v32c0 35 29 64 64 64v0h64v-16c0-9 7-16 16-16s16 7 16 16v0 16h512v-16c0-9 7-16 16-16s16 7 16 16v0 16h64c35 0 64-29 64-64v0-32z m667-261c-3 3-7 5-11 5s-8-2-11-5v0l-128-128c-3-3-5-7-5-11 0-9 7-16 16-16 4 0 8 2 11 5l101 100v-281c0-9 7-16 16-16s16 7 16 16v0 281l101-100c3-3 7-5 11-5 9 0 16 7 16 16 0 4-2 8-5 11v0z" />
<glyph glyph-name="calendar-ban" unicode="&#xe9ad;" d="M864 768h-64v16c0 9-7 16-16 16s-16-7-16-16v0-16h-512v16c0 9-7 16-16 16s-16-7-16-16v0-16h-64c-53 0-96-43-96-96v-448c0-53 43-96 96-96h304c9 0 16 7 16 16s-7 16-16 16v0h-304c-35 0-64 29-64 64v384h832v-112c0-9 7-16 16-16s16 7 16 16v0 176c0 53-43 96-96 96h0z m-768-128v32c0 35 29 64 64 64h64v-16c0-9 7-16 16-16s16 7 16 16v0 16h512v-16c0-9 7-16 16-16s16 7 16 16v0 16h64c35 0 64-29 64-64v-32z m780-308l0 1c-32 31-76 51-124 51-97 0-176-79-176-176 0-48 20-92 51-124l0 0 1 0 0-1c32-31 76-51 124-51 97 0 176 79 176 176 0 48-20 92-51 124l0 0z m-268-124c0 79 65 144 144 144h0c34 0 65-12 90-32l-1 0-201-201c-20 24-32 55-32 89v0z m144-144c-34 0-65 12-90 32l1 0 201 201c20-24 32-55 32-89v0c0-79-65-144-144-144h0z" />
<glyph glyph-name="calendar-chart" unicode="&#xe9ae;" d="M864 768h-64v16c0 9-7 16-16 16s-16-7-16-16v0-16h-512v16c0 9-7 16-16 16s-16-7-16-16v0-16h-64c-53 0-96-43-96-96v0-448c0-53 43-96 96-96v0h304c9 0 16 7 16 16s-7 16-16 16v0h-304c-35 0-64 29-64 64v0 384h832v-112c0-9 7-16 16-16s16 7 16 16v0 176c0 53-43 96-96 96v0z m-768-128v32c0 35 29 64 64 64v0h64v-16c0-9 7-16 16-16s16 7 16 16v0 16h512v-16c0-9 7-16 16-16s16 7 16 16v0 16h64c35 0 64-29 64-64v0-32z m784-352h-80v80c0 9-7 16-16 16v0h-96c-9 0-16-7-16-16v0-144h-80c-9 0-16-7-16-16v0-160c0-9 7-16 16-16v0h288c9 0 16 7 16 16v0 224c0 9-7 16-16 16v0z m-208-224h-64v128h64z m96 0h-64v288h64z m96 0h-64v192h64z" />
<glyph glyph-name="calendar-clock" unicode="&#xe9af;" d="M864 768h-64v16c0 9-7 16-16 16s-16-7-16-16v0-16h-512v16c0 9-7 16-16 16s-16-7-16-16v0-16h-64c-53 0-96-43-96-96v0-448c0-53 43-96 96-96v0h304c9 0 16 7 16 16s-7 16-16 16v0h-304c-35 0-64 29-64 64v0 384h832v-112c0-9 7-16 16-16s16 7 16 16v0 176c0 53-43 96-96 96v0z m-768-128v32c0 35 29 64 64 64v0h64v-16c0-9 7-16 16-16s16 7 16 16v0 16h512v-16c0-9 7-16 16-16s16 7 16 16v0 16h64c35 0 64-29 64-64v0-32z m656-256c-97 0-176-79-176-176s79-176 176-176c97 0 176 79 176 176v0c0 97-79 176-176 176h0z m0-320c-80 0-144 65-144 144s64 144 144 144c79 0 144-64 144-144v0c0-79-65-144-144-144h0z m16 151v89c0 9-7 16-16 16s-16-7-16-16v0-96c0 0 0 0 0 0 0-4 2-8 5-11v0l64-64c3-3 7-5 11-5 9 0 16 7 16 16 0 4-2 8-5 11v0z" />
<glyph glyph-name="calendar-edit" unicode="&#xe9b1;" d="M864 768h-64v16c0 9-7 16-16 16s-16-7-16-16v0-16h-512v16c0 9-7 16-16 16s-16-7-16-16v0-16h-64c-53 0-96-43-96-96v0-448c0-53 43-96 96-96v0h304c9 0 16 7 16 16s-7 16-16 16v0h-304c-35 0-64 29-64 64v0 384h832v-112c0-9 7-16 16-16s16 7 16 16v0 176c0 53-43 96-96 96v0z m64-128h-832v32c0 35 29 64 64 64v0h64v-16c0-9 7-16 16-16s16 7 16 16v0 16h512v-16c0-9 7-16 16-16s16 7 16 16v0 16h64c35 0 64-29 64-64v0z m-61-256c0 0 0 0 0 0-17 0-33-7-43-18l0 0-209-208c-3-3-6-8-7-12l0 0-31-93c-1-1-1-3-1-5 0-9 7-16 16-16h0c0 0 0 0 0 0 2 0 4 0 5 1l0 0 92 31c5 1 9 4 13 7l208 208c11 11 18 27 18 44 0 0 0 0 0 0v0 0c0 34-27 61-61 61 0 0 0 0 0 0h0z m29-61c0 0 0 0 0 0 0-8-3-16-8-21l-209-208-62-21 21 62 208 208c5 6 13 9 21 9 16 0 29-13 29-29v0z" />
<glyph glyph-name="calendar-heart" unicode="&#xe9b2;" d="M864 768h-64v16c0 9-7 16-16 16s-16-7-16-16v0-16h-512v16c0 9-7 16-16 16s-16-7-16-16v0-16h-64c-53 0-96-43-96-96v0-448c0-53 43-96 96-96v0h304c9 0 16 7 16 16s-7 16-16 16v0h-304c-35 0-64 29-64 64v0 384h832v-112c0-9 7-16 16-16s16 7 16 16v0 176c0 53-43 96-96 96v0z m-768-128v32c0 35 29 64 64 64v0h64v-16c0-9 7-16 16-16s16 7 16 16v0 16h512v-16c0-9 7-16 16-16s16 7 16 16v0 16h64c35 0 64-29 64-64v0-32z m673-289l-17-17-17 17c-20 20-48 32-79 32s-59-12-79-32l0 0c-20-20-33-48-33-79s13-59 33-79l164-164c3-3 7-5 11-5s8 2 11 5v0l164 164c21 20 33 48 33 79s-12 59-33 79v0c-20 20-48 32-79 32-31 0-59-12-79-32l0 0z m136-136l-153-152-153 152c-14 15-23 35-23 57 0 44 36 80 80 80 22 0 42-9 57-23v0l28-29c3-2 7-4 11-4s8 2 11 4v0l28 29c15 14 35 22 57 22s42-8 57-23l0 1c14-15 23-35 23-57s-9-42-23-57v0z" />
<glyph glyph-name="calendar-lock" unicode="&#xe9b3;" d="M864 768h-64v16c0 9-7 16-16 16s-16-7-16-16v0-16h-512v16c0 9-7 16-16 16s-16-7-16-16v0-16h-64c-53 0-96-43-96-96v0-448c0-53 43-96 96-96v0h304c9 0 16 7 16 16s-7 16-16 16v0h-304c-35 0-64 29-64 64v0 384h832v-112c0-9 7-16 16-16s16 7 16 16v0 176c0 53-43 96-96 96v0z m-768-128v32c0 35 29 64 64 64v0h64v-16c0-9 7-16 16-16s16 7 16 16v0 16h512v-16c0-9 7-16 16-16s16 7 16 16v0 16h64c35 0 64-29 64-64v0-32z m800-416h-32v64c0 53-43 96-96 96s-96-43-96-96v0-64h-32c-18 0-32-14-32-32v0-160c0-18 14-32 32-32v0h256c18 0 32 14 32 32v0 160c0 18-14 32-32 32v0z m-192 64c0 35 29 64 64 64s64-29 64-64v0-64h-128z m192-96v-160h-256v160z" />
<glyph glyph-name="calendar-pointer" unicode="&#xe9b5;" d="M864 768h-64v16c0 9-7 16-16 16s-16-7-16-16v0-16h-512v16c0 9-7 16-16 16s-16-7-16-16v0-16h-64c-53 0-96-43-96-96v0-448c0-53 43-96 96-96v0h304c9 0 16 7 16 16s-7 16-16 16v0h-304c-35 0-64 29-64 64v0 384h832v-112c0-9 7-16 16-16s16 7 16 16v0 176c0 53-43 96-96 96v0z m-768-128v32c0 35 29 64 64 64v0h64v-16c0-9 7-16 16-16s16 7 16 16v0 16h512v-16c0-9 7-16 16-16s16 7 16 16v0 16h64c35 0 64-29 64-64v0-32z m570-260c-2 3-6 4-10 4-9 0-16-7-16-16 0 0 0 0 0 0v0-240c0-9 7-16 16-16 4 0 8 2 11 5v0l61 61 70-139c3-7 10-11 18-11v0c0 0 0 0 0 0 3 0 6 1 9 2l0 0c6 3 11 10 11 18 0 3-1 6-2 9l0 0-68 135h82c9 0 16 7 16 16 0 5-2 9-6 12l0 0z" />
<glyph glyph-name="calendar-search" unicode="&#xe9b6;" d="M864 768h-64v16c0 9-7 16-16 16s-16-7-16-16v0-16h-512v16c0 9-7 16-16 16s-16-7-16-16v0-16h-64c-53 0-96-43-96-96v-448c0-53 43-96 96-96h304c9 0 16 7 16 16s-7 16-16 16v0h-304c-35 0-64 29-64 64v384h832v-112c0-9 7-16 16-16s16 7 16 16v0 176c0 53-43 96-96 96h0z m-768-128v32c0 35 29 64 64 64h64v-16c0-9 7-16 16-16s16 7 16 16v0 16h512v-16c0-9 7-16 16-16s16 7 16 16v0 16h64c35 0 64-29 64-64v-32z m709-462c17 21 27 48 27 78v0c0 71-57 128-128 128s-128-57-128-128c0-71 57-128 128-128v0c30 0 57 10 78 27l0 0 119-118c3-3 6-5 11-5 9 0 16 7 16 16 0 5-2 8-5 11l0 0z m-101-18c-53 0-96 43-96 96s43 96 96 96c53 0 96-43 96-96v0c0-53-43-96-96-96h0z" />
<glyph glyph-name="calendar-user" unicode="&#xe9b7;" d="M464 128h-304c-53 0-96 43-96 96v0 448c0 53 43 96 96 96v0h704c53 0 96-43 96-96v0-176c0-9-7-16-16-16s-16 7-16 16v0 176c0 35-29 64-64 64v0h-704c-35 0-64-29-64-64v0-448c0-35 29-64 64-64v0h304c9 0 16-7 16-16s-7-16-16-16v0z m-384 512h864v-32h-864v32z m160 64c-9 0-16 7-16 16v0 64c0 9 7 16 16 16s16-7 16-16v0-64c0-9-7-16-16-16v0z m544 0c-9 0-16 7-16 16v0 64c0 9 7 16 16 16s16-7 16-16v0-64c0-9-7-16-16-16v0z m116-532l-56 37c13 18 20 40 20 63 0 62-50 112-112 112s-112-50-112-112c0-23 7-45 20-64l0 1-56-37c-17-12-28-32-28-54 0 0 0 0 0 0v0-70c0-9 7-16 16-16s16 7 16 16v0 70c0 0 0 0 0 0 0 11 6 21 14 27l0 0 60 40c19-16 43-25 70-25s51 9 70 25l0 0 60-40c8-6 14-16 14-27 0 0 0 0 0 0v0-70c0-9 7-16 16-16s16 7 16 16v0 70c0 0 0 0 0 0 0 22-11 42-28 53l0 1z m-228 100c0 44 36 80 80 80s80-36 80-80v0 0c0-44-36-80-80-80s-80 36-80 80v0z" />
<glyph glyph-name="calendar-wrench" unicode="&#xe9b8;" d="M864 768h-64v16c0 9-7 16-16 16s-16-7-16-16v0-16h-512v16c0 9-7 16-16 16s-16-7-16-16v0-16h-64c-53 0-96-43-96-96v0-448c0-53 43-96 96-96v0h304c9 0 16 7 16 16s-7 16-16 16v0h-304c-35 0-64 29-64 64v0 384h832v-112c0-9 7-16 16-16s16 7 16 16v0 176c0 53-43 96-96 96v0z m64-128h-832v32c0 35 29 64 64 64v0h64v-16c0-9 7-16 16-16s16 7 16 16v0 16h512v-16c0-9 7-16 16-16s16 7 16 16v0 16h64c35 0 64-29 64-64v0z m15-307c-3 1-7 2-11 2-8 0-15-3-20-8v0l-51-51-41 41 51 51c5 5 8 12 8 20 0 15-12 28-28 28 0 0 0 0 0 0h-35c-62 0-112-50-112-112v0-37c0 0 0 0 0 0 0-14-5-26-14-34l0 0-128-128c-10-11-16-26-16-42 0-34 28-61 61-61 16 0 31 6 42 16l0 0 128 128c9 9 20 14 34 14h37c62 0 112 50 112 112 0 0 0 0 0 0v0 35c0 0 0 0 0 0 0 12-7 22-17 26l0 0z m-15-61c0-44-36-80-80-80v0h-37c-23 0-42-9-57-23l-128-128c-5-5-12-9-20-9-16 0-30 13-30 30 0 8 3 15 8 20l0 0 128 128c15 14 24 34 24 57 0 0 0 0 0 0v0 37c0 44 36 80 80 80v0h26l-45-44c-5-6-9-14-9-23s4-16 9-22v0l42-42c6-6 14-9 22-9 0 0 0 0 0 0h0c0 0 0 0 0 0 9 0 17 3 23 9l44 45z" />
<glyph glyph-name="area-chart" unicode="&#xf1fe;" d="M950 735c-2 1-4 1-6 1-4 0-8-2-11-5v0l-341-340-245 244c-3 3-7 5-11 5s-8-2-11-5v0l-229-228v409c0 9-7 16-16 16s-16-7-16-16v0-672c0-9 7-16 16-16v0h864c9 0 16 7 16 16v0 576c0 7-4 12-10 15l0 0z m-22-575h-832v201l240 240 245-244c3-3 7-5 11-5s8 2 11 5v0l325 324z" />
<glyph glyph-name="bar-chart" unicode="&#xf080;" d="M944 160h-80v208c0 9-7 16-16 16v0h-160c-9 0-16-7-16-16v0-208h-64v592c0 9-7 16-16 16v0h-160c-9 0-16-7-16-16v0-592h-64v400c0 9-7 16-16 16v0h-160c-9 0-16-7-16-16v0-400h-80c-9 0-16-7-16-16s7-16 16-16v0h864c9 0 16 7 16 16s-7 16-16 16v0z m-624 0h-128v384h128z m256 0h-128v576h128z m256 0h-128v192h128z" />
<glyph glyph-name="bar-chart-horizontal" unicode="&#xe905;" d="M944 160h-848v96h464c9 0 16 7 16 16v0 192c0 9-7 16-16 16v0h-464v64h784c9 0 16 7 16 16v0 192c0 9-7 16-16 16v0h-784v48c0 9-7 16-16 16s-16-7-16-16v0-672c0-9 7-16 16-16v0h864c9 0 16 7 16 16s-7 16-16 16v0z m-848 576h768v-160h-768z m0-288h448v-160h-448z" />
<glyph glyph-name="box-plot-chart" unicode="&#xeaf5;" d="M944 160h-848v656c0 9-7 16-16 16s-16-7-16-16v0-672c0-9 7-16 16-16v0h864c9 0 16 7 16 16s-7 16-16 16v0z m-736 224h112v-128h-48c-9 0-16-7-16-16s7-16 16-16v0h128c9 0 16 7 16 16s-7 16-16 16v0h-48v128h112c9 0 16 7 16 16v0 256c0 9-7 16-16 16v0h-112v128h48c9 0 16 7 16 16s-7 16-16 16v0h-128c-9 0-16-7-16-16s7-16 16-16v0h48v-128h-112c-9 0-16-7-16-16v0-256c0-9 7-16 16-16v0z m16 32v96h224v-96z m224 224v-96h-224v96z m144-256h112v-128h-48c-9 0-16-7-16-16s7-16 16-16v0h128c9 0 16 7 16 16s-7 16-16 16v0h-48v128h112c9 0 16 7 16 16v0 256c0 9-7 16-16 16v0h-112v128h48c9 0 16 7 16 16s-7 16-16 16v0h-128c-9 0-16-7-16-16s7-16 16-16v0h48v-128h-112c-9 0-16-7-16-16v0-256c0-9 7-16 16-16v0z m16 32v96h224v-96z m224 224v-96h-224v96z" />
<glyph glyph-name="bubble-chart" unicode="&#xe906;" d="M944 160h-848v656c0 9-7 16-16 16s-16-7-16-16v0-672c0-9 7-16 16-16v0h864c9 0 16 7 16 16s-7 16-16 16v0z m-448 64c62 0 112 50 112 112s-50 112-112 112c-62 0-112-50-112-112v0c0-62 50-112 112-112v0z m0 192c44 0 80-36 80-80s-36-80-80-80c-44 0-80 36-80 80v0c0 44 36 80 80 80v0z m-240-32c53 0 96 43 96 96s-43 96-96 96c-53 0-96-43-96-96v0c0-53 43-96 96-96v0z m0 160c35 0 64-29 64-64s-29-64-64-64c-35 0-64 29-64 64v0c0 35 29 64 64 64v0z m544-192c53 0 96 43 96 96s-43 96-96 96c-53 0-96-43-96-96v0c0-53 43-96 96-96v0z m0 160c35 0 64-29 64-64s-29-64-64-64c-35 0-64 29-64 64v0c0 35 29 64 64 64v0z m-256 0c71 0 128 57 128 128s-57 128-128 128c-71 0-128-57-128-128v0c0-71 57-128 128-128v0z m0 224c53 0 96-43 96-96s-43-96-96-96c-53 0-96 43-96 96v0c0 53 43 96 96 96v0z" />
<glyph glyph-name="combo-chart" unicode="&#xe907;" d="M944 160h-48v464c0 9-7 16-16 16v0h-192c-9 0-16-7-16-16v0-464h-32v336c0 9-7 16-16 16v0h-192c-9 0-16-7-16-16v0-336h-32v208c0 9-7 16-16 16v0h-192c-9 0-16-7-16-16v0-208h-64v650c0 9-7 17-16 17s-16-8-16-17v0-666c0-9 7-16 16-16v0h864c9 0 16 7 16 16s-7 16-16 16v0z m-592 0h-160v192h160z m256 0h-160v320h160z m256 0h-160v448h160z m-688 352c0 0 0 0 0 0 2 0 4 0 6 1l0 0 704 288c6 3 10 8 10 15 0 9-7 16-16 16-2 0-4 0-6-1l0 0-704-288c-6-3-10-8-10-15 0-9 7-16 16-16 0 0 0 0 0 0v0z" />
<glyph glyph-name="dial-gauge-chart" unicode="&#xe908;" d="M496 768h32c9 0 16 7 16 16s-7 16-16 16v0h-32c-9 0-16-7-16-16s7-16 16-16v0z m-320-288c-9 0-16-7-16-16v0-32c0-9 7-16 16-16s16 7 16 16v0 32c0 9-7 16-16 16v0z m672 0c-9 0-16-7-16-16v0-32c0-9 7-16 16-16s16 7 16 16v0 32c0 9-7 16-16 16v0z m-574 228l-22-22c-3-3-5-7-5-12 0-9 7-16 16-16 0 0 0 0 0 0h0c5 0 9 2 11 5v0l23 23c3 3 5 7 5 11 0 9-7 16-16 16-5 0-9-2-12-5l0 0z m476-475l-23-23c-3-2-4-6-4-11 0-9 7-16 16-16 4 0 8 2 11 5l22 22c3 3 5 7 5 11 0 9-7 16-16 16-5 0-9-1-11-4l0 0z m-476 0c-3 3-7 5-11 5-9 0-16-7-16-16 0-5 2-9 5-12l22-22c3-3 7-5 11-5 9 0 16 7 16 16 0 5-1 9-4 11l0 0z m238 663c-248 0-448-201-448-449 0-160 84-300 210-380l1-1c3-1 6-2 9-2 0 0 0 0 0 0h456c0 0 0 0 0 0 3 0 6 1 9 2l0 0c127 81 211 221 211 381 0 248-200 449-448 449h0z m224-800h-447c-117 75-193 204-193 351 0 230 186 416 416 416s416-186 416-416c0-147-76-276-191-350l-1-1z m-224 272c0 0 0 0 0 0 44 0 80 36 80 80 0 18-6 35-16 48l0 0c4 0 7 2 10 4l167 167c3 3 4 7 4 11 0 9-7 16-16 16-4 0-8-1-11-4l-167-167c-2-3-4-6-4-10l0 0c-13 9-29 15-47 15h0c-44 0-80-36-80-80s36-80 80-80v0z m0 128c27 0 48-21 48-48s-21-48-48-48c-27 0-48 21-48 48v0c0 27 21 48 48 48v0z m48-240h-96c-26 0-48-22-48-48s22-48 48-48v0h96c27 0 48 21 48 48s-21 48-48 48v0z m0-64h-96c-9 0-16 7-16 16s7 16 16 16v0h96c9 0 16-7 16-16s-7-16-16-16v0z" />
<glyph glyph-name="donut-chart" unicode="&#xe909;" d="M848 416h-192c-9 0-16-7-16-16v0c0-97-79-176-176-176s-176 79-176 176c0 97 79 176 176 176v0c9 0 16 7 16 16v0 192c0 9-7 16-16 16v0c-221 0-400-179-400-400s179-400 400-400c221 0 400 179 400 400v0c0 9-7 16-16 16v0z m-752-16c0 198 156 359 351 368l1 0v-161c-108-8-192-98-192-207 0-52 19-99 50-135l0 0-113-113c-60 65-97 152-97 248v0z m120-271l113 113c36-31 83-50 135-50s99 19 135 50l0 0 113-113c-65-60-152-97-248-97s-183 37-249 97l1 0z m519 23l-113 113c28 32 46 73 49 118l0 1h161c-4-90-40-171-97-233l0 1z m-175 744c-9 0-16-7-16-16v0-192c0-9 7-16 16-16v0c97 0 176-79 176-176v0c0-9 7-16 16-16v0h192c9 0 16 7 16 16v0c0 221-179 400-400 400h0z m207-384c-8 102-89 183-190 191l-1 0v161c191-9 343-161 352-351l0-1z" />
<glyph glyph-name="funnel-chart" unicode="&#xe90a;" d="M944 160h-848v656c0 9-7 16-16 16s-16-7-16-16v0-672c0-9 7-16 16-16v0h864c9 0 16 7 16 16s-7 16-16 16v0z m-587 364c45-60 77-133 89-212l0-3 10-71c1-8 8-14 16-14h112c0 0 0 0 0 0 8 0 15 6 16 14l0 0 10 71c12 82 43 155 89 216l-1-1 162 218c2 3 3 6 3 10 0 9-7 16-16 16v0h-639c-9 0-16-7-16-16 0-4 1-7 3-10l0 0z m221-211l-8-57h-84l-8 57c-4 27-10 51-17 74l1-3h131c-6-20-11-44-15-68l0-3z m26 103h-153c-18 48-41 90-69 128l1-1-1 1h291l0-1c-28-37-51-79-68-123l-1-4z m212 320l-119-160h-339l-118 160z" />
<glyph glyph-name="gantt-chart" unicode="&#xe90b;" d="M176 672h352c9 0 16 7 16 16v0 128c0 9-7 16-16 16v0h-352c-9 0-16-7-16-16v0-128c0-9 7-16 16-16v0z m16 128h320v-96h-320z m192-208v-128c0-9 7-16 16-16v0h288c9 0 16 7 16 16v0 128c0 9-7 16-16 16v0h-288c-9 0-16-7-16-16v0z m32-16h256v-96h-256z m96-208v-128c0-9 7-16 16-16v0h352c9 0 16 7 16 16v0 128c0 9-7 16-16 16v0h-352c-9 0-16-7-16-16v0z m32-16h320v-96h-320z m400-192h-848v656c0 9-7 16-16 16s-16-7-16-16v0-672c0-9 7-16 16-16v0h864c9 0 16 7 16 16s-7 16-16 16v0z" />
<glyph glyph-name="line-area-chart" unicode="&#xe90c;" d="M950 775c-2 0-4 1-6 1-4 0-8-2-11-5l0 0-164-159-162 105c-2 2-5 3-9 3-4 0-8-2-11-5l0 0-163-159-162 105c-3 2-6 3-9 3-5 0-9-2-12-5l0 0-145-165v322c0 9-7 16-16 16s-16-7-16-16v0-672c0-9 7-16 16-16v0h864c9 0 16 7 16 16v0 616c0 7-4 12-10 15l0 0z m-22-615h-832v62l160 181 161-104c2-2 5-3 9-3 4 0 8 2 11 5l0 0 163 159 162-105c3-2 6-3 9-3 4 0 8 2 11 5l0 0 146 141z m0 383l-159-155-162 105c-2 2-5 3-9 3-4 0-8-2-11-5l0 0-163-159-162 105c-3 2-6 3-9 3-5 0-9-2-12-5l0 0-145-165v176l160 181 161-104c2-2 5-3 9-3 4 0 8 2 11 5l0 0 163 159 163-105c2-2 5-3 8-3 5 0 8 2 11 5l0 0 146 141z" />
<glyph glyph-name="line-chart" unicode="&#xf201;" d="M944 544c9 0 16 7 16 16v0 192c0 9-7 16-16 16v0h-192c-9 0-16-7-16-16s7-16 16-16v0h153l-313-313-213 212c-2 3-6 5-10 5-1 0-1 0-1 0l0 0c-4 0-8-2-11-5l0 0-261-264v445c0 9-7 16-16 16s-16-7-16-16v0-672c0-9 7-16 16-16v0h864c9 0 16 7 16 16s-7 16-16 16v0h-848v165l272 276 213-212c2-3 7-5 11-5s8 2 11 5v0l325 324v-153c0-9 7-16 16-16v0z" />
<glyph glyph-name="pie-chart" unicode="&#xf200;" d="M848 418h-368v368c0 9-7 16-16 16v0c-221 0-400-179-400-400s179-400 400-400c221 0 400 179 400 400v0c0 9-7 16-16 16v0z m-400 352v-362l-255-254c-60 65-97 152-97 249 0 197 156 358 351 367l1 0z m-232-639l248 248 248-248c-65-60-152-97-248-97s-183 37-249 97l1 0z m519 23l-232 232h329c-4-90-40-171-97-233l0 1z m-175 740c-9 0-16-7-16-16v0-384c0-8 7-15 16-15v0h384c9 0 16 7 16 15v0c0 221-179 400-400 400h0z m16-384v352c191-9 343-161 352-351l0-1z" />
<glyph glyph-name="pie-chart-0" unicode="&#xeaa7;" d="M512 896c-247 0-448-201-448-448s201-448 448-448c247 0 448 201 448 448v0c0 247-201 448-448 448h0z m0-864c-230 0-416 186-416 416s186 416 416 416c230 0 416-186 416-416v0c0-230-186-416-416-416h0z" />
<glyph glyph-name="pie-chart-10" unicode="&#xeaa9;" d="M512 896c-247 0-448-201-448-448s201-448 448-448c247 0 448 201 448 448v0c0 247-201 448-448 448h0z m0-864c-230 0-416 186-416 416s186 416 416 416v0-416l247 334c103-77 169-198 169-335 0-229-186-415-415-415-1 0-1 0-1 0h0z" />
<glyph glyph-name="pie-chart-100" unicode="&#xeabb;" d="M960 448c0-247-201-448-448-448s-448 201-448 448c0 247 201 448 448 448s448-201 448-448z" />
<glyph glyph-name="pie-chart-15" unicode="&#xeaaa;" d="M512 896c-247 0-448-201-448-448s201-448 448-448c247 0 448 201 448 448v0c0 247-201 448-448 448h0z m0-864c-230 0-416 186-416 416s186 416 416 416v0-416l336 244c50-68 80-153 80-245 0-229-186-415-415-415-1 0-1 0-1 0h0z" />
<glyph glyph-name="pie-chart-20" unicode="&#xeaab;" d="M512 896c-247 0-448-201-448-448s201-448 448-448c247 0 448 201 448 448v0c0 247-201 448-448 448h0z m0-864c0 0 0 0-1 0-229 0-415 186-415 416 0 230 185 416 415 416h0v-416l396 129c13-39 21-83 21-130 0-229-186-415-415-415-1 0-1 0-1 0h0z" />
<glyph glyph-name="pie-chart-25" unicode="&#xeaac;" d="M512 896c-247 0-448-201-448-448s201-448 448-448c247 0 448 201 448 448v0c0 247-201 448-448 448h0z m0-864c-230 0-416 186-416 416s186 416 416 416v0-416h416c0-230-186-416-416-416h0z" />
<glyph glyph-name="pie-chart-30" unicode="&#xeaad;" d="M512 896c-247 0-448-201-448-448s201-448 448-448c247 0 448 201 448 448v0c0 247-201 448-448 448h0z m0-864c-230 0-416 186-416 416s186 416 416 416v0-416l395-129c-56-168-211-287-395-287h0z" />
<glyph glyph-name="pie-chart-35" unicode="&#xeaae;" d="M512 896c-247 0-448-201-448-448s201-448 448-448c247 0 448 201 448 448v0c0 247-201 448-448 448h0z m0-864c-230 0-416 186-416 416s186 416 416 416v0-416l336-244c-76-105-198-172-336-172h0z" />
<glyph glyph-name="pie-chart-40" unicode="&#xeaaf;" d="M512 896c-247 0-448-201-448-448s201-448 448-448c247 0 448 201 448 448v0c0 247-201 448-448 448h0z m-416-448c0 230 186 416 416 416h0v-416l244-336c-68-50-153-80-245-80-229 0-415 186-415 415 0 1 0 1 0 1v0z" />
<glyph glyph-name="pie-chart-45" unicode="&#xeab0;" d="M512 896c-247 0-448-201-448-448s201-448 448-448c247 0 448 201 448 448v0c0 247-201 448-448 448h0z m-416-448c0 229 186 415 415 416h0l0-416 129-396c-39-13-83-20-128-20-230 0-416 186-416 416 0 0 0 0 0 0v0z" />
<glyph glyph-name="pie-chart-5" unicode="&#xeaa8;" d="M512 896c-247 0-448-201-448-448s201-448 448-448c247 0 448 201 448 448v0c0 247-201 448-448 448h0z m0-864c-230 0-416 186-416 416s186 416 416 416v0-416l129 395c167-56 286-211 286-395 0-230-186-416-415-416h0z" />
<glyph glyph-name="pie-chart-50" unicode="&#xeab1;" d="M512 896c-247 0-448-201-448-448s201-448 448-448 448 201 448 448v0c0 247-201 448-448 448z m-416-448c0 230 186 416 416 416v-832c-230 0-416 186-416 416z" />
<glyph glyph-name="pie-chart-55" unicode="&#xeab2;" d="M512 896c-247 0-448-201-448-448s201-448 448-448 448 201 448 448c0 247-201 448-448 448z m-416-447c0 229 186 415 415 415h1l0-415-128-395c-172 56-288 215-288 395z" />
<glyph glyph-name="pie-chart-60" unicode="&#xeab3;" d="M851 155c162 187 141 470-46 632s-470 141-632-46-141-470 46-632c181-156 452-143 617 29 5 6 10 11 15 17z m-755 293c0 230 186 416 416 416v-416l-244-336c-108 78-172 203-172 336z" />
<glyph glyph-name="pie-chart-65" unicode="&#xeab4;" d="M512 896c-247 0-448-201-448-448s201-448 448-448c247 0 448 201 448 448v0c0 247-201 448-448 448h0z m0-32v-416l-336-244c-50 68-80 153-80 245 0 229 186 415 415 415 1 0 1 0 1 0h0z" />
<glyph glyph-name="pie-chart-70" unicode="&#xeab5;" d="M512 896c-247 0-448-201-448-448s201-448 448-448c247 0 448 201 448 448v0c0 247-201 448-448 448h0z m0-32v-416l-395-129c-13 39-21 83-21 130 0 229 186 415 415 415 1 0 1 0 1 0h0z" />
<glyph glyph-name="pie-chart-75" unicode="&#xeab6;" d="M512 896c-247 0-448-201-448-448s201-448 448-448c247 0 448 201 448 448v0c0 247-201 448-448 448h0z m0-32v-416h-416c0 230 186 416 416 416h0z" />
<glyph glyph-name="pie-chart-80" unicode="&#xeab7;" d="M513 896c-248 0-448-201-448-448s200-448 448-448c247 0 448 201 448 448v0c-1 247-201 448-448 448h0z m0-32h1v-416l-397 129c56 168 212 287 396 287h0z" />
<glyph glyph-name="pie-chart-85" unicode="&#xeab8;" d="M512 896c-247 0-448-201-448-448s201-448 448-448c247 0 448 201 448 448v0c0 247-201 448-448 448h0z m0-32v-416l-336 244c76 105 198 172 336 172h0z" />
<glyph glyph-name="pie-chart-90" unicode="&#xeab9;" d="M512 896c-247 0-448-201-448-448s201-448 448-448c247 0 448 201 448 448v0c0 247-201 448-448 448h0z m0-448l-244 336c67 50 152 80 244 80h0z" />
<glyph glyph-name="pie-chart-95" unicode="&#xeaba;" d="M512 896c-247 0-448-201-448-448s201-448 448-448c247 0 448 201 448 448v0c0 247-201 448-448 448h0z m-129-53c38 13 82 21 128 21h0v-416z" />
<glyph glyph-name="polar-chart" unicode="&#xe911;" d="M944 448h-145c-9 231-198 415-431 416h0c-9 0-16-7-16-16v0-113c-161-8-288-141-288-303 0-168 136-304 304-304 78 0 150 30 204 79l0 0 192-190c3-2 7-4 11-4s8 2 11 4l0 0c108 106 174 252 174 414 0 0 0 1 0 1v0c0 9-7 16-16 16v0z m-176 0h-384v373c0 1 1 1 1 3-1 0-1 1-1 2l0 0v6c208-9 375-176 384-383l0-1z m-400-288c-150 0-272 122-272 272 0 144 113 262 255 271l1 0v-271c0-1 0-1 0-1 1-4 2-8 5-10l0 0 192-191c-47-44-111-70-181-70 0 0 0 0 0 0h0z m407-109l-368 365h521c-4-142-62-270-153-365l0 0z" />
<glyph glyph-name="pyramid-chart" unicode="&#xeaf6;" d="M958 153l-432 672c-3 4-8 7-14 7s-11-3-14-7l0 0-432-672c-2-3-3-6-3-9 0-9 8-17 17-17h864c9 0 17 8 17 17 0 3-1 6-3 9l0 0z m-446 632l114-177h-228z m-134-209h268l124-192h-516z m-267-415l123 191h556l123-191z" />
<glyph glyph-name="radar-chart" unicode="&#xe912;" d="M864 318v260c37 7 65 39 65 78 0 44-36 80-80 80-26 0-49-12-63-31l-1 0-180 90c2 7 3 14 3 21l0 0c0 44-36 80-80 80s-80-36-80-80v0c0-6 1-12 2-18l0 0-186-85c-15 15-35 23-57 23-44 0-80-35-80-80s36-80 80-80c19 0 37 7 50 18l0-1 195-106c-3-7-4-15-4-23v0c0-39 27-71 63-78l1 0v-228c-37-7-64-39-64-78 0-44 36-80 80-80s80 36 80 80v0c0 7-1 14-3 21l0 0 180 90c15-19 38-31 63-31 44 0 80 36 80 80 0 39-27 71-63 78l-1 0z m-16 386c26 0 48-22 48-48s-22-48-48-48c-26 0-48 21-48 48v0c0 26 22 48 48 48v0z m-320 160c26 0 48-22 48-48s-22-48-48-48c-26 0-48 22-48 48v0c0 26 22 48 48 48v0z m-368-208c0 26 22 48 48 48s48-22 48-48c0-27-22-48-48-48v0c-26 0-48 21-48 48v0z m320-192c0 26 22 48 48 48s48-22 48-48c0-27-22-48-48-48v0c-26 0-48 21-48 48v0z m48-432c-26 0-48 21-48 48s22 48 48 48c26 0 48-22 48-48v0c0-27-22-48-48-48v0z m63 97c-12 15-28 25-46 29l-1 0v228c37 7 65 39 65 78 0 44-36 80-80 80-25 0-47-11-62-29l0 0-189 103c6 11 10 24 10 38 0 11-2 22-6 31l0-1 182 83c14-20 38-33 64-33 25 0 48 12 63 31l0 0 180-90c-2-7-3-14-3-21l0 0c0-39 27-71 63-78l1 0v-260c-37-7-64-39-64-78 0 0 0 0 0 0v0c0-7 1-15 3-21l0 0z m257 63c-26 0-48 22-48 48s22 48 48 48c26 0 48-22 48-48v0c0-26-22-48-48-48v0z" />
<glyph glyph-name="range-chart-area" unicode="&#xe913;" d="M305 413l279-155c2-1 5-2 8-2 3 0 5 1 7 2l0 0 184 92 153-92c2-1 5-2 8-2 9 0 16 7 16 16 0 0 0 0 0 0v0 224c0 0 0 0 0 0 0 6-3 11-8 14l0 0-160 96c-2 1-5 2-8 2-4 0-7-1-10-3l0 0-115-87-119 148c-2 3-6 6-11 6l0 0c0 0-1 0-1 0-4 0-8-2-11-5l-84-83-116 146c-3 3-8 6-13 6h0c-5 0-9-2-12-5l0 0-196-224v309c0 9-7 16-16 16s-16-7-16-16v0-672c0-9 7-16 16-16v0h864c9 0 16 7 16 16s-7 16-16 16v0h-848v104z m-2 282l117-145c2-4 7-6 12-6 4 0 8 2 11 5v0l84 83 116-146c3-4 8-6 13-6 3 0 7 1 9 3l0 0 120 90 143-86v-187l-136 82c-2 1-5 2-8 2-3 0-5-1-7-2l0 0-185-92-280 156c-2 1-5 2-8 2-3 0-7-1-9-3l0 0-199-142v155z" />
<glyph glyph-name="range-chart-bar" unicode="&#xe914;" d="M944 128h-864c-9 0-16 7-16 16v0 704c0 9 7 16 16 16s16-7 16-16v0-688h848c9 0 16-7 16-16s-7-16-16-16v0z m0 288h-192c-9 0-16 7-16 16v0 352c0 9 7 16 16 16v0h192c9 0 16-7 16-16v0-352c0-9-7-16-16-16v0z m-176 32h160v320h-160z m-400-128h-192c-9 0-16 7-16 16v0 352c0 9 7 16 16 16v0h192c9 0 16-7 16-16v0-352c0-9-7-16-16-16v0z m-176 32h160v320h-160z m464-128h-192c-9 0-16 7-16 16v0 352c0 9 7 16 16 16v0h192c9 0 16-7 16-16v0-352c0-9-7-16-16-16v0z m-176 32h160v320h-160z" />
<glyph glyph-name="scatter-chart" unicode="&#xe915;" d="M944 160h-848v656c0 9-7 16-16 16s-16-7-16-16v0-672c0-9 7-16 16-16v0h864c9 0 16 7 16 16s-7 16-16 16v0z m-80 224c53 0 96 43 96 96s-43 96-96 96c-53 0-96-43-96-96v0c0-53 43-96 96-96v0z m0 160c35 0 64-29 64-64s-29-64-64-64c-35 0-64 29-64 64v0c0 35 29 64 64 64v0z m-192 96c53 0 96 43 96 96s-43 96-96 96c-53 0-96-43-96-96v0c0-53 43-96 96-96v0z m0 160c35 0 64-29 64-64s-29-64-64-64c-35 0-64 29-64 64v0c0 35 29 64 64 64v0z m-256-320c53 0 96 43 96 96s-43 96-96 96c-53 0-96-43-96-96v0c0-53 43-96 96-96v0z m0 160c35 0 64-29 64-64s-29-64-64-64c-35 0-64 29-64 64v0c0 35 29 64 64 64v0z m-160-416c53 0 96 43 96 96s-43 96-96 96c-53 0-96-43-96-96v0c0-53 43-96 96-96v0z m0 160c35 0 64-29 64-64s-29-64-64-64c-35 0-64 29-64 64v0c0 35 29 64 64 64v0z" />
<glyph glyph-name="stock-chart" unicode="&#xe916;" d="M944 160h-848v656c0 9-7 16-16 16s-16-7-16-16v0-672c0-9 7-16 16-16v0h864c9 0 16 7 16 16s-7 16-16 16v0z m-720 160h32v-80c0-9 7-16 16-16s16 7 16 16v0 80h32c18 0 32 14 32 32v0 224c0 18-14 32-32 32v0h-32v80c0 9-7 16-16 16s-16-7-16-16v0-80h-32c-18 0-32-14-32-32v0-224c0-18 14-32 32-32v0z m0 256h96v-224h-96z m512-256h32v-80c0-9 7-16 16-16s16 7 16 16v0 80h32c18 0 32 14 32 32v0 224c0 18-14 32-32 32v0h-32v80c0 9-7 16-16 16s-16-7-16-16v0-80h-32c-18 0-32-14-32-32v0-224c0-18 14-32 32-32v0z m0 256h96v-224h-96z m-256-128h32v-80c0-9 7-16 16-16s16 7 16 16v0 80h32c18 0 32 14 32 32v0 224c0 18-14 32-32 32v0h-32v80c0 9-7 16-16 16s-16-7-16-16v0-80h-32c-18 0-32-14-32-32v0-224c0-18 14-32 32-32v0z m0 256h96v-224h-96z" />
<glyph glyph-name="x-axis" unicode="&#xe917;" d="M374 292c3-3 6-4 10-4 5 0 9 2 12 6l116 144 116-144c2-4 7-6 12-6 9 0 16 7 16 16 0 4-1 7-4 10l0 0-120 150 120 150c3 3 4 6 4 10 0 9-7 16-16 16-5 0-10-2-12-6l0 0-116-144-116 144c-2 4-7 6-12 6-9 0-16-7-16-16 0-4 1-7 4-10l0 0 120-150-120-150c-3-3-4-6-4-10 0-5 2-9 6-12l0 0z m506-68c-9 0-16-7-16-16v0-48h-704v48c0 9-7 16-16 16s-16-7-16-16v0-64c0-9 7-16 16-16v0h736c9 0 16 7 16 16v0 64c0 9-7 16-16 16v0z" />
<glyph glyph-name="y-axis" unicode="&#xe918;" d="M208 800c9 0 16 7 16 16s-7 16-16 16v0h-64c-9 0-16-7-16-16v0-736c0-9 7-16 16-16v0h64c9 0 16 7 16 16s-7 16-16 16v0h-48v704z m457-163c-3 2-6 3-9 3-6 0-10-3-13-7l0 0-115-172-115 172c-3 4-8 7-13 7-9 0-16-7-16-16 0-3 1-6 3-9l0 0 125-188v-123c0-9 7-16 16-16s16 7 16 16v0 123l125 188c2 3 3 6 3 9 0 6-3 10-7 13l0 0z" />
<glyph glyph-name="y1-axis" unicode="&#xe919;" d="M208 800c9 0 16 7 16 16s-7 16-16 16v0h-64c-9 0-16-7-16-16v0-736c0-9 7-16 16-16v0h64c9 0 16 7 16 16s-7 16-16 16v0h-48v704z m435-167l-115-172-115 172c-3 4-8 7-13 7-9 0-16-7-16-16 0-3 1-6 3-9l0 0 125-188v-123c0-9 7-16 16-16s16 7 16 16v0 123l125 188c2 3 3 6 3 9 0 9-7 16-16 16-5 0-10-3-13-7l0 0z m149-347c-2 1-5 2-8 2-3 0-5-1-7-2l0 0-64-32c-5-2-9-8-9-14 0-9 7-16 16-16 3 0 5 1 7 2l0 0 41 20v-166c0-9 7-16 16-16s16 7 16 16v0 192c0 0 0 0 0 0 0 6-3 11-8 14l0 0z" />
<glyph glyph-name="y2-axis" unicode="&#xe91a;" d="M208 800c9 0 16 7 16 16s-7 16-16 16v0h-64c-9 0-16-7-16-16v0-736c0-9 7-16 16-16v0h64c9 0 16 7 16 16s-7 16-16 16v0h-48v704z m608-704h-78c9 18 22 33 39 43l1 0c31 17 52 48 54 85l0 0c0 35-29 64-64 64s-64-29-64-64v0c0-9 7-16 16-16s16 7 16 16v0c0 18 14 32 32 32s32-14 32-32v0c0-27-16-40-42-59-31-17-52-48-54-85l0 0c0-9 7-16 16-16v0h96c9 0 16 7 16 16s-7 16-16 16v0z m-173 537l-115-172-115 172c-3 4-8 7-13 7-9 0-16-7-16-16 0-3 1-6 3-9l0 0 125-188v-123c0-9 7-16 16-16s16 7 16 16v0 123l125 188c2 3 3 6 3 9 0 9-7 16-16 16-5 0-10-3-13-7l0 0z" />
<glyph glyph-name="bitcoin" unicode="&#xf15a;" d="M528 800c-203 0-368-165-368-368s165-368 368-368 368 165 368 368-165 368-368 368z m0-704c-185 0-336 151-336 336s151 336 336 336 336-151 336-336-151-336-336-336z m103 342c15 15 25 35 25 58 0 44-36 80-80 80h-32v48c0 9-7 16-16 16s-16-7-16-16v-48h-80c-9 0-16-7-16-16v-256c0-9 7-16 16-16h80v-48c0-9 7-16 16-16s16 7 16 16v48h48c44 0 80 36 80 80 0 30-17 56-41 70z m-55 106c26 0 48-22 48-48s-22-48-48-48h-32v96h32z m-64 0v-96h-64v96h64z m-64-224v96h64v-96h-64z m144 0h-48v96h48c26 0 48-22 48-48s-22-48-48-48z" />
<glyph glyph-name="yen" unicode="&#xf157;" d="M528 800c-203 0-368-165-368-368s165-368 368-368 368 165 368 368-165 368-368 368z m0-704c-185 0-336 151-336 336s151 336 336 336 336-151 336-336-151-336-336-336z m96 320c9 0 16 7 16 16s-7 16-16 16h-68l82 136c4 7 2 17-6 22s-17 2-22-6l-82-137-82 137c-5 8-15 10-22 6s-10-15-6-22l82-136h-68c-9 0-16-7-16-16s7-16 16-16h80v-32h-80c-9 0-16-7-16-16s7-16 16-16h80v-80c0-9 7-16 16-16s16 7 16 16v80h80c9 0 16 7 16 16s-7 16-16 16h-80v32h80z" />
<glyph glyph-name="usd" unicode="&#xf155;" d="M528 800c-203 0-368-165-368-368s165-368 368-368 368 165 368 368-165 368-368 368z m0-704c-185 0-336 151-336 336s151 336 336 336 336-151 336-336-151-336-336-336z m80 408c0-9 7-16 16-16s16 7 16 16c0 44-42 81-96 87v33c0 9-7 16-16 16s-16-7-16-16v-33c-54-7-96-43-96-87 0-29 24-56 64-71l32-12v-116c-36 6-64 29-64 55 0 9-7 16-16 16s-16-7-16-16c0-44 42-81 96-87v-33c0-9 7-16 16-16s16 7 16 16v33c54 6 96 43 96 87 0 30-24 56-64 71l-32 12v116c36-6 64-28 64-55z m-43-103c27-10 43-26 43-41 0-26-28-49-64-55v104l21-8z m-74 62c-27 10-43 26-43 41 0 27 28 49 64 55v-104l-21 8z" />
<glyph glyph-name="euro" unicode="&#xf153;" d="M528 800c-203 0-368-165-368-368s165-368 368-368 368 165 368 368-165 368-368 368z m0-704c-185 0-336 151-336 336s151 336 336 336 336-151 336-336-151-336-336-336z m6 480c36 0 69-15 94-42 6-6 17-7 23 0s7 16 1 22c-32 34-74 52-118 52s-86-18-118-52c-20-22-33-48-41-76h-39c-9 0-16-7-16-16s7-16 16-16h34c-1-11-1-21 0-32h-34c-9 0-16-7-16-16s7-16 16-16h39c8-28 21-54 41-76 32-34 73-52 118-52s86 18 118 52c6 6 5 17-1 23s-17 5-23-1c-25-27-58-42-94-42s-69 15-94 42c-15 16-25 34-32 54h120c9 0 16 7 16 16s-7 16-16 16h-127c-1 11-1 21 0 32h159c9 0 16 7 16 16s-7 16-16 16h-152c7 20 17 38 32 54 25 27 58 42 94 42z" />
<glyph glyph-name="gbp" unicode="&#xf154;" d="M528 800c-203 0-368-165-368-368s165-368 368-368 368 165 368 368-165 368-368 368z m0-704c-185 0-336 151-336 336s151 336 336 336 336-151 336-336-151-336-336-336z m96 256c-9 0-16-7-16-16v-48h-144c10 13 16 30 16 48v80h80c9 0 16 7 16 16s-7 16-16 16h-80v64c0 35 29 64 64 64 14 0 27-4 39-13 2-2 4-4 6-6 6-6 17-6 23 0s6 17 0 23c-3 3-7 6-10 9-17 12-37 19-58 19-53 0-96-43-96-96v-64h-48c-9 0-16-7-16-16s7-16 16-16h48v-80c0-26-22-48-48-48-9 0-16-7-16-16s7-16 16-16h224c9 0 16 7 16 16v64c0 9-7 16-16 16z" />
<glyph glyph-name="sheqel" unicode="&#xf20b;" d="M528 800c-203 0-368-165-368-368s165-368 368-368 368 165 368 368-165 368-368 368z m0-704c-185 0-336 151-336 336s151 336 336 336 336-151 336-336-151-336-336-336z m16 432v-160c0-9 7-16 16-16s16 7 16 16v160c0 44-36 80-80 80h-64c-9 0-16-7-16-16v-320c0-9 7-16 16-16s16 7 16 16v304h48c26 0 48-22 48-48z m80 80c-9 0-16-7-16-16v-304h-48c-26 0-48 22-48 48v160c0 9-7 16-16 16s-16-7-16-16v-160c0-44 36-80 80-80h64c9 0 16 7 16 16v320c0 9-7 16-16 16z" />
<glyph glyph-name="rupee" unicode="&#xf156;" d="M528 800c-203 0-368-165-368-368s165-368 368-368 368 165 368 368-165 368-368 368z m0-704c-185 0-336 151-336 336s151 336 336 336 336-151 336-336-151-336-336-336z m144 496c0 9-7 16-16 16h-224c-9 0-16-7-16-16s7-16 16-16h64c39 0 71-28 78-64h-142c-9 0-16-7-16-16s7-16 16-16h142c-7-37-39-64-78-64h-64c-6 0-12-4-15-10s-1-13 4-17l160-160c3-3 7-5 11-5s8 2 11 5c7 6 7 16 0 22l-132 133h25c56 0 103 42 110 96h50c9 0 16 7 16 16s-7 16-16 16h-50c-3 25-15 47-32 64h82c9 0 16 7 16 16z" />
<glyph glyph-name="won" unicode="&#xf159;" d="M720 448c9 0 16 7 16 16s-7 16-16 16h-46l29 108c3 8-2 17-11 19-8 3-17-2-19-11l-32-116h-71l-26 116c-2 7-9 12-16 12s-14-5-16-12l-26-116h-71l-32 116c-2 9-11 14-19 11s-14-11-11-19l29-108h-46c-9 0-16-7-16-16s7-16 16-16h55l8-32h-63c-9 0-16-7-16-16s7-16 16-16h72l32-116c2-7 8-12 16-12 7 0 13 5 15 12l26 116h62l26-116c2-7 8-12 15-12 1 0 1 0 1 0 7 0 13 5 15 12l32 116h72c9 0 16 7 16 16s-7 16-16 16h-63l8 32h55z m-192 72l9-40h-18l9 40z m-104-72h55l-7-32h-39l-9 32z m30-110l-13 46h23l-10-46z m50 78l8 32h32l8-32h-48z m98-78l-10 46h23l-13-46z m21 78h-39l-7 32h55l-9-32z m-95 384c-203 0-368-165-368-368s165-368 368-368 368 165 368 368-165 368-368 368z m0-704c-185 0-336 151-336 336s151 336 336 336 336-151 336-336-151-336-336-336z" />
<glyph glyph-name="money" unicode="&#xf0d6;" d="M944 704h-864c-9 0-16-7-16-16v-480c0-9 7-16 16-16h864c9 0 16 7 16 16v480c0 9-7 16-16 16z m-16-480h-832v448h832v-448z m-416 128c53 0 96 43 96 96s-43 96-96 96-96-43-96-96c0-53 43-96 96-96z m0 160c35 0 64-29 64-64s-29-64-64-64-64 29-64 64 29 64 64 64z m-368-160c44 0 80-36 80-80 0-9 7-16 16-16h544c9 0 16 7 16 16 0 44 36 80 80 80 9 0 16 7 16 16v160c0 9-7 16-16 16-44 0-80 36-80 80 0 9-7 16-16 16h-544c-9 0-16-7-16-16 0-44-36-80-80-80-9 0-16-7-16-16v-160c0-9 7-16 16-16z m16 161c49 7 88 46 95 95h514c7-49 46-88 95-95v-130c-49-7-88-46-95-95h-514c-7 49-46 88-95 95v130z" />
<glyph glyph-name="ruble" unicode="&#xf158;" d="M528 800c-203 0-368-165-368-368s165-368 368-368 368 165 368 368-165 368-368 368z m0-704c-185 0-336 151-336 336s151 336 336 336 336-151 336-336-151-336-336-336z m48 512h-112c-9 0-16-7-16-16v-144h-48c-9 0-16-7-16-16s7-16 16-16h48v-32h-48c-9 0-16-7-16-16s7-16 16-16h48v-80c0-9 7-16 16-16s16 7 16 16v80h80c9 0 16 7 16 16s-7 16-16 16h-80v32h96c53 0 96 43 96 96s-43 96-96 96z m0-160h-96v128h96c35 0 64-29 64-64s-29-64-64-64z" />
<glyph glyph-name="turkish-lira" unicode="&#xf195;" d="M528 800c-203 0-368-165-368-368s165-368 368-368 368 165 368 368-165 368-368 368z m0-704c-185 0-336 151-336 336s151 336 336 336 336-151 336-336-151-336-336-336z m96 320c-9 0-16-7-16-16 0-56-42-103-96-111v152l87 40c8 4 11 14 8 22s-14 11-22 8l-73-34v28l87 40c8 4 11 14 8 22s-14 11-22 8l-73-34v83c0 9-7 16-16 16s-16-7-16-16v-98l-51-24c-8-4-12-13-8-21 3-6 8-9 15-9 2 0 4 0 6 1l38 18v-29l-51-24c-8-4-12-13-8-21 3-6 8-9 15-9 2 0 4 0 6 1l38 18v-155c0-9 7-16 16-16 79 0 144 65 144 144 0 9-7 16-16 16z" />
<glyph glyph-name="angle-double-down" unicode="&#xf103;" d="M649 407l-137-138-137 138c-6 5-14 9-23 9-17 0-32-15-32-32 0-9 4-17 9-23l160-160c6-5 14-9 23-9s17 4 23 9l160 160c5 6 9 14 9 23 0 17-15 32-32 32-9 0-17-4-23-9l0 0z m-160 82c6-5 14-9 23-9s17 4 23 9l160 160c5 6 9 14 9 23 0 17-15 32-32 32-9 0-17-4-23-9l-137-138-137 138c-6 5-14 9-23 9-17 0-32-15-32-32 0-9 4-17 9-23l0 0z" />
<glyph glyph-name="angle-double-left" unicode="&#xf100;" d="M471 631c-6 5-14 9-23 9s-17-4-23-9l-160-160c-5-6-9-14-9-23s4-17 9-23l160-160c6-5 14-9 23-9 17 0 32 15 32 32 0 9-4 17-9 23l-138 137 138 137c5 6 9 14 9 23s-4 17-9 23v0z m150-183l138 137c5 6 9 14 9 23 0 17-15 32-32 32-9 0-17-4-23-9l-160-160c-5-6-9-14-9-23s4-17 9-23l160-160c6-5 14-9 23-9 17 0 32 15 32 32 0 9-4 17-9 23l0 0z" />
<glyph glyph-name="angle-double-right" unicode="&#xf101;" d="M759 471l-160 160c-6 5-14 9-23 9-17 0-32-15-32-32 0-9 4-17 9-23l138-137-138-137c-6-6-9-14-9-23 0-18 14-32 32-32 9 0 17 3 23 9l160 160c5 6 9 14 9 23s-4 17-9 23v0z m-448 160c-6 5-14 9-23 9-17 0-32-15-32-32 0-9 4-17 9-23l138-137-138-137c-6-6-9-14-9-23 0-18 14-32 32-32 9 0 17 3 23 9l160 160c5 6 9 14 9 23s-4 17-9 23v0z" />
<glyph glyph-name="angle-double-up" unicode="&#xf102;" d="M375 489l137 138 137-138c6-5 14-9 23-9 17 0 32 15 32 32 0 9-4 17-9 23l-160 160c-6 5-14 9-23 9s-17-4-23-9l-160-160c-5-6-9-14-9-23 0-17 15-32 32-32 9 0 17 4 23 9l0 0z m160-82c-6 5-14 9-23 9s-17-4-23-9l-160-160c-5-6-9-14-9-23 0-17 15-32 32-32 9 0 17 4 23 9l137 138 137-138c6-5 14-9 23-9 17 0 32 15 32 32 0 9-4 17-9 23l0 0z" />
<glyph glyph-name="angle-down" unicode="&#xf107;" d="M695 519c-6 5-14 9-23 9s-17-4-23-9l-137-138-137 138c-6 5-14 9-23 9-17 0-32-15-32-32 0-9 4-17 9-23l160-160c6-5 14-9 23-9s17 4 23 9l160 160c5 6 9 14 9 23s-4 17-9 23v0z" />
<glyph glyph-name="angle-left" unicode="&#xf104;" d="M445 448l138 137c5 6 9 14 9 23 0 17-15 32-32 32-9 0-17-4-23-9l-160-160c-5-6-9-14-9-23s4-17 9-23l160-160c6-5 14-9 23-9 17 0 32 15 32 32 0 9-4 17-9 23l0 0z" />
<glyph glyph-name="angle-right" unicode="&#xf105;" d="M647 471l-160 160c-6 5-14 9-23 9-17 0-32-15-32-32 0-9 4-17 9-23l138-137-138-137c-6-6-9-14-9-23 0-18 14-32 32-32 9 0 17 3 23 9l160 160c5 6 9 14 9 23s-4 17-9 23v0z" />
<glyph glyph-name="angle-up" unicode="&#xf106;" d="M695 423l-160 160c-6 5-14 9-23 9s-17-4-23-9l-160-160c-5-6-9-14-9-23 0-17 15-32 32-32 9 0 17 4 23 9l137 138 137-138c6-5 14-9 23-9 17 0 32 15 32 32 0 9-4 17-9 23l0 0z" />
<glyph glyph-name="arrow-circle-down" unicode="&#xf0ab;" d="M960 448c0 247-201 448-448 448s-448-201-448-448c0-247 201-448 448-448v0c247 0 448 201 448 448v0z m-471-211l-144 144c-6 5-9 14-9 23 0 17 14 32 32 32 9 0 17-4 23-10l89-90v304c0 18 14 32 32 32s32-14 32-32v0-304l89 90c6 6 14 10 23 10 18 0 32-15 32-32 0-9-3-18-9-23l-144-144c-6-6-14-10-23-10s-17 4-23 10v0z" />
<glyph glyph-name="arrow-circle-left" unicode="&#xf0a8;" d="M512 0c247 0 448 201 448 448s-201 448-448 448c-247 0-448-201-448-448v0c0-247 201-448 448-448h0z m-211 471l144 144c5 6 14 9 23 9 17 0 32-14 32-32 0-9-4-17-10-23l-90-89h304c18 0 32-14 32-32s-14-32-32-32v0h-304l90-89c6-6 10-14 10-23 0-18-15-32-32-32-9 0-18 3-23 9l-144 144c-6 6-10 14-10 23s4 17 10 23v0z" />
<glyph glyph-name="arrow-circle-o-down" unicode="&#xf01a;" d="M512 896c-247 0-448-201-448-448s201-448 448-448c247 0 448 201 448 448v0c0 247-201 448-448 448h0z m0-864c-230 0-416 186-416 416s186 416 416 416c230 0 416-186 416-416v0c0-230-186-416-416-416h0z m121 394l-89-90v304c0 18-14 32-32 32s-32-14-32-32v0-304l-89 90c-6 6-14 10-23 10-18 0-32-15-32-32 0-9 3-18 9-23l144-144c6-6 14-10 23-10s17 4 23 10l144 144c6 5 9 14 9 23 0 17-14 32-32 32-9 0-17-4-23-10l0 0z" />
<glyph glyph-name="arrow-circle-o-left" unicode="&#xf190;" d="M512 896c-247 0-448-201-448-448s201-448 448-448c247 0 448 201 448 448v0c0 247-201 448-448 448h0z m0-864c-230 0-416 186-416 416s186 416 416 416c230 0 416-186 416-416v0c0-230-186-416-416-416h0z m192 448h-304l90 89c6 6 10 14 10 23 0 18-15 32-32 32-9 0-18-3-23-9l-144-144c-6-6-10-14-10-23s4-17 10-23l144-144c5-6 14-9 23-9 17 0 32 14 32 32 0 9-4 17-10 23l-90 89h304c18 0 32 14 32 32s-14 32-32 32v0z" />
<glyph glyph-name="arrow-circle-o-right" unicode="&#xf18e;" d="M512 896c-247 0-448-201-448-448s201-448 448-448c247 0 448 201 448 448v0c0 247-201 448-448 448h0z m0-864c-230 0-416 186-416 416s186 416 416 416c230 0 416-186 416-416v0c0-230-186-416-416-416h0z m67 583c-5 6-14 9-23 9-17 0-32-14-32-32 0-9 4-17 10-23l90-89h-304c-18 0-32-14-32-32s14-32 32-32v0h304l-90-89c-6-6-10-14-10-23 0-18 15-32 32-32 9 0 18 3 23 9l144 144c6 6 10 14 10 23s-4 17-10 23v0z" />
<glyph glyph-name="arrow-circle-o-up" unicode="&#xf01b;" d="M512 896c-247 0-448-201-448-448s201-448 448-448c247 0 448 201 448 448v0c0 247-201 448-448 448h0z m0-864c-230 0-416 186-416 416s186 416 416 416c230 0 416-186 416-416v0c0-230-186-416-416-416h0z m23 627c-6 6-14 10-23 10s-17-4-23-10l-144-144c-6-5-9-14-9-23 0-17 14-32 32-32 9 0 17 4 23 10l89 90v-304c0-18 14-32 32-32s32 14 32 32v0 304l89-90c6-6 14-10 23-10 18 0 32 15 32 32 0 9-3 18-9 23l0 0z" />
<glyph glyph-name="arrow-circle-right" unicode="&#xf0a9;" d="M512 896c-247 0-448-201-448-448s201-448 448-448c247 0 448 201 448 448v0c0 247-201 448-448 448h0z m211-471l-144-144c-5-6-14-9-23-9-17 0-32 14-32 32 0 9 4 17 10 23l90 89h-304c-18 0-32 14-32 32s14 32 32 32v0h304l-90 89c-6 6-10 14-10 23 0 18 15 32 32 32 9 0 18-3 23-9l144-144c6-6 10-14 10-23s-4-17-10-23v0z" />
<glyph glyph-name="arrow-circle-up" unicode="&#xf0aa;" d="M64 448c0-247 201-448 448-448s448 201 448 448c0 247-201 448-448 448v0c-247 0-448-201-448-448v0z m471 211l144-144c6-5 9-14 9-23 0-17-14-32-32-32-9 0-17 4-23 10l-89 90v-304c0-18-14-32-32-32s-32 14-32 32v0 304l-89-90c-6-6-14-10-23-10-18 0-32 15-32 32 0 9 3 18 9 23l144 144c6 6 14 10 23 10s17-4 23-10v0z" />
<glyph glyph-name="arrow-down" unicode="&#xf063;" d="M823 407c-6 5-14 9-23 9s-17-4-23-9l-233-234v627c0 18-14 32-32 32s-32-14-32-32v0-627l-233 234c-6 5-14 9-23 9-17 0-32-15-32-32 0-9 4-17 9-23l288-288c6-5 14-9 23-9s17 4 23 9l288 288c5 6 9 14 9 23s-4 17-9 23v0z" />
<glyph glyph-name="arrow-down-alt" unicode="&#xea6a;" d="M927 502c-3 6-8 10-15 10 0 0 0 0 0 0h-240v304c0 9-7 16-16 16v0h-288c-9 0-16-7-16-16v0-304h-240c0 0 0 0 0 0-9 0-16-7-16-16 0-4 2-8 4-11l0 0 401-416c2-3 6-5 11-5s9 2 12 5l0 0 400 416c2 3 4 7 4 11 0 2 0 5-1 6l0 0z" />
<glyph glyph-name="arrow-down-left-alt" unicode="&#xea68;" d="M827 571l-192 192c-3 3-7 5-11 5s-8-2-11-5v0l-213-212-181 180c-3 3-7 5-11 5-2 0-4 0-6-1l0 0c-6-3-10-8-10-15v0-576c0-9 7-16 16-16v0h576c0 0 0 0 0 0 9 0 16 7 16 16 0 4-2 8-5 11v0l-180 181 212 213c3 3 5 7 5 11s-2 8-5 11v0z" />
<glyph glyph-name="arrow-down-right-alt" unicode="&#xea69;" d="M822 735c-2 1-4 1-6 1-4 0-8-2-11-5v0l-181-180-213 212c-3 3-7 5-11 5s-8-2-11-5v0l-192-192c-3-3-5-7-5-11s2-8 5-11v0l212-213-180-181c-3-3-5-7-5-11 0-9 7-16 16-16 0 0 0 0 0 0h576c9 0 16 7 16 16v0 576c0 7-4 12-10 15l0 0z" />
<glyph glyph-name="arrow-left" unicode="&#xf060;" d="M864 480h-627l234 233c6 6 9 14 9 23 0 18-14 32-32 32-9 0-17-3-23-9l-288-288c-5-6-9-14-9-23s4-17 9-23l288-288c6-5 14-9 23-9 17 0 32 15 32 32 0 9-4 17-9 23l-234 233h627c18 0 32 14 32 32s-14 32-32 32v0z" />
<glyph glyph-name="arrow-left-alt" unicode="&#xea6b;" d="M880 608h-304v240c0 0 0 0 0 0 0 9-7 16-16 16-4 0-8-2-11-4l0 0-416-401c-3-2-5-6-5-11s2-9 5-12l0 0 416-400c3-2 7-4 11-4 9 0 16 7 16 16 0 0 0 0 0 0v0 240h304c9 0 16 7 16 16v0 288c0 9-7 16-16 16v0z" />
<glyph glyph-name="arrow-right" unicode="&#xf061;" d="M887 471l-288 288c-6 5-14 9-23 9-17 0-32-15-32-32 0-9 4-17 9-23l234-233h-627c-18 0-32-14-32-32s14-32 32-32v0h627l-234-233c-6-6-9-14-9-23 0-18 14-32 32-32 9 0 17 3 23 9l288 288c5 6 9 14 9 23s-4 17-9 23v0z" />
<glyph glyph-name="arrow-right-alt" unicode="&#xea6c;" d="M891 459l-416 401c-3 2-7 4-11 4-2 0-4 0-6-1l0 0c-6-3-10-8-10-15 0 0 0 0 0 0v0-240h-304c-9 0-16-7-16-16v0-288c0-9 7-16 16-16v0h304v-240c0 0 0 0 0 0 0-9 7-16 16-16 4 0 8 2 11 4l0 0 416 400c3 3 5 7 5 12s-2 9-5 11l0 0z" />
<glyph glyph-name="arrow-up" unicode="&#xf062;" d="M823 535l-288 288c-6 5-14 9-23 9s-17-4-23-9l-288-288c-5-6-9-14-9-23 0-17 15-32 32-32 9 0 17 4 23 9l233 234v-627c0-18 14-32 32-32s32 14 32 32v0 627l233-234c6-5 14-9 23-9 17 0 32 15 32 32 0 9-4 17-9 23l0 0z" />
<glyph glyph-name="arrow-up-alt" unicode="&#xea6f;" d="M924 411l-400 416c-4 3-7 5-12 5s-8-2-11-5l0 0-401-416c-2-3-4-7-4-11 0-9 7-16 16-16 0 0 0 0 0 0h240v-304c0-9 7-16 16-16v0h288c9 0 16 7 16 16v0 304h240c0 0 0 0 0 0 9 0 16 7 16 16 0 4-2 8-4 11l0 0z" />
<glyph glyph-name="arrow-up-left-alt" unicode="&#xea6d;" d="M827 347l-212 213 180 181c3 3 5 7 5 11 0 9-7 16-16 16 0 0 0 0 0 0h-576c-9 0-16-7-16-16v0-576c0 0 0 0 0 0 0-9 7-16 16-16 4 0 8 2 11 5v0l181 180 213-212c3-3 7-5 11-5s8 2 11 5v0l192 192c3 3 5 7 5 11s-2 8-5 11v0z" />
<glyph glyph-name="arrow-up-right-alt" unicode="&#xea6e;" d="M816 768h-576c0 0 0 0 0 0-9 0-16-7-16-16 0-4 2-8 5-11v0l180-181-212-213c-3-3-5-7-5-11s2-8 5-11v0l192-192c3-3 7-5 11-5s8 2 11 5v0l213 212 181-180c3-3 7-5 11-5 9 0 16 7 16 16 0 0 0 0 0 0v0 576c0 9-7 16-16 16v0z" />
<glyph glyph-name="arrows" unicode="&#xf047;" d="M951 471l-128 128c-6 5-14 9-23 9-17 0-32-15-32-32 0-9 4-17 9-23l74-73h-307v307l73-74c6-5 14-9 23-9 17 0 32 15 32 32 0 9-4 17-9 23l-128 128c-6 5-14 9-23 9s-17-4-23-9l-128-128c-5-6-9-14-9-23 0-17 15-32 32-32 9 0 17 4 23 9l73 74v-307h-307l74 73c5 6 9 14 9 23 0 17-15 32-32 32-9 0-17-4-23-9l-128-128c-5-6-9-14-9-23s4-17 9-23l128-128c6-6 14-9 23-9 18 0 32 14 32 32 0 9-3 17-9 23l-74 73h307v-307l-73 74c-6 5-14 9-23 9-17 0-32-15-32-32 0-9 4-17 9-23l128-128c6-5 14-9 23-9s17 4 23 9l128 128c5 6 9 14 9 23 0 17-15 32-32 32-9 0-17-4-23-9l-73-74v307h307l-74-73c-6-6-9-14-9-23 0-18 14-32 32-32 9 0 17 3 23 9l128 128c5 6 9 14 9 23s-4 17-9 23v0z" />
<glyph glyph-name="arrows-alt" unicode="&#xf0b2;" d="M832 555c18 0 32 14 32 32v0 181c0 18-14 32-32 32v0h-181c-18 0-32-14-32-32s14-32 32-32v0h104l-243-243-243 243h104c18 0 32 14 32 32s-14 32-32 32v0h-181c-18 0-32-14-32-32v0-181c0-18 14-32 32-32s32 14 32 32v0 104l243-243-243-243v104c0 18-14 32-32 32s-32-14-32-32v0-181c0-18 14-32 32-32v0h181c18 0 32 14 32 32s-14 32-32 32v0h-104l243 243 243-243h-104c-18 0-32-14-32-32s14-32 32-32v0h181c18 0 32 14 32 32v0 181c0 18-14 32-32 32s-32-14-32-32v0-104l-243 243 243 243v-104c0-18 14-32 32-32v0z" />
<glyph glyph-name="arrows-h" unicode="&#xf07e;" d="M951 471l-192 192c-6 5-14 9-23 9-17 0-32-15-32-32 0-9 4-17 9-23l138-137h-678l138 137c5 6 9 14 9 23 0 17-15 32-32 32-9 0-17-4-23-9l-192-192c-5-6-9-14-9-23s4-17 9-23l192-192c6-5 14-9 23-9 17 0 32 15 32 32 0 9-4 17-9 23l-138 137h678l-138-137c-6-6-9-14-9-23 0-18 14-32 32-32 9 0 17 3 23 9l192 192c5 6 9 14 9 23s-4 17-9 23v0z" />
<glyph glyph-name="arrows-v" unicode="&#xf07d;" d="M681 247l-137-138v678l137-138c6-5 14-9 23-9 17 0 32 15 32 32 0 9-4 17-9 23l-192 192c-6 5-14 9-23 9s-17-4-23-9l-192-192c-5-6-9-14-9-23 0-17 15-32 32-32 9 0 17 4 23 9l137 138v-678l-137 138c-6 5-14 9-23 9-17 0-32-15-32-32 0-9 4-17 9-23l192-192c6-5 14-9 23-9s17 4 23 9l192 192c5 6 9 14 9 23 0 17-15 32-32 32-9 0-17-4-23-9l0 0z" />
<glyph glyph-name="box-arrow-in-east" unicode="&#xf090;" d="M489 279c-6-6-9-14-9-23 0-18 14-32 32-32 9 0 17 3 23 9l192 192c5 6 9 14 9 23s-4 17-9 23l-192 192c-6 5-14 9-23 9-17 0-32-15-32-32 0-9 4-17 9-23l138-137h-531c-18 0-32-14-32-32s14-32 32-32v0h531z m311 553h-576c-53 0-96-43-96-96v0-112c0-9 7-16 16-16s16 7 16 16v0 112c0 35 29 64 64 64v0h576c35 0 64-29 64-64v0-576c0-35-29-64-64-64v0h-576c-35 0-64 29-64 64v0 112c0 9-7 16-16 16s-16-7-16-16v0-112c0-53 43-96 96-96v0h576c53 0 96 43 96 96v0 576c0 53-43 96-96 96v0z" />
<glyph glyph-name="box-arrow-in-ne" unicode="&#xe9cf;" d="M608 288c0-18 14-32 32-32s32 14 32 32v0 288c0 18-14 32-32 32v0h-288c-18 0-32-14-32-32s14-32 32-32v0h211l-362-361c-6-6-9-14-9-23 0-18 14-32 32-32 9 0 17 3 23 9l361 362z m192 544h-576c-53 0-96-43-96-96v0-336c0-9 7-16 16-16s16 7 16 16v0 336c0 35 29 64 64 64v0h576c35 0 64-29 64-64v0-576c0-35-29-64-64-64v0h-336c-9 0-16-7-16-16s7-16 16-16v0h336c53 0 96 43 96 96v0 576c0 53-43 96-96 96v0z" />
<glyph glyph-name="box-arrow-in-north" unicode="&#xe9d0;" d="M681 425c6-5 14-9 23-9 17 0 32 15 32 32 0 9-4 17-9 23l-192 192c-6 5-14 9-23 9s-17-4-23-9l-192-192c-5-6-9-14-9-23 0-17 15-32 32-32 9 0 17 4 23 9l137 138v-531c0-18 14-32 32-32s32 14 32 32v0 531z m119 407h-576c-53 0-96-43-96-96v0-576c0-53 43-96 96-96v0h112c9 0 16 7 16 16s-7 16-16 16v0h-112c-35 0-64 29-64 64v0 576c0 35 29 64 64 64v0h576c35 0 64-29 64-64v0-576c0-35-29-64-64-64v0h-112c-9 0-16-7-16-16s7-16 16-16v0h112c53 0 96 43 96 96v0 576c0 53-43 96-96 96v0z" />
<glyph glyph-name="box-arrow-in-nw" unicode="&#xe9d1;" d="M461 544h211c18 0 32 14 32 32s-14 32-32 32v0h-288c-18 0-32-14-32-32v0-288c0-18 14-32 32-32s32 14 32 32v0 211l361-362c6-5 14-9 23-9 17 0 32 15 32 32 0 9-4 17-9 23l0 0z m339 288h-576c-53 0-96-43-96-96v0-576c0-53 43-96 96-96v0h336c9 0 16 7 16 16s-7 16-16 16v0h-336c-35 0-64 29-64 64v0 576c0 35 29 64 64 64v0h576c35 0 64-29 64-64v0-336c0-9 7-16 16-16s16 7 16 16v0 336c0 53-43 96-96 96v0z" />
<glyph glyph-name="box-arrow-in-se" unicode="&#xe9d2;" d="M563 352h-211c-18 0-32-14-32-32s14-32 32-32v0h288c18 0 32 14 32 32v0 288c0 18-14 32-32 32s-32-14-32-32v0-211l-377 378c-6 5-14 9-23 9-17 0-32-15-32-32 0-9 4-17 9-23l0 0z m237 480h-336c-9 0-16-7-16-16s7-16 16-16v0h336c35 0 64-29 64-64v0-576c0-35-29-64-64-64v0h-576c-35 0-64 29-64 64v0 336c0 9-7 16-16 16s-16-7-16-16v0-336c0-53 43-96 96-96v0h576c53 0 96 43 96 96v0 576c0 53-43 96-96 96v0z" />
<glyph glyph-name="box-arrow-in-south" unicode="&#xe9d3;" d="M343 471c-6 5-14 9-23 9-17 0-32-15-32-32 0-9 4-17 9-23l192-192c6-5 14-9 23-9s17 4 23 9l192 192c5 6 9 14 9 23 0 17-15 32-32 32-9 0-17-4-23-9l-137-138v531c0 18-14 32-32 32s-32-14-32-32v0-531z m457 361h-112c-9 0-16-7-16-16s7-16 16-16v0h112c35 0 64-29 64-64v0-576c0-35-29-64-64-64v0h-576c-35 0-64 29-64 64v0 576c0 35 29 64 64 64v0h112c9 0 16 7 16 16s-7 16-16 16v0h-112c-53 0-96-43-96-96v0-576c0-53 43-96 96-96v0h576c53 0 96 43 96 96v0 576c0 53-43 96-96 96v0z" />
<glyph glyph-name="box-arrow-in-sw" unicode="&#xe9d4;" d="M416 608c0 18-14 32-32 32s-32-14-32-32v0-288c0-18 14-32 32-32v0h288c18 0 32 14 32 32s-14 32-32 32v0h-211l362 361c6 6 9 14 9 23 0 18-14 32-32 32-9 0-17-3-23-9l-361-362z m464-96c-9 0-16-7-16-16v0-336c0-35-29-64-64-64v0h-576c-35 0-64 29-64 64v0 576c0 35 29 64 64 64v0h336c9 0 16 7 16 16s-7 16-16 16v0h-336c-53 0-96-43-96-96v0-576c0-53 43-96 96-96v0h576c53 0 96 43 96 96v0 336c0 9-7 16-16 16v0z" />
<glyph glyph-name="box-arrow-in-west" unicode="&#xe9d5;" d="M928 480h-531l138 137c5 6 9 14 9 23 0 17-15 32-32 32-9 0-17-4-23-9l-192-192c-5-6-9-14-9-23s4-17 9-23l192-192c6-5 14-9 23-9 17 0 32 15 32 32 0 9-4 17-9 23l-138 137h531c18 0 32 14 32 32s-14 32-32 32v0z m-48-192c-9 0-16-7-16-16v0-112c0-35-29-64-64-64v0h-576c-35 0-64 29-64 64v0 576c0 35 29 64 64 64v0h576c35 0 64-29 64-64v0-112c0-9 7-16 16-16s16 7 16 16v0 112c0 53-43 96-96 96v0h-576c-53 0-96-43-96-96v0-576c0-53 43-96 96-96v0h576c53 0 96 43 96 96v0 112c0 9-7 16-16 16v0z" />
<glyph glyph-name="box-arrow-out-east" unicode="&#xf08b;" d="M951 471l-192 192c-6 5-14 9-23 9-17 0-32-15-32-32 0-9 4-17 9-23l138-137h-531c-18 0-32-14-32-32s14-32 32-32v0h531l-138-137c-6-6-9-14-9-23 0-18 14-32 32-32 9 0 17 3 23 9l192 192c5 6 9 14 9 23s-4 17-9 23v0z m-71-295c-9 0-16-7-16-16v0c0-35-29-64-64-64v0h-576c-35 0-64 29-64 64v0 576c0 35 29 64 64 64v0h576c35 0 64-29 64-64v0c0-9 7-16 16-16s16 7 16 16v0c0 53-43 96-96 96v0h-576c-53 0-96-43-96-96v0-576c0-53 43-96 96-96v0h576c53 0 96 43 96 96v0c0 9-7 16-16 16v0z" />
<glyph glyph-name="external-link" unicode="&#xf08e;" d="M361 297c6-5 14-9 23-9s17 4 23 9l361 362v-211c0-18 14-32 32-32s32 14 32 32v0 288c0 18-14 32-32 32v0h-288c-18 0-32-14-32-32s14-32 32-32v0h211l-362-361c-5-6-9-14-9-23s4-17 9-23v0z m519-9c-9 0-16-7-16-16v0-112c0-35-29-64-64-64v0h-576c-35 0-64 29-64 64v0 576c0 35 29 64 64 64v0h112c9 0 16 7 16 16s-7 16-16 16v0h-112c-53 0-96-43-96-96v0-576c0-53 43-96 96-96v0h576c53 0 96 43 96 96v0 112c0 9-7 16-16 16v0z" />
<glyph glyph-name="external-link" unicode="&#xf08e;" d="M361 297c6-5 14-9 23-9s17 4 23 9l361 362v-211c0-18 14-32 32-32s32 14 32 32v0 288c0 18-14 32-32 32v0h-288c-18 0-32-14-32-32s14-32 32-32v0h211l-362-361c-5-6-9-14-9-23s4-17 9-23v0z m519-9c-9 0-16-7-16-16v0-112c0-35-29-64-64-64v0h-576c-35 0-64 29-64 64v0 576c0 35 29 64 64 64v0h112c9 0 16 7 16 16s-7 16-16 16v0h-112c-53 0-96-43-96-96v0-576c0-53 43-96 96-96v0h576c53 0 96 43 96 96v0 112c0 9-7 16-16 16v0z" />
<glyph glyph-name="box-arrow-out-north" unicode="&#xe9d6;" d="M343 649l137 138v-531c0-18 14-32 32-32s32 14 32 32v0 531l137-138c6-5 14-9 23-9 17 0 32 15 32 32 0 9-4 17-9 23l-192 192c-6 5-14 9-23 9s-17-4-23-9l-192-192c-5-6-9-14-9-23 0-17 15-32 32-32 9 0 17 4 23 9l0 0z m457 183c-9 0-16-7-16-16s7-16 16-16v0c35 0 64-29 64-64v0-576c0-35-29-64-64-64v0h-576c-35 0-64 29-64 64v0 576c0 35 29 64 64 64v0c9 0 16 7 16 16s-7 16-16 16v0c-53 0-96-43-96-96v0-576c0-53 43-96 96-96v0h576c53 0 96 43 96 96v0 576c0 53-43 96-96 96v0z" />
<glyph glyph-name="box-arrow-out-nw" unicode="&#xe9d7;" d="M224 416c18 0 32 14 32 32v0 211l361-362c6-5 14-9 23-9 17 0 32 15 32 32 0 9-4 17-9 23l-362 361h211c18 0 32 14 32 32s-14 32-32 32v0h-288c-18 0-32-14-32-32v0-288c0-18 14-32 32-32v0z m576 416h-112c-9 0-16-7-16-16s7-16 16-16v0h112c35 0 64-29 64-64v0-576c0-35-29-64-64-64v0h-576c-35 0-64 29-64 64v0 112c0 9-7 16-16 16s-16-7-16-16v0-112c0-53 43-96 96-96v0h576c53 0 96 43 96 96v0 576c0 53-43 96-96 96v0z" />
<glyph glyph-name="box-arrow-out-se" unicode="&#xe9d8;" d="M800 480c-18 0-32-14-32-32v0-211l-361 362c-6 5-14 9-23 9-17 0-32-15-32-32 0-9 4-17 9-23l362-361h-211c-18 0-32-14-32-32s14-32 32-32v0h288c18 0 32 14 32 32v0 288c0 18-14 32-32 32v0z m0 352h-576c-53 0-96-43-96-96v0-576c0-53 43-96 96-96v0h112c9 0 16 7 16 16s-7 16-16 16v0h-112c-35 0-64 29-64 64v0 576c0 35 29 64 64 64v0h576c35 0 64-29 64-64v0-112c0-9 7-16 16-16s16 7 16 16v0 112c0 53-43 96-96 96v0z" />
<glyph glyph-name="box-arrow-out-south" unicode="&#xe9d9;" d="M681 247l-137-138v531c0 18-14 32-32 32s-32-14-32-32v0-531l-137 138c-6 5-14 9-23 9-17 0-32-15-32-32 0-9 4-17 9-23l192-192c6-5 14-9 23-9s17 4 23 9l192 192c5 6 9 14 9 23 0 17-15 32-32 32-9 0-17-4-23-9l0 0z m119 585h-576c-53 0-96-43-96-96v0-576c0-53 43-96 96-96v0c9 0 16 7 16 16s-7 16-16 16v0c-35 0-64 29-64 64v0 576c0 35 29 64 64 64v0h576c35 0 64-29 64-64v0-576c0-35-29-64-64-64v0c-9 0-16-7-16-16s7-16 16-16v0c53 0 96 43 96 96v0 576c0 53-43 96-96 96v0z" />
<glyph glyph-name="box-arrow-out-sw" unicode="&#xe9da;" d="M663 599c-6 5-14 9-23 9s-17-4-23-9l-361-362v211c0 18-14 32-32 32s-32-14-32-32v0-288c0-18 14-32 32-32v0h288c18 0 32 14 32 32s-14 32-32 32v0h-211l362 361c5 6 9 14 9 23s-4 17-9 23v0z m137 233h-576c-53 0-96-43-96-96v0-112c0-9 7-16 16-16s16 7 16 16v0 112c0 35 29 64 64 64v0h576c35 0 64-29 64-64v0-576c0-35-29-64-64-64v0h-112c-9 0-16-7-16-16s7-16 16-16v0h112c53 0 96 43 96 96v0 576c0 53-43 96-96 96v0z" />
<glyph glyph-name="box-arrow-out-west" unicode="&#xe9db;" d="M288 224c18 0 32 14 32 32 0 9-4 17-9 23l-138 137h531c18 0 32 14 32 32s-14 32-32 32v0h-531l138 137c5 6 9 14 9 23 0 17-15 32-32 32-9 0-17-4-23-9l-192-192c-5-6-9-14-9-23s4-17 9-23l192-192c6-5 14-9 23-9v0z m512 608h-576c-53 0-96-43-96-96v0c0-9 7-16 16-16s16 7 16 16v0c0 35 29 64 64 64v0h576c35 0 64-29 64-64v0-576c0-35-29-64-64-64v0h-576c-35 0-64 29-64 64v0c0 9-7 16-16 16s-16-7-16-16v0c0-53 43-96 96-96v0h576c53 0 96 43 96 96v0 576c0 53-43 96-96 96v0z" />
<glyph glyph-name="caret-down" unicode="&#xf0d7;" d="M668 560c-6 10-16 16-28 16h-256c0 0 0 0 0 0-18 0-32-14-32-32 0-6 2-11 4-16l0 0 128-224c6-10 16-16 28-16s22 6 28 16l0 0 128 224c2 5 4 10 4 16 0 6-2 11-4 16l0 0z" />
<glyph glyph-name="caret-left" unicode="&#xf0d9;" d="M624 604c-5 2-10 4-16 4s-11-2-16-4l0 0-224-128c-10-6-16-16-16-28s6-22 16-28l0 0 224-128c5-3 10-4 16-4 18 0 32 14 32 32 0 0 0 0 0 0v0 256c0 12-6 22-16 28l0 0z" />
<glyph glyph-name="caret-right" unicode="&#xf0da;" d="M656 476l-224 128c-5 2-10 4-16 4-18 0-32-14-32-32 0 0 0 0 0 0v0-256c0 0 0 0 0 0 0-18 14-32 32-32 6 0 11 1 16 4l0 0 224 128c10 6 16 16 16 28s-6 22-16 28l0 0z" />
<glyph glyph-name="toggle-down" unicode="&#xf150;" d="M656 544h-288c-6 0-12-4-15-9-2-6-1-13 3-18l144-160c3-3 7-5 12-5s9 2 12 5l144 160c4 5 5 12 3 18-3 5-9 9-15 9z m160 288h-608c-44 0-80-36-80-80v-608c0-44 36-80 80-80h608c44 0 80 36 80 80v608c0 44-36 80-80 80z m48-688c0-26-22-48-48-48h-608c-26 0-48 22-48 48v608c0 26 22 48 48 48h608c26 0 48-22 48-48v-608z" />
<glyph glyph-name="toggle-left" unicode="&#xf191;" d="M599 607c-6 2-13 1-18-3l-160-144c-3-3-5-7-5-12s2-9 5-12l160-144c3-3 7-4 11-4 2 0 4 0 7 1 5 3 9 9 9 15v288c0 6-4 12-9 15z m217 225h-608c-44 0-80-36-80-80v-608c0-44 36-80 80-80h608c44 0 80 36 80 80v608c0 44-36 80-80 80z m48-688c0-26-22-48-48-48h-608c-26 0-48 22-48 48v608c0 26 22 48 48 48h608c26 0 48-22 48-48v-608z" />
<glyph glyph-name="toggle-right" unicode="&#xf152;" d="M443 604c-5 4-12 5-18 3-5-3-9-9-9-15v-288c0-6 4-12 9-15 3-1 5-1 7-1 4 0 8 1 11 4l160 144c3 3 5 7 5 12s-2 9-5 12l-160 144z m373 228h-608c-44 0-80-36-80-80v-608c0-44 36-80 80-80h608c44 0 80 36 80 80v608c0 44-36 80-80 80z m48-688c0-26-22-48-48-48h-608c-26 0-48 22-48 48v608c0 26 22 48 48 48h608c26 0 48-22 48-48v-608z" />
<glyph glyph-name="toggle-up" unicode="&#xf151;" d="M524 539c-6 6-18 6-24 0l-144-160c-4-5-5-12-3-18 3-5 9-9 15-9h288c6 0 12 4 15 9 2 6 1 13-3 18l-144 160z m292 293h-608c-44 0-80-36-80-80v-608c0-44 36-80 80-80h608c44 0 80 36 80 80v608c0 44-36 80-80 80z m48-688c0-26-22-48-48-48h-608c-26 0-48 22-48 48v608c0 26 22 48 48 48h608c26 0 48-22 48-48v-608z" />
<glyph glyph-name="caret-up" unicode="&#xf0d8;" d="M668 368l-128 224c-6 9-16 15-28 15s-22-6-28-15l0 0-128-224c-3-5-4-10-4-16 0-18 14-32 32-32 0 0 0 0 0 0h256c0 0 0 0 0 0 18 0 32 14 32 32 0 6-1 11-4 16l0 0z" />
<glyph glyph-name="chevron-circle-down" unicode="&#xf13a;" d="M960 448c0 247-201 448-448 448s-448-201-448-448c0-247 201-448 448-448v0c247 0 448 201 448 448v0z m-471-135l-160 160c-5 6-9 14-9 23 0 17 15 32 32 32 9 0 17-4 23-9l137-138 137 138c6 5 14 9 23 9 17 0 32-15 32-32 0-9-4-17-9-23l-160-160c-6-5-14-9-23-9s-17 4-23 9v0z" />
<glyph glyph-name="chevron-circle-left" unicode="&#xf137;" d="M64 448c0-247 201-448 448-448s448 201 448 448c0 247-201 448-448 448v0c-247 0-448-201-448-448v0z m313 23l160 160c6 5 14 9 23 9 17 0 32-15 32-32 0-9-4-17-9-23l-138-137 138-137c6-6 9-14 9-23 0-18-14-32-32-32-9 0-17 3-23 9l-160 160c-5 6-9 14-9 23s4 17 9 23v0z" />
<glyph glyph-name="chevron-circle-right" unicode="&#xf138;" d="M512 896c-247 0-448-201-448-448s201-448 448-448c247 0 448 201 448 448v0c0 247-201 448-448 448h0z m135-471l-160-160c-6-5-14-9-23-9-17 0-32 15-32 32 0 9 4 17 9 23l138 137-138 137c-5 6-9 14-9 23 0 17 15 32 32 32 9 0 17-4 23-9l160-160c5-6 9-14 9-23s-4-17-9-23v0z" />
<glyph glyph-name="chevron-circle-up" unicode="&#xf139;" d="M512 896c-247 0-448-201-448-448s201-448 448-448c247 0 448 201 448 448v0c0 247-201 448-448 448h0z m23-313l160-160c5-6 9-14 9-23 0-17-15-32-32-32-9 0-17 4-23 9l-137 138-137-138c-6-6-14-9-23-9-18 0-32 14-32 32 0 9 3 17 9 23l160 160c6 5 14 9 23 9s17-4 23-9v0z" />
<glyph glyph-name="chevron-down" unicode="&#xf078;" d="M855 631c-6 5-14 9-23 9s-17-4-23-9l-297-298-297 298c-6 5-14 9-23 9-17 0-32-15-32-32 0-9 4-17 9-23l320-320c6-5 14-9 23-9s17 4 23 9l320 320c5 6 9 14 9 23s-4 17-9 23v0z" />
<glyph glyph-name="chevron-left" unicode="&#xf053;" d="M397 448l298 297c6 6 9 14 9 23 0 18-14 32-32 32-9 0-17-3-23-9l-320-320c-5-6-9-14-9-23s4-17 9-23l320-320c6-5 14-9 23-9 17 0 32 15 32 32 0 9-4 17-9 23l0 0z" />
<glyph glyph-name="chevron-right" unicode="&#xf054;" d="M695 471l-320 320c-6 5-14 9-23 9-17 0-32-15-32-32 0-9 4-17 9-23l298-297-298-297c-6-6-9-14-9-23 0-18 14-32 32-32 9 0 17 3 23 9l320 320c5 6 9 14 9 23s-4 17-9 23v0z" />
<glyph glyph-name="chevron-up" unicode="&#xf077;" d="M855 311l-320 320c-6 5-14 9-23 9s-17-4-23-9l-320-320c-5-6-9-14-9-23 0-17 15-32 32-32 9 0 17 4 23 9l297 298 297-298c6-5 14-9 23-9 17 0 32 15 32 32 0 9-4 17-9 23l0 0z" />
<glyph glyph-name="circle-arrow-in-east" unicode="&#xe9dc;" d="M489 279c-6-6-9-14-9-23 0-18 14-32 32-32 9 0 17 3 23 9l192 192c5 6 9 14 9 23s-4 17-9 23l-192 192c-6 5-14 9-23 9-17 0-32-15-32-32 0-9 4-17 9-23l138-137h-531c-18 0-32-14-32-32s14-32 32-32v0h531z m23 617c-181 0-337-108-408-263l-1-3c0-2-1-4-1-6 0-9 7-16 16-16 6 0 12 4 15 9l0 0c66 147 211 247 379 247 230 0 416-186 416-416s-186-416-416-416c-168 0-313 100-378 244l-1 2c-3 6-9 10-15 10-9 0-16-7-16-16 0-2 0-5 1-7l0 0c72-157 228-265 409-265 247 0 448 201 448 448s-201 448-448 448c0 0 0 0 0 0h0z" />
<glyph glyph-name="circle-arrow-in-ne" unicode="&#xe9dd;" d="M608 288c0-18 14-32 32-32s32 14 32 32v0 288c0 18-14 32-32 32v0h-288c-18 0-32-14-32-32s14-32 32-32v0h211l-378-377c-6-6-9-14-9-23 0-18 14-32 32-32 9 0 17 3 23 9l377 378z m221 477c-81 81-193 131-317 131-247 0-448-201-448-448 0-58 11-113 31-163l-1 3c2-6 8-10 15-10 8 0 16 7 16 16 0 2-1 4-1 6l0-1c-18 45-28 96-28 149 0 230 186 416 416 416s416-186 416-416c0-230-186-416-416-416-53 0-105 10-151 29l2-1c-1 0-3 1-5 1-9 0-16-8-16-17 0-6 4-12 10-14l0 0c47-19 102-30 160-30 247 0 448 201 448 448 0 124-50 236-131 317l0 0z" />
<glyph glyph-name="circle-arrow-in-north" unicode="&#xe9de;" d="M681 425c6-5 14-9 23-9 17 0 32 15 32 32 0 9-4 17-9 23l-192 192c-6 5-14 9-23 9s-17-4-23-9l-192-192c-5-6-9-14-9-23 0-17 15-32 32-32 9 0 17 4 23 9l137 138v-531c0-18 14-32 32-32s32 14 32 32v0 531z m-169 471c0 0 0 0 0 0-248 0-448-200-448-448 0-181 108-337 263-408l3-1c2 0 4-1 6-1 9 0 16 7 16 16 0 6-4 12-9 15l0 0c-147 66-247 211-247 379 0 230 186 416 416 416s416-186 416-416c0-168-100-313-244-378l-2-1c-6-3-10-9-10-15 0-9 7-16 16-16h0c2 0 5 0 7 1l-1 0c158 72 266 228 266 409 0 248-200 448-448 448 0 0 0 0 0 0h0z" />
<glyph glyph-name="circle-arrow-in-nw" unicode="&#xe9df;" d="M461 544h211c18 0 32 14 32 32s-14 32-32 32v0h-288c-18 0-32-14-32-32v0-288c0-18 14-32 32-32s32 14 32 32v0 211l377-378c6-5 14-9 23-9 17 0 32 15 32 32 0 9-4 17-9 23l0 0z m368 221c-81 81-193 131-317 131-247 0-448-200-448-448s201-448 448-448c58 0 113 11 163 31l-3-1c7 2 11 8 11 15 0 9-7 16-16 16-2 0-4-1-6-2l0 1c-44-18-95-28-149-28-230 0-416 186-416 416s186 416 416 416c230 0 416-186 416-416 0-53-10-104-28-151l1 2c-1-2-2-4-2-6 0-9 8-16 16-16 7 0 13 5 16 11l0 0c18 47 29 102 29 160 0 124-50 236-131 317l0 0z" />
<glyph glyph-name="circle-arrow-in-se" unicode="&#xe9e0;" d="M563 352h-211c-18 0-32-14-32-32s14-32 32-32v0h288c18 0 32 14 32 32v0 288c0 18-14 32-32 32s-32-14-32-32v0-211l-377 378c-6 5-14 9-23 9-17 0-32-15-32-32 0-9 4-17 9-23l0 0z m266 413c-81 81-193 131-317 131-57 0-112-11-163-31l3 1c-6-2-10-8-10-14 0-9 8-16 16-16 2 0 4 0 6 1l-1 0c45 17 96 27 149 27 230 0 417-186 417-416s-187-416-417-416c-230 0-416 186-416 416 0 53 10 105 29 152l-1-3c0 1 1 3 1 5 0 9-8 16-16 16-7 0-13-4-15-10l0 0c-19-47-30-102-30-160 0-247 201-448 448-448s448 201 448 448c0 124-50 236-131 317l0 0z" />
<glyph glyph-name="circle-arrow-in-south" unicode="&#xe9e1;" d="M343 471c-6 5-14 9-23 9-17 0-32-15-32-32 0-9 4-17 9-23l192-192c6-5 14-9 23-9s17 4 23 9l192 192c5 6 9 14 9 23 0 17-15 32-32 32-9 0-17-4-23-9l-137-138v531c0 18-14 32-32 32s-32-14-32-32v0-531z m351 386c-1 0-4 1-6 1-9 0-16-7-16-16 0-6 4-12 9-15l0 0c147-66 247-211 247-379 0-230-186-416-416-416s-416 186-416 416c0 168 100 313 244 378l2 1c6 3 10 9 10 15 0 9-7 16-16 16-2 0-5 0-7-1l0 0c-157-72-265-228-265-409 0-248 200-448 448-448s448 200 448 448c0 181-108 337-263 408l-3 1z" />
<glyph glyph-name="circle-arrow-in-sw" unicode="&#xe9e2;" d="M416 608c0 18-14 32-32 32s-32-14-32-32v0-288c0-18 14-32 32-32v0h288c18 0 32 14 32 32s-14 32-32 32v0h-211l378 377c6 6 9 14 9 23 0 18-14 32-32 32-9 0-17-3-23-9l-377-378z m514 0c-2 6-8 11-15 11-9 0-16-7-16-16 0-2 1-5 2-7l0 1c17-45 27-96 27-149 0-230-186-416-416-416s-416 186-416 416c0 230 186 416 416 416 53 0 105-10 152-29l-3 1c2-1 4-1 6-1 9 0 16 7 16 16 0 7-4 13-11 15l0 0c-47 19-102 30-160 30-248 0-448-201-448-448s200-448 448-448c247 0 448 200 448 448 0 57-11 112-31 163l1-3z" />
<glyph glyph-name="circle-arrow-in-west" unicode="&#xe9e3;" d="M928 480h-531l138 137c5 6 9 14 9 23 0 17-15 32-32 32-9 0-17-4-23-9l-192-192c-5-6-9-14-9-23s4-17 9-23l192-192c6-5 14-9 23-9 17 0 32 15 32 32 0 9-4 17-9 23l-138 137h531c18 0 32 14 32 32s-14 32-32 32v0z m-15-193c-2 0-5 1-7 1-6 0-12-4-15-9l0 0c-66-147-211-247-379-247-230 0-416 186-416 416s186 416 416 416c168 0 313-100 378-244l1-3c3-5 9-9 15-9 9 0 16 7 16 16 0 2-1 5-1 7l0-1c-72 158-228 266-410 266-247 0-448-201-448-448s201-448 448-448c182 0 338 108 409 263l1 2c0 2 1 5 1 7 0 6-4 12-9 15l0 0z" />
<glyph glyph-name="circle-arrow-out-east" unicode="&#xe9e4;" d="M951 471l-192 192c-6 5-14 9-23 9-17 0-32-15-32-32 0-9 4-17 9-23l138-137h-531c-18 0-32-14-32-32s14-32 32-32v0h531l-138-137c-6-6-9-14-9-23 0-18 14-32 32-32 9 0 17 3 23 9l192 192c5 6 9 14 9 23s-4 17-9 23v0z m-223-377c-62-39-136-62-216-62h0c-230 0-416 186-416 416s186 416 416 416v0c80 0 154-23 217-63l-1 1c2-1 5-2 8-2 9 0 16 7 16 16 0 6-3 11-8 14l0 0c-66 41-146 66-232 66h0c-247 0-448-201-448-448s201-448 448-448v0c86 0 166 25 234 67l-2-1c5 3 8 8 8 14 0 9-7 16-16 16-3 0-6-1-9-2l1 0z" />
<glyph glyph-name="circle-arrow-out-ne" unicode="&#xe9e5;" d="M544 704h179l-362-361c-6-6-9-14-9-23 0-18 14-32 32-32 9 0 17 3 23 9l361 362v-179c0-18 14-32 32-32s32 14 32 32v0 256c0 18-14 32-32 32v0h-256c-18 0-32-14-32-32s14-32 32-32v0z m390-342c-1 0-2 0-3 0-8 0-14-5-16-12l0 0c-44-184-207-318-401-318-1 0-2 0-2 0h0c-230 0-416 186-416 416 0 115 47 219 122 294v0c52 52 119 91 193 108l3 1c7 1 13 8 13 16 0 9-7 16-16 16-2 0-3-1-5-1l1 0c-84-20-155-61-212-117l0 0c-81-81-131-193-131-317 0-247 201-448 448-448 124 0 236 50 317 131v0c56 57 97 128 117 208l0 3c0 2 1 3 1 4 0 8-6 14-12 16l-1 0z" />
<glyph glyph-name="circle-arrow-out-north" unicode="&#xe9e6;" d="M343 649l137 138v-531c0-18 14-32 32-32s32 14 32 32v0 531l137-138c6-5 14-9 23-9 17 0 32 15 32 32 0 9-4 17-9 23l-192 192c-6 5-14 9-23 9s-17-4-23-9l-192-192c-5-6-9-14-9-23 0-17 15-32 32-32 9 0 17 4 23 9l0 0z m551 31c-3 5-8 8-14 8-9 0-16-7-16-16 0-3 1-6 2-9l0 1c39-62 62-136 62-216v0c0-230-186-416-416-416s-416 186-416 416v0c0 80 23 154 63 217l-1-1c1 2 2 5 2 8 0 9-7 16-16 16-6 0-11-3-14-8l0 0c-41-66-66-146-66-232v0c0-247 201-448 448-448s448 201 448 448v0c0 86-25 166-67 234l1-2z" />
<glyph glyph-name="circle-arrow-out-nw" unicode="&#xe9e7;" d="M224 448c18 0 32 14 32 32v0 179l361-362c6-5 14-9 23-9 17 0 32 15 32 32 0 9-4 17-9 23l-362 361h179c18 0 32 14 32 32s-14 32-32 32v0h-256c-18 0-32-14-32-32v0-256c0-18 14-32 32-32v0z m605 317c-57 56-128 97-208 117l-3 0c-2 0-3 1-4 1-8 0-14-6-16-13l0 0c0-1 0-2 0-3 0-8 5-14 12-16l0 0c184-44 318-207 318-402 0 0 0-1 0-1v0c0-230-186-416-416-416-115 0-219 47-294 122v0c-52 52-91 119-108 193l-1 3c-2 7-8 12-16 12-8 0-15-7-15-16 0-1 0-2 0-4l0 0c48-197 223-342 433-342 0 0 1 0 1 0h0c0 0 0 0 0 0 247 0 448 201 448 448 0 124-50 236-131 317v0z" />
<glyph glyph-name="circle-arrow-out-se" unicode="&#xe9e8;" d="M800 448c-18 0-32-14-32-32v0-179l-361 362c-6 5-14 9-23 9-17 0-32-15-32-32 0-9 4-17 9-23l362-361h-179c-18 0-32-14-32-32s14-32 32-32v0h256c18 0 32 14 32 32v0 256c0 18-14 32-32 32v0z m146 106c-48 197-223 342-433 342 0 0-1 0-1 0h0c0 0 0 0 0 0-248 0-448-201-448-448 0-124 50-236 131-317v0c57-56 128-97 208-117l3 0c1 0 3-1 4-1 0 0 0 0 0 0h0c9 0 16 8 16 16 0 8-5 14-12 16l0 0c-77 18-144 57-196 109l0 0c-75 75-122 179-122 294 0 230 186 416 416 416 115 0 219-47 294-122v0c52-52 91-119 108-193l1-3c2-7 8-12 15-12 2 0 3 0 4 0l0 0c7 2 13 8 13 16 0 1-1 2-1 4l0 0z" />
<glyph glyph-name="circle-arrow-out-south" unicode="&#xe9e9;" d="M681 247l-137-138v531c0 18-14 32-32 32s-32-14-32-32v0-531l-137 138c-6 5-14 9-23 9-17 0-32-15-32-32 0-9 4-17 9-23l192-192c6-5 14-9 23-9s17 4 23 9l192 192c5 6 9 14 9 23 0 17-15 32-32 32-9 0-17-4-23-9l0 0z m-169 649c-247 0-448-201-448-448v0c0-86 25-166 67-234l-1 2c3-5 8-8 14-8 9 0 16 7 16 16 0 3-1 6-2 9l0-1c-39 62-62 136-62 216v0c0 230 186 416 416 416s416-186 416-416v0c0-80-23-154-63-217l1 1c-1-2-2-5-2-8 0-9 7-16 16-16 6 0 11 3 14 8l0 0c41 66 66 146 66 232v0c0 247-201 448-448 448h0z" />
<glyph glyph-name="circle-arrow-out-sw" unicode="&#xe9ea;" d="M480 192h-179l362 361c5 6 9 14 9 23 0 17-15 32-32 32-9 0-17-4-23-9l-361-362v179c0 18-14 32-32 32s-32-14-32-32v0-256c0-18 14-32 32-32v0h256c18 0 32 14 32 32s-14 32-32 32v0z m349 573c-81 81-193 131-317 131s-236-50-317-131v0c-56-57-97-128-117-208l0-3c0-2-1-3-1-4 0-9 8-16 16-16 8 0 14 5 16 12l0 0c44 184 207 318 402 318 0 0 1 0 1 0h0c230 0 416-186 416-416 0-115-47-219-122-294v0c-52-52-119-91-193-108l-3-1c-7-2-12-8-12-16 0-8 7-15 16-15h0c0 0 0 0 0 0 1 0 2 0 4 0l0 0c197 48 342 223 342 433 0 0 0 1 0 1v0c0 0 0 1 0 1 0 124-50 235-131 316l0 0z" />
<glyph glyph-name="circle-arrow-out-west" unicode="&#xe9eb;" d="M311 233c5 6 9 14 9 23s-4 17-9 23l-138 137h534c18 0 32 14 32 32s-14 32-32 32v0h-534l138 137c5 6 9 14 9 23 0 17-15 32-32 32-9 0-17-4-23-9l-192-192c-5-6-9-14-9-23s4-17 9-23l192-192c6-5 14-9 23-9s17 4 23 9v0z m204 663c-86 0-166-25-234-67l2 1c-5-3-8-8-8-14 0-9 7-16 16-16 3 0 6 1 9 2l0 0c61 39 135 62 215 62h0c230 0 416-186 416-416s-186-416-416-416v0c-80 0-154 23-217 63l2-1c-3 1-6 2-9 2-9 0-16-7-16-16 0-6 3-11 8-14l0 0c66-41 146-66 232-66h0c248 0 448 201 448 448s-200 448-448 448v0z" />
<glyph glyph-name="exchange" unicode="&#xf0ec;" d="M265 457c6-5 14-9 23-9 17 0 32 15 32 32 0 9-4 17-9 23l-138 137h755c18 0 32 14 32 32s-14 32-32 32v0h-755l138 137c6 6 9 14 9 23 0 18-14 32-32 32-9 0-17-3-23-9l-192-192c-5-6-9-14-9-23s4-17 9-23v0z m494-18c-6 5-14 9-23 9-17 0-32-15-32-32 0-9 4-17 9-23l138-137h-755c-18 0-32-14-32-32s14-32 32-32v0h755l-138-137c-6-6-9-14-9-23 0-18 14-32 32-32 9 0 17 3 23 9l192 192c5 6 9 14 9 23s-4 17-9 23v0z" />
<glyph glyph-name="hand-o-down" unicode="&#xf0a7;" d="M752 736c9 0 16 7 16 16v128c0 9-7 16-16 16s-16-7-16-16v-112h-384v112c0 9-7 16-16 16s-16-7-16-16v-128c0-9 7-16 16-16h48v-6c0-32-17-58-32-75l-220-247c-6-7-6-16 0-22 49-48 128-47 176 1l44 41v-364c0-35 29-64 64-64s64 29 64 64v169c9-6 20-9 32-9 28 0 52 18 60 43 11-7 23-11 36-11 28 0 52 18 60 43 11-7 23-11 36-11 35 0 64 29 64 64v208c0 40-16 77-46 105-12 10-18 24-18 37v34h48z m-52-95c23-21 36-50 36-81v-208c0-18-14-32-32-32s-32 14-32 32c0 9-7 16-16 16s-16-7-16-16v-32c0-18-14-32-32-32s-32 14-32 32c0 9-7 16-16 16s-16-7-16-16v-32c0-18-14-32-32-32s-32 14-32 32c0 9-7 16-16 16s-16-7-16-16v-224c0-18-14-32-32-32s-32 14-32 32v402c0 6-4 12-10 14-6 3-12 2-17-3l-71-67c-32-32-83-36-119-11l209 235c26 29 40 63 40 96v6h256v-34c0-22 10-44 28-61z" />
<glyph glyph-name="hand-o-left" unicode="&#xf0a5;" d="M944 224h-112v384h112c9 0 16 7 16 16s-7 16-16 16h-128c-9 0-16-7-16-16v-48h-6c-32 0-58 17-75 32l-247 220c-7 6-16 6-22 0-48-49-47-129 1-176l41-44h-364c-35 0-64-29-64-64s29-64 64-64h169c-6-9-9-20-9-32 0-28 18-52 43-60-7-11-11-23-11-36 0-28 18-52 43-60-7-11-11-23-11-36 0-35 29-64 64-64h208c40 0 77 16 105 46 10 12 24 18 37 18h34v-48c0-9 7-16 16-16h128c9 0 16 7 16 16s-7 16-16 16z m-178 64c-22 0-44-10-61-28-21-23-50-36-81-36h-208c-18 0-32 14-32 32s14 32 32 32c9 0 16 7 16 16s-7 16-16 16h-32c-18 0-32 14-32 32s14 32 32 32c9 0 16 7 16 16s-7 16-16 16h-32c-18 0-32 14-32 32s14 32 32 32c9 0 16 7 16 16s-7 16-16 16h-224c-18 0-32 14-32 32s14 32 32 32h402c6 0 12 4 14 10s2 12-3 17l-67 71c-32 32-36 83-11 119l235-209c29-26 63-40 96-40h6v-256h-34z" />
<glyph glyph-name="hand-o-right" unicode="&#xf0a4;" d="M896 608h-364l41 43c48 48 49 128 1 176-6 7-16 7-22 1l-248-220c-16-15-42-32-74-32h-6v48c0 9-7 16-16 16h-128c-9 0-16-7-16-16s7-16 16-16h112v-384h-112c-9 0-16-7-16-16s7-16 16-16h128c9 0 16 7 16 16v48h34c13 0 27-6 37-18 28-30 65-46 105-46h208c35 0 64 29 64 64 0 13-4 25-11 36 25 8 43 32 43 60 0 13-4 25-11 36 25 8 43 32 43 60 0 12-3 23-9 32h169c35 0 64 29 64 64s-29 64-64 64z m0-96h-224c-9 0-16-7-16-16s7-16 16-16c18 0 32-14 32-32s-14-32-32-32h-32c-9 0-16-7-16-16s7-16 16-16c18 0 32-14 32-32s-14-32-32-32h-32c-9 0-16-7-16-16s7-16 16-16c18 0 32-14 32-32s-14-32-32-32h-208c-31 0-60 13-81 36-17 18-39 28-61 28h-34v256h6c33 0 67 14 96 40l235 209c25-36 21-87-11-119l-67-71c-5-5-6-11-3-17s8-10 14-10h402c18 0 32-14 32-32s-14-32-32-32z" />
<glyph glyph-name="hand-o-up" unicode="&#xf0a6;" d="M722 231c30 28 46 65 46 105v208c0 35-29 64-64 64-13 0-25-4-36-11-8 25-32 43-60 43-13 0-25-4-36-11-8 25-32 43-60 43-12 0-23-3-32-9v169c0 35-29 64-64 64s-64-29-64-64v-364l-43 41c-48 48-128 49-176 1-7-6-7-15-1-22l220-248c15-16 32-42 32-74v-6h-48c-9 0-16-7-16-16v-128c0-9 7-16 16-16s16 7 16 16v112h384v-112c0-9 7-16 16-16s16 7 16 16v128c0 9-7 16-16 16h-48v34c0 13 6 27 18 37z m-306-71v6c0 33-14 67-40 96l-209 235c36 25 87 21 119-11l71-67c5-5 11-6 17-3 6 2 10 8 10 14v402c0 18 14 32 32 32s32-14 32-32v-224c0-9 7-16 16-16s16 7 16 16c0 18 14 32 32 32s32-14 32-32v-32c0-9 7-16 16-16s16 7 16 16c0 18 14 32 32 32s32-14 32-32v-32c0-9 7-16 16-16s16 7 16 16c0 18 14 32 32 32s32-14 32-32v-208c0-31-13-60-36-81-18-17-28-39-28-61v-34h-256z" />
<glyph glyph-name="long-arrow-down" unicode="&#xf175;" d="M727 247c-6 5-14 9-23 9s-17-4-23-9l-137-138v755c0 18-14 32-32 32s-32-14-32-32v0-755l-137 138c-6 5-14 9-23 9-17 0-32-15-32-32 0-9 4-17 9-23l192-192c6-5 14-9 23-9s17 4 23 9l192 192c5 6 9 14 9 23s-4 17-9 23v0z" />
<glyph glyph-name="long-arrow-left" unicode="&#xf177;" d="M928 480h-755l138 137c5 6 9 14 9 23 0 17-15 32-32 32-9 0-17-4-23-9l-192-192c-5-6-9-14-9-23s4-17 9-23l192-192c6-5 14-9 23-9 17 0 32 15 32 32 0 9-4 17-9 23l-138 137h755c18 0 32 14 32 32s-14 32-32 32v0z" />
<glyph glyph-name="long-arrow-right" unicode="&#xf178;" d="M951 471l-192 192c-6 5-14 9-23 9-17 0-32-15-32-32 0-9 4-17 9-23l138-137h-755c-18 0-32-14-32-32s14-32 32-32v0h755l-138-137c-6-6-9-14-9-23 0-18 14-32 32-32 9 0 17 3 23 9l192 192c5 6 9 14 9 23s-4 17-9 23v0z" />
<glyph glyph-name="long-arrow-up" unicode="&#xf176;" d="M727 695l-192 192c-6 5-14 9-23 9s-17-4-23-9l-192-192c-5-6-9-14-9-23 0-17 15-32 32-32 9 0 17 4 23 9l137 138v-755c0-18 14-32 32-32s32 14 32 32v0 755l137-138c6-5 14-9 23-9 17 0 32 15 32 32 0 9-4 17-9 23l0 0z" />
<glyph glyph-name="page-bottom" unicode="&#xe90d;" d="M489 425c6-5 14-9 23-9s17 4 23 9l320 320c6 6 9 14 9 23 0 18-14 32-32 32-9 0-17-3-23-9l-297-298-297 298c-6 5-14 9-23 9-17 0-32-15-32-32 0-9 4-17 9-23l0 0z m343-265h-640c-18 0-32-14-32-32s14-32 32-32v0h640c18 0 32 14 32 32s-14 32-32 32v0z" />
<glyph glyph-name="page-first" unicode="&#xe90e;" d="M557 448l298 297c6 6 9 14 9 23 0 18-14 32-32 32-9 0-17-3-23-9l-320-320c-5-6-9-14-9-23s4-17 9-23l320-320c6-5 14-9 23-9 17 0 32 15 32 32 0 9-4 17-9 23l0 0z m-365 352c-18 0-32-14-32-32v0-640c0-18 14-32 32-32s32 14 32 32v0 640c0 18-14 32-32 32v0z" />
<glyph glyph-name="page-last" unicode="&#xe90f;" d="M215 791c-6 5-14 9-23 9-17 0-32-15-32-32 0-9 4-17 9-23l298-297-298-297c-6-6-9-14-9-23 0-18 14-32 32-32 9 0 17 3 23 9l320 320c5 6 9 14 9 23s-4 17-9 23v0z m617 9c-18 0-32-14-32-32v0-640c0-18 14-32 32-32s32 14 32 32v0 640c0 18-14 32-32 32v0z" />
<glyph glyph-name="page-top" unicode="&#xe910;" d="M535 471c-6 5-14 9-23 9s-17-4-23-9l-320-320c-5-6-9-14-9-23 0-17 15-32 32-32 9 0 17 4 23 9l297 298 297-298c6-5 14-9 23-9 17 0 32 15 32 32 0 9-4 17-9 23l0 0z m-343 265h640c18 0 32 14 32 32s-14 32-32 32v0h-640c-18 0-32-14-32-32s14-32 32-32v0z" />
<glyph glyph-name="awesome-face" unicode="&#xea8b;" d="M512 832c-212 0-384-172-384-384s172-384 384-384c212 0 384 172 384 384v0c0 212-172 384-384 384h0z m0-736c-194 0-352 158-352 352s158 352 352 352c194 0 352-158 352-352v0c0-194-158-352-352-352h0z m-269 384h186c0 0 0 0 0 0 7 0 14 5 15 13l0 0c3 10 4 22 4 35v0c0 79-50 144-112 144s-112-65-112-144c0-13 1-25 4-36l0 1c1-8 8-13 15-13 0 0 0 0 0 0h0z m93 160c6 0 12-1 17-3l0 0c-20-6-33-24-33-45 0-27 21-48 48-48 18 0 34 10 42 25l0 1c4-13 6-27 6-42 0 0 0 0 0 0v0c0-6 0-11-1-17l0 1h-158c-1 5-1 10-1 16v0c0 62 36 112 80 112z m288 32c-62 0-112-65-112-144 0-13 1-25 4-36l0 1c1-8 8-13 15-13 0 0 0 0 0 0h186c0 0 0 0 0 0 7 0 14 5 15 13l0 0c3 10 4 22 4 35v0c0 79-50 144-112 144z m74-102c4-13 6-27 6-42 0 0 0 0 0 0v0c0-6 0-11-1-17l0 1h-158c-1 5-1 10-1 16v0c0 62 36 112 80 112 6 0 12-1 17-3l0 0c-20-6-33-24-33-45 0-27 21-48 48-48 18 0 34 10 42 25l0 0z m20-154h-478c-9 0-16-7-16-16s7-16 16-16v0h20c20-129 119-224 236-224 121 0 223 102 238 238 0 1 0 1 0 2 0 9-7 16-16 16 0 0 0 0 0 0h0z m-222-224c-28 0-55 7-79 18l1 0c9 62 62 110 126 110h0c0 0 0 0 0 0 42 0 80-21 103-52l0-1c-36-45-90-74-151-75l0 0z" />
<glyph glyph-name="emoji-angry" unicode="&#x1f621;" d="M512 832c-212 0-384-172-384-384s172-384 384-384 384 172 384 384-172 384-384 384z m0-736c-194 0-352 158-352 352s158 352 352 352 352-158 352-352-158-352-352-352z m-64 304c0-27-14-48-32-48s-32 21-32 48c0 26 14 48 32 48s32-22 32-48z m192 0c0-27-14-48-32-48s-32 21-32 48c0 26 14 48 32 48s32-22 32-48z m-190 86c4-4 8-6 13-6 4 0 7 1 10 3 7 6 8 16 3 23-34 44-85 70-140 70-9 0-16-7-16-16s7-16 16-16c45 0 87-21 114-58z m238 90c-55 0-106-26-140-70-5-7-4-17 3-23 3-2 6-3 10-3 5 0 9 2 12 6 28 37 70 58 115 58 9 0 16 7 16 16s-7 16-16 16z m-261-325c-7-6-6-16 0-22 6-7 16-6 23 0 34 35 90 35 124 0 4-3 8-5 12-5 4 0 8 1 11 5 6 6 7 16 0 22-46 48-124 48-170 0z" />
<glyph glyph-name="emoji-astonished" unicode="&#x1f632;" d="M512 832c-212 0-384-172-384-384s172-384 384-384 384 172 384 384-172 384-384 384z m0-736c-194 0-352 158-352 352s158 352 352 352 352-158 352-352-158-352-352-352z m-64 368c0-27-14-48-32-48s-32 21-32 48c0 26 14 48 32 48s32-22 32-48z m192 0c0-27-14-48-32-48s-32 21-32 48c0 26 14 48 32 48s32-22 32-48z m-128-112c-35 0-64-36-64-80s29-80 64-80 64 36 64 80-29 80-64 80z m0-128c-17 0-32 22-32 48s15 48 32 48 32-22 32-48c0-26-15-48-32-48z m-64 400c0 9-7 16-16 16-38 0-75-12-106-36-7-6-8-16-3-23 3-4 8-6 13-6 3 0 7 1 10 3 25 20 55 30 86 30 9 0 16 7 16 16z m144 16c-9 0-16-7-16-16s7-16 16-16c31 0 61-10 86-30 3-2 7-3 10-3 5 0 10 2 13 6 5 7 4 17-3 23-31 24-68 36-106 36z" />
<glyph glyph-name="emoji-big-eyes-smile" unicode="&#x1f603;" d="M512 832c-212 0-384-172-384-384s172-384 384-384 384 172 384 384-172 384-384 384z m0-736c-194 0-352 158-352 352s158 352 352 352 352-158 352-352-158-352-352-352z m-64 480c0-35-14-64-32-64s-32 29-32 64c0 35 14 64 32 64s32-29 32-64z m192 0c0-35-14-64-32-64s-32 29-32 64c0 35 14 64 32 64s32-29 32-64z m79-128h-414c-5 0-9-2-12-5s-5-8-4-12c9-116 107-207 223-207s214 91 223 207c1 4-1 9-4 12s-7 5-12 5z m-207-192c-70 0-132 39-166 96h332c-34-57-96-96-166-96z m181 128h-362c-3 10-6 21-8 32h378c-2-11-5-22-8-32z" />
<glyph glyph-name="emoji-big-frown" unicode="&#x1f626;" d="M448 496c0-26-14-48-32-48s-32 22-32 48c0 26 14 48 32 48s32-22 32-48z m192 0c0-26-14-48-32-48s-32 22-32 48c0 26 14 48 32 48s32-22 32-48z m-128 336c-212 0-384-172-384-384s172-384 384-384 384 172 384 384-172 384-384 384z m0-736c-194 0-352 158-352 352s158 352 352 352 352-158 352-352-158-352-352-352z m0 288c-45 0-87-30-121-87-9-15-9-34-1-49 9-15 24-24 42-24h160c18 0 33 9 42 24 8 15 8 34-1 49-34 57-76 87-121 87z m94-120c-2-2-6-8-14-8h-160c-8 0-12 6-14 8-3 5-3 12 1 17 27 46 60 71 93 71s66-25 93-71c4-5 4-12 1-17z" />
</font>
</defs>
</svg>
