<svg height="24" width="94" xmlns="http://www.w3.org/2000/svg"><g fill="none" fill-rule="evenodd"><path d="m49.08 18 4.416-11.632h2.416L60.36 18h-2.784l-.768-2.384H52.52L51.752 18zm4.112-4.496h2.928l-1.472-4.576zM62.608 18V6.368h4.16c1.43 0 2.51.33 3.24.992.73.661 1.096 1.643 1.096 2.944 0 1.29-.365 2.27-1.096 2.936-.73.667-1.81 1-3.24 1h-1.68V18zm3.648-9.6h-1.168v3.808h1.168c.853 0 1.459-.147 1.816-.44s.536-.781.536-1.464c0-.693-.179-1.184-.536-1.472s-.963-.432-1.816-.432zM73.64 18V6.368h7.568V8.48h-5.072v2.592h4.608v2.112h-4.608v2.704h5.232V18zm9.544 0 3.584-6.032-3.408-5.6h2.864l2.4 4.016 2.336-4.016h2.752l-3.424 5.648 3.6 5.984h-2.864l-2.592-4.4-2.496 4.4z" fill="#FBF9F8" fill-rule="nonzero"/><path d="M24.628 0C30.923 0 36 5.374 36 12.003S30.923 24 24.628 24l-13.24-.006C5.099 23.994 0 18.632 0 12.003S5.099 0 11.389 0zm-.302 4.025H11.682c-4.07 0-7.369 3.574-7.369 7.997 0 4.418 3.3 8.003 7.37 8.003h12.643c4.082 0 7.377-3.585 7.377-8.003 0-4.423-3.295-7.997-7.377-7.997z" fill="#c74634"/></g></svg>
