<svg width="16" height="16" xmlns="http://www.w3.org/2000/svg"><path d="M14.414 1.566c-.754-.756-2.072-.756-2.828 0L5.04 8.112a.507.507 0 0 0-.126.211l-.894 3.015a.5.5 0 0 0 .48.642l.142-.021 3.015-.894a.49.49 0 0 0 .211-.126l6.546-6.546c.378-.376.586-.878.586-1.413s-.208-1.036-.586-1.414zm-7.163 8.578-2.01.596.596-2.01 5.109-5.109 1.445 1.383-5.14 5.14zm6.456-6.456-.609.609-1.445-1.383.64-.64a1.025 1.025 0 0 1 1.414 0 .997.997 0 0 1 0 1.414zM12.5 9a.5.5 0 0 0-.5.5V13c0 .552-.449 1-1 1H3c-.551 0-1-.448-1-1V5c0-.552.449-1 1-1h3.5a.5.5 0 0 0 0-1H3c-1.103 0-2 .897-2 2v8c0 1.103.897 2 2 2h8c1.103 0 2-.897 2-2V9.5a.5.5 0 0 0-.5-.5z" fill="#7F7F7F"/></svg>