<svg xmlns="http://www.w3.org/2000/svg" viewBox="0 0 24 24"><mask id="a" fill="#fff"><rect width="24" height="18" y="3" fill-rule="evenodd" rx="2"/></mask><g fill="none" fill-rule="evenodd"><rect width="24" height="18" y="3" fill="#fff" mask="url(#a)" rx="2"/><path fill="#0a5da7" d="M0 3h11v10H0z" mask="url(#a)"/><path fill="#c74634" d="M24 19v2H0v-2zm0-4v2H0v-2zm0-4v2H11v-2zm0-4v2H11V7zm0-4v2H11V3z" mask="url(#a)"/><path fill="#fff" d="m5.135 9.402-2.057 1.43.723-2.399-1.995-1.515 2.505-.052.824-2.366.824 2.366 2.505.052-1.995 1.515.723 2.399z" mask="url(#a)"/><rect width="23" height="17" x=".5" y="3.5" stroke="#100f0e" opacity=".1" rx="2"/></g></svg>
