<svg xmlns="http://www.w3.org/2000/svg" viewBox="0 0 24 24"><linearGradient id="a" x1="50%" x2="50%" y1="0%" y2="100%"><stop offset="0" stop-color="#262626"/><stop offset="1" stop-color="#0d0d0d"/></linearGradient><g fill="none" fill-rule="evenodd"><rect width="24" height="18" y="3" fill="#ff5444" rx="2"/><path fill="#ffda4f" d="M0 15h24v3H0z"/><path fill="#000" d="M0 5.009C0 3.899.897 3 2.005 3h19.99C23.102 3 24 3.902 24 5.009v7.982c0 1.11-.897 2.009-2.005 2.009H2.005A2.008 2.008 0 0 1 0 12.991z"/><path fill="#ffda4f" d="M0 6h24v3H0z"/><path fill="#ff5444" d="M0 9h24v3H0z"/><path fill="#000" d="M0 12h24v3H0z"/><circle cx="12" cy="12" r="4" fill="#fcfbfa"/><path fill="url(#a)" fill-rule="nonzero" d="M11.018 10.11a.274.274 0 0 1 0-.41l.167-.157c.12-.113.305-.307.408-.41l.147-.112c.146.02.382-.041.533-.014l.143.104a.457.457 0 0 1 .052.49l-.323.607c-.078.145-.14.394-.14.546a.49.49 0 0 0 .28.414l.645.304c.155.072.374.22.49.328l.785.738a.39.39 0 0 1 .07.46l-.323.607c-.077.145-.234.174-.357.058l-.168-.157a.319.319 0 0 0-.435 0l-.167.157a.78.78 0 0 0-.218.488.76.76 0 0 0 .218.487l.167.158c.12.112.076.204-.08.204H11.7c-.165 0-.204-.088-.081-.204l.167-.158a.78.78 0 0 0 .218-.487c0-.157-.14-.283-.301-.283a.861.861 0 0 0-.519.204l-.167.157a.319.319 0 0 1-.435 0l-.168-.157a.274.274 0 0 1 0-.409l.168-.157a.859.859 0 0 1 .521-.204h.597c.168 0 .207-.092.097-.195l-1.393-1.309a.266.266 0 0 1 .003-.392l.785-.738c.116-.109.115-.285-.008-.401z"/><rect width="23" height="17" x=".5" y="3.5" stroke="#100f0e" opacity=".1" rx="2"/></g></svg>
