<svg xmlns="http://www.w3.org/2000/svg" viewBox="0 0 24 24" fill="none"><mask id="a" width="24" height="18" x="0" y="3" maskUnits="userSpaceOnUse" style="mask-type:alpha"><rect width="24" height="18" y="3" fill="#fff" rx="2"/></mask><g mask="url(#a)"><rect width="24" height="18" y="3" fill="#FCFBFA" rx="2"/><path fill="#FCFBFA" d="M0 3h11v10H0z"/><path fill="#003D8A" fill-rule="evenodd" d="M24 5H10v2h14zm0 4H10v2h14zM0 13h24v2H0zm24 4H0v2h24z" clip-rule="evenodd"/><path fill="url(#b)" fill-rule="evenodd" d="m5 9.853-.668.997-.169-1.188-1.033.608.362-1.143-1.195.1.823-.873L2 7.924l1.12-.428-.823-.873 1.195.1-.362-1.144 1.033.608L4.333 5 5 5.996 5.668 5l.169 1.187L6.87 5.58l-.362 1.144 1.195-.1-.823.873L8 7.925l-1.12.429.823.872-1.195-.099.362 1.143-1.033-.608-.17 1.188zm0-.02a1.91 1.91 0 1 0 0-3.817 1.91 1.91 0 0 0 0 3.818zm-1.5-1.97a1.5 1.5 0 1 0 3 0 1.5 1.5 0 0 0-3 0" clip-rule="evenodd"/><path fill="#C6A326" fill-rule="evenodd" d="M5.5 7.612a.25.25 0 1 1 0-.5.25.25 0 0 1 0 .5m-1.375.25a.125.125 0 1 1 .25 0A.622.622 0 0 0 5 8.487c.243 0 .46-.14.564-.355l.02-.039.018-.032.014-.022c.048-.08.062-.119.062-.177a.125.125 0 0 1 .25 0 .534.534 0 0 1-.097.304l-.013.022-.028.052a.875.875 0 0 1-1.665-.378m.125-.5a.25.25 0 1 0 .5 0 .25.25 0 0 0-.5 0" clip-rule="evenodd"/></g><rect width="23" height="17" x=".5" y="3.5" stroke="#100F0E" opacity=".1" rx="1.5"/><defs><linearGradient id="b" x1="2" x2="2" y1="5" y2="10.85" gradientUnits="userSpaceOnUse"><stop stop-color="#FED443"/><stop offset="1" stop-color="#FCD036"/></linearGradient></defs></svg>
