<svg xmlns="http://www.w3.org/2000/svg" viewBox="0 0 24 24"><g fill="none" fill-rule="evenodd"><path fill="#007a36" d="M0 6h24v12H0z"/><path fill="#facd62" d="M16.939 10.45a4.7 4.7 0 0 1 .061.755C17 13.853 14.761 16 12 16s-5-2.147-5-4.795c0-.257.021-.509.061-.754.378 2.29 2.445 4.04 4.939 4.04s4.561-1.75 4.939-4.04zm-4.845.665-1.374.939.507-1.543-1.355-.963 1.686-.014L12.094 8l.535 1.534 1.687.014-1.356.963.507 1.543z"/><path fill="#e93526" d="M0 19.5c0 .828.667 1.5 1.501 1.5H22.5c.829 0 1.501-.666 1.501-1.5V18H0zm0-15C0 3.672.667 3 1.501 3H22.5c.828 0 1.5.666 1.5 1.5V6H0z"/><rect width="23" height="17" x=".5" y="3.5" stroke="#100f0e" opacity=".1" rx="2"/></g></svg>
