<svg xmlns="http://www.w3.org/2000/svg" viewBox="0 0 24 24"><mask id="a" fill="#fff"><path fill-rule="evenodd" d="M0 0h6v5a3 3 0 1 1-6 0z"/></mask><g fill="none" fill-rule="evenodd"><path fill="#e70a2d" d="M0 9h24V4.998A2.001 2.001 0 0 0 21.995 3H2.005A2.004 2.004 0 0 0 0 4.998z"/><path fill="#0a5da7" d="M0 19.002A2 2 0 0 0 2.005 21h19.99A2.004 2.004 0 0 0 24 19.002V15H0z"/><path fill="#fcfbfa" d="M0 9h24v6H0z"/><path fill="#fcfbfa" d="M9 9h6v5a3 3 0 0 1-6 0z"/><path fill="#e70a2d" d="M2 7v1H1V7zm2 0v1H3V7zM1 6v1H0V6zm2 0v1H2V6zm2 0v1H4V6zM2 5v1H1V5zm2 0v1H3V5zm2 0v1H5V5zM1 4v1H0V4zm2 0v1H2V4zm2 0v1H4V4zM2 3v1H1V3zm2 0v1H3V3zm2 0v1H5V3zM1 2v1H0V2zm2 0v1H2V2zm2 0v1H4V2zM2 1v1H1V1zm2 0v1H3V1zm2 0v1H5V1zM1 0v1H0V0zm2 0v1H2V0zm2 0v1H4V0z" mask="url(#a)" transform="translate(9 9)"/><path fill="#0093dd" d="M9.6 6.924v.001l-.977-.361-.546.882.209.476.53 1.204a7.846 7.846 0 0 1 1.235-.428z"/><path fill="#171796" d="m11.19 6.658-.002.002-.903-.518-.684.782.45 1.774a7.848 7.848 0 0 1 1.29-.215z"/><path fill="red" d="M9.94 8.258c.441-.113.897-.19 1.363-.228l-.038-.461a8.78 8.78 0 0 0-1.44.24zm-.227-.892a9.22 9.22 0 0 1 1.514-.253l-.037-.453a9.667 9.667 0 0 0-1.589.266z"/><path fill="#0093dd" d="m12.8 6.658-.001.002-.806-.66-.803.658.15 1.825a7.923 7.923 0 0 1 1.309 0z"/><path fill="#171796" d="M14.39 6.925h-.003l-.685-.783-.901.516-.152 1.825c.44.037.872.11 1.29.216l.45-1.774z"/><path fill="#0093dd" d="m15.17 9.125.74-1.679-.546-.882-.975.36-.45 1.775c.425.108.836.252 1.23.426z"/><path fill="#fff" d="M14.225 7.572c.488.125.96.289 1.414.49l-.286.647a8.282 8.282 0 0 0-1.303-.45z"/><path fill="red" d="m15.399 8.605.19-.432a8.878 8.878 0 0 0-1.394-.483l-.112.443c.456.116.898.27 1.322.457z"/><rect width="23" height="17" x=".5" y="3.5" stroke="#100f0e" opacity=".1" rx="2"/></g></svg>
