<svg xmlns="http://www.w3.org/2000/svg" viewBox="0 0 24 24"><g fill="none" fill-rule="evenodd"><path fill="#e70a2d" d="M0 7h24V5c0-1.105-.897-2-2.005-2H2.005A1.998 1.998 0 0 0 0 5z"/><path fill="#fcfbfa" d="M0 7h24v10H0z"/><path fill="#027e44" d="M10.759 14.921a.907.907 0 0 0-.005-1.166l.3.341c-.284-.323-.827-.496-1.22-.384l-1.506.428c-.39.11-.437-.029-.116-.303l1.737-1.482c.326-.278.268-.503-.15-.503h-.707c-.41 0-.45-.165-.093-.369l1.622-.922c.358-.204.325-.369-.093-.369h-.706c-.41 0-.472-.23-.15-.503l1.736-1.482a.945.945 0 0 1 1.18 0l1.738 1.482c.326.278.267.503-.15.503h-.707c-.41 0-.45.166-.094.369l1.623.922c.358.204.325.369-.093.369h-.707c-.41 0-.472.23-.15.503l1.736 1.482c.326.278.279.415-.115.303l-1.506-.428c-.39-.111-.937.062-1.22.384l.3-.34a.906.906 0 0 0-.005 1.165l.438.499c.282.32.196.58-.212.58h-2.931c-.4 0-.495-.26-.213-.58z"/><path fill="#e70a2d" d="M0 19c0 1.105.897 2 2.005 2h19.99A1.998 1.998 0 0 0 24 19v-2H0z"/><rect width="23" height="17" x=".5" y="3.5" stroke="#100f0e" opacity=".1" rx="2"/></g></svg>
