<svg xmlns="http://www.w3.org/2000/svg" viewBox="0 0 24 24"><linearGradient id="a" x1="50%" x2="50%" y1="0%" y2="100%"><stop offset="0" stop-color="#cdcccc"/><stop offset="1" stop-color="#e4e4e4"/></linearGradient><linearGradient id="b" x1="50%" x2="50%" y1="0%" y2="100%"><stop offset="0" stop-color="#cd9d25"/><stop offset="1" stop-color="#ebb93a"/></linearGradient><linearGradient id="c" x1="50%" x2="50%" y1="0%" y2="100%"><stop offset="0" stop-color="#f5252c"/><stop offset="1" stop-color="#f6151c"/></linearGradient><g fill="none" fill-rule="evenodd"><path fill="#ffd400" d="M0 19.005C0 20.107.902 21 2.009 21H12V3H2.009C.899 3 0 3.893 0 4.995z"/><path fill="#fcfbfa" d="M24 19.005A2.004 2.004 0 0 1 21.991 21H12V3h9.991C23.101 3 24 3.893 24 4.995z"/><g fill-rule="nonzero"><path fill="url(#a)" d="M6.803 6.025a1.5 1.5 0 1 0-2.414-.414L2.207 7.793l-.353-.354-.354-.353-.707.707.353.353.708.708.353.353.354-.353 2.535-2.536a1.5 1.5 0 0 0 1.707-.293" transform="matrix(1 0 0 -1 14 18.672)"/><path fill="url(#b)" d="M2.147 6.318a1.5 1.5 0 1 1 .707-.707l2.182 2.182.353-.354.354-.353.707.707-.354.353-.707.708-.353.353-.354-.353z" transform="matrix(1 0 0 -1 14 18.672)"/><path fill="url(#b)" d="M3.621 3c-.828 0-1.5-.224-1.5-.5s.672-.5 1.5-.5 1.5.224 1.5.5-.671.5-1.5.5m0-2.5c-.414 0-.75-.112-.75-.25s.336-.25.75-.25.75.112.75.25-.335.25-.75.25m0 1.167c-.552 0-1-.15-1-.334 0-.184.448-.333 1-.333s1 .15 1 .333c0 .184-.447.334-1 .334" transform="translate(14 6)"/><path fill="url(#c)" d="M1.147 8.658c.08.242.248.576.528.912.48.576 1.13.93 1.946.93.818 0 1.467-.354 1.947-.93.28-.336.447-.67.528-.912a.5.5 0 1 0-.949-.316 1.98 1.98 0 0 1-.347.588c-.302.362-.683.57-1.179.57s-.876-.208-1.178-.57a1.98 1.98 0 0 1-.347-.588.5.5 0 1 0-.949.316" transform="translate(14 6)"/></g><rect width="23" height="17" x=".5" y="3.5" stroke="#100f0e" opacity=".1" rx="2"/></g></svg>
