<svg xmlns="http://www.w3.org/2000/svg" viewBox="0 0 24 24"><mask id="a" fill="#fff"><path fill-rule="evenodd" d="M0 .167h4v7H0z"/></mask><g fill="none" fill-rule="evenodd"><path fill="#0029a1" d="M0 9h24V4.998A2.001 2.001 0 0 0 21.995 3H2.005A2.004 2.004 0 0 0 0 4.998z"/><path fill="#008e33" d="M0 19.002A2 2 0 0 0 2.005 21h19.99A2.004 2.004 0 0 0 24 19.002V15H0z"/><path fill="#ff0726" d="M0 9h24v6H0z"/><circle cx="8" cy="12" r="4" fill="#ffd400"/><path fill="#000" d="M2.897 6.169c-.157-.09-.446-.14-.754-.151v-.166a.57.57 0 0 0 .462-.562.57.57 0 0 0-.462-.562v-.052c.256.027.512.153.628.353.252.433.468.619.468.619s-.134-.393-.202-.897c-.03-.233-.312-.396-.894-.413v-.073h.754v-.143h-.754v-.071c.33-.022.582-.147.582-.298s-.252-.276-.582-.298v-.071h.754V3.24h-.754v-.072c.395-.005.895-.047.925-.44.02-.27.154-.537.154-.537s-.285.238-.394.393c-.195.279-.424.335-.685.344v-.1c.33-.034.582-.231.582-.47 0-.239-.252-.436-.582-.47v-.503c.2-.115.427-.294.654-.577.125-.157.065-.226.065-.225s.007.01-.086.065a2.944 2.944 0 0 1-.633.269v-.75h-.205V.98c-.31.096-.555.181-.605.37-.006.026-.014.288-.023.352 0 0 .052.005.178-.066.055-.031.223-.051.45-.148v.4c-.33.034-.582.231-.582.47 0 .239.252.436.582.47v.1c-.26-.009-.49-.065-.685-.344-.109-.155-.394-.393-.394-.393s.134.268.154.536c.03.394.53.436.925.44v.073h-.753v.143h.753v.071c-.33.022-.582.147-.582.298s.252.276.582.298v.071h-.753v.143h.753v.073c-.582.017-.863.18-.894.413-.068.504-.202.897-.202.897s.216-.186.468-.62c.116-.199.372-.325.628-.352v.052a.57.57 0 0 0-.462.562c0 .28.199.513.462.562v.164c-.34.006-.672.058-.845.153a14.92 14.92 0 0 0-1.086.728C2.068 7.482 4 6.933 4 6.933s-.73-.55-1.103-.764" mask="url(#a)" transform="translate(6 8)"/><rect width="23" height="17" x=".5" y="3.5" stroke="#100f0e" opacity=".1" rx="2"/></g></svg>
