<svg xmlns="http://www.w3.org/2000/svg" viewBox="0 0 24 24"><g fill="none" fill-rule="evenodd"><path fill="#027e44" d="M0 19.002A2 2 0 0 0 2.005 21h19.99A2.004 2.004 0 0 0 24 19.002V15H0z"/><path fill="#fcfbfa" d="M0 9h24v6H0z"/><path fill="#000" d="M12.499 10c.589 0 1.067.448 1.067 1 0 .385-.233.72-.574.887l.04.113.919 1.291c.082.116.06.279-.058.356 0 0-.327.353-1.394.353s-1.394-.353-1.394-.353a.26.26 0 0 1-.059-.356L11.965 12l.04-.113a.994.994 0 0 1-.574-.887c0-.552.478-1 1.068-1m0 .5c-.295 0-.534.224-.534.5 0 .134.056.372.147.583l.218-.608c.093-.263.243-.266.337 0l.218.608c.091-.21.147-.45.147-.583 0-.276-.239-.5-.533-.5"/><path fill="#0a5da7" d="M0 9h24V4.998A2.001 2.001 0 0 0 21.995 3H2.005A2.004 2.004 0 0 0 0 4.998z"/><rect width="23" height="17" x=".5" y="3.5" stroke="#100f0e" opacity=".1" rx="2"/></g></svg>
