<svg xmlns="http://www.w3.org/2000/svg" viewBox="0 0 24 24"><linearGradient id="a" x1="50%" x2="50%" y1="0%" y2="100%"><stop offset="0" stop-color="#ffa135"/><stop offset="1" stop-color="#fd9c2d"/></linearGradient><linearGradient id="c" x1="50%" x2="50%" y1="0%" y2="100%"><stop offset="0" stop-color="#df2034"/><stop offset="1" stop-color="#ca1a2c"/></linearGradient><linearGradient id="e" x1="50%" x2="50%" y1="0%" y2="100%"><stop offset="0" stop-color="#0b4bad"/><stop offset="1" stop-color="#08429a"/></linearGradient><mask id="b" fill="#fff"><circle cx="2" cy="2" r="2" fill-rule="evenodd"/></mask><mask id="d" fill="#fff"><circle cx="2" cy="2" r="2" fill-rule="evenodd"/></mask><mask id="f" fill="#fff"><circle cx="2" cy="2" r="2" fill-rule="evenodd"/></mask><mask id="g" fill="#fff"><circle cx="2" cy="2" r="2" fill-rule="evenodd"/></mask><g fill="none" fill-rule="evenodd"><path fill="#f00d22" d="M0 9h24V4.998A2.001 2.001 0 0 0 21.995 3H2.005A2.004 2.004 0 0 0 0 4.998zm0 10.002A2 2 0 0 0 2.005 21h19.99A2.004 2.004 0 0 0 24 19.002V15H0z"/><path fill="#fcfbfa" d="M0 9h24v6H0z"/><g fill-rule="nonzero"><path fill="url(#a)" d="M0 0h4v2H0z" mask="url(#b)" transform="translate(10 10)"/><path fill="#fff" d="M.8 1.2h2.4l-.4.8H1.2z" mask="url(#c)" transform="translate(10 10)"/><path fill="url(#c)" d="M1.6 0h.8v1.196A.406.406 0 0 1 2 1.6c-.22 0-.4-.171-.4-.404zM.8.8S1.4 2 2 2 3.2.8 3.2.8v.8c0 .442-.354.8-.8.8h-.8a.798.798 0 0 1-.8-.8z" mask="url(#d)" transform="translate(10 10)"/><path fill="url(#e)" d="M0 2.4h4V4H0z" mask="url(#f)" transform="translate(10 10)"/><path fill="#fff" d="M0 2.8h4v.4H0z" mask="url(#g)" transform="translate(10 10)"/></g><rect width="23" height="17" x=".5" y="3.5" stroke="#100f0e" opacity=".1" rx="2"/></g></svg>
