<svg xmlns="http://www.w3.org/2000/svg" xmlns:xlink="http://www.w3.org/1999/xlink" viewBox="0 0 24 24"><defs><linearGradient id="b" x1="50%" x2="50%" y1="0%" y2="100%"><stop offset="0" stop-color="#fff"/><stop offset="1" stop-color="#f0f0f0"/></linearGradient><linearGradient id="c" x1="50%" x2="50%" y1="0%" y2="100%"><stop offset="0" stop-color="#f73744"/><stop offset="1" stop-color="#ec212f"/></linearGradient><mask id="d" fill="#fff"><use xlink:href="#a" fill-rule="evenodd"/></mask><mask id="e" fill="#fff"><path fill-rule="evenodd" d="M.711 1.001A1.048 1.048 0 0 1 1.751 0H6.25c.553 0 1.018.447 1.04 1.001L7.46 5.5c.022.553-.297 1.289-.72 1.652L5.146 8.518c-.633.542-1.662.54-2.292 0L1.259 7.15C.84 6.791.517 6.053.54 5.499z"/></mask><path id="a" d="M.711 1.001A1.048 1.048 0 0 1 1.751 0H6.25c.553 0 1.018.447 1.04 1.001L7.46 5.5c.022.553-.297 1.289-.72 1.652L5.146 8.518c-.633.542-1.662.54-2.292 0L1.259 7.15C.84 6.791.517 6.053.54 5.499z"/></defs><g fill="none" fill-rule="evenodd"><path fill="#fcfbfa" d="M24 4.998A2.001 2.001 0 0 0 21.995 3H2.005A2.004 2.004 0 0 0 0 4.998V9h24z"/><path fill="#001bb0" d="M24 15H0V9h24z"/><path fill="#e70a2d" d="M24 15H0v4.002A2 2 0 0 0 2.005 21h19.99A2.004 2.004 0 0 0 24 19.002z"/><path fill="url(#b)" fill-rule="nonzero" d="M2.751 0H7.25c1.09 0 1.997.872 2.039 1.963L9.46 6.46c.033.86-.415 1.89-1.07 2.45l-1.594 1.367c-1.007.863-2.589.861-3.594 0L1.61 8.91C.957 8.352.506 7.32.539 6.46l.173-4.497A2.048 2.048 0 0 1 2.752 0z" transform="translate(2.5 7)"/><path fill="url(#c)" fill-rule="nonzero" d="M.711 1.001A1.048 1.048 0 0 1 1.751 0H6.25c.553 0 1.018.447 1.04 1.001L7.46 5.5c.022.553-.297 1.289-.72 1.652L5.146 8.518c-.633.542-1.662.54-2.292 0L1.259 7.15C.84 6.791.517 6.053.54 5.499z" transform="translate(3.5 8)"/><g transform="translate(3.5 8)"><use xlink:href="#a" fill="#ff082a"/><path fill="url(#b)" fill-rule="nonzero" d="M3.5 5.245A.25.25 0 0 0 3.252 5H2.248A.246.246 0 0 1 2 4.748v-.496C2 4.113 2.118 4 2.248 4h1.004a.246.246 0 0 0 .248-.252v-.496A.249.249 0 0 0 3.248 3h-.496a.249.249 0 0 1-.252-.252v-.496c0-.139.107-.252.252-.252h.496a.248.248 0 0 0 .252-.252v-.496c0-.139.107-.252.252-.252h.496c.139 0 .252.107.252.252v.496c0 .139.107.252.252.252h.496c.139 0 .252.107.252.252v.496A.248.248 0 0 1 5.248 3h-.496a.249.249 0 0 0-.252.252v.496c0 .139.118.252.248.252h1.004C5.89 4 6 4.107 6 4.252v.496A.255.255 0 0 1 5.752 5H4.748a.245.245 0 0 0-.248.245v1.51A.245.245 0 0 1 4.248 7h-.496a.247.247 0 0 1-.252-.245z" mask="url(#d)"/></g><path fill="#0014b5" d="M3.097 7.07C1.882 7.26 1 7.828 1 8.5 1 9.328 2.343 10 4 10s3-.672 3-1.5c0-.671-.882-1.24-2.097-1.43a1 1 0 0 0-1.806 0" mask="url(#e)" transform="translate(3.5 8)"/><rect width="23" height="17" x=".5" y="3.5" stroke="#100f0e" opacity=".1" rx="2"/></g></svg>