<svg xmlns="http://www.w3.org/2000/svg" viewBox="0 0 24 24" fill="none"><mask id="a" width="24" height="18" x="0" y="3" maskUnits="userSpaceOnUse"><rect width="24" height="18" y="3" fill="#fff" rx="2"/></mask><rect width="24" height="18" y="3" fill="#467146" rx="2"/><path fill="#ffd73a" d="M0 5h24v3H0zm0 11h24v3H0z"/><path fill="#ff3e37" d="M0 13h24v3H0zm0-5h24v3H0z"/><path fill="#000" d="M6 11h18v2H6z"/><g mask="url(#a)"><path fill="#000" fill-rule="evenodd" d="m0 3 9 8.93L0 21z" clip-rule="evenodd"/></g><path fill="#c74634" fill-rule="evenodd" d="M3.5 13.342 1.955 14.5l.57-1.903L1 11.41l1.897-.018L3.5 9.5l.603 1.892L6 11.41l-1.525 1.187.57 1.903z" clip-rule="evenodd"/><rect width="23" height="17" x=".5" y="3.5" stroke="#100f0e" opacity=".1" rx="1.5"/></svg>
