<svg xmlns="http://www.w3.org/2000/svg" viewBox="0 0 24 24"><g fill="none" fill-rule="evenodd"><rect width="24" height="18" y="3" fill="#008d3d" rx="2"/><path fill="#ff7f00" d="M17.196 7.199s-.403.153-.834 0c-.342-.122-.687-.534-.97-.677-.164-.083.14-.478-.184-.371-.325.106-.855-.39-.855-.39s-.548-.667.259-.667 2.51.58 2.51.58.063-.3.202-.438.242-.265.47-.23.353.355.353.355l-.354.134v.267s2.362-.725 2.92-.668c.558.056.109.668-.228 1.057-.13.15-.556.456-.815.21-.259-.245-.163.266-.43.43-.438.27-.602.516-.753.587s-.479 0-.479 0l.096.247s.027.296-.096.414-.208.202-.508.166-.441.04-.541-.29c-.1-.33.237-.716.237-.716m.247-.342v.772l.339-.284z"/><path fill="#ff7e00" d="M19 10h3v11h-3z"/><path fill="#000" d="M16 10h3v11h-3z"/><path fill="#ff0726" d="M13 10h3v11h-3z"/><rect width="23" height="17" x=".5" y="3.5" stroke="#100f0e" opacity=".1" rx="2"/></g></svg>
