<svg xmlns="http://www.w3.org/2000/svg" viewBox="0 0 24 24"><mask id="a" fill="#fff"><path fill-rule="evenodd" d="M.006.016h4.142v5.389H.006z"/></mask><mask id="b" fill="#fff"><path fill-rule="evenodd" d="M0 .004h4.243v5.222H0z"/></mask><g fill="none" fill-rule="evenodd"><path fill="#e70a2d" d="M0 19.005C0 20.107.887 21 1.998 21H8V3H1.998A1.996 1.996 0 0 0 0 4.995zm24 0A1.992 1.992 0 0 1 22.002 21H16V3h6.002C23.105 3 24 3.893 24 4.995z"/><path fill="#fcfbfa" d="M8 3h8v18H8z"/><path fill="#00a854" d="M12.179 9.222c.135.033.273.071.384.146.176.122.284.312.271.503a.76.76 0 0 1-.2.44.732.732 0 0 1-.437.219c-.066.01-.132.01-.199.01-.024.008-.023.038.002.039.23.01.417-.074.586-.196a.701.701 0 0 0 .188-.239.59.59 0 0 0 .065-.418c-.053-.208-.24-.392-.485-.462a1.774 1.774 0 0 0-.193-.048z"/><path fill="#00a854" d="M12.053 10.543c-.124.035-.078.172.04.152.053-.032.055-.167-.04-.152m.089-1.309c-.02-.01-.042.015-.059.008-.018-.007-.002-.024-.016-.029-.014-.005-.023.008-.042.001-.019-.006-.015-.025-.03-.029-.015-.003-.01.01-.028.004-.019-.007-.024-.035-.046-.045-.02-.009-.027-.032-.01-.037.01-.004.02.004.036-.001.017-.005.017-.02.032-.017.015.005.015.027.032.035.018.008.018-.006.032.002.014.008.011.019.024.03.012.013.027-.004.046.014a.17.17 0 0 1 .03.064"/><path fill="#00a854" d="M12.17 9.266a.487.487 0 0 0-.264-.155c.06.01.183.046.269.151z"/><path fill="#00a854" d="M12.176 9.211c-.07-.006-.108.019-.15.04.035-.027.068-.054.123-.06zm-.065-.047c-.076.016-.11.054-.15.09a.294.294 0 0 1 .116-.103z"/><path fill="#00a854" d="M12.128 9.26c-.076-.053-.11-.104-.15-.155.03.05.06.1.117.15zm.064.023c-.076-.053-.11-.104-.15-.155.031.05.06.1.117.15zm.367.12c-.028.005-.047.031-.068.036-.024.005-.01-.03-.028-.025-.018.005-.019.037-.043.043-.024.006-.033-.02-.051-.013-.019.007-.006.034-.03.04-.023.006-.04-.025-.067-.02-.027.004-.042-.02-.024-.04.011-.014.03-.013.048-.032.018-.02.006-.04.024-.047.02-.006.028.025.051.022.024-.004.023-.037.042-.037.019 0 .015.03.034.035.018.005.017-.022.044-.013.028.009.068.051.068.051"/><path fill="#00a854" d="M12.596 9.45c-.101-.102-.222-.062-.35.076.072-.092.228-.243.36-.09z"/><path fill="#00a854" d="M12.557 9.379c-.077.043-.11.098-.15.15.03-.053.058-.108.116-.154zm-.082.008c-.087.052-.114.104-.15.155.023-.05.044-.1.104-.15z"/><path fill="#00a854" d="M12.478 9.485c-.07-.02-.108-.067-.15-.11.035.046.069.094.124.125zm.085-.008c-.07-.02-.107-.067-.15-.11.035.046.07.094.124.125zm.31.356c.01-.02.001-.044.009-.061.008-.018.026.005.032-.01.005-.013-.017-.027-.009-.046.008-.02.031-.015.036-.03.004-.016-.022-.019-.014-.038s.038-.016.049-.038c.01-.02.035-.02.04 0 .004.014-.006.026-.001.047.005.02.025.02.02.036s-.032.009-.04.026c-.01.018.013.031.004.044-.01.014-.029-.001-.042.01-.013.01.007.02-.014.035-.02.015-.07.025-.07.025"/><path fill="#00a854" d="M12.843 9.853a.42.42 0 0 0 .159-.254c-.013.065-.051.197-.16.263z"/><path fill="#00a854" d="M13.007 9.872c.013-.066-.02-.109-.047-.155.035.04.072.08.079.135zm.07-.067c-.019-.071-.072-.111-.12-.155.053.037.108.072.14.129z"/><path fill="#00a854" d="M12.969 9.825c.052-.077.1-.099.15-.129-.048.019-.095.034-.144.087z"/><path fill="#00a854" d="M12.934 9.889c.051-.078.1-.1.15-.13-.048.02-.095.035-.144.088zm-.124-.309c.006-.022-.01-.044-.005-.062.005-.019.03.001.033-.014.003-.015-.025-.025-.021-.045.004-.02.03-.019.032-.035 0-.017-.028-.015-.025-.035.004-.02.038-.022.045-.045.006-.022.033-.026.044-.007.008.013 0 .027.01.047s.033.016.031.032c-.001.016-.033.014-.038.033-.006.019.023.028.016.043-.007.014-.032.003-.044.015-.012.012.012.02-.006.038-.019.018-.072.036-.072.036"/><path fill="#00a854" d="M12.785 9.605a.33.33 0 0 0 .15-.276.305.305 0 0 1-.148.284z"/><path fill="#00a854" d="M12.952 9.612c-.01-.07-.059-.11-.101-.155.048.038.099.074.125.13zm.037-.071c-.036-.075-.09-.112-.141-.155.053.035.108.067.15.125z"/><path fill="#00a854" d="M12.876 9.568c.047-.084.099-.116.15-.155-.051.028-.102.054-.15.115zm-.021.068c.047-.084.1-.115.15-.155-.05.029-.102.054-.15.115zm-.172-.089c-.03-.004-.057.02-.081.018-.026-.003-.004-.038-.023-.039-.02-.001-.03.036-.056.034-.027-.001-.03-.035-.051-.033-.022.002-.015.038-.041.036-.027 0-.036-.043-.066-.047-.03-.004-.04-.037-.016-.055.016-.011.035-.004.06-.02.023-.017.006-.025.027-.026.022 0 .032.032.058.036.025.004.033-.047.053-.04.02.006.01.039.027.052.018.013.024-.02.05 0 .027.02.059.084.059.084"/><path fill="#00a854" d="M12.718 9.608a.372.372 0 0 0-.377-.14.345.345 0 0 1 .389.135z"/><path fill="#00a854" d="M12.666 9.487c-.071.022-.108.072-.15.119.034-.05.067-.103.123-.136zm-.094-.027c-.076.043-.11.098-.15.15.03-.053.06-.108.116-.154z"/><path fill="#00a854" d="M12.596 9.576c-.076-.043-.11-.098-.15-.151.03.054.06.108.117.155zm.092.011c-.075-.044-.11-.098-.15-.151.032.053.06.108.118.155zm.073-.097c0-.022-.024-.042-.024-.06 0-.02.032-.004.031-.019-.001-.015-.035-.02-.036-.041-.002-.02.028-.023.024-.04-.004-.016-.035-.01-.037-.03-.002-.02.034-.028.034-.051 0-.023.029-.031.047-.014.012.012.007.027.024.045.018.018.041.01.044.027.003.016-.031.018-.032.038 0 .02.034.024.03.04s-.033.007-.042.021c-.01.014.019.018.004.039-.014.02-.067.046-.067.046"/><path fill="#00a854" d="M12.734 9.519c.147-.076.165-.176.092-.29.055.065.128.201-.082.298z"/><path fill="#00a854" d="M12.89 9.519c-.032-.074-.086-.112-.138-.155.054.035.11.068.15.125zm.003-.071c-.046-.081-.099-.115-.15-.155.051.03.103.059.15.118z"/><path fill="#00a854" d="M12.79 9.463c.036-.077.09-.113.141-.155-.053.033-.107.064-.15.122zm-.004.071c.037-.077.09-.113.142-.155-.053.033-.108.064-.15.122zm-.282-.251c-.004-.024-.029-.042-.033-.061-.004-.02.03-.007.026-.023-.004-.015-.036-.019-.04-.04-.006-.021.02-.027.014-.043-.007-.017-.034-.008-.04-.029-.005-.02.027-.032.023-.057-.004-.024.02-.035.04-.018.013.012.011.028.03.045.019.017.04.007.045.024.005.017-.026.022-.022.043.003.02.034.022.034.038 0 .017-.029.012-.035.027-.006.015.02.016.01.04-.009.023-.052.054-.052.054"/><path fill="#00a854" d="M12.518 9.314c.122-.085.09-.19-.05-.305.094.065.247.205.065.314z"/><path fill="#00a854" d="M12.622 9.305c-.04-.077-.094-.113-.145-.155.052.033.106.064.15.122zm-.016-.073c-.05-.086-.1-.116-.15-.155.049.027.098.052.146.113z"/><path fill="#00a854" d="M12.518 9.24c.027-.074.083-.112.134-.155-.055.035-.112.069-.15.126zm.008.075c.027-.074.083-.112.134-.155-.055.035-.112.068-.15.126zm-.136-.075c.002-.02-.04-.04-.04-.057s.03-.003.03-.016c0-.013-.022-.022-.022-.04 0-.019.026-.015.024-.03-.003-.014-.018-.009-.018-.027 0-.017.034-.024.036-.044.002-.02.028-.027.044-.011.01.01.004.02.019.035.015.016.035.015.037.03.001.014-.028.015-.03.032-.001.017.017.017.013.03-.004.014-.019.012-.029.024-.01.012.02.026.005.044s-.069.03-.069.03"/><path fill="#00a854" d="M12.36 9.267c.124-.055.165-.157.125-.256.032.057.063.176-.111.26z"/><path fill="#00a854" d="M12.521 9.282c-.028-.073-.082-.111-.132-.155.054.036.11.07.147.127zm.01-.062c-.044-.08-.096-.115-.148-.155.052.03.104.06.15.119z"/><path fill="#00a854" d="M12.422 9.234c.04-.078.093-.113.144-.155-.052.033-.106.063-.15.122zm-.007.063c.04-.078.093-.114.144-.155-.053.032-.106.063-.15.121zm.195 1.039c-.005-.025-.03-.045-.034-.065-.005-.021.028-.005.024-.021-.005-.017-.036-.022-.041-.044-.006-.022.02-.026.013-.043-.007-.018-.034-.01-.04-.032-.005-.022.025-.031.02-.057-.004-.024.02-.034.04-.016.012.012.011.029.03.047.02.019.04.01.045.028.006.017-.024.021-.02.042.003.021.034.025.035.042 0 .017-.029.01-.034.025-.006.016.02.018.012.041s-.05.053-.05.053"/><path fill="#00a854" d="M12.64 10.353c.1-.084.056-.18-.073-.3.086.069.235.202.087.31z"/><path fill="#00a854" d="M12.726 10.353c-.042-.075-.095-.112-.146-.155.052.035.105.067.15.125zm-.019-.076c-.05-.082-.1-.115-.15-.155.048.03.096.056.145.116z"/><path fill="#00a854" d="M12.622 10.29c.026-.075.082-.112.133-.154-.056.033-.113.065-.15.123zm.01.077c.026-.076.082-.112.133-.155-.056.034-.113.066-.15.124zm.175-.638c-.03-.009-.067.003-.092-.004-.027-.007.009-.027-.012-.032-.021-.004-.043.02-.072.013s-.02-.03-.043-.034c-.023-.003-.028.024-.056.018-.028-.006-.023-.038-.055-.047-.03-.009-.03-.034.002-.042.02-.005.04.005.07-.002.031-.007.032-.028.055-.025.023.004.012.032.038.04s.047-.017.066-.009c.02.009-.003.03.011.043.015.012.032-.009.054.01s.034.071.034.071"/><path fill="#00a854" d="M12.785 9.705c-.063-.003-.105.033-.15.062.04-.036.078-.074.131-.087zm-.1-.055c-.068.025-.107.076-.15.124.037-.052.072-.104.126-.14z"/><path fill="#00a854" d="M12.742 9.752c-.094-.051-.117-.103-.15-.155.02.05.035.101.097.152zm.093.027c-.093-.052-.116-.104-.15-.155.02.05.035.1.098.15z"/><path fill="#00a854" d="M12.82 9.766c-.076-.09-.194-.132-.358-.154.096.007.278.03.372.154z"/><path fill="#00a854" d="M12.807 9.88c-.023-.016-.074-.004-.092-.016-.02-.013.016-.023 0-.033-.016-.01-.042.008-.063-.005-.022-.012-.007-.033-.025-.041-.019-.009-.032.015-.053.003-.022-.013-.007-.04-.03-.057-.023-.016-.014-.039.015-.039.02 0 .031.014.06.015.028 0 .035-.02.053-.01s0 .033.019.046c.019.013.045-.005.058.007.013.013-.013.027-.005.042.008.016.03 0 .041.023.012.024.022.065.022.065"/><path fill="#00a854" d="M12.813 9.89c-.048-.042-.11-.02-.15-.015.036-.015.096-.042.139-.024z"/><path fill="#00a854" d="M12.759 9.874c-.066-.058-.062-.106-.068-.155-.007.046-.019.091.017.143zm.086.051c-.066-.073-.098-.094-.104-.155-.007.057.018.075.053.14z"/><path fill="#00a854" d="M12.826 9.918c-.038-.09-.156-.157-.287-.214.078.029.255.097.298.217z"/><path fill="#00a854" d="M12.736 9.812c-.063-.011-.105.023-.15.05.04-.035.078-.073.131-.08zm-.522-.609c-.016-.013-.045-.004-.058-.014-.014-.011.006-.017-.005-.025-.01-.008-.024-.003-.04-.014-.014-.01-.004-.022-.016-.03-.013-.007-.013.004-.028-.007-.015-.01-.01-.032-.026-.045-.016-.014-.014-.031.003-.03.012.002.018.01.035.013.017.002.023-.009.035 0 .012.007.004.022.018.034.013.011.018.002.028.012.01.01.004.017.012.029.007.012.027.006.037.025.01.018.005.052.005.052"/><path fill="#00a854" d="M12.228 9.234a.467.467 0 0 0-.192-.189.452.452 0 0 1 .198.188z"/><path fill="#00a854" d="M12.274 9.22c-.062-.04-.105-.035-.15-.037.04-.006.08-.016.133.005zm-.054-.06c-.065-.017-.105.004-.15.019.038-.022.075-.046.129-.045z"/><path fill="#00a854" d="M12.216 9.22c-.056-.06-.065-.107-.082-.156.008.045.013.089.048.142z"/><path fill="#00a854" d="M12.264 9.262c-.055-.06-.065-.106-.081-.155.007.045.012.089.048.142zm.006-.059c-.01-.015-.035-.017-.045-.028-.01-.013.033-.029.025-.038-.008-.01-.022-.004-.033-.016-.01-.013.002-.025-.008-.034-.01-.009-.012.003-.023-.009-.01-.012-.014-.03-.025-.046-.011-.015-.004-.034.011-.032.01.002.013.012.029.015.015.003.024-.009.037-.005.013.004.016.011.026.024.009.013.016.003.023.015.006.012-.001.018.002.032.003.014.023.008.028.029.005.021-.046.093-.046.093"/><path fill="#00a854" d="M12.292 9.24c.043-.08 0-.188-.13-.233.061.023.11.053.134.101a.15.15 0 0 1 .003.13z"/><path fill="#00a854" d="M12.376 9.236a.31.31 0 0 0-.15-.09c.032-.006.105.029.142.054z"/><path fill="#00a854" d="M12.355 9.139c-.061-.021-.104 0-.15.015.041-.023.081-.048.134-.044z"/><path fill="#00a854" d="M12.315 9.183c-.028-.06-.018-.107-.015-.155-.01.044-.023.088-.01.14z"/><path fill="#00a854" d="M12.288 9.26c-.023-.085.077-.103.128-.154-.047.026-.159.06-.149.135zm-.098.02c-.025-.003-.037-.056-.057-.06-.02-.003-.012.034-.028.03-.016-.003-.02-.03-.042-.035-.022-.006-.025.025-.042.018-.016-.007-.006-.022-.027-.028-.021-.005-.039.031-.064.028-.025-.003-.04.024-.026.046.01.014.022.01.037.031.015.02.008.043.025.049s.026-.027.047-.024c.021.003.015.023.033.022.017 0 .02-.018.037-.025.017-.008.025.03.051.017.026-.011.055-.068.055-.068"/><path fill="#00a854" d="M12.23 9.234c-.083.174-.212.158-.326-.002.064.11.203.27.33.03z"/><path fill="#00a854" d="M12.202 9.368c-.081-.034-.112-.08-.15-.125.028.046.053.093.111.13zm-.085.008c-.082-.051-.101-.103-.13-.155.016.05.028.102.083.152z"/><path fill="#00a854" d="M12.124 9.279c-.068.022-.107.062-.15.1.036-.04.072-.082.126-.11zm.077.003c-.067.022-.106.063-.15.1.037-.04.072-.08.127-.11z"/><path fill="#00a854" d="M12.293 9.29c-.027.004-.041-.034-.063-.032-.023.002-.012.03-.03.031-.017.001-.023-.019-.047-.017-.024.001-.027.026-.045.025-.019 0-.008-.016-.031-.014-.023.001-.041.035-.07.039-.027.004-.043.03-.027.044.012.008.025.002.042.014.017.013.01.033.029.033.019 0 .027-.028.05-.032.024-.003.018.015.037.01.02-.006.02-.02.04-.03.019-.011.029.016.057 0a.234.234 0 0 0 .058-.07"/><path fill="#00a854" d="M12.338 9.26a.402.402 0 0 1-.358.147c.071.018.225.023.361-.136z"/><path fill="#00a854" d="M12.292 9.415c-.08-.018-.11-.063-.15-.104.029.045.055.091.113.12zm-.081.031c-.092-.041-.116-.096-.15-.15.02.055.037.11.099.156z"/><path fill="#00a854" d="M12.208 9.327c-.068.044-.107.099-.15.151.037-.053.072-.107.126-.154zm.086-.011c-.069.044-.107.099-.15.152.036-.054.07-.108.125-.155z"/><path fill="#00a854" d="M12.376 9.32c-.027.004-.043-.03-.065-.027-.023.004-.01.028-.028.03-.017.003-.024-.015-.048-.012-.024.003-.025.026-.044.027-.018 0-.008-.015-.031-.012-.024.003-.04.035-.067.041-.027.006-.042.031-.025.042.012.008.025 0 .042.011.018.01.013.029.031.028.019-.001.026-.028.049-.033s.018.012.037.006.02-.02.038-.03c.018-.011.03.013.057-.004a.224.224 0 0 0 .054-.068"/><path fill="#00a854" d="M12.419 9.29a.481.481 0 0 1-.352.154.436.436 0 0 0 .356-.146z"/><path fill="#00a854" d="M12.377 9.447c-.078-.012-.111-.055-.15-.093.03.043.057.088.114.112zm-.082.041c-.088-.039-.114-.094-.15-.147.023.055.042.11.103.155z"/><path fill="#00a854" d="M12.297 9.366c-.07.047-.107.102-.15.155.035-.053.07-.107.124-.155zm.084-.016c-.07.048-.107.102-.15.155.036-.053.07-.106.125-.155zm-.267 1.176c.011-.018.036-.026.046-.04.01-.016-.02-.013-.011-.024.008-.012.033-.007.044-.022.011-.016-.006-.027.004-.038.011-.012.028.002.04-.014.01-.015-.009-.031.003-.05.01-.018-.003-.032-.024-.023-.014.006-.018.019-.038.028-.02.009-.032-.003-.042.009-.01.011.011.023.002.038-.01.016-.034.01-.04.023-.005.013.018.016.017.03 0 .013-.02.008-.022.028 0 .02.02.055.02.055"/><path fill="#00a854" d="M12.116 10.555c-.002-.077.051-.158.141-.238-.055.044-.159.143-.15.243zm.022.005c.052-.07.1-.09.15-.118-.047.017-.095.033-.144.08zm.037-.082c.057-.051.103-.056.15-.067-.044.002-.087.002-.138.033z"/><path fill="#00a854" d="M12.23 10.517c.013-.067-.017-.11-.04-.155.03.04.064.079.069.134zm-.032.057c.014-.067-.017-.11-.04-.155.031.04.064.079.07.134zm-.034.023c.03-.004.051-.03.075-.034.026-.005.01.03.03.025.02-.004.022-.036.049-.042.026-.006.035.021.055.014.021-.007.008-.034.034-.04.026-.006.042.026.073.022.03-.004.046.02.025.04-.013.014-.034.013-.054.032-.02.02-.007.04-.028.047-.021.006-.03-.026-.055-.023-.026.004-.027.036-.047.036-.021 0-.016-.03-.036-.035-.02-.006-.02.02-.05.011-.03-.01-.071-.053-.071-.053"/><path fill="#00a854" d="M12.123 10.613c.11.117.243.08.386-.06-.081.094-.255.25-.396.075z"/><path fill="#00a854" d="M12.29 10.712c.076-.042.11-.097.15-.15-.032.054-.06.109-.117.155zm.1-.015c.086-.052.114-.103.15-.155-.024.05-.046.1-.106.15z"/><path fill="#00a854" d="M12.367 10.603c.07.027.108.082.15.133-.035-.055-.068-.111-.123-.149zm-.094.009c.07.026.108.081.15.132-.034-.055-.067-.111-.123-.149zm-.014-.103c.01-.018.036-.027.046-.041.01-.016-.02-.012-.011-.024.008-.011.033-.007.044-.022.011-.016-.007-.026.004-.038.01-.012.028.002.04-.013.01-.016-.01-.032.002-.05.011-.019-.003-.033-.023-.024-.014.006-.018.019-.038.028-.02.01-.032-.003-.042.009-.01.012.011.023.002.039-.01.015-.034.01-.04.022-.005.013.018.016.017.03 0 .013-.02.008-.022.028 0 .02.02.056.02.056"/><path fill="#00a854" d="M12.26 10.537c-.001-.077.052-.158.142-.238-.055.044-.16.143-.15.243zm.023.005c.052-.07.1-.09.15-.118-.048.018-.095.033-.144.08zm.037-.082c.057-.051.103-.055.15-.067-.044.002-.087.002-.138.033z"/><path fill="#00a854" d="M12.375 10.5c.013-.068-.017-.11-.04-.156.03.04.064.079.069.134zm-.032.056c.013-.067-.017-.109-.04-.155.03.04.064.079.069.134z"/><path fill="#00a854" d="M12.34 10.546c.03-.004.052-.03.076-.034.025-.005.01.03.03.025.02-.004.021-.036.048-.042.027-.006.035.021.056.014.02-.006.008-.034.034-.04.026-.006.042.026.073.022.03-.004.045.02.025.04-.014.014-.034.013-.054.032-.02.02-.008.04-.029.047-.02.006-.03-.026-.055-.023-.025.004-.026.036-.047.036-.02 0-.016-.03-.036-.035-.02-.006-.02.02-.049.011-.03-.01-.072-.053-.072-.053"/><path fill="#00a854" d="M12.3 10.563c.11.116.242.08.385-.062-.08.095-.254.25-.396.076z"/><path fill="#00a854" d="M12.466 10.661c.076-.042.11-.097.15-.15-.031.054-.06.109-.117.155zm.101-.015c.085-.052.113-.103.15-.155-.025.05-.047.1-.106.15z"/><path fill="#00a854" d="M12.544 10.553c.07.026.107.081.15.132-.035-.055-.068-.111-.123-.149zm-.094.007c.07.027.108.082.15.133-.035-.055-.068-.111-.123-.149zm.113-.13c.027-.012.042-.04.064-.049.024-.01.017.023.035.014.018-.008.012-.036.036-.047.024-.011.04.01.057-.002.019-.01 0-.03.023-.042.024-.011.047.012.076 0 .028-.01.048.007.034.029-.01.014-.03.018-.045.04-.015.021.003.035-.016.045-.018.01-.034-.014-.058-.005-.024.01-.017.037-.036.042-.02.005-.023-.021-.044-.021-.02 0-.013.023-.044.022a.25.25 0 0 1-.082-.027z"/><path fill="#00a854" d="M12.52 10.455c.116.01.24-.045.365-.143-.07.06-.223.173-.374.152zm.166.062c.086-.052.114-.103.15-.155-.024.05-.045.1-.105.15zm.108-.04c.083-.058.095-.106.117-.155-.008.046-.012.092-.064.144z"/><path fill="#00a854" d="M12.76 10.43c.066-.006.106.03.15.06-.038-.038-.075-.077-.129-.088zm-.088.03c.066-.007.106.029.15.059-.038-.037-.075-.077-.128-.087zm-.275.017c.007-.018.033-.03.039-.045.006-.015-.026-.006-.02-.017.005-.012.035-.013.043-.029.007-.016-.016-.02-.008-.033.008-.012.032-.005.04-.02s-.02-.024-.013-.043c.007-.017-.014-.026-.034-.014-.013.008-.014.02-.034.032-.02.013-.037.005-.045.017-.007.013.02.018.015.033-.006.015-.035.016-.038.028-.002.012.026.009.03.02.003.012-.022.012-.016.03.006.017.04.041.04.041"/><path fill="#00a854" d="M12.414 10.49c-.051-.063-.002-.132.113-.216-.074.048-.205.14-.124.223z"/><path fill="#00a854" d="M12.387 10.533c.046-.078.098-.113.15-.154-.052.032-.103.062-.15.12zm.018-.074c.053-.067.101-.09.15-.119-.047.02-.094.038-.143.085z"/><path fill="#00a854" d="M12.49 10.484c-.012-.073-.054-.111-.092-.155.043.036.087.07.111.127zm-.014.056c-.012-.074-.054-.112-.092-.155.042.035.087.07.11.126zm.068-.146c.001-.02.026-.036.028-.052.002-.016-.032-.002-.03-.015.003-.012.036-.018.039-.035.003-.017-.026-.019-.02-.033.004-.013.034-.009.037-.025.004-.017-.031-.023-.03-.043.001-.019-.025-.025-.044-.01-.012.01-.009.022-.027.037-.018.015-.04.01-.045.023s.03.016.029.032c-.001.016-.034.02-.032.033.002.013.032.006.04.018.008.011-.02.015-.007.032a.22.22 0 0 0 .062.038"/><path fill="#00a854" d="M12.642 10.406c-.166-.062-.152-.136-.037-.23-.082.054-.218.158.024.238z"/><path fill="#00a854" d="M12.506 10.442c.035-.073.09-.111.14-.155-.053.036-.107.07-.15.127zm-.004-.059c.047-.08.099-.114.15-.155-.05.031-.101.06-.15.12z"/><path fill="#00a854" d="M12.613 10.397c-.033-.078-.088-.113-.139-.155.054.032.109.063.15.121zm0 .059c-.034-.078-.088-.113-.14-.155.055.033.11.063.15.122zm.239-.449c.015-.02.01-.044.021-.06.012-.016.025.009.034-.004.008-.013-.011-.03 0-.048.012-.017.034-.01.041-.024.008-.015-.017-.021-.006-.039.011-.017.04-.01.056-.03.014-.02.039-.016.04.005.001.014-.012.025-.01.046 0 .02.02.023.013.038-.008.014-.034.004-.046.02-.012.016.008.032-.004.044-.011.012-.028-.005-.043.003-.015.008.003.021-.02.033-.024.013-.076.016-.076.016"/><path fill="#00a854" d="M12.82 10.022a.452.452 0 0 0 .205-.228c-.024.062-.088.186-.208.236zm.157.033c.034-.063.014-.107.002-.155.022.043.047.084.036.138z"/><path fill="#00a854" d="M13.062 9.992c.002-.068-.04-.11-.074-.155.042.04.086.077.101.133z"/><path fill="#00a854" d="M12.973 9.998c.055-.064.101-.074.15-.091-.046.006-.09.01-.14.051z"/><path fill="#00a854" d="M12.925 10.056c.055-.064.102-.074.15-.092-.045.007-.09.011-.14.052zm-.232-.634c-.004-.024-.03-.043-.033-.062-.004-.02.029-.006.025-.022s-.035-.019-.04-.04c-.006-.022.02-.027.014-.044-.006-.016-.033-.007-.039-.028-.005-.021.026-.032.023-.057-.004-.024.02-.035.04-.018.012.011.01.027.03.044.018.017.039.008.044.025.006.016-.025.022-.022.042.003.02.035.023.035.039s-.03.011-.036.027c-.006.015.021.016.011.04-.01.022-.052.054-.052.054"/><path fill="#00a854" d="M12.707 9.453c.122-.085.09-.19-.05-.306.093.066.246.205.064.314z"/><path fill="#00a854" d="M12.81 9.444c-.04-.078-.093-.113-.145-.155.053.033.106.064.15.122zm-.016-.074c-.05-.085-.1-.116-.15-.154.05.027.098.051.147.113z"/><path fill="#00a854" d="M12.706 9.379c.028-.074.083-.112.135-.155-.056.035-.112.068-.15.126zm.008.074c.028-.074.083-.111.134-.155-.055.036-.111.069-.15.126zm-.116-.116c0-.022-.024-.042-.025-.06 0-.02.033-.004.032-.019-.002-.015-.035-.021-.037-.042s.028-.023.024-.04c-.004-.015-.035-.01-.037-.03-.002-.02.034-.027.035-.05 0-.024.028-.032.046-.014.012.012.007.027.025.044.017.018.04.011.044.027.003.017-.032.019-.032.038 0 .02.033.025.03.04-.003.016-.034.008-.043.022-.01.014.02.017.005.038-.015.021-.067.046-.067.046"/><path fill="#00a854" d="M12.57 9.365c.148-.076.165-.176.092-.289.055.065.129.201-.082.298z"/><path fill="#00a854" d="M12.727 9.365c-.032-.074-.087-.112-.138-.155.054.035.11.069.15.126zm.002-.071c-.046-.08-.098-.114-.15-.155.052.03.103.06.15.119z"/><path fill="#00a854" d="M12.626 9.31c.037-.078.09-.113.142-.155-.053.033-.108.063-.15.122zm-.004.07c.037-.077.09-.112.142-.154-.053.033-.107.063-.15.122zm.113.245c-.03-.004-.057.02-.08.017-.026-.002-.004-.037-.024-.038-.02-.001-.029.035-.056.034s-.03-.035-.05-.033c-.022.001-.016.037-.042.036-.027 0-.035-.043-.066-.047-.03-.005-.04-.038-.016-.055.016-.012.036-.004.06-.02.023-.017.006-.026.028-.026.021-.001.031.032.057.036.025.004.034-.047.054-.04.02.005.008.039.026.051.018.013.024-.018.05.002.027.02.059.083.059.083"/><path fill="#00a854" d="M12.77 9.686a.372.372 0 0 0-.377-.141.345.345 0 0 1 .389.136z"/><path fill="#00a854" d="M12.718 9.565c-.07.022-.108.072-.15.119.035-.051.068-.103.123-.136zm-.093-.027c-.077.043-.11.097-.15.15.03-.054.059-.108.116-.155z"/><path fill="#00a854" d="M12.648 9.654c-.076-.043-.11-.098-.15-.151.031.053.06.108.117.155zm.092.011c-.075-.044-.109-.099-.15-.152.032.054.06.109.118.155zm.121.049c.007-.022-.01-.044-.005-.062.005-.02.03 0 .033-.014.003-.015-.025-.025-.02-.045.003-.02.03-.02.03-.036.002-.016-.027-.014-.023-.034.003-.02.037-.023.044-.046.006-.022.033-.026.044-.006.008.013 0 .027.01.047s.033.016.031.032c-.001.016-.032.014-.038.032s.023.029.016.043c-.007.015-.032.003-.044.016-.012.012.012.019-.006.037a.255.255 0 0 1-.072.036"/><path fill="#00a854" d="M12.836 9.738a.33.33 0 0 0 .15-.276.305.305 0 0 1-.148.285z"/><path fill="#00a854" d="M13.004 9.745c-.011-.07-.06-.11-.102-.155.048.038.099.075.125.131zm.036-.07c-.036-.075-.09-.112-.141-.155.054.034.108.067.15.125z"/><path fill="#00a854" d="M12.927 9.701c.047-.083.099-.115.15-.155-.05.029-.102.055-.15.115zm-.021.069c.047-.084.1-.116.15-.155-.05.028-.102.054-.15.115zm-.188.387c-.015-.02-.068-.024-.08-.04-.014-.018.025-.018.014-.03-.011-.014-.043-.005-.058-.023-.015-.018.008-.033-.006-.047-.014-.013-.036.006-.051-.012-.015-.017.01-.04-.005-.061-.014-.022.004-.04.03-.032.018.005.024.021.05.03.027.009.042-.008.055.006.014.013-.014.03-.002.048.013.018.045.008.052.024.008.015-.023.021-.022.038.001.017.028.007.03.033 0 .025-.007.066-.007.066"/><path fill="#00a854" d="M12.765 10.186c-.043-.077-.11-.105-.15-.13.038.013.104.034.144.085z"/><path fill="#00a854" d="M12.69 10.118c-.02-.065.02-.108.05-.155-.04.042-.084.082-.09.136zm.073.067c-.019-.076-.036-.1-.005-.155-.041.048-.029.07-.034.133z"/><path fill="#00a854" d="M12.72 10.199c.001-.095-.081-.192-.18-.283.06.05.198.164.189.29z"/><path fill="#00a854" d="M12.708 10.084c-.057-.052-.103-.048-.15-.052.044-.007.087-.016.138.012zm.078-.086c-.021-.017-.073-.01-.09-.022-.019-.015.018-.022.004-.033-.015-.01-.043.005-.063-.01-.02-.013-.003-.033-.02-.043-.018-.01-.034.013-.054 0-.02-.014-.002-.041-.023-.059-.021-.017-.01-.04.019-.037.019.001.03.015.058.018.028.003.037-.016.054-.006s-.004.033.014.047c.017.015.045-.001.057.012.012.013-.016.026-.01.042.007.016.03.001.039.025.01.024.015.066.015.066"/><path fill="#00a854" d="M12.8 10.007c-.046-.05-.11-.041-.15-.044.037-.008.099-.023.141.004z"/><path fill="#00a854" d="M12.744 9.982c-.054-.06-.041-.107-.038-.155-.016.045-.036.089-.01.141zm.08.055c-.055-.073-.083-.095-.08-.155-.016.055.006.074.031.139z"/><path fill="#00a854" d="M12.8 10.037c-.028-.092-.138-.168-.262-.234.074.035.243.115.273.239z"/><path fill="#00a854" d="M12.728 9.93c-.062-.021-.105.006-.15.025.04-.028.08-.059.133-.057zm-.038.374c.026-.015.035-.042.055-.053.02-.013.02.018.037.007.015-.01.004-.034.026-.048.022-.014.04.003.056-.01.016-.013-.007-.028.014-.042.021-.014.049.004.075-.01.025-.014.049-.002.039.02-.007.015-.026.022-.036.043-.01.022.01.033-.007.045-.016.012-.037-.008-.059.003-.021.012-.009.037-.027.044-.019.008-.026-.016-.047-.013-.02.003-.009.023-.04.026-.03.004-.085-.012-.085-.012"/><path fill="#00a854" d="M12.648 10.307a.625.625 0 0 0 .337-.157c-.059.055-.192.158-.344.164zm.164.073c.092-.057.11-.106.14-.156-.015.047-.025.094-.085.146zm.115-.052c.06-.061.054-.107.058-.155.01.044.022.087-.01.14z"/><path fill="#00a854" d="M12.876 10.31c.062-.028.105-.005.15.01-.04-.024-.08-.051-.132-.045zm-.08.041c.062-.028.104-.005.15.01-.04-.024-.08-.051-.132-.045zm-.018-.173c.018-.017.02-.042.033-.055.015-.015.023.011.034 0 .011-.012-.005-.03.01-.047.016-.016.036-.004.046-.018.01-.014-.013-.023.002-.039.015-.015.043-.005.061-.022.019-.016.042-.01.039.011-.002.014-.017.023-.02.044-.004.02.016.026.005.039-.011.013-.034 0-.05.014-.015.014.002.032-.012.042-.014.01-.027-.01-.044-.003-.016.006-.002.021-.027.03-.025.009-.077.004-.077.004"/><path fill="#00a854" d="M12.742 10.188a.497.497 0 0 0 .251-.194.468.468 0 0 1-.255.202zm.164.052c.055-.061.05-.107.055-.155.007.044.018.087-.012.14z"/><path fill="#00a854" d="M12.987 10.183c.025-.065-.001-.109-.02-.155.028.041.058.081.055.136z"/><path fill="#00a854" d="M12.92 10.174c.058-.05.103-.046.15-.05-.043-.006-.085-.014-.137.013z"/><path fill="#00a854" d="M12.861 10.223c.059-.048.103-.045.15-.05-.043-.005-.085-.013-.136.013zm-1.048-1a1.208 1.208 0 0 0-.384.145c-.176.123-.284.313-.272.504a.76.76 0 0 0 .201.44.732.732 0 0 0 .437.218c.065.01.132.01.198.011.025.008.024.037-.002.039a.904.904 0 0 1-.586-.196.702.702 0 0 1-.187-.239.59.59 0 0 1-.065-.418c.052-.209.24-.392.485-.462a1.7 1.7 0 0 1 .193-.048z"/><path fill="#00a854" d="M12.06 10.543c.125.036.078.173-.04.152-.052-.031-.054-.166.04-.152m-.21-1.309c.02-.009.042.016.058.01.018-.008.003-.025.016-.03s.024.008.043.001c.018-.007.014-.025.03-.029.014-.003.01.01.028.003.018-.006.024-.034.045-.044.021-.01.028-.032.011-.038-.011-.003-.02.005-.037 0-.017-.006-.016-.021-.031-.017s-.015.027-.033.035c-.018.008-.017-.007-.031.002-.014.008-.012.019-.024.03-.013.013-.028-.005-.046.014-.019.018-.03.063-.03.063"/><path fill="#00a854" d="M11.821 9.267a.487.487 0 0 1 .265-.155.454.454 0 0 0-.27.151zm.111-.055c.07-.007.108.018.15.039-.035-.026-.068-.054-.123-.06zm.07-.047c.077.016.11.054.15.089-.03-.038-.059-.078-.116-.102z"/><path fill="#00a854" d="M11.985 9.26c.076-.052.11-.103.15-.154a.585.585 0 0 1-.117.15zm-.065.024c.077-.053.11-.104.15-.155a.602.602 0 0 1-.116.15zm-.487.12c.027.005.046.031.068.036.023.005.01-.03.028-.025.017.004.018.036.043.042.024.007.032-.02.05-.013.02.008.007.035.03.04.024.007.04-.024.068-.02.027.005.042-.019.024-.04-.012-.013-.03-.012-.049-.032-.018-.02-.005-.04-.024-.046-.019-.006-.028.025-.05.021-.024-.004-.024-.036-.043-.036-.018 0-.015.029-.033.034-.019.006-.017-.021-.045-.012-.027.009-.067.05-.067.05"/><path fill="#00a854" d="M11.396 9.451c.101-.102.221-.062.35.075-.072-.091-.229-.243-.36-.089z"/><path fill="#00a854" d="M11.548 9.38c.077.042.11.097.15.15-.03-.054-.058-.108-.116-.155zm.092.008c.087.052.114.103.15.155-.024-.05-.044-.1-.105-.15z"/><path fill="#00a854" d="M11.619 9.486c.07-.021.107-.068.15-.11-.036.046-.07.094-.124.125zm-.085-.008c.07-.021.107-.068.15-.11-.036.046-.07.094-.124.125zm-.415.356c-.01-.02-.002-.045-.01-.062-.008-.018-.025.005-.031-.009-.006-.014.016-.028.008-.047s-.03-.014-.035-.03c-.005-.016.021-.018.013-.037-.007-.019-.038-.017-.048-.038-.011-.02-.036-.021-.041 0-.004.013.007.026.002.047-.005.02-.026.02-.02.036.004.015.031.008.04.026.01.018-.014.03-.005.044.01.013.029-.001.042.009.014.01-.006.02.014.036.02.015.07.025.07.025"/><path fill="#00a854" d="M11.148 9.854a.42.42 0 0 1-.158-.254c.012.064.051.196.16.262z"/><path fill="#00a854" d="M11.11 9.873c-.013-.066.02-.109.048-.155-.035.04-.073.08-.08.134zm-.07-.068c.02-.07.072-.11.12-.155-.053.037-.108.073-.14.13z"/><path fill="#00a854" d="M11.132 9.826c-.052-.078-.101-.1-.15-.129.047.018.095.034.144.087z"/><path fill="#00a854" d="M11.167 9.89c-.052-.078-.1-.1-.15-.13.047.019.095.034.144.087zm.031-.309c-.006-.022.01-.044.005-.062-.005-.02-.03 0-.033-.014-.003-.015.025-.025.021-.045-.004-.02-.03-.02-.032-.036 0-.016.028-.014.025-.034-.004-.02-.038-.023-.045-.045-.006-.023-.033-.027-.044-.007-.007.013 0 .027-.01.047s-.033.016-.031.032c.002.016.033.014.038.033.006.018-.023.028-.016.042.007.015.032.003.044.016.012.012-.012.02.006.037a.255.255 0 0 0 .072.036"/><path fill="#00a854" d="M11.257 9.605a.33.33 0 0 1-.15-.276.305.305 0 0 0 .149.285z"/><path fill="#00a854" d="M11.165 9.612c.01-.07.06-.11.102-.154-.049.037-.1.074-.125.13zm-.041-.07c.035-.075.09-.112.14-.155-.053.034-.107.067-.15.125z"/><path fill="#00a854" d="M11.23 9.568c-.046-.083-.098-.115-.15-.154.051.028.103.054.15.114zm.02.069c-.046-.084-.098-.116-.15-.155.052.028.103.054.15.115zm.059-.089c.03-.004.056.02.08.017.026-.002.004-.037.024-.038.02-.001.029.035.056.034.027-.001.029-.035.05-.033.022.001.015.037.042.036.026-.001.035-.043.066-.047.03-.005.04-.038.016-.055-.016-.012-.036-.004-.06-.02-.024-.017-.006-.026-.028-.026-.021-.001-.032.032-.057.036-.026.003-.034-.047-.054-.04-.02.005-.009.038-.027.051-.018.013-.023-.018-.05.002-.027.02-.058.083-.058.083"/><path fill="#00a854" d="M11.273 9.609a.372.372 0 0 1 .378-.141.345.345 0 0 0-.39.136z"/><path fill="#00a854" d="M11.428 9.488c.07.022.108.072.15.119-.035-.051-.068-.103-.123-.136zm.101-.028c.077.044.11.098.15.151-.03-.054-.059-.108-.116-.155z"/><path fill="#00a854" d="M11.505 9.577c.076-.043.11-.098.15-.151-.032.054-.06.108-.117.155zm-.093.011c.076-.044.11-.099.15-.152-.031.054-.06.109-.117.155zm-.151-.096c0-.023.024-.043.025-.061 0-.02-.033-.004-.032-.019.002-.015.035-.02.037-.041s-.028-.024-.024-.04.035-.01.037-.03c.002-.02-.034-.028-.035-.052 0-.023-.028-.03-.046-.013-.012.012-.008.027-.025.045-.017.017-.04.01-.044.027-.003.016.032.018.032.038s-.033.024-.03.04c.003.015.033.007.043.021.01.014-.02.017-.005.038a.25.25 0 0 0 .067.047"/><path fill="#00a854" d="M11.358 9.52c-.147-.076-.165-.177-.091-.29-.055.065-.129.201.082.298z"/><path fill="#00a854" d="M11.224 9.52c.032-.075.087-.112.138-.156-.054.035-.11.069-.15.126zm-.01-.072c.046-.08.099-.114.15-.155-.051.03-.103.06-.15.119z"/><path fill="#00a854" d="M11.323 9.464c-.037-.078-.091-.113-.142-.155.053.033.107.063.15.122zm.003.071c-.037-.078-.09-.113-.142-.155.053.033.108.063.15.122zm.175-.251c.004-.024.03-.043.033-.062.004-.02-.029-.006-.025-.022s.035-.019.04-.04c.006-.021-.02-.027-.014-.044.006-.016.033-.007.039-.028.005-.021-.026-.032-.023-.057.004-.024-.02-.035-.04-.018-.012.011-.01.027-.03.044-.018.017-.039.008-.044.025-.006.016.025.022.022.042-.003.02-.035.023-.035.04 0 .015.03.01.036.026.006.015-.021.016-.011.04.01.022.052.054.052.054"/><path fill="#00a854" d="M11.577 9.315c-.122-.085-.09-.19.05-.306-.094.066-.246.205-.065.314z"/><path fill="#00a854" d="M11.487 9.306c.04-.077.093-.113.145-.155-.053.033-.106.064-.15.122zm.008-.073c.05-.086.1-.116.15-.155-.049.027-.098.051-.146.113z"/><path fill="#00a854" d="M11.597 9.24c-.027-.073-.083-.11-.134-.154.055.035.112.068.15.126zm-.007.075c-.028-.074-.084-.111-.135-.154.055.035.112.068.15.125z"/><path fill="#00a854" d="M11.635 9.24c-.002-.02.04-.04.04-.056 0-.018-.03-.003-.03-.016 0-.014.021-.023.021-.04s-.026-.015-.023-.03c.003-.014.018-.01.018-.027 0-.018-.034-.024-.036-.045-.002-.02-.029-.026-.044-.01-.01.01-.004.02-.02.035-.014.016-.034.015-.036.03-.002.014.028.014.03.031.001.018-.017.017-.013.03.004.014.019.012.028.024.01.013-.02.026-.004.045.015.018.069.029.069.029"/><path fill="#00a854" d="M11.723 9.267c-.124-.054-.165-.156-.125-.256-.033.057-.064.177.11.26z"/><path fill="#00a854" d="M11.596 9.283c.028-.074.082-.112.132-.155-.054.035-.109.07-.146.126zm-.016-.063c.044-.08.096-.114.148-.155-.052.031-.104.06-.15.12z"/><path fill="#00a854" d="M11.691 9.235c-.04-.078-.093-.113-.144-.155.052.033.106.063.15.122zm.007.062c-.04-.077-.093-.113-.144-.155.052.033.106.063.15.122zm-.307 1.039c.005-.024.03-.044.035-.064.004-.021-.029-.005-.024-.022.004-.016.035-.021.04-.043.006-.022-.02-.026-.012-.044.006-.017.033-.01.039-.031.006-.022-.025-.032-.02-.057.004-.025-.02-.035-.04-.016-.012.012-.011.029-.03.047-.02.019-.039.01-.045.028-.006.017.024.02.02.042-.003.02-.034.025-.035.042 0 .016.029.01.034.025.006.015-.02.018-.012.04.01.024.05.053.05.053"/><path fill="#00a854" d="M11.446 10.354c-.098-.084-.055-.18.074-.3-.086.069-.235.201-.087.31z"/><path fill="#00a854" d="M11.382 10.354c.04-.075.094-.112.145-.155-.052.034-.105.067-.15.125zm.011-.076c.05-.083.1-.115.15-.155-.049.03-.097.056-.146.116z"/><path fill="#00a854" d="M11.493 10.291c-.025-.076-.08-.112-.132-.155.056.034.113.066.15.124zm-.01.077c-.025-.076-.08-.113-.132-.155.055.034.113.066.15.124zm-.298-.638c.03-.009.067.002.092-.004.027-.007-.01-.027.012-.032s.043.02.071.013c.028-.007.02-.03.043-.034.024-.003.029.024.057.018.028-.007.023-.038.054-.047.031-.01.03-.034-.001-.042-.021-.005-.04.005-.07-.002-.032-.007-.033-.029-.056-.025s-.011.032-.038.04c-.026.008-.047-.017-.066-.009-.02.008.004.03-.01.042-.016.013-.032-.008-.054.011-.022.02-.034.07-.034.07"/><path fill="#00a854" d="M11.295 9.706c.063-.003.105.032.15.062-.04-.036-.078-.075-.131-.087zm.103-.056c.068.025.107.077.15.124-.036-.05-.071-.103-.126-.139z"/><path fill="#00a854" d="M11.37 9.753c.094-.051.117-.103.15-.155-.018.05-.034.101-.097.151zm-.093.027c.094-.052.116-.104.15-.156-.02.05-.035.101-.097.151z"/><path fill="#00a854" d="M11.17 9.767c.077-.09.195-.132.36-.155-.096.008-.279.03-.373.155z"/><path fill="#00a854" d="M11.185 9.88c.023-.015.073-.003.092-.015.02-.013-.016-.024 0-.033.015-.01.041.008.063-.005.022-.013.006-.033.025-.042.018-.008.031.016.053.003.021-.012.006-.04.03-.056.022-.016.013-.04-.016-.039-.019 0-.03.014-.06.014-.027.001-.035-.019-.053-.01-.018.01 0 .033-.018.047-.02.013-.045-.005-.058.007-.014.012.013.027.004.042-.008.016-.029 0-.04.023s-.022.064-.022.064"/><path fill="#00a854" d="M11.262 9.89c.05-.041.111-.019.15-.014-.035-.016-.096-.043-.138-.024z"/><path fill="#00a854" d="M11.359 9.875c.066-.059.061-.106.067-.155.008.045.02.09-.017.143zm-.086.05c.066-.072.097-.094.103-.155.008.057-.017.076-.053.14z"/><path fill="#00a854" d="M11.166 9.919c.038-.09.155-.158.286-.215-.078.03-.254.097-.297.218zm.184-.107c.063-.01.105.023.15.05-.04-.034-.079-.072-.132-.08zm.428-.608c.016-.013.045-.004.058-.014.014-.011-.007-.017.004-.026.011-.008.025-.002.04-.013s.004-.022.017-.03c.013-.007.013.003.027-.007s.01-.032.027-.046c.016-.013.014-.03-.004-.029-.012.002-.017.01-.035.012-.017.003-.022-.008-.034 0s-.005.023-.018.034c-.014.012-.019.002-.029.013-.01.01-.004.016-.011.029s-.027.006-.038.024c-.01.02-.004.053-.004.053"/><path fill="#00a854" d="M11.763 9.235a.467.467 0 0 1 .193-.19.452.452 0 0 0-.198.189zm.071-.015c.062-.04.104-.034.15-.036-.04-.007-.08-.016-.133.005zm.054-.06c.066-.017.106.004.15.02-.038-.023-.074-.046-.128-.046z"/><path fill="#00a854" d="M11.902 9.22c.055-.06.065-.107.081-.155-.007.045-.012.089-.047.142z"/><path fill="#00a854" d="M11.853 9.263c.056-.06.065-.107.081-.155-.007.044-.012.088-.047.141zm-.133-.059c.012-.015.037-.017.046-.029.01-.012-.032-.028-.025-.037.008-.01.023-.004.033-.017.011-.012-.001-.024.008-.033.01-.009.013.003.023-.01.011-.012.014-.03.026-.045.01-.015.004-.035-.012-.032-.01.002-.013.011-.028.014-.016.003-.024-.008-.038-.004-.013.004-.016.011-.025.024-.01.013-.017.003-.023.015-.006.011 0 .018-.002.032-.004.014-.024.007-.029.029-.004.02.047.093.047.093"/><path fill="#00a854" d="M11.738 9.24c-.043-.08 0-.187.13-.232-.062.023-.11.053-.134.101a.15.15 0 0 0-.003.13z"/><path fill="#00a854" d="M11.725 9.236a.31.31 0 0 1 .15-.09c-.032-.006-.106.03-.142.054z"/><path fill="#00a854" d="M11.755 9.14c.061-.022.105 0 .15.015-.04-.023-.081-.048-.133-.045z"/><path fill="#00a854" d="M11.802 9.183c.028-.06.019-.106.015-.155.01.045.023.088.011.141z"/><path fill="#00a854" d="M11.824 9.261c.023-.085-.077-.103-.128-.154.047.025.159.06.149.135z"/><path fill="#00a854" d="M11.802 9.282c.025-.004.037-.057.056-.06.021-.004.012.033.028.029s.02-.03.043-.036.025.025.041.018c.017-.006.006-.022.028-.027s.038.031.064.028c.024-.004.04.024.026.046-.01.014-.023.01-.038.03-.014.022-.008.044-.025.05s-.025-.027-.047-.024c-.02.003-.015.023-.032.022-.018 0-.02-.018-.037-.025-.017-.008-.026.029-.052.017s-.055-.068-.055-.068"/><path fill="#00a854" d="M11.761 9.234c.084.175.212.159.326-.001-.064.109-.203.269-.329.03z"/><path fill="#00a854" d="M11.91 9.369c.08-.034.11-.08.15-.125-.028.046-.053.092-.112.13zm.09.007c.083-.05.102-.103.13-.155-.015.051-.028.102-.082.152z"/><path fill="#00a854" d="M11.974 9.28c.068.021.107.062.15.1-.037-.04-.072-.082-.126-.11zm-.078.003c.068.022.107.063.15.1-.036-.04-.072-.081-.126-.11z"/><path fill="#00a854" d="M11.698 9.292c.027.003.042-.036.063-.033.024.002.013.03.03.03.018.002.024-.018.048-.017.024.002.026.027.045.026s.007-.016.03-.015c.024.002.042.035.07.04.027.003.044.03.027.043-.011.01-.025.002-.042.015-.016.013-.01.032-.028.032-.019 0-.028-.028-.051-.031-.023-.003-.018.014-.037.009-.019-.005-.02-.02-.04-.03-.018-.01-.028.017-.056 0a.235.235 0 0 1-.059-.07"/><path fill="#00a854" d="M11.654 9.262c.09.111.23.162.357.146-.07.017-.224.022-.36-.136z"/><path fill="#00a854" d="M11.815 9.416c.08-.018.111-.063.15-.104-.029.045-.055.091-.113.12zm.091.031c.093-.042.116-.097.15-.15-.02.055-.036.11-.098.155z"/><path fill="#00a854" d="M11.886 9.327c.068.045.107.1.15.152-.036-.053-.071-.107-.126-.155zm-.086-.011c.069.045.108.1.15.152-.036-.053-.07-.107-.125-.155z"/><path fill="#00a854" d="M11.615 9.32c.027.005.044-.03.065-.026.023.004.01.028.028.03.018.003.025-.015.049-.012.024.003.025.026.043.026.019 0 .008-.014.032-.011.023.003.04.035.067.04.027.006.042.032.024.043-.011.007-.024 0-.042.01-.017.011-.012.03-.03.028-.02 0-.026-.027-.05-.032s-.018.012-.037.006c-.018-.006-.019-.02-.037-.03-.019-.012-.03.013-.057-.004a.223.223 0 0 1-.055-.068"/><path fill="#00a854" d="M11.573 9.29a.481.481 0 0 0 .352.154.436.436 0 0 1-.356-.145z"/><path fill="#00a854" d="M11.73 9.448c.077-.012.11-.055.15-.093-.03.043-.058.087-.115.111zm.09.04c.089-.038.115-.094.15-.146-.023.054-.042.11-.103.155z"/><path fill="#00a854" d="M11.8 9.367c.069.047.107.101.15.154-.036-.053-.07-.106-.125-.155zm-.085-.015c.07.047.108.1.15.154a.76.76 0 0 0-.124-.155zm.166 1.175c-.011-.018-.036-.027-.046-.04-.01-.016.02-.013.011-.024-.008-.012-.033-.007-.044-.023-.012-.015.006-.026-.004-.037-.011-.012-.028.001-.04-.014-.01-.015.009-.031-.003-.05-.01-.018.003-.032.024-.024.013.006.018.02.038.028.02.01.032-.003.042.01.01.011-.011.023-.002.038.01.016.034.01.04.023s-.018.015-.017.029c0 .014.02.008.021.029.001.02-.02.055-.02.055"/><path fill="#00a854" d="M11.902 10.555c.002-.076-.052-.157-.141-.237.055.044.159.142.15.243z"/><path fill="#00a854" d="M11.966 10.56c-.052-.07-.1-.09-.15-.117.048.017.095.032.144.08zm-.042-.081c-.057-.052-.102-.056-.15-.067.044.002.088.001.139.033z"/><path fill="#00a854" d="M11.888 10.518c-.014-.067.016-.11.04-.155-.031.04-.065.078-.07.134zm.032.057c-.014-.067.016-.11.04-.155-.032.04-.065.078-.07.134zm-.092.023c-.03-.004-.052-.03-.076-.035-.026-.004-.01.03-.03.026s-.021-.037-.048-.042c-.027-.006-.035.021-.056.014-.02-.007-.008-.034-.034-.04-.026-.006-.042.026-.073.022-.03-.004-.045.02-.025.04.013.014.034.013.054.032.02.02.008.04.029.046.02.006.03-.025.055-.022.025.003.026.036.047.036.02 0 .016-.03.036-.036.02-.006.02.022.049.012.03-.01.072-.053.072-.053"/><path fill="#00a854" d="M11.868 10.614c-.11.117-.242.08-.385-.061.08.095.254.25.396.076z"/><path fill="#00a854" d="M11.81 10.713c-.075-.042-.109-.097-.15-.15.032.054.06.108.118.155zm-.09-.015c-.086-.052-.114-.104-.15-.155.024.05.046.1.106.15z"/><path fill="#00a854" d="M11.726 10.604c-.07.027-.108.082-.15.133.035-.055.068-.112.123-.15zm.094.008c-.07.027-.108.082-.15.133.034-.055.068-.112.123-.149zm-.084-.102c-.011-.019-.036-.027-.046-.042-.01-.015.02-.012.011-.023-.008-.012-.033-.007-.044-.022-.011-.016.006-.027-.004-.038-.011-.012-.028.001-.04-.014-.01-.015.009-.031-.002-.05-.012-.018.003-.032.023-.023.014.006.018.019.038.028.02.009.032-.003.042.009.01.011-.011.023-.002.038.01.016.034.01.04.023s-.018.016-.017.03c0 .013.02.008.022.028 0 .02-.02.055-.02.055"/><path fill="#00a854" d="M11.757 10.537c.002-.076-.051-.157-.141-.237.055.044.159.143.15.243z"/><path fill="#00a854" d="M11.821 10.543c-.052-.07-.1-.09-.15-.118.048.017.095.033.144.08zm-.041-.082c-.058-.051-.103-.056-.15-.067.043.002.087.002.138.033z"/><path fill="#00a854" d="M11.743 10.5c-.013-.067.017-.11.04-.155-.031.04-.065.079-.07.134zm.031.057c-.013-.067.017-.11.04-.155-.03.04-.064.079-.069.134zm-.123-.01c-.03-.004-.051-.03-.075-.035-.026-.004-.01.03-.03.026-.02-.004-.022-.036-.049-.042-.026-.006-.035.021-.055.014-.021-.007-.008-.034-.034-.04-.026-.006-.042.026-.073.022-.03-.004-.046.02-.025.04.013.014.034.013.054.032.02.02.007.04.028.046.021.006.03-.025.055-.022.026.003.027.036.048.036.02 0 .015-.03.035-.036.02-.006.02.022.05.012.03-.01.071-.053.071-.053"/><path fill="#00a854" d="M11.692 10.563c-.11.117-.243.08-.386-.061.081.095.255.25.396.076z"/><path fill="#00a854" d="M11.634 10.662c-.076-.042-.11-.097-.15-.15.031.054.06.109.117.155zm-.091-.015c-.085-.052-.113-.104-.15-.155.025.05.047.1.107.15z"/><path fill="#00a854" d="M11.55 10.553c-.071.027-.108.082-.15.133.034-.055.067-.112.123-.149zm.093.008c-.07.027-.108.082-.15.133.035-.055.068-.112.123-.149zm-.214-.131c-.028-.011-.043-.039-.065-.048-.023-.01-.017.022-.034.014s-.012-.036-.037-.047-.039.01-.057-.002c-.018-.01.001-.03-.023-.042-.023-.011-.046.012-.075 0-.028-.01-.049.006-.034.028.01.015.03.019.044.04.015.022-.003.036.016.046.019.01.035-.014.059-.005s.016.037.036.042.022-.021.043-.021c.02 0 .014.022.045.022.03-.001.082-.027.082-.027"/><path fill="#00a854" d="M11.471 10.456c-.115.01-.24-.046-.365-.144.07.061.223.174.374.153z"/><path fill="#00a854" d="M11.424 10.518c-.086-.052-.113-.104-.15-.155.025.05.046.1.106.15zm-.1-.04c-.084-.058-.095-.106-.117-.155.008.046.012.091.064.144z"/><path fill="#00a854" d="M11.329 10.431c-.066-.007-.106.03-.15.06.038-.038.075-.077.128-.088zm.087.029c-.065-.006-.106.03-.15.06.038-.038.075-.077.129-.088zm.212.018c-.008-.018-.033-.031-.04-.045-.006-.015.026-.006.02-.017-.005-.012-.034-.014-.042-.03-.008-.015.016-.02.007-.032s-.032-.005-.04-.02c-.008-.016.02-.025.013-.043-.007-.018.014-.026.034-.014.014.008.015.02.034.032.02.012.038.005.045.017.008.012-.02.017-.015.032.006.015.036.016.038.028.002.013-.026.01-.03.021-.003.012.022.012.016.03-.005.016-.04.04-.04.04"/><path fill="#00a854" d="M11.667 10.491c.051-.063.001-.132-.114-.217.074.048.206.141.125.224z"/><path fill="#00a854" d="M11.725 10.534c-.046-.078-.098-.113-.15-.154.052.032.104.062.15.12zm-.024-.074c-.052-.067-.1-.09-.15-.12.047.02.094.039.143.086z"/><path fill="#00a854" d="M11.627 10.485c.012-.073.055-.111.093-.155-.043.036-.087.07-.112.127zm.014.055c.012-.073.055-.111.093-.155-.043.036-.087.07-.111.127zm-.148-.146c-.002-.019-.026-.036-.028-.05-.002-.017.031-.003.03-.016-.003-.013-.036-.018-.04-.035-.002-.017.026-.02.021-.033-.005-.013-.034-.009-.038-.026-.003-.017.032-.022.03-.042 0-.02.026-.025.045-.01.012.01.009.022.027.037.018.015.04.01.044.023.004.014-.03.015-.028.031 0 .017.034.021.032.034-.002.013-.032.006-.04.018-.009.011.02.014.007.031a.212.212 0 0 1-.062.038"/><path fill="#00a854" d="M11.466 10.407c.166-.062.152-.136.037-.23.082.054.217.158-.024.237z"/><path fill="#00a854" d="M11.611 10.443c-.035-.073-.09-.111-.14-.155.053.036.107.07.15.127zm-.002-.059c-.048-.08-.1-.114-.15-.155.05.03.1.06.149.119z"/><path fill="#00a854" d="M11.504 10.398c.034-.078.088-.114.14-.155-.054.032-.11.063-.15.121zm.001.059c.033-.078.088-.113.139-.155-.054.032-.109.063-.15.121zm-.365-.45c-.015-.019-.01-.044-.022-.059-.012-.017-.025.008-.033-.005-.009-.013.01-.03 0-.047-.013-.018-.035-.01-.042-.025-.007-.015.018-.02.006-.038-.01-.017-.04-.011-.055-.03-.015-.02-.04-.016-.04.005-.002.014.011.025.01.046 0 .02-.021.023-.013.038.008.014.033.004.045.02.013.016-.008.032.004.044.012.011.028-.006.043.003.016.008-.002.021.021.033a.25.25 0 0 0 .075.015"/><path fill="#00a854" d="M11.172 10.022a.452.452 0 0 1-.206-.227c.025.062.089.186.209.236z"/><path fill="#00a854" d="M11.14 10.056c-.034-.064-.014-.108-.001-.155-.023.042-.048.084-.036.138zm-.084-.063c-.002-.068.039-.11.073-.155-.041.04-.085.077-.1.132z"/><path fill="#00a854" d="M11.125 10c-.056-.065-.102-.075-.15-.093.045.007.09.011.14.052z"/><path fill="#00a854" d="M11.172 10.057c-.055-.065-.102-.074-.15-.092.045.007.09.01.14.051zm.141-.635c.004-.023.029-.042.033-.061.004-.02-.03-.007-.026-.022.004-.016.036-.02.04-.04.006-.022-.02-.027-.014-.044.007-.017.034-.008.04-.029.005-.02-.027-.032-.023-.056s-.02-.035-.04-.018c-.013.01-.011.027-.03.044-.019.017-.04.008-.045.024-.005.017.026.023.023.043-.004.02-.035.022-.035.039 0 .016.03.01.035.026.006.016-.02.017-.01.04.009.023.052.054.052.054"/><path fill="#00a854" d="M11.389 9.453c-.123-.084-.09-.19.05-.305-.094.065-.247.205-.065.314z"/><path fill="#00a854" d="M11.298 9.444c.04-.077.094-.113.145-.155-.052.033-.105.064-.15.123zm.009-.073c.05-.085.1-.116.15-.155-.05.028-.098.052-.147.113z"/><path fill="#00a854" d="M11.409 9.38c-.028-.074-.083-.112-.135-.155.056.035.112.068.15.125zm-.009.074c-.027-.074-.082-.112-.133-.155.055.035.112.069.15.126z"/><path fill="#00a854" d="M11.425 9.338c0-.023.024-.042.024-.06 0-.02-.032-.004-.031-.02s.035-.02.036-.04-.028-.024-.024-.04c.004-.017.035-.01.037-.03.002-.021-.034-.029-.034-.052 0-.023-.029-.031-.047-.014-.012.012-.007.027-.024.045-.018.018-.041.01-.044.027-.003.016.031.019.032.038 0 .02-.034.025-.03.04.002.015.033.008.042.022.01.014-.019.017-.004.038.014.02.067.046.067.046"/><path fill="#00a854" d="M11.522 9.366c-.147-.076-.165-.176-.092-.29-.055.065-.129.202.082.299z"/><path fill="#00a854" d="M11.387 9.366c.033-.074.087-.112.138-.155-.054.035-.11.068-.15.126zm-.009-.071c.046-.08.098-.114.15-.155-.052.03-.103.059-.15.118z"/><path fill="#00a854" d="M11.486 9.31c-.037-.077-.09-.113-.142-.155.053.033.108.064.15.123zm.004.071c-.037-.077-.091-.113-.142-.155.053.033.107.064.15.122zm-.233.245c.03-.004.056.02.08.017.026-.003.004-.037.023-.038.02-.002.03.035.056.034.027-.002.03-.036.051-.034.022.002.015.038.042.037.026-.001.035-.043.066-.048.03-.004.04-.037.015-.054-.016-.012-.035-.004-.06-.02-.023-.017-.006-.026-.027-.027s-.032.033-.057.037c-.026.003-.034-.047-.054-.041-.02.006-.009.04-.027.052-.018.013-.023-.019-.05.001s-.058.084-.058.084"/><path fill="#00a854" d="M11.221 9.686a.372.372 0 0 1 .377-.14.345.345 0 0 0-.388.136z"/><path fill="#00a854" d="M11.376 9.565c.07.022.107.073.15.12-.035-.051-.068-.103-.123-.136zm.101-.026c.076.042.11.097.15.15a.503.503 0 0 0-.116-.155z"/><path fill="#00a854" d="M11.452 9.655c.076-.044.11-.098.15-.152-.03.054-.06.109-.117.155zm-.092.01c.075-.043.11-.098.15-.15-.032.053-.06.107-.118.154zm-.213.05c-.006-.022.01-.045.005-.062-.005-.02-.03 0-.033-.014-.003-.015.025-.026.021-.046s-.03-.019-.032-.035c0-.016.028-.015.025-.035-.004-.02-.038-.022-.045-.045-.006-.022-.033-.026-.044-.006-.008.013 0 .027-.01.046-.01.02-.033.016-.031.033.001.016.033.013.038.032.006.019-.023.028-.016.043.007.014.032.003.044.015.012.013-.012.02.006.038a.255.255 0 0 0 .072.036"/><path fill="#00a854" d="M11.206 9.739a.33.33 0 0 1-.15-.276.305.305 0 0 0 .149.285z"/><path fill="#00a854" d="M11.114 9.746c.01-.07.06-.11.102-.155-.049.038-.1.075-.125.13zm-.041-.07c.035-.075.09-.113.14-.155-.053.034-.107.067-.15.124z"/><path fill="#00a854" d="M11.18 9.702c-.047-.084-.1-.115-.15-.155.05.029.101.054.149.115zm.02.068c-.047-.083-.099-.115-.15-.154.05.028.102.054.15.114zm.074.388c.015-.02.067-.024.08-.04.013-.018-.025-.018-.014-.031.01-.013.043-.005.058-.023.014-.018-.009-.033.005-.046.015-.013.037.005.052-.012.014-.018-.01-.04.004-.062.015-.02-.003-.04-.03-.032-.018.006-.024.022-.05.03-.026.01-.042-.007-.055.006-.013.014.015.03.002.049-.012.018-.044.008-.052.023-.007.016.024.022.022.039-.001.016-.027.007-.029.033a.373.373 0 0 0 .007.066"/><path fill="#00a854" d="M11.316 10.187c.043-.077.11-.105.15-.13-.039.013-.104.034-.145.084z"/><path fill="#00a854" d="M11.428 10.119c.019-.065-.02-.108-.051-.155.04.041.085.082.09.136zm-.074.067c.02-.076.036-.1.006-.155.04.048.028.069.033.133z"/><path fill="#00a854" d="M11.271 10.2c0-.096.082-.192.181-.283-.061.05-.199.163-.19.289zm.106-.116c.058-.051.103-.047.15-.051-.043-.007-.087-.016-.138.011zm-.171-.085c.02-.017.073-.01.09-.023.018-.014-.019-.022-.004-.032.015-.01.043.005.063-.01.02-.014.002-.033.02-.043.018-.01.033.013.053 0 .02-.015.003-.042.024-.06.02-.017.01-.04-.02-.037-.018.002-.03.016-.057.019-.028.003-.038-.016-.055-.006s.005.032-.013.047-.045-.002-.057.012c-.012.013.015.025.009.041-.007.016-.03.002-.038.026a.379.379 0 0 0-.015.066"/><path fill="#00a854" d="M11.275 10.008c.048-.051.111-.041.15-.044-.036-.008-.098-.023-.14.003z"/><path fill="#00a854" d="M11.373 9.983c.055-.06.042-.107.038-.155.016.044.036.088.01.141zm-.079.055c.055-.074.083-.096.08-.155.016.055-.006.074-.032.138z"/><path fill="#00a854" d="M11.19 10.038c.03-.092.14-.168.264-.234-.075.035-.244.115-.274.238zm.167-.107c.062-.021.105.006.15.025-.04-.028-.08-.059-.133-.057zm-.057.373c-.024-.014-.033-.04-.053-.053-.021-.012-.021.018-.037.008-.016-.01-.005-.035-.027-.048-.021-.014-.04.002-.056-.01-.015-.013.008-.028-.014-.042-.02-.014-.048.004-.074-.01-.026-.015-.05-.002-.04.02.007.015.026.021.037.043.01.022-.01.032.006.044.017.012.037-.008.059.004s.01.036.028.044c.018.007.026-.016.046-.013.02.002.01.022.04.026s.086-.013.086-.013"/><path fill="#00a854" d="M11.343 10.307a.625.625 0 0 1-.337-.156c.059.054.193.158.345.164z"/><path fill="#00a854" d="M11.305 10.38c-.092-.056-.11-.105-.14-.155.015.047.026.094.085.146zm-.115-.052c-.06-.06-.054-.106-.058-.154-.009.044-.022.087.01.14z"/><path fill="#00a854" d="M11.211 10.31c-.062-.027-.104-.004-.15.01.04-.024.08-.05.132-.044zm.081.042c-.063-.028-.105-.005-.15.01.04-.024.079-.051.132-.045zm-.079-.173c-.018-.017-.019-.042-.033-.056-.015-.014-.022.012-.033 0-.012-.011.004-.03-.011-.046s-.035-.005-.046-.018c-.01-.014.013-.023-.001-.04-.015-.015-.043-.004-.062-.021-.018-.017-.041-.01-.038.01.002.015.016.024.02.044.003.021-.017.026-.006.04.011.013.034 0 .05.013.015.014-.001.033.013.043.014.01.026-.01.043-.003.017.006.002.02.027.03s.077.004.077.004"/><path fill="#00a854" d="M11.25 10.189a.497.497 0 0 1-.252-.195c.038.057.127.17.256.203z"/><path fill="#00a854" d="M11.211 10.24c-.055-.06-.05-.106-.055-.155-.007.045-.017.088.012.141zm-.081-.057c-.024-.065.002-.108.02-.155-.027.042-.058.082-.054.136z"/><path fill="#00a854" d="M11.175 10.174c-.059-.048-.103-.045-.15-.05.043-.006.085-.013.136.013z"/><path fill="#00a854" d="M11.233 10.224c-.058-.048-.103-.046-.15-.05.043-.006.086-.013.137.013z"/><path fill="#007ea8" d="m11.018 10.444-.475.61a.932.932 0 0 1 .247.624c0 .263-.042.445-.093.611l-.002.005h1.3v-1.837c-.286.183-.68.256-.977-.013"/><path fill="#fff" d="M12.974 10.444c-.298.27-.692.196-.978.013v1.837h1.3l-.001-.005a1.928 1.928 0 0 1-.093-.611c0-.21.09-.469.246-.624z"/><path fill="#d91023" d="M10.695 12.294c-.07.228-.16.426-.187.754-.041.486.337.752.493.828.24.117.493.077.75.11.12.017.186.095.245.159.058-.064.125-.142.244-.158.258-.034.51.006.75-.111.157-.076.535-.342.494-.828-.028-.328-.117-.526-.188-.754z"/><g fill="#00a854"><path d="M12.117 11.667s.017-.083.052-.12c.036-.036.074-.022.098-.035-.016.027-.018.082-.053.119-.035.036-.097.036-.097.036m.217-.117c-.05.044-.08-.005-.15.076m.127-.053c-.049.043-.083-.026-.15.065m.132-.049c-.052.054-.077-.024-.15.078m.138-.059c-.068.054-.082-.033-.15.083m.142-.071c-.064.033-.093-.003-.15.099m.252-.202c-.063.05-.05.089-.15.155m.129-.137c-.065.049-.04.092-.15.155m.124-.134c-.072.052-.031.088-.15.155m.127-.133c-.08.067-.018.096-.15.155m.128-.136c-.055.068-.035.11-.148.155"/><path d="m12.276 11.5-.068.066-.09.088.09-.087.07-.066m-.052-.229s.094.04.115.085c.022.045-.023.08-.023.106-.024-.023-.093-.04-.115-.086-.022-.044.023-.105.023-.105m.052.26c.018-.054.094-.078.1-.155m-.112.126c.018-.053.115-.079.11-.155m-.106.128c.005-.058.096-.072.08-.155m-.079.135c.006-.073.091-.072.044-.155m-.035.139c.006-.064.052-.082-.004-.155m.082.266c-.046-.058-.095-.068-.15-.155m.141.127c-.044-.058-.1-.065-.15-.155m.149.125c-.045-.065-.098-.057-.15-.155m.153.129c-.06-.077-.116-.05-.15-.155m.135.133c-.054-.06-.107-.061-.114-.155"/><path d="m12.362 11.482-.064-.09-.086-.12a20.157 20.157 0 0 0 .145.21m.149-.039s.094.04.115.085c.022.045-.022.079-.022.106-.024-.023-.094-.04-.116-.086-.022-.045.023-.105.023-.105m.052.26c.018-.054.094-.078.1-.155m-.112.126c.018-.053.115-.079.111-.155m-.107.128c.006-.058.096-.072.08-.155m-.079.135c.006-.073.092-.072.044-.155m-.035.138c.006-.063.052-.08-.004-.154m.082.266c-.045-.058-.095-.068-.15-.155m.141.127c-.044-.058-.1-.065-.15-.155m.149.125c-.044-.065-.098-.057-.15-.155m.153.129c-.06-.077-.116-.05-.15-.155m.135.133c-.054-.06-.107-.061-.114-.155"/><path d="m12.642 11.652-.063-.09-.087-.118a19.021 19.021 0 0 0 .145.209m-.247.193s.01-.073.045-.109c.035-.036.08-.032.105-.046-.015.025-.01.071-.045.108a.213.213 0 0 1-.105.047m.203-.144c-.049.065-.083.031-.15.144m.13-.12c-.049.066-.087.014-.15.136m.135-.112c-.052.075-.081.01-.15.14m.141-.111c-.067.075-.087-.007-.15.13m.145-.109c-.065.047-.1.019-.15.132m.236-.235c-.06.051-.028.086-.132.155m.11-.134c-.06.05-.013.09-.124.155m.103-.13c-.07.054-.01.084-.129.155m.102-.129c-.07.069.006.09-.12.155m.1-.134c-.043.068-.017.104-.121.156"/><path d="m12.539 11.676-.065.066-.084.089.086-.087.064-.067m-.474-.282s.059-.027.098.005c.04.032.05.102.07.13-.025-.006-.06.027-.099-.004-.039-.032-.069-.13-.069-.13m.264.164c-.057-.049-.061-.094-.15-.156m.126.142c-.059-.047-.057-.099-.15-.155m.122.149c-.065-.048-.048-.095-.15-.155m.127.155c-.077-.065-.04-.109-.15-.155m.129.158c-.058-.07-.052-.128-.15-.155m.22.123c-.052-.004-.078.067-.15.04m.124-.058c-.05-.004-.08.09-.15.051m.127-.056c-.055-.016-.072.075-.15.026m.134-.035c-.07-.017-.074.075-.15-.002m.137.016c-.062-.008-.084.037-.15-.041"/><path d="m12.25 11.543-.079-.066c-.034-.03-.104-.086-.104-.086l.104.089.079.066m-.14-.43s.042-.092.084-.105c.042-.013.071.04.095.046-.022.02-.042.09-.084.105s-.095-.046-.095-.046m.253.049c-.053-.037-.074-.125-.15-.155m.122.157c-.052-.033-.074-.136-.15-.155m.125.155c-.058-.024-.068-.126-.15-.135m.13.122c-.072-.024-.066-.116-.15-.085m.133.07c-.061-.019-.075-.071-.15-.023m.25-.081c-.055.045-.068.102-.15.155m.123-.15c-.055.043-.066.108-.15.155m.122-.15c-.06.044-.058.107-.15.155m.128-.15c-.074.061-.054.132-.15.156m.13-.127c-.06.049-.064.106-.15.099"/><path d="m12.307 11.03-.085.065-.111.09.112-.081.084-.065m-.112-.195s.085.022.12.061c.035.04.018.08.03.104-.028-.017-.085-.022-.12-.06-.036-.04-.03-.105-.03-.105m.175.235c-.03-.052.02-.083-.042-.155m.024.129c-.031-.052.038-.085-.034-.155m.022.134c-.041-.055.034-.079-.048-.155m.034.14c-.04-.07.04-.082-.058-.154m.05.144c-.024-.065.011-.093-.077-.154m.136.266c-.048-.063-.087-.055-.15-.155m.133.131c-.046-.064-.09-.046-.15-.155m.14.127c-.049-.072-.086-.039-.15-.155m.146.129c-.065-.082-.096-.025-.15-.155m.149.132c-.066-.058-.11-.042-.15-.155"/><path d="m12.345 11.025-.064-.078-.086-.102.084.104.064.078m.184-.018s.094.04.115.085c.021.045-.023.08-.023.106-.024-.023-.093-.04-.115-.085-.022-.045.023-.106.023-.106m.051.261c.019-.054.095-.079.1-.156m-.111.126c.018-.053.115-.079.11-.155m-.107.128c.006-.058.097-.071.081-.155m-.079.135c.006-.073.091-.072.044-.155m-.036.139c.007-.064.053-.082-.003-.155m.081.266c-.045-.057-.094-.068-.15-.155m.142.127c-.044-.058-.1-.065-.15-.155m.149.125c-.045-.064-.098-.057-.15-.155m.153.129c-.061-.077-.116-.05-.15-.155m.135.133c-.054-.06-.108-.06-.114-.155"/><path d="m12.663 11.219-.064-.09-.086-.12a19.021 19.021 0 0 0 .145.21m-.278.175s.023-.093.06-.13c.038-.035.074-.012.097-.023-.017.03-.023.093-.06.13-.037.036-.097.023-.097.023m.228-.088c-.05.023-.08-.037-.15.018m.125.006c-.05.024-.08-.057-.15.008m.13-.003c-.054.036-.075-.05-.15.027m.136-.017c-.07.036-.078-.054-.15.043m.139-.04c-.063.02-.088-.02-.15.07m.254-.172c-.06.05-.057.09-.15.155m.127-.141c-.061.049-.05.096-.15.156m.123-.137c-.068.05-.042.09-.15.155m.127-.138c-.079.067-.03.103-.15.155m.128-.139c-.056.07-.044.119-.15.155"/><path d="m12.553 11.23-.075.067-.097.089.098-.087.075-.066m-.131-.335s.056-.046.097-.023c.042.023.057.094.079.12-.025 0-.056.045-.098.022-.041-.022-.078-.12-.078-.12m.265.138c-.056-.047-.066-.097-.15-.155m.124.145c-.057-.045-.063-.103-.15-.155m.122.154c-.063-.046-.055-.1-.15-.155m.126.159c-.075-.063-.048-.12-.15-.155m.13.143c-.059-.059-.06-.117-.15-.124m.23.061c-.052.02-.076.102-.15.108m.123-.121c-.052.02-.076.125-.15.12m.126-.116c-.057.006-.07.104-.15.087m.131-.085c-.07.006-.07.099-.15.047m.135-.038c-.062.007-.079.057-.15-.005"/><path d="m12.616 11.034-.083-.065c-.036-.029-.11-.084-.11-.084l.11.089c.036.03.083.065.083.065m-.098-.326s.09.026.125.066c.035.041.012.08.022.106-.028-.019-.09-.026-.125-.066-.035-.04-.022-.106-.022-.106m.152.24c-.022-.052.034-.082-.016-.154m-.006.128c-.022-.052.053-.084-.006-.155m.001.133c-.032-.056.046-.078-.023-.155m.014.139c-.032-.071.051-.08-.038-.155m.036.144c-.018-.066.02-.092-.064-.155m.124.267c-.047-.061-.088-.059-.15-.155m.135.13c-.046-.063-.092-.051-.15-.155m.142.126c-.049-.07-.088-.043-.15-.155m.147.129c-.064-.08-.099-.031-.15-.154m.15.131c-.067-.058-.114-.046-.15-.155"/><path d="m12.667 10.902-.064-.081-.086-.107a26.67 26.67 0 0 0 .148.189m-.25.484s.094.04.115.085c.022.045-.023.08-.023.106-.024-.023-.093-.04-.115-.085-.022-.045.023-.106.023-.106m.052.26c.018-.053.094-.078.1-.155m-.112.126c.018-.053.115-.079.11-.155m-.107.128c.006-.058.097-.071.082-.155m-.08.135c.006-.073.091-.072.044-.155m-.035.139c.006-.064.052-.082-.004-.155m.082.266c-.046-.057-.095-.068-.15-.155m.141.127c-.044-.058-.1-.065-.15-.155m.149.125c-.045-.064-.098-.057-.15-.155m.153.129c-.06-.077-.116-.05-.15-.155m.135.133c-.054-.06-.107-.06-.114-.155"/><path d="m12.551 11.597-.064-.09-.086-.12a20.157 20.157 0 0 0 .145.21m-.248.193s.01-.072.045-.109c.036-.036.08-.031.105-.046-.014.025-.01.072-.045.108-.035.037-.105.047-.105.047m.204-.144c-.05.066-.083.032-.15.144m.129-.12c-.048.066-.086.014-.15.136m.136-.112c-.052.075-.081.01-.15.14m.141-.111c-.067.075-.088-.006-.15.13m.145-.108c-.065.046-.1.018-.15.131m.237-.235c-.06.051-.03.087-.133.155m.11-.134c-.06.05-.013.09-.125.155m.103-.129c-.069.053-.008.083-.128.155m.102-.13c-.07.069.006.09-.12.155m.099-.133c-.042.067-.016.103-.12.155"/><path d="m12.448 11.62-.065.067-.084.088.086-.087.064-.066m-.125-.291s.094.04.115.085c.021.045-.023.08-.023.106-.024-.023-.093-.04-.115-.085-.022-.045.023-.106.023-.106m.051.261c.019-.054.095-.079.1-.155m-.111.125c.018-.053.115-.078.11-.155m-.107.129c.006-.058.097-.072.081-.155m-.079.134c.006-.073.091-.071.044-.155m-.036.14c.007-.065.053-.083-.003-.156m.081.266c-.045-.057-.094-.067-.15-.154m.142.126c-.044-.058-.1-.065-.15-.155m.149.125c-.045-.064-.098-.057-.15-.155m.153.129c-.061-.077-.116-.05-.15-.154m.135.132c-.054-.06-.108-.06-.114-.155"/><path d="m12.46 11.54-.064-.09-.086-.118a20.157 20.157 0 0 0 .145.21m-.248.192s.01-.072.045-.108c.036-.037.08-.032.105-.047-.014.026-.01.072-.045.108-.035.037-.105.047-.105.047m.203-.144c-.048.066-.083.032-.15.144m.13-.119c-.048.066-.086.014-.15.135m.136-.112c-.052.075-.081.01-.15.14m.141-.111c-.067.075-.088-.006-.15.131m.144-.108c-.064.046-.1.017-.15.13m.237-.234c-.06.05-.029.086-.132.155m.11-.134c-.06.05-.013.089-.125.155m.103-.13c-.07.053-.008.083-.128.155m.102-.13c-.07.069.005.09-.12.155m.099-.132c-.042.066-.016.102-.12.154"/><path d="m12.356 11.564-.064.067-.084.088.085-.087.065-.066m-.008-.681s.094.04.115.085c.022.045-.022.08-.022.106-.024-.023-.094-.04-.116-.085-.022-.045.023-.106.023-.106m.052.26c.018-.053.094-.078.1-.154m-.112.125c.018-.053.115-.079.111-.155m-.108.129c.006-.059.097-.072.082-.155m-.08.135c.006-.074.092-.073.044-.156m-.035.139c.006-.064.052-.082-.004-.155m.082.266c-.045-.057-.095-.068-.15-.155m.141.127c-.044-.058-.1-.065-.15-.155m.149.125c-.044-.064-.098-.057-.15-.155m.153.129c-.06-.077-.116-.05-.15-.155m.135.133c-.054-.06-.107-.06-.114-.155"/><path d="m12.486 11.095-.063-.09-.087-.12a20.157 20.157 0 0 0 .145.21m-.278.175s.024-.093.06-.13c.038-.035.074-.012.098-.023-.018.03-.024.093-.06.13-.038.036-.098.023-.098.023m.228-.088c-.05.024-.08-.037-.15.018m.126.006c-.05.024-.082-.057-.15.008m.129-.003c-.054.036-.075-.05-.15.027m.136-.017c-.069.036-.078-.054-.15.043m.14-.04c-.063.02-.089-.02-.15.07m.253-.172c-.06.05-.057.09-.15.155m.127-.14c-.06.048-.05.095-.15.155m.123-.137c-.067.05-.041.09-.15.155m.127-.138c-.078.067-.03.103-.15.155m.128-.139c-.056.07-.044.119-.15.155"/><path d="m12.376 11.107-.074.066-.098.089.098-.087.075-.066m.061-.162s.094.04.116.085c.021.045-.023.08-.023.106-.024-.023-.093-.04-.115-.085-.022-.045.022-.106.022-.106m.052.26c.018-.053.094-.078.1-.154m-.112.125c.019-.053.115-.079.111-.155m-.107.128c.006-.058.096-.071.081-.155m-.08.135c.007-.073.092-.072.045-.155m-.036.139c.007-.064.053-.082-.004-.155m.082.266c-.045-.057-.094-.068-.15-.155m.141.127c-.043-.058-.1-.065-.15-.155m.149.125c-.044-.064-.097-.057-.15-.155m.154.129c-.061-.077-.117-.05-.15-.155m.134.133c-.054-.06-.107-.06-.113-.155"/><path d="m12.574 11.157-.063-.09-.087-.12a19.021 19.021 0 0 0 .145.21m-.277.175s.023-.093.06-.13c.037-.035.073-.012.097-.023-.017.03-.024.093-.06.13-.038.036-.097.023-.097.023m.228-.088c-.051.023-.08-.037-.15.018m.125.006c-.05.024-.081-.057-.15.008m.13-.003c-.054.036-.075-.05-.15.027m.135-.017c-.068.036-.078-.054-.15.043m.14-.04c-.063.02-.088-.02-.15.07m.253-.172c-.06.05-.056.09-.15.155m.127-.14c-.06.048-.05.095-.15.155m.124-.137c-.068.05-.042.09-.15.155m.126-.138c-.078.067-.03.103-.15.155m.13-.139c-.058.07-.046.119-.15.155"/><path d="m12.464 11.169-.074.066-.098.089.099-.087.074-.066m.658.496s-.017-.083-.053-.12c-.035-.036-.074-.022-.097-.035.015.027.017.082.052.119.036.036.098.036.098.036m-.143-.117c.05.044.081-.005.15.076m-.128-.053c.049.043.083-.026.15.065m-.124-.049c.053.054.077-.024.15.078m-.124-.059c.068.054.082-.033.15.083m-.127-.071c.064.033.094-.003.15.099m-.247-.202c.062.05.049.089.15.155m-.128-.137c.064.049.039.092.15.155m-.124-.134c.072.052.031.088.15.155m-.124-.133c.081.067.018.096.15.155m-.126-.136c.055.068.035.11.148.155"/><path d="M12.959 11.5a17.031 17.031 0 0 0 .159.154l-.091-.087-.07-.066m.126-.229s-.094.04-.115.085c-.022.045.022.08.022.106.024-.023.094-.04.116-.086.022-.044-.023-.105-.023-.105m.001.26c-.019-.054-.095-.078-.1-.155m.111.126c-.018-.053-.115-.079-.11-.155m.107.128c-.006-.058-.097-.072-.082-.155m.08.135c-.006-.073-.091-.072-.044-.155m.035.139c-.006-.064-.052-.082.004-.155m-.106.266c.045-.058.094-.068.15-.155m-.143.127c.043-.058.1-.065.15-.155m-.142.125c.044-.065.098-.057.15-.155m-.141.129c.06-.077.116-.05.15-.155m-.128.133c.054-.06.108-.061.114-.155"/><path d="m12.97 11.482.064-.09.087-.12-.082.12a9.23 9.23 0 0 1-.063.09m-.173-.039s-.094.04-.116.085c-.021.045.023.079.023.106.024-.023.093-.04.115-.086.023-.045-.022-.105-.022-.105m0 .26c-.018-.054-.094-.078-.1-.155m.112.126c-.018-.053-.115-.079-.111-.155m.108.128c-.006-.058-.097-.072-.082-.155m.08.135c-.006-.073-.092-.072-.044-.155m.035.138c-.006-.063-.052-.08.004-.154m-.107.266c.045-.058.095-.068.15-.155m-.143.127c.044-.058.1-.065.15-.155m-.141.125c.044-.065.098-.057.15-.155m-.142.129c.061-.077.117-.05.15-.155m-.127.133c.054-.06.107-.061.114-.155"/><path d="m12.69 11.652.064-.09.087-.118-.082.119-.063.09m.171.193s-.01-.073-.045-.109c-.036-.036-.08-.032-.105-.046.014.025.01.071.045.108.035.037.105.047.105.047m-.144-.144c.05.065.084.031.15.144m-.131-.12c.049.066.087.014.15.136m-.126-.112c.051.075.08.01.15.14m-.127-.111c.066.075.087-.007.15.13m-.129-.109c.064.047.099.019.15.132m-.23-.235c.06.051.03.086.133.155m-.11-.134c.06.05.013.09.125.155m-.103-.13c.069.054.008.084.128.155m-.102-.129c.07.069-.006.09.12.155m-.099-.134c.042.068.016.104.12.156"/><path d="M12.705 11.676a14.407 14.407 0 0 0 .148.155l-.085-.087-.065-.067m.466-.282s-.059-.027-.098.005c-.04.032-.05.102-.07.13.025-.006.06.027.099-.004.04-.032.069-.13.069-.13m-.159.164c.057-.049.061-.094.15-.156m-.125.142c.058-.047.057-.099.15-.155m-.12.149c.065-.048.048-.095.15-.155m-.12.155c.077-.065.04-.109.15-.155m-.123.158c.057-.07.052-.128.15-.155m-.262.123c.051-.004.078.067.15.04m-.125-.058c.05-.004.079.09.15.051m-.12-.056c.055-.016.072.075.15.026m-.12-.035c.07-.017.074.075.15-.002m-.123.016c.062-.008.084.037.15-.041"/><path d="m12.985 11.543.079-.066.104-.086-.104.089c-.034.03-.079.066-.079.066m.141-.43s-.042-.092-.085-.105c-.042-.013-.07.04-.095.046.022.02.042.09.084.105s.096-.046.096-.046m-.172.049c.053-.037.075-.125.15-.155m-.123.157c.053-.033.074-.136.15-.155m-.117.155c.057-.024.067-.126.15-.135m-.118.122c.071-.024.066-.116.15-.085m-.121.07c.061-.019.075-.071.15-.023m-.271-.081c.055.045.069.102.15.155m-.123-.15c.056.043.067.108.15.155m-.117-.15c.06.044.058.107.15.155m-.118-.15c.074.061.054.132.15.156m-.121-.127c.06.049.063.106.15.099"/><path d="M12.928 11.03a5.754 5.754 0 0 0 .197.155l-.112-.081-.085-.065m.162-.195s-.085.022-.12.061c-.035.04-.018.08-.03.104.028-.017.085-.022.12-.06.036-.04.03-.105.03-.105m-.1.235c.03-.052-.02-.083.043-.155m-.023.129c.03-.052-.04-.085.033-.155m-.022.134c.041-.055-.034-.079.048-.155m-.034.14c.04-.07-.04-.082.058-.154m-.05.144c.024-.065-.011-.093.077-.154m-.175.266c.048-.063.087-.055.15-.155m-.135.131c.047-.064.091-.046.15-.155m-.132.127c.05-.072.086-.039.15-.155m-.132.129c.065-.082.096-.025.15-.155m-.134.132c.067-.058.11-.042.15-.155"/><path d="m12.93 11.025.064-.078.086-.102-.084.104-.064.078m-.15-.018s-.094.04-.115.085c-.022.045.023.08.023.106.024-.023.093-.04.115-.085.022-.045-.023-.106-.023-.106m.001.261c-.018-.054-.095-.079-.1-.156m.112.126c-.019-.053-.116-.079-.112-.155m.108.128c-.006-.058-.096-.071-.081-.155m.08.135c-.007-.073-.092-.072-.045-.155m.035.139c-.006-.064-.052-.082.005-.155m-.107.266c.045-.057.094-.068.15-.155m-.143.127c.043-.058.1-.065.15-.155m-.142.125c.045-.064.098-.057.15-.155m-.141.129c.06-.077.116-.05.15-.155m-.127.133c.053-.06.107-.06.113-.155"/><path d="m12.67 11.219.064-.09.086-.12-.081.12a9.23 9.23 0 0 1-.064.09m.18.175s-.023-.093-.06-.13c-.038-.035-.074-.012-.097-.023.017.03.023.093.06.13.037.036.097.023.097.023m-.15-.088c.051.023.08-.037.15.018m-.126.006c.05.024.081-.057.15.008m-.122-.003c.054.036.075-.05.15.027m-.121-.017c.068.036.078-.054.15.043m-.126-.04c.064.02.09-.02.15.07m-.255-.172c.06.05.057.09.15.155m-.126-.141c.06.049.05.096.15.156m-.122-.137c.068.05.042.09.15.155m-.121-.138c.078.067.03.103.15.155m-.126-.139c.057.07.045.119.15.155"/><path d="M12.682 11.23a14.573 14.573 0 0 0 .172.156l-.098-.087-.074-.066m.13-.335s-.056-.046-.097-.023-.057.094-.078.12c.024 0 .056.045.097.022.041-.022.078-.12.078-.12m-.167.138c.056-.047.066-.097.15-.155m-.124.145c.057-.045.063-.103.15-.155m-.118.154c.062-.046.055-.1.15-.155m-.119.159c.075-.063.049-.12.15-.155m-.121.143c.058-.059.059-.117.15-.124m-.268.061c.052.02.076.102.15.108m-.124-.121c.052.02.077.125.15.12m-.118-.116c.056.006.07.104.15.087m-.119-.085c.07.006.07.099.15.047m-.121-.038c.061.007.079.057.15-.005"/><path d="m12.619 11.034.083-.065c.036-.029.11-.084.11-.084l-.11.089c-.036.03-.083.065-.083.065m.157-.326s-.091.026-.126.066c-.034.041-.012.08-.022.106.028-.019.09-.026.125-.066.035-.04.023-.106.023-.106m-.085.24c.022-.052-.034-.082.016-.154m.007.128c.021-.052-.054-.084.006-.155m-.002.133c.032-.056-.046-.078.023-.155m-.014.139c.032-.071-.05-.08.039-.155m-.037.144c.018-.066-.02-.092.064-.155m-.161.267c.048-.061.088-.059.15-.155m-.136.13c.046-.063.092-.051.15-.155m-.134.126c.049-.07.088-.043.15-.155m-.134.129c.065-.08.1-.031.15-.154m-.135.131c.067-.058.115-.046.15-.155"/><path d="m12.618 10.902.064-.081.086-.107-.083.108-.065.08m.274.485s-.094.04-.115.085c-.022.045.022.08.022.106.024-.023.094-.04.116-.085.022-.045-.023-.106-.023-.106m.001.26c-.019-.053-.095-.078-.1-.155m.111.126c-.018-.053-.115-.079-.11-.155m.107.128c-.006-.058-.097-.071-.081-.155m.079.135c-.006-.073-.091-.072-.044-.155m.035.139c-.006-.064-.052-.082.004-.155m-.106.266c.045-.057.094-.068.15-.155m-.143.127c.043-.058.1-.065.15-.155m-.142.125c.044-.064.098-.057.15-.155m-.141.129c.06-.077.116-.05.15-.155m-.128.133c.054-.06.108-.06.114-.155"/><path d="m12.782 11.597.063-.09.087-.12-.082.12-.063.09m.171.193s-.01-.072-.045-.109c-.035-.036-.08-.031-.105-.046.014.025.01.072.045.108.035.037.105.047.105.047m-.144-.144c.05.066.084.032.15.144m-.13-.12c.048.066.086.014.15.136m-.127-.112c.051.075.08.01.15.14m-.127-.111c.067.075.087-.006.15.13m-.13-.108c.065.046.1.018.15.131m-.228-.235c.06.051.029.087.132.155m-.11-.134c.06.05.013.09.125.155m-.103-.129c.069.053.008.083.128.155m-.102-.13c.07.069-.005.09.12.155m-.099-.133c.042.067.016.103.12.155"/><path d="M12.796 11.62a15.09 15.09 0 0 0 .149.155l-.086-.087-.064-.066m.19-.291s-.094.04-.115.085c-.022.045.023.08.023.106.024-.023.093-.04.115-.085.022-.045-.023-.106-.023-.106m.001.261c-.019-.054-.095-.079-.1-.155m.112.125c-.019-.053-.116-.078-.111-.155m.107.129c-.006-.058-.096-.072-.081-.155m.079.134c-.006-.073-.091-.071-.044-.155m.036.14c-.007-.065-.053-.083.004-.156m-.108.266c.046-.057.095-.067.15-.154m-.142.126c.043-.058.1-.065.15-.155m-.142.125c.045-.064.098-.057.15-.155m-.141.129c.06-.077.116-.05.15-.154m-.128.132c.054-.06.108-.06.114-.155"/><path d="m12.873 11.54.064-.09.086-.118-.081.12-.064.09m.172.192s-.01-.072-.046-.108c-.035-.037-.08-.032-.105-.047.015.026.01.072.045.108a.213.213 0 0 0 .105.047m-.144-.144c.05.066.084.032.15.144m-.13-.119c.048.066.086.014.15.135m-.127-.112c.051.075.08.01.15.14m-.127-.111c.067.075.087-.006.15.131m-.129-.108c.064.046.1.017.15.13m-.229-.234c.06.05.029.086.132.155m-.11-.134c.06.05.013.089.125.155m-.103-.13c.07.053.009.083.128.155m-.102-.13c.07.069-.005.09.121.155m-.1-.132c.043.066.016.102.12.154"/><path d="m12.887 11.564.065.067.084.088-.086-.087-.064-.066m.073-.681s-.094.04-.116.085c-.021.045.023.08.023.106.024-.023.093-.04.115-.085.023-.045-.022-.106-.022-.106m.001.26c-.019-.053-.095-.078-.1-.154m.111.125c-.018-.053-.115-.079-.11-.155m.107.129c-.006-.059-.097-.072-.082-.155m.08.135c-.006-.074-.092-.073-.044-.156m.035.139c-.006-.064-.052-.082.004-.155m-.107.266c.045-.057.095-.068.15-.155m-.143.127c.044-.058.1-.065.15-.155m-.141.125c.044-.064.098-.057.15-.155m-.142.129c.061-.077.117-.05.15-.155m-.127.133c.054-.06.107-.06.114-.155"/><path d="m12.847 11.095.063-.09.087-.12-.082.12a9.23 9.23 0 0 1-.063.09m.18.175s-.023-.093-.06-.13c-.038-.035-.074-.012-.098-.023.018.03.024.093.061.13.037.036.097.023.097.023m-.15-.088c.05.024.08-.037.15.018m-.126.006c.05.024.08-.057.15.008m-.122-.003c.054.036.075-.05.15.027m-.122-.017c.069.036.078-.054.15.043m-.125-.04c.064.02.089-.02.15.07m-.255-.172c.06.05.056.09.15.155m-.126-.14c.06.048.05.095.15.155m-.122-.137c.068.05.042.09.15.155m-.122-.138c.079.067.03.103.15.155m-.125-.139c.057.07.045.119.15.155"/><path d="M12.86 11.107a14.572 14.572 0 0 0 .171.155l-.098-.087-.075-.066m.012-.162s-.093.04-.115.085c-.021.045.023.08.023.106.024-.023.093-.04.115-.085.022-.045-.023-.106-.023-.106m.001.26c-.018-.053-.094-.078-.1-.154m.112.125c-.018-.053-.115-.079-.111-.155m.108.128c-.007-.058-.097-.071-.082-.155m.08.135c-.007-.073-.092-.072-.045-.155m.037.139c-.007-.064-.054-.082.003-.155m-.107.266c.045-.057.094-.068.15-.155m-.143.127c.044-.058.1-.065.15-.155m-.141.125c.044-.064.097-.057.15-.155m-.142.129c.06-.077.116-.05.15-.155m-.127.133c.054-.06.107-.06.114-.155"/><path d="m12.758 11.157.064-.09.086-.12-.081.12-.064.09m.181.175s-.024-.093-.061-.13c-.037-.035-.073-.012-.097-.023.017.03.024.093.06.13.038.036.098.023.098.023m-.15-.088c.05.023.08-.037.15.018m-.127.006c.05.024.082-.057.15.008m-.121-.003c.053.036.075-.05.15.027m-.122-.017c.069.036.078-.054.15.043m-.124-.04c.062.02.088-.02.15.07m-.256-.172c.06.05.056.09.15.155m-.127-.14c.061.048.05.095.15.155m-.121-.137c.067.05.041.09.15.155m-.122-.138c.078.067.03.103.15.155m-.124-.139c.056.07.044.119.15.155"/><path d="M12.77 11.169a13.954 13.954 0 0 0 .173.155l-.099-.087-.074-.066"/></g><path fill="#947245" d="M12.618 10.9c-.025.129-.025.245-.025.245-.001.043-.021.073-.04.062-.156-.099-.171-.117-.253-.185.07.082.089.118.247.218.03.019.034.05.033.09l-.005.192c0 .028.017.155-.064.106-.186-.113-.182-.104-.271-.16.108.1.07.073.258.191.034.022.07.076.07.102 0 .385.005.315-.036.431h.172c-.042-.116-.037-.046-.037-.43 0-.027.036-.081.07-.103.189-.118.147-.09.255-.19-.089.055-.082.046-.268.16-.08.048-.063-.079-.064-.107l-.005-.191c-.001-.04.003-.072.033-.091.158-.1.178-.136.247-.218-.082.068-.097.086-.254.185-.018.011-.037-.019-.039-.062 0 0 0-.116-.024-.246"/><path fill="#fff" d="M13.128 14.275c-.054.054-.11.16-.049.145.046-.007.216-.094.23-.15-.066.01-.12-.016-.18.005"/><path fill="#00a854" d="M2.828.495c.015 0 .079.056.183.183.087.107.19.29.257.428-.023-.029-.04-.03-.107-.127-.057-.08-.149-.258-.236-.35-.079-.083-.11-.131-.099-.134zm.119-.48c-.003.001-.005.002-.005.004a1.543 1.543 0 0 0-.02.147 1.116 1.116 0 0 1-.016.124l-.08-.035C2.72.208 2.502.182 2.49.215c-.009.021.016.14.055.277.008.03-.002.038-.063.058a.378.378 0 0 0-.105.047c-.03.02-.026.028.048.098l.08.075-.037.032c-.036.03-.036.03.094.157.144.14.219.183.316.183.03 0 .064.006.088-.001.032-.006.057-.017.136-.026a.53.53 0 0 1 .202.07l.021.05c-.06-.068-.196-.096-.224-.097-.028 0-.042.007-.073.017s-.041.024-.07.065c-.02.054.02.11.07.117.062.01.108-.026.108-.084 0-.047-.026-.081-.005-.08.075.006.188.068.21.147.026.098.021.103-.025.037-.043-.058-.11-.12-.13-.121-.016 0-.05.086-.05.126 0 .026-.007.031-.03.023a.31.31 0 0 0-.083-.021l-.053-.01.013.088c.007.048.03.12.048.158l.036.072-.082-.027c-.176-.056-.164-.057-.152.039.005.047.015.1.02.115.01.027.002.032-.058.032-.04 0-.07.005-.07.01 0 .04.139.232.207.288.084.066.243.14.307.14.019 0 .075.015.128.036l.095.035v.105c0 .116-.035.349-.054.349a.488.488 0 0 1-.066-.11c-.07-.134-.067-.132-.086-.1-.014.02-.017.019-.017-.01a.6.6 0 0 0-.129-.253l-.04-.04-.021.047-.02.046-.094-.105c-.05-.058-.099-.102-.106-.097-.008.004-.019.051-.025.104-.017.152-.024.16-.081.105l-.048-.048-.012.048c-.02.084.005.38.041.483.02.054.043.154.055.222.02.131.094.282.185.376.033.035.038.05.017.05-.014 0-.037.013-.053.03-.067.076-.005.174.096.155.05-.009.06-.005.077.033.026.056.028.158.004.202-.018.033-.119.077-.136.059a.51.51 0 0 1-.007-.131l.002-.121-.087.047c-.211.116-.388.414-.433.643-.015.076-.058.085-.112.176a.684.684 0 0 0-.153.123c-.085.086-.108.098-.236.131a6.49 6.49 0 0 1-.749.123c-.22.023-.916.138-.96.157a2.92 2.92 0 0 1-.097.042.23.23 0 0 0-.093.072c-.024.039-.025.051-.006.088.046.087.135.086.325-.007.084-.042.187-.077.262-.09a3.46 3.46 0 0 0 .218-.043c.051-.014.195-.04.317-.062.692-.113.946-.17 1.228-.271.189-.068.187-.068.36-.05.196.019.442-.044.543-.139.023-.021.08-.094.132-.164.05-.07.112-.14.136-.156.065-.044.027-.06-.14-.06h-.141l.048-.108c.054-.126.11-.293.1-.303a.38.38 0 0 0-.107.017.837.837 0 0 1-.106.02c-.004-.004.003-.03.013-.06.014-.038.033-.06.064-.066l.07-.018a.225.225 0 0 1 .087.01c.064.018.065.022.057.076-.01.068.026.117.087.117.045 0 .096-.05.096-.093 0-.047-.067-.103-.108-.092a.368.368 0 0 1-.13-.023l-.092-.033.089-.02c.135-.03.18-.024.198.02.012.028.035.042.072.045.108.01.143-.147.04-.18-.038-.013-.12.03-.12.061 0 .01-.03.017-.064.017a.568.568 0 0 0-.201.04l.131-.067a2.22 2.22 0 0 0 .228-.086.784.784 0 0 0 .36-.43c.036-.11.09-.454.074-.454a.83.83 0 0 0-.126.05c-.11.053-.11.053-.11.014 0-.071.03-.283.042-.315.008-.019.005-.03-.01-.03-.052 0-.218.095-.328.186-.106.088-.116.093-.116.056a.24.24 0 0 1 .034-.098c.03-.052.04-.056.101-.045.06.01.07.005.096-.035.036-.056.016-.123-.043-.142-.032-.01-.029-.016.033-.047a.576.576 0 0 0 .22-.244l.042-.072-.062.007a.316.316 0 0 1-.061.004l.025-.077a.551.551 0 0 0 .026-.145c0-.074-.063-.342-.087-.37-.009-.01-.043.006-.083.039l-.066.054-.064-.143a2.092 2.092 0 0 0-.07-.151c-.003-.005-.026.01-.05.033-.053.051-.056.023-.01-.08.041-.091.06-.104.108-.07.058.038.123.002.13-.072C3.72.952 3.713.935 3.68.912 3.658.898 3.627.889 3.615.894 3.6.9 3.585.886 3.57.852a.098.098 0 0 0-.063-.064c-.09-.023-.15.092-.086.159.026.024.026.044.007.172-.03.206-.04.225-.065.133a1.212 1.212 0 0 1 .02-.475.531.531 0 0 0-.076-.494C3.22.185 2.986.011 2.947.016" mask="url(#a)" transform="translate(10.848 9.585)"/><path fill="#00a854" d="M4.126 5.107a.28.28 0 0 1 .045.076c0 .011-.038.02-.087.02-.083 0-.086-.002-.086-.06 0-.112.055-.125.128-.036m-2.397-.763c-.33-.304-.504-.797-.45-1.285.012-.104.019-.191.016-.195-.016-.014-.127.221-.156.328l-.031.116.007-.187c.012-.292.117-.564.276-.722a.297.297 0 0 0 .063-.074c0-.007-.033-.003-.073.007a.345.345 0 0 0-.164.112l-.09.092.041-.084a.928.928 0 0 1 .28-.334l.1-.065-.058-.005c-.114-.013-.32.141-.434.325-.066.108-.066.074.001-.09a1.46 1.46 0 0 1 .27-.435c.061-.066.071-.087.049-.087-.09 0-.242.12-.369.292-.036.051-.036.048.005-.053a1.43 1.43 0 0 1 .206-.34c.054-.063.038-.072-.052-.03-.08.04-.212.191-.289.336-.036.067-.062.106-.057.087.006-.02.018-.07.026-.115.064-.294.22-.58.431-.79.082-.08.102-.112.08-.112-.066 0-.22.09-.322.19-.106.102-.107.102-.066.031.146-.253.364-.483.615-.647.08-.053.145-.1.147-.106 0-.027-.263.055-.383.117A1.422 1.422 0 0 0 1.2.73c-.083.068-.091.074-.06.028a1.58 1.58 0 0 1 .337-.31c.06-.032.066-.04.037-.046-.08-.012-.302.108-.475.256L.962.727l.042-.071a1.648 1.648 0 0 1 .645-.633c.01-.004.018-.012.012-.018a.414.414 0 0 0-.136.034 1.28 1.28 0 0 0-.592.458C.902.54.874.575.87.57a1.861 1.861 0 0 1 .038-.2C.933.265.952.16.95.134.95.094.947.095.88.17a1.45 1.45 0 0 0-.233.45 1.14 1.14 0 0 0-.03.326v.221l-.04-.156C.532.845.487.732.442.674.421.644.413.642.398.664c-.033.052-.01.271.045.434.005.02-.016-.009-.047-.062C.363.983.33.942.32.948c-.02.01-.022.184-.002.256.016.051.016.051-.043-.018-.097-.114-.12-.123-.12-.044 0 .03.013.083.027.119a.82.82 0 0 1 .026.067.263.263 0 0 1-.056.016c-.076.016-.1.04-.1.106 0 .07.047.235.07.251.027.016.035 0 .058-.103l.02-.092.065.085c.092.124.228.407.297.617.073.225.077.27.01.131a2.538 2.538 0 0 0-.106-.184C.4 2.06.038 1.673.014 1.673c-.026 0 0 .12.047.22.022.05.09.147.147.218a.75.75 0 0 1 .097.128.575.575 0 0 1-.09-.062c-.089-.07-.179-.122-.19-.112a.918.918 0 0 0 .077.168l.083.161-.055-.009a.176.176 0 0 0-.094.01c-.03.019-.036.038-.036.123 0 .113.028.233.054.233.024 0 .067-.111.067-.171 0-.048.002-.046.088.039.123.123.288.334.45.578l.137.207-.16-.124C.48 3.163.163 2.981.111 2.981c-.013 0-.025.007-.025.016 0 .009.102.115.226.237l.225.221-.117-.04a2.26 2.26 0 0 0-.179-.052c-.059-.012-.059-.009.073.117a2.3 2.3 0 0 0 .294.233c.088.057.146.097.127.092-.158-.046-.39-.085-.39-.064 0 .025.12.122.204.167.047.023.165.072.263.106.201.072.322.138.424.23l.07.063-.121-.055a3.917 3.917 0 0 0-.558-.192c-.043 0 .13.175.298.304.154.118.446.269.658.34.176.058.325.088.605.125.125.016.243.035.265.044.02.01.173.034.338.053.48.059.832.143 1.038.251a.578.578 0 0 0 .242.046c.187.01.196.004.142-.102-.045-.089-.124-.135-.294-.167l-.311-.063a23.817 23.817 0 0 0-.975-.175" mask="url(#b)" transform="translate(9 9.734)"/><rect width="23" height="17" x=".5" y="3.5" stroke="#100f0e" opacity=".1" rx="2"/></g></svg>
