<svg xmlns="http://www.w3.org/2000/svg" viewBox="0 0 24 24"><path d="M0 19c0 1.1.9 2 2 2h6V3H2C.9 3 0 3.9 0 5z" style="fill:#e28541;stroke-width:0;fill-rule:evenodd"/><path d="M24 19c0 1.1-.9 2-2 2h-6V3h6c1.1 0 2 .9 2 2z" style="stroke-width:0;fill-rule:evenodd;fill:#008c45"/><path d="M8 3h8v18H8z" style="stroke-width:0;fill:#fcfbfa"/><path d="M22 4H2c-.6 0-1 .4-1 1v14c0 .6.4 1 1 1h20c.6 0 1-.4 1-1V5c0-.6-.4-1-1-1M2 3C.9 3 0 3.9 0 5v14c0 1.1.9 2 2 2h20c1.1 0 2-.9 2-2V5c0-1.1-.9-2-2-2z" style="stroke-width:0;fill-rule:evenodd;fill:#100f0e;isolation:isolate;opacity:.1"/></svg>
