<svg xmlns="http://www.w3.org/2000/svg" viewBox="0 0 24 24"><linearGradient id="a" x1="50%" x2="50%" y1="0%" y2="100%"><stop offset="0" stop-color="#ffd03b"/><stop offset="1" stop-color="#ffcd2f"/></linearGradient><g fill="none" fill-rule="evenodd"><path fill="#002c85" d="M0 8h24V5.005A2.005 2.005 0 0 0 21.995 3H2.005A2.003 2.003 0 0 0 0 5.005z"/><path fill="#ffd100" d="M0 18.995C0 20.102.897 21 2.005 21h19.99A2.003 2.003 0 0 0 24 18.995V16H0z"/><path fill="#fcfbfa" d="M0 8h24v4H0z"/><path fill="#00980d" d="M0 12h24v4H0z"/><path fill="url(#a)" fill-rule="nonzero" d="M4 6.305 2.764 7l.456-1.142L2 5.146l1.518-.01L4 4l.482 1.135L6 5.145l-1.22.713L5.236 7z"/><path fill="#e93425" d="M9 3h6v18H9z"/><rect width="23" height="17" x=".5" y="3.5" stroke="#100f0e" opacity=".1" rx="2"/></g></svg>
