<svg xmlns="http://www.w3.org/2000/svg" viewBox="0 0 24 24"><linearGradient id="a" x1="50%" x2="50%" y1="0%" y2="100%"><stop offset="0" stop-color="#de3149"/><stop offset="1" stop-color="#c2273d"/></linearGradient><linearGradient id="b" x1="50%" x2="50%" y1="0%" y2="100%"><stop offset="0" stop-color="#fff"/><stop offset="1" stop-color="#f0f0f0"/></linearGradient><linearGradient id="c" x1="50%" x2="50%" y1="0%" y2="100%"><stop offset="0" stop-color="#81c1f3"/><stop offset="1" stop-color="#6ab1e9"/></linearGradient><linearGradient id="e" x1="50%" x2="50%" y1="0%" y2="100%"><stop offset="0" stop-color="#27a07e"/><stop offset="1" stop-color="#1f9171"/></linearGradient><linearGradient id="g" x1="50%" x2="50%" y1="0%" y2="100%"><stop offset="0" stop-color="#1e8ce8"/><stop offset="1" stop-color="#107fdc"/></linearGradient><linearGradient id="i" x1="50%" x2="50%" y1="0%" y2="100%"><stop offset="0" stop-color="#fff048"/><stop offset="1" stop-color="#ffef36"/></linearGradient><linearGradient id="k" x1="50%" x2="50%" y1="0%" y2="100%"><stop offset="0" stop-color="#8f5715"/><stop offset="1" stop-color="#7a480d"/></linearGradient><mask id="d" fill="#fff"><path fill-rule="evenodd" d="M3.333 9.444S6.667 7.222 6.667 5 3.333.556 3.333.556 0 2.778 0 5s3.333 4.444 3.333 4.444"/></mask><mask id="f" fill="#fff"><path fill-rule="evenodd" d="M3.333 9.444S6.667 7.222 6.667 5 3.333.556 3.333.556 0 2.778 0 5s3.333 4.444 3.333 4.444"/></mask><mask id="h" fill="#fff"><path fill-rule="evenodd" d="M3.333 9.444S6.667 7.222 6.667 5 3.333.556 3.333.556 0 2.778 0 5s3.333 4.444 3.333 4.444"/></mask><mask id="j" fill="#fff"><path fill-rule="evenodd" d="M3.333 9.444S6.667 7.222 6.667 5 3.333.556 3.333.556 0 2.778 0 5s3.333 4.444 3.333 4.444"/></mask><g fill="none" fill-rule="evenodd"><rect width="24" height="18" y="3" fill="#c74634" rx="2"/><path fill="#000fa2" d="M1 4h22v16H1z"/><g fill-rule="nonzero"><path fill="url(#a)" d="M4 10s4-2.239 4-5-4-5-4-5-4 2.239-4 5 4 5 4 5" transform="translate(8 7)"/><path fill="url(#b)" d="M3.333 9.444S6.667 7.222 6.667 5 3.333.556 3.333.556 0 2.778 0 5s3.333 4.444 3.333 4.444" transform="translate(8.667 7)"/><path fill="url(#c)" d="M0 0h6.667v5.556H0z" mask="url(#d)" transform="translate(8.667 7)"/><path fill="url(#e)" d="m3.333 4.556-1.175.681.414-1.142-1.14-.721 1.431-.024.47-1.128.47 1.128 1.432.024-1.14.72.414 1.143z" mask="url(#f)" transform="translate(8.667 7)"/><path fill="url(#g)" d="M0 5.556h6.667V10H0z" mask="url(#h)" transform="translate(8.667 7)"/><path fill="url(#i)" d="M0 6.667s2.12 1.666 2.667 1.666c.65 0 .66-.803 1.333-1.11 1.059-.485 2.667-.556 2.667-.556V10H0z" mask="url(#j)" transform="translate(8.667 7)"/><path fill="url(#k)" d="M3.668 3.861a13.928 13.928 0 0 0-.09 1.205c-.014.518.013.902.106 1.133.116.29.379.563.742.824.278.2.554.352.744.441.16.076.363.028.454-.105.09-.134.033-.303-.127-.379a4.285 4.285 0 0 1-.635-.378c-.281-.202-.475-.403-.546-.579-.06-.148-.084-.49-.07-.944a12.907 12.907 0 0 1 .086-1.162c.018-.153-.116-.29-.299-.304-.183-.016-.346.095-.365.248" transform="translate(8 7)"/><path fill="#fff" d="m10 12 1.333 1.667H10z"/></g><rect width="23" height="17" x=".5" y="3.5" stroke="#100f0e" opacity=".1" rx="2"/></g></svg>
