<svg xmlns="http://www.w3.org/2000/svg" viewBox="0 0 24 24"><g fill="none" fill-rule="evenodd"><path fill="#e70a2d" d="M0 9h24V4.998A2.001 2.001 0 0 0 21.995 3H2.005A2.004 2.004 0 0 0 0 4.998z"/><path fill="#ffce00" d="M0 9h24v6H0z"/><path fill="#000" d="M12 13.61 10.146 15l.684-2.284L9 11.292l2.277-.022L12 9l.723 2.27 2.277.022-1.83 1.424.684 2.284z"/><path fill="#008b4b" d="M0 19.002A2 2 0 0 0 2.005 21h19.99A2.004 2.004 0 0 0 24 19.002V15H0z"/><rect width="23" height="17" x=".5" y="3.5" stroke="#100f0e" opacity=".1" rx="2"/></g></svg>
