<svg xmlns="http://www.w3.org/2000/svg" viewBox="0 0 24 24"><path d="M0 5c0-1.1.9-2 2-2h20c1.1 0 2 .9 2 2v14c0 1.1-.9 2-2 2H2c-1.1 0-2-.9-2-2z" style="fill:#072b5f;stroke-width:0"/><path d="M22 4H2c-.6 0-1 .4-1 1v14c0 .6.4 1 1 1h20c.6 0 1-.4 1-1V5c0-.6-.4-1-1-1M2 3C.9 3 0 3.9 0 5v14c0 1.1.9 2 2 2h20c1.1 0 2-.9 2-2V5c0-1.1-.9-2-2-2z" style="stroke-width:0;fill:#100f0e;fill-rule:evenodd;isolation:isolate;opacity:.1"/><path d="M6.1 11.5q-.1-.3-.1-.6h-.1s0 .3-.2.2v-.6s-.2 0-.3-.2h-.1v.1s-.2 0-.3-.1c-.1 0 0-.2-.2-.3.1-.3.1-.3.5-.4q-.2-.1-.3-.3c-.2 0-.3-.1-.5-.3-.3-.3-.4-1-.4-1.5.2-.2.4.6.8.8l.5.2c.3.1.3.3.6.4l.6.2c.3.2.4.5.6.6.2 0 .3-.1.3-.1.4 0 .6 0 .7-.2 0 0 .3 0 .8-.2v-.3s0-.1.3 0c0-.1 0-.5.2-.6-.1-.1 0-.2 0-.2s.1-.1.1-.2v-.6c0-.1.2-.2.3-.3v-.6c.4 0 .5-.4.6-.3 0-.4.1-.6.6-.6 0-.1-.2-.2 0-.3.1 0 .2 0 .4.2l.1-.1h.2s0-.2.1-.3c0-.1.1 0 .2.3.3 0 .9 0 1.2.2h.5c.1.1.3 0 .4.3.1.2.3 0 .3 0 .2.6 1 .2 1.1.2.1 0 .2.3.3.3.1 0 0-.1.2 0 0 .2.2.5.2.7h.1s.1-.2.2-.2h.3c.4.1.6.2.7.2 0 .1.1.2.3.2.1 0 0 .2 0 .2.1 0 .2-.1.3 0 .1 0 .3.2.3.3v.8c0 .1 0 .2.2.5 0 .2.2.7.2.8s-.1.2-.2.3c.3.2 0 .6-.1.8 1 .2.6.6 1.4.4-.2.5-.1.4 0 .9-.4.3 0 .4-.3.7 0 0 .2.3.4.3 0 .6-.3.3-.2 1.2-.5 0-.3.6-.7.6 0 .4.2.4.1.8q-.3 0-.4.3h-.2c0 .3-.2.3 0 .7h-.3c0 .1.1.2.1.3 0 0-.4.3-.7.3 0 .2.2.4.2.4-.3 0-.5.5-.5.5s.2 0 .1.1h-.3s-.2 0-.4.3c-.2 0-.3 0-.4.2 0-.2-.1 0-.2 0s-.2.2-.3.2v-.2h-.3v-.2l-.3.3h-.1l-.2.3s-.2-.2-.3-.1c-.7.2-.8-.5-.9 0h-.3s-.1-.1-.2-.1c-.2 0-.2.2-.2.1 0-.3-.5-.3-.6-.4 0-.1.2-.1.3-.2 0-.1 0-.2.2-.3.3-.2.1-.3.2-.4v-.5s-.2-.6-.3-.6c-.1 0-.1.2-.3.3-.4.1-1.1-.4-1.3-.4-.1 0-.7.1-.6-.1 0 .3-.4 0-.4 0-.3 0-.2.2-.4.2h-.9c0 .1-.6-.1-.6-.1H8c-.4-.3-.2-.6-.9-.4v-.4h-.3c.1-.8 0-.4 0-1.2h-.3c-.3-.3.4-.2-.2-.5 0 0 0-.4-.1-.3v.2c-.6 0-.7-.2-.7-.8h.4c0-.1-.1-.8-.1-.8s.4-.3.3-.5h.2Z" style="stroke-width:0;fill:#fcfbfa"/></svg>
