<svg xmlns="http://www.w3.org/2000/svg" viewBox="0 0 24 24"><linearGradient id="a" x1="50%" x2="50%" y1="0%" y2="100%"><stop offset="0" stop-color="#faf94f"/><stop offset="1" stop-color="#f8f736"/></linearGradient><g fill="none" fill-rule="evenodd"><rect width="21" height="18" x="3" y="3" fill="#f73838" rx="2"/><path fill="#008c34" d="M0 19.005C0 20.107.887 21 2 21h8V3H2C.895 3 0 3.893 0 4.995z"/><path fill="url(#a)" fill-rule="nonzero" d="M5 9a4 4 0 1 0 0-8 4 4 0 0 0 0 8m0 1A5 5 0 1 1 5 0a5 5 0 0 1 0 10" transform="translate(5 7)"/><path fill="#fcfbfa" d="M8 9.455C8 9.204 8.215 9 8.49 9h3.02c.27 0 .49.203.49.455v3.102c0 .981-.888 1.776-2 1.776-1.105 0-2-.787-2-1.776z"/><path fill="#0a5da7" d="M10 13c.552 0 1-1.448 1-2a1 1 0 0 0-2 0c0 .552.448 2 1 2"/><path d="M0 0h24v24H0z"/><rect width="23" height="17" x=".5" y="3.5" stroke="#3f3a36" opacity=".1" rx="2"/></g></svg>
