<svg xmlns="http://www.w3.org/2000/svg" viewBox="0 0 24 24"><g fill="none" fill-rule="evenodd"><rect width="24" height="18" y="3" fill="#008100" rx="2"/><path fill="#ffe300" d="m18 15 .471 1.352 1.431.03-1.14.866.414 1.37L18 17.801l-1.176.817.414-1.37-1.14-.866 1.431-.03zm3-3v1h-1v-1zm-6-4 .471 1.352 1.431.03-1.14.866.414 1.37L15 10.801l-1.176.817.414-1.37-1.14-.866 1.431-.03zm6 0 .471 1.352 1.431.03-1.14.866.414 1.37L21 10.801l-1.176.817.414-1.37-1.14-.866 1.431-.03zm-3-3 .471 1.352 1.431.03-1.14.866.414 1.37L18 7.801l-1.176.817.414-1.37-1.14-.866 1.431-.03zM4 9a2 2 0 1 1 0-4 2 2 0 0 1 0 4m0-2c.208 0-.16 1.054 0 1 .265-.09 1-1.328 1-1.5 0-.276-.448-.5-1-.5s-1 .224-1 .5.448.5 1 .5m9 1.766A3.806 3.806 0 0 0 10.693 8C8.653 8 7 9.567 7 11.5S8.654 15 10.693 15A3.81 3.81 0 0 0 13 14.234a3.223 3.223 0 0 1-1.076.183c-1.7 0-3.077-1.306-3.077-2.917 0-1.61 1.378-2.917 3.077-2.917.379 0 .741.065 1.076.183"/><rect width="23" height="17" x=".5" y="3.5" stroke="#100f0e" opacity=".1" rx="2"/></g></svg>
