<svg xmlns="http://www.w3.org/2000/svg" viewBox="0 0 24 24"><g fill="none" fill-rule="evenodd"><path fill="#fcfbfa" d="M12 12H0V4.997C0 3.894.902 3 2.009 3H12z"/><path fill="#000" d="m6 9.202-1.763 1.225.62-2.056-1.71-1.298 2.147-.045L6 5l.706 2.028 2.147.045-1.71 1.298.62 2.056z"/><path fill="#fcfbfa" d="M12 12h12v7.003A2.005 2.005 0 0 1 21.991 21H12z"/><path fill="#e70a2d" d="M24 12H12V3h9.991C23.101 3 24 3.896 24 4.997z"/><path fill="#000" d="M0 12h12v9H2.009A2.004 2.004 0 0 1 0 19.003z"/><path fill="#e70a2d" d="m18 18.202-1.763 1.225.62-2.056-1.71-1.298 2.147-.045L18 14l.706 2.028 2.147.045-1.71 1.298.62 2.056z"/><rect width="23" height="17" x=".5" y="3.5" stroke="#100f0e" opacity=".1" rx="2"/></g></svg>
