<svg xmlns="http://www.w3.org/2000/svg" viewBox="0 0 24 24"><mask id="a" fill="#fff"><rect width="24" height="18" y=".893" fill-rule="evenodd" rx="2"/></mask><g fill="none" fill-rule="evenodd"><rect width="24" height="18" y="3" fill="#ff0726" rx="2"/><circle cx="12" cy="12" r="3" fill="#facd62"/><path fill="#ffd400" d="m8.406 12.893.135.152c.093.099.192.194.297.283L9 13.46l-7.695 7.434-2.305-2.2zm7.188 0 9.406 5.8-2.305 2.2L15 13.459c.221-.17.42-.36.594-.566m-2.679 1 1.085 5h-4l1.085-5a5.073 5.073 0 0 0 1.83 0M0 7.893l8 1.34a5.505 5.505 0 0 0 0 1.32l-8 1.34zm24 0v4l-8-1.34a5.506 5.506 0 0 0 0-1.32zM1.305-1 9 6.433a3.77 3.77 0 0 0-.46.415L8.407 7-1 1.2zm21.39 0L25 1.2 15.594 7A3.722 3.722 0 0 0 15 6.433zM14 .893l-1.085 5a5.073 5.073 0 0 0-1.83 0L10 .893z" mask="url(#a)" transform="translate(0 2.107)"/><rect width="23" height="17" x=".5" y="3.5" stroke="#100f0e" opacity=".1" rx="2"/></g></svg>
