<svg xmlns="http://www.w3.org/2000/svg" viewBox="0 0 24 24"><mask id="a" fill="#fff"><path fill-rule="evenodd" d="M.017.013h.967V1.99H.017z"/></mask><mask id="b" fill="#fff"><path fill-rule="evenodd" d="M0 .007h4.976V3H0z"/></mask><g fill="none" fill-rule="evenodd"><path fill="#001b9a" d="M0 12h24V4.997A2 2 0 0 0 21.995 3H2.005A2.002 2.002 0 0 0 0 4.997z"/><path fill="#e70a2d" d="M0 19.003A2 2 0 0 0 2.005 21h19.99A2.002 2.002 0 0 0 24 19.003V12H0z"/><g fill="#ffd83d"><path d="M5 7.12c.07 0 .127-.053.127-.12S5.07 6.88 5 6.88s-.127.053-.127.12.057.12.127.12"/><path d="M5 7.12c.07 0 .127-.053.127-.12S5.07 6.88 5 6.88s-.127.053-.127.12.057.12.127.12m0-1c.07 0 .127-.053.127-.12S5.07 5.88 5 5.88s-.127.053-.127.12.057.12.127.12m-1 0c.07 0 .127-.053.127-.12S4.07 5.88 4 5.88s-.127.053-.127.12.057.12.127.12"/><path d="M4 6.12c.07 0 .127-.053.127-.12S4.07 5.88 4 5.88s-.127.053-.127.12.057.12.127.12m0 1c.07 0 .127-.053.127-.12A.124.124 0 0 0 4 6.88a.124.124 0 0 0-.127.12c0 .067.057.12.127.12"/><path d="M4 7.12c.07 0 .127-.053.127-.12S4.07 6.88 4 6.88s-.127.053-.127.12.057.12.127.12m-1 0c.07 0 .127-.053.127-.12S3.07 6.88 3 6.88s-.127.053-.127.12.057.12.127.12"/><path d="M3 7.12c.07 0 .127-.053.127-.12S3.07 6.88 3 6.88s-.127.053-.127.12.057.12.127.12m.127.88A.124.124 0 0 0 3 7.88a.124.124 0 0 0-.127.12c0 .067.057.12.127.12s.127-.053.127-.12"/><path d="M3 8.12c.07 0 .127-.053.127-.12S3.07 7.88 3 7.88s-.127.053-.127.12.057.12.127.12M5.873 7c0 .067.057.12.127.12s.127-.053.127-.12S6.07 6.88 6 6.88a.124.124 0 0 0-.127.12"/><path d="M6 7.12c.07 0 .127-.053.127-.12S6.07 6.88 6 6.88s-.127.053-.127.12.057.12.127.12m0-1c.07 0 .127-.053.127-.12S6.07 5.88 6 5.88s-.127.053-.127.12.057.12.127.12m1 0c.07 0 .127-.053.127-.12S7.07 5.88 7 5.88s-.127.053-.127.12.057.12.127.12"/><path d="M7 6.12c.07 0 .127-.053.127-.12S7.07 5.88 7 5.88s-.127.053-.127.12.057.12.127.12m0 1c.07 0 .127-.053.127-.12A.124.124 0 0 0 7 6.88a.124.124 0 0 0-.127.12c0 .067.057.12.127.12"/><path d="M7 7.12c.07 0 .127-.053.127-.12S7.07 6.88 7 6.88s-.127.053-.127.12.057.12.127.12M7.873 7c0 .067.057.12.127.12s.127-.053.127-.12S8.07 6.88 8 6.88a.124.124 0 0 0-.127.12"/><path d="M7.873 7c0 .067.057.12.127.12s.127-.053.127-.12S8.07 6.88 8 6.88a.124.124 0 0 0-.127.12m.254 1A.124.124 0 0 0 8 7.88a.124.124 0 0 0-.127.12c0 .067.057.12.127.12s.127-.053.127-.12"/><path d="M7.873 8c0 .067.057.12.127.12s.127-.053.127-.12A.124.124 0 0 0 8 7.88a.124.124 0 0 0-.127.12"/><path d="M.4.802c.01.05.041.09.08.1l-.115.284.042.105a.34.34 0 0 0-.172.244.465.465 0 0 0-.01.094c0 .2.123.361.275.361s.276-.161.276-.36a.465.465 0 0 0-.01-.094.34.34 0 0 0-.173-.245l.043-.105L.52.902c.04-.01.07-.05.08-.1l.17.142.214-.178L.77.588.598.731C.588.683.556.646.517.637l.12-.29L.5.012.365.346l.119.291C.444.646.414.683.402.731L.231.588.017.766.23.944z" mask="url(#a)" transform="translate(5 5)"/><path d="M2.564.464v.044L2.531.505l-.034.003V.464c.011 0 .022.003.034.003s.022-.002.033-.003m0 .252C2.553.715 2.542.712 2.531.712s-.023.003-.034.004V.67c.011.001.022.004.034.004s.022-.003.033-.004zm0 .235L2.531.948 2.497.95V.907c.011 0 .022.003.034.003s.022-.003.033-.003zm-.067.22c.011.001.022.004.034.004s.022-.003.033-.004v.027l-.035-.001h-.032zm2.042.176c.064-.179.103-.364.103-.578 0-.356-.28-.706-.762-.706-.396 0-.799.124-1.14.206L2.737.245a.12.12 0 1 0-.032.003L2.57.27l.006.056a.09.09 0 0 0-.176 0L2.407.27 2.27.248a.12.12 0 1 0-.031-.003L2.237.27C1.895.187 1.492.063 1.097.063.613.063.333.413.333.77c0 .214.04.4.103.578A.632.632 0 0 0 0 1.493c.284.233.41.922.65 1.221h.006c0 .136.82.286 1.832.286s1.832-.15 1.833-.286h.005c.24-.299.366-.988.65-1.221a.632.632 0 0 0-.437-.146" mask="url(#b)" transform="translate(3 7)"/><path d="M4.91 7c0 .047.04.086.09.086.05 0 .09-.039.09-.086A.088.088 0 0 0 5 6.914c-.05 0-.09.039-.09.086"/></g><ellipse cx="5.5" cy="9.5" fill="#000" rx="2.5" ry="1"/><rect width="23" height="17" x=".5" y="3.5" stroke="#100f0e" opacity=".1" rx="2"/></g></svg>
