<svg xmlns="http://www.w3.org/2000/svg" viewBox="0 0 24 24"><linearGradient id="b" x1="50%" x2="50%" y1="0%" y2="100%"><stop offset="0" stop-color="#1b2ca9"/><stop offset="1" stop-color="#132294"/></linearGradient><linearGradient id="d" x1="50%" x2="50%" y1="0%" y2="100%"><stop offset="0" stop-color="#e6402c"/><stop offset="1" stop-color="#d1321f"/></linearGradient><linearGradient id="e" x1="50%" x2="50%" y1="0%" y2="100%"><stop offset="0" stop-color="#d0d0d0"/><stop offset="1" stop-color="#c4c4c4"/></linearGradient><linearGradient id="f" x1="50%" x2="50%" y1="0%" y2="100%"><stop offset="0" stop-color="#262626"/><stop offset="1" stop-color="#0d0d0d"/></linearGradient><linearGradient id="g" x1="50%" x2="50%" y1="0%" y2="100%"><stop offset="0" stop-color="#fff"/><stop offset="1" stop-color="#f0f0f0"/></linearGradient><linearGradient id="h" x1="50%" x2="50%" y1="0%" y2="100%"><stop offset="0" stop-color="#f7e04b"/><stop offset="1" stop-color="#ead135"/></linearGradient><mask id="a" fill="#fff"><path fill-rule="evenodd" d="M0 .491C0 .22.258 0 .597 0h4.806C5.733 0 6 .228 6 .491v5.018c0 .271-.262.499-.6.522 0 0-1.8-.031-2.4.91C2.4 6 .6 6.03.6 6.03c-.33-.016-.6-.258-.6-.521z"/></mask><mask id="c" fill="#fff"><path fill-rule="evenodd" d="M0 .491C0 .22.258 0 .597 0h4.806C5.733 0 6 .228 6 .491v5.018c0 .271-.262.499-.6.522 0 0-1.8-.031-2.4.91C2.4 6 .6 6.03.6 6.03c-.33-.016-.6-.258-.6-.521z"/></mask><g fill="none" fill-rule="evenodd"><rect width="24" height="18" y="3" fill="#fcfbfa" rx="2"/><path fill="#d8d8d8" d="M9 9.491C9 9.22 9.258 9 9.597 9h4.806c.33 0 .597.228.597.491v5.018c0 .271-.262.499-.6.522 0 0-1.8-.031-2.4.91-.6-.941-2.4-.91-2.4-.91-.331-.017-.6-.259-.6-.522z"/><path stroke="#979797" d="M9.6 9.5v5.009s.024.022-.012.022H9.6c.411-.004.952.048 1.5.213.343.102.647.24.901.418.254-.178.558-.316.9-.418a5.202 5.202 0 0 1 1.464-.213c.024-.005.036-.017.036-.022V9.5z"/><g mask="url(#a)" transform="translate(9 9)"><path fill="#000" fill-rule="nonzero" d="M0 0h6v3H0z"/><path fill="url(#b)" d="M0 0h6v3H0z"/></g><g mask="url(#c)" transform="translate(9 9)"><path fill="#000" fill-rule="nonzero" d="M0 3h6v4H0z"/><path fill="url(#d)" d="M0 0h6v4H0z" transform="translate(0 3)"/></g><g fill-rule="nonzero"><g transform="translate(17 8)"><path fill="url(#e)" d="M1.039 1.726v-.464L1.5 1S1.045.444 1.27.444C1.545.444 2.7.81 3 1s.453.418.496.85c.042.431-.316.981-.316.981L3 3.25l.788-.179s.128.826-.452 1.429c-.58.603-1.395.49-1.395.49l-.164-.49s-.53.206-.843.674-.401 1.276.105 1.775c.506.5 1.341.457 1.74-.245 0 0 .159-.62-.21-.912s-.616.311-.628.278c-.071-.21-.164-.57.428-.57s.896.637.81 1.126c-.084.489-.255.953-1.402 1.083S.336 6.386.336 6.386s-.292-1.356 0-2.335c.292-.98.725-1.004 1.605-1.541.88-.538-.531-.183-.531-.183s-.67.504-.88.32.509-.921.509-.921"/><circle cx="1.75" cy="1.75" r="1" fill="url(#f)" fill-opacity=".3"/></g><g transform="matrix(-1 0 0 1 7 8)"><path fill="url(#e)" d="M1.039 1.726v-.464L1.5 1S1.045.444 1.27.444C1.545.444 2.7.81 3 1s.453.418.496.85c.042.431-.316.981-.316.981L3 3.25l.788-.179s.128.826-.452 1.429c-.58.603-1.395.49-1.395.49l-.164-.49s-.53.206-.843.674-.401 1.276.105 1.775c.506.5 1.341.457 1.74-.245 0 0 .159-.62-.21-.912s-.616.311-.628.278c-.071-.21-.164-.57.428-.57s.896.637.81 1.126c-.084.489-.255.953-1.402 1.083S.336 6.386.336 6.386s-.292-1.356 0-2.335c.292-.98.725-1.004 1.605-1.541.88-.538-.531-.183-.531-.183s-.67.504-.88.32.509-.921.509-.921"/><circle cx="1.75" cy="1.75" r="1" fill="url(#f)" fill-opacity=".3"/></g><path fill="url(#g)" d="M8.134 2a1 1 0 1 0 1.732 0 1 1 0 0 1-1.732 0" transform="translate(3 8)"/><path fill="url(#h)" d="M7.5 6a.5.5 0 1 1 0-1 .5.5 0 0 1 0 1m3 0a.5.5 0 1 1 0-1 .5.5 0 0 1 0 1" transform="translate(3 8)"/></g><rect width="23" height="17" x=".5" y="3.5" stroke="#100f0e" opacity=".1" rx="2"/></g></svg>
