<svg xmlns="http://www.w3.org/2000/svg" viewBox="0 0 24 24"><g fill="none" fill-rule="evenodd"><rect width="24" height="18" y="3" fill="#e93425" rx="2"/><path fill="#000" d="m10.793 7.187.842.889a.501.501 0 0 0 .73 0l.842-.89a.635.635 0 0 1 .794-.082l1.143.804-1.623.856c-.26.137-.473.497-.473.802 0 .297.234.553.524.553.28 0 .732-.11.989-.245l1.165-.615a.738.738 0 0 1 .832.141l.315.332c.203.214.158.497-.099.633l-1.165.614c-.257.136-.273.381-.036.548l.713.501c.237.167.203.35-.076.409l-1.61.34c-.281.06-.314.256-.08.442l1.247.987c.231.183.19.336-.1.336-.28 0-.75-.06-1.03-.134l-1.082-.285c-.283-.075-.38.069-.22.319l.474.752c.158.25.048.453-.246.453h-.507c-.3 0-.606.235-.698.525l-.192.609c-.093.294-.24.29-.332 0l-.192-.609c-.093-.294-.404-.525-.698-.525h-.508c-.3 0-.404-.203-.246-.453l.476-.752c.157-.25.059-.393-.221-.32l-1.081.286a4.83 4.83 0 0 1-1.032.134c-.28 0-.334-.15-.1-.336l1.248-.987c.23-.183.198-.383-.081-.442l-1.61-.34c-.281-.06-.312-.242-.075-.409l.713-.501c.236-.167.221-.412-.036-.548l-1.165-.614c-.257-.136-.301-.419-.099-.633l.315-.332a.737.737 0 0 1 .831-.141l1.166.615c.256.135.7.245.989.245.28 0 .524-.247.524-.553 0-.296-.208-.662-.465-.798L9.32 8.153c-.256-.135-.272-.38-.035-.547l.713-.502a.63.63 0 0 1 .794.083z"/><rect width="23" height="17" x=".5" y="3.5" stroke="#100f0e" opacity=".1" rx="2"/></g></svg>
