<svg xmlns="http://www.w3.org/2000/svg" xmlns:xlink="http://www.w3.org/1999/xlink" viewBox="0 0 24 24"><linearGradient id="b" x1="50%" x2="50%" y1="0%" y2="100%"><stop offset="0" stop-color="#fff"/><stop offset="1" stop-color="#f0f0f0"/></linearGradient><linearGradient id="c" x1="50%" x2="50%" y1="0%" y2="100%"><stop offset="0" stop-color="#1e357f"/><stop offset="1" stop-color="#162966"/></linearGradient><linearGradient id="e" x1="50%" x2="50%" y1="0%" y2="100%"><stop offset="0" stop-color="#ff082a"/><stop offset="1" stop-color="#a30b35"/></linearGradient><mask id="d" fill="#fff"><use xlink:href="#a" fill-rule="evenodd"/></mask><mask id="f" fill="#fff"><path fill-rule="evenodd" d="M0 2.5V0s.498.489 1.163.489S2.5 0 2.5 0s.627.489 1.251.489C4.376.489 5 0 5 0v2.5C5 5 2.5 6 2.5 6S0 5 0 2.5"/></mask><g fill="none" fill-rule="evenodd"><rect width="24" height="18" y="3" fill="#fcfbfa" rx="2"/><path fill="#1583c4" fill-rule="nonzero" d="m18.35 11.505-3.072 5.88a.25.25 0 0 0 .444.23l3.07-5.879a.25.25 0 0 0-.443-.231z"/><path fill="#1583c4" fill-rule="nonzero" d="m18.78 12.813-3.478 4.535a.25.25 0 0 0 .396.304l3.48-4.534a.25.25 0 1 0-.397-.305z"/><path fill="#1583c4" fill-rule="nonzero" d="m17.223 12.409-1.956 5a.25.25 0 0 0 .466.182l1.955-5a.25.25 0 0 0-.465-.182"/><path fill="#409347" fill-rule="nonzero" d="M6.26 11.573c.03.093.08.256.15.464.117.347.242.694.37 1.019.15.373.294.693.432.945l.074.128c.16.266.413.614.742 1.026a36.319 36.319 0 0 0 1.287 1.513.25.25 0 0 0 .37-.336 35.831 35.831 0 0 1-1.267-1.49 9.854 9.854 0 0 1-.704-.97 3.41 3.41 0 0 1-.063-.112 8.185 8.185 0 0 1-.405-.889 19.401 19.401 0 0 1-.507-1.444.25.25 0 1 0-.478.146z"/><path fill="#197ed6" d="M2 11h1v1H2zm2 0h1v1H4zm-2 1h1v1H2zm2 0h1v1H4zm-1 2h1v1H3zm-1-1h1v1H2zm2 0h1v1H4z"/><g fill="#ffd20c" transform="translate(3 6)"><path id="a" d="M14 5.5s.036.665-.803 1c-.839.335-1.697 0-1.697 0s.618.363 1 1 .182.983.5 1.301c.318.318.891.101 1.118.373.227.273.21.584-.118.826s-.432.13-.803-.118c-.371-.248-.197-.495-.197-.495s-.64-.331-1.128-.474C11.5 8.218 11 8 11 8v.5s1 .513 1 1c0 .213-.462.916-1 1.417-.692.644-1.5.822-1.5.822V4.5l3-.5s-1.381-1.087 1.75-1.847l3.78-.917c.536-.13.74.14.442.605 0 0-.024.099-.472.659s-.546.66-1 1-.454.09-1 .5-.567.783-1 1-1 0-1 0zm-9 0V5s-.567.217-1 0c-.434-.217-.454-.59-1-1-.547-.41-.547-.16-1-.5-.454-.34-.552-.44-1-1-.448-.56-.472-.659-.472-.659-.299-.464-.094-.735.442-.605l3.78.917C7.88 2.913 6.5 4 6.5 4l3 .5v7.24s-.808-.179-1.5-.823c-.538-.5-1-1.204-1-1.417 0-.487 1-1 1-1V8s-.5.218-.872.913C6.639 9.056 6 9.387 6 9.387s.174.247-.197.495c-.372.247-.476.36-.803.118-.328-.242-.346-.553-.119-.826.227-.272.801-.055 1.119-.373.317-.318.117-.664.5-1.301.382-.637 1-1 1-1s-.858.335-1.697 0C4.964 6.165 5 5.5 5 5.5m3.248-1.774c-.02-.139-.318-.25-.185-.284.247-.064.371-.143.493-.353.054-.092-.187-.032-.109-.123.412-.477.498-.847.234-.972-.571-.269-.641.427-.618.14.016-.204.037-.369.063-.451.115-.366.697-.344.733-.415.146-.293.314-.32.641-.268s.475.209.605.469c.098.196.07.502.178.794.07.19.17.294.247.483.044.11-.289-.108-.247 0 .113.294.396.281.566.547.07.109-.256-.02-.235.149C10.63 3.555 11 4 11 4H8s.266-.153.248-.274"/></g><path stroke="#000" stroke-opacity=".08" stroke-width=".5" d="m16.123 15.169.247.127-.159.225c-.013.034-.001.069.125.153.302.201.305.203.348.21.026.004.068-.012.168-.085.2-.149.218-.293.074-.465-.031-.037-.105-.057-.328-.078l-.129-.013a1.484 1.484 0 0 1-.346-.074zm-.172-.086a.819.819 0 0 1-.128-.105c-.173-.173-.233-.329-.288-.627-.064-.347-.104-.48-.25-.722a2.52 2.52 0 0 0-.32-.421 2.84 2.84 0 0 0-.592-.492l.218-.449c.037.015.113.04.22.064.41.097.845.101 1.244-.044l.05-.02a1.14 1.14 0 0 0 .476-.33.683.683 0 0 0 .17-.427v.003l-.001-.013v-.863l.34.13c.021.008.068.023.131.038.165.04.333.054.481.03a.648.648 0 0 0 .186-.059c.127-.063.207-.138.325-.294.336-.443.369-.481.637-.682.267-.2.412-.266.645-.324l.014-.003a.807.807 0 0 0 .341-.173c.433-.325.517-.409.955-.956.311-.39.424-.562.457-.638.174-.27.148-.305-.173-.227l-.716.173-3.064.744c-.659.16-1.136.34-1.45.532-.468.289-.498.512-.31.761a.664.664 0 0 0 .106.115l.444.35-3.349.558v6.686l.044-.017a3.423 3.423 0 0 0 1.036-.647c.457-.426.92-1.097.92-1.234 0-.007 0-.015-.002-.024-.022-.115-.168-.285-.399-.46a3.357 3.357 0 0 0-.463-.294l-.136-.07v-1.034l.35.153c.194.085.466.28.732.62.074.097.145.2.21.312a7.035 7.035 0 0 1 .481.184c.16.069.307.137.428.196zm0 0 .164.082.008.004a.826.826 0 0 1-.172-.086zm-3.701-4.371.209.035-.21-.247zm-3.201 4.37c-.063.03-.118.059-.164.083l-.008.004a.826.826 0 0 0 .172-.086zm2.45-5.332h1.996a.655.655 0 0 1-.129-.277.336.336 0 0 1 .043-.233c-.19-.12-.287-.217-.36-.404-.051-.134-.007-.247.078-.312a1.269 1.269 0 0 1-.117-.295 2.559 2.559 0 0 1-.07-.38c-.02-.154-.035-.221-.059-.269-.11-.22-.204-.298-.42-.333-.261-.042-.298-.029-.378.133-.055.108-.112.133-.238.165.042-.01-.216.047-.282.07a.503.503 0 0 0-.138.065.834.834 0 0 1 .362.088c.432.203.374.664-.001 1.175a.285.285 0 0 1-.014.272.892.892 0 0 1-.32.341.383.383 0 0 1 .047.194z"/><g fill-rule="nonzero"><path fill="url(#b)" d="M0 2.5V0s.498.489 1.163.489S2.5 0 2.5 0s.627.489 1.251.489C4.376.489 5 0 5 0v2.5C5 5 2.5 6 2.5 6S0 5 0 2.5" transform="translate(10 9)"/><path fill="url(#c)" d="M0 0h5v2H0z" mask="url(#d)" transform="translate(10 9)"/><path fill="url(#e)" d="M0 2h1v4H0zm2 0h1v4H2zm2 0h1v4H4z" mask="url(#f)" transform="translate(10 9)"/></g><path fill="#197ed6" d="M21 11h1v4h-1z"/><rect width="23" height="17" x=".5" y="3.5" stroke="#100f0e" opacity=".1" rx="2"/></g></svg>