<svg xmlns="http://www.w3.org/2000/svg" xmlns:xlink="http://www.w3.org/1999/xlink" viewBox="0 0 24 24"><defs><mask id="b" fill="#fff"><use xlink:href="#a" fill-rule="evenodd"/></mask><mask id="c" fill="#fff"><path fill-rule="evenodd" d="M0 3.5V.51C0 .228.215 0 .498 0h4.004C4.777 0 5 .227 5 .51V3.5C5 6 2.5 7 2.5 7S0 6 0 3.5"/></mask><rect id="a" width="24" height="18" y="3" rx="2"/></defs><g fill="none" fill-rule="evenodd"><path d="M0 0h24v24H0z"/><use xlink:href="#a" fill="#fff"/><path fill="#0024a5" d="M0 3h24v18H0z" mask="url(#b)"/><path fill="#6bc0c6" d="M16 15.5v-2.99c0-.282.215-.51.498-.51h4.004c.275 0 .498.227.498.51v2.99c0 2.5-2.5 3.5-2.5 3.5S16 18 16 15.5"/><path fill="#facd62" d="m-.5 6 3-6 3 6v2h-6z" mask="url(#c)" transform="translate(16 12)"/><path fill="#759c6c" d="M0 6.118V7.5h5V6.118l-2.5-5z" mask="url(#c)" transform="translate(16 12)"/><path fill="#0a5da7" d="M0 5c0-1.105.902-2 2.009-2H12v10H0z"/><path fill="#ff082a" d="M7 3v4h5v2H7v4H5V9H0V7h5V3z"/><path fill="#fff" d="M1 5h1v1h1V5h1V3h1v4H0V6h1zm2-1v1H2V4zM1 4v1H0V4zm1-1v1H1V3z"/><path fill="#c74634" d="M3 5v1H2V5zM2 4v1H1V4z"/><path fill="#c74634" d="M0 3h1v1H0z" opacity=".5"/><path fill="#fff" d="M11 5h-1v1H9V5H8V3H7v4h5V6h-1zM9 4v1h1V4zm2 0v1h1V4zm-1-1v1h1V3z"/><path fill="#c74634" d="M9 5v1h1V5zm1-1v1h1V4zm1-1v1h1V3z"/><path fill="#fff" d="M1 11h1v-1h1v1h1v2h1V9H0v1h1zm2 1v-1H2v1zm-2 0v-1H0v1zm1 1v-1H1v1z"/><path fill="#c74634" d="M3 11v-1H2v1zm-1 1v-1H1v1zm-1 1v-1H0v1z"/><path fill="#fff" d="M11 11h-1v-1H9v1H8v2H7V9h5v1h-1zm-2 1v-1h1v1zm2 0v-1h1v1zm-1 1v-1h1v1z"/><path fill="#c74634" d="M9 11v-1h1v1zm1 1v-1h1v1zm1 1v-1h1v1z"/><rect width="23" height="17" x=".5" y="3.5" stroke="#100f0e" opacity=".1" rx="2"/></g></svg>