<svg xmlns="http://www.w3.org/2000/svg" viewBox="0 0 24 24"><g fill="none" fill-rule="evenodd"><rect width="24" height="18" y="3" fill="#0029a1" rx="2"/><path fill="#facd62" d="m11 15-1-.5-1-2h1l1-1 .5-1 1-.5.5.5 1 .5v.5l.5.5 1.5 1-.5 1.5L14 16l-.5-1-1.5 1v1l-.5-.5z"/><path fill="#fff" fill-rule="nonzero" d="M5.707 11.31 5 11.517l.207-.707L5 10.103l.707.207.707-.207-.207.707.207.707zm2-2.083L7 9.434l.207-.707L7 8.019l.707.208.707-.208-.207.708.207.707zm3-1.02L10 8.414l.207-.707L10 7l.707.207.707-.207-.207.707.207.707zm3 0L13 8.414l.207-.707L13 7l.707.207.707-.207-.207.707.207.707zm3 1L16 9.414l.207-.707L16 8l.707.207.707-.207-.207.707.207.707zm2 2-.707.207.207-.707L18 10l.707.207.707-.207-.207.707.207.707z"/><rect width="23" height="17" x=".5" y="3.5" stroke="#100f0e" opacity=".1" rx="2"/></g></svg>
