<svg xmlns="http://www.w3.org/2000/svg" viewBox="0 0 24 24"><g fill="none" fill-rule="evenodd"><path d="M0 0h24v24H0z"/><path fill="#008b3e" d="M0 19.002A2 2 0 0 0 2.005 21h19.99A2.004 2.004 0 0 0 24 19.002V15H0z"/><path fill="#fcfbfa" d="M0 9h24v6H0z"/><path fill="#1a1816" d="M0 9h24V4.998A2.001 2.001 0 0 0 21.995 3H2.005A2.004 2.004 0 0 0 0 4.998z"/><rect width="23" height="17" x=".5" y="3.5" stroke="#3f3a36" opacity=".1" rx="2"/><g fill="#ff082a"><path d="m0 4 8 8-8 8zm14 5.234A2.775 2.775 0 0 0 12.882 9C11.29 9 10 10.343 10 12s1.29 3 2.882 3c.396 0 .774-.083 1.118-.234-1.326-.166-2.353-1.341-2.353-2.766S12.674 9.4 14 9.234"/><path d="m15 12.801-1.176.817.414-1.37-1.14-.866 1.431-.03L15 10l.471 1.352 1.431.03-1.14.866.414 1.37z"/></g></g></svg>
