<svg xmlns="http://www.w3.org/2000/svg" viewBox="0 0 24 24"><mask id="a" fill="#fff"><path fill-rule="evenodd" d="M0 .012h5.989v7.02H0z"/></mask><g fill="none" fill-rule="evenodd"><path fill="#002166" d="M0 19.005C0 20.107.887 21 1.998 21H8V3H1.998A1.996 1.996 0 0 0 0 4.995z"/><path fill="#e70a2d" d="M24 19.005A1.992 1.992 0 0 1 22.002 21H16V3h6.002C23.105 3 24 3.893 24 4.995z"/><path fill="#fc0" d="M8 3h8v18H8z"/><g fill="#b07f55"><path d="M11.213 9.565c.012-.04.058-.11.11-.118a.094.094 0 0 1-.063-.09h-.096a.094.094 0 0 1-.062.09c.052.008.098.079.11.118m.342-.444s-.002-.052-.022-.076c-.03-.033-.078-.033-.078.01 0 .034.1.066.1.066m-2.407 2.513"/><path d="M4.54 5.177c-.08 0-.115.04-.166-.049a8.733 8.733 0 0 0-.251-.378c.037 0 .07-.003.07-.003a1.627 1.627 0 0 1-.158-.268c.054-.029.104-.058.148-.086a.668.668 0 0 0 .164-.146.233.233 0 0 0 .036-.065c.047.177.17.622.288.827.01.042.035.068.035.068s-.072.006-.09.044a.087.087 0 0 0 .005.083.205.205 0 0 0-.082-.027zM1.25 5.17c-.016-.019-.014-.03.006-.047l.083.08c-.03.005-.062.012-.095.02.016-.019.016-.039.005-.053zm.433-.422s.033.004.07.003a8.733 8.733 0 0 0-.251.378c-.041.071-.073.06-.124.052l-.032-.07a.046.046 0 0 1 .038.02.075.075 0 0 0 .087.019.072.072 0 0 0 .035-.096c-.016-.036-.05-.043-.081-.037-.02.004-.033.02-.05.028a.163.163 0 0 1-.054.012l-.01-.02a.497.497 0 0 0 .173-.167c.057-.107.036-.25.036-.25s-.106.04-.12.057a.272.272 0 0 0-.013-.13c.046-.146.084-.285.105-.366a.237.237 0 0 0 .038.067c.03.043.096.102.163.146.044.028.094.057.148.086a1.63 1.63 0 0 1-.158.268M5.99 2.64l-.17.124.019.04s-.031.01-.045.039c-.015.027.009.066.009.066s-.162-.014-.187.002c-.023.015.01.127-.006.222-.02.132-.073.12-.075.146-.002.025.02.064.02.064s-.03.01-.036.022c-.01.02.007.058-.006.083l-.054.106c0-1.273.004-2.546.004-2.546 0-.162-.256-.514-.587-.729-.226.133-.47.431-.557.455 0 .08.03.157.03.242v.158c-.208.01-.3.107-.475.205-.099.055-.24.1-.271.108a.59.59 0 0 1-.163-.166A1.005 1.005 0 0 1 3.303.75c0-.08.09-.172.09-.237 0-.099-.008-.158-.008-.158.032.005.088.062.088.062S3.47.253 3.419.224c0 0 .02-.021.097-.023-.022-.054-.127-.12-.127-.12a.068.068 0 0 1 .028-.024.342.342 0 0 1 .092-.03l-.156.012.002-.002-.02.003-.266.021a.25.25 0 0 0-.105-.044c-.058 0-.08.014-.137.014L2.96.07l-.148.01.002-.009c0-.033-.035-.06-.077-.06s-.076.027-.076.06a.05.05 0 0 0 .004.02l-.12.01a.372.372 0 0 0-.227-.07c-.055 0-.09.02-.09.02l.045.014c-.055.018-.086.064-.086.064l.06-.005V.122c.007 0 .014 0 .022.002l.15-.012.145.046.001.005c0 .012-.014.014-.015.014-.083 0-.204-.043-.28-.053l-.023.001v.033c.164.057.33.137.33.492 0 .224-.027.452-.14.631a.595.595 0 0 1-.163.167 1.587 1.587 0 0 1-.272-.11c-.175-.097-.266-.194-.475-.204V.976c0-.085.03-.161.03-.242C1.47.71 1.227.412 1.002.279.67.494.413.846.413 1.008c0 0 .003.763.004 1.699a.77.77 0 0 0-.066-.112s-.044.09-.048.157c-.028-.07-.198-.164-.198-.164s-.026.148.018.232c.038.076.063.093.063.093A.406.406 0 0 0 0 2.86s.04.16.135.233c.053.04.122.054.173.057a.123.123 0 0 1-.031.021c-.018.007-.038.007-.054.019-.026.02-.042.05-.025.086a.072.072 0 0 0 .095.036.074.074 0 0 0 .043-.077C.332 3.21.337 3.2.358 3.178l.06.13v.1C.289 3.355.15 3.37.15 3.37s.048.09.095.111c-.032-.012-.117.02-.117.02s.09.146.21.19c.026.01.053.014.08.016 0 .78-.001 1.542-.005 1.992 0 .07-.042.168-.042.168.121-.05.343-.354.39-.47v.056c.143-.066.256-.215.327-.33a.293.293 0 0 0 .098-.02.071.071 0 0 1-.011.008c-.016.01-.036.012-.05.027-.023.023-.034.056-.012.089a.07.07 0 0 0 .055.031.284.284 0 0 0-.069.065.307.307 0 0 0-.044.141c0 .049.051.115.051.115.006-.023.016-.031.016-.031l.154.19c.016.017.085.028.11.006.035-.032.07-.059.103-.091l.013.03-.042.193.242.133.06-.27-.172-.093-.033-.073.002-.003c.028-.041.03-.088.062-.132.107-.148.32-.431.37-.496l.008.051c.045-.089.223-.243.293-.301l.222.1c.026.01.05.022.072.032-.08.179-.548 1.182-.967 1.349a7.138 7.138 0 0 0 .557.272c.03-.037.063-.079.095-.122.147-.197.291-.425.291-.425.01.06-.067.242-.199.468l-.083.138.1.058c.244.147.473.315.558.47.085-.155.313-.323.557-.47l.1-.058c-.03-.047-.057-.094-.083-.138-.131-.226-.209-.409-.199-.468 0 0 .144.228.291.425.032.043.065.085.096.122a6.535 6.535 0 0 1 .557-.272c-.42-.167-.886-1.168-.968-1.348l.073-.034.222-.099c.07.059.248.212.292.301l.01-.051c.048.065.261.348.368.496.032.044.034.091.062.132.03.044.062.076.094.105a.07.07 0 0 0-.02-.001.05.05 0 0 0-.04.023.052.052 0 0 0 0 .047s-.053-.017-.072-.008c-.017.009 0 .262 0 .262s.214-.135.21-.154c-.003-.02-.047-.055-.047-.055a.051.051 0 0 0 .037-.026.045.045 0 0 0 .003-.028.695.695 0 0 1 .01.009c.024.022.093.011.108-.006.02-.022.155-.19.155-.19s.01.008.015.031c0 0 .051-.066.051-.115a.307.307 0 0 0-.044-.141.304.304 0 0 0-.075-.07.09.09 0 0 0 .089-.044c.019-.037-.02-.098-.02-.098h.01c.07.118.187.274.335.342v-.055c.047.115.268.418.39.47 0 0-.043-.1-.043-.17-.003-.429-.005-1.144-.004-1.888l.158-.31c.012-.024.053-.033.063-.053.007-.013-.004-.043-.004-.043s.045-.004.064-.02c.02-.017-.02-.053.074-.148.068-.067.177-.107.176-.135-.002-.03-.108-.152-.108-.152s.044-.004.059-.031c.014-.028.004-.06.004-.06l.045-.008z" mask="url(#a)" transform="translate(9 9.003)"/></g><path fill="#f5d402" d="M13.452 10.744c0-.099.13-.197.13-.197h-3.176s.13.098.13.197v2.364c0 .063.02.103.05.143a.692.692 0 0 0 .164.145c.208.136.557.279.82.399.22.1.31.14.424.281.115-.141.205-.181.425-.281.263-.12.612-.263.82-.399a.668.668 0 0 0 .164-.145c.03-.04.049-.08.049-.143z"/><path fill="#d10429" d="M10.612 12.082v-1.338c0-.075-.039-.121-.039-.121h2.842s-.038.046-.038.121v1.338l-1.382.419z"/><path fill="#0b45bb" d="m13.378 12.082-.857-.016h-1.053l-.856.016v1.026c0 .052.053.173.362.326.51.255.903.374 1.02.518.118-.144.51-.263 1.02-.518.31-.153.363-.274.363-.326z"/><rect width="23" height="17" x=".5" y="3.5" stroke="#100f0e" opacity=".1" rx="2"/></g></svg>
