<svg xmlns="http://www.w3.org/2000/svg" viewBox="0 0 24 24"><g fill="none" fill-rule="evenodd"><rect width="24" height="18" y="3" fill="#00249f" rx="2"/><path fill="#c74634" d="M7 3v4h5v2H7v4H5V9H0V7h5V3z"/><path fill="#fff" d="M1 5h1v1h1V5h1V3h1v4H0V6h1zm2-1v1H2V4zM1 4v1H0V4zm1-1v1H1V3z"/><path fill="#c74634" d="M3 5v1H2V5zM2 4v1H1V4z"/><path fill="#c74634" d="M0 3h1v1H0z" opacity=".5"/><path fill="#fff" d="M11 5h-1v1H9V5H8V3H7v4h5V6h-1zM9 4v1h1V4zm2 0v1h1V4zm-1-1v1h1V3z"/><path fill="#c74634" d="M9 5v1h1V5zm1-1v1h1V4zm1-1v1h1V3z"/><path fill="#fff" d="M1 11h1v-1h1v1h1v2h1V9H0v1h1zm2 1v-1H2v1zm-2 0v-1H0v1zm1 1v-1H1v1z"/><path fill="#c74634" d="M3 11v-1H2v1zm-1 1v-1H1v1zm-1 1v-1H0v1z"/><path fill="#fff" d="M11 11h-1v-1H9v1H8v2H7V9h5v1h-1zm-2 1v-1h1v1zm2 0v-1h1v1zm-1 1v-1h1v1z"/><path fill="#c74634" d="M9 11v-1h1v1zm1 1v-1h1v1zm1 1v-1h1v1z"/><path fill="#fff" d="m6 18.202-1.763 1.225.62-2.056-1.71-1.298 2.147-.045L6 14l.706 2.028 2.147.045-1.71 1.298.62 2.056zM18 15l.471 1.352 1.431.03-1.14.866.414 1.37L18 17.801l-1.176.817.414-1.37-1.14-.866 1.431-.03zm3-3v1h-1v-1zm-6-4 .471 1.352 1.431.03-1.14.866.414 1.37L15 10.801l-1.176.817.414-1.37-1.14-.866 1.431-.03zm6 0 .471 1.352 1.431.03-1.14.866.414 1.37L21 10.801l-1.176.817.414-1.37-1.14-.866 1.431-.03zm-3-3 .471 1.352 1.431.03-1.14.866.414 1.37L18 7.801l-1.176.817.414-1.37-1.14-.866 1.431-.03z"/><rect width="23" height="17" x=".5" y="3.5" stroke="#100f0e" opacity=".1" rx="2"/></g></svg>
