<svg xmlns="http://www.w3.org/2000/svg" viewBox="0 0 24 24"><g fill="none" fill-rule="evenodd"><path fill="#ff082a" d="M0 12h24v7.003A2 2 0 0 1 21.995 21H2.005A2.002 2.002 0 0 1 0 19.003z"/><path fill="#001b9a" d="M0 4.997A2 2 0 0 1 2.005 3h19.99C23.102 3 24 3.896 24 4.997V12H0z"/><path fill="#fcfbfa" d="m0 4 12 8-12 8z"/><g fill="#facd62"><path d="M3.913 12.862 3.172 14l.28-1.329a.871.871 0 0 1-.123-.124L2 12.828l1.138-.74a.876.876 0 0 1 0-.175L2 11.172l1.329.28a.871.871 0 0 1 .124-.123L3.172 10l.74 1.138a.876.876 0 0 1 .175 0L4.828 10l-.28 1.329a.871.871 0 0 1 .123.124L6 11.172l-1.138.74a.876.876 0 0 1 0 .175L6 12.828l-1.329-.28a.871.871 0 0 1-.124.123L4.828 14l-.74-1.138a.876.876 0 0 1-.175 0"/><path d="M3.913 12.862 3.172 14l.28-1.329a.871.871 0 0 1-.123-.124L2 12.828l1.138-.74a.876.876 0 0 1 0-.175L2 11.172l1.329.28a.871.871 0 0 1 .124-.123L3.172 10l.74 1.138a.876.876 0 0 1 .175 0L4.828 10l-.28 1.329a.871.871 0 0 1 .123.124L6 11.172l-1.138.74a.876.876 0 0 1 0 .175L6 12.828l-1.329-.28a.871.871 0 0 1-.124.123L4.828 14l-.74-1.138a.876.876 0 0 1-.175 0M8 13a1 1 0 1 1 0-2 1 1 0 0 1 0 2M2 9a1 1 0 1 1 0-2 1 1 0 0 1 0 2m0 8a1 1 0 1 1 0-2 1 1 0 0 1 0 2"/></g><rect width="23" height="17" x=".5" y="3.5" stroke="#100f0e" opacity=".1" rx="2"/></g></svg>
