<svg xmlns="http://www.w3.org/2000/svg" viewBox="0 0 24 24"><g fill="none" fill-rule="evenodd"><path fill="#0012ad" d="M0 19.005C0 20.107.887 21 1.998 21H8V3H1.998A1.996 1.996 0 0 0 0 4.995z"/><path fill="#e70a2d" d="M24 19.005A1.992 1.992 0 0 1 22.002 21H16V3h6.002C23.105 3 24 3.893 24 4.995z"/><path fill="#ffe000" d="M8 3h8v18H8z"/><path fill="#bc976c" d="M10.254 12.919c.052.59.61 1.081 1.228 1.081h1.036c.616 0 1.177-.494 1.228-1.081L14 10h-4zm-1.25-2.928C8.957 9.444 9.362 9 9.936 9h4.128c.561 0 .98.432.932.99l-.257 3.012c-.095 1.104-1.09 1.998-2.23 1.998H11.49c-1.137 0-2.134-.885-2.23-1.998z"/><g fill="#c74634"><path d="M10 9h4v1h-4zm0 1.75h4v1.5h-4z"/><path d="M10 11h4v1h-4z"/></g><rect width="23" height="17" x=".5" y="3.5" stroke="#100f0e" opacity=".1" rx="2"/></g></svg>
