<svg xmlns="http://www.w3.org/2000/svg" viewBox="0 0 24 24"><mask id="a" fill="#fff"><path fill-rule="evenodd" d="M0 5V1.428C0 .639.71 0 1.6 0h4.8C7.284 0 8 .63 8 1.428V5c0 3.571-4 5-4 5S0 8.571 0 5"/></mask><g fill="none" fill-rule="evenodd"><rect width="24" height="18" y="3" fill="#0029a1" rx="2"/><path fill="#6bc0c6" d="M14 12V8.428C14 7.639 14.71 7 15.6 7h4.8c.884 0 1.6.63 1.6 1.428V12c0 3.571-4 5-4 5s-4-1.429-4-5"/><path fill="#a43c2e" d="M0 7.143h8V10H0z" mask="url(#a)" transform="translate(14 7)"/><path fill="#000" d="M18.8 9.857V8.43h-1.6v1.428h-1.6v1.429h1.6v2.857h1.6v-2.857h1.6v-1.43z"/><path fill="#0a5da7" d="M0 5c0-1.105.902-2 2.009-2H12v10H0z"/><path fill="#ff082a" d="M7 3v4h5v2H7v4H5V9H0V7h5V3z"/><path fill="#fff" d="M1 5h1v1h1V5h1V3h1v4H0V6h1zm2-1v1H2V4zM1 4v1H0V4zm1-1v1H1V3z"/><path fill="#c74634" d="M3 5v1H2V5zM2 4v1H1V4z"/><path fill="#c74634" d="M0 3h1v1H0z" opacity=".5"/><path fill="#fff" d="M11 5h-1v1H9V5H8V3H7v4h5V6h-1zM9 4v1h1V4zm2 0v1h1V4zm-1-1v1h1V3z"/><path fill="#c74634" d="M9 5v1h1V5zm1-1v1h1V4zm1-1v1h1V3z"/><path fill="#fff" d="M1 11h1v-1h1v1h1v2h1V9H0v1h1zm2 1v-1H2v1zm-2 0v-1H0v1zm1 1v-1H1v1z"/><path fill="#c74634" d="M3 11v-1H2v1zm-1 1v-1H1v1zm-1 1v-1H0v1z"/><path fill="#fff" d="M11 11h-1v-1H9v1H8v2H7V9h5v1h-1zm-2 1v-1h1v1zm2 0v-1h1v1zm-1 1v-1h1v1z"/><path fill="#c74634" d="M9 11v-1h1v1zm1 1v-1h1v1zm1 1v-1h1v1z"/><rect width="23" height="17" x=".5" y="3.5" stroke="#100f0e" opacity=".1" rx="2"/></g></svg>
