<svg xmlns="http://www.w3.org/2000/svg" viewBox="0 0 24 24"><g fill="none" fill-rule="evenodd"><path fill="#ffcf00" d="M0 18.995C0 20.102.897 21 2.005 21h19.99A2.003 2.003 0 0 0 24 18.995V16H0z"/><path fill="#007f3e" d="M0 8h24V5.005A2.005 2.005 0 0 0 21.995 3H2.005A2.003 2.003 0 0 0 0 5.005z"/><path fill="#fcfbfa" d="M0 8h24v8H0z"/><path fill="#000" d="M0 9h24v6H0z"/><path fill="#ff082a" d="m0 4 12 8-12 8z"/><path fill="#facd62" d="M3.5 12.842 1.955 14l.57-1.903L1 10.91l1.897-.018L3.5 9l.603 1.892L6 10.91l-1.525 1.187.57 1.903z"/><rect width="23" height="17" x=".5" y="3.5" stroke="#100f0e" opacity=".1" rx="2"/></g></svg>
