<svg xmlns="http://www.w3.org/2000/svg" viewBox="0 0 24 24"><linearGradient id="a" x1="50%" x2="50%" y1="0%" y2="100%"><stop offset="0" stop-color="#fff"/><stop offset="1" stop-color="#f0f0f0"/></linearGradient><g fill="none" fill-rule="evenodd"><rect width="24" height="18" y="3" fill="#003495" rx="2"/><path fill="#d6682b" d="M24 4v4.533L1 21z"/><path fill="#fcfbfa" d="M24 12.727V8L1 21z"/><path fill="url(#a)" fill-rule="nonzero" d="M5.839 7.372 5.5 5l-.339 2.372-.911-1.037.468 1.383-1.383-.468 1.037.911L2 8.5l2.372.339-1.037.911 1.383-.468-.468 1.383.911-1.037L5.5 12l.339-2.372.911 1.037-.468-1.383 1.383.468-1.037-.911L9 8.5l-2.372-.339 1.037-.911-1.383.468.468-1.383z"/><rect width="23" height="17" x=".5" y="3.5" stroke="#100f0e" opacity=".1" rx="2"/></g></svg>
