<svg xmlns="http://www.w3.org/2000/svg" viewBox="0 0 24 24"><linearGradient id="a" x1="50%" x2="50%" y1="0%" y2="100%"><stop offset="0" stop-color="#fff"/><stop offset="1" stop-color="#f0f0f0"/></linearGradient><g fill="none" fill-rule="evenodd"><path d="M0 0h24v24H0z"/><rect width="24" height="18" y="3" fill="#467146" rx="2"/><g fill="url(#a)" fill-rule="nonzero" transform="translate(4 7)"><path d="M0 7.793h11.636V6.6c0-.337.28-.495.66-.338l.795.329v1.203h2.175c.405 0 .734.258.734.608v.596c0 .664-.644 1.203-1.453 1.203h-2.19c-.398 0-.72-.28-.72-.602v-.601h-9.45c-.405 0-.96-.188-1.241-.421zm0-4.79c0-.186.13-.44.3-.577l.232-.185c.167-.133.171-.345 0-.482l-.231-.185C.135 1.441 0 1.191 0 .997v-.66C0 .15.178 0 .42 0h.826c.232 0 .42.143.42.336v.66c0 .187.078.214.194.028L2.307.31c.106-.17.39-.31.606-.31h1.674C4.815 0 5 .155 5 .333c0 .184-.178.334-.42.334h-.826c-.232 0-.42.154-.42.333 0 .184.178.333.42.333h.825c.233 0 .421.144.421.327v2.013c0 .18-.178.327-.42.327h-.826c-.232 0-.42-.143-.42-.336v-.66c0-.187.193-.337.416-.337.23 0 .417-.155.417-.334 0-.184-.179-.333-.42-.333H2.92c-.233 0-.421.157-.421.33v1.34c0 .182-.193.33-.417.33-.23 0-.416-.143-.416-.336v-.66c0-.187-.194-.337-.417-.337-.23 0-.417.142-.417.336v.66C.833 3.85.64 4 .417 4 .187 4 0 3.857 0 3.664zm11 0c0-.186.13-.44.3-.577l.232-.185c.167-.133.171-.345 0-.482l-.231-.185C11.135 1.441 11 1.191 11 .997v-.66c0-.186.178-.337.42-.337h.826c.232 0 .42.143.42.336v.66c0 .187.078.214.194.028l.447-.715c.106-.17.39-.309.606-.309h1.674c.228 0 .413.155.413.333 0 .184-.178.334-.42.334h-.826c-.232 0-.42.154-.42.333 0 .184.178.333.42.333h.825c.233 0 .421.144.421.327v2.013c0 .18-.178.327-.42.327h-.826c-.232 0-.42-.143-.42-.336v-.66c0-.187.193-.337.416-.337.23 0 .417-.155.417-.334 0-.184-.179-.333-.42-.333h-.826c-.233 0-.421.157-.421.33v1.34c0 .182-.193.33-.417.33-.23 0-.416-.143-.416-.336v-.66c0-.187-.194-.337-.417-.337-.23 0-.417.142-.417.336v.66c0 .186-.193.337-.416.337-.23 0-.417-.143-.417-.336z"/><path d="M11 .997c0 .186-.13.44-.3.577l-.232.185c-.167.133-.171.345 0 .482l.231.185c.166.133.301.383.301.577v.66c0 .186-.178.337-.42.337h-.826c-.232 0-.42-.143-.42-.336v-.66c0-.187-.078-.214-.194-.028l-.447.715c-.106.17-.39.309-.606.309H6.413C6.185 4 6 3.845 6 3.667c0-.184.178-.334.42-.334h.826c.232 0 .42-.154.42-.333 0-.184-.178-.333-.42-.333h-.825C6.188 2.667 6 2.523 6 2.34V.327C6 .147 6.178 0 6.42 0h.826c.232 0 .42.143.42.336v.66c0 .187-.193.337-.416.337-.23 0-.417.155-.417.334 0 .184.179.333.42.333h.826c.233 0 .421-.157.421-.33V.33c0-.182.193-.33.417-.33.23 0 .416.143.416.336v.66c0 .187.194.337.417.337.23 0 .417-.142.417-.336v-.66c0-.186.193-.337.416-.337.23 0 .417.143.417.336z"/></g><rect width="23" height="17" x=".5" y="3.5" stroke="#100f0e" opacity=".1" rx="2"/></g></svg>
