<svg xmlns="http://www.w3.org/2000/svg" xmlns:xlink="http://www.w3.org/1999/xlink" viewBox="0 0 24 24"><defs><mask id="b" fill="#fff"><use xlink:href="#a" fill-rule="evenodd"/></mask><mask id="d" fill="#fff"><path fill-rule="evenodd" d="M0 4.083V.595A.59.59 0 0 1 .597 0h4.806C5.733 0 6 .264 6 .595v3.488C6 6.417 3 7 3 7s-3-.583-3-2.917"/></mask><mask id="e" fill="#fff"><path fill-rule="evenodd" d="M0 4.083V.595A.59.59 0 0 1 .597 0h4.806C5.733 0 6 .264 6 .595v3.488C6 6.417 3 7 3 7s-3-.583-3-2.917"/></mask><linearGradient id="c" x1="50%" x2="50%" y1="0%" y2="100%"><stop offset="0" stop-color="#ee7b2d"/><stop offset="1" stop-color="#cc621a"/></linearGradient><rect id="a" width="24" height="18" rx="2"/></defs><g fill="none" fill-rule="evenodd"><g transform="translate(0 3)"><use xlink:href="#a" fill="#fff"/><path fill="#001bb0" d="M0 0h24v18H0z" mask="url(#b)"/></g><path fill="#0a5da7" d="M0 5c0-1.105.902-2 2.009-2H12v10H0z"/><path fill="#ff082a" d="M7 3v4h5v2H7v4H5V9H0V7h5V3z"/><path fill="#fff" d="M1 5h1v1h1V5h1V3h1v4H0V6h1zm2-1v1H2V4zM1 4v1H0V4zm1-1v1H1V3z"/><path fill="#c74634" d="M3 5v1H2V5zM2 4v1H1V4z"/><path fill="#c74634" d="M0 3h1v1H0z" opacity=".5"/><path fill="#fff" d="M11 5h-1v1H9V5H8V3H7v4h5V6h-1zM9 4v1h1V4zm2 0v1h1V4zm-1-1v1h1V3z"/><path fill="#c74634" d="M9 5v1h1V5zm1-1v1h1V4zm1-1v1h1V3z"/><path fill="#fff" d="M1 11h1v-1h1v1h1v2h1V9H0v1h1zm2 1v-1H2v1zm-2 0v-1H0v1zm1 1v-1H1v1z"/><path fill="#c74634" d="M3 11v-1H2v1zm-1 1v-1H1v1zm-1 1v-1H0v1z"/><path fill="#fff" d="M11 11h-1v-1H9v1H8v2H7V9h5v1h-1zm-2 1v-1h1v1zm2 0v-1h1v1zm-1 1v-1h1v1z"/><path fill="#c74634" d="M9 11v-1h1v1zm1 1v-1h1v1zm1 1v-1h1v1z"/><g transform="translate(16 11)"><path fill="#84d6ff" d="M0 4.083V.595A.59.59 0 0 1 .597 0h4.806C5.733 0 6 .264 6 .595v3.488C6 6.417 3 7 3 7s-3-.583-3-2.917"/><path fill="url(#c)" fill-rule="nonzero" d="M.6 7.583c.994 0 1.2-1.628 1.2-2.916 0-1.289-.206-1.75-1.2-1.75s-1.8.461-1.8 1.75c0 1.288.806 2.916 1.8 2.916" mask="url(#d)"/><ellipse cx="3" cy="5.25" fill="#a75113" fill-rule="nonzero" mask="url(#d)" rx="1.8" ry="1.167"/><path fill="#facd62" d="M0 0h6v2.333H0z" mask="url(#e)"/></g><rect width="23" height="17" x=".5" y="3.5" stroke="#100f0e" opacity=".1" rx="2"/></g></svg>