<svg xmlns="http://www.w3.org/2000/svg" viewBox="0 0 24 24"><g fill="none" fill-rule="evenodd"><rect width="24" height="18" y="3" fill="#008b4b" rx="2"/><path fill="#fcfbfa" d="M9.724 13.902c.16.038.316.07.47.098H7.556c.131.356.309.691.525 1h7.838c.216-.309.394-.644.525-1H13.77c.158-.027.32-.059.485-.097-.504.015-1.326.097-2.255.097-.941 0-1.773-.084-2.276-.098m-.463-.125c-1.245-.379-2.099-.985-1.965-1.436.15-.503 1.473-.62 2.955-.263.077.018.154.038.23.059a3.916 3.916 0 0 1-.052-.637c0-1.38.703-2.5 1.571-2.5s1.57 1.12 1.57 2.5c0 .219-.017.431-.05.634.085-.024.172-.047.26-.068 1.482-.357 2.805-.24 2.954.264.136.454-.733 1.067-1.996 1.445C14.515 13.18 13.374 13 12 13c-1.376 0-2.518.18-2.739.777M14.962 16c-.81.625-1.84 1-2.962 1s-2.153-.375-2.962-1z"/><path fill="#facd62" d="M12 8c-.307 0-.556-.224-.556-.5s.25-.5.556-.5.556.224.556.5-.25.5-.556.5m-4.444 2.5C7.249 10.5 7 10.276 7 10s.249-.5.556-.5c.306 0 .555.224.555.5s-.249.5-.555.5m8.888 0c-.306 0-.555-.224-.555-.5s.249-.5.555-.5c.307 0 .556.224.556.5s-.249.5-.556.5M14.778 9c-.307 0-.556-.224-.556-.5s.249-.5.556-.5c.307 0 .555.224.555.5s-.248.5-.555.5M9.222 9c-.307 0-.555-.224-.555-.5s.248-.5.555-.5c.307 0 .556.224.556.5s-.249.5-.556.5"/><rect width="23" height="17" x=".5" y="3.5" stroke="#100f0e" opacity=".1" rx="2"/></g></svg>
