<svg xmlns="http://www.w3.org/2000/svg" xmlns:xlink="http://www.w3.org/1999/xlink" viewBox="0 0 24 24"><defs><mask id="b" fill="#fff"><use xlink:href="#a" fill-rule="evenodd"/></mask><mask id="d" fill="#fff"><path fill-rule="evenodd" d="M0 4V.582C0 .261.258 0 .597 0h4.806C5.733 0 6 .259 6 .582V4c0 2.857-3 4-3 4S0 6.857 0 4"/></mask><linearGradient id="c" x1="50%" x2="50%" y1="0%" y2="100%"><stop offset="0" stop-color="#fff"/><stop offset="1" stop-color="#f0f0f0"/></linearGradient><rect id="a" width="24" height="18" rx="2"/></defs><g fill="none" fill-rule="evenodd"><g transform="translate(0 3)"><use xlink:href="#a" fill="#fff"/><path fill="#0021ab" d="M0 0h24v18H0z" mask="url(#b)"/><path d="M0-3h24v24H0z" mask="url(#b)"/><path fill="#c74634" d="M7 0v4h5v2H7v4H5V6H0V4h5V0z" mask="url(#b)"/><g mask="url(#b)"><path fill="#fff" d="M1 2h1v1h1V2h1V0h1v4H0V3h1zm2-1v1H2V1zM1 1v1H0V1zm1-1v1H1V0z"/><path fill="#c74634" d="M3 2v1H2V2zM2 1v1H1V1zM1 0v1H0V0z"/></g><g mask="url(#b)"><path fill="#fff" d="M11 2h-1v1H9V2H8V0H7v4h5V3h-1zM9 1v1h1V1zm2 0v1h1V1zm-1-1v1h1V0z"/><path fill="#c74634" d="M9 2v1h1V2zm1-1v1h1V1zm1-1v1h1V0z"/></g><g mask="url(#b)"><path fill="#fff" d="M1 8h1V7h1v1h1v2h1V6H0v1h1zm2 1V8H2v1zM1 9V8H0v1zm1 1V9H1v1z"/><path fill="#c74634" d="M3 8V7H2v1zM2 9V8H1v1zm-1 1V9H0v1z"/><path fill="#fff" d="M11 8h-1V7H9v1H8v2H7V6h5v1h-1zM9 9V8h1v1zm2 0V8h1v1zm-1 1V9h1v1z"/><path fill="#c74634" d="M9 8V7h1v1zm1 1V8h1v1zm1 1V9h1v1z"/></g></g><path fill="#467146" d="M15 14v-3.418c0-.321.258-.582.597-.582h4.806c.33 0 .597.259.597.582V14c0 2.857-3 4-3 4s-3-1.143-3-4"/><path fill="url(#c)" fill-rule="nonzero" d="M0 4V.582C0 .261.258 0 .597 0h4.806C5.733 0 6 .259 6 .582V4c0 2.857-3 4-3 4S0 6.857 0 4m3.173 3.28c.316-.17.632-.382.926-.633C4.919 5.944 5.4 5.073 5.4 4V.582C5.4.572.598.572.598.572L.6 4c0 1.073.482 1.944 1.301 2.647A5.281 5.281 0 0 0 3 7.369c.052-.025.11-.055.173-.09z" mask="url(#d)" transform="translate(15 10)"/><path fill="url(#c)" fill-rule="nonzero" d="m-.388 8.773.42-.4.36-.343c.115-.109.3-.11.416 0l.36.344a.925.925 0 0 0 1.264 0l.36-.344c.115-.109.3-.11.416 0l.36.344a.925.925 0 0 0 1.264 0l.36-.344c.115-.109.3-.11.416 0l.36.344.212.202.425-.404-.213-.202-.36-.344a.925.925 0 0 0-1.264 0l-.36.344a.304.304 0 0 1-.416 0l-.36-.344a.925.925 0 0 0-1.264 0l-.36.344a.304.304 0 0 1-.416 0l-.36-.344a.925.925 0 0 0-1.264 0l-.36.344-.42.4-.212.201.424.404z" mask="url(#d)" transform="translate(15 10)"/><g transform="translate(14 11)"><path fill="#facd62" d="M2.5 1a.5.5 0 1 1 0-1 .5.5 0 0 1 0 1m0 1a.5.5 0 1 1 0-1 .5.5 0 0 1 0 1m0 1a.5.5 0 1 1 0-1 .5.5 0 0 1 0 1m0 1a.5.5 0 1 1 0-1 .5.5 0 0 1 0 1m3 0a.5.5 0 1 1 0-1 .5.5 0 0 1 0 1m0-1a.5.5 0 1 1 0-1 .5.5 0 0 1 0 1m0-1a.5.5 0 1 1 0-1 .5.5 0 0 1 0 1m0-1a.5.5 0 1 1 0-1 .5.5 0 0 1 0 1"/><ellipse cx="4" cy="2.5" fill="url(#c)" fill-rule="nonzero" rx="1" ry="1.5"/><path fill="#facd62" d="M0 6.5C0 7.454 1.821 8 4 8s4-.546 4-1.5c0-.276-.298-.5-.667-.5-.368 0-.666.224-.666.5 0 .01-.162.124-.558.243C5.572 6.904 4.816 7 4 7s-1.572-.096-2.11-.257c-.395-.119-.557-.233-.557-.243 0-.276-.298-.5-.666-.5C.298 6 0 6.224 0 6.5"/></g><rect width="23" height="17" x=".5" y="3.5" stroke="#100f0e" opacity=".1" rx="2"/></g></svg>