<svg xmlns="http://www.w3.org/2000/svg" viewBox="0 0 24 24"><g fill="none" fill-rule="evenodd"><path fill="#027e44" d="M0 19.005C0 20.107.887 21 1.998 21H8V3H1.998A1.996 1.996 0 0 0 0 4.995zm24 0A1.992 1.992 0 0 1 22.002 21H16V3h6.002C23.105 3 24 3.893 24 4.995z"/><path fill="#fcfbfa" d="M8 3h8v18H8z"/><path fill="#008b4b" d="m10.944 9.003.422-1.52A.705.705 0 0 1 12 7a.7.7 0 0 1 .634.484l.422 1.52a.5.5 0 1 0 .248.893l.31 1.116A.501.501 0 0 0 13 11.5a.5.5 0 0 0 .85.358l.325 1.174a.499.499 0 1 0 .217.779L15 16h-2.5v2h-1v-2H9l.608-2.19a.5.5 0 1 0 .217-.778l.326-1.174A.498.498 0 0 0 11 11.5a.5.5 0 0 0-.615-.487l.31-1.116a.5.5 0 1 0 .248-.893z"/><rect width="23" height="17" x=".5" y="3.5" stroke="#100f0e" opacity=".1" rx="2"/></g></svg>
