<svg xmlns="http://www.w3.org/2000/svg" viewBox="0 0 24 24"><g fill="none" fill-rule="evenodd"><path fill="#00109c" d="M0 19.005C0 20.107.887 21 1.998 21H8V3H1.998A1.996 1.996 0 0 0 0 4.995z"/><path fill="#00149e" d="M24 19.005A1.992 1.992 0 0 1 22.002 21H16V3h6.002C23.105 3 24 3.893 24 4.995z"/><path fill="#facd62" d="M8 3h8v18H8z"/><path fill="#000" fill-rule="nonzero" d="M11.85 9.086a.21.21 0 0 1 .339 0l.864 1.106c.091.118.023.213-.144.213h-.296c-.17 0-.297.11-.28.254l.245 2.045c.017.14.172.254.336.254.168 0 .4-.08.525-.183l.17-.14c.122-.1.22-.292.22-.441v-.509a.657.657 0 0 0-.22-.443l-.17-.142c-.121-.102-.1-.218.066-.264l1.259-.351c.158-.044.262.03.23.174l-.45 2.045a.902.902 0 0 1-.276.432l-.828.665a.988.988 0 0 1-.526.178c-.169 0-.305.11-.305.258v.505c0 .143-.131.258-.309.258h-.604c-.17 0-.308-.11-.308-.258v-.505c0-.143-.142-.258-.306-.258a.935.935 0 0 1-.517-.178l-.796-.665a.937.937 0 0 1-.273-.432l-.49-2.045c-.033-.14.06-.22.226-.174l1.26.35c.157.045.19.16.065.265l-.17.142a.652.652 0 0 0-.22.443v.509a.65.65 0 0 0 .22.441l.17.14a.967.967 0 0 0 .525.183c.169 0 .319-.11.336-.254l.245-2.045c.016-.14-.113-.254-.28-.254h-.296c-.17 0-.228-.1-.137-.213z"/><rect width="23" height="17" x=".5" y="3.5" stroke="#100f0e" opacity=".1" rx="2"/></g></svg>
