<svg xmlns="http://www.w3.org/2000/svg" viewBox="0 0 24 24"><linearGradient id="a" x1="50%" x2="50%" y1="0%" y2="100%"><stop offset="0" stop-color="#fff"/><stop offset="1" stop-color="#f0f0f0"/></linearGradient><g fill="none" fill-rule="evenodd"><path fill="#00b627" d="M0 19.002A2 2 0 0 0 2.005 21h19.99A2.004 2.004 0 0 0 24 19.002V15H0z"/><path fill="#fcfbfa" d="M0 9h24v6H0z"/><path fill="#009ab8" d="M0 9h24V4.998A2.001 2.001 0 0 0 21.995 3H2.005A2.004 2.004 0 0 0 0 4.998z"/><path fill="url(#a)" fill-rule="nonzero" d="M5 4.337A1.871 1.871 0 0 0 3.928 4C2.863 4 2 4.895 2 6s.863 2 1.928 2c.397 0 .766-.124 1.072-.337a1.573 1.573 0 0 1-.107.004c-.888 0-1.607-.747-1.607-1.667s.72-1.667 1.607-1.667c.036 0 .071.002.107.004M6.5 8a.5.5 0 1 1 0-1 .5.5 0 0 1 0 1m3-3a.5.5 0 1 1 0-1 .5.5 0 0 1 0 1m3 0a.5.5 0 1 1 0-1 .5.5 0 0 1 0 1m0 3a.5.5 0 1 1 0-1 .5.5 0 0 1 0 1m-3 0a.5.5 0 1 1 0-1 .5.5 0 0 1 0 1"/><rect width="23" height="17" x=".5" y="3.5" stroke="#100f0e" opacity=".1" rx="2"/><path stroke="#ee0719" stroke-linecap="square" d="M.5 9.5h23m-23 6h23"/></g></svg>
