<svg xmlns="http://www.w3.org/2000/svg" xmlns:xlink="http://www.w3.org/1999/xlink" viewBox="0 0 24 24"><defs><rect id="a" width="24" height="18" rx="2"/><mask id="b" fill="#fff"><use xlink:href="#a" fill-rule="evenodd"/></mask></defs><g fill="none" fill-rule="evenodd"><g transform="translate(0 3)"><use xlink:href="#a" fill="#fff"/><path fill="#003d8a" d="M0 0h24v18H0z" mask="url(#b)"/></g><path fill="#003d8a" d="M0 10.003C0 11.106.888 12 2 12h2V3H2a2 2 0 0 0-2 1.997z"/><path fill="#e93425" d="M12 12H8V3h4z"/><path fill="#fcfbfa" d="M4 3h4v9H4z"/><path stroke="#fff" stroke-linecap="square" d="M.5 12.5h11m-4 0h5m0 0v-9"/><path fill="#fff" fill-rule="nonzero" d="M16 12h5l-.5 1H19v.5h1l-.5 1H19V16h-1v-3h-1.5zm4 2.5 1 1.5h-2zm-3 0 1 1.5h-2zm1.5 3-1-1.5h2zm3-3.5a.5.5 0 1 1 0-1 .5.5 0 0 1 0 1m-6 0a.5.5 0 1 1 0-1 .5.5 0 0 1 0 1m1 4a.5.5 0 1 1 0-1 .5.5 0 0 1 0 1m4 0a.5.5 0 1 1 0-1 .5.5 0 0 1 0 1m-2 1a.5.5 0 1 1 0-1 .5.5 0 0 1 0 1"/><rect width="23" height="17" x=".5" y="3.5" stroke="#100f0e" opacity=".1" rx="2"/></g></svg>