<svg xmlns="http://www.w3.org/2000/svg" viewBox="0 0 24 24"><mask id="a" fill="#fff"><path fill-rule="evenodd" d="M0 .032h9.561v11.73H0z"/></mask><g fill="none" fill-rule="evenodd"><rect width="24" height="18" y="3" fill="#e1af2a" rx="2"/><path fill="#e50207" d="M1 4h22v16H1z"/><path fill="#e2b028" d="M.485 6.161a.63.63 0 0 0 .04.095l-.003.002-.09.054-.045-.1c-.01-.024-.004-.034.008-.034s.05-.011.079-.015a.095.095 0 0 0 .011-.002M4.1 2.666a.28.28 0 0 0 .027-.136l.005.002c.214.074.465.104.689.104.223 0 .474-.03.688-.104l.005-.002a.278.278 0 0 0 .026.136c.066.143.2.19.2.19s-.037.087-.152.155c-.116.067-.182.052-.177.102.005.05.108.088.108.088s-.106.12-.188.176c-.083.055-.18.09-.18.09s-.032.006-.013.061a.204.204 0 0 0 .077.108c.026.015.04.02.04.02s-.143.163-.207.216a.536.536 0 0 1-.15.093c-.052.023-.026.113-.015.154.012.04.057.095.083.103.026.007.035.027.002.083-.025.04-.107.15-.146.211l-.002.001c-.04-.06-.123-.17-.148-.212-.032-.056-.023-.076.003-.083s.07-.063.082-.103c.012-.04.038-.131-.014-.154a.535.535 0 0 1-.15-.093c-.064-.053-.208-.216-.208-.216s.014-.005.04-.02a.203.203 0 0 0 .078-.108c.019-.055-.014-.06-.014-.06s-.097-.036-.18-.09C4.227 3.321 4.12 3.2 4.12 3.2s.104-.038.109-.088c.004-.05-.062-.035-.177-.103a.38.38 0 0 1-.153-.153s.134-.048.2-.191zm1.218-.972s-.043.02-.081.048c-.039.028-.066.046-.125.042-.06-.003-.095-.031-.13-.05-.033-.02-.056-.022-.056-.022s.068-.041.093-.11a.501.501 0 0 0 .017-.272c-.016-.117-.037-.217-.043-.343 0 0 .082.019.199.133a.427.427 0 0 1 .144.288c0 .057-.028.126-.033.182-.004.055.015.104.015.104m.507.042c.013.024.024.036.024.036s-.049.014-.095.033c-.046.02-.106.037-.14.008-.033-.03-.042-.051-.02-.07.02-.02.098-.044.108-.187a.734.734 0 0 0-.08-.343l-.04-.08s.11.056.176.135c.066.08.064.12.074.16a.58.58 0 0 1-.01.177c-.01.067-.01.108.003.131M4.447 1.12c.118-.114.2-.133.2-.133-.006.126-.028.226-.044.343a.502.502 0 0 0 .016.272c.026.069.094.11.094.11s-.022.003-.057.022c-.034.019-.07.047-.129.05-.059.004-.086-.014-.124-.042a.488.488 0 0 0-.082-.048s.02-.049.015-.104c-.005-.056-.033-.125-.033-.182a.43.43 0 0 1 .145-.288zm-.63.485a.58.58 0 0 1-.01-.177c.01-.04.008-.08.074-.16a.6.6 0 0 1 .176-.134l-.04.079a.733.733 0 0 0-.08.343c.01.143.088.167.109.187.02.019.012.04-.022.07-.033.03-.093.012-.14-.008-.045-.02-.094-.033-.094-.033s.01-.012.024-.036c.012-.023.012-.064.002-.13zm-.56 6.355c-.055.109-.203.222-.312.272-.109.05-.227.066-.276.073-.05.008-.008.072-.008.072l.052.079s-.007.023-.086.047c-.08.024-.176.042-.257.066-.082.024.022.095.069.121.047.026.035.055.01.082a.587.587 0 0 1-.163.097c-.047.016-.04.042.007.063.047.021.176.048.176.048s-.003.005-.082.068a.62.62 0 0 1-.308.11 3.854 3.854 0 0 1-.42.003c-.182-.008-.203-.013-.203-.013s-.007-.065-.02-.161a.847.847 0 0 0-.109-.296l-.13-.188s.002-.027.008-.058.002-.065-.019-.124c-.021-.06-.128-.146-.128-.146s-.005-.063-.005-.122c0-.06-.038-.292-.072-.4-.035-.11-.201-.397-.279-.533a1.564 1.564 0 0 1-.146-.496.655.655 0 0 1-.006-.25.209.209 0 0 1 .018-.05.47.47 0 0 0 .124.119c.224.146.67.16.67.16s-.05.014-.21.016C.993 6.62.78 6.565.78 6.565s-.005.012-.005.052c0 .04.01.213.244.34.234.126.491.039.491.039s-.02.019-.087.045-.247.066-.247.066c0 .153.126.236.223.271.166.06.355.018.453-.003.097-.02.042.014-.05.056-.091.042-.222.05-.222.05.02.111.226.207.304.225a.717.717 0 0 0 .402-.008c.059-.024.048.005.03.024-.036.038-.096.047-.096.107 0 .017-.001.078.292.099.293.02.39-.153.442-.204.05-.051.047-.024.035-.004-.013.02-.064.082-.109.15-.044.068-.022.132.172.125.144-.005.238-.166.278-.251l.003.004a.709.709 0 0 0 .008.011c-.018.05-.05.132-.084.201m5.276-2.25.007.003c.1-.03.448-.138.694-.35.245-.211.293-.38.313-.472.02-.092.028-.164-.036-.112a3.583 3.583 0 0 1-.383.289c-.13.076-.25.112-.32.133-.07.021-.127.035-.06.006.068-.028.29-.11.46-.292.17-.182.306-.454.308-.621.003-.168-.008-.156-.058-.114-.051.042-.23.278-.332.367-.1.09-.263.21-.345.26-.081.05-.196.107-.036-.009.16-.116.463-.39.586-.746.124-.355.101-.564.099-.6-.003-.036-.031-.107-.06-.042-.027.066-.23.496-.392.68-.163.186-.124.15-.16.18-.037.03-.098.083-.02-.021a2.44 2.44 0 0 0 .326-.585 2.06 2.06 0 0 0 .11-.615 1.162 1.162 0 0 0-.08-.385c-.025-.057-.05-.098-.058-.033a9.35 9.35 0 0 1-.208.696c-.07.206-.21.438-.239.483-.028.045-.1.137-.022-.018a3.08 3.08 0 0 0 .25-1.044c.02-.433-.037-.672-.093-.791-.056-.12-.105-.162-.105-.162s.01.295-.073.72c-.083.424-.204.648-.204.648s-.05.062-.016-.04a1.93 1.93 0 0 0 .095-.475c.023-.268.026-.573-.048-.833a1.072 1.072 0 0 0-.219-.427c-.039.405-.031.928-.17 1.352-.027-.025-.062-.071-.075.023-.026.139-.077.4-.249.733-.172.333-.242.377-.242.377s-.032-.081-.055-.125c-.022-.045-.035-.068-.063-.007-.029.06-.125.295-.335.553-.21.258-.328.384-.322.577.006.194.102.293.23.38.127.09.15.137.13.242-.019.105-.134.143-.232.146-.1.003-.224-.007-.268.02-.045.027-.048.095-.093.143-.044.047-.063.074-.105.081a.758.758 0 0 1-.035.005c-.01-.51.176-.738.176-.738l-.52-.65a1.788 1.788 0 0 1-.08.04.156.156 0 0 0-.015-.024.442.442 0 0 1-.092-.295c.026.003.078.023.125.013s.011-.06-.003-.108a1.047 1.047 0 0 1-.019-.276l.015-.088s.075.088.122.088.042-.05.05-.106a.44.44 0 0 1 .108-.246s.082.06.177.06a.449.449 0 0 0 .322-.13c.102-.104.1-.129.1-.129s.188.07.331.078c.144.008.297-.017.37-.178.073-.161-.02-.31-.037-.335-.017-.025-.064-.045-.064 0s.002.166-.085.227c-.087.06-.155.057-.238.03a.69.69 0 0 0-.466-.013.638.638 0 0 1 .219-.158c.108-.035.172.012.207.058.036.045.066.118.095.012a.414.414 0 0 0-.036-.304.263.263 0 0 0-.254-.115.52.52 0 0 0-.144.03s-.054-.164-.19-.194c-.167-.037-.351.03-.495.116 0 0-.114.027-.229-.008a.73.73 0 0 1-.194-.103l.039-.133s.033-.011.067-.025c.035-.014.028-.026.032-.056.004-.031-.065-.084-.065-.084s-.01-.092.104-.155c.113-.063.1-.053.1-.053s.068.013.095-.008c.027-.02.027-.034.027-.034s.05-.017.069-.05a.147.147 0 0 0 .008-.116c-.013-.038-.03-.045-.012-.063a.163.163 0 0 0 .037-.091l.002-.038s.039-.014.037-.077c-.002-.063-.034-.088-.052-.093-.019-.005-.03-.005-.03-.005s-.004-.038-.034-.088c-.03-.05-.05-.072-.05-.072s.021-.018.01-.059-.04-.066-.066-.075c-.027-.01-.055 0-.055 0s-.09-.058-.131-.081L5.665.957s-.001-.04-.016-.06c-.015-.022-.05-.031-.07-.031-.018 0-.038.01-.038.01S5.39.837 5.328.826C5.266.814 5.262.808 5.262.808S5.128.74 5.076.73C5.024.719 5.009.714 5.009.714s.054-.07.057-.151a.228.228 0 0 0-.1-.19c-.03-.02-.047-.023-.057-.03L4.908.288l.1.01.01-.172-.1.013.016-.104-.206-.003.015.104-.1-.007.01.17.104-.014-.01.065s-.039.006-.071.032c-.054.034-.1.1-.096.18.003.082.049.153.049.153L4.563.73c-.052.01-.186.078-.186.078s-.004.006-.066.017c-.062.01-.213.052-.213.052s-.02-.011-.039-.011c-.018 0-.054.009-.069.03a.14.14 0 0 0-.016.061L3.92.986c-.042.023-.13.08-.13.08s-.03-.008-.056 0a.107.107 0 0 0-.066.076c-.011.041.01.059.01.059s-.02.021-.05.072c-.03.05-.034.087-.034.087s-.011 0-.03.006c-.018.005-.05.03-.052.093-.002.063.037.077.037.077l.002.038c.001.03.018.073.037.091.018.018.001.025-.012.063a.147.147 0 0 0 .008.116c.019.033.07.05.07.05s0 .013.026.034c.027.021.094.008.094.008s-.012-.01.101.053c.114.063.104.155.104.155s-.07.053-.065.083c.004.031-.003.043.032.057.034.014.067.025.067.025l.04.133a.73.73 0 0 1-.195.103c-.115.035-.229.008-.229.008-.144-.086-.328-.153-.494-.116-.137.03-.191.194-.191.194s-.038-.018-.144-.03a.264.264 0 0 0-.254.115.414.414 0 0 0-.036.304c.029.106.06.033.095-.012.035-.046.099-.093.207-.058a.638.638 0 0 1 .219.158.69.69 0 0 0-.466.013c-.083.027-.151.03-.238-.03s-.085-.181-.085-.227c0-.045-.047-.025-.064 0-.016.026-.11.174-.037.335.073.16.226.186.37.178.143-.007.332-.078.332-.078s-.003.025.099.128c.1.103.228.131.322.131.095 0 .177-.06.177-.06a.44.44 0 0 1 .108.246c.007.055.003.106.05.106s.122-.089.122-.089l.015.089a.985.985 0 0 1-.02.276c-.013.048-.049.098-.002.108.047.01.1-.01.125-.013 0 .12-.023.2-.092.295a.168.168 0 0 0-.014.023 1.867 1.867 0 0 1-.077-.038l-.52.65s.186.227.176.738a.653.653 0 0 1-.037-.006c-.042-.006-.06-.034-.106-.081-.044-.048-.047-.116-.092-.143s-.169-.017-.268-.02c-.099-.004-.213-.04-.233-.146-.019-.105.004-.153.131-.241.128-.088.223-.187.23-.38.006-.194-.112-.32-.322-.578-.21-.258-.306-.492-.335-.553s-.041-.038-.064.007c-.022.044-.054.125-.054.125s-.07-.044-.242-.377a2.49 2.49 0 0 1-.249-.733c-.014-.094-.048-.048-.074-.023-.14-.424-.133-.947-.171-1.352 0 0-.14.144-.22.427-.073.26-.07.565-.047.833.022.255.071.406.095.475.035.102-.016.04-.016.04s-.121-.224-.204-.648C.952 2.09.96 1.795.96 1.795s-.048.042-.104.162c-.056.12-.113.358-.093.79.02.433.171.89.25 1.045.078.155.005.063-.023.018a2.748 2.748 0 0 1-.238-.483c-.07-.206-.2-.63-.208-.696-.008-.065-.033-.024-.059.033a1.166 1.166 0 0 0-.078.385c.002.137.025.376.11.615.083.239.246.48.325.585.078.104.016.05-.02.02-.037-.029.003.007-.16-.178S.298 3.476.27 3.41c-.028-.066-.056.005-.059.041-.003.036-.025.245.098.6.124.355.427.63.587.746.16.116.045.06-.037.009a3.213 3.213 0 0 1-.345-.26c-.1-.09-.28-.325-.33-.367-.051-.042-.063-.054-.06.114.003.167.138.439.308.62.17.182.392.265.46.293.068.029.011.015-.06-.006a1.38 1.38 0 0 1-.32-.133 3.783 3.783 0 0 1-.382-.288c-.063-.052-.055.02-.035.112.02.091.068.26.313.472.245.212.593.32.693.35.1.03.03.03.03.03s-.04-.006-.242-.054c-.203-.048-.51-.219-.594-.274-.083-.056-.096-.077-.084.04a.773.773 0 0 0 .315.485c.188.117.526.177.613.182.088.004.065.018.026.02a1.52 1.52 0 0 1-.296-.016 2.184 2.184 0 0 1-.39-.107 1.33 1.33 0 0 1-.018-.077c-.007-.044-.029-.038-.043-.028-.014.01-.022.018-.068.043-.047.025-.048-.005-.05-.02-.001-.015-.01-.08-.012-.112C.285 5.792.268 5.79.247 5.8l-.165.074c-.039.019-.003.052.017.091l.051.098-.128.036c-.031.009-.022.032-.014.055.007.023.055.139.068.172s.04.013.04.013l.098-.06.034.138c-.002.002-.045.011-.095.048-.049.037-.037.084.023.103.059.018.128.05.204.197.077.148.097.414.144.832a.99.99 0 0 0 .333.659c.034.026.015.047.015.047s-.035.053-.02.134a.198.198 0 0 0 .116.143c.034.013.025.05.025.05s-.018.089 0 .252a.799.799 0 0 0 .177.38c.035.031.037.047.032.06-.005.013-.027.003-.069.037a.456.456 0 0 0-.118.14c-.03.058-.02.092-.01.17.01.08.118.15.118.15s-.02.006-.024.064c-.005.058.034.124.084.166a.402.402 0 0 0 .143.063l.012.084c.005.035.067.069.106.093.04.023.116.01.148-.006.032-.015.055.003.074.037.02.034.013.166.013.219 0 .052-.03.108-.013.134.018.026.065.008.111-.021.047-.03.06-.008.102.021a.309.309 0 0 0 .126.053c.017-.003.01-.05.01-.09 0-.04.006-.129.023-.142.009-.006.081-.012.137-.037.026-.012.06-.024.062-.05.002-.026-.035-.026-.116-.071-.082-.045-.097-.071-.148-.108-.052-.037-.028-.05-.028-.066s.025-.034.035-.055c.01-.021.005-.069.005-.069s.042-.044.062-.068c.02-.024.044-.06.071-.084.027-.024.07-.137.096-.174.028-.037.09-.076.126-.127a1.03 1.03 0 0 1 .193-.17c.057-.04.21-.117.21-.117s-.003.098.037.145c.04.048.09-.037.266-.168.175-.132.309-.18.309-.18s.037.061.084.124c.046.064.088-.002.303-.318.17-.25.393-.477.48-.563l.047.023a1.347 1.347 0 0 0-.013.041c-.02.066-.052.108-.094.199-.041.092-.105.113-.18.236a.623.623 0 0 0-.09.332c-.008.125.059.152.059.152s-.108.112-.14.196c-.032.083-.05.254-.05.254s-.017.007-.056.094c-.04.086-.11.1-.214.209-.103.11-.219.157-.273.19-.054.035-.04.069-.025.113.015.045.089.09.175.123.086.034.116.021.175.019.059-.003.012.047-.013.073-.024.026-.056.118-.051.22.005.102.076.078.165.062a.931.931 0 0 0 .191-.062l-.01.029a.341.341 0 0 0-.014.13c0 .081.012.12.034.142.022.02.067-.024.099-.034.032-.011.086-.045.164-.063.08-.019.109-.055.109-.055s-.02.026-.025.083a.712.712 0 0 0 .01.194.36.36 0 0 0 .1.162c.055.053.067.03.106-.036.04-.066.12-.15.12-.15l.06.207c.054.186.231.34.231.34s.177-.154.231-.34l.06-.206s.08.083.12.149c.04.065.052.089.106.036a.36.36 0 0 0 .1-.162.72.72 0 0 0 .01-.194c-.005-.057-.024-.083-.024-.083s.03.036.108.055c.079.018.133.052.165.063.032.01.076.054.098.034.022-.021.035-.06.035-.142a.341.341 0 0 0-.015-.13l-.01-.03s.103.048.192.063c.088.016.16.04.165-.062.005-.102-.027-.194-.052-.22-.025-.026-.071-.076-.012-.073.059.002.088.015.174-.019s.16-.078.175-.123c.015-.044.03-.078-.025-.112-.054-.034-.17-.081-.273-.191-.103-.11-.174-.123-.214-.21-.039-.086-.056-.093-.056-.093s-.017-.17-.05-.254a.797.797 0 0 0-.14-.196s.067-.027.06-.152a.622.622 0 0 0-.091-.332c-.074-.123-.138-.144-.18-.236-.042-.091-.074-.133-.094-.199a1.298 1.298 0 0 0-.012-.04l.063-.029c.086.084.31.313.48.563.215.316.257.382.304.319.047-.063.084-.124.084-.124s.133.047.309.18c.175.13.227.215.266.168.02-.025.026-.067.028-.098a3.592 3.592 0 0 1 .42.158c.151.068.167.103.288.205.121.101.293.091.456.039.163-.053.596-.205.77-.285.174-.08.298-.15.317-.188a.62.62 0 0 0 .038-.177c0-.037-.038-.092-.051-.102-.013-.01-.007-.039-.004-.062a.206.206 0 0 0-.034-.125c-.028-.031-.024-.043-.02-.133.007-.19-.12-.43-.302-.507 0 0-.005-.022-.02-.035a.198.198 0 0 0-.038-.025s.003-.11.002-.133c-.001-.023.009-.02.021-.014.012.006.032.032.061.04.03.008.048-.014.054-.05.006-.034.03-.105.041-.14.011-.035-.002-.04-.016-.044-.013-.004-.057-.01-.078-.015-.02-.005-.02-.006-.016-.018a.504.504 0 0 1 .04-.074c.026-.045.002-.046-.024-.055a1.998 1.998 0 0 0-.173-.052c-.032-.005-.04.023-.04.038l.003.1c.001.024-.02.017-.032.01a.445.445 0 0 1-.062-.043c-.022-.018-.038 0-.046.025a3.867 3.867 0 0 0-.044.165c-.009.03-.006.056.006.06.012.006.07 0 .104 0 .034 0 .014.022.014.022l-.049.088c-.012.025-.033.029-.06.029h-.076s-.188.007-.326.116a.571.571 0 0 0-.198.253c-.021.053-.046.041-.068.06-.02.019-.08.087-.08.128 0 .042.013.064-.047.106-.06.041-.11.222-.028.316.081.094.113.188.138.234.025.045 0 .064-.021.064-.022 0-.066-.039-.103-.068-.037-.03-.224-.185-.305-.249-.08-.064-.02-.056-.02-.056s.02.002.066-.02c.047-.02.055-.047.008-.062a.587.587 0 0 1-.163-.098c-.025-.026-.037-.055.01-.081.047-.027.15-.098.069-.122-.082-.023-.178-.042-.257-.065-.079-.024-.086-.048-.086-.048l.052-.079s.042-.063-.008-.071c-.05-.008-.168-.024-.276-.074a.698.698 0 0 1-.403-.476l.003-.005c.04.085.135.245.277.25.195.006.217-.058.172-.126-.044-.068-.095-.13-.108-.15-.013-.02-.016-.047.035.004.051.05.148.224.442.204.293-.02.291-.082.291-.099 0-.06-.06-.07-.095-.107-.018-.02-.03-.048.03-.024s.204.053.402.008c.078-.018.284-.114.304-.225 0 0-.131-.008-.223-.05-.091-.042-.146-.077-.049-.056.097.021.286.063.453.003.097-.035.222-.118.222-.271 0 0-.18-.04-.246-.066a.304.304 0 0 1-.088-.045s.258.087.492-.04c.234-.126.244-.298.244-.339 0-.04-.006-.052-.006-.052s-.212.055-.372.054c-.159-.002-.208-.017-.208-.017s.445-.013.67-.159c.223-.146.236-.432.236-.432s-.254.096-.413.115c-.16.02-.257.02-.296.017-.04-.003-.062-.017.025-.021.088-.005.426-.065.614-.182a.773.773 0 0 0 .315-.485c.012-.117-.001-.096-.084-.04-.084.055-.39.226-.594.274-.203.048-.242.054-.242.054s-.078-.004.022-.033" mask="url(#a)" transform="translate(7 6.024)"/><path fill="#1d5e91" d="M13.108 12.003a1.293 1.293 0 0 1 .112-.718l-.35-.415c-.297.162-.657.12-1.05-.025-.392.145-.752.187-1.048.025l-.35.415s.168.32.112.718c-.057.398-.143.848-.126 1.112a.835.835 0 0 0 .005.055h.32s.018-.023.054-.039c.035-.016.045-.027.045-.027s.007-.068.046-.083c.039-.014.056-.014.071-.014.015 0 .027-.004.046-.024.018-.02.069-.068.091-.137.022-.068.036-.096.036-.14 0-.046.015-.118.015-.118s-.009-.022-.04-.009c-.033.013-.038-.022-.041-.056a.293.293 0 0 1 .016-.137l.026-.043-.014-.054s-.203.043-.238-.125c-.036-.168-.042-.249-.047-.267-.006-.018-.01-.027-.038-.025-.027.002-.084-.018-.125-.105-.04-.086-.044-.123-.032-.157.012-.034.034-.021.04-.01.007.01.062.093.083.07.022-.024.01-.024-.02-.089s-.02-.086-.017-.119c.004-.032-.01-.076-.01-.094 0-.018.019-.032.037-.023a.136.136 0 0 1 .044.034c.009.011.012.027.03.016.016-.01.006-.07.006-.09 0-.02.022-.034.049-.018.027.016.04.047.04.069 0 .021.002.041.012.041s.022-.032.024-.054c.002-.022.013-.054.032-.027a.15.15 0 0 1 .019.108c-.007.042.007.02-.007.092-.013.073-.02.105-.019.16a.382.382 0 0 0 .03.15c.025.067.045.145.092.147l.061.002s.052-.109.093-.134c.04-.025.098-.029.139-.034.04-.006.057-.018.057-.03s-.013-.014-.062-.02c-.05-.008-.09-.02-.092-.06-.001-.04.009-.074-.023-.076-.032-.002-.112-.03-.14-.085-.03-.056-.023-.069-.02-.1.004-.03.041-.091.065-.033.024.057.039.064.06.077.02.013.047.016.033-.023a.21.21 0 0 1-.019-.094c.004-.03.022-.042.045-.047.021-.005.087-.027.121-.034.034-.007.036-.011.036-.011s.003-.025.047-.04a.3.3 0 0 1 .105-.016c.032 0 .056.005.098-.016a.192.192 0 0 1 .103-.024.128.128 0 0 1 .068.027c.02.015.013.035.013.054 0 .02.004.031.032.031.03 0 .055 0 .082.011.027.01.064.027.04.058-.023.03-.025.065-.04.063-.015-.002-.014.016-.02.027-.007.01-.012.02.005.03.016.011.018.022.042.046.024.023.059.048.024.086-.036.038-.099.069-.099.069s-.035.018.006.043c.04.025.059.078.074.087.015.009.03.023.04.029.01.005.009.041.009.041s-.022.016-.052.03c-.03.012-.063.026-.092.026-.028 0-.044 0-.032.029.012.029.032.06.037.076l.012.045s.047.01.09.01c.042 0 .06.003.154-.008.093-.011.12-.015.21-.004.09.01.103.007.126.016l.048.022s.126-.002.196-.018.086-.063.076-.088c-.01-.026-.008-.063-.13-.082-.122-.018-.171-.01-.267-.03-.097-.02-.247-.073-.274-.2-.028-.129.07-.183.12-.208.049-.025.155-.065.204-.087a.445.445 0 0 1 .234-.029c.094.015.148.042.186.019.037-.024.067-.006.06.03-.006.036-.043.11-.15.145a.602.602 0 0 1-.304.018c-.07-.02-.122-.05-.164-.033-.043.016-.09.072-.044.139.045.067.279.087.341.094.063.007.295-.011.36.112.067.122.014.26-.064.29a.954.954 0 0 1-.203.06l-.059.009s.027.065.027.092c0 .027-.003.077.026.097.028.02.069.034.118.029.05-.005.108.03.112.078.003.047.017.111.022.205.005.094 0 .172 0 .172s-.004.036-.016.07a3.86 3.86 0 0 1-.072.167h.34a.797.797 0 0 0 .006-.055c.014-.268-.072-.718-.128-1.115z"/><path fill="#6d8c3e" d="M10.454 13.347c.066.203.204.408.414.542.29.187.416.162.691.352.275.19.258.222.261.222.004 0-.013-.032.262-.222.274-.19.4-.165.691-.352.21-.134.347-.34.414-.542z"/><rect width="23" height="17" x=".5" y="3.5" stroke="#100f0e" opacity=".1" rx="2"/></g></svg>
