<svg xmlns="http://www.w3.org/2000/svg" viewBox="0 0 24 24"><g fill="none" fill-rule="evenodd"><path fill="#e70a2d" d="M24 15H0v4.002A2 2 0 0 0 2.005 21h19.99A2.004 2.004 0 0 0 24 19.002z"/><path fill="#fc0" d="M24 4.998A2.001 2.001 0 0 0 21.995 3H2.005A2.004 2.004 0 0 0 0 4.998V9h24z"/><path fill="#0a5da7" d="M24 15H0V9h24z"/><path fill="#fff" fill-rule="nonzero" d="m6.417 14.057-.707.207.207-.707-.207-.708.707.208.707-.208-.207.708.207.707zm2.068-2.084-.707.207.207-.707-.207-.707.707.207.707-.207-.207.707.207.707zm3.067-1.019-.707.207.207-.707-.207-.708.707.208.707-.208-.207.708.207.707zm3.922 1.019-.707.207.207-.707-.207-.707.707.207.708-.207-.208.707.208.707zm2.043 2.084-.707.207.207-.707-.207-.708.707.208.707-.208-.207.708.207.707z"/><rect width="23" height="17" x=".5" y="3.5" stroke="#100f0e" opacity=".1" rx="2"/></g></svg>
