<svg xmlns="http://www.w3.org/2000/svg" xmlns:xlink="http://www.w3.org/1999/xlink" viewBox="0 0 24 24"><defs><rect id="a" width="24" height="18" rx="2"/><mask id="b" fill="#fff"><use xlink:href="#a" fill-rule="evenodd"/></mask></defs><g fill="none" fill-rule="evenodd"><g transform="translate(0 3)"><use xlink:href="#a" fill="#0a5da7"/><rect width="24" height="18" fill="#fcfbfa" mask="url(#b)" rx="2"/><g fill="#ff0726"><path d="m0 0 24 16v2L0 2z" mask="url(#b)"/><path d="m0 0 24 16v2L0 2z" mask="url(#b)" transform="matrix(-1 0 0 1 24 0)"/></g></g><path fill="#ff082a" d="M10 5.61c0-.338.288-.613.66-.613h2.68c.364 0 .66.26.66.613v1.203c0 .338-.214.808-.464 1.035l-1.072.977a.709.709 0 0 1-.928 0l-1.072-.977C10.208 7.615 10 7.166 10 6.813z"/><path fill="#facd62" d="M12 6c-.552 0-1-.224-1-.5s.448-.5 1-.5 1 .224 1 .5-.448.5-1 .5m0-1c-1.105 0-2-.224-2-.5s.895-.5 2-.5 2 .224 2 .5-.895.5-2 .5"/><rect width="23" height="17" x=".5" y="3.5" stroke="#100f0e" opacity=".1" rx="2"/></g></svg>