<svg xmlns="http://www.w3.org/2000/svg" viewBox="0 0 24 24"><g fill="none" fill-rule="evenodd"><path fill="#29b3ea" d="M0 12h24V4.997A2 2 0 0 0 21.995 3H2.005A2.002 2.002 0 0 0 0 4.997z"/><path fill="#00ae08" d="M0 19.003A2 2 0 0 0 2.005 21h19.99A2.002 2.002 0 0 0 24 19.003V12H0z"/><path fill="#fcfbfa" d="m0 4 12 8-12 8z"/><path fill="#ff0622" d="M3.5 12.842 1.955 14l.57-1.903L1 10.91l1.897-.018L3.5 9l.603 1.892L6 10.91l-1.525 1.187.57 1.903z"/><rect width="23" height="17" x=".5" y="3.5" stroke="#100f0e" opacity=".1" rx="2"/></g></svg>
