<svg xmlns="http://www.w3.org/2000/svg" viewBox="0 0 24 24"><g fill="none" fill-rule="evenodd"><rect width="24" height="18" y="3" fill="#e93425" rx="2"/><path fill="#fcfbfa" d="M13.536 11.632c-.922-.58-1.155.474-1.155 0 0-.962 1.034-1.741 2.31-1.741S17 10.67 17 11.63c-1.096 0-1.205.58-1.732.58-.647 0-.81 0-1.732-.58zm1.443-.221a.29.29 0 0 0 0-.58.29.29 0 0 0 0 .58m-2.091 2.277c.264-1.06-.806-.957-.357-1.103.91-.298 1.967.45 2.361 1.67.394 1.219-.024 2.448-.934 2.745-.338-1.047-.921-.973-1.084-1.476-.2-.619-.25-.775.014-1.836M13.543 15a.288.288 0 1 0 .55-.18.288.288 0 1 0-.55.18m-2.802-1.295c1.085-.075.657-1.066.935-.682.562.777.181 2.019-.85 2.773-1.033.753-2.325.733-2.887-.045.886-.647.635-1.181 1.062-1.492.523-.382.655-.48 1.74-.554m-1.038 1.031a.291.291 0 0 0-.064.406c.094.13.274.158.403.064a.291.291 0 0 0 .064-.405.288.288 0 0 0-.403-.065m.36-3.078c.406 1.014 1.211.299.934.682-.562.778-1.855.798-2.887.044s-1.413-1.995-.85-2.773c.886.648 1.314.243 1.74.554.524.382.656.48 1.063 1.493m-1.297-.674c-.13-.094-.31-.065-.404.064s-.065.311.064.406c.13.094.31.065.403-.065a.291.291 0 0 0-.063-.405m3.023-.607c-.833.701.092 1.25-.356 1.104-.91-.298-1.328-1.527-.934-2.746.394-1.22 1.451-1.967 2.361-1.67-.339 1.048.177 1.332.014 1.835-.2.618-.25.775-1.085 1.477m.237-1.448a.288.288 0 1 0-.55-.18.288.288 0 1 0 .55.18"/><rect width="23" height="17" x=".5" y="3.5" stroke="#100f0e" opacity=".1" rx="2"/></g></svg>
