<svg xmlns="http://www.w3.org/2000/svg" viewBox="0 0 24 24"><linearGradient id="a" x1="50%" x2="50%" y1="0%" y2="100%"><stop offset="0" stop-color="#fff"/><stop offset="1" stop-color="#f0f0f0"/></linearGradient><g fill="none" fill-rule="evenodd"><rect width="24" height="18" y="3" fill="#69b3dc" rx="2"/><path fill="url(#a)" fill-rule="nonzero" d="M12 7.842 10.146 9l.684-1.903L9 5.91l2.277-.018L12 4l.723 1.892L15 5.91l-1.83 1.187L13.854 9zm0 10L10.146 19l.684-1.903L9 15.91l2.277-.018L12 14l.723 1.892L15 15.91l-1.83 1.187.684 1.903zm5-5L15.146 14l.684-1.903L14 10.91l2.277-.018L17 9l.723 1.892L20 10.91l-1.83 1.187.684 1.903zm-10 0L5.146 14l.684-1.903L4 10.91l2.277-.018L7 9l.723 1.892L10 10.91l-1.83 1.187L8.854 14z"/><rect width="23" height="17" x=".5" y="3.5" stroke="#100f0e" opacity=".1" rx="2"/></g></svg>
