<svg xmlns="http://www.w3.org/2000/svg" viewBox="0 0 24 24"><g fill="none" fill-rule="evenodd"><rect width="24" height="18" y="3" fill="#0051ab" rx="2"/><path fill="#e93425" d="M24 12H14V3h8a2 2 0 0 1 2 1.997zM0 12h12v9H2.009A2.004 2.004 0 0 1 0 19.003z"/><path fill="#fcfbfa" d="M0 10h24v4H0z"/><path fill="#fcfbfa" d="M10 3h4v18h-4z"/><g fill-rule="nonzero" transform="translate(9 9)"><path fill="#c93127" fill-opacity=".2" d="M1.727 1.727a1.8 1.8 0 1 0 2.546 0"/><circle cx="3" cy="3" r="1.2" fill="#042f60"/><path fill="#0f6d1a" d="M4.273 4.273a1.8 1.8 0 0 1-2.546-2.546l.424.424a1.2 1.2 0 1 0 1.698 0l.424-.424a1.8 1.8 0 0 1 0 2.546m0 0a1.8 1.8 0 0 1-2.546-2.546l.424.424a1.2 1.2 0 1 0 1.698 0l.424-.424a1.8 1.8 0 0 1 0 2.546"/></g><rect width="23" height="17" x=".5" y="3.5" stroke="#100f0e" opacity=".1" rx="2"/></g></svg>
