<svg xmlns="http://www.w3.org/2000/svg" viewBox="0 0 24 24"><g fill="none" fill-rule="evenodd"><rect width="22" height="18" x="2" y="3" fill="#ff082a" rx="2"/><path fill="#008d3d" d="M2 19.002C2 20.106 2.89 21 3.991 21H22.01c1.1 0 1.991-.898 1.991-1.998V15H2z"/><path fill="#fcfbfa" d="M0 19.005C0 20.107.888 21 2 21h2V3H2C.895 3 0 3.893 0 4.995z"/><path fill="#ff0726" d="M4 20v1H3v-1zm-2 0v1H1v-1zm1-1v1H2v-1zm-2 0v1H0v-1zm3-1v1H3v-1zm-2 0v1H1v-1zm1-1v1H2v-1zm-2 0v1H0v-1zm3-1v1H3v-1zm-2 0v1H1v-1zm-1-1v1H0v-1zm2 0v1H2v-1zm1-1v1H3v-1zm-2 0v1H1v-1zm1-1v1H2v-1zm-2 0v1H0v-1zm3-1v1H3v-1zm-2 0v1H1v-1zm-1-1v1H0v-1zm2 0v1H2v-1zm-1-1v1H1v-1zm2 0v1H3v-1zM3 9v1H2V9zM1 9v1H0V9zm1-1v1H1V8zm2 0v1H3V8zM1 7v1H0V7zm2 0v1H2V7zm1-1v1H3V6zM2 6v1H1V6zM1 5v1H0V5zm2 0v1H2V5zm1-1v1H3V4zM2 4v1H1V4zm1-1v1H2V3z"/><path fill="#c74634" d="M0 3h1v1H0z" opacity=".5"/><rect width="23" height="17" x=".5" y="3.5" stroke="#100f0e" opacity=".1" rx="2"/></g></svg>
