<svg xmlns="http://www.w3.org/2000/svg" viewBox="0 0 24 24"><g fill="none" fill-rule="evenodd"><rect width="24" height="18" y="3" fill="#008100" rx="2"/><path fill="#ffce00" d="M2.21 12.307c-.283-.17-.277-.448 0-.614l9.28-5.567c.281-.17.745-.166 1.02 0l9.28 5.567c.283.17.277.448 0 .614l-9.28 5.567c-.281.17-.745.166-1.02 0z"/><g fill-rule="nonzero" transform="translate(7 7)"><circle cx="4.749" cy="4.661" r="4" fill="#0a5da7"/><path fill="#fff" d="M1.633 3.832c.23-.23 1.272-.043 3.072.549 1.28.42 2.757 1.35 3.095 1.864l.273.416.676-.674-.274-.416c-.478-.727-2.104-1.75-3.546-2.224C2.682 2.608 1.663 2.425 1.086 3l-.337.337.547.832z"/></g><rect width="23" height="17" x=".5" y="3.5" stroke="#100f0e" opacity=".1" rx="2"/></g></svg>
