<svg xmlns="http://www.w3.org/2000/svg" viewBox="0 0 24 24"><g fill="none" fill-rule="evenodd"><path fill="#fcfbfa" d="M0 9h24v6H0z"/><path fill="#197ed6" d="M9 13v1H8v-1zm7 0v1h-1v-1zm-3-2-.293 1L13 13l-1-.293L11 13l.293-1L11 11l1 .293zm-4-1v1H8v-1zm7 0v1h-1v-1zM0 9h24V4.998A2.001 2.001 0 0 0 21.995 3H2.005A2.004 2.004 0 0 0 0 4.998zm0 10.002A2 2 0 0 0 2.005 21h19.99A2.004 2.004 0 0 0 24 19.002V15H0z"/><rect width="23" height="17" x=".5" y="3.5" stroke="#100f0e" opacity=".1" rx="2"/></g></svg>
