<svg viewBox="0 0 128 96" xmlns="http://www.w3.org/2000/svg" xmlns:xlink="http://www.w3.org/1999/xlink"><symbol id="a" viewBox="0 0 49 49"><path d="M0 0h49v49H0z" fill="none"/><path d="M25.006 12.76a12.748 12.748 0 0 0-7.549 23.365.75.75 0 0 0 .979-.131l2.03-2.317a1.25 1.25 0 0 1 .941-.427h6.186a1.25 1.25 0 0 1 .941.427l2.03 2.317a.753.753 0 0 0 .979.131A12.671 12.671 0 0 0 37.236 24.9a12.815 12.815 0 0 0-12.23-12.14zm6.242 21.74-1.586-1.81a2.753 2.753 0 0 0-2.069-.938h-6.186a2.753 2.753 0 0 0-2.069.938l-1.585 1.81a11.25 11.25 0 1 1 13.5 0z" fill="#fff"/><path d="m29.931 19.012-5.157 6.016A1.455 1.455 0 0 0 24.5 25a1.5 1.5 0 1 0 1.5 1.5 1.466 1.466 0 0 0-.09-.493l5.159-6.019a.75.75 0 1 0-1.138-.976zM32.5 24.25a.75.75 0 0 0-.75.75v1a.75.75 0 0 0 1.5 0v-1a.75.75 0 0 0-.75-.75zm-16 0a.75.75 0 0 0-.75.75v1a.75.75 0 0 0 1.5 0v-1a.75.75 0 0 0-.75-.75zm7.5-6h1a.75.75 0 0 0 0-1.5h-1a.75.75 0 0 0 0 1.5z" fill="#fff"/></symbol><rect fill="#56504B" height="72" rx="1" width="104" x="13" y="12"/><path d="M15 14h100v8H15zm0 43h49v25H15z" fill="#403C38"/><path d="M39 78H19v-2h20zm-4-10H19v-2h16zm8-5H19v-2h24zM27 73h-8v-2h8zm33 5h-5v-2h5zm0-10h-5v-2h5zm0 5h-5v-2h5zm0-10h-5v-2h5z" fill="#67605B"/><path d="M15 30h49v25H15z" fill="#403C38"/><path d="M47 46H19v-2h28zM31 36H19v-2h12zm8 5H19v-2h20zm21 5h-5v-2h5zm0-10h-5v-2h5zm0 5h-5v-2h5zM39 51H19v-2h20zm21 0h-5v-2h5z" fill="#67605B"/><path d="M66 57h49v25H66z" fill="#403C38"/><path d="M79 61h32v2H79zm0 10h16v2H79zm0-5h24v2H79zm0 10h8v2h-8zm-9-15h5v2h-5zm0 10h5v2h-5zm0-5h5v2h-5zm0 10h5v2h-5z" fill="#67605B"/><path d="M66 30h49v25H66z" fill="#403C38"/><path d="M79 34h32v2H79zm0 10h16v2H79zm0-5h24v2H79zm-9-5h5v2h-5zm0 10h5v2h-5zm0-5h5v2h-5zm9 10h24v2H79zm-9 0h5v2h-5z" fill="#67605B"/><rect fill="#94AFAF" height="49" rx="4" width="49" x="76" y="43"/><g fill="#403C38"><rect height="4" rx=".5" width="8" x="107" y="24"/><rect height="4" rx=".5" width="16" x="15" y="24"/><rect height="4" rx=".5" width="16" x="33" y="24"/></g><use height="49" transform="translate(76 43)" width="49" xlink:href="#a"/></svg>