<svg viewBox="0 0 128 96" xmlns="http://www.w3.org/2000/svg" xmlns:xlink="http://www.w3.org/1999/xlink"><symbol id="a" viewBox="0 0 49 49"><path d="M0 0h49v49H0z" fill="none"/><path d="M38.5 34.25h-1.25V26a.75.75 0 0 0-.75-.75h-6a.75.75 0 0 0-.75.75v8.25h-1.5V15a.75.75 0 0 0-.75-.75h-6a.75.75 0 0 0-.75.75v19.25h-1.5V22a.75.75 0 0 0-.75-.75h-6a.75.75 0 0 0-.75.75v12.25H10.5a.75.75 0 0 0 0 1.5h28a.75.75 0 0 0 0-1.5zm-20.75 0h-4.5v-11.5h4.5zm9 0h-4.5v-18.5h4.5zm9 0h-4.5v-7.5h4.5z" fill="#fff"/></symbol><rect fill="#56504B" height="72" rx="1" width="104" x="12" y="12"/><path d="M14 14h100v8H14zm0 16h32v28H14z" fill="#403C38"/><path d="M22 38h8v2h-8zm0 4h16v2H22zm0-8h12v2H22zm-4 0h2v2h-2z" fill="#67605B"/><path d="M14 60h32v22H14z" fill="#403C38"/><path d="M22 68h8v2h-8zm0 4h16v2H22zm0-8h12v2H22zm-4 0h2v2h-2zm4-18h8v2h-8z" fill="#67605B"/><path d="M48 30h32v28H48z" fill="#403C38"/><path d="M56 38h8v2h-8zm0 4h16v2H56zm0-8h12v2H56zm-4 0h2v2h-2z" fill="#67605B"/><path d="M48 60h32v22H48z" fill="#403C38"/><path d="M56 68h8v2h-8zm-34 8h8v2h-8zm34 0h8v2h-8zm0-4h16v2H56zm0-8h12v2H56zm-4 0h2v2h-2zm4-18h8v2h-8zm-34 4h16v2H22zm34 0h16v2H56z" fill="#67605B"/><path d="M82 30h32v22H82z" fill="#403C38"/><path d="M90 38h8v2h-8zm0 4h16v2H90zm0-8h12v2H90zm-4 0h2v2h-2z" fill="#67605B"/><path d="M82 48h32v14H82z" fill="#403C38"/><path d="M90 56h8v2h-8zm0-4h12v2H90zm-4 0h2v2h-2z" fill="#67605B"/><path d="M82 64h32v18H82z" fill="#403C38"/><path d="M90 72h8v2h-8zm0 4h16v2H90zm0-8h12v2H90zm-4 0h2v2h-2zm4-22h8v2h-8z" fill="#67605B"/><rect fill="#539B72" height="48" rx="4" width="48" x="76" y="44"/><rect fill="#477D8A" height="48" rx="4" width="48" x="76" y="44"/><rect fill="#94AFAF" height="49" rx="4" width="49" x="75" y="43"/><rect fill="#403C38" height="4" rx=".5" width="8" x="14" y="24"/><use height="49" transform="translate(75 43)" width="49" xlink:href="#a"/></svg>