<svg viewBox="0 0 128 96" xmlns="http://www.w3.org/2000/svg" xmlns:xlink="http://www.w3.org/1999/xlink"><symbol id="a" viewBox="0 0 49 49"><path d="M0 0h49v49H0z" fill="none"/><path d="M38.5 34.25h-1.25V26a.75.75 0 0 0-.75-.75h-6a.75.75 0 0 0-.75.75v8.25h-1.5V15a.75.75 0 0 0-.75-.75h-6a.75.75 0 0 0-.75.75v19.25h-1.5V22a.75.75 0 0 0-.75-.75h-6a.75.75 0 0 0-.75.75v12.25H10.5a.75.75 0 0 0 0 1.5h28a.75.75 0 0 0 0-1.5zm-20.75 0h-4.5v-11.5h4.5zm9 0h-4.5v-18.5h4.5zm9 0h-4.5v-7.5h4.5z" fill="#fff"/></symbol><rect fill="#e6e3e0" height="72" rx="1" width="104" x="12" y="12"/><path d="M14 30h100v52H14z" fill="#fcfbfa"/><path d="M32 38a5 5 0 1 0 5 5 5 5 0 0 0-5-5zm32 0a5 5 0 1 0 5 5 5 5 0 0 0-5-5zm32 0a5 5 0 1 0 5 5 5 5 0 0 0-5-5z" fill="#d2cdc7"/><rect fill="#fcfbfa" height="4" rx=".5" width="8" x="32" y="24"/><rect fill="#fcfbfa" height="4" rx=".5" width="16" x="14" y="24"/><path d="M14 14h100v8H14z" fill="#f1efed"/><path d="M28 50h8v2h-8zm32 0h8v2h-8zM32 60a5 5 0 1 0 5 5 5 5 0 0 0-5-5zm32 0a5 5 0 1 0 5 5 5 5 0 0 0-5-5zM28 72h8v2h-8zm32 0h8v2h-8z" fill="#d2cdc7"/><rect fill="#539b72" height="48" rx="4" width="48" x="76" y="44"/><rect fill="#477d8a" height="48" rx="4" width="48" x="76" y="44"/><rect fill="#94AFAF" height="49" rx="4" width="49" x="75" y="43"/><use height="49" transform="translate(75 43)" width="49" xlink:href="#a"/></svg>