<svg viewBox="0 0 128 96" xmlns="http://www.w3.org/2000/svg" xmlns:xlink="http://www.w3.org/1999/xlink"><symbol id="a" viewBox="0 0 49 49"><path d="M0 0h49v49H0z" fill="none"/><path d="m33.737 17.677-5.414-5.414a1.736 1.736 0 0 0-1.237-.513H15.5a.75.75 0 0 0-.75.75v24a.75.75 0 0 0 .75.75h18a.75.75 0 0 0 .75-.75V18.914a1.76 1.76 0 0 0-.513-1.237zM32.75 35.75h-16.5v-22.5h10.836a.251.251 0 0 1 .177.073l5.414 5.414a.257.257 0 0 1 .073.177z" fill="#fff"/><path d="M30.5 18.75h-3.25V15.5a.75.75 0 0 0-1.5 0v4a.75.75 0 0 0 .75.75h4a.75.75 0 0 0 0-1.5zm-2 4h-8a.75.75 0 0 0 0 1.5h8a.75.75 0 0 0 0-1.5zm0 4h-8a.75.75 0 0 0 0 1.5h8a.75.75 0 0 0 0-1.5zm0 4h-8a.75.75 0 0 0 0 1.5h8a.75.75 0 0 0 0-1.5z" fill="#fff"/></symbol><rect fill="#56504B" height="72" rx="1" width="104" x="12" y="12"/><path d="M14 30h100v52H14zm0-16h100v8H14z" fill="#403C38"/><path d="M47 43h16v2H47zm0 5h24v2H47zm-16-5h12v2H31zm-4 5h16v2H27zm20-10h36v2H47zm-20 0h16v2H27zm-9-5h20v2H18zm0 23h20v2H18zm29 15h32v2H47zm0-10h16v2H47zm0 5h24v2H47zm-24 0h20v2H23zm4 10h16v2H27zm8-5h8v2h-8zm12 5h24v2H47zM35 61h8v2h-8z" fill="#67605B"/><g fill="#403C38"><rect height="4" rx=".5" width="8" x="106" y="24"/><rect height="4" rx=".5" width="8" x="14" y="24"/><rect height="4" rx=".5" width="16" x="24" y="24"/></g><rect fill="#94AFAF" height="49" rx="4" width="49" x="75" y="43"/><use height="49" transform="translate(75 43)" width="49" xlink:href="#a"/></svg>