<svg viewBox="0 0 128 96" xmlns="http://www.w3.org/2000/svg" xmlns:xlink="http://www.w3.org/1999/xlink"><symbol id="a" viewBox="0 0 49 49"><path d="M0 0h49v49H0z" fill="none"/><path d="M38.5 34.25h-1.25V26a.75.75 0 0 0-.75-.75h-6a.75.75 0 0 0-.75.75v8.25h-1.5V15a.75.75 0 0 0-.75-.75h-6a.75.75 0 0 0-.75.75v19.25h-1.5V22a.75.75 0 0 0-.75-.75h-6a.75.75 0 0 0-.75.75v12.25H10.5a.75.75 0 0 0 0 1.5h28a.75.75 0 0 0 0-1.5zm-20.75 0h-4.5v-11.5h4.5zm9 0h-4.5v-18.5h4.5zm9 0h-4.5v-7.5h4.5z" fill="#fff"/></symbol><rect fill="#56504B" height="72" rx="1" width="104" x="12" y="12"/><g fill="#403C38"><path d="M14 14h100v8H14zm0 16h100v52H14z"/><rect height="4" rx=".5" width="8" x="50" y="24"/><rect height="4" rx=".5" width="16" x="14" y="24"/><rect height="4" rx=".5" width="16" x="32" y="24"/></g><path d="M20 54h8v20h-8zm16-16h8v36h-8zm16 8h8v28h-8zm16 12h8v16h-8z" fill="#67605B"/><path d="M82 54h12v20H82z" fill="#403C38"/><path d="M20 76h8v2h-8zm16 0h8v2h-8zm16 0h8v2h-8zm16 0h8v2h-8z" fill="#67605B"/><rect fill="#94AFAF" height="49" rx="4" width="49" x="75" y="43"/><use height="49" transform="translate(75 43)" width="49" xlink:href="#a"/></svg>