<svg viewBox="0 0 128 96" xmlns="http://www.w3.org/2000/svg" xmlns:xlink="http://www.w3.org/1999/xlink"><symbol id="a" viewBox="0 0 49 49"><path d="M0 0h49v49H0z" fill="none"/><path d="M24.5 11.75c-5.1 0-10.572 1.142-10.735 3.639h-.015V33.5c0 2.576 5.572 3.75 10.75 3.75s10.75-1.174 10.75-3.75v-18c0-2.576-5.572-3.75-10.75-3.75zm0 1.5c6.1 0 9.25 1.577 9.25 2.25s-3.15 2.25-9.25 2.25-9.25-1.577-9.25-2.25 3.15-2.25 9.25-2.25zm0 22.5c-6.1 0-9.25-1.577-9.25-2.25V17.537c2 1.166 5.718 1.713 9.25 1.713s7.245-.547 9.25-1.713V33.5c0 .673-3.15 2.25-9.25 2.25z" fill="#fff"/><path d="M28 22.25h-7a.75.75 0 0 0 0 1.5h7a.75.75 0 0 0 0-1.5zm0 4h-7a.75.75 0 0 0 0 1.5h7a.75.75 0 0 0 0-1.5zm0 4h-7a.75.75 0 0 0 0 1.5h7a.75.75 0 0 0 0-1.5z" fill="#fff"/></symbol><rect fill="#56504B" height="72" rx="1" width="104" x="12" y="12"/><path d="M14 14h100v8H14zm0 10h49v38H14z" fill="#403C38"/><path d="M22 32h8v2h-8zm0 4h16v2H22zm0-8h12v2H22zm-4 0h2v2h-2zm4 20h8v2h-8zm0-4h12v2H22z" fill="#67605B"/><path d="M14 64h49v18H14z" fill="#403C38"/><path d="M22 72h8v2h-8zm0 4h16v2H22zm0-8h12v2H22zm-4 0h2v2h-2z" fill="#67605B"/><path d="M65 24h49v38H65z" fill="#403C38"/><path d="M73 32h8v2h-8zm-51 8h8v2h-8zm51 0h8v2h-8zm0-4h16v2H73zm0-8h12v2H73zm-4 0h2v2h-2zm4 20h8v2h-8zm0-4h12v2H73zM22 56h12v2H22zm0-4h8v2h-8zm51 0h8v2h-8zm0 4h12v2H73z" fill="#67605B"/><path d="M65 64h49v18H65z" fill="#403C38"/><path d="M73 72h8v2h-8zm0 4h16v2H73zm0-8h12v2H73zm-4 0h2v2h-2z" fill="#67605B"/><rect fill="#539B72" height="48" rx="4" width="48" x="76" y="44"/><rect fill="#477D8A" height="48" rx="4" width="48" x="76" y="44"/><rect fill="#94AFAF" height="49" rx="4" width="49" x="75" y="43"/><use height="49" transform="translate(75 43)" width="49" xlink:href="#a"/></svg>