<svg viewBox="0 0 128 96" xmlns="http://www.w3.org/2000/svg" xmlns:xlink="http://www.w3.org/1999/xlink"><symbol id="a" viewBox="0 0 49 49"><path d="M0 0h49v49H0z" fill="none"/><path d="m33.362 32.149-3.847-1.775a1.751 1.751 0 0 1-.993-1.3l-.192-1.156a9.266 9.266 0 0 0 3.42-7.418c0-4.825-3.252-8.75-7.25-8.75s-7.25 3.925-7.25 8.75a9.266 9.266 0 0 0 3.42 7.416l-.192 1.156a1.751 1.751 0 0 1-.993 1.3l-3.847 1.775A3.258 3.258 0 0 0 13.75 35.1v1.4a.75.75 0 0 0 1.5 0v-1.4a1.754 1.754 0 0 1 1.017-1.589l3.847-1.776a3.246 3.246 0 0 0 1.843-2.417l.1-.591a5.972 5.972 0 0 0 4.888 0l.1.591a3.246 3.246 0 0 0 1.843 2.417l3.848 1.776A1.755 1.755 0 0 1 33.75 35.1v1.4a.75.75 0 0 0 1.5 0v-1.4a3.258 3.258 0 0 0-1.888-2.951zM18.75 20.5c0-4 2.58-7.25 5.75-7.25s5.75 3.252 5.75 7.25-2.58 7.25-5.75 7.25-5.75-3.25-5.75-7.25z" fill="#fff"/></symbol><rect fill="#e6e3e0" height="72" rx="1" width="104" x="12" y="12"/><path d="M14 14h100v8H14z" fill="#f1efed"/><g fill="#fcfbfa"><path d="M14 30h100v52H14z"/><rect height="4" rx=".5" width="8" x="96" y="24"/><rect height="4" rx=".5" width="8" x="32" y="24"/><rect height="4" rx=".5" width="8" x="106" y="24"/><rect height="4" rx=".5" width="16" x="14" y="24"/></g><path d="M17 33h8v4h-8zm0 7h8v4h-8zm0 7h8v4h-8zm0 7h8v4h-8zm0 7h8v4h-8zm0 7h8v4h-8zm0 7h8v4h-8zm10-42h12v4H27zm0 7h12v4H27zm0 7h12v4H27zm0 7h12v4H27zm0 7h12v4H27zm0 7h12v4H27zm0 7h12v4H27zm14-42h12v4H41zm0 7h12v4H41zm0 7h12v4H41zm0 7h12v4H41zm0 7h12v4H41zm0 7h12v4H41zm0 7h12v4H41zm14-42h16v4H55zm0 7h16v4H55zm0 7h16v4H55zm0 7h16v4H55zm0 7h16v4H55zm0 7h16v4H55zm0 7h16v4H55zm18-42h18v4H73zm0 7h18v4H73zm0 7h18v4H73zm0 7h18v4H73zm0 7h18v4H73zm0 7h18v4H73zm0 7h18v4H73zm20-42h8v4h-8zm0 7h8v4h-8zm0 7h8v4h-8zm0 7h8v4h-8zm0 7h8v4h-8zm0 7h8v4h-8zm0 7h8v4h-8zm10-42h8v4h-8zm0 7h8v4h-8zm0 7h8v4h-8zm0 7h8v4h-8zm0 7h8v4h-8zm0 7h8v4h-8zm0 7h8v4h-8z" fill="#f1efed"/><rect fill="#94AFAF" height="49" rx="4" width="49" x="75" y="43"/><use height="49" transform="translate(75 43)" width="49" xlink:href="#a"/></svg>