<svg viewBox="0 0 128 96" xmlns="http://www.w3.org/2000/svg" xmlns:xlink="http://www.w3.org/1999/xlink"><symbol id="a" viewBox="0 0 49 49"><path d="M0 0h49v49H0z" fill="none"/><path d="M24.5 11.75c-4.939 0-10.224 1.071-10.7 3.4a.733.733 0 0 0-.047.234V33.5c0 2.576 5.572 3.75 10.75 3.75s10.75-1.174 10.75-3.75v-18c-.003-2.576-5.575-3.75-10.753-3.75zm9.25 15.75c0 .673-3.147 2.25-9.25 2.25s-9.25-1.577-9.25-2.25v-3.963c2 1.166 5.718 1.713 9.25 1.713s7.245-.547 9.25-1.713zm0-6c0 .673-3.147 2.25-9.25 2.25s-9.25-1.577-9.25-2.25v-3.963c2 1.166 5.718 1.713 9.25 1.713s7.245-.547 9.25-1.713zm-9.25-8.25c6.1 0 9.25 1.577 9.25 2.25s-3.15 2.25-9.25 2.25-9.25-1.577-9.25-2.25 3.15-2.25 9.25-2.25zm0 22.5c-6.1 0-9.25-1.577-9.25-2.25v-3.963c2 1.166 5.718 1.713 9.25 1.713s7.245-.547 9.25-1.713V33.5c0 .673-3.15 2.25-9.25 2.25z" fill="#fff"/></symbol><rect fill="#e6e3e0" height="72" rx="1" width="104" x="12" y="12"/><path d="M14 14h100v8H14z" fill="#f1efed"/><path d="M14 24h49v22H14z" fill="#fcfbfa"/><path d="M22 32h8v2h-8zm0 4h16v2H22zm0-8h12v2H22zm-4 0h2v2h-2z" fill="#d2cdc7"/><path d="M14 48h49v14H14z" fill="#fcfbfa"/><path d="M22 56h8v2h-8zm0-4h12v2H22zm-4 0h2v2h-2z" fill="#d2cdc7"/><path d="M14 64h49v18H14z" fill="#fcfbfa"/><path d="M22 72h8v2h-8zm0 4h16v2H22zm0-8h12v2H22zm-4 0h2v2h-2z" fill="#d2cdc7"/><path d="M65 24h49v22H65z" fill="#fcfbfa"/><path d="M73 32h8v2h-8zm-51 8h8v2h-8zm51 0h8v2h-8zm0-4h16v2H73zm0-8h12v2H73zm-4 0h2v2h-2z" fill="#d2cdc7"/><path d="M65 48h49v14H65z" fill="#fcfbfa"/><path d="M73 56h8v2h-8zm0-4h12v2H73zm-4 0h2v2h-2z" fill="#d2cdc7"/><path d="M65 64h49v18H65z" fill="#fcfbfa"/><path d="M73 72h8v2h-8zm0 4h16v2H73zm0-8h12v2H73zm-4 0h2v2h-2z" fill="#d2cdc7"/><rect fill="#539b72" height="48" rx="4" width="48" x="76" y="44"/><rect fill="#477d8a" height="48" rx="4" width="48" x="76" y="44"/><rect fill="#94AFAF" height="49" rx="4" width="49" x="75" y="43"/><use height="49" transform="translate(75 43)" width="49" xlink:href="#a"/></svg>