<svg xmlns="http://www.w3.org/2000/svg" xmlns:xlink="http://www.w3.org/1999/xlink" viewBox="0 0 128 96"><defs><symbol id="a" viewBox="0 0 49 49"><path fill="none" d="M0 0h49v49H0z"/><g fill="#fff"><path d="M25.006 12.76c-3.5-.128-6.823 1.125-9.345 3.551A12.645 12.645 0 0 0 11.75 25.5c0 4.279 2.133 8.251 5.707 10.625a.75.75 0 0 0 .979-.131l2.03-2.317c.238-.271.581-.427.94-.427h6.187c.36 0 .703.155.94.427l2.03 2.317a.753.753 0 0 0 .979.131c3.773-2.506 5.901-6.703 5.693-11.227-.302-6.553-5.674-11.885-12.23-12.139Zm6.242 21.738-1.586-1.81a2.746 2.746 0 0 0-2.068-.938h-6.187a2.75 2.75 0 0 0-2.068.938l-1.585 1.81a11.226 11.226 0 0 1-4.503-8.998c0-3.088 1.226-5.967 3.451-8.108 2.225-2.141 5.16-3.268 8.247-3.134 5.784.225 10.523 4.929 10.79 10.709.174 3.774-1.495 7.29-4.49 9.531Z"/><path d="m29.931 19.012-5.156 6.016a1.542 1.542 0 0 0-.274-.028 1.5 1.5 0 1 0 1.5 1.5c0-.174-.035-.338-.09-.493l5.159-6.019a.75.75 0 0 0-1.139-.977ZM32.5 24.25a.75.75 0 0 0-.75.75v1a.75.75 0 0 0 1.5 0v-1a.75.75 0 0 0-.75-.75Zm-16 0a.75.75 0 0 0-.75.75v1a.75.75 0 0 0 1.5 0v-1a.75.75 0 0 0-.75-.75Zm7.5-6h1a.75.75 0 0 0 0-1.5h-1a.75.75 0 0 0 0 1.5Z"/></g></symbol></defs><rect x="12" y="12" width="104" height="72" rx="1" ry="1" fill="#e6e3e0"/><path fill="#f1efed" d="M14 14h100v8H14z"/><path fill="#fcfbfa" d="M14 30h100v26H14zm0 28h32v24H14zm34 0h32v24H48zm34 2h32v22H82z"/><circle cx="16" cy="26" r="2" fill="#fcfbfa"/><path fill="#fcfbfa" d="M20 25h8v2h-8zm10 0h16v2H30z"/><path d="M42 62.227C31.421 63.859 30.415 74 18 74v4h24V62.227ZM61 72h4v6h-4zm7-4h4v10h-4z" fill="#d2cdc7"/><path d="M20 65.2c-.705 0-1.365.023-2 .058V72c5.733 0 8.604-2.334 11.748-5.12-2.451-.966-5.396-1.68-9.748-1.68ZM53 76a1 1 0 0 1-.789-1.614l5.173-6.65a9.01 9.01 0 0 1 5.339-3.3l12.082-2.416a1 1 0 0 1 .393 1.961l-12.082 2.416a6.999 6.999 0 0 0-4.152 2.567l-5.173 6.65a1 1 0 0 1-.79.386ZM18 37h20v10H18zm24 0h20v10H42zm24 0h20v10H66zm24 0h20v10H90zM24 49h8v2h-8zm24 0h8v2h-8zm24 0h8v2h-8zm24 0h8v2h-8z" fill="#d2cdc7"/><rect x="75" y="43" width="49" height="49" rx="4" ry="4" fill="#94afaf"/><use width="49" height="49" transform="translate(75 43)" xlink:href="#a"/></svg>