<svg xmlns="http://www.w3.org/2000/svg" xmlns:xlink="http://www.w3.org/1999/xlink" viewBox="0 0 128 96"><defs><symbol id="a" viewBox="0 0 49 49"><path fill="none" d="M0 0h49v49H0z"/><g fill="#fff"><path d="M24.5 11.75c-5.101 0-10.572 1.142-10.735 3.639h-.015V33.5c0 2.576 5.572 3.75 10.75 3.75s10.75-1.174 10.75-3.75v-18c0-2.576-5.572-3.75-10.75-3.75Zm0 1.5c6.103 0 9.25 1.577 9.25 2.25s-3.147 2.25-9.25 2.25-9.25-1.577-9.25-2.25 3.147-2.25 9.25-2.25Zm0 22.5c-6.103 0-9.25-1.577-9.25-2.25V17.537c2.005 1.165 5.718 1.713 9.25 1.713s7.245-.547 9.25-1.713V33.5c0 .673-3.147 2.25-9.25 2.25Z"/><path d="M28 22.25h-7a.75.75 0 0 0 0 1.5h7a.75.75 0 0 0 0-1.5Zm0 4h-7a.75.75 0 0 0 0 1.5h7a.75.75 0 0 0 0-1.5Zm0 4h-7a.75.75 0 0 0 0 1.5h7a.75.75 0 0 0 0-1.5Z"/></g></symbol></defs><rect x="12" y="12" width="104" height="72" rx="1" ry="1" fill="#56504b"/><path fill="#403c38" d="M14 14h100v8H14zm0 16h100v52H14z"/><rect x="96" y="24" width="8" height="4" rx=".5" ry=".5" fill="#403c38"/><rect x="32" y="24" width="8" height="4" rx=".5" ry=".5" fill="#403c38"/><rect x="106" y="24" width="8" height="4" rx=".5" ry=".5" fill="#403c38"/><rect x="14" y="24" width="16" height="4" rx=".5" ry=".5" fill="#403c38"/><path fill="#514c46" d="M17 33h8v4h-8zm0 7h8v4h-8zm0 7h8v4h-8zm0 7h8v4h-8zm0 7h8v4h-8zm0 7h8v4h-8zm0 7h8v4h-8zm10-42h12v4H27zm0 7h12v4H27zm0 7h12v4H27zm0 7h12v4H27zm0 7h12v4H27zm0 7h12v4H27zm0 7h12v4H27zm14-42h12v4H41zm0 7h12v4H41zm0 7h12v4H41zm0 7h12v4H41zm0 7h12v4H41zm0 7h12v4H41zm0 7h12v4H41zm14-42h16v4H55zm0 7h16v4H55zm0 7h16v4H55zm0 7h16v4H55zm0 7h16v4H55zm0 7h16v4H55zm0 7h16v4H55zm18-42h18v4H73zm0 7h18v4H73zm0 7h18v4H73zm0 7h18v4H73zm0 7h18v4H73zm0 7h18v4H73zm0 7h18v4H73zm20-42h8v4h-8zm0 7h8v4h-8zm0 7h8v4h-8zm0 7h8v4h-8zm0 7h8v4h-8zm0 7h8v4h-8zm0 7h8v4h-8zm10-42h8v4h-8zm0 7h8v4h-8zm0 7h8v4h-8zm0 7h8v4h-8zm0 7h8v4h-8zm0 7h8v4h-8zm0 7h8v4h-8z"/><rect x="75" y="43" width="49" height="49" rx="4" ry="4" fill="#94afaf"/><use width="49" height="49" transform="translate(75 43)" xlink:href="#a"/></svg>