<svg viewBox="0 0 128 96" xmlns="http://www.w3.org/2000/svg" xmlns:xlink="http://www.w3.org/1999/xlink"><symbol id="a" viewBox="0 0 49 49"><path d="M0 0h49v49H0z" fill="none"/><path d="M24.5 11.75c-5.1 0-10.572 1.142-10.735 3.639h-.015V33.5c0 2.576 5.572 3.75 10.75 3.75s10.75-1.174 10.75-3.75v-18c0-2.576-5.572-3.75-10.75-3.75zm0 1.5c6.1 0 9.25 1.577 9.25 2.25s-3.15 2.25-9.25 2.25-9.25-1.577-9.25-2.25 3.15-2.25 9.25-2.25zm0 22.5c-6.1 0-9.25-1.577-9.25-2.25V17.537c2 1.166 5.718 1.713 9.25 1.713s7.245-.547 9.25-1.713V33.5c0 .673-3.15 2.25-9.25 2.25z" fill="#fff"/><path d="M28.5 26.75h-3.25V23.5a.75.75 0 0 0-1.5 0v3.25H20.5a.75.75 0 0 0 0 1.5h3.25v3.25a.75.75 0 0 0 1.5 0v-3.25h3.25a.75.75 0 0 0 0-1.5z" fill="#fff"/></symbol><rect fill="#56504B" height="72" rx="1" width="104" x="12" y="12"/><g fill="#403C38"><path d="M14 14h100v8H14zm0 16h100v52H14z"/><rect height="4" rx=".5" width="8" x="96" y="24"/><rect height="4" rx=".5" width="8" x="32" y="24"/><rect height="4" rx=".5" width="8" x="106" y="24"/><rect height="4" rx=".5" width="16" x="14" y="24"/><path d="M17 33h8v4h-8zm0 7h8v4h-8zm0 7h8v4h-8zm0 7h8v4h-8zm0 7h8v4h-8zm0 7h8v4h-8zm0 7h8v4h-8zm10-42h12v4H27zm0 7h12v4H27zm0 7h12v4H27zm0 7h12v4H27zm0 7h12v4H27zm0 7h12v4H27zm0 7h12v4H27zm14-42h12v4H41zm0 7h12v4H41zm0 7h12v4H41zm0 7h12v4H41zm0 7h12v4H41zm0 7h12v4H41zm0 7h12v4H41zm14-42h16v4H55zm0 7h16v4H55zm0 7h16v4H55zm0 7h16v4H55zm0 7h16v4H55zm0 7h16v4H55zm0 7h16v4H55zm18-42h18v4H73zm0 7h18v4H73zm0 7h18v4H73zm0 7h18v4H73zm0 7h18v4H73zm0 7h18v4H73zm0 7h18v4H73zm20-42h8v4h-8zm0 7h8v4h-8zm0 7h8v4h-8zm0 7h8v4h-8zm0 7h8v4h-8zm0 7h8v4h-8zm0 7h8v4h-8zm10-42h8v4h-8zm0 7h8v4h-8zm0 7h8v4h-8zm0 7h8v4h-8zm0 7h8v4h-8zm0 7h8v4h-8zm0 7h8v4h-8z"/></g><rect fill="#94AFAF" height="49" rx="4" width="49" x="75" y="43"/><use height="49" transform="translate(75 43)" width="49" xlink:href="#a"/></svg>