<svg xmlns="http://www.w3.org/2000/svg" xmlns:xlink="http://www.w3.org/1999/xlink" viewBox="0 0 128 96"><defs><symbol id="a" viewBox="0 0 49 49"><path fill="none" d="M0 0h49v49H0z"/><path d="M35.886 27.75a.75.75 0 0 0 .75-.75v-5a.75.75 0 0 0-.75-.75h-4.772a.75.75 0 0 0-.75.75v1.75h-2.728V22a.75.75 0 0 0-.75-.75H25.25v-2.5h1.636a.75.75 0 0 0 .75-.75v-5a.75.75 0 0 0-.75-.75h-4.772a.75.75 0 0 0-.75.75v5c0 .414.336.75.75.75h1.636v2.5h-1.636a.75.75 0 0 0-.75.75v1.75h-2.728V22a.75.75 0 0 0-.75-.75h-4.772a.75.75 0 0 0-.75.75v5c0 .414.336.75.75.75h1.636v2.5h-1.636a.75.75 0 0 0-.75.75v5c0 .414.336.75.75.75h4.772a.75.75 0 0 0 .75-.75v-5a.75.75 0 0 0-.75-.75H16.25v-2.5h1.636a.75.75 0 0 0 .75-.75v-1.75h2.728V27c0 .414.336.75.75.75h1.636v5.75c0 .414.336.75.75.75h5.864V36c0 .414.336.75.75.75h4.772a.75.75 0 0 0 .75-.75v-5a.75.75 0 0 0-.75-.75H34.25v-2.5h1.636Zm-18.75 4v3.5h-3.272v-3.5h3.272Zm0-5.5h-3.272v-3.5h3.272v3.5Zm5.728-9v-3.5h3.272v3.5h-3.272Zm0 9v-3.5h3.272v3.5h-3.272Zm7.5 4.75v1.75H25.25v-5h1.636a.75.75 0 0 0 .75-.75v-1.75h2.728V27c0 .414.336.75.75.75h1.636v2.5h-1.636a.75.75 0 0 0-.75.75Zm4.772.75v3.5h-3.272v-3.5h3.272Zm-3.272-5.5v-3.5h3.272v3.5h-3.272Z" fill="#fff"/></symbol></defs><rect x="12" y="12" width="104" height="72" rx="1" ry="1" fill="#e6e3e0"/><path fill="#f1efed" d="M14 14h100v8H14z"/><path fill="#fcfbfa" d="M14 30h100v52H14z"/><rect x="96" y="24" width="8" height="4" rx=".5" ry=".5" fill="#fcfbfa"/><rect x="32" y="24" width="8" height="4" rx=".5" ry=".5" fill="#fcfbfa"/><rect x="106" y="24" width="8" height="4" rx=".5" ry=".5" fill="#fcfbfa"/><rect x="14" y="24" width="16" height="4" rx=".5" ry=".5" fill="#fcfbfa"/><path fill="#f1efed" d="M17 33h8v4h-8zm0 7h8v4h-8zm0 7h8v4h-8zm0 7h8v4h-8zm0 7h8v4h-8zm0 7h8v4h-8zm0 7h8v4h-8zm10-42h12v4H27zm0 7h12v4H27zm0 7h12v4H27zm0 7h12v4H27zm0 7h12v4H27zm0 7h12v4H27zm0 7h12v4H27zm14-42h12v4H41zm0 7h12v4H41zm0 7h12v4H41zm0 7h12v4H41zm0 7h12v4H41zm0 7h12v4H41zm0 7h12v4H41zm14-42h16v4H55zm0 7h16v4H55zm0 7h16v4H55zm0 7h16v4H55zm0 7h16v4H55zm0 7h16v4H55zm0 7h16v4H55zm18-42h18v4H73zm0 7h18v4H73zm0 7h18v4H73zm0 7h18v4H73zm0 7h18v4H73zm0 7h18v4H73zm0 7h18v4H73zm20-42h8v4h-8zm0 7h8v4h-8zm0 7h8v4h-8zm0 7h8v4h-8zm0 7h8v4h-8zm0 7h8v4h-8zm0 7h8v4h-8zm10-42h8v4h-8zm0 7h8v4h-8zm0 7h8v4h-8zm0 7h8v4h-8zm0 7h8v4h-8zm0 7h8v4h-8zm0 7h8v4h-8z"/><rect x="75" y="43" width="49" height="49" rx="4" ry="4" fill="#94afaf"/><use width="49" height="49" transform="translate(75 43)" xlink:href="#a"/></svg>