<svg viewBox="0 0 128 128" xmlns="http://www.w3.org/2000/svg"><path d="M92 105H39a2 2 0 0 1-2-2V29a2 2 0 0 1 2-2h41l14 14v62a2 2 0 0 1-2 2z" opacity=".1"/><path d="M92 103H39a2 2 0 0 1-2-2V27a2 2 0 0 1 2-2h41l14 14v62a2 2 0 0 1-2 2z" fill="#fff"/><path d="M80 25v12a2 2 0 0 0 2 2h12zM55 54h12v2H55zm0 20h8v2h-8zm3-16h12v2H58zm0 4h8v2h-8zm0 4h10v2H58zm14-8h16v2H72zm0 4h10v2H72zm0 4h14v2H72zM43 54h4v2h-4zm12-4h20v2H55zm22 0h4v2h-4zm-34 0h4v2h-4zm0 8h4v2h-4zm0 4h4v2h-4zm15 8h8v2h-8zm14 0h10v2H72zm-29 0h4v2h-4zm0-4h4v2h-4zm0 8h4v2h-4z" fill="#d7dbdd"/><path d="M90 97c0 1.1-.9 2-2 2H43c-1.1 0-2-.9-2-2V83c0-1.1.9-2 2-2h45c1.1 0 2 .9 2 2z" fill="#bdc3c7"/><path d="M53.312 91.252c0 .344.059.637.176.879.117.243.281.442.49.597.209.156.45.268.722.34.272.071.567.107.886.107.344 0 .636-.04.879-.12.242-.079.439-.182.59-.307.15-.126.259-.27.327-.433.067-.163.1-.329.1-.496 0-.344-.077-.597-.232-.761a1.333 1.333 0 0 0-.509-.345 10.758 10.758 0 0 0-1.112-.333 79.501 79.501 0 0 1-1.564-.409 3.33 3.33 0 0 1-.961-.396 2.286 2.286 0 0 1-.61-.547c-.15-.201-.257-.414-.32-.64s-.094-.456-.094-.691c0-.452.094-.844.282-1.175.189-.331.438-.605.748-.823s.662-.379 1.056-.484a4.604 4.604 0 0 1 1.193-.157c.469 0 .911.061 1.326.182a3.29 3.29 0 0 1 1.093.546c.314.243.563.543.748.899.184.356.276.768.276 1.238h-1.57c-.042-.578-.238-.987-.59-1.225s-.8-.358-1.344-.358c-.184 0-.373.019-.565.057-.193.038-.369.1-.528.189a1.15 1.15 0 0 0-.396.358.963.963 0 0 0-.157.565c0 .318.098.567.295.748.196.18.454.316.772.408l.396.107.772.207.836.22.584.156c.293.093.548.219.766.377.218.159.399.341.547.547.146.205.255.425.327.659.071.235.107.469.107.703 0 .503-.103.932-.307 1.288a2.627 2.627 0 0 1-.81.873 3.51 3.51 0 0 1-1.143.496 5.455 5.455 0 0 1-1.307.157c-.511 0-.992-.063-1.445-.188-.452-.126-.846-.318-1.181-.578s-.603-.593-.804-.999-.306-.886-.314-1.438zm16.192 2.953-.766.854-1.307-1.143c-.335.192-.683.33-1.043.414s-.716.126-1.068.126c-.67 0-1.271-.123-1.803-.37s-.982-.584-1.35-1.011a4.495 4.495 0 0 1-.848-1.495 5.527 5.527 0 0 1-.295-1.821c0-.636.098-1.24.295-1.81a4.5 4.5 0 0 1 .848-1.494 4.011 4.011 0 0 1 1.35-1.017c.532-.251 1.132-.377 1.803-.377s1.271.126 1.803.377.982.59 1.351 1.017c.368.427.651.925.847 1.494a5.5 5.5 0 0 1 .295 1.81 5.922 5.922 0 0 1-.301 1.858c-.1.302-.23.589-.39.861a3.123 3.123 0 0 1-.577.722zm-4.083-2.036.754-.866 1.093.955c.284-.344.485-.733.603-1.169a5.105 5.105 0 0 0 .02-2.588 3.485 3.485 0 0 0-.484-1.099 2.433 2.433 0 0 0-.848-.773c-.347-.192-.76-.289-1.238-.289-.477 0-.89.097-1.238.289-.347.192-.63.45-.848.773a3.461 3.461 0 0 0-.483 1.099c-.105.411-.157.83-.157 1.257s.052.846.157 1.256c.104.41.265.777.483 1.1.218.322.501.58.848.772.347.193.761.289 1.238.289.168 0 .337-.017.509-.05.171-.034.337-.088.496-.163zm6.706-6.896h1.57v7.612h4.561v1.357h-6.131z" fill="#fff"/><path d="M50 50h2v26h-2z" fill="#d7dbdd"/></svg>