<svg height="20" width="212" xmlns="http://www.w3.org/2000/svg"><g clip-rule="evenodd" fill-rule="evenodd"><path d="M95.091 5.799a1.336 1.336 0 1 1-2.67-.003 1.336 1.336 0 0 1 2.67.003zm-2.386-.006a1.048 1.048 0 1 0 2.098 0 1.049 1.049 0 1 0-2.098 0zm1.606-.328a.53.53 0 0 1-.016.124.41.41 0 0 1-.186.257c-.017.011-.025.019-.066.034l.346.622h-.336l-.305-.572h-.203v.572h-.292V5.005h.374c.208 0 .293.003.395.04.261.088.289.331.289.42zm-.407-.187c-.068-.026-.138-.026-.277-.026h-.082v.431h.188c.092-.002.191-.01.25-.094a.232.232 0 0 0 .034-.129.199.199 0 0 0-.113-.182zM66.447 15.99c-.317 0-.613-.123-.835-.344a1.121 1.121 0 0 1-.331-.794V4.111h2.279v9.786h10.629l-1.342 2.094h-10.4zm17.315-2.093h8.223l-1.34 2.093h-7.039c-3.271 0-5.929-2.657-5.929-5.938s2.657-5.941 5.929-5.941h8.192l-1.343 2.095-6.693-.001a3.838 3.838 0 0 0-3.693 2.803h11.094l-1.343 2.095h-9.75a3.837 3.837 0 0 0 3.692 2.794zm-27.744 0h8.225l-1.34 2.093h-7.038c-3.273 0-5.931-2.657-5.931-5.938s2.657-5.941 5.931-5.941h8.192l-1.342 2.095-6.697-.001a3.844 3.844 0 0 0-3.84 3.847 3.842 3.842 0 0 0 3.84 3.845zM36.61 15.99l-2.689.004 7.184-11.267c.304-.458.83-.734 1.402-.734.566 0 1.084.268 1.391.714l7.209 11.287-2.692-.004-1.262-2.096h-6.167L39.641 11.8h6.085l-3.214-5.19zm-16.759 0V4.111h9.979c2.214 0 4.009 1.799 4.009 4.017s-1.795 4.017-4.009 4.017l-1.044-.002 4.581 3.848h-3.313l-6.807-5.939 6.428.001c1.063 0 1.919-.862 1.919-1.924s-.855-1.923-1.919-1.923H22.13v9.786h-2.279zM12.708 4.111c3.275 0 5.929 2.66 5.929 5.941 0 3.282-2.654 5.942-5.929 5.942l-6.894-.004c-3.274 0-5.812-2.657-5.812-5.938s2.539-5.941 5.812-5.941zm-10.58 5.941a3.843 3.843 0 0 0 3.839 3.846h6.586a3.842 3.842 0 0 0 3.84-3.846 3.842 3.842 0 0 0-3.84-3.846l-6.586-.001a3.843 3.843 0 0 0-3.839 3.847z" fill="red"/><path d="M207.921 10.859c.206.081.438.15.696.206s.517.114.774.174c.275.061.544.134.807.22.262.086.494.2.696.342.202.143.365.32.49.535.125.216.188.482.188.801 0 .404-.084.739-.252 1.006s-.387.481-.658.646c-.271.163-.576.277-.916.342s-.677.097-1.013.097c-.37 0-.723-.039-1.058-.116a2.574 2.574 0 0 1-.891-.381 1.93 1.93 0 0 1-.619-.696c-.155-.288-.241-.639-.258-1.052h1.097c.008.241.064.445.167.613.104.167.239.301.407.399.167.1.356.17.567.213s.428.064.651.064c.172 0 .353-.013.542-.038.189-.026.363-.073.522-.143.159-.068.29-.169.394-.303s.155-.304.155-.51c0-.284-.108-.499-.323-.646a2.708 2.708 0 0 0-.806-.354c-.323-.09-.674-.172-1.052-.245-.379-.073-.729-.176-1.052-.31s-.592-.32-.807-.562c-.215-.24-.322-.576-.322-1.006 0-.336.075-.624.226-.865s.344-.437.581-.587c.236-.15.503-.263.8-.335a3.69 3.69 0 0 1 .884-.11c.378 0 .727.032 1.045.097s.6.176.846.335c.245.159.44.374.587.645.146.271.231.609.258 1.013h-1.097c-.018-.215-.073-.394-.168-.536s-.215-.256-.361-.342-.308-.148-.483-.187a2.479 2.479 0 0 0-.536-.058c-.163 0-.328.013-.496.039s-.321.071-.458.135c-.138.065-.25.151-.336.258s-.129.248-.129.419c0 .189.066.347.2.472.134.126.304.229.511.311zm-6.451 0c.206.081.438.15.696.206s.517.114.774.174c.275.061.544.134.807.22.262.086.494.2.696.342.202.143.365.32.49.535.125.216.188.482.188.801 0 .404-.084.739-.252 1.006s-.387.481-.658.646c-.271.163-.576.277-.916.342s-.677.097-1.013.097c-.37 0-.723-.039-1.058-.116a2.574 2.574 0 0 1-.891-.381 1.93 1.93 0 0 1-.619-.696c-.155-.288-.241-.639-.258-1.052h1.097c.008.241.064.445.167.613.104.167.239.301.407.399.167.1.356.17.567.213s.428.064.651.064c.172 0 .353-.013.542-.038.189-.026.363-.073.522-.143.159-.068.29-.169.394-.303s.155-.304.155-.51c0-.284-.108-.499-.323-.646a2.708 2.708 0 0 0-.806-.354c-.323-.09-.674-.172-1.052-.245-.379-.073-.729-.176-1.052-.31s-.592-.32-.807-.562c-.215-.24-.322-.576-.322-1.006 0-.336.075-.624.226-.865s.344-.437.581-.587c.236-.15.503-.263.8-.335a3.69 3.69 0 0 1 .884-.11c.378 0 .727.032 1.045.097s.601.176.845.335c.245.159.441.374.588.645.146.271.231.609.258 1.013h-1.097c-.018-.215-.073-.394-.168-.536s-.215-.256-.361-.342-.308-.148-.483-.187a2.479 2.479 0 0 0-.536-.058c-.163 0-.329.013-.496.039a1.688 1.688 0 0 0-.458.135c-.138.065-.25.151-.336.258s-.129.248-.129.419c0 .189.066.347.2.472.134.126.304.229.511.311zm-7.683 2.748c.172.202.392.363.658.483.267.121.58.181.941.181.465 0 .846-.107 1.142-.322.297-.215.493-.542.588-.98h1.083c-.146.748-.469 1.312-.967 1.69-.499.378-1.127.567-1.884.567-.534 0-.996-.086-1.388-.258s-.721-.413-.986-.723a3.07 3.07 0 0 1-.601-1.109 5.318 5.318 0 0 1-.226-1.406c0-.508.077-.973.232-1.395.154-.421.372-.787.651-1.096s.61-.55.993-.723a3.038 3.038 0 0 1 1.258-.258c.594 0 1.086.123 1.478.368s.705.557.942.936c.236.378.399.791.49 1.238.09.447.127.873.109 1.277h-4.993c-.009.293.025.57.104.832.079.264.204.496.376.698zm3.355-2.497a2.258 2.258 0 0 0-.174-.735c-.1-.232-.232-.432-.4-.6s-.365-.301-.594-.4a1.873 1.873 0 0 0-.755-.148c-.283 0-.539.049-.768.148-.228.099-.424.234-.587.406s-.292.373-.387.6-.15.471-.168.729zm-8.358 3.975V8.414h1.032V9.82h.026c.267-.542.594-.942.98-1.2.387-.258.877-.378 1.471-.361V9.42c-.438 0-.812.06-1.122.181s-.56.297-.749.529a2.194 2.194 0 0 0-.412.846c-.087.331-.13.711-.13 1.142v2.968h-1.096zm-7.295 2.541V8.414h1.097v.903h.025c.181-.37.465-.639.852-.807a3.194 3.194 0 0 1 1.277-.251c.517 0 .966.095 1.349.284s.701.445.955.768c.253.322.445.695.574 1.116.129.422.193.869.193 1.342 0 .474-.062.921-.188 1.342a3.167 3.167 0 0 1-.567 1.104 2.692 2.692 0 0 1-.955.742c-.383.18-.828.271-1.335.271a3.345 3.345 0 0 1-1.149-.22 2.386 2.386 0 0 1-.562-.315 1.788 1.788 0 0 1-.445-.497h-.025v3.432h-1.096zm1.174-4.935c.077.306.2.574.368.807.168.231.385.419.651.561.267.143.589.213.968.213.378 0 .694-.072.948-.219s.458-.34.613-.581c.154-.24.266-.516.335-.825a4.45 4.45 0 0 0 .104-.955c0-.31-.041-.613-.123-.91s-.206-.561-.374-.793-.383-.417-.646-.555a1.962 1.962 0 0 0-.922-.206c-.37 0-.684.073-.942.219s-.469.337-.632.574-.282.505-.354.807a3.871 3.871 0 0 0 .006 1.863zm-3.328 2.394-1.858-2.762-1.858 2.762h-1.328l2.503-3.51-2.322-3.161h1.406l1.6 2.335 1.664-2.335h1.316l-2.297 3.07 2.581 3.601zm-6.05-1.032v1.032h-6.399V5.872h6.36v1.032h-5.135v2.929h4.787v1.032h-4.787v3.188zm-17.639 1.032V8.414h1.032v1.058h.026c.455-.809 1.178-1.213 2.167-1.213.438 0 .805.06 1.097.181.293.121.529.288.71.503s.308.471.381.768c.072.297.109.625.109.987v4.387h-1.097v-4.517c0-.412-.121-.739-.361-.98-.241-.241-.572-.361-.993-.361-.336 0-.626.051-.871.155-.245.103-.449.25-.613.438a1.886 1.886 0 0 0-.367.664 2.696 2.696 0 0 0-.123.833v3.768zm-5.889-6.555c.404-.181.868-.271 1.394-.271.533 0 1 .09 1.399.271.4.181.737.428 1.013.742.275.314.482.684.62 1.11.137.426.206.884.206 1.374s-.069.946-.206 1.367c-.138.422-.345.79-.62 1.104s-.612.56-1.013.735c-.399.177-.866.265-1.399.265-.525 0-.989-.088-1.394-.265a2.855 2.855 0 0 1-1.02-.735 3.122 3.122 0 0 1-.619-1.104c-.138-.421-.207-.877-.207-1.367s.069-.948.207-1.374.344-.795.619-1.11a2.934 2.934 0 0 1 1.02-.742zm-.523 4.303c.107.314.256.576.445.787a1.9 1.9 0 0 0 .664.483c.254.112.522.168.807.168a1.973 1.973 0 0 0 1.471-.651c.189-.211.338-.473.445-.787.107-.313.161-.673.161-1.077s-.054-.764-.161-1.077c-.107-.314-.256-.579-.445-.794s-.411-.378-.665-.49c-.253-.111-.522-.167-.806-.167s-.553.056-.807.167a1.882 1.882 0 0 0-.664.49 2.312 2.312 0 0 0-.445.794c-.107.313-.161.673-.161 1.077s.054.764.161 1.077zm-2.565 2.252h-1.097V8.414h1.097zm-1.097-9.213h1.097v1.342h-1.097zm-2.196 7.961c.021.077.062.138.123.181s.144.071.252.084c.107.013.247.02.419.02h.503v.968h-.838c-.284 0-.527-.02-.729-.059-.202-.038-.365-.109-.49-.213s-.218-.249-.277-.438c-.061-.189-.091-.438-.091-.748V9.382h-1.135v-.968h1.135v-2h1.097v2h1.329v.968h-1.329v4.142c-.001.128.009.232.031.309zm-5.27-4.413a1.407 1.407 0 0 0-.478-.155 3.578 3.578 0 0 0-.522-.039c-.464 0-.852.088-1.161.264-.31.177-.478.51-.503 1h-1.097c.018-.413.104-.761.258-1.045.155-.284.361-.514.619-.69a2.6 2.6 0 0 1 .891-.38 4.662 4.662 0 0 1 1.058-.116c.302 0 .601.021.897.064s.565.131.806.265c.241.133.435.32.581.561s.22.555.22.942v3.432c0 .258.015.447.045.567.03.121.131.181.303.181.095 0 .207-.021.336-.064v.852c-.189.112-.452.168-.787.168-.284 0-.51-.08-.678-.238-.168-.159-.251-.42-.251-.781a2.634 2.634 0 0 1-1.052.781c-.4.158-.832.238-1.297.238-.301 0-.585-.032-.852-.097s-.501-.172-.703-.322-.361-.345-.478-.581-.174-.522-.174-.858c0-.378.064-.688.193-.929.129-.24.299-.437.51-.587s.451-.265.723-.342c.271-.077.548-.142.832-.193.301-.061.587-.105.857-.136.271-.03.51-.073.717-.129.206-.056.369-.138.49-.245.12-.107.181-.265.181-.472 0-.24-.046-.434-.136-.58a.919.919 0 0 0-.348-.336zm.472 2.22a1.35 1.35 0 0 1-.542.226c-.225.048-.458.086-.703.116s-.493.064-.742.104c-.25.038-.474.101-.671.187a1.233 1.233 0 0 0-.484.368c-.124.159-.187.376-.187.651a.89.89 0 0 0 .109.458.92.92 0 0 0 .284.304c.116.077.254.133.413.167.158.035.32.052.483.052.361 0 .671-.049.929-.148.259-.099.469-.224.633-.374.163-.15.283-.313.361-.49.077-.176.116-.342.116-.497V11.64zm-10.251 1.877c.155.229.357.411.606.549.25.138.547.206.891.206.542 0 .966-.142 1.271-.426.306-.283.493-.684.562-1.199h1.123c-.121.825-.429 1.462-.923 1.909-.495.447-1.168.671-2.02.671-.507 0-.957-.082-1.348-.245a2.614 2.614 0 0 1-.981-.696 3.017 3.017 0 0 1-.593-1.078c-.134-.417-.2-.875-.2-1.374s.064-.965.193-1.399.324-.813.587-1.136.592-.576.987-.761.855-.277 1.381-.277c.378 0 .732.045 1.064.135.331.09.623.23.877.419s.463.428.626.716.267.63.31 1.025h-1.136c-.086-.421-.267-.748-.542-.98s-.645-.348-1.109-.348c-.396 0-.727.073-.993.219-.267.146-.479.34-.639.581a2.44 2.44 0 0 0-.342.832 4.52 4.52 0 0 0-.104.974c0 .31.036.611.109.903.075.292.189.552.343.78zm-2.854 1.568h-1.097V8.414h1.097zm-1.097-9.213h1.097v1.342h-1.097zm-2.765 9.213V5.872h1.097v9.213zm-7.399 2.541V8.414h1.098v.903h.025c.181-.37.465-.639.852-.807a3.187 3.187 0 0 1 1.277-.251c.516 0 .966.095 1.349.284.382.189.7.445.954.768.254.322.445.695.574 1.116.129.422.193.869.193 1.342 0 .474-.062.921-.187 1.342a3.184 3.184 0 0 1-.567 1.104 2.692 2.692 0 0 1-.955.742c-.383.18-.828.271-1.336.271a3.343 3.343 0 0 1-1.149-.22 2.38 2.38 0 0 1-.561-.315 1.758 1.758 0 0 1-.445-.497h-.025v3.432h-1.097zm1.175-4.935c.077.306.2.574.367.807.168.231.385.419.652.561.266.143.589.213.967.213.379 0 .695-.072.949-.219.253-.146.458-.34.612-.581.155-.24.267-.516.336-.825a4.45 4.45 0 0 0 .103-.955c0-.31-.041-.613-.122-.91a2.468 2.468 0 0 0-.374-.793 1.84 1.84 0 0 0-.646-.555 1.97 1.97 0 0 0-.923-.206c-.369 0-.684.073-.941.219a1.876 1.876 0 0 0-.632.574 2.386 2.386 0 0 0-.355.807 3.87 3.87 0 0 0-.109.916c0 .326.039.642.116.947zm-8.547 4.935V8.414h1.097v.903h.025c.181-.37.465-.639.852-.807a3.194 3.194 0 0 1 1.277-.251c.517 0 .966.095 1.349.284s.701.445.955.768c.253.322.444.695.573 1.116.13.422.194.869.194 1.342 0 .474-.062.921-.188 1.342a3.184 3.184 0 0 1-.567 1.104 2.692 2.692 0 0 1-.955.742c-.383.18-.828.271-1.335.271a3.345 3.345 0 0 1-1.149-.22 2.366 2.366 0 0 1-.562-.315 1.758 1.758 0 0 1-.445-.497h-.025v3.432h-1.096zm1.174-4.935c.077.306.2.574.368.807.167.231.385.419.651.561.267.143.589.213.968.213.378 0 .694-.072.948-.219.253-.146.458-.34.612-.581.155-.24.267-.516.336-.825a4.45 4.45 0 0 0 .104-.955c0-.31-.041-.613-.123-.91s-.206-.561-.374-.793-.383-.417-.646-.555a1.962 1.962 0 0 0-.922-.206c-.37 0-.685.073-.942.219a1.876 1.876 0 0 0-.632.574 2.386 2.386 0 0 0-.355.807 3.923 3.923 0 0 0 .007 1.863zm-1.869 2.394h-1.354l-1.006-2.774h-3.896l-1.032 2.774h-1.251l3.587-9.213h1.354zm-4.31-8.103-1.562 4.296h3.123l-1.535-4.296z" fill="#231f20" opacity=".9"/></g></svg>