<svg viewBox="0 0 96 96" xmlns="http://www.w3.org/2000/svg" xmlns:xlink="http://www.w3.org/1999/xlink"><linearGradient id="b" gradientTransform="rotate(45.001 208.003 214.159)" gradientUnits="userSpaceOnUse" x1="-25.392" x2="-25.392" y1="246.436" y2="173.358"><stop offset=".8" stop-color="#fff"/><stop offset="1" stop-color="#fff" stop-opacity="0"/></linearGradient><linearGradient id="a"><stop offset="0" stop-color="#fff" stop-opacity="0"/><stop offset="1" stop-color="#fff"/></linearGradient><linearGradient id="c" gradientUnits="userSpaceOnUse" x1="48.654" x2="48.654" xlink:href="#a" y1="74.119" y2="20.688"/><linearGradient id="d" gradientUnits="userSpaceOnUse" x1="72.076" x2="23.804" xlink:href="#a" y1="72.196" y2="23.924"/><path d="M75.153 66.102 29.898 20.847a2.134 2.134 0 0 0-3.017 0l-6.034 6.034a2.134 2.134 0 0 0 0 3.017l45.255 45.255a2.134 2.134 0 0 0 3.017 0l6.034-6.034a2.134 2.134 0 0 0 0-3.017zM26 28a2 2 0 1 1 3.999-.001A2 2 0 0 1 26 28z" fill="#ffbe2a"/><path d="m57.051 48-9.05 9.05-1.509-1.508 9.051-9.05z" opacity=".08"/><path d="M57.995 30.463 30.249 58.209l-.018 7.56 7.56-.018 27.746-27.746-3.017-4.525z" fill="#1c7ed7"/><path d="m71.538 32.005 2.391-2.391c2.116-2.116 1.95-5.435-.229-7.513-2.119-2.02-5.524-1.819-7.595.251l-2.11 2.11 2.916 4.427z" fill="#f9422a"/><path d="m65.537 38.006-7.542-7.543 6.033-6.034 7.543 7.543z" fill="#bdc3c7"/><path d="M67.8 35.743 60.257 28.2l1.509-1.508 7.542 7.543z" opacity=".2"/><path d="M35.103 65.123a.338.338 0 0 1-.283-.283l-.433-2.871a.337.337 0 0 0-.283-.283l-2.867-.43a.337.337 0 0 1-.283-.283l-.459-3.012-.269.269a15.992 15.992 0 0 0-3.135 4.442l-2.541 5.183-.466 4.06 4.06-.466 5.183-2.541a15.995 15.995 0 0 0 4.442-3.136l.269-.269z" fill="#edae76"/><path d="m28.145 71.449-3.594-3.594-2.606 5.315a.667.667 0 0 0 .885.885z" fill="#39546f"/><path d="M57.995 30.463 30.249 58.209l-.018 7.56 7.56-.018 27.746-27.746-3.017-4.525z" fill="#1c7ed7"/><path d="m71.538 32.005 2.391-2.391c2.116-2.116 1.95-5.435-.229-7.513-2.119-2.02-5.524-1.819-7.595.251l-2.11 2.11 2.916 4.427z" fill="#f9422a"/><path d="m65.537 38.006-7.542-7.543 6.033-6.034 7.543 7.543z" fill="#bdc3c7"/><path d="M67 36.543 59.458 29l.975-.975 7.542 7.543zm2.134-2.133-7.543-7.543.976-.975 7.542 7.543zm-34.398-2.56-.754-.755 3.081-3.082.755.755z" opacity=".08"/><path d="m35.49 32.603-.754-.755 3.081-3.081.755.754z" fill="#fff" opacity=".16"/><path d="m37.284 37.597-.755-.754 4.682-4.682.755.755z" opacity=".08"/><path d="m38.039 38.351-.755-.754 4.682-4.682.755.754z" fill="#fff" opacity=".16"/><path d="m43.033 40.146-.755-.755 3.082-3.081.754.754z" opacity=".08"/><path d="m43.787 40.9-.754-.754 3.081-3.082.755.755z" fill="#fff" opacity=".16"/><path d="m54.255 54.568-.754-.754 4.681-4.682.755.754z" opacity=".08"/><path d="m55.009 55.322-.755-.754 4.682-4.682.754.754z" fill="#fff" opacity=".16"/><path d="m60.003 57.116-.754-.755 3.081-3.081.755.754z" opacity=".08"/><path d="m60.758 57.87-.755-.754 3.082-3.081.754.754z" fill="#fff" opacity=".16"/><path d="m62.552 62.865-.755-.755 4.682-4.682.755.755z" opacity=".08"/><path d="m63.306 63.62-.754-.755 4.681-4.682.755.754z" fill="#fff" opacity=".16"/><path d="m68.3 65.414-.754-.755 3.081-3.081.755.754z" opacity=".08"/><path d="m69.054 66.167-.754-.755 3.081-3.081.755.754z" fill="#fff" opacity=".16"/><path d="M35.103 65.123a.338.338 0 0 1-.283-.283l-.433-2.871a.337.337 0 0 0-.283-.283l-2.867-.43a.337.337 0 0 1-.283-.283l-.459-3.012-.269.269a15.992 15.992 0 0 0-3.135 4.442l-2.541 5.183-.466 4.06 4.06-.466 5.183-2.541a15.995 15.995 0 0 0 4.442-3.136l.269-.269z" fill="#edae76"/><path d="m28.145 71.449-3.594-3.594-2.606 5.315a.667.667 0 0 0 .885.885z" fill="#39546f"/><path d="m25.545 69.376 3.514-4.307a52.245 52.245 0 0 1 3.64-4.032l.022-.022 36.291-36.291c1.574-1.574 3.267-2.725 4.296-2.958-2.128-1.654-5.256-1.362-7.204.586L30.249 58.209l-.021.021a15.992 15.992 0 0 0-3.135 4.442l-2.541 5.183-2.606 5.315a.648.648 0 0 0 .018.597z" fill="url(#b)" opacity=".16"/><path d="M73.7 22.101c-2.119-2.021-5.524-1.819-7.595.251L30.249 58.209l-.021.021a15.992 15.992 0 0 0-3.135 4.442l-2.541 5.183-2.606 5.315a.667.667 0 0 0 .885.885l5.315-2.606 5.183-2.541a15.995 15.995 0 0 0 4.442-3.136l.021-.021 36.137-36.137c2.115-2.116 1.95-5.435-.229-7.513z" fill="url(#c)" opacity=".12"/><path d="M75.153 66.102 56.297 47.246l17.632-17.632c2.116-2.116 1.95-5.435-.229-7.513-2.119-2.021-5.524-1.819-7.595.251L48.754 39.703 29.898 20.847a2.134 2.134 0 0 0-3.017 0l-6.034 6.034a2.134 2.134 0 0 0 0 3.017l18.856 18.856-9.454 9.454-.021.021a15.992 15.992 0 0 0-3.135 4.442l-2.541 5.183-2.606 5.315a.667.667 0 0 0 .885.885l5.315-2.606 5.183-2.541a15.995 15.995 0 0 0 4.442-3.136l.021-.021 9.454-9.454 18.856 18.856a2.134 2.134 0 0 0 3.017 0l6.034-6.034a2.132 2.132 0 0 0 0-3.016zM28 30a2 2 0 1 1-.001-3.999A2 2 0 0 1 28 30z" fill="url(#d)" opacity=".12"/><path d="M0 0h96v96H0z" fill="none"/></svg>