<svg viewBox="0 0 128 128" xmlns="http://www.w3.org/2000/svg"><path d="M94.602 62.772c4.745-4.745 5.053-12.124 2.734-18.29L86.824 54.994zm0 0-7.47-7.47-9.192-9.192-2.43-2.43 11.926-11.926c-6.379-2.106-14.555-1.001-19.951 4.396-5.396 5.396-6.501 13.571-4.395 19.951L31.604 87.586c-3.124 3.124-3.132 8.198-.008 11.323 3.124 3.124 8.198 3.115 11.322-.009L74.38 67.438c7.05 2.849 14.615.941 20.012-4.455z" opacity=".1"/><path d="M94.602 60.772c4.745-4.745 5.053-12.124 2.734-18.29L86.824 52.994z" fill="#e5e7e9"/><path d="m94.602 60.772-7.47-7.47-9.192-9.192-2.43-2.43 11.926-11.926c-6.379-2.106-14.555-1.001-19.951 4.396-5.396 5.396-6.501 13.571-4.395 19.951L31.604 85.586c-3.124 3.124-3.132 8.198-.008 11.323 3.124 3.124 8.198 3.115 11.322-.009L74.38 65.438c7.05 2.849 14.615.941 20.012-4.455zM63.09 54.1 31.604 85.586c-3.124 3.124-3.132 8.198-.008 11.323 3.124 3.124 8.198 3.115 11.322-.009L74.38 65.438z" fill="#fff"/><path d="M63.087 56.932 33.019 87c-2.344 2.344-2.348 6.155-.008 8.495a5.959 5.959 0 0 0 4.238 1.753 5.98 5.98 0 0 0 4.255-1.762l30.05-30.051z" fill="#e5e7e9"/><circle cx="37.966" cy="90.55" fill="#bdc3c7" r="3"/><path d="M79.045 60.772a2.005 2.005 0 0 1-2.828 0l-8.485-8.485a2.005 2.005 0 0 1 0-2.828l2.828-2.828a2.005 2.005 0 0 1 2.828 0l8.485 8.485a2.005 2.005 0 0 1 0 2.828z" fill="#cacfd2"/><path d="m72.99 56.131-1.414-1.415 5.657-2.828 1.414 1.414zm-2.828-2.829-1.415-1.414 5.657-2.828 1.414 1.414zm5.656 5.657-1.414-1.414 5.657-2.829 1.414 1.415z" fill="#f2f3f4"/></svg>