<svg viewBox="0 0 64 64" xmlns="http://www.w3.org/2000/svg"><path d="M50 13H14a2 2 0 0 0-2 2v36a2 2 0 0 0 2 2h36a2 2 0 0 0 2-2V15a2 2 0 0 0-2-2zM19 49h-4v-4h4zm0-7h-4v-4h4zm0-7h-4v-4h4zm0-7h-4v-4h4zm0-7h-4v-4h4zm30 28h-4v-4h4zm0-7h-4v-4h4zm0-7h-4v-4h4zm0-7h-4v-4h4zm0-7h-4v-4h4z" opacity=".1"/><path d="M50 12H14a2 2 0 0 0-2 2v36a2 2 0 0 0 2 2h36a2 2 0 0 0 2-2V14a2 2 0 0 0-2-2zM19 48h-4v-4h4zm0-7h-4v-4h4zm0-7h-4v-4h4zm0-7h-4v-4h4zm0-7h-4v-4h4zm30 28h-4v-4h4zm0-7h-4v-4h4zm0-7h-4v-4h4zm0-7h-4v-4h4zm0-7h-4v-4h4z" fill="#3d566e"/><path d="M27 38V26l10 6z" fill="#fff"/></svg>