<svg viewBox="0 0 64 64" xmlns="http://www.w3.org/2000/svg"><circle cx="32" cy="22" opacity=".1" r="5"/><circle cx="46" cy="22" opacity=".1" r="5"/><circle cx="18" cy="22" opacity=".1" r="5"/><path d="m42.707 48.707-1.414-1.414L46.586 42l-5.293-5.293 1.414-1.414L49.414 42zm-21.414 0L14.586 42l6.707-6.707 1.414 1.414L17.414 42l5.293 5.293z" opacity=".1"/><circle cx="32" cy="21" fill="#92c8f4" r="5"/><g fill="#fff"><circle cx="46" cy="21" r="5"/><circle cx="18" cy="21" r="5"/><path d="m42.707 47.707-1.414-1.414L46.586 41l-5.293-5.293 1.414-1.414L49.414 41z"/></g><path d="M21.293 47.707 14.586 41l6.707-6.707 1.414 1.414L17.414 41l5.293 5.293z" fill="#92c8f4"/></svg>