<svg viewBox="0 0 64 64" xmlns="http://www.w3.org/2000/svg"><path d="M31.996 13.023c-1.451 0-2.903.952-4.004 2.858L11.701 44.073C9.499 47.883 11.298 51 15.698 51h32.608c4.4 0 6.198-3.117 3.996-6.926L36 15.88c-1.102-1.905-2.553-2.857-4.004-2.857z" opacity=".1"/><path d="M31.996 12.023c-1.451 0-2.903.952-4.004 2.858L11.701 43.073C9.499 46.883 11.298 50 15.698 50h32.608c4.4 0 6.198-3.117 3.996-6.926L36 14.88c-1.102-1.905-2.553-2.857-4.004-2.857z" fill="#ffbe2a"/><path d="M15.63 44.268c-.55.953-.1 1.732 1 1.732h30.744c1.1 0 1.549-.779.999-1.731l-15.375-26.59c-.551-.952-1.451-.952-2.002 0z" fill="#fff"/><circle cx="32" cy="41" fill="#4aa4ec" r="2"/><path d="M32 40c.931 0 1.706.639 1.929 1.5.042-.161.071-.326.071-.5a2 2 0 1 0-4 0c0 .174.029.339.071.5.223-.861.998-1.5 1.929-1.5z" opacity=".05"/><path d="M34 27a2 2 0 1 0-4 0v8a2 2 0 1 0 4 0z" fill="#4aa4ec"/><path d="M32 25a2 2 0 0 0-2 2v1a2 2 0 1 1 4 0v-1a2 2 0 0 0-2-2z" opacity=".05"/></svg>