<svg viewBox="0 0 128 96" xmlns="http://www.w3.org/2000/svg" xmlns:xlink="http://www.w3.org/1999/xlink"><symbol id="a" viewBox="0 0 49 49"><path d="M0 0h49v49H0z" fill="none"/><path d="M33.5 13.75h-12a3.755 3.755 0 0 0-3.75 3.75v9.25H12.5a.75.75 0 0 0-.75.75v4a3.755 3.755 0 0 0 3.75 3.75h12a3.755 3.755 0 0 0 3.75-3.75v-9.25h5.25a.75.75 0 0 0 .75-.75v-4a3.755 3.755 0 0 0-3.75-3.75zm-18 20a2.253 2.253 0 0 1-2.25-2.25v-3.25h10.5v3.25a3.728 3.728 0 0 0 .752 2.25zm14.25-2.25a2.25 2.25 0 0 1-4.5 0v-4a.75.75 0 0 0-.75-.75h-5.25V17.5a2.253 2.253 0 0 1 2.25-2.25h9.019a3.715 3.715 0 0 0-.769 2.25zm6-10.75h-4.5V17.5a2.25 2.25 0 0 1 4.5 0z" fill="#fff"/></symbol><rect fill="#e6e3e0" height="72" rx="1" width="104" x="12" y="11"/><path d="M14 23h100v22H14z" fill="#fcfbfa"/><path d="M26 29h8v2h-8zm-8 4h16v2H18zm4 4h12v2H22zm14-8h16v2H36zm0 4h8v2h-8zm0 4h12v2H36zm28-8h12v2H64zm4 4h8v2h-8zm0 4h8v2h-8zm10-8h16v2H78zm0 4h12v2H78zm0 4h20v2H78z" fill="#d2cdc7"/><path d="M14 13h100v8H14z" fill="#f1efed"/><path d="M14 57h32v24H14zm34 0h32v24H48z" fill="#fcfbfa"/><path d="M14 46.984h100v8H14z" fill="#f1efed"/><path d="M21 64h8v2h-8zm0 4h16v2H21zm0 4h12v2H21zm34-8h8v2h-8zM21 76h8v2h-8zm34 0h8v2h-8zm0-8h16v2H55zm0 4h12v2H55zM21 60h12v2H21zm34 0h12v2H55zm-4 0h2v2h-2z" fill="#d2cdc7"/><rect fill="#539b72" height="48" rx="4" width="48" x="76" y="43"/><rect fill="#477d8a" height="49" rx="4" width="49" x="75" y="42"/><path d="M17 60h2v2h-2z" fill="#d2cdc7"/><use height="49" transform="translate(75 42)" width="49" xlink:href="#a"/></svg>