<svg viewBox="0 0 128 96" xmlns="http://www.w3.org/2000/svg" xmlns:xlink="http://www.w3.org/1999/xlink"><symbol id="a" viewBox="0 0 49 49"><path d="M0 0h49v49H0z" fill="none"/><path d="M36.5 25.75h-10a.75.75 0 0 0-.75.75v10a.75.75 0 0 0 .75.75h10a.75.75 0 0 0 .75-.75v-10a.75.75 0 0 0-.75-.75zm-.75 10h-8.5v-8.5h8.5zm-18.25-10a5.75 5.75 0 1 0 5.75 5.75 5.757 5.757 0 0 0-5.75-5.75zm0 10a4.25 4.25 0 1 1 4.25-4.25 4.255 4.255 0 0 1-4.25 4.25zm1-12.5h12a.75.75 0 0 0 .643-1.136l-6-10a.78.78 0 0 0-1.286 0l-6 10a.75.75 0 0 0 .643 1.136zm6-9.292 4.675 7.792h-9.35z" fill="#fff"/></symbol><rect fill="#56504B" height="72" rx="1" width="104" x="12" y="12"/><path d="M14 14h100v8H14zm0 40h32v28H14zm34 0h32v28H48zm34 0h32v28H82z" fill="#403C38"/><path d="M22 62h8v2h-8zm0 4h16v2H22zm0 4h12v2H22zm34-8h8v2h-8zM22 74h8v2h-8zm34 0h8v2h-8zm0-8h16v2H56zm0 4h12v2H56zM22 58h12v2H22zm34 0h12v2H56zm-4 0h2v2h-2z" fill="#67605B"/><rect fill="#539B72" height="48" rx="4" width="48" x="76" y="44"/><path d="M18 58h2v2h-2z" fill="#67605B"/><path d="M14 24h32v28H14zm34 0h32v28H48z" fill="#403C38"/><path d="M22 32h8v2h-8zm0 4h16v2H22zm0 4h12v2H22zm34-8h8v2h-8zM22 44h8v2h-8zm34 0h8v2h-8zm0-8h16v2H56zm0 4h12v2H56zM22 28h12v2H22zm34 0h12v2H56zm-4 0h2v2h-2z" fill="#67605B"/><path d="M82 24h32v28H82z" fill="#403C38"/><path d="M90 32h8v2h-8zm0 4h16v2H90zm0 4h12v2H90zm0-12h12v2H90zm-4 0h2v2h-2zm-68 0h2v2h-2z" fill="#67605B"/><rect fill="#477D8A" height="48" rx="4" width="48" x="76" y="44"/><rect fill="#477D8A" height="49" rx="4" width="49" x="75" y="43"/><use height="49" transform="translate(75 43)" width="49" xlink:href="#a"/></svg>