<svg viewBox="0 0 64 64" xmlns="http://www.w3.org/2000/svg"><g opacity=".1"><path d="M48 52H16v-8a2 2 0 0 1 2-2h28a2 2 0 0 1 2 2z"/><path d="M44 52H20V24a2 2 0 0 1 2-2h20a2 2 0 0 1 2 2z"/><path d="M40 39.294H24V19.061c0-.912.466-1.76 1.235-2.25l5.333-3.394a2.666 2.666 0 0 1 2.863 0l5.333 3.394A2.665 2.665 0 0 1 40 19.061z"/></g><g fill="#fff"><path d="M48 51H16v-8a2 2 0 0 1 2-2h28a2 2 0 0 1 2 2z"/><path d="M44 51H20V23a2 2 0 0 1 2-2h20a2 2 0 0 1 2 2z"/><path d="M40 38.294H24V18.061c0-.912.466-1.76 1.235-2.25l5.333-3.394a2.666 2.666 0 0 1 2.863 0l5.333 3.394A2.665 2.665 0 0 1 40 18.061z"/></g><path d="M24 25h4v4h-4zm12 0h4v4h-4zm-6 0h4v4h-4zm-6 6h4v4h-4zm12 0h4v4h-4zm-6 0h4v4h-4zm-6 6h4v4h-4zm12 0h4v4h-4zm-6 0h4v4h-4zm-6 6h4v4h-4zm12 0h4v4h-4zm-6 0h4v8h-4zm-2-22a4 4 0 0 1 8 0z" fill="#cacfd2"/></svg>