<svg viewBox="0 0 128 96" xmlns="http://www.w3.org/2000/svg" xmlns:xlink="http://www.w3.org/1999/xlink"><symbol id="a" viewBox="0 0 49 49"><path d="M0 0h49v49H0z" fill="none"/><path d="M17.5 24.2A.7.7 0 0 0 18 23l-5.51-5.5 4.01-4.01 1.651 1.652-1 1a.5.5 0 0 0 .708.708l1-1 1.293 1.293-1 1a.5.5 0 0 0 .708.708l1-1L22.005 19a.7.7 0 0 0 .99-.99l-6-6a.7.7 0 0 0-.99 0l-5 5a.7.7 0 0 0 0 .99l6 6a.7.7 0 0 0 .495.2zm18.75-7.872a3.579 3.579 0 0 0-6.109-2.53l-15.17 15.17a6.788 6.788 0 0 0-1.63 2.638l-1.552 4.657a.75.75 0 0 0 .711.987.768.768 0 0 0 .237-.038l4.657-1.552a6.79 6.79 0 0 0 2.638-1.632L35.2 18.858a3.554 3.554 0 0 0 1.05-2.53zM16.919 34.236l-3.233 1.078 1.078-3.233a5.245 5.245 0 0 1 .513-1.1l2.738 2.738a5.217 5.217 0 0 1-1.096.517zm2.052-1.268c-.05.049-.105.092-.157.139l-2.922-2.922c.048-.051.09-.107.14-.157L28.57 17.49l2.94 2.939zM34.141 17.8l-1.924 1.924-2.94-2.939 1.923-1.927a2.079 2.079 0 0 1 3.548 1.47 2.094 2.094 0 0 1-.607 1.472zm2.889 14.17-6-6a.75.75 0 0 0-1.06 1.06l1.146 1.147-.97.969a.5.5 0 0 0 .708.708l.969-.97 1.293 1.293-.97.969a.5.5 0 0 0 .708.708l.969-.97 1.616 1.616-3.939 3.939-5.47-5.469a.75.75 0 0 0-1.06 1.06l6 6a.748.748 0 0 0 1.06 0l5-5a.749.749 0 0 0 0-1.06z" fill="#fff"/></symbol><rect fill="#e6e3e0" height="72" rx="1" width="104" x="12" y="12"/><path d="M40 64h48v18H40zM14 24h24v58H14zm76 0h24v10H90zm0 42h24v16H90zm0-30h24v28H90z" fill="#fcfbfa"/><path d="M20 28h12v2H20zm-4 0h2v2h-2zm8 6h10v2H24zm0 4h10v2H24zm0 4h10v2H24zm-4-8h2v2h-2zm0 4h2v2h-2zm0 4h2v2h-2zm4 4h10v2H24zm-4 0h2v2h-2zm0 12h2v2h-2zm0 4h2v2h-2zm0 4h2v2h-2zm0-14h12v2H20zm-4 0h2v2h-2zm8 6h10v2H24zm0 4h10v2H24zm0 4h10v2H24zm-4 4h2v2h-2zm4 0h10v2H24z" fill="#d2cdc7"/><path d="M14 14h100v8H14z" fill="#f1efed"/><rect fill="#d2cdc7" height="4" rx=".5" width="8" x="104" y="16"/><rect fill="#d2cdc7" height="4" rx=".5" width="8" x="94" y="16"/><g fill="#fcfbfa"><path d="M40 24h48v32H40z"/><rect height="4" rx=".5" width="8" x="40" y="58"/><rect height="4" rx=".5" width="8" x="50" y="58"/></g><rect fill="#477d8a" height="49" rx="4" width="49" x="75" y="43"/><use height="49" transform="translate(75 43)" width="49" xlink:href="#a"/></svg>