<svg viewBox="0 0 64 64" xmlns="http://www.w3.org/2000/svg"><path d="M50 51H14a2 2 0 0 1-2-2V23a2 2 0 0 1 2-2h36a2 2 0 0 1 2 2v26a2 2 0 0 1-2 2z" opacity=".1"/><path d="M50 50H14a2 2 0 0 1-2-2V22a2 2 0 0 1 2-2h36a2 2 0 0 1 2 2v26a2 2 0 0 1-2 2z" fill="#fff"/><path d="M34 26h-4a2 2 0 0 1-2-2V14a2 2 0 0 1 2-2h4a2 2 0 0 1 2 2v10a2 2 0 0 1-2 2zm-18 2h18v18H16zm22 5h10v2H38zm0 6h10v2H38z" fill="#bdc3c7"/><g fill="#3d566e"><circle cx="25" cy="34" r="3"/><path d="M31 44a6 6 0 1 0-12 0"/><circle cx="32" cy="16" r="2"/></g></svg>