<svg viewBox="0 0 64 64" xmlns="http://www.w3.org/2000/svg"><g opacity=".1"><circle cx="36" cy="31" r="6"/><path d="M40.619 41h-9.78c-1.584 0-4.637-5.084-5.756-6.919C22.674 30.133 21 27.046 21 19.839V13a1 1 0 0 0-2 0v3.675a3.546 3.546 0 0 0-1.514-.349c-1.92 0-3.486 1.574-3.486 3.51-.001 9.203 2.555 13.686 5.144 17.929C21.553 41.713 24 45.122 24 52.33V54h26v-2.894C50 45.701 45.979 41 40.619 41z"/></g><g fill="#fff"><circle cx="36" cy="30" r="6"/><path d="M40.619 40h-9.78c-1.584 0-4.637-5.084-5.756-6.919C22.674 29.133 21 26.046 21 18.839V12a1 1 0 0 0-2 0v3.675a3.546 3.546 0 0 0-1.514-.349c-1.92 0-3.486 1.574-3.486 3.51-.001 9.203 2.555 13.686 5.144 17.929C21.553 40.713 24 44.122 24 51.33V53h26v-2.894C50 44.701 45.979 40 40.619 40z"/></g></svg>