<svg viewBox="0 0 128 96" xmlns="http://www.w3.org/2000/svg" xmlns:xlink="http://www.w3.org/1999/xlink"><symbol id="a" viewBox="0 0 49 49"><path d="M0 0h49v49H0z" fill="none"/><path d="M24.5 11.75A12.75 12.75 0 1 0 37.25 24.5 12.765 12.765 0 0 0 24.5 11.75zm0 24A11.25 11.25 0 1 1 35.75 24.5 11.263 11.263 0 0 1 24.5 35.75z" fill="#fff"/><path d="m29.835 23.829-8-4a.75.75 0 0 0-1.085.671v8a.75.75 0 0 0 1.085.671l8-4a.75.75 0 0 0 0-1.342z" fill="#fff"/></symbol><rect fill="#e6e3e0" height="72" rx="1" width="104" x="12" y="11"/><path d="M40 63h48v18H40zM14 23h24v58H14zm76 0h24v10H90z" fill="#fcfbfa"/><path d="M90 65h24v16H90z" fill="#8b9dad"/><path d="M90 35h24v28H90z" fill="#fcfbfa"/><path d="M20 27h12v2H20zm-4 0h2v2h-2zm8 6h10v2H24zm0 4h10v2H24zm0 4h10v2H24zm-4-8h2v2h-2zm0 4h2v2h-2zm0 4h2v2h-2zm4 4h10v2H24zm-4 0h2v2h-2zm0 12h2v2h-2zm0 4h2v2h-2zm0 4h2v2h-2zm0-14h12v2H20zm-4 0h2v2h-2zm8 6h10v2H24zm0 4h10v2H24zm0 4h10v2H24zm-4 4h2v2h-2zm4 0h10v2H24z" fill="#d2cdc7"/><path d="M14 13h100v8H14z" fill="#f1efed"/><rect fill="#d2cdc7" height="4" rx=".5" width="8" x="104" y="15"/><rect fill="#d2cdc7" height="4" rx=".5" width="8" x="94" y="15"/><g fill="#fcfbfa"><path d="M40 23h48v32H40z"/><rect height="4" rx=".5" width="8" x="40" y="57"/><rect height="4" rx=".5" width="8" x="50" y="57"/></g><rect fill="#477d8a" height="49" rx="4" width="49" x="75" y="42"/><use height="49" transform="translate(75 42)" width="49" xlink:href="#a"/></svg>