<svg viewBox="0 0 64 64" xmlns="http://www.w3.org/2000/svg"><circle cx="32" cy="34" fill="#3d566e" r="6"/><path d="M32 29a5.998 5.998 0 0 1 5.975 5.5A6.34 6.34 0 0 0 38 34a6 6 0 1 0-12 0c0 .169.012.335.025.5A5.998 5.998 0 0 1 32 29z" opacity=".15"/><path d="M42 52c0-6-4.477-10-10-10s-10 4-10 10z" fill="#3d566e"/><path d="M32 43c5.209 0 9.484 3.561 9.953 9H42c0-6-4.477-10-10-10s-10 4-10 10h.047c.469-5.439 4.744-9 9.953-9z" opacity=".15"/><path d="M17.858 19.096C14.08 22.874 12.154 28 12.036 33H17.8c.172-4 1.516-6.877 4.066-9.427.079-.079.166-.271.246-.348 4.994-4.765 12.631-5.182 18.026-1.142l4.518-4.424c-7.859-6.433-19.495-5.866-26.798 1.437zM51.98 33c-.106-5-1.595-8.88-4.495-12.419l-4.518 4.643C44.67 27.498 45.582 30 45.722 33z" opacity=".1"/><path d="M17.858 18.096C14.08 21.874 12.154 27 12.036 32H17.8c.172-4 1.516-6.877 4.066-9.427.079-.079.166-.271.246-.348 4.994-4.765 12.631-5.182 18.026-1.142l4.518-4.424c-7.859-6.433-19.495-5.866-26.798 1.437z" fill="#ffbe2a"/><path d="M51.98 32c-.106-5-1.595-8.88-4.495-12.419l-4.518 4.643C44.67 26.498 45.582 29 45.722 32z" fill="#fff"/></svg>