<svg xmlns="http://www.w3.org/2000/svg" viewBox="0 0 128 96"><rect x="12" y="12" width="104" height="72" rx="1" fill="#e6e3e0"/><path fill="#fcfbfa" d="M14 24h100v58H14z"/><path fill="#f1efed" d="M14 14h100v8H14z"/><path fill="#d2cdc7" d="M35 37h12v2H35zm8 4h16v2H43zm-8 26H23v-2h12zm4-4H23v-2h16zm-4-30h40v2H35zm-17-5h8v2h-8zm0 42h8v2h-8zm25-21h24v2H43zm-4 16h19v2H39zm4-4h7v2h-7zm-4-18H23v-2h16zm0 8H23v-2h16zm-8-4h-8v-2h8zm4-2h20v2H35zm-4-6h-8v-2h8zm4 14h12v2H35zm-4 2h-8v-2h8zm0-20h-8v-2h8zm4 22h32v2H35zm-4 2h-8v-2h8z"/><rect x="75" y="43" width="49" height="49" rx="4" fill="#e3513c"/><path d="M92.53 62.47a.749.749 0 0 0-1.06 0l-4.5 4.5a.749.749 0 0 0 0 1.06l4.5 4.5a.75.75 0 0 0 1.06-1.06l-3.969-3.97 3.969-3.97a.749.749 0 0 0 0-1.06zm19.5 4.5-4.5-4.5a.75.75 0 0 0-1.06 1.06l3.969 3.97-3.969 3.97a.75.75 0 1 0 1.06 1.06l4.5-4.5a.749.749 0 0 0 0-1.06zm-7.195-10.141a.75.75 0 0 0-1.006.336l-10 20a.75.75 0 0 0 .336 1.006.75.75 0 0 0 1.006-.336l10-20a.75.75 0 0 0-.336-1.006z" fill="#fff"/></svg>