<svg viewBox="0 0 128 96" xmlns="http://www.w3.org/2000/svg" xmlns:xlink="http://www.w3.org/1999/xlink"><symbol id="a" viewBox="0 0 49 49"><path d="M0 0h49v49H0z" fill="none"/><path d="M25.006 12.76a12.748 12.748 0 0 0-7.549 23.365.75.75 0 0 0 .979-.131l2.03-2.317a1.25 1.25 0 0 1 .941-.427h6.186a1.25 1.25 0 0 1 .941.427l2.03 2.317a.753.753 0 0 0 .979.131A12.671 12.671 0 0 0 37.236 24.9a12.815 12.815 0 0 0-12.23-12.14zm6.242 21.74-1.586-1.81a2.753 2.753 0 0 0-2.069-.938h-6.186a2.753 2.753 0 0 0-2.069.938l-1.585 1.81a11.25 11.25 0 1 1 13.5 0z" fill="#fff"/><path d="m29.931 19.012-5.157 6.016A1.455 1.455 0 0 0 24.5 25a1.5 1.5 0 1 0 1.5 1.5 1.466 1.466 0 0 0-.09-.493l5.159-6.019a.75.75 0 1 0-1.138-.976zM32.5 24.25a.75.75 0 0 0-.75.75v1a.75.75 0 0 0 1.5 0v-1a.75.75 0 0 0-.75-.75zm-16 0a.75.75 0 0 0-.75.75v1a.75.75 0 0 0 1.5 0v-1a.75.75 0 0 0-.75-.75zm7.5-6h1a.75.75 0 0 0 0-1.5h-1a.75.75 0 0 0 0 1.5z" fill="#fff"/></symbol><rect fill="#56504B" height="72" rx="1" width="104" x="12" y="11"/><path d="M14 23h100v26H14zm0-10h100v8H14zm0 38h50v30H14zm52 0h48v30H66z" fill="#403C38"/><rect fill="#477D8A" height="49" rx="4" width="49" x="75" y="42"/><path d="M27 60h32v2H27zm0 10h16v2H27zm0-5h24v2H27zm0 10h8v2h-8zm-9-15h5v2h-5zm0 10h5v2h-5zm0-5h5v2h-5zm9-10h24v2H27zm-9 0h5v2h-5zm0 20h5v2h-5zm0-48h20v10H18zm24 0h20v10H42zm24 0h20v10H66zm24 0h20v10H90zM24 39h8v2h-8zm24 0h8v2h-8zm24 0h8v2h-8zm24 0h8v2h-8z" fill="#67605B"/><use height="49" transform="translate(75 42)" width="49" xlink:href="#a"/></svg>