<svg xmlns="http://www.w3.org/2000/svg" viewBox="0 0 128 96"><rect x="12.038" y="12.055" width="104" height="72" rx="1" transform="rotate(.062 64.715 48.02)" fill="#56504B"/><path fill="#403C38" d="m14.076 14 100 .108-.009 8-100-.108z"/><path fill="#67605B" d="m48.034 30 65.966.07-.035 31.93L48 61.928zm-.014 34 65.98.071-.02 17.93L48 81.928z"/><rect x="32.062" y="24.045" width="8" height="4" rx=".5" transform="rotate(.062 36.055 25.856)" fill="#67605B"/><rect x="14.062" y="24.01" width="16" height="4" rx=".5" transform="rotate(.062 22.193 25.864)" fill="#67605B"/><path fill="#67605B" d="m14.06 29.999 32 .032-.052 52-32-.032z"/><path fill="#9C9691" d="m22.05 40.01 8 .008-.002 2-8-.008zm-.006 3.999 16 .017-.002 2-16-.017zm.009-7.999 12 .013-.002 2-12-.013zm-4-.004 2 .002-.002 2-2-.002zm3.972 26.004 8 .008-.002 2-8-.008zm-.003 3.999 16 .017-.003 2-16-.017zM60.003 69 71 69.017 70.996 71 60 70.983zm7.995 6L60 74.983 60.002 73l7.998.017L67.998 75zM22.03 58.01l12 .013-.003 2-12-.013zm-4-.006 2 .003-.003 2-2-.003zm4.01-9.994 8 .008-.002 2-8-.008zm-.024 22 8 .008-.002 2-8-.008zm.021-18.001 16 .017-.002 2-16-.017zM79 36c-13.5 0-13.5 12-27 12v10h54V48c-13.5 0-13.5-12-27-12z"/><rect x="75.022" y="43.022" width="48.956" height="48.956" rx="4" transform="rotate(.062 99.842 67.407)" fill="#e3513c"/><path fill="#fff" d="M90.5 58.5h4v4h-4zm7 0h4v4h-4zm7 0h4v4h-4zm-14 7h4v4h-4zm7 0h4v4h-4zm7 0h4v4h-4zm-14 7h4v4h-4zm7 0h4v4h-4zm7 0h4v4h-4z"/><path d="M54 39.2c-.7 0-1.365.023-2 .058V46c5.733 0 8.6-2.334 11.748-5.12A25.4 25.4 0 0 0 54 39.2z" fill="#9C9691"/><circle cx="55" cy="72" r="3" fill="#9C9691"/></svg>