<svg viewBox="0 0 64 64" xmlns="http://www.w3.org/2000/svg"><path d="M32 29.723a6.328 6.328 0 0 1 6.072 4.566 6.332 6.332 0 0 0 4.278 4.276c2.709.716 4.71 3.174 4.71 6.108a6.327 6.327 0 0 1-10.078 5.097c-1.428-.977-3.141-1.546-4.982-1.546s-3.554.568-4.982 1.546a6.327 6.327 0 0 1-10.078-5.097c0-2.934 2-5.392 4.71-6.108a6.332 6.332 0 0 0 4.278-4.276A6.328 6.328 0 0 1 32 29.723zm-10.076-.705c1.116 2.924.109 5.959-2.251 6.777-2.36.819-5.178-.888-6.294-3.813s-.109-5.959 2.251-6.777 5.178.888 6.294 3.813zm8.894-8.421c.306 3.306-1.629 6.167-4.323 6.389s-5.126-2.277-5.433-5.583c-.306-3.306 1.629-6.167 4.323-6.389 2.694-.223 5.127 2.277 5.433 5.583zm11.258 8.421c-1.116 2.924-.109 5.959 2.251 6.777 2.36.819 5.178-.888 6.294-3.813 1.116-2.924.109-5.959-2.251-6.777s-5.178.888-6.294 3.813zm-8.894-8.421c-.306 3.306 1.629 6.167 4.323 6.389s5.126-2.277 5.433-5.583-1.629-6.167-4.323-6.389c-2.694-.223-5.127 2.277-5.433 5.583z" opacity=".1"/><path d="M32 28.723a6.328 6.328 0 0 1 6.072 4.566 6.332 6.332 0 0 0 4.278 4.276c2.709.716 4.71 3.174 4.71 6.108a6.327 6.327 0 0 1-10.078 5.097c-1.428-.977-3.141-1.546-4.982-1.546s-3.554.568-4.982 1.546a6.327 6.327 0 0 1-10.078-5.097c0-2.934 2-5.392 4.71-6.108a6.332 6.332 0 0 0 4.278-4.276A6.328 6.328 0 0 1 32 28.723zm-10.076-.705c1.116 2.924.109 5.959-2.251 6.777-2.36.819-5.178-.888-6.294-3.813s-.109-5.959 2.251-6.777 5.178.888 6.294 3.813zm8.894-8.421c.306 3.306-1.629 6.167-4.323 6.389s-5.126-2.277-5.433-5.583c-.306-3.306 1.629-6.167 4.323-6.389 2.694-.223 5.127 2.277 5.433 5.583zm11.258 8.421c-1.116 2.924-.109 5.959 2.251 6.777 2.36.819 5.178-.888 6.294-3.813 1.116-2.924.109-5.959-2.251-6.777s-5.178.888-6.294 3.813zm-8.894-8.421c-.306 3.306 1.629 6.167 4.323 6.389s5.126-2.277 5.433-5.583-1.629-6.167-4.323-6.389c-2.694-.223-5.127 2.277-5.433 5.583z" fill="#fff"/></svg>