<svg viewBox="0 0 128 96" xmlns="http://www.w3.org/2000/svg" xmlns:xlink="http://www.w3.org/1999/xlink"><symbol id="a" viewBox="0 0 49 49"><path d="M0 0h49v49H0z" fill="none"/><path d="M36.5 14.75h-24a.75.75 0 0 0-.75.75v18a.75.75 0 0 0 .75.75h24a.75.75 0 0 0 .75-.75v-18a.75.75 0 0 0-.75-.75zm-.75 6h-6.5v-4.5h6.5zm-14.5 6v-4.5h6.5v4.5zm6.5 1.5v4.5h-6.5v-4.5zm-8-1.5h-6.5v-4.5h6.5zm1.5-6v-4.5h6.5v4.5zm8 1.5h6.5v4.5h-6.5zm-9.5-6v4.5h-6.5v-4.5zm-6.5 12h6.5v4.5h-6.5zm16 4.5v-4.5h6.5v4.5z" fill="#fff"/></symbol><rect fill="#56504B" height="72" rx="1" width="104" x="12" y="11"/><path d="M40 63h48v18H40zM14 23h24v58H14zm76 0h24v10H90zm0 44h24v14H90zm0-32h24v30H90z" fill="#403C38"/><path d="M20 27h12v2H20zm-4 0h2v2h-2zm8 6h10v2H24zm0 4h10v2H24zm0 4h10v2H24zm-4-8h2v2h-2zm0 4h2v2h-2zm0 4h2v2h-2zm4 4h10v2H24zm-4 0h2v2h-2zm0 12h2v2h-2zm0 4h2v2h-2zm0 4h2v2h-2zm0-14h12v2H20zm-4 0h2v2h-2zm8 6h10v2H24zm0 4h10v2H24zm0 4h10v2H24zm-4 4h2v2h-2zm4 0h10v2H24z" fill="#67605B"/><path d="M14 13h100v8H14z" fill="#403C38"/><rect fill="#67605B" height="4" rx=".5" width="8" x="104" y="15"/><rect fill="#67605B" height="4" rx=".5" width="8" x="94" y="15"/><g fill="#403C38"><path d="M40 23h48v32H40z"/><rect height="4" rx=".5" width="8" x="40" y="57"/><rect height="4" rx=".5" width="8" x="50" y="57"/></g><rect fill="#477D8A" height="49" rx="4" width="49" x="75" y="42"/><use height="49" transform="translate(75 42)" width="49" xlink:href="#a"/></svg>