<svg viewBox="0 0 128 96" xmlns="http://www.w3.org/2000/svg" xmlns:xlink="http://www.w3.org/1999/xlink"><symbol id="a" viewBox="0 0 49 49"><path d="M0 0h49v49H0z" fill="none"/><path d="M36.038 17.017a.753.753 0 0 0-.483-.226.761.761 0 0 0-.583.216l-4.293 4.26a.251.251 0 0 1-.353 0l-2.589-2.589a.251.251 0 0 1 0-.354l4.293-4.294a.81.81 0 0 0-.048-1.108 3.971 3.971 0 0 0-2.828-1.172h-.825a7.58 7.58 0 0 0-7.579 7.578v3.344a1.258 1.258 0 0 1-.366.884L12.8 31.142a3.578 3.578 0 0 0 5.061 5.06l7.585-7.586a1.246 1.246 0 0 1 .885-.366h3.342a7.58 7.58 0 0 0 7.579-7.578v-.787a4.017 4.017 0 0 0-1.214-2.868zm-.288 3.655a6.077 6.077 0 0 1-6.079 6.078h-3.342a2.73 2.73 0 0 0-1.945.806L16.8 35.142a2.079 2.079 0 0 1-3.548-1.47 2.094 2.094 0 0 1 .609-1.47l7.585-7.586a2.729 2.729 0 0 0 .806-1.944v-3.344a6.077 6.077 0 0 1 6.079-6.078h.825a2.463 2.463 0 0 1 1.214.322l-3.691 3.691a1.752 1.752 0 0 0 0 2.474l2.588 2.589a1.753 1.753 0 0 0 2.47 0l3.7-3.667a2.507 2.507 0 0 1 .319 1.221z" fill="#fff"/></symbol><rect fill="#56504B" height="72" rx="1" width="104" x="12" y="11"/><path d="M14 23h100v58H14zm0-10h100v8H14z" fill="#403C38"/><g fill="#67605B"><rect height="8" rx=".5" width="8" x="19" y="28"/><rect height="8" rx=".5" width="8" x="19" y="48"/><path d="M29 29h24v2H29zm0 4h16v2H29z"/><rect height="8" rx=".5" width="8" x="60" y="28"/><path d="M70 29h24v2H70zm0 4h16v2H70z"/><rect height="8" rx=".5" width="8" x="60" y="48"/><path d="M70 49h12v2H70zm0 4h8v2h-8z"/><rect height="8" rx=".5" width="8" x="60" y="68"/><path d="M70 69h12v2H70zm0 4h8v2h-8zM29 49h24v2H29zm0 4h16v2H29z"/><rect height="8" rx=".5" width="8" x="19" y="68"/><path d="M29 69h24v2H29zm0 4h16v2H29z"/></g><rect fill="#477D8A" height="49" rx="4" width="49" x="75" y="42"/><use height="49" transform="translate(75 42)" width="49" xlink:href="#a"/></svg>