<svg viewBox="0 0 64 64" xmlns="http://www.w3.org/2000/svg"><path d="M50.988 47.655s-8.094-8.052-11.347-11.248a15.24 15.24 0 0 0 2.58-8.504c0-8.46-6.858-15.317-15.317-15.317s-15.317 6.858-15.317 15.317S18.445 43.22 26.904 43.22c3.122 0 6.021-.939 8.443-2.542l11.31 11.31a2.041 2.041 0 0 0 2.888 0l1.444-1.444a2.045 2.045 0 0 0-.001-2.889zM15.67 27.903c0-6.204 5.029-11.233 11.233-11.233s11.233 5.029 11.233 11.233-5.029 11.233-11.233 11.233S15.67 34.107 15.67 27.903z" opacity=".1"/><path d="M50.988 46.655s-8.094-8.052-11.347-11.248a15.24 15.24 0 0 0 2.58-8.504c0-8.46-6.858-15.317-15.317-15.317s-15.317 6.858-15.317 15.317S18.445 42.22 26.904 42.22c3.122 0 6.021-.939 8.443-2.542l11.31 11.31a2.041 2.041 0 0 0 2.888 0l1.444-1.444a2.045 2.045 0 0 0-.001-2.889zM15.67 26.903c0-6.204 5.029-11.233 11.233-11.233s11.233 5.029 11.233 11.233-5.029 11.233-11.233 11.233S15.67 33.107 15.67 26.903z" fill="#fff"/></svg>