<svg viewBox="0 0 64 64" xmlns="http://www.w3.org/2000/svg"><path d="M46 53H18a2 2 0 0 1-2-2V15a2 2 0 0 1 2-2h22l8 8v30a2 2 0 0 1-2 2z" opacity=".1"/><path d="M46 52H18a2 2 0 0 1-2-2V14a2 2 0 0 1 2-2h22l8 8v30a2 2 0 0 1-2 2z" fill="#fff"/><path d="M48 20h-6a2 2 0 0 1-2-2v-6" fill="#e5e7e9"/><path d="M37.707 26.293 29 17.586l-8.707 8.707 1.414 1.414L28 21.414V35h2V21.414l6.293 6.293z" fill="#4aa4ec"/><path d="m29 18.586 8.207 8.207.5-.5L29 17.586l-8.707 8.707.5.5z" opacity=".05"/><path d="M26.293 39.293 35 48l8.707-8.707-1.414-1.414L36 44.172V31h-2v13.172l-6.293-6.293z" fill="#24cb7f"/><path d="m36 45.172 6.293-6.293.914.914.5-.5-1.414-1.414L36 44.172zm-8.293-6.293L34 45.172v-1l-6.293-6.293-1.414 1.414.5.5zM34 31h2v1h-2z" opacity=".05"/></svg>