<svg xmlns="http://www.w3.org/2000/svg" viewBox="0 0 128 96"><rect x="12" y="12" width="104" height="72" rx="1" fill="#56504B"/><path fill="#67605B" d="M14 30h66v52H14zm68 0h32v52H82z"/><path fill="#9C9691" d="M27 38v4h-2v-4zm42 0v4h-2v-4zm11.981 36h4v2h-4zm7.623 0h4v2h-4zm7.622 0h4v2h-4zm7.623 0h4v2h-4z"/><path fill="#403C38" d="M14 14h100v8H14z"/><rect x="50" y="24" width="8" height="4" rx=".5" fill="#67605B"/><rect x="14" y="24" width="16" height="4" rx=".5" fill="#67605B"/><rect x="32" y="24" width="16" height="4" rx=".5" fill="#67605B"/><rect x="75" y="43" width="49" height="49" rx="4" fill="#e3513c"/><path d="M107 60.75h-2.25V55.5a.75.75 0 0 0-1.5 0v5.25h-7.5V55.5a.75.75 0 0 0-1.5 0v5.25H92a.75.75 0 0 0-.75.75v4.172a2.729 2.729 0 0 0 .806 1.944l2.828 2.828a1.258 1.258 0 0 1 .366.884V74.5a.75.75 0 0 0 .75.75h2.75v4.25a.75.75 0 0 0 1.5 0v-4.25H103a.75.75 0 0 0 .75-.75v-3.172a1.258 1.258 0 0 1 .366-.884l2.828-2.828a2.729 2.729 0 0 0 .806-1.944V61.5a.75.75 0 0 0-.75-.75zm-.75 4.922a1.258 1.258 0 0 1-.366.884l-2.828 2.828a2.729 2.729 0 0 0-.806 1.944v2.422h-5.5v-2.422a2.729 2.729 0 0 0-.806-1.944l-2.828-2.828a1.258 1.258 0 0 1-.366-.884V62.25h13.5z" fill="#fff"/><path fill="#9C9691" d="M25 38h4v2h-4zm7.979 0h4v2h-4zM41 38h4v2h-4zm8 0h4v2h-4zm8 0h4v2h-4zm8 0h4v2h-4zm2 36v-4h2v4zm-42 0v-4h2v4zm0-8v-4h2v4zm0-8v-4h2v4zm0-8v-4h2v4zm42 16v-4h2v4zm0-8v-4h2v4zm0-8v-4h2v4z"/><path fill="#9C9691" d="M69 74h-4v-2h4zm-8 0h-4v-2h4zm-7.978 0h-4v-2h4zM45 74h-4v-2h4zm-8 0h-4v-2h4zm-8 0h-4v-2h4z"/></svg>