<svg viewBox="0 0 64 64" xmlns="http://www.w3.org/2000/svg"><g fill="#3d566e"><circle cx="46" cy="40" r="4"/><path d="M52 52a6 6 0 1 0-12 0"/><circle cx="32" cy="40" r="4"/><path d="M38 52a6 6 0 1 0-12 0"/><circle cx="18" cy="40" r="4"/><path d="M24 52a6 6 0 1 0-12 0"/></g><path d="M48 14H16a4 4 0 0 0-4 4v9a4 4 0 0 0 4 4h3l7 7v-7h22a4 4 0 0 0 4-4v-9a4 4 0 0 0-4-4z" opacity=".1"/><path d="M52 26a4 4 0 0 1-4 4H16a4 4 0 0 1-4-4V16a4 4 0 0 1 4-4h32a4 4 0 0 1 4 4z" fill="#fff"/><path d="M26 28v8l-8-8z" fill="#fff"/><path d="M16 16h32v2H16zm0 8h32v2H16zm0-4h32v2H16z" fill="#e5e7e9"/></svg>