<svg viewBox="0 0 64 64" xmlns="http://www.w3.org/2000/svg"><path d="M51 20H13v-4a2 2 0 0 1 2-2h34a2 2 0 0 1 2 2z" fill="#f9422a"/><path d="M49 51H15a2 2 0 0 1-2-2V21h38v28a2 2 0 0 1-2 2z" opacity=".1"/><path d="M49 50H15a2 2 0 0 1-2-2V20h38v28a2 2 0 0 1-2 2z" fill="#fff"/><path d="M17 24h6v6h-6z" fill="#e5e7e9"/><path d="M25 24h6v6h-6z" fill="#ffbe2a"/><path d="M17 32h6v6h-6zm8 0h6v6h-6z" fill="#e5e7e9"/><path d="M17 40h6v6h-6z" fill="#ffbe2a"/><path d="M25 40h6v6h-6zm8-16h6v6h-6zm8 0h6v6h-6z" fill="#e5e7e9"/><path d="M33 32h6v6h-6z" fill="#f9422a"/><path d="M41 32h6v6h-6zm-8 8h6v6h-6zm8 0h6v6h-6z" fill="#e5e7e9"/><path d="M21 15c0 .55-.45 1-1 1s-1-.45-1-1v-2c0-.55.45-1 1-1s1 .45 1 1zm24 0c0 .55-.45 1-1 1s-1-.45-1-1v-2c0-.55.45-1 1-1s1 .45 1 1zm-8 0c0 .55-.45 1-1 1s-1-.45-1-1v-2c0-.55.45-1 1-1s1 .45 1 1zm-8 0c0 .55-.45 1-1 1s-1-.45-1-1v-2c0-.55.45-1 1-1s1 .45 1 1z" fill="#fff"/></svg>