<svg viewBox="0 0 128 96" xmlns="http://www.w3.org/2000/svg" xmlns:xlink="http://www.w3.org/1999/xlink"><symbol id="a" viewBox="0 0 49 49"><path d="M0 0h49v49H0z" fill="none"/><path d="M34.5 30.75a.75.75 0 0 0-.75.75v3.25h-18.5V31.5a.75.75 0 0 0-1.5 0v4a.75.75 0 0 0 .75.75h20a.75.75 0 0 0 .75-.75v-4a.75.75 0 0 0-.75-.75zm-10.53-.72a.748.748 0 0 0 1.06 0l6-6a.75.75 0 0 0-1.06-1.06l-4.72 4.719V13.5a.75.75 0 0 0-1.5 0v14.189l-4.72-4.719a.75.75 0 0 0-1.06 1.06z" fill="#fff"/></symbol><rect fill="#e6e3e0" height="72" rx="1" width="104" x="12" y="11"/><path d="M14 23h100v58H14z" fill="#fcfbfa"/><path d="M14 13h100v8H14z" fill="#f1efed"/><g fill="#d2cdc7"><rect height="8" rx=".5" width="8" x="20" y="29"/><path d="M30 29h16v2H30zm0 4h12v2H30z"/><rect height="8" rx=".5" width="8" x="51" y="29"/><path d="M61 29h16v2H61zm0 4h12v2H61z"/><rect height="8" rx=".5" width="8" x="20" y="66"/><path d="M30 66h16v2H30zm0 4h12v2H30z"/><rect height="8" rx=".5" width="8" x="51" y="66"/><path d="M61 66h16v2H61zm0 4h12v2H61z"/><rect height="8" rx=".5" width="8" x="20" y="48"/><path d="M30 48h16v2H30zm0 4h12v2H30z"/><rect height="8" rx=".5" width="8" x="51" y="48"/><path d="M61 48h16v2H61zm0 4h12v2H61z"/><rect height="8" rx=".5" width="8" x="82" y="29"/><path d="M92 29h16v2H92zm0 4h12v2H92z"/></g><rect fill="#e3513c" height="49" rx="4.083" width="49" x="75" y="42"/><use height="49" transform="translate(75 42)" width="49" xlink:href="#a"/></svg>