<svg viewBox="0 0 64 64" xmlns="http://www.w3.org/2000/svg"><path d="M12 16h19v4H12zm0 6h19v4H12zm0 6h19v4H12zm0 6h19v4H12zm0 6h19v4H12zm0 6h19v4H12zm21-30h19v4H33zm0 6h19v4H33zm0 6h19v4H33zm0 6h19v4H33zm0 6h19v4H33zm0 6h19v4H33z" opacity=".1"/><path d="M12 15h19v4H12zm0 6h19v4H12zm0 6h19v4H12z" fill="#ffbe2a"/><path d="M12 33h19v4H12zm0 6h19v4H12zm0 6h19v4H12z" fill="#bdc3c7"/><path d="M33 15h19v4H33zm0 6h19v4H33zm0 6h19v4H33z" fill="#f9422a"/><path d="M33 33h19v4H33zm0 6h19v4H33zm0 6h19v4H33z" fill="#4aa4ec"/></svg>