<svg xmlns="http://www.w3.org/2000/svg" viewBox="0 0 128 96"><rect x="12" y="11" width="104" height="72" rx="1" ry="1" fill="#e6e3e0"/><path fill="#fcfbfa" d="M14 23h24v58H14zm76 0h24v10H90zm0 44h24v14H90zm0-32h24v30H90z"/><path fill="#d2cdc7" d="M20 27h12v2H20zm-4 0h2v2h-2zm8 6h10v2H24zm0 4h10v2H24zm0 4h10v2H24zm-4-8h2v2h-2zm0 4h2v2h-2zm0 4h2v2h-2zm4 4h10v2H24zm-4 0h2v2h-2zm0 12h2v2h-2zm0 4h2v2h-2zm0 4h2v2h-2zm0-14h12v2H20zm-4 0h2v2h-2zm8 6h10v2H24zm0 4h10v2H24zm0 4h10v2H24zm-4 4h2v2h-2zm4 0h10v2H24z"/><path fill="#f1efed" d="M14 13h100v8H14z"/><rect x="104" y="15" width="8" height="4" rx=".5" ry=".5" fill="#d2cdc7"/><rect x="94" y="15" width="8" height="4" rx=".5" ry=".5" fill="#d2cdc7"/><path fill="#fcfbfa" d="M40 23h48v58H40z"/><path fill="none" stroke="#d2cdc7" stroke-miterlimit="10" stroke-width="1.5" d="M59 35h5v17h5m-7 17h-3m-6-25v-3m0 22v-3"/><path fill="#d2cdc7" d="m53 46 6 6-6 6-6-6z"/><circle cx="68" cy="69" r="4" fill="#d2cdc7"/><circle cx="75" cy="52" r="4" fill="#d2cdc7"/><rect x="75" y="42" width="49" height="49" rx="4" ry="4" fill="#477d8a"/><path d="M113.03 59.28a.75.75 0 0 0 0-1.061l-5.25-5.25a.75.75 0 0 0-1.061 0l-5.03 5.03h-6.015a4.25 4.25 0 0 0-4.174-3.5 4.255 4.255 0 0 0-4.25 4.25 4.249 4.249 0 0 0 3.5 4.174v7.326H88a.75.75 0 0 0-.75.75v7c0 .414.336.75.75.75h7a.75.75 0 0 0 .75-.75v-7a.75.75 0 0 0-.75-.75h-2.75v-7.326a4.246 4.246 0 0 0 3.424-3.424h6.015l4.811 4.811v6.015a4.249 4.249 0 0 0-3.5 4.174c0 2.344 1.907 4.25 4.25 4.25s4.25-1.906 4.25-4.25a4.249 4.249 0 0 0-3.5-4.174V64.31l5.03-5.03ZM94.25 77.25h-5.5v-5.5h5.5v5.5ZM91.5 61.5c-1.517 0-2.75-1.233-2.75-2.75S89.983 56 91.5 56s2.75 1.233 2.75 2.75-1.233 2.75-2.75 2.75Zm15.75-6.939 4.189 4.189-4.189 4.189-4.189-4.189 4.189-4.189ZM110 74.5c0 1.517-1.233 2.75-2.75 2.75s-2.75-1.233-2.75-2.75 1.233-2.75 2.75-2.75S110 72.983 110 74.5Z" fill="#fff"/><path fill="none" d="M75 42h49v49H75z"/><circle cx="53" cy="35" r="4" fill="#d2cdc7"/><path fill="#d2cdc7" d="M49 65h8v8h-8z"/></svg>