<svg viewBox="0 0 64 64" xmlns="http://www.w3.org/2000/svg"><g opacity=".1"><circle cx="17" cy="49" r="4"/><circle cx="17" cy="39" r="4"/><circle cx="27" cy="49" r="4"/><circle cx="37" cy="49" r="4"/><circle cx="27" cy="39" r="4"/><circle cx="17" cy="29" r="4"/><circle cx="47" cy="49" r="4"/><circle cx="47" cy="39" r="4"/><path d="M48 24.001 37 13 26 24.001l2.828 2.828L35 20.656V39h4V20.656l6.172 6.173z"/></g><circle cx="17" cy="48" fill="#ffbe2a" r="4"/><circle cx="17" cy="38" fill="#ffbe2a" r="4"/><circle cx="27" cy="48" fill="#4aa4ec" r="4"/><circle cx="37" cy="48" fill="#ffbe2a" r="4"/><circle cx="27" cy="38" fill="#ffbe2a" r="4"/><circle cx="17" cy="28" fill="#4aa4ec" r="4"/><circle cx="47" cy="48" fill="#ffbe2a" r="4"/><circle cx="47" cy="38" fill="#4aa4ec" r="4"/><path d="M48 23.001 37 12 26 23.001l2.828 2.828L35 19.656V38h4V19.656l6.172 6.173z" fill="#24cb7f"/></svg>