<svg viewBox="0 0 64 64" xmlns="http://www.w3.org/2000/svg"><path d="M43.644 32.656C48.398 31.447 52 27.09 52 22h-2a8.95 8.95 0 0 1-6.842 8.733c-1.269-4.023-3.885-7.186-7.158-8.634v-2.938c0-.358.193-.69.504-.868l5.992-3.424-.992-1.736-5.992 3.424A3.003 3.003 0 0 0 34 19.161v2.291c-.652-.137-1.317-.225-2-.225s-1.348.088-2 .225v-2.291a3.003 3.003 0 0 0-1.512-2.604l-5.992-3.424-.992 1.736 5.992 3.424a1 1 0 0 1 .504.868v2.938c-3.272 1.448-5.889 4.611-7.158 8.634A8.95 8.95 0 0 1 14 22h-2c0 5.09 3.602 9.447 8.356 10.656A18.604 18.604 0 0 0 20.009 36H12v2h8.091c.143 1.517.467 2.963.945 4.306C15.948 43.233 12 47.67 12 53h2c0-4.608 3.401-8.257 7.848-8.802 2.124 4.217 5.871 7.029 10.152 7.029s8.029-2.811 10.152-7.029C46.599 44.743 50 48.392 50 53h2c0-5.33-3.948-9.767-9.036-10.694.478-1.344.801-2.789.945-4.306H52v-2h-8.009a18.604 18.604 0 0 0-.347-3.344z" opacity=".1"/><path d="M14 52h-2c0-6 5-10.88 11-10.88v2c-5 0-9 3.88-9 8.88zm0-31h-2c0 6 5 11 11 11v-2c-5 0-9-4-9-9zm36 31h2c0-6-5-10.88-11-10.88v2c5 0 9 3.88 9 8.88zm0-31h2c0 6-5 11-11 11v-2c5 0 9-4 9-9zM12 35h40v2H12z" fill="#fff"/><ellipse cx="32" cy="35.227" fill="#d7dbdd" rx="12" ry="15"/><path d="M30 22h-2v-3.839c0-.358-.193-.69-.504-.868l-5.992-3.424.992-1.736 5.992 3.424A3.003 3.003 0 0 1 30 18.161zm6 0h-2v-3.839c0-1.074.579-2.072 1.512-2.604l5.992-3.424.992 1.736-5.992 3.424a1 1 0 0 0-.504.868z" fill="#fff"/><path d="m32 32.607 10.006-5.653C39.857 22.902 36.18 20.227 32 20.227s-7.857 2.675-10.006 6.727zm-5.042 16.217c1.535.891 3.239 1.402 5.042 1.402s3.508-.511 5.042-1.402L32 40z" fill="#fff"/></svg>