<svg viewBox="0 0 64 64" xmlns="http://www.w3.org/2000/svg"><g opacity=".15"><path d="M31.071 40.425c-.147 4.692-1.551 10.188-4.173 12.174 3.38.535 6.824.535 10.204 0-2.625-1.985-4.03-7.48-4.177-12.173-.617.028-1.236.028-1.854-.001z"/><path d="M44.365 26.113C39.225 23.066 34.517 18.887 32 13c-2.517 5.887-7.225 10.066-12.365 13.113-4.304 2.551-6.465 5.691-6.465 10.455 0 6.19 4.524 9.908 10.104 9.908 3.727 0 6.975-1.666 8.726-4.613 1.751 2.946 4.999 4.613 8.726 4.613 5.58 0 10.104-3.718 10.104-9.908 0-4.764-2.161-7.904-6.465-10.455z"/></g><g fill="#fff"><path d="M31.071 39.425c-.147 4.692-1.551 10.188-4.173 12.174 3.38.535 6.824.535 10.204 0-2.625-1.985-4.03-7.48-4.177-12.173-.617.028-1.236.028-1.854-.001z"/><path d="M44.365 25.113C39.225 22.066 34.517 17.887 32 12c-2.517 5.887-7.225 10.066-12.365 13.113-4.304 2.551-6.465 5.691-6.465 10.455 0 6.19 4.524 9.908 10.104 9.908 3.727 0 6.975-1.666 8.726-4.613 1.751 2.946 4.999 4.613 8.726 4.613 5.58 0 10.104-3.718 10.104-9.908 0-4.764-2.161-7.904-6.465-10.455z"/></g></svg>