<svg viewBox="0 0 64 64" xmlns="http://www.w3.org/2000/svg"><path d="M49 12H25a2 2 0 0 0-2 2v10H13a2 2 0 0 0-2 2v24a2 2 0 0 0 2 2h28a2 2 0 0 0 2-2V36h6a2 2 0 0 0 2-2V14a2 2 0 0 0-2-2z" opacity=".1"/><path d="M13 51h28a2 2 0 0 0 2-2V31H11v18a2 2 0 0 0 2 2z" fill="#fff"/><path d="M43 31H11v-6a2 2 0 0 1 2-2h30z" fill="#bdc3c7"/><path d="M23 35h26a2 2 0 0 0 2-2V13a2 2 0 0 0-2-2H25a2 2 0 0 0-2 2z" fill="#ffbe2a"/><path d="M23 35v6.827L33 32" fill="#ffbe2a"/><path d="M29 19h16v2H29zm0 6h16v2H29z" fill="#fff"/></svg>