<svg viewBox="0 0 64 64" xmlns="http://www.w3.org/2000/svg"><g opacity=".1"><circle cx="32" cy="23" r="5"/><path d="M52 31h-1.892a3.98 3.98 0 0 0-3.393 1.881l-2.984 4.775-4.031-4.607A6 6 0 0 0 35.185 31h-6.37c-1.73 0-3.375.747-4.516 2.049l-4.031 4.607-2.985-4.775A3.974 3.974 0 0 0 13.892 31H12a2 2 0 0 0 0 4l1.892.001 4.413 7.06a1.999 1.999 0 0 0 3.2.256L26 37.18V51h12V37.18l4.495 5.137a1.967 1.967 0 0 0 1.665.676c.631-.05 1.2-.396 1.536-.934L50.108 35H52a2 2 0 0 0 0-4zM10 15h12v12H10zm37 0-7 12h14z"/></g><circle cx="32" cy="22" fill="#fff" r="5"/><path d="M52 30h-1.892a3.98 3.98 0 0 0-3.393 1.881l-2.984 4.775-4.031-4.607A6 6 0 0 0 35.185 30h-6.37c-1.73 0-3.375.747-4.516 2.049l-4.031 4.607-2.985-4.775A3.974 3.974 0 0 0 13.892 30H12a2 2 0 0 0 0 4l1.892.001 4.413 7.06a1.999 1.999 0 0 0 3.2.256L26 36.18V50h12V36.18l4.495 5.137a1.967 1.967 0 0 0 1.665.676c.631-.05 1.2-.396 1.536-.934L50.108 34H52a2 2 0 0 0 0-4z" fill="#fff"/><path d="M10 14h12v12H10z" fill="#ffbe2a"/><path d="m47 14 7 12H40z" fill="#24cb7f"/></svg>