<svg viewBox="0 0 64 64" xmlns="http://www.w3.org/2000/svg"><path d="M52 23c0 1.1-.9 2-2 2H14c-1.1 0-2-.9-2-2v-8c0-1.1.9-2 2-2h36c1.1 0 2 .9 2 2z" fill="#3d566e"/><path d="M50 13H14c-1.1 0-2 .9-2 2v1c0-1.1.9-2 2-2h36c1.1 0 2 .9 2 2v-1c0-1.1-.9-2-2-2z" opacity=".1"/><circle cx="46" cy="20" opacity=".1" r="2"/><path d="M16 18h2v4h-2zm4 0h2v4h-2zm4 0h2v4h-2z" opacity=".1"/><circle cx="46" cy="19" fill="#24cb7f" r="2"/><path d="M16 17h2v4h-2zm4 0h2v4h-2zm4 0h2v4h-2z" fill="#bdc3c7"/><path d="M52 37c0 1.1-.9 2-2 2H14c-1.1 0-2-.9-2-2v-8c0-1.1.9-2 2-2h36c1.1 0 2 .9 2 2z" fill="#3d566e"/><path d="M50 27H14c-1.1 0-2 .9-2 2v1c0-1.1.9-2 2-2h36c1.1 0 2 .9 2 2v-1c0-1.1-.9-2-2-2z" opacity=".1"/><circle cx="46" cy="34" opacity=".1" r="2"/><path d="M16 32h2v4h-2zm4 0h2v4h-2zm4 0h2v4h-2z" opacity=".1"/><circle cx="46" cy="33" fill="#24cb7f" r="2"/><path d="M16 31h2v4h-2zm4 0h2v4h-2zm4 0h2v4h-2z" fill="#bdc3c7"/><path d="M52 51c0 1.1-.9 2-2 2H14c-1.1 0-2-.9-2-2v-8c0-1.1.9-2 2-2h36c1.1 0 2 .9 2 2z" fill="#3d566e"/><path d="M50 41H14c-1.1 0-2 .9-2 2v1c0-1.1.9-2 2-2h36c1.1 0 2 .9 2 2v-1c0-1.1-.9-2-2-2z" opacity=".1"/><circle cx="46" cy="48" opacity=".1" r="2"/><path d="M16 46h2v4h-2zm4 0h2v4h-2zm4 0h2v4h-2z" opacity=".1"/><circle cx="46" cy="47" fill="#24cb7f" r="2"/><path d="M16 45h2v4h-2zm4 0h2v4h-2zm4 0h2v4h-2z" fill="#bdc3c7"/></svg>