<svg viewBox="0 0 64 64" xmlns="http://www.w3.org/2000/svg"><path d="M41.5 38h-27a1.5 1.5 0 0 1-1.5-1.5V16h30v20.5a1.5 1.5 0 0 1-1.5 1.5z" opacity=".1"/><path d="M41.5 37h-27a1.5 1.5 0 0 1-1.5-1.5V15h30v20.5a1.5 1.5 0 0 1-1.5 1.5z" fill="#fff"/><path d="M43 15H13v-2.5a1.5 1.5 0 0 1 1.5-1.5h27a1.5 1.5 0 0 1 1.5 1.5z" fill="#f9422a"/><g fill="#3d566e"><path d="M35 51c0-4.571-3.582-8-8-8s-8 3.429-8 8z"/><circle cx="45" cy="36" r="5"/><path d="M53 51c0-4.571-3.582-8-8-8s-8 3.429-8 8z"/></g><path d="M17 19h6v6h-6zm0 8h6v6h-6zm8-8h6v6h-6zm0 8h6v6h-6zm8 0h6v6h-6zm0-8h6v6h-6z" fill="#e5e7e9"/><circle cx="27" cy="36" fill="#3d566e" r="5"/></svg>