<svg viewBox="0 0 64 64" xmlns="http://www.w3.org/2000/svg"><path d="M41.83 37.005c.707.734 1.753 1.019 2.778.859a6.533 6.533 0 0 1 4.675 1.031c1.858 1.255 2.806 3.292 2.711 5.327-.014.308-.371.485-.633.308l-3.811-2.575a.818.818 0 0 0-1.112.189l-2.29 3.155a.753.753 0 0 0 .196 1.073l3.811 2.575c.262.177.211.561-.084.679-1.95.782-4.257.62-6.115-.636-1.921-1.298-2.87-3.43-2.698-5.533.068-.831-.258-1.645-.846-2.255L24.17 26.995c-.707-.734-1.753-1.019-2.778-.859a6.533 6.533 0 0 1-4.675-1.031c-1.858-1.255-2.806-3.292-2.711-5.327.014-.308.371-.485.633-.308l3.811 2.575a.818.818 0 0 0 1.112-.189l2.29-3.155a.753.753 0 0 0-.196-1.073l-3.811-2.575c-.262-.177-.211-.561.084-.679 1.95-.782 4.257-.62 6.115.636 1.921 1.298 2.87 3.43 2.698 5.533-.068.831.259 1.646.847 2.256z" opacity=".12"/><path d="M41.83 36.005c.707.734 1.753 1.019 2.778.859a6.533 6.533 0 0 1 4.675 1.031c1.858 1.255 2.806 3.292 2.711 5.327-.014.308-.371.485-.633.308l-3.811-2.575a.818.818 0 0 0-1.112.189l-2.29 3.155a.753.753 0 0 0 .196 1.073l3.811 2.575c.262.177.211.561-.084.679-1.95.782-4.257.62-6.115-.636-1.921-1.298-2.87-3.43-2.698-5.533.068-.831-.258-1.645-.846-2.255L24.17 25.995c-.707-.734-1.753-1.019-2.778-.859a6.533 6.533 0 0 1-4.675-1.031c-1.858-1.255-2.806-3.292-2.711-5.327.014-.308.371-.485.633-.308l3.811 2.575a.818.818 0 0 0 1.112-.189l2.29-3.155a.753.753 0 0 0-.196-1.073l-3.811-2.575c-.262-.177-.211-.561.084-.679 1.95-.782 4.257-.62 6.115.636 1.921 1.298 2.87 3.43 2.698 5.533-.068.831.259 1.646.847 2.256z" fill="#cacfd2"/><path d="m49.586 14-3.183 1.569c-.487.24-.855.667-1.02 1.183l-.389 1.213a3.998 3.998 0 0 1-.981 1.607L27.901 35.685l-.716-.716c-1.27-1.27-1.807-1.039-2.134-.711-.444.444-.765 2.188-2.134 3.557-.849.849-3.728 2.305-4.982 3.559-3.323 3.323-6.311 7.913-4.266 9.957s6.634-.943 9.957-4.266c1.254-1.254 2.71-4.133 3.559-4.982 1.369-1.369 3.113-1.69 3.557-2.134.327-.327.559-.864-.711-2.134l-.716-.716 16.112-16.112a4.009 4.009 0 0 1 1.607-.981l1.213-.389a2.001 2.001 0 0 0 1.183-1.02L51 15.414z" opacity=".12"/><path d="M44.013 18.573 20.349 42.237l1.414 1.414 23.665-23.664a4.009 4.009 0 0 1 1.607-.981l1.213-.389a2.001 2.001 0 0 0 1.183-1.02L51 14.414 49.586 13l-3.183 1.569c-.487.24-.855.667-1.02 1.183l-.389 1.214a4.009 4.009 0 0 1-.981 1.607z" fill="#fff"/><path d="M30.031 36.814c1.27 1.27 1.039 1.807.711 2.134-.444.444-2.188.765-3.557 2.134-.849.849-2.305 3.728-3.559 4.982-3.323 3.323-7.913 6.311-9.957 4.266-2.045-2.045.943-6.634 4.266-9.957 1.254-1.254 4.133-2.71 4.982-3.559 1.369-1.369 1.69-3.113 2.134-3.557.327-.327.864-.559 2.134.711z" fill="#3d566e"/></svg>