<svg viewBox="0 0 64 64" xmlns="http://www.w3.org/2000/svg"><path d="M52 16a2 2 0 0 0-2-2H14a2 2 0 0 0-2 2v34a2 2 0 0 0 2 2h36a2 2 0 0 0 2-2z" opacity=".1"/><path d="M24 51H14a2 2 0 0 1-2-2v-6h12z" fill="#ffbe2a"/><path d="M26 43h12v8H26zm24 8H40v-8h12v6a2 2 0 0 1-2 2z" fill="#bdc3c7"/><path d="M12 23h12v8H12z" fill="#ffbe2a"/><path d="M26 23h12v8H26zm14 0h12v8H40z" fill="#bdc3c7"/><path d="M12 33h12v8H12z" fill="#ffbe2a"/><path d="M26 33h12v8H26zm14 0h12v8H40zM24 21H12v-6a2 2 0 0 1 2-2h10z" fill="#bdc3c7"/><path d="M26 13h12v8H26zm26 8H40v-8h10a2 2 0 0 1 2 2z" fill="#4aa4ec"/><g fill="#fff"><path d="M12 21h40v2H12zm0 10h40v2H12zm0 10h40v2H12z"/><path d="M24 13h2v38h-2zm14 0h2v38h-2z"/></g></svg>