<svg viewBox="0 0 128 96" xmlns="http://www.w3.org/2000/svg" xmlns:xlink="http://www.w3.org/1999/xlink"><symbol id="a" viewBox="-24.5 -24.5 49 49"><path d="M-24.5-24.5h49v49h-49z" fill="none"/><path d="m7.5-3.5-7-7c-.3-.3-.8-.3-1.1 0l-7 7c-.3.3-.3.8 0 1.1s.7.3 1 0l5.7-5.7V10c0 .4.3.8.8.8s.8-.3.8-.8V-8.2l5.7 5.7c.3.3.8.3 1.1 0s.3-.7 0-1z" fill="#fff"/></symbol><path d="M13 11h102c.6 0 1 .4 1 1v70c0 .6-.4 1-1 1H13c-.6 0-1-.4-1-1V12c0-.6.4-1 1-1z" fill="#e6e3e0"/><path d="M40 63h48v18H40zM14 23h24v58H14zm76 0h24v10H90z" fill="#fcfbfa"/><path d="M90 65h24v16H90z" fill="#8b9dad"/><path d="M90 35h24v28H90z" fill="#fcfbfa"/><path d="M20 27h12v2H20zm-4 0h2v2h-2zm8 6h10v2H24zm0 4h10v2H24zm0 4h10v2H24zm-4-8h2v2h-2zm0 4h2v2h-2zm0 4h2v2h-2zm4 4h10v2H24zm-4 0h2v2h-2zm0 12h2v2h-2zm0 4h2v2h-2zm0 4h2v2h-2zm0-14h12v2H20zm-4 0h2v2h-2zm8 6h10v2H24zm0 4h10v2H24zm0 4h10v2H24zm-4 4h2v2h-2zm4 0h10v2H24z" fill="#d2cdc7"/><path d="M14 13h100v8H14z" fill="#f1efed"/><path d="M104.5 15h7c.3 0 .5.2.5.5v3c0 .3-.2.5-.5.5h-7c-.3 0-.5-.2-.5-.5v-3c0-.3.2-.5.5-.5zm-10 0h7c.3 0 .5.2.5.5v3c0 .3-.2.5-.5.5h-7c-.3 0-.5-.2-.5-.5v-3c0-.3.2-.5.5-.5z" fill="#d2cdc7"/><path d="M40 23h48v32H40zm.5 34h7c.3 0 .5.2.5.5v3c0 .3-.2.5-.5.5h-7c-.3 0-.5-.2-.5-.5v-3c0-.3.2-.5.5-.5zm10 0h7c.3 0 .5.2.5.5v3c0 .3-.2.5-.5.5h-7c-.3 0-.5-.2-.5-.5v-3c0-.3.2-.5.5-.5z" fill="#fcfbfa"/><path d="M79 42h41c2.2 0 4 1.8 4 4v41c0 2.2-1.8 4-4 4H79c-2.2 0-4-1.8-4-4V46c0-2.2 1.8-4 4-4z" fill="#477d8a"/><use height="49" transform="rotate(180 49.75 33.25)" width="49" x="-24.5" xlink:href="#a" y="-24.5"/></svg>