<svg viewBox="0 0 64 64" xmlns="http://www.w3.org/2000/svg"><path d="M18 51c0 1.1.9 2 2 2h30c1.1 0 2-.9 2-2V25c0-1.1-.9-2-2-2H20c-1.1 0-2 .9-2 2z" opacity=".1"/><path d="M18 50c0 1.1.9 2 2 2h30c1.1 0 2-.9 2-2V23c0-1.1-.9-2-2-2H20c-1.1 0-2 .9-2 2z" fill="#d7dbdd"/><path d="M22 43h26v4H22zm0-6h26v4H22zm12-6h14v4H34zm0-6h14v4H34z" fill="#fff"/><path d="M32 34c0 1.1-.9 2-2 2H14c-1.1 0-2-.9-2-2V15c0-1.1.9-2 2-2h16c1.1 0 2 .9 2 2z" opacity=".1"/><path d="M32 33c0 1.1-.9 2-2 2H14c-1.1 0-2-.9-2-2V14c0-1.1.9-2 2-2h16c1.1 0 2 .9 2 2z" fill="#fff"/><circle cx="22" cy="20" fill="#4aa4ec" r="4"/><path d="M22 17c2.038 0 3.701 1.53 3.95 3.5.02-.166.05-.329.05-.5a4 4 0 0 0-8 0c0 .171.03.334.05.5.249-1.97 1.912-3.5 3.95-3.5z" opacity=".05"/><path d="M28 31a6 6 0 1 0-12 0" fill="#4aa4ec"/><path d="M22 26a5.996 5.996 0 0 1 5.91 5H28a6 6 0 1 0-12 0h.09A5.996 5.996 0 0 1 22 26z" opacity=".05"/></svg>