<svg viewBox="0 0 64 64" xmlns="http://www.w3.org/2000/svg"><path d="M32 11c-8.837 0-16 2.239-16 5v34c0 2.761 7.163 5 16 5s16-2.239 16-5V16c0-2.761-7.163-5-16-5z" opacity=".1"/><path d="M16 15h32v34H16z" fill="#4aa4ec"/><ellipse cx="32" cy="15" fill="#7cbdf1" rx="16" ry="5"/><ellipse cx="32" cy="49" fill="#4aa4ec" rx="16" ry="5"/><path d="M16 28.153c2.909 2.188 9.604 3.347 16 3.347s13.09-1.159 16-3.347v-1.39c-1.708 1.931-7.796 3.737-16 3.737s-14.292-1.806-16-3.738zm0 12c2.909 2.188 9.604 3.347 16 3.347s13.09-1.159 16-3.347v-1.39c-1.708 1.931-7.796 3.737-16 3.737s-14.292-1.806-16-3.738z" fill="#3f8dcc"/><path d="M33 29.993 36 17 22 36l9 .007L28 49l14-19z" opacity=".1"/><path d="M33 28.993 36 16 22 35l9 .007L28 48l14-19z" fill="#fff"/></svg>