<svg viewBox="0 0 128 128" xmlns="http://www.w3.org/2000/svg"><path d="m75.475 95-2.902-11H55.431L52.53 95H48v2h32v-2z" opacity=".08"/><path d="m75.475 93-2.902-11H55.431L52.53 93H48v2h32v-2z" fill="#fff"/><path d="M106 83c0 1.1-.9 2-2 2H24c-1.1 0-2-.9-2-2V37c0-1.1.9-2 2-2h80c1.1 0 2 .9 2 2z" opacity=".08"/><path d="M106 81c0 1.1-.9 2-2 2H24c-1.1 0-2-.9-2-2V35c0-1.1.9-2 2-2h80c1.1 0 2 .9 2 2z" fill="#fff"/><path d="M24 35h80v46H24z" fill="#64788b"/><path d="M90 73c0 1.1-.9 2-2 2H40c-1.1 0-2-.9-2-2V45c0-1.1.9-2 2-2h48c1.1 0 2 .9 2 2z" opacity=".08"/><path d="M90 72c0 1.1-.9 2-2 2H40c-1.1 0-2-.9-2-2V44c0-1.1.9-2 2-2h48c1.1 0 2 .9 2 2z" fill="#fff"/><path d="M40 44h48v4H40z" fill="#6eb6f0"/><path d="M70 61h4v7h-4z" fill="#fa6855" opacity=".8"/><path d="M76 59h4v9h-4z" fill="#24cb7f" opacity=".8"/><path d="M64 54h4v14h-4z" fill="#6eb6f0"/><path d="M82 56h4v12h-4z" fill="#ffcd00" opacity=".8"/><path d="M52 52.059v9.355l-6.614 6.614A8.96 8.96 0 0 0 51 70a9 9 0 0 0 9-9c0-4.632-3.501-8.443-8-8.941z" fill="#d7dbdd"/><path d="M50 60.586v-8.527c-4.499.498-8 4.309-8 8.941a8.96 8.96 0 0 0 1.972 5.614z" fill="#fa6855" opacity=".8"/></svg>