<svg viewBox="0 0 128 128" xmlns="http://www.w3.org/2000/svg"><path d="M67 60c0 1.1.9 2 2 2h32c1.1 0 2-.9 2-2V28c0-1.1-.9-2-2-2H69c-1.1 0-2 .9-2 2zm-6-32c0-1.1-.9-2-2-2H27c-1.1 0-2 .9-2 2v32c0 1.1.9 2 2 2h32c1.1 0 2-.9 2-2z" opacity=".12"/><path d="M67 59c0 1.1.9 2 2 2h32c1.1 0 2-.9 2-2V27c0-1.1-.9-2-2-2H69c-1.1 0-2 .9-2 2z" fill="#fff"/><path d="M69 27h32v32H69z" fill="#7ce0b2"/><path d="M103 70c0-1.1-.9-2-2-2H69c-1.1 0-2 .9-2 2v32c0 1.1.9 2 2 2h32c1.1 0 2-.9 2-2z" opacity=".12"/><path d="M103 69c0-1.1-.9-2-2-2H69c-1.1 0-2 .9-2 2v32c0 1.1.9 2 2 2h32c1.1 0 2-.9 2-2zM61 27c0-1.1-.9-2-2-2H27c-1.1 0-2 .9-2 2v32c0 1.1.9 2 2 2h32c1.1 0 2-.9 2-2z" fill="#fff"/><path d="M61 70c0-1.1-.9-2-2-2H27c-1.1 0-2 .9-2 2v32c0 1.1.9 2 2 2h32c1.1 0 2-.9 2-2z" opacity=".12"/><path d="M61 69c0-1.1-.9-2-2-2H27c-1.1 0-2 .9-2 2v32c0 1.1.9 2 2 2h32c1.1 0 2-.9 2-2z" fill="#fff"/><path d="M27 27h32v6H27z" fill="#fa6855" opacity=".8"/><path d="M27 69h32v32H27z" fill="#98d2f9"/><path d="m102 42-6.5-5-3.5 4-3.5-6L85 45l-3.5-4-3.5 8-3.5-4-6.5 5 1 9h32z" fill="#24cb7f"/><path d="m102 43-6.5-5-3.5 4-3.5-6L85 46l-3.5-4-3.5 8-3.5-4-6.5 5" fill="none" opacity=".08" stroke="#000" stroke-miterlimit="10" stroke-width="2"/><path d="m102 42-6.5-5-3.5 4-3.5-6L85 45l-3.5-4-3.5 8-3.5-4-6.5 5" fill="none" stroke="#fff" stroke-miterlimit="10" stroke-width="2"/><path d="M67 46h2v13h-2zm34-9h2v22h-2z" fill="#fff"/><path d="M69 69h32v32H69z" fill="#ffbe2a" opacity=".8"/><g opacity=".08"><ellipse cx="85" cy="84.773" rx="10" ry="8"/><path d="m82 92-7 4 3-6"/></g><g fill="#fff"><ellipse cx="85" cy="83.773" rx="10" ry="8"/><path d="m82 91-7 4 3-6"/></g><path d="M28 36h6v6h-6zm8 0h6v6h-6zm8 0h6v6h-6zm8 0h6v6h-6zm-24 8h6v6h-6zm8 0h6v6h-6zm8 0h6v6h-6zm8 0h6v6h-6zm-24 8h6v6h-6zm8 0h6v6h-6zm8 0h6v6h-6zm8 0h6v6h-6z" fill="#e5e7e9"/><path d="M27 69h32v32H27z" fill="#b7dbf7"/><path d="M57.5 101c-.154-.499-.668-1.021-1.128-1.273l-8.046-4.32c-.46-.251-1.101-.833-1.101-1.356 0-.499-.225-.806-1.225-.837v-2.12c1-.296 2.251-1.23 2.475-3.064.59.148 1.477-.715 1.888-2.148s.258-2.713-.332-2.861c-.158-.04-.402-.117-.58-.001.502-1.002 1.048-3.375 1.005-4.508-.173-4.56-3.114-6.512-7.523-6.512-2.223 0-4.107.919-5.041 2.304a.683.683 0 0 0-.257-.056c-1.079 0-2.131 1.758-2.131 4.458-.043 1.134.555 3.312 1.057 4.314-.178-.116-.42-.039-.577.001-.59.148-.735 1.428-.324 2.861.411 1.432 1.278 2.295 1.868 2.148.224 1.834 1.472 2.768 2.472 3.064v2.12c-1 .031-1.223.358-1.223.857 0 .523-.656 1.125-1.117 1.376l-8.037 4.28c-.46.251-.97.774-1.124 1.273z" fill="#64788b"/><path d="M50.032 83.022c-.095-.024-.222-.057-.347-.057a5.578 5.578 0 0 1-.233.556c.178-.116.422-.039.58.001.322.081.509.506.549 1.103.05-.857-.142-1.502-.549-1.603zm-12.397-8.273c.096 0 .164.022.257.056.935-1.385 2.819-2.304 5.041-2.304 4.379 0 7.306 1.929 7.516 6.422l.007-.41C50.283 73.952 47.342 72 42.933 72c-2.223 0-4.107.919-5.041 2.304a.683.683 0 0 0-.257-.056c-1.079 0-2.131 1.758-2.131 4.458l.006.24c.066-2.55 1.081-4.197 2.125-4.197zm9.59 19.302c0-.499-.225-.806-1.225-.837v.5c1 .031 1.225.338 1.225.837 0 .523.64 1.105 1.101 1.357l8.046 4.32c.305.167.632.453.864.773h.264c-.154-.499-.668-1.021-1.128-1.273l-8.046-4.32c-.46-.252-1.101-.834-1.101-1.357zm-17.601 6.176 8.037-4.28c.46-.251 1.116-.853 1.116-1.376 0-.499.223-.826 1.223-.857v-.5c-1 .031-1.223.358-1.223.857 0 .523-.656 1.125-1.116 1.376l-8.037 4.28c-.46.251-.97.774-1.124 1.273h.263c.231-.319.556-.606.861-.773zm6.359-16.705c.158-.04.4-.117.577-.001a6.933 6.933 0 0 1-.24-.556c-.122.002-.244.034-.337.057-.404.101-.594.74-.544 1.589.041-.59.225-1.009.544-1.089z" opacity=".08"/></svg>