<svg viewBox="0 0 128 128" xmlns="http://www.w3.org/2000/svg"><path d="M108 94c0 1.1-.9 2-2 2H22c-1.1 0-2-.9-2-2V38c0-1.1.9-2 2-2h84c1.1 0 2 .9 2 2z" opacity=".1"/><path d="M108 92c0 1.1-.9 2-2 2H22c-1.1 0-2-.9-2-2V36c0-1.1.9-2 2-2h84c1.1 0 2 .9 2 2z" fill="#fff"/><path d="M106 42v49a1 1 0 0 1-1 1H23a1 1 0 0 1-1-1V42z" fill="#92c8f4"/><path d="M67 66a1 1 0 0 1-1 1H34a1 1 0 0 1-1-1V48a1 1 0 0 1 1-1h32a1 1 0 0 1 1 1zm28 22a1 1 0 0 1-1 1H74a1 1 0 0 1-1-1V48a1 1 0 0 1 1-1h20a1 1 0 0 1 1 1zm-28 0a1 1 0 0 1-1 1H34a1 1 0 0 1-1-1V72a1 1 0 0 1 1-1h32a1 1 0 0 1 1 1z" opacity=".1"/><path d="M67 65a1 1 0 0 1-1 1H34a1 1 0 0 1-1-1V47a1 1 0 0 1 1-1h32a1 1 0 0 1 1 1zm28 22a1 1 0 0 1-1 1H74a1 1 0 0 1-1-1V47a1 1 0 0 1 1-1h20a1 1 0 0 1 1 1zm-28 0a1 1 0 0 1-1 1H34a1 1 0 0 1-1-1V71a1 1 0 0 1 1-1h32a1 1 0 0 1 1 1z" fill="#fff"/><path d="M35 48h30v16H35z" fill="#b7dbf7"/><path d="M44.93 51.488 35 60.775V64h23z" fill="#24cb7f" opacity=".8"/><circle cx="59" cy="54" fill="#fff2d4" r="3"/><path d="M77 50h14v2H77zm0 4h14v2H77zm0 4h14v2H77zm0 4h8v2h-8zm0 8h14v2H77zm0 4h14v2H77zm0 4h14v2H77zm0 4h8v2h-8z" fill="#e5e7e9"/><path d="M57 75h4v10h-4z" fill="#ffbe2a" opacity=".8"/><path d="M51 73h4v12h-4z" fill="#24cb7f" opacity=".8"/><path d="M45 77h4v8h-4z" fill="#fa6855" opacity=".8"/><path d="M39 73h4v12h-4z" fill="#6eb6f0"/></svg>