<svg viewBox="0 0 128 128" xmlns="http://www.w3.org/2000/svg"><path d="M37 99c-3.3 0-6-2.7-6-6V31c0-3.3 2.7-6 6-6h40c3.3 0 6 2.7 6 6v62c0 3.3-2.7 6-6 6z" opacity=".08"/><path d="M37 97c-3.3 0-6-2.7-6-6V29c0-3.3 2.7-6 6-6h40c3.3 0 6 2.7 6 6v62c0 3.3-2.7 6-6 6z" fill="#fff"/><path d="M33 91c0 2.2 1.8 4 4 4h40c2.2 0 4-1.8 4-4V29c0-2.2-1.8-4-4-4H37c-2.2 0-4 1.8-4 4z" fill="#64788b"/><path d="M78 86c0 .55-.45 1-1 1H37c-.55 0-1-.45-1-1V32c0-.55.45-1 1-1h40c.55 0 1 .45 1 1z" fill="#fbfbfb"/><circle cx="58" cy="91" fill="#8b9aa8" r="2"/><path d="M62 28c0 .55-.45 1-1 1h-6c-.55 0-1-.45-1-1s.45-1 1-1h6c.55 0 1 .45 1 1z" fill="#8b9aa8"/><path d="M75 107c-3.3 0-6-2.7-6-6V61c0-3.3 2.7-6 6-6h16c3.3 0 6 2.7 6 6v40c0 3.3-2.7 6-6 6z" opacity=".08"/><path d="M75 105c-3.3 0-6-2.7-6-6V59c0-3.3 2.7-6 6-6h16c3.3 0 6 2.7 6 6v40c0 3.3-2.7 6-6 6z" fill="#fff"/><path d="M71 99c0 2.2 1.8 4 4 4h16c2.2 0 4-1.8 4-4V59c0-2.2-1.8-4-4-4H75c-2.2 0-4 1.8-4 4z" fill="#64788b"/><path d="M73 61h20v36H73z" fill="#fff"/><circle cx="83.23" cy="100" fill="#8b9aa8" r="1"/><path d="M80 58c0 .55.45 1 1 1h4c.55 0 1-.45 1-1s-.45-1-1-1h-4c-.55 0-1 .45-1 1z" fill="#8b9aa8"/><path d="M58 43.029v9.355l-6.614 6.614a8.981 8.981 0 0 0 7.021 1.865c3.865-.589 6.973-3.745 7.505-7.618A9.002 9.002 0 0 0 58 43.029z" fill="#d2d2d4"/><path d="M56 51.557V43.03c-5 .498-8 4.309-8 8.941a8.96 8.96 0 0 0 1.972 5.614zM52 75h4v8h-4z" fill="#fa6855" opacity=".8"/><path d="M58 71h4v12h-4z" fill="#24cb7f" opacity=".8"/><path d="M46 67h4v16h-4z" fill="#6eb6f0"/><path d="M64 67h4v16h-4z" fill="#ffcd00" opacity=".8"/><path d="M38 33h38v4H38z" fill="#6eb6f0"/><path d="M84.203 73.94v7.363l-5.205 5.205a7.07 7.07 0 0 0 5.526 1.468c3.042-.463 5.488-2.947 5.906-5.996a7.085 7.085 0 0 0-6.227-8.04z" fill="#d2d2d4"/><path d="M83 80.651V73.94c-3 .392-6.482 3.391-6.482 7.037 0 1.672.676 3.206 1.645 4.418z" fill="#fa6855" opacity=".8"/><path d="M75 63h16v4H75z" fill="#6eb6f0"/></svg>