<svg viewBox="0 0 128 96" xmlns="http://www.w3.org/2000/svg" xmlns:xlink="http://www.w3.org/1999/xlink"><symbol id="a" viewBox="0 0 49 49"><path d="M0 0h49v49H0z" fill="none"/><path d="M24.5 11.75A12.75 12.75 0 1 0 37.25 24.5 12.765 12.765 0 0 0 24.5 11.75zm0 24A11.25 11.25 0 1 1 35.75 24.5 11.263 11.263 0 0 1 24.5 35.75z" fill="#fff"/><rect fill="#fff" height="9" rx="1" width="2" x="23.48" y="17.939"/><circle cx="24.48" cy="29.939" fill="#fff" r="1"/></symbol><rect fill="#e6e3e0" height="72" rx="1" width="104" x="12" y="11"/><path d="M14 23h100v58H14z" fill="#fcfbfa"/><path d="M14 13h100v8H14z" fill="#f1efed"/><rect fill="#d2cdc7" height="4" rx=".5" width="8" x="104" y="15"/><rect fill="#d2cdc7" height="4" rx=".5" width="8" x="94" y="15"/><rect fill="#e6ac58" height="49" rx="4" width="49" x="75" y="42"/><g fill="#d2cdc7"><path d="M35 30h36v2H35zm0 4h20v2H35zm-10.5-6a5.5 5.5 0 1 0 5.5 5.5 5.5 5.5 0 0 0-5.5-5.5zm2.646 4.249-3.209 3.209a.5.5 0 0 1-.708 0l-1.375-1.375a.5.5 0 0 1 .708-.707l1.021 1.024 2.855-2.855a.5.5 0 1 1 .708.707zM35 48h36v2H35zm0 4h20v2H35zm-10-6a6 6 0 1 0 6 6 6 6 0 0 0-6-6zm2.854 4.6-3.5 3.5a.5.5 0 0 1-.708 0l-1.5-1.5a.5.5 0 0 1 .708-.708L24 53.043l3.146-3.143a.5.5 0 0 1 .708.708zM35 66h36v2H35zm0 4h20v2H35z"/><circle cx="25" cy="70" r="6"/><circle cx="103" cy="31" r="2"/><path d="M101 34h4a2 2 0 0 1 2 2v2h-8v-2a2 2 0 0 1 2-2z"/></g><use height="49" transform="translate(75 42)" width="49" xlink:href="#a"/></svg>