<svg viewBox="0 0 128 128" xmlns="http://www.w3.org/2000/svg"><path d="M65.325 55.409a21.976 21.976 0 0 0 1.488-5.528c-.945-.303-1.926-.611-2.924-.921.135-1.291.144-2.604.006-3.924.993-.309 1.97-.615 2.911-.917a22.21 22.21 0 0 0-.556-2.814 22.006 22.006 0 0 0-.926-2.715c-.965.209-1.964.432-2.978.661a18.806 18.806 0 0 0-1.965-3.399c.708-.766 1.402-1.522 2.068-2.255a21.97 21.97 0 0 0-4.052-4.043c-.736.668-1.494 1.364-2.262 2.074a19.073 19.073 0 0 0-3.392-1.956c.231-1.021.455-2.026.666-2.998a21.98 21.98 0 0 0-5.527-1.488c-.303.945-.611 1.926-.921 2.924a18.848 18.848 0 0 0-3.924-.006c-.309-.993-.615-1.97-.917-2.911a22.21 22.21 0 0 0-2.814.556c-.938.251-1.841.565-2.715.926.209.965.432 1.964.661 2.978a18.84 18.84 0 0 0-3.399 1.965 360.702 360.702 0 0 0-2.255-2.068 21.97 21.97 0 0 0-4.043 4.052c.668.736 1.365 1.494 2.074 2.262a19.073 19.073 0 0 0-1.956 3.392 362.095 362.095 0 0 0-2.998-.666 21.98 21.98 0 0 0-1.488 5.527c.945.303 1.926.61 2.924.92a18.858 18.858 0 0 0-.006 3.925c-.993.309-1.97.615-2.911.917.125.937.305 1.877.556 2.814.251.938.565 1.841.926 2.715.965-.209 1.964-.432 2.978-.661a18.84 18.84 0 0 0 1.965 3.399c-.708.766-1.402 1.522-2.068 2.255a21.97 21.97 0 0 0 4.052 4.043c.736-.668 1.494-1.365 2.262-2.074a19.073 19.073 0 0 0 3.392 1.956 362.095 362.095 0 0 0-.666 2.998 21.976 21.976 0 0 0 5.528 1.488c.303-.945.611-1.926.92-2.923 1.291.135 2.604.144 3.925.006.309.993.615 1.97.917 2.911a22.21 22.21 0 0 0 2.814-.556 22.006 22.006 0 0 0 2.715-.926c-.209-.965-.432-1.964-.661-2.978a18.806 18.806 0 0 0 3.399-1.965c.766.708 1.522 1.402 2.255 2.068a21.97 21.97 0 0 0 4.043-4.052 336.391 336.391 0 0 0-2.074-2.262 19.073 19.073 0 0 0 1.956-3.392c1.02.231 2.026.456 2.997.666zm-15.242-3.605A6.972 6.972 0 0 0 52 47a7.02 7.02 0 0 0-.064-.899l8.873-1.446c.113.768.191 1.546.191 2.345a15.94 15.94 0 0 1-4.58 11.197zM33.58 58.197A15.94 15.94 0 0 1 29 47c0-.799.078-1.577.191-2.345l8.873 1.446A7.02 7.02 0 0 0 38 47c0 1.862.732 3.55 1.918 4.804zm8.764-26.959 1.367 8.885a7.007 7.007 0 0 0-4.857 3.524L30.822 39.6a16 16 0 0 1 11.522-8.362zM59.178 39.6l-8.032 4.048a7.007 7.007 0 0 0-4.857-3.524l1.367-8.885A15.996 15.996 0 0 1 59.178 39.6zM42 47a3 3 0 1 1 6 0 3 3 0 0 1-6 0zm3 16a15.91 15.91 0 0 1-7.117-1.686l4.119-7.996c.91.433 1.924.682 2.998.682s2.088-.249 2.998-.682l4.119 7.996A15.91 15.91 0 0 1 45 63z" opacity=".1"/><path d="M46 40h-2l-2-13h6z" fill="#fff"/><path d="M45 30c.855 0 1.688.088 2.504.226L48 27h-6l.496 3.226A14.975 14.975 0 0 1 45 30z" fill="#f2f3f4"/><path d="m40.554 42.504-.618 1.902-12.982-2.115 1.854-5.706z" fill="#fff"/><path d="M30.734 40.365c.264-.813.605-1.578.988-2.312l-2.914-1.469-1.854 5.706 3.221.525c.121-.818.295-1.637.559-2.45z" fill="#f2f3f4"/><path d="m41.252 48.457 1.618 1.176-6.023 11.693-4.854-3.527z" fill="#fff"/><path d="M36.183 57.135a15.005 15.005 0 0 1-1.893-1.654l-2.297 2.318 4.854 3.527 1.494-2.901a15.114 15.114 0 0 1-2.158-1.29z" fill="#f2f3f4"/><path d="m47.13 49.633 1.618-1.176 9.259 9.342-4.854 3.527z" fill="#fff"/><path d="M53.817 57.135a14.96 14.96 0 0 1-2.158 1.289l1.494 2.901 4.854-3.527-2.297-2.318a14.853 14.853 0 0 1-1.893 1.655z" fill="#f2f3f4"/><path d="m50.064 44.406-.618-1.902 11.746-5.919 1.854 5.706z" fill="#fff"/><path d="M59.266 40.365c.264.813.438 1.632.559 2.451l3.221-.525-1.854-5.706-2.914 1.469c.382.733.724 1.498.988 2.311z" fill="#f2f3f4"/><path d="M65.325 53.409a21.976 21.976 0 0 0 1.488-5.528c-.945-.303-1.926-.611-2.924-.921.135-1.291.144-2.604.006-3.924.993-.309 1.97-.615 2.911-.917a22.21 22.21 0 0 0-.556-2.814 22.006 22.006 0 0 0-.926-2.715c-.965.209-1.964.432-2.978.661a18.806 18.806 0 0 0-1.965-3.399c.708-.766 1.402-1.522 2.068-2.255a21.97 21.97 0 0 0-4.052-4.043c-.736.668-1.494 1.364-2.262 2.074a19.073 19.073 0 0 0-3.392-1.956c.231-1.021.455-2.026.666-2.998a21.98 21.98 0 0 0-5.527-1.488c-.303.945-.611 1.926-.921 2.924a18.848 18.848 0 0 0-3.924-.006c-.309-.993-.615-1.97-.917-2.911a22.21 22.21 0 0 0-2.814.556c-.938.251-1.841.565-2.715.926.209.965.432 1.964.661 2.978a18.84 18.84 0 0 0-3.399 1.965 360.702 360.702 0 0 0-2.255-2.068 21.97 21.97 0 0 0-4.043 4.052c.668.736 1.365 1.494 2.074 2.262a19.073 19.073 0 0 0-1.956 3.392 362.095 362.095 0 0 0-2.998-.666 21.98 21.98 0 0 0-1.488 5.527c.945.303 1.926.61 2.924.92a18.858 18.858 0 0 0-.006 3.925c-.993.309-1.97.615-2.911.917.125.937.305 1.877.556 2.814.251.938.565 1.841.926 2.715.965-.209 1.964-.432 2.978-.661a18.84 18.84 0 0 0 1.965 3.399c-.708.766-1.402 1.522-2.068 2.255a21.97 21.97 0 0 0 4.052 4.043c.736-.668 1.494-1.365 2.262-2.074a19.073 19.073 0 0 0 3.392 1.956 362.095 362.095 0 0 0-.666 2.998 21.976 21.976 0 0 0 5.528 1.488c.303-.945.611-1.926.92-2.923 1.291.135 2.604.144 3.925.006.309.993.615 1.97.917 2.911a22.21 22.21 0 0 0 2.814-.556 22.006 22.006 0 0 0 2.715-.926c-.209-.965-.432-1.964-.661-2.978a18.806 18.806 0 0 0 3.399-1.965c.766.708 1.522 1.402 2.255 2.068a21.97 21.97 0 0 0 4.043-4.052 336.391 336.391 0 0 0-2.074-2.262 19.073 19.073 0 0 0 1.956-3.392c1.02.231 2.026.456 2.997.666zM45 61c-8.837 0-16-7.163-16-16s7.163-16 16-16 16 7.163 16 16-7.163 16-16 16zm0-23a7 7 0 1 0 0 14 7 7 0 0 0 0-14zm0 10a3 3 0 1 1 0-6 3 3 0 0 1 0 6z" fill="#fff"/><path d="M107.147 59.484a63.4 63.4 0 0 0 2.966-.933c-.048-.609-.121-1.221-.229-1.835s-.249-1.214-.413-1.802c-.932.015-1.98.064-3.107.138a15.944 15.944 0 0 0-1.613-3.502 61.613 61.613 0 0 0 2.091-2.273c-.346-.503-.715-.997-1.116-1.475s-.823-.927-1.258-1.355a62.16 62.16 0 0 0-2.612 1.672 16.155 16.155 0 0 0-1.507-1.211c-.535-.374-1.088-.7-1.649-1 .268-1.094.497-2.115.674-3.028a19.223 19.223 0 0 0-1.703-.719 19.383 19.383 0 0 0-1.767-.544c-.45.81-.929 1.736-1.425 2.742a15.966 15.966 0 0 0-3.838-.317 63.4 63.4 0 0 0-.933-2.966c-.609.048-1.221.121-1.835.229s-1.214.249-1.802.413c.015.932.064 1.98.138 3.107a15.944 15.944 0 0 0-3.502 1.613 61.613 61.613 0 0 0-2.273-2.091c-.504.346-.997.715-1.475 1.116s-.927.823-1.355 1.258a62.16 62.16 0 0 0 1.672 2.612c-.426.475-.835.971-1.211 1.507-.374.535-.7 1.088-1 1.649a64.665 64.665 0 0 0-3.028-.674 19.223 19.223 0 0 0-.719 1.703 19.383 19.383 0 0 0-.544 1.767c.81.45 1.736.929 2.742 1.425a15.966 15.966 0 0 0-.317 3.838 63.4 63.4 0 0 0-2.966.933c.048.609.121 1.221.229 1.835s.249 1.214.413 1.802c.932-.015 1.98-.064 3.107-.138a15.944 15.944 0 0 0 1.613 3.502 61.613 61.613 0 0 0-2.091 2.273c.346.503.715.997 1.116 1.475s.823.927 1.258 1.355a62.16 62.16 0 0 0 2.612-1.672c.475.426.971.835 1.507 1.211.535.374 1.088.7 1.649 1a64.665 64.665 0 0 0-.674 3.028c.551.263 1.118.506 1.703.719.586.213 1.176.391 1.767.544.45-.81.929-1.736 1.425-2.742 1.27.267 2.558.361 3.838.317a63.4 63.4 0 0 0 .933 2.966c.609-.048 1.221-.121 1.835-.229s1.214-.249 1.802-.413a63.976 63.976 0 0 0-.138-3.107 15.944 15.944 0 0 0 3.502-1.613 61.613 61.613 0 0 0 2.273 2.091c.503-.346.997-.715 1.475-1.116s.927-.823 1.355-1.258a62.16 62.16 0 0 0-1.672-2.612c.426-.475.835-.971 1.211-1.507.374-.535.7-1.088 1-1.649 1.094.268 2.115.497 3.028.674.263-.551.506-1.118.719-1.703.213-.586.391-1.176.544-1.767-.81-.45-1.736-.929-2.742-1.425.268-1.27.361-2.558.317-3.838zM98.63 49.366c5.346 3.743 6.998 10.777 4.164 16.445l-6.919-4.143c.136-.387.242-.789.28-1.217.2-2.284-1.18-4.324-3.226-5.095l1.275-7.974a12.958 12.958 0 0 1 4.426 1.984zm-9.449 10.475a2 2 0 1 1 3.985.349 2 2 0 0 1-3.985-.349zm-8.656-7.282c2.364-3.376 6.042-5.276 9.858-5.511l-.129 8.074c-2.148.404-3.862 2.173-4.061 4.457-.037.428-.003.842.064 1.247l-7.539 2.881c-1.085-3.666-.557-7.773 1.807-11.148zm3.192 18.105a12.963 12.963 0 0 1-3.379-3.48l7.043-3.918a4.98 4.98 0 0 0 6.963.609l6.25 5.077c-4.356 4.602-11.531 5.456-16.877 1.712z" opacity=".1"/><path d="M91.435 55.027c.424.037.818.161 1.17.353l1.781-11.14-3.985-.349-.18 11.28c.38-.128.79-.182 1.214-.144z" fill="#fff"/><path d="M90.367 46.063c.609-.044 1.225-.058 1.853-.003s1.232.176 1.824.324l.343-2.145-3.985-.349z" fill="#f2f3f4"/><path d="M88.189 58.088 77.64 62.119l1.69 3.625 9.864-5.487a2.981 2.981 0 0 1-1.005-2.169zm5.911.517a2.98 2.98 0 0 1-1.367 1.962l8.761 7.117 2.294-3.277z" fill="#fff"/><path d="M81.228 64.689a11.7 11.7 0 0 1-.93-1.603 11.625 11.625 0 0 1-.63-1.742l-2.028.775 1.69 3.625zm20.698-1.397c-.267.549-.561 1.09-.923 1.607s-.769.978-1.194 1.417l1.685 1.369 2.294-3.277z" fill="#f2f3f4"/><path d="M91.609 53.034a5 5 0 1 0-.872 9.962 5 5 0 0 0 .872-9.962zm-.61 6.974a2 2 0 1 1 .349-3.985 2 2 0 0 1-.349 3.985zm16.148-2.524a63.4 63.4 0 0 0 2.966-.933c-.048-.609-.121-1.221-.229-1.835s-.249-1.214-.413-1.802c-.932.015-1.98.064-3.107.138a15.944 15.944 0 0 0-1.613-3.502 61.613 61.613 0 0 0 2.091-2.273c-.346-.503-.715-.997-1.116-1.475s-.823-.927-1.258-1.355a62.16 62.16 0 0 0-2.612 1.672 16.155 16.155 0 0 0-1.507-1.211c-.535-.374-1.088-.7-1.649-1 .268-1.094.497-2.115.674-3.028a19.223 19.223 0 0 0-1.703-.719 19.383 19.383 0 0 0-1.767-.544c-.45.81-.929 1.736-1.425 2.742a15.966 15.966 0 0 0-3.838-.317 63.4 63.4 0 0 0-.933-2.966c-.609.048-1.221.121-1.835.229s-1.214.249-1.802.413c.015.932.064 1.98.138 3.107a15.944 15.944 0 0 0-3.502 1.613 61.613 61.613 0 0 0-2.273-2.091c-.503.346-.997.715-1.475 1.116s-.927.823-1.355 1.258a62.16 62.16 0 0 0 1.672 2.612c-.426.475-.835.971-1.211 1.507-.374.535-.7 1.088-1 1.649a64.665 64.665 0 0 0-3.028-.674 19.223 19.223 0 0 0-.719 1.703 19.383 19.383 0 0 0-.544 1.767c.81.45 1.736.929 2.742 1.425a15.966 15.966 0 0 0-.317 3.838 63.4 63.4 0 0 0-2.966.933c.048.609.121 1.221.229 1.835s.249 1.214.413 1.802c.932-.015 1.98-.064 3.107-.138a15.944 15.944 0 0 0 1.613 3.502 61.613 61.613 0 0 0-2.091 2.273c.346.503.715.997 1.116 1.475s.823.927 1.258 1.355a62.16 62.16 0 0 0 2.612-1.672c.475.426.971.835 1.507 1.211.535.374 1.088.7 1.649 1a64.665 64.665 0 0 0-.674 3.028c.551.263 1.118.506 1.703.719.586.213 1.176.391 1.767.544.45-.81.929-1.736 1.425-2.742 1.27.267 2.558.361 3.838.317a63.4 63.4 0 0 0 .933 2.966c.609-.048 1.221-.121 1.835-.229s1.214-.249 1.802-.413a63.976 63.976 0 0 0-.138-3.107 15.944 15.944 0 0 0 3.502-1.613 61.613 61.613 0 0 0 2.273 2.091c.503-.346.997-.715 1.475-1.116s.927-.823 1.355-1.258a62.16 62.16 0 0 0-1.672-2.612c.426-.475.835-.971 1.211-1.507.374-.535.7-1.088 1-1.649 1.094.268 2.115.497 3.028.674.263-.551.506-1.118.719-1.703.213-.586.391-1.176.544-1.767-.81-.45-1.736-.929-2.742-1.425.268-1.27.361-2.558.317-3.838zm-23.43 11.18c-5.881-4.118-7.311-12.224-3.192-18.105 4.118-5.881 12.224-7.311 18.105-3.193s7.311 12.224 3.192 18.105c-4.118 5.882-12.224 7.311-18.105 3.193z" fill="#fff"/><path d="M61.321 108.83a64.084 64.084 0 0 0 1.425 2.742c.591-.153 1.181-.331 1.767-.544s1.152-.456 1.703-.719a63.415 63.415 0 0 0-.674-3.028c.561-.3 1.114-.626 1.649-1a15.994 15.994 0 0 0 1.507-1.211 62.16 62.16 0 0 0 2.612 1.672c.436-.428.858-.877 1.258-1.355.401-.478.77-.971 1.116-1.475a62.432 62.432 0 0 0-2.091-2.273 15.944 15.944 0 0 0 1.613-3.502c1.127.074 2.175.123 3.107.138.163-.589.304-1.189.413-1.802.108-.614.181-1.226.229-1.835a63.778 63.778 0 0 0-2.966-.933c.044-1.28-.05-2.568-.317-3.838a64.084 64.084 0 0 0 2.742-1.425c-.153-.591-.331-1.181-.544-1.767s-.456-1.152-.719-1.703c-.913.176-1.934.406-3.028.674-.3-.561-.626-1.114-1-1.649a15.994 15.994 0 0 0-1.211-1.507 62.16 62.16 0 0 0 1.672-2.612 18.877 18.877 0 0 0-1.355-1.258 19.16 19.16 0 0 0-1.475-1.116 62.432 62.432 0 0 0-2.273 2.091 15.944 15.944 0 0 0-3.502-1.613c.074-1.127.123-2.175.138-3.107a19.654 19.654 0 0 0-1.802-.413 19.357 19.357 0 0 0-1.835-.229 63.778 63.778 0 0 0-.933 2.966c-1.28-.044-2.568.05-3.838.317a64.084 64.084 0 0 0-1.425-2.742c-.591.153-1.181.331-1.767.544s-1.152.456-1.703.719c.176.913.406 1.934.674 3.028-.561.3-1.114.626-1.649 1-.536.375-1.032.785-1.507 1.211a62.16 62.16 0 0 0-2.612-1.672c-.436.428-.858.877-1.258 1.355-.401.478-.77.971-1.116 1.475a62.432 62.432 0 0 0 2.091 2.273 15.944 15.944 0 0 0-1.613 3.502 63.976 63.976 0 0 0-3.107-.138 19.654 19.654 0 0 0-.413 1.802 19.357 19.357 0 0 0-.229 1.835c.881.305 1.882.617 2.966.933-.044 1.28.05 2.568.317 3.838a64.084 64.084 0 0 0-2.742 1.425c.153.591.331 1.181.544 1.767s.456 1.152.719 1.703a63.415 63.415 0 0 0 3.028-.674c.3.561.626 1.114 1 1.649.375.536.785 1.032 1.211 1.507a62.16 62.16 0 0 0-1.672 2.612c.428.436.877.858 1.355 1.258.478.401.971.77 1.475 1.116a62.432 62.432 0 0 0 2.273-2.091 15.944 15.944 0 0 0 3.502 1.613 63.976 63.976 0 0 0-.138 3.107c.589.163 1.188.304 1.802.413.614.108 1.226.181 1.835.229.305-.881.617-1.882.933-2.966a15.907 15.907 0 0 0 3.838-.317zM45.382 96.204l7.974-1.275c.771 2.045 2.811 3.426 5.095 3.226.428-.037.83-.144 1.217-.28l4.143 6.919c-5.667 2.834-12.701 1.182-16.445-4.164a12.958 12.958 0 0 1-1.984-4.426zm14.626-3.205a2.001 2.001 0 0 1-3.985.349 2 2 0 0 1 3.985-.349zm1.699-12.281-2.881 7.539a4.92 4.92 0 0 0-1.247-.064c-2.284.2-4.054 1.913-4.457 4.061l-8.074.129c.235-3.817 2.135-7.495 5.511-9.858 3.375-2.364 7.482-2.892 11.148-1.807zm5.245 21.876-5.077-6.25a4.982 4.982 0 0 0-.609-6.963l3.918-7.043a12.919 12.919 0 0 1 3.48 3.379c3.744 5.346 2.89 12.521-1.712 16.877z" opacity=".1"/><path d="M55.027 91.435c.037.424.161.818.353 1.17l-11.14 1.781-.349-3.985 11.28-.18c-.128.38-.182.79-.144 1.214z" fill="#fff"/><path d="M46.063 90.367c-.044.609-.058 1.225-.003 1.853s.176 1.232.324 1.824l-2.145.343-.349-3.985z" fill="#f2f3f4"/><path d="m58.088 88.189 4.031-10.549 3.625 1.69-5.487 9.864a2.981 2.981 0 0 0-2.169-1.005zm.517 5.911a2.98 2.98 0 0 0 1.962-1.367l7.117 8.761-3.277 2.294z" fill="#fff"/><path d="M64.689 81.228a11.7 11.7 0 0 0-1.603-.93 11.625 11.625 0 0 0-1.742-.63l.775-2.028 3.625 1.69zm-1.397 20.698c.549-.267 1.09-.561 1.607-.923s.978-.769 1.417-1.194l1.369 1.685-3.277 2.294z" fill="#f2f3f4"/><path d="M58.451 96.155a5 5 0 1 0-.872-9.962 5 5 0 0 0 .872 9.962zm-.261-2.989a2.001 2.001 0 0 1-.349-3.985 2.001 2.001 0 0 1 .349 3.985zm3.131 13.664a64.084 64.084 0 0 0 1.425 2.742c.591-.153 1.181-.331 1.767-.544s1.152-.456 1.703-.719a63.415 63.415 0 0 0-.674-3.028c.561-.3 1.114-.626 1.649-1a15.994 15.994 0 0 0 1.507-1.211 62.16 62.16 0 0 0 2.612 1.672c.436-.428.858-.877 1.258-1.355.401-.478.77-.971 1.116-1.475a62.432 62.432 0 0 0-2.091-2.273 15.944 15.944 0 0 0 1.613-3.502c1.127.074 2.175.123 3.107.138.163-.589.304-1.189.413-1.802.108-.614.181-1.226.229-1.835a63.778 63.778 0 0 0-2.966-.933c.044-1.28-.05-2.568-.317-3.838a64.084 64.084 0 0 0 2.742-1.425c-.153-.591-.331-1.181-.544-1.767s-.456-1.152-.719-1.703c-.913.176-1.934.406-3.028.674-.3-.561-.626-1.114-1-1.649a15.994 15.994 0 0 0-1.211-1.507 62.16 62.16 0 0 0 1.672-2.612 18.877 18.877 0 0 0-1.355-1.258 19.16 19.16 0 0 0-1.475-1.116 62.432 62.432 0 0 0-2.273 2.091 15.944 15.944 0 0 0-3.502-1.613c.074-1.127.123-2.175.138-3.107a19.654 19.654 0 0 0-1.802-.413 19.357 19.357 0 0 0-1.835-.229 63.778 63.778 0 0 0-.933 2.966c-1.28-.044-2.568.05-3.838.317a64.084 64.084 0 0 0-1.425-2.742c-.591.153-1.181.331-1.767.544s-1.152.456-1.703.719c.176.913.406 1.934.674 3.028-.561.3-1.114.626-1.649 1-.536.375-1.032.785-1.507 1.211a62.16 62.16 0 0 0-2.612-1.672c-.436.428-.858.877-1.258 1.355-.401.478-.77.971-1.116 1.475a62.432 62.432 0 0 0 2.091 2.273 15.944 15.944 0 0 0-1.613 3.502 63.976 63.976 0 0 0-3.107-.138 19.654 19.654 0 0 0-.413 1.802 19.357 19.357 0 0 0-.229 1.835c.881.305 1.882.617 2.966.933-.044 1.28.05 2.568.317 3.838a64.084 64.084 0 0 0-2.742 1.425c.153.591.331 1.181.544 1.767s.456 1.152.719 1.703a63.415 63.415 0 0 0 3.028-.674c.3.561.626 1.114 1 1.649.375.536.785 1.032 1.211 1.507a62.16 62.16 0 0 0-1.672 2.612c.428.436.877.858 1.355 1.258.478.401.971.77 1.475 1.116a62.432 62.432 0 0 0 2.273-2.091 15.944 15.944 0 0 0 3.502 1.613 63.976 63.976 0 0 0-.138 3.107c.589.163 1.188.304 1.802.413.614.108 1.226.181 1.835.229.305-.881.617-1.882.933-2.966a15.907 15.907 0 0 0 3.838-.317zm4.151-5.007c-5.881 4.118-13.987 2.689-18.105-3.192s-2.689-13.987 3.193-18.105c5.881-4.118 13.987-2.689 18.105 3.192 4.117 5.88 2.688 13.986-3.193 18.105z" fill="#fff"/></svg>