<svg viewBox="0 0 96 96" xmlns="http://www.w3.org/2000/svg"><path d="M80 55.002C80 48.13 63.931 45 49 45s-31 3.13-31 10.002v16.012c0 7.338 18.539 10.002 31 10.002s31-2.664 31-10.002z" opacity=".1"/><path d="M80 53.002C80 46.13 63.931 43 49 43s-31 3.13-31 10.002v16.012c0 7.338 18.539 10.002 31 10.002s31-2.664 31-10.002z" fill="#fff"/><ellipse cx="49" cy="53.002" fill="#d7dbdd" rx="29" ry="8.002"/><path d="M49 63.004c-11.366 0-23-1.946-29-6.115v12.117c0 4.419 13.532 8.002 29 8.002s29-3.583 29-8.002V56.889c-6 4.169-17.634 6.115-29 6.115z" fill="#d7dbdd"/><path d="M58.141 62.568c-2.99.289-6.074.436-9.141.436-11.366 0-23-1.946-29-6.115v12.117c0 3.919 10.643 7.177 23.838 7.866z" opacity=".05"/><ellipse cx="49" cy="53.002" opacity=".05" rx="29" ry="8.002"/><path d="M55 34V18H43v16H31l18 18 18-18z" opacity=".1"/><g fill="#fff"><path d="M67 32 49 50 31 32z"/><path d="M43 16h12v21H43z"/></g></svg>