<svg viewBox="0 0 96 96" xmlns="http://www.w3.org/2000/svg"><path d="M73 29a3 3 0 0 0-3-3H56v-2.5c0-1.93-1.57-3.5-3.5-3.5h-9c-1.93 0-3.5 1.57-3.5 3.5V26H26a3 3 0 0 0-3 3v4h4.655l7.59 46.323A2 2 0 0 0 37.219 81h21.562a2 2 0 0 0 1.974-1.677L68.345 33H73zm-30-5.5c0-.271.229-.5.5-.5h9c.271 0 .5.229.5.5V26H43z" opacity=".1"/><path d="M69 27H27l8.245 50.323A2 2 0 0 0 37.219 79h21.562a2 2 0 0 0 1.974-1.677z" fill="#fff"/><path d="m68.017 33 .819-5H27.164l.819 5zM52.94 69.311l-.096-.003a1.5 1.5 0 0 1-1.403-1.591l1.759-28a1.5 1.5 0 0 1 2.994.188l-1.759 28a1.5 1.5 0 0 1-1.495 1.406zm-9.88 0a1.5 1.5 0 0 1-1.496-1.406l-1.759-28a1.5 1.5 0 0 1 2.994-.188l1.759 28a1.5 1.5 0 0 1-1.498 1.594z" opacity=".1"/><g fill="#fff"><path d="M23 31v-4a3 3 0 0 1 3-3h44a3 3 0 0 1 3 3v4z"/><path d="M56 27h-3v-5.5c0-.271-.229-.5-.5-.5h-9c-.271 0-.5.229-.5.5V27h-3v-5.5c0-1.93 1.57-3.5 3.5-3.5h9c1.93 0 3.5 1.57 3.5 3.5z"/></g></svg>