<svg viewBox="0 0 96 96" xmlns="http://www.w3.org/2000/svg"><path d="m78.139 72.637-23.1-22.872c-.52-.52-1.039-1.225-1.039-1.96v-3.919c0-1.53-.836-2.886-2.366-2.886h-1.995c1.498-5 .598-10.59-2.724-14.87-6.722-8.661-19.658-8.632-26.38.028-4.58 5.901-4.58 14.379 0 20.28 4.838 6.234 12.888 7.962 19.531 5.222l.23 2.384a2.772 2.772 0 0 0 3.135 2.353l2.744-.391a2.773 2.773 0 0 1 2.352.784l1.895 2.128c.52.52.579 1.225.579 1.96v1.623c0 .735.525 1.44 1.045 1.96l2.412 2.511c.52.52 1.341 1.027 2.076 1.027h3.345c.765.001 1.121.192 1.121.957v3.345c0 .735.424 1.44.944 1.96l5.301 5.081c.52.52 1.291.658 2.026.658h5.543c.735 0 1.44-.138 1.96-.658l1.365-1.239c.52-.52.861-1.148.861-1.883v-1.623c0-.735-.342-1.44-.861-1.96z" opacity=".1"/><path d="M46.566 39.115h5.067a2.77 2.77 0 0 1 2.771 2.771v3.919c0 .735.292 1.44.812 1.96l22.872 22.872c.52.52.812 1.225.812 1.96v1.623c0 .735-.292 1.44-.812 1.96l-1.316 1.316c-.52.52-1.225.812-1.96.812h-5.543c-.735 0-1.44-.292-1.96-.812l-5.235-5.235a2.772 2.772 0 0 1-.812-1.96v-3.345c0-.765-.62-1.386-1.386-1.386h-3.345c-.735 0-1.44-.292-1.96-.812l-2.296-2.296a2.772 2.772 0 0 1-.812-1.96V58.88c0-.735-.292-1.44-.812-1.96l-2.128-2.128a2.773 2.773 0 0 0-2.352-.784l-2.74.392a2.77 2.77 0 0 1-3.135-2.352l-.588-6.075z" fill="#fff"/><path d="M20.899 33.683c.693-6.363 5.859-11.538 12.224-12.211 4.182-.442 7.986.95 10.771 3.468-2.709-2.996-6.691-4.783-11.143-4.499-6.823.435-12.426 6.047-12.885 12.868-.301 4.475 1.483 8.474 4.487 11.189-2.524-2.792-3.912-6.612-3.454-10.815z" opacity=".15"/><path d="m50.469 51.065 26.367 26.367 1.253-1.253c.284-.284.641-.774.525-.889L52.625 49.302c-.541-.541-1.517-.639-2.058-.098s-.639 1.32-.098 1.861z" opacity=".1"/><path d="M46.914 44.453c4.58-5.901 4.58-14.365 0-20.266-6.722-8.661-19.658-8.661-26.38 0-4.58 5.901-4.58 14.365 0 20.266 6.722 8.661 19.658 8.661 26.38 0zM28.825 35.3a4.158 4.158 0 1 1 5.881-5.879 4.158 4.158 0 0 1-5.881 5.879z" fill="#fff"/><path d="M33.292 20.416c-7.226.19-13.235 6.205-13.453 13.43-.238 7.858 5.922 14.167 13.815 14.261L47.511 34.25c-.094-7.873-6.388-14.039-14.219-13.834zM28.825 35.3a4.158 4.158 0 1 1 5.881-5.879 4.158 4.158 0 0 1-5.881 5.879z" opacity=".1"/></svg>