<svg viewBox="0 0 96 96" xmlns="http://www.w3.org/2000/svg"><path d="M66 51H38V33.345c0-5.574 4.486-10.108 10-10.108s10 4.438 10 9.892V44a1 1 0 0 0 1 1h4a1 1 0 0 0 1-1V33.128c0-8.763-7.178-15.892-16-15.892s-16 7.227-16 16.108V51h-2c-1.1 0-2 .9-2 2v24c0 1.1.9 2 2 2h36c1.1 0 2-.9 2-2V53c0-1.1-.9-2-2-2z" opacity=".1"/><path d="M48 15.236c-8.822 0-16 7.227-16 16.108V55h6V31.345c0-5.574 4.486-10.108 10-10.108s10 4.438 10 9.892V42a1 1 0 0 0 1 1h4a1 1 0 0 0 1-1V31.128c0-8.763-7.178-15.892-16-15.892z" fill="#fff"/><path d="M28 75c0 1.1.9 2 2 2h36c1.1 0 2-.9 2-2V51c0-1.1-.9-2-2-2H30c-1.1 0-2 .9-2 2z" fill="#fff"/><path d="M32 47h6v2h-6zm-4 6h40v4H28zm0 8h40v4H28zm0 8h40v4H28z" opacity=".1"/></svg>