<svg viewBox="0 0 128 96" xmlns="http://www.w3.org/2000/svg" xmlns:xlink="http://www.w3.org/1999/xlink"><symbol id="a" viewBox="0 0 49 49"><path d="M0 0h49v49H0z" fill="none"/><path d="M24.25 22.5a.749.749 0 0 0-.334-.624l-9-6a.75.75 0 0 0-.832 1.248l8.064 5.376-8.064 5.376a.75.75 0 1 0 .832 1.248l9-6a.749.749 0 0 0 .334-.624zm10.25 9.25h-10a.75.75 0 0 0 0 1.5h10a.75.75 0 0 0 0-1.5z" fill="#fff"/></symbol><rect fill="#e6e3e0" height="72" rx="1" width="104" x="12" y="11"/><path d="M14 23h100v30H14z" fill="#fcfbfa"/><path d="M16 25h8v2h-8zm4 4h16v2H20zm-4 16h8v2h-8zm4-12h35v2H20zm0 8h8v2h-8zm0-4h26v2H20z" fill="#d2cdc7"/><path d="M14 13h100v8H14z" fill="#f1efed"/><path d="M14 64.984h100V81H14z" fill="#fcfbfa"/><path d="M14 54.984h101v8H14z" fill="#f1efed"/><g fill="#d2cdc7"><rect height="4" rx=".5" width="8" x="104" y="15"/><rect height="4" rx=".5" width="8" x="94" y="15"/><rect height="4" rx=".5" width="8" x="16" y="57"/><path d="M16 67h8v2h-8zm0 4h16v2H16zm0 4h12v2H16zm20-8h8v2h-8zm0 4h16v2H36zm0 4h12v2H36zm20 0h12v2H56zm0-4h16v2H56zm0-4h10v2H56z"/><rect height="4" rx=".5" width="8" x="26" y="57"/><rect height="4" rx=".5" width="8" x="36" y="57"/></g><rect fill="#539b72" height="49" rx="4" width="49" x="75" y="42"/><use height="49" transform="translate(75 42)" width="49" xlink:href="#a"/></svg>