<svg viewBox="0 0 128 96" xmlns="http://www.w3.org/2000/svg" xmlns:xlink="http://www.w3.org/1999/xlink"><symbol id="a" viewBox="0 0 49 49"><path d="M0 0h49v49H0z" fill="none"/><path d="m35.03 33.97-6.694-6.694a8.272 8.272 0 1 0-1.061 1.06l6.7 6.694a.75.75 0 0 0 1.06-1.06zM15.25 22A6.75 6.75 0 1 1 22 28.75 6.758 6.758 0 0 1 15.25 22z" fill="#fff"/></symbol><rect fill="#e6e3e0" height="72" rx="1" width="104" x="12" y="11"/><path d="M40 23h74v58H40zm-26 0h24v58H14z" fill="#fcfbfa"/><path d="M18 27h16v2H18zm0 4h12v2H18zm0 4h8v2h-8zm0 4h12v2H18zm0 4h16v2H18zm0 4h12v2H18zm0 4h8v2h-8zm0 4h12v2H18zm0 4h16v2H18zm0 4h12v2H18zm0 4h8v2h-8z" fill="#d2cdc7"/><path d="M44 27h46v4H44zm58 0h8v4h-8zm-58 7h46v4H44zm58 0h8v4h-8zm-10-7h8v4h-8zm0 7h8v4h-8zm-48 7h46v4H44zm0 7h46v4H44zm0 7h46v4H44zm0 7h46v4H44zm0 7h46v4H44zm58-28h8v4h-8zm-10 0h8v4h-8zM14 13h100v8H14z" fill="#f1efed"/><rect fill="#d2cdc7" height="4" rx=".5" width="8" x="104" y="15"/><rect fill="#d2cdc7" height="4" rx=".5" width="8" x="94" y="15"/><rect fill="#539b72" height="49" rx="4.083" width="49" x="75" y="42"/><use height="49" transform="translate(75 42)" width="49" xlink:href="#a"/></svg>