<svg viewBox="0 0 128 96" xmlns="http://www.w3.org/2000/svg" xmlns:xlink="http://www.w3.org/1999/xlink"><symbol id="a" viewBox="0 0 49 49"><path d="M0 0h49v49H0z" fill="none"/><path d="M25.03 22.97a.749.749 0 0 0-1.06 0l-4 4a.75.75 0 0 0 1.06 1.06l2.72-2.719V35.5a.75.75 0 0 0 1.5 0V25.311l2.72 2.719a.75.75 0 0 0 1.06-1.06z" fill="#fff"/><path d="M34.224 22.024c.017-.176.026-.35.026-.524a5.757 5.757 0 0 0-5.75-5.75 5.561 5.561 0 0 0-2.125.424 6.75 6.75 0 0 0-12.324 5.318A6.248 6.248 0 0 0 17 33.25a.75.75 0 0 0 0-1.5 4.748 4.748 0 0 1-1.732-9.169l.723-.283-.309-.713a5.25 5.25 0 1 1 9.659-4.118l.329.78.735-.42a4.18 4.18 0 0 1 2.095-.577 4.226 4.226 0 0 1 4.142 5.175l-.17.764.771.137a4.244 4.244 0 0 1-.743 8.424.75.75 0 0 0 0 1.5 5.745 5.745 0 0 0 1.724-11.226z" fill="#fff"/></symbol><rect fill="#56504B" height="72" rx="1" width="104" x="12" y="11"/><path d="M14 23h100v30H14z" fill="#403C38"/><path d="M16 25h8v2h-8zm4 4h16v2H20zm-4 16h8v2h-8zm4-12h35v2H20zm0 8h8v2h-8zm0-4h26v2H20z" fill="#67605B"/><path d="M14 13h100v8H14zm0 51.984h100V81H14zm0-10h101v8H14z" fill="#403C38"/><g fill="#67605B"><rect height="4" rx=".5" width="8" x="104" y="15"/><rect height="4" rx=".5" width="8" x="94" y="15"/><rect height="4" rx=".5" width="8" x="16" y="57"/><path d="M16 67h8v2h-8zm0 4h16v2H16zm0 4h12v2H16zm20-8h8v2h-8zm0 4h16v2H36zm0 4h12v2H36zm20 0h12v2H56zm0-4h16v2H56zm0-4h10v2H56z"/><rect height="4" rx=".5" width="8" x="26" y="57"/><rect height="4" rx=".5" width="8" x="36" y="57"/></g><rect fill="#539B72" height="49" rx="4.167" width="49" x="75" y="42"/><use height="49" transform="translate(75 42)" width="49" xlink:href="#a"/></svg>