<svg viewBox="0 0 64 64" xmlns="http://www.w3.org/2000/svg"><path d="M54.302 55.712a4 4 0 0 0-2.842-3.385l-10.137-2.991a4 4 0 0 1-2.838-3.346l-.615-4.979C42.666 38.473 46 32.938 46 26.5c0-8.837-6.268-16-14-16s-14 7.163-14 16c0 6.435 3.332 11.968 8.124 14.508l-.61 4.904a4 4 0 0 1-2.815 3.336l-10.18 3.069a4 4 0 0 0-2.82 3.378L8.757 64h46.487z" fill="#fff"/><path d="M32 42.5c-2.101 0-4.087-.544-5.876-1.492L26 42.011a12.937 12.937 0 0 0 6 1.489c2.137 0 4.163-.535 5.993-1.486l-.124-1.003c-1.786.946-3.77 1.489-5.869 1.489z" fill="#f0f0f0"/><path d="M54.799 55.655a4.493 4.493 0 0 0-3.198-3.808l-10.137-2.991a3.497 3.497 0 0 1-2.483-2.928l-.639-5.177C42.883 38.107 46 32.725 46 26.5c0-8.837-6.268-16-14-16s-14 7.163-14 16c0 6.222 3.114 11.602 7.653 14.248l-.634 5.102a3.503 3.503 0 0 1-2.463 2.919l-10.179 3.069a4.492 4.492 0 0 0-3.172 3.8l-.945 8.305.993.113.944-8.305a3.495 3.495 0 0 1 2.468-2.956l10.18-3.069a4.503 4.503 0 0 0 3.167-3.753l.586-4.712A12.435 12.435 0 0 0 32 42.5c1.913 0 3.736-.441 5.397-1.236l.591 4.787a4.498 4.498 0 0 0 3.192 3.764l10.137 2.991a3.494 3.494 0 0 1 2.487 2.962l.941 8.288.994-.113zM19 26.5c0-8.271 5.832-15 13-15s13 6.729 13 15-5.832 15-13 15-13-6.729-13-15z" fill="#b1b1b1"/></svg>