<svg xmlns="http://www.w3.org/2000/svg" width="36.574" height="36.571"><defs><linearGradient id="a" x1="-394.42" y1="1661.499" x2="-394.42" y2="1709.61" gradientTransform="scale(1 -1) rotate(-45 -2253.69 313.843)" gradientUnits="userSpaceOnUse"><stop offset=".8" stop-color="#fff"/><stop offset="1" stop-color="#fff" stop-opacity="0"/></linearGradient></defs><path d="M36.161 30.202L6.371.411a1.405 1.405 0 0 0-1.986 0L.413 4.383a1.4 1.4 0 0 0-.006 1.98l.006.006 29.79 29.791a1.405 1.405 0 0 0 1.986 0l3.972-3.972a1.4 1.4 0 0 0 .006-1.98zM4.246 6.012a1.25 1.25 0 1 1 1.768 0 1.25 1.25 0 0 1-1.767 0z" fill="#f5c765"/><path d="M27.866 3.741L6.602 25.006l-.012 4.976 4.977-.011L32.832 8.706l-1.987-2.979z" fill="#387e56"/><path d="M33.782 7.756l1.573-1.574a3.416 3.416 0 0 0-.029-4.83q-.059-.06-.12-.115a3.6 3.6 0 0 0-5 .165l-1.389 1.389 1.92 2.914z" fill="#be4133"/><path d="M26.867 4.74l1.972-1.972 4.965 4.966-1.972 1.972z" fill="#aeb0ae"/><path d="M9.06 7.157l2.027-2.029.497.496-2.029 2.03zm1.676 3.784l3.082-3.082.496.497-3.082 3.081zm3.785 1.677l2.03-2.029.495.496-2.028 2.03zm7.387 9.494l3.082-3.082.496.497-3.082 3.081zm3.784 1.678l2.03-2.028.495.496-2.029 2.029zm1.677 3.783l3.082-3.082.496.497-3.08 3.081zm3.784 1.678l2.03-2.029.496.496-2.029 2.03z" opacity=".1" style="isolation:isolate"/><path d="M9.793 29.557a.222.222 0 0 1-.186-.186l-.285-1.89a.222.222 0 0 0-.186-.186l-1.888-.283a.223.223 0 0 1-.186-.186l-.3-1.983-.176.177a10.53 10.53 0 0 0-2.062 2.925l-1.673 3.412-.307 2.672 2.672-.306 3.413-1.678a10.533 10.533 0 0 0 2.924-2.06l.176-.177z" fill="#d3ab89"/><path d="M5.216 33.722l-2.365-2.366-1.716 3.5a.439.439 0 0 0 .583.582z" fill="#64625c"/><path d="M17.512 46.212l2.314-2.835a34.313 34.313 0 0 1 2.4-2.654l.014-.014 23.89-23.89a7.386 7.386 0 0 1 2.829-1.948 3.626 3.626 0 0 0-4.743.386l-23.6 23.6-.014.014a10.531 10.531 0 0 0-2.071 2.929l-1.673 3.412-1.716 3.5a.43.43 0 0 0 .012.393z" transform="translate(-14.007 -13.855)" opacity=".1" fill="url(#a)" style="isolation:isolate"/></svg>