<svg xmlns="http://www.w3.org/2000/svg" viewBox="0 0 64 64"><path fill="#fff" d="m53.962 16.521-.005-.029a4.551 4.551 0 0 0-.1-.491c-.229-.901-.711-1.854-1.272-2.414L42.414 3.414c-.665-.665-1.882-1.222-2.909-1.372l-.026-.005A3.677 3.677 0 0 0 39 2H12c-1.1 0-2 .9-2 2v56c0 1.1.9 2 2 2h40c1.1 0 2-.9 2-2V17c0-.152-.015-.313-.038-.479z"/><path fill="#ccc" d="m53.962 16.521-.005-.029a4.551 4.551 0 0 0-.1-.491c-.229-.901-.711-1.854-1.272-2.414L42.414 3.414c-.665-.665-1.882-1.222-2.909-1.372l-.026-.005A3.677 3.677 0 0 0 39 2H12c-1.1 0-2 .9-2 2v56c0 1.1.9 2 2 2h40c1.1 0 2-.9 2-2V17c0-.152-.015-.313-.038-.479zm-2.083-2.228c.38.38.735 1.054.94 1.707H41c-.551 0-1-.449-1-1V3.181c.654.205 1.327.56 1.707.94l10.172 10.172zM53 60c0 .551-.449 1-1 1H12c-.551 0-1-.449-1-1V4c0-.551.449-1 1-1h27v12c0 1.1.9 2 2 2h12v43z"/></svg>