<svg width="16" height="16" xmlns="http://www.w3.org/2000/svg"><path d="M15.886 10.73c-.229-.23-.457-.23-.686-.115-1.029.459-2.057.802-3.2.802-4 0-7.314-3.322-7.314-7.332 0-1.146.228-2.177.8-3.208C5.6.648 5.6.42 5.37.19c-.227-.23-.57-.23-.684-.115A8.239 8.239 0 0 0 0 7.522 8.448 8.448 0 0 0 8.457 16c3.2 0 6.057-1.833 7.543-4.697 0-.115 0-.458-.114-.573zm-7.429 4.124c-4 0-7.314-3.322-7.314-7.332 0-2.177 1.028-4.124 2.628-5.5a6.502 6.502 0 0 0-.342 2.063 8.448 8.448 0 0 0 8.457 8.478c.685 0 1.371-.115 2.057-.23-1.372 1.49-3.314 2.521-5.486 2.521z" fill="#100F0E"/></svg>