<svg width="16" height="16" xmlns="http://www.w3.org/2000/svg"><path d="M8 4.26c-1.336 0-2.57.713-3.237 1.869a3.733 3.733 0 0 0 3.24 5.602 3.737 3.737 0 0 0 3.736-3.737A3.737 3.737 0 0 0 8 4.26zm0 6.395a2.657 2.657 0 0 1-2.663-2.66A2.657 2.657 0 0 1 8 5.332a2.657 2.657 0 0 1 2.663 2.661A2.657 2.657 0 0 1 8 10.655zm0 2.136c.297 0 .537.24.537.537v2.135a.537.537 0 0 1-1.074 0v-2.135c0-.297.24-.537.537-.537zm0-9.593a.537.537 0 0 1-.537-.537V.537a.537.537 0 0 1 1.074 0v2.135c0 .286-.24.526-.537.526zM3.2 7.994c0 .297-.24.537-.537.537H.537a.537.537 0 1 1 0-1.073h2.137c.286 0 .526.24.526.536zm12.263-.536a.537.537 0 1 1 0 1.073h-2.137a.537.537 0 1 1 0-1.073h2.137zM3.85 4.602 2.343 3.095a.624.624 0 0 1-.103-.32c0-.297.24-.537.537-.537.126 0 .229.046.32.103L4.606 3.85c.091.091.16.228.16.377a.5.5 0 0 1-.16.376.545.545 0 0 1-.377.16.545.545 0 0 1-.378-.16zm8.298 6.784 1.508 1.508a.534.534 0 0 1 .103.32c0 .296-.24.536-.537.536a.592.592 0 0 1-.32-.103l-1.509-1.507a.507.507 0 0 1-.16-.388c0-.297.24-.537.537-.537a.58.58 0 0 1 .378.171zm-.378-6.624a.537.537 0 0 1-.537-.536.5.5 0 0 1 .16-.377l1.509-1.508a.535.535 0 0 1 .423-.217c.297 0 .537.24.537.537 0 .171-.08.331-.217.423L12.137 4.59a.434.434 0 0 1-.366.171zm-7.92 6.624a.51.51 0 0 1 .378-.171c.297 0 .537.24.537.537a.596.596 0 0 1-.16.388l-1.509 1.507a.625.625 0 0 1-.32.103.537.537 0 0 1-.434-.856l1.508-1.508z" fill="#FCFBFA"/></svg>