<svg xmlns="http://www.w3.org/2000/svg" viewBox="0 0 64 64"><style/><g id="Layer_2"><path d="M32 60.41c-15.9 0-28.83-12.93-28.83-28.83S16.1 2.74 32 2.74s28.83 12.93 28.83 28.83S47.9 60.41 32 60.41zm0-53.97c-13.86 0-25.14 11.28-25.14 25.14S18.14 56.72 32 56.72s25.14-11.28 25.14-25.14S45.86 6.44 32 6.44z"/><path d="M42.5 20.8L26.72 36.57l-5.19-5.18a2.62 2.62 0 0 0-1.8-.71 2.655 2.655 0 0 0-1.94 4.46l7.06 7.06c.48.48 1.14.78 1.87.78.73 0 1.39-.3 1.87-.78l17.65-17.65c.44-.47.71-1.1.71-1.8a2.655 2.655 0 0 0-4.45-1.95z"/></g></svg>