<svg xmlns="http://www.w3.org/2000/svg" viewBox="0 0 64 64"><style>.st13{fill:#317de8}</style><g id="Layer_2"><path d="M32 7.24C18.35 7.24 7.24 18.35 7.24 32S18.35 56.76 32 56.76 56.76 45.65 56.76 32 45.65 7.24 32 7.24zm14.77 11.07L38.1 37.52l-.23.15-18.99 8.58a.62.62 0 0 1-.7-.12.613.613 0 0 1-.14-.7l8.27-19.6.26-.15 19.38-8.21a.63.63 0 0 1 .82.84z" fill="none"/><path class="st13" d="M32 3.27C16.16 3.27 3.27 16.16 3.27 32S16.16 60.73 32 60.73 60.73 47.84 60.73 32 47.84 3.27 32 3.27zm0 53.49C18.35 56.76 7.24 45.65 7.24 32S18.35 7.24 32 7.24 56.76 18.35 56.76 32 45.65 56.76 32 56.76z"/><path class="st13" d="M46.64 17.61a.633.633 0 0 0-.7-.14l-19.38 8.21-.26.15-8.27 19.6a.63.63 0 0 0 .58.88c.09 0 .18-.02.26-.06l18.99-8.58.23-.15 8.68-19.21c.11-.24.06-.51-.13-.7zM31.91 35.87h-.07a3.895 3.895 0 0 1-3.82-3.96 3.901 3.901 0 0 1 3.96-3.82 3.91 3.91 0 0 1 3.83 3.96 3.915 3.915 0 0 1-3.9 3.82z"/></g></svg>