<svg xmlns="http://www.w3.org/2000/svg" viewBox="0 0 64 64"><style/><g id="Layer_2"><path d="M46.41 30.55H33.46V17.02a1.451 1.451 0 0 0-2.9 0v13.53H17.61a1.451 1.451 0 0 0 0 2.9h12.95v13.53a1.451 1.451 0 0 0 2.9 0V33.45h12.95a1.451 1.451 0 0 0 0-2.9z" stroke="#000" stroke-miterlimit="10"/><path d="M54.04 60.67H9.12c-3.65 0-6.62-2.97-6.62-6.62V9.14c0-3.65 2.97-6.62 6.62-6.62h44.92c3.65 0 6.62 2.97 6.62 6.62v44.92c-.01 3.64-2.98 6.61-6.62 6.61zM9.12 5.52c-1.99 0-3.62 1.62-3.62 3.62v44.92c0 1.99 1.62 3.62 3.62 3.62h44.92c1.99 0 3.62-1.62 3.62-3.62V9.14c0-1.99-1.62-3.62-3.62-3.62H9.12z"/></g></svg>