<svg xmlns="http://www.w3.org/2000/svg" viewBox="0 0 64 64"><style>.st7{fill:#201638}</style><g id="Layer_2"><circle class="st7" cx="20.14" cy="47.37" r="2.3"/><circle class="st7" cx="28.44" cy="47.37" r="2.3"/><circle class="st7" cx="28.44" cy="39.89" r="2.3"/><circle class="st7" cx="35.96" cy="47.37" r="2.3"/><path class="st7" d="M53.97 11.67c-.64-.9-1.91-.98-2.66-.24L35.57 27.01v-8.2c0-.87-.6-1.68-1.46-1.82-1.1-.18-2.04.66-2.04 1.73v12.99c0 .55.45 1 1 1h12.32c.87 0 1.68-.6 1.82-1.46.18-1.1-.66-2.04-1.73-2.04h-7.16L53.7 13.98c.62-.61.78-1.6.27-2.31z"/><path class="st7" d="M41.4 52.62H15.54V10.98H41.4l4.91.01.03-.49c0-4.03-3.26-7.29-7.29-7.29H17.02c-4.03 0-7.29 3.26-7.29 7.29v43c0 4.03 3.26 7.29 7.29 7.29h22.02c4.03 0 7.29-3.26 7.29-7.29V37.92H41.4v14.7zm-8.5 5.51h-9.32c-.77 0-1.39-.62-1.39-1.39s.62-1.39 1.39-1.39h9.32c.77 0 1.39.62 1.39 1.39s-.62 1.39-1.39 1.39z"/></g></svg>