<svg xmlns="http://www.w3.org/2000/svg" viewBox="0 0 64 64"><style>.st9{fill:#000000}</style><g id="Layer_2"><path class="st9" d="M47.71 60.12H16.29c-2.86 0-5.18-2.33-5.18-5.18V27.66c0-2.86 2.33-5.18 5.18-5.18h7.38v5.08h-7.38a.1.1 0 0 0-.1.1v27.28c0 .06.05.1.1.1h31.43a.1.1 0 0 0 .1-.1V27.66a.1.1 0 0 0-.1-.1h-7.38v-5.08h7.38c2.86 0 5.18 2.33 5.18 5.18v27.28c0 2.86-2.33 5.18-5.19 5.18z"/><path class="st9" d="M42.76 13.42l-8.77-8.77c-1.05-1.03-2.76-1.03-3.83.02l-8.75 8.75c-.99.99-.99 2.6 0 3.59.99.99 2.6.99 3.59 0l4.38-4.38v29.41h5.08V12.29l4.72 4.72c.5.5 1.15.74 1.8.74s1.3-.25 1.8-.74c.97-.99.97-2.6-.02-3.59z"/></g></svg>