<svg xmlns="http://www.w3.org/2000/svg" viewBox="0 0 64 64"><style>.st15{fill:#060606}</style><g id="Layer_2"><path d="M31.33 60.42c-15.91 0-28.85-12.94-28.85-28.85S15.42 2.71 31.33 2.71s28.85 12.94 28.85 28.85-12.94 28.86-28.85 28.86zm0-56.01c-14.97 0-27.16 12.18-27.16 27.16s12.18 27.16 27.16 27.16 27.16-12.18 27.16-27.16S46.3 4.41 31.33 4.41z" fill="#060606" stroke="#060606" stroke-width=".25" stroke-miterlimit="10"/><path class="st15" d="M28.52 28.64l5.74 5.86 12.8-18.51z"/><path class="st15" d="M28.69 30.63l3.64 3.64-11.76 7.97 8.12-11.61m-.17-1.99l-12.93 18.5L34.26 34.5l-5.74-5.86z"/></g></svg>