<svg viewBox="0 0 16 16" xmlns="http://www.w3.org/2000/svg"><path d="M9.409 10.126c-.35.349-.737.662-1.152.931l-3.504 2.262a1.51 1.51 0 0 1-.812.242 1.508 1.508 0 0 1-1.318-.788 1.474 1.474 0 0 1 .054-1.521l2.258-3.5c.267-.414.58-.802.931-1.154L7.964 4.5H2C1.173 4.5.5 5.173.5 6v8c0 .827.673 1.5 1.5 1.5h8c.827 0 1.5-.673 1.5-1.5V8.036z" fill="#f4f5f6"/><path d="M11 8.536V14c0 .551-.449 1-1 1H2c-.551 0-1-.449-1-1V6c0-.551.449-1 1-1h5.464l1-1H2a2 2 0 0 0-2 2v8a2 2 0 0 0 2 2h8a2 2 0 0 0 2-2V7.536z" fill="#e5e7e9"/><path d="M8.702 9.419l5.022-5.022-.354-1.768-1.768-.354-5.028 5.03c-.301.3-.568.632-.799.989L3.52 11.789c-.287.451.239.978.691.69l3.503-2.262c.357-.23.688-.498.988-.798z" fill="#ffbe2a"/><path d="M6.148 7.778a6.09 6.09 0 0 0-.373.516L3.52 11.789c-.287.451.239.978.69.69l3.503-2.262c.175-.113.344-.236.507-.367z" fill="#ffe2a1"/><path d="M4.21 12.479l1.456-.94-1.206-1.206-.94 1.456c-.287.451.239.978.69.69z" fill="#3d566e"/><path d="M13.017.861l2.121 2.121-1.414 1.414-2.121-2.121z" fill="#fff"/><path d="M14.608.331l1.061 1.061a.75.75 0 0 1 0 1.061l-1.061 1.061-2.121-2.121L13.548.332a.748.748 0 0 1 1.06-.001z" fill="#f9422a"/><path d="M14.078.361a.5.5 0 0 1 .354.146l1.061 1.061a.5.5 0 0 1 0 .707L8.525 9.242a5.706 5.706 0 0 1-.947.765l-3.502 2.261-.136.043a.26.26 0 0 1-.222-.139.23.23 0 0 1 .012-.248L5.985 8.43c.22-.342.478-.661.766-.948L13.725.508a.494.494 0 0 1 .353-.147m0-.25a.744.744 0 0 0-.53.22L6.574 7.305c-.301.3-.569.632-.799.989L3.52 11.789c-.23.362.063.772.42.772a.498.498 0 0 0 .27-.082l3.503-2.262c.357-.23.688-.498.988-.798l6.967-6.967a.75.75 0 0 0 0-1.061L14.607.33a.743.743 0 0 0-.529-.219z" opacity=".16"/></svg>