<svg viewBox="0 0 16 16" xmlns="http://www.w3.org/2000/svg"><path d="M14.759 13.345L11.03 9.616A5.5 5.5 0 1 0 1 6.5a5.5 5.5 0 0 0 8.616 4.53l3.729 3.729a.997.997 0 0 0 1.414 0 1 1 0 0 0 0-1.414z" fill="#738596"/><path d="M6.5 1.25a5.256 5.256 0 0 1 5.25 5.25c0 1.067-.32 2.095-.926 2.974l-.118.171.147.147 3.729 3.729a.744.744 0 0 1 0 1.06.744.744 0 0 1-1.06 0l-3.729-3.729-.147-.147-.171.118a5.215 5.215 0 0 1-2.975.927c-2.895 0-5.25-2.355-5.25-5.25S3.605 1.25 6.5 1.25m0-.25a5.5 5.5 0 1 0 3.116 10.03l3.729 3.729a.997.997 0 0 0 1.414 0 .999.999 0 0 0 0-1.414L11.03 9.616A5.5 5.5 0 0 0 6.5 1z" opacity=".12"/><path d="M6.5 2.4c2.261 0 4.1 1.839 4.1 4.1s-1.839 4.1-4.1 4.1-4.1-1.839-4.1-4.1 1.839-4.1 4.1-4.1" fill="#fff"/></svg>