<svg viewBox="0 0 16 16" xmlns="http://www.w3.org/2000/svg"><path d="M13.205 5.628l-7.071 7.071-2.828-2.828L10.377 2.8z" fill="#ffbe2a"/><path d="M.445 14.898l1.929-3.872c.123-.246.382-.607.577-.801l.355-.355 2.828 2.828-.355.355a3.708 3.708 0 0 1-.801.577l-3.872 1.93z" fill="#ffe5aa"/><path d="M1.106 15.56l1.489-.742-1.414-1.414-.745 1.485a.5.5 0 0 0 .67.671z" fill="#3d566e"/><path d="M11.083 2.093l2.828 2.828 1.414-1.414a.999.999 0 0 0 0-1.414L13.911.679a.999.999 0 0 0-1.414 0z" fill="#f9513b"/><path d="M11.084 2.092l2.828 2.828-.707.707-2.828-2.828z" fill="#f2f3f4"/><path d="M13.205.636c.2 0 .389.078.53.22l1.414 1.414a.744.744 0 0 1 0 1.06l-9.192 9.192-.355.355a3.433 3.433 0 0 1-.736.53L.994 15.336l-.114.028a.256.256 0 0 1-.213-.124A.24.24 0 0 1 .66 15l.589-1.175.007.007.155-.311 1.187-2.383c.111-.223.354-.56.53-.736L12.675.855a.744.744 0 0 1 .53-.219m0-.25a.997.997 0 0 0-.707.293l-9.547 9.547a3.708 3.708 0 0 0-.577.801L1.187 13.41l-.006-.006-.745 1.485a.502.502 0 0 0 .445.726c.073 0 .15-.017.225-.055l3.872-1.929c.246-.123.607-.382.801-.577l.355-.355 9.192-9.192a.999.999 0 0 0 0-1.414L13.912.679a.993.993 0 0 0-.707-.293z" opacity=".16"/></svg>