<?xml version="1.0" standalone="no"?>
<!DOCTYPE svg PUBLIC "-//W3C//DTD SVG 1.1//EN" "http://www.w3.org/Graphics/SVG/1.1/DTD/svg11.dtd">
<svg xmlns="http://www.w3.org/2000/svg">
<metadata>Oracle</metadata>
<defs>
<font id="Font-APEX-Small" horiz-adv-x="1024" >
<font-face font-family="Font-APEX-Small" font-weight="400" font-stretch="normal" units-per-em="1024" ascent="960" descent="-64" />
<missing-glyph horiz-adv-x="1024" />
<glyph glyph-name="modifier-25-percent" unicode="&#xe9ca;" d="M512 960c-283 0-512-229-512-512s229-512 512-512 512 229 512 512-229 512-512 512z m0-512v341c189 0 341-152 341-341h-341z" />
<glyph glyph-name="modifier-50-percent" unicode="&#xe9ec;" d="M512 960c-283 0-512-229-512-512s229-512 512-512 512 229 512 512-229 512-512 512z m0-853v682c189 0 341-152 341-341s-152-341-341-341z" />
<glyph glyph-name="modifier-75-percent" unicode="&#xe9ed;" d="M512 960c-283 0-512-229-512-512s229-512 512-512 512 229 512 512-229 512-512 512z m0-853c-189 0-341 153-341 341h341v341c189 0 341-152 341-341s-152-341-341-341z" />
<glyph glyph-name="modifier-100-percent" unicode="&#xe9ee;" d="M512 960c-283 0-512-229-512-512s229-512 512-512 512 229 512 512-229 512-512 512z m0-853c-189 0-341 153-341 341s152 341 341 341 341-152 341-341-152-341-341-341z" />
<glyph glyph-name="modifier-arrow-down" unicode="&#xe9ef;" d="M512 960c-283 0-512-229-512-512s229-512 512-512 512 229 512 512-229 512-512 512z m268-552l-228-228c-11-11-25-16-40-16s-29 5-40 16l-228 228c-22 22-22 58 0 80s58 22 81 0l130-130v318c0 31 26 56 57 56s57-25 57-56v-318l130 130c23 22 59 22 81 0s22-58 0-80z" />
<glyph glyph-name="modifier-arrow-left" unicode="&#xe9f0;" d="M512 960c-283 0-512-229-512-512s229-512 512-512c283 0 512 229 512 512s-229 512-512 512z m227-569h-317l130-130c22-22 22-58 0-81-11-11-26-16-40-16s-29 5-40 16l-228 228c-22 22-22 58 0 80l228 228c22 22 58 22 80 0s22-58 0-81l-131-130h318c32 0 57-25 57-57s-25-57-57-57z" />
<glyph glyph-name="modifier-arrow-right" unicode="&#xe9f1;" d="M512 960c-283 0-512-229-512-512s229-512 512-512c283 0 512 229 512 512s-229 512-512 512z m268-552l-228-228c-11-11-25-16-40-16s-29 5-40 16c-22 22-22 58 0 81l130 130h-318c-31 0-56 25-56 57s25 57 56 57h318l-130 130c-23 23-23 59 0 81s58 22 80 0l228-228c22-22 22-58 0-80z" />
<glyph glyph-name="modifier-arrow-up" unicode="&#xe9f2;" d="M512 960c-283 0-512-229-512-512s229-512 512-512c283 0 512 229 512 512s-229 512-512 512z m268-552c-11-11-26-17-41-17s-29 6-40 17l-130 130v-317c0-32-26-57-57-57s-57 25-57 57v317l-130-130c-23-22-59-22-81 0s-22 58 0 81l228 227c22 22 58 22 80 0l228-227c22-23 22-59 0-81z" />
<glyph glyph-name="modifier-blank" unicode="&#xe9f3;" d="M1024 448c0-283-229-512-512-512s-512 229-512 512c0 283 229 512 512 512s512-229 512-512z" />
<glyph glyph-name="modifier-check" unicode="&#xe9f4;" d="M512 960c-283 0-512-229-512-512s229-512 512-512 512 229 512 512-229 512-512 512z m268-382l-341-341c-12-11-26-17-41-17s-29 6-40 17l-114 114c-22 22-22 58 0 80s58 23 81 0l73-73 301 301c23 22 59 22 81 0s22-58 0-81z" />
<glyph glyph-name="modifier-circle" unicode="&#xe9f5;" d="M512 960c-283 0-512-229-512-512s229-512 512-512 512 229 512 512-229 512-512 512z m0-683c-94 0-171 77-171 171s77 171 171 171 171-77 171-171-77-171-171-171z" />
<glyph glyph-name="modifier-clock" unicode="&#xe9f6;" d="M512 960c-283 0-512-229-512-512s229-512 512-512c283 0 512 229 512 512s-229 512-512 512z m212-724c-12-11-26-16-41-16s-29 5-40 16l-171 172c-11 11-17 25-17 40v228c0 31 26 56 57 56s57-25 57-56v-204l155-155c22-22 22-59 0-81z" />
<glyph glyph-name="modifier-ellipsis-h" unicode="&#xe9f7;" d="M512 960c-283 0-512-229-512-512s229-512 512-512 512 229 512 512-229 512-512 512z m-227-569c-32 0-57 25-57 57s25 57 57 57c31 0 56-26 56-57s-25-57-56-57z m227 0c-31 0-57 25-57 57s26 57 57 57c32 0 57-26 57-57s-25-57-57-57z m228 0c-32 0-57 25-57 57s25 57 57 57c31 0 57-26 57-57s-26-57-57-57z" />
<glyph glyph-name="modifier-ellipsis-v" unicode="&#xe9f8;" d="M512 960c-283 0-512-229-512-512s229-512 512-512 512 229 512 512-229 512-512 512z m0-797c-32 0-57 26-57 57s25 57 57 57c31 0 57-25 57-57s-26-57-57-57z m0 228c-32 0-57 25-57 57s25 57 57 57c31 0 57-26 57-57s-26-57-57-57z m0 228c-32 0-57 25-57 56s25 57 57 57c31 0 57-25 57-57s-26-56-57-56z" />
<glyph glyph-name="modifier-heart" unicode="&#xe9f9;" d="M512 960c-283 0-512-229-512-512s229-512 512-512 512 229 512 512-229 512-512 512z m245-562l-245-234-245 234c-53 51-53 132 0 183 53 50 138 50 191 0l54-52 54 52c53 50 138 50 191 0 53-51 53-132 0-183z" />
<glyph glyph-name="modifier-information" unicode="&#xe9fa;" d="M512 960c-283 0-512-229-512-512s229-512 512-512c283 0 512 229 512 512s-229 512-512 512z m57-739c0-32-26-57-57-57s-57 25-57 57v227c0 32 26 57 57 57s57-25 57-57v-227z m-57 398c-31 0-57 25-57 57s26 56 57 56 57-25 57-56c0-32-26-57-57-57z" />
<glyph glyph-name="modifier-minus" unicode="&#xe9fb;" d="M512 960c-283 0-512-229-512-512s229-512 512-512c283 0 512 229 512 512s-229 512-512 512z m228-569h-455c-32 0-57 26-57 57s25 57 57 57h455c31 0 57-25 57-57s-26-57-57-57z" />
<glyph glyph-name="modifier-pause" unicode="&#xe9fc;" d="M512 960c-283 0-512-229-512-512s229-512 512-512 512 229 512 512-229 512-512 512z m-57-626c0-31-25-57-57-57s-57 26-57 57v228c0 31 26 57 57 57s57-26 57-57v-228z m228 0c0-31-26-57-57-57s-57 26-57 57v228c0 31 25 57 57 57s57-26 57-57v-228z" />
<glyph glyph-name="modifier-play" unicode="&#xe9fd;" d="M512 960c-283 0-512-229-512-512s229-512 512-512 512 229 512 512-229 512-512 512z m200-561l-284-171c-9-5-20-8-30-8-9 0-19 3-28 8-18 10-29 29-29 49v342c0 20 11 39 29 49s40 10 58-1l284-170c17-11 28-29 28-49s-11-39-28-49z" />
<glyph glyph-name="modifier-plus" unicode="&#xe9fe;" d="M512 960c-283 0-512-229-512-512s229-512 512-512 512 229 512 512-229 512-512 512z m228-569h-171v-170c0-32-26-57-57-57s-57 25-57 57v170h-171c-31 0-56 26-56 57s25 57 56 57h171v171c0 31 26 57 57 57s57-26 57-57v-171h171c31 0 56-25 56-57s-25-57-56-57z" />
<glyph glyph-name="modifier-sleep" unicode="&#xe9ff;" d="M512 960c-283 0-512-229-512-512s229-512 512-512 512 229 512 512-229 512-512 512z m8-797c-162 0-293 131-293 293 0 130 86 238 203 276-27-41-43-90-43-144 0-146 119-265 266-265 53 0 102 16 143 42-38-117-146-202-276-202z" />
<glyph glyph-name="modifier-star" unicode="&#xea00;" d="M512 960c-283 0-512-229-512-512s229-512 512-512c283 0 512 229 512 512s-229 512-512 512z m250-591c27-15 37-50 21-77-11-19-30-29-49-29-10 0-20 3-29 8l-136 79v-158c0-31-26-57-57-57s-57 26-57 57v158l-136-79c-9-5-19-8-29-8-19 0-38 10-49 29-16 27-6 62 21 77l136 79-136 79c-27 16-37 50-21 78 16 27 51 36 78 20l136-78v157c0 32 26 57 57 57s57-25 57-57v-157l136 78c27 16 62 7 78-20 16-28 6-62-21-78l-136-79 136-79z" />
<glyph glyph-name="modifier-stop" unicode="&#xea01;" d="M512 960c-283 0-512-229-512-512s229-512 512-512 512 229 512 512-229 512-512 512z m171-626c0-31-26-57-57-57h-228c-31 0-57 26-57 57v228c0 31 26 57 57 57h228c31 0 57-26 57-57v-228z" />
<glyph glyph-name="modifier-warning" unicode="&#xea02;" d="M512 960c-283 0-512-229-512-512s229-512 512-512 512 229 512 512-229 512-512 512z m40-779c-10-12-25-17-40-17s-30 5-40 17c-11 10-17 25-17 39 0 8 1 15 5 22 2 7 7 14 12 18 22 22 59 22 80 0 5-4 10-11 12-18 4-7 5-14 5-22 0-14-6-29-17-39z m17 267c0-31-26-57-57-57s-57 26-57 57v228c0 31 26 57 57 57s57-26 57-57v-228z" />
<glyph glyph-name="modifier-x" unicode="&#xea03;" d="M512 960c-283 0-512-229-512-512s229-512 512-512 512 229 512 512-229 512-512 512z m239-671c23-22 23-58 0-80-11-11-25-17-40-17s-29 6-40 17l-159 159-159-159c-11-11-26-17-40-17s-29 6-40 17c-23 22-23 58 0 80l159 159-159 159c-23 22-23 58 0 80s58 23 80 0l159-158 159 158c22 23 58 23 80 0s23-58 0-80l-159-159 160-159z" />
<glyph glyph-name="american-sign-language-interpreting" unicode="&#xf2a3;" d="M800 896c-53 0-96-43-96-96v-165c-21 7-47 7-67-2-11 41-49 71-93 71-11 0-22-2-32-5v165c0 53-43 96-96 96s-96-43-96-96v-474l-82 142c-13 22-34 37-59 42-23 5-47 0-69-12-44-26-59-90-32-137l204-354c45-82 135-135 230-135h128c141 0 256 115 256 256v608c0 53-43 96-96 96z m-128-320c18 0 32-14 32-32v-192c0-18-14-32-32-32s-32 14-32 32v192c0 18 14 32 32 32z m-128 64c18 0 32-14 32-32v-256c0-18-14-32-32-32s-32 14-32 32v256c0 18 14 32 32 32z m288-448c0-106-86-192-192-192h-128c-72 0-140 40-174 102l-205 355c-10 17-5 41 9 49 6 4 13 6 19 6 2 0 4 0 6 0 7-2 12-6 15-12l83-142c14-26 43-38 72-30 28 7 47 32 47 62v474c0 18 14 32 32 32s32-14 32-32v-512c0-53 43-96 96-96 25 0 47 10 64 25 17-15 39-25 64-25 53 0 96 43 96 96v448c0 18 14 32 32 32s32-14 32-32v-608z" />
<glyph glyph-name="assistive-listening-systems" unicode="&#xf2a2;" d="M384 320c0 0 0 1 0 1 0 71-57 128-128 128s-128-57-128-128c0-24 7-47 18-66l0 0-73-72c-6-6-9-14-9-23 0-18 14-32 32-32 9 0 17 4 23 9l72 73c19-11 42-18 66-18 70 0 127 57 127 127 0 1 0 1 0 1v0z m-192 0c0 35 29 64 64 64s64-29 64-64c0-35-29-64-64-64v0c-35 0-64 29-64 64v0z m192 576c-164 0-299-124-317-283l0-1c0-1 0-3 0-4 0-18 15-32 32-32 17 0 30 12 32 28l0 0c14 129 122 228 254 228 141 0 255-114 255-255 0-1 0-2 0-3l0 1c0-2 0-4 0-6 0-63-22-122-59-168l0 0c-43-56-69-127-69-204 0-2 0-4 0-5l0 0c0 0 0-1 0-1 0-70-57-127-127-127-30 0-57 10-78 27l0-1c-5 4-12 7-19 7-18 0-32-15-32-32 0-11 5-20 13-26l0 0c31-24 72-39 115-39h0c106 0 192 86 192 192v0c0 2 0 3 0 5 0 64 22 123 59 169l0 0c43 56 69 127 69 204 0 2 0 3 0 5l0 0c0 0 0 0 0 0 0 177-143 320-320 321h0z m108-442c5-4 12-6 19-6 11 0 20 5 26 13l0 0c24 31 39 71 39 115v0c0 106-86 192-192 192s-192-86-192-192v0c0-18 14-32 32-32s32 14 32 32v0c0 0 0 1 0 1 0 71 57 128 128 128s128-57 128-128c0-29-10-57-26-78l0 0c-4-5-7-12-7-19 0-10 5-20 13-26l0 0z m324 283c-4 14-16 25-31 25-18 0-32-15-32-33 0-2 0-5 1-7l0 0c9-34 14-74 14-114v0c0 0 0 0 0-1 0-79-19-154-54-219l2 2c-3-4-5-9-5-15 0-18 15-32 32-32 13 0 24 7 29 18l0 0c38 72 60 156 60 246 0 1 0 1 0 1v0c0 46-6 90-17 133l1-4z m118 52c-3 14-16 24-31 24-17 0-32-14-32-32 0-3 1-6 2-9l0 0c14-49 23-105 23-164l0 0c0 0 0 0 0 0 0-98-23-190-65-272l2 4c-2-4-3-9-3-14 0-18 14-32 32-32 12 0 23 7 28 17l1 1c43 86 69 188 69 295 0 1 0 1 0 1v0c0 65-10 127-27 186l1-5z" />
<glyph glyph-name="audio-description" unicode="&#xf29e;" d="M896 832h-768c-71 0-128-57-128-128v0-512c0-71 57-128 128-128v0h272l86-115c6-8 16-13 26-13s20 5 25 13l1 0 86 115h272c71 0 128 57 128 128v0 512c0 71-57 128-128 128v0z m64-640c0-35-29-64-64-64v0h-288c-10 0-20-5-26-13l0 0-70-94-70 94c-6 8-16 13-26 13h-288c-35 0-64 29-64 64v0 512c0 35 29 64 64 64v0h768c35 0 64-29 64-64v0z m-320 448h-32c-18 0-32-14-32-32v0-320c0-18 14-32 32-32v0h32c106 0 192 86 192 192s-86 192-192 192v0z m0-320v256c71 0 128-57 128-128s-57-128-128-128v0z m-242 299c-4 12-16 21-30 21 0 0 0 0 0 0h-32c0 0 0 0 0 0-14 0-26-9-30-21l0 0-112-320c-1-4-2-7-2-11 0-18 14-32 32-32 14 0 26 9 30 21l0 0 38 107h120l38-107c4-12 16-21 30-21 18 0 32 14 32 32 0 4-1 7-2 11l0 0z m-84-171l38 109 38-109z" />
<glyph glyph-name="blind" unicode="&#xf296;" d="M416 768c53 0 96 43 96 96s-43 96-96 96c-53 0-96-43-96-96v0c0-53 43-96 96-96v0z m0 128c18 0 32-14 32-32s-14-32-32-32c-18 0-32 14-32 32v0c0 18 14 32 32 32v0z m471-920l-128 383c-3 10-13 16-23 16-13 0-24-10-24-24 0-2 0-5 1-7l0 0 128-384c4-9 13-16 23-16 0 0 0 0 0 0v0c0 0 0 0 0 0 3 0 5 0 8 1l0 0c9 4 16 13 16 23 0 3 0 5-1 8l0 0z m-334 529c23-35 62-57 106-57 0 0 0 0 0 0h77c18 0 32 14 32 32s-14 32-32 32v0h-77c0 0 0 0 0 0-22 0-41 11-53 28l0 0-80 121c-18 26-47 43-80 43h-62c-31 0-59-15-77-38l0 0-173-231c-4-5-6-12-6-19 0-18 14-32 32-32 10 0 20 5 26 13l0 0 134 179v-389c0 0 0 0 0 0 0-9-4-17-9-23l0 0-110-109c-7-6-11-15-11-24 0-18 15-32 32-32 10 0 18 4 24 10l0 0 110 109c17 18 28 42 28 69v133h73l121-362c4-13 16-22 30-22h0c0 0 0 0 0 0 4 0 7 1 10 2l0 0c13 4 22 16 22 30 0 4-1 7-2 10l0 0-126 379v209z m-169-121v256h62c1 0 1-1 2-1v-255z" />
<glyph glyph-name="braille" unicode="&#xf2a1;" d="M320 960c-71 0-128-57-128-128s57-128 128-128c71 0 128 57 128 128v0c0 71-57 128-128 128v0z m0-192c-35 0-64 29-64 64s29 64 64 64c35 0 64-29 64-64v0c0-35-29-64-64-64v0z m384-64c71 0 128 57 128 128s-57 128-128 128c-71 0-128-57-128-128v0c0-71 57-128 128-128v0z m0 192c35 0 64-29 64-64s-29-64-64-64c-35 0-64 29-64 64v0c0 35 29 64 64 64v0z m-384-320c-71 0-128-57-128-128s57-128 128-128c71 0 128 57 128 128v0c0 71-57 128-128 128v0z m0-192c-35 0-64 29-64 64s29 64 64 64c35 0 64-29 64-64v0c0-35-29-64-64-64v0z m384 192c-71 0-128-57-128-128s57-128 128-128c71 0 128 57 128 128v0c0 71-57 128-128 128v0z m0-192c-35 0-64 29-64 64s29 64 64 64c35 0 64-29 64-64v0c0-35-29-64-64-64v0z m-384-192c-71 0-128-57-128-128s57-128 128-128c71 0 128 57 128 128v0c0 71-57 128-128 128v0z m0-192c-35 0-64 29-64 64s29 64 64 64c35 0 64-29 64-64v0c0-35-29-64-64-64v0z m384 192c-71 0-128-57-128-128s57-128 128-128c71 0 128 57 128 128v0c0 71-57 128-128 128v0z m0-192c-35 0-64 29-64 64s29 64 64 64c35 0 64-29 64-64v0c0-35-29-64-64-64v0z" />
<glyph glyph-name="deaf" unicode="&#xf2a4;" d="M951 887c-6 6-14 9-23 9s-17-3-23-9l-832-832c-6-6-9-14-9-23 0-18 14-32 32-32 9 0 17 3 23 9l832 832c6 6 9 14 9 23s-3 17-9 23l0 0z m-546-139c21 12 47 20 75 20 19 0 37-4 54-10l-1 0c3-1 7-2 11-2 18 0 32 15 32 32 0 14-9 26-21 30l0 0c-22 9-48 14-75 14-39 0-75-10-107-29l1 1c-70-38-118-112-118-196v0c0-1 0-1 0-2 0-43 14-82 38-114l0 1c2-3 3-6 3-9 0-4-2-7-4-10l0 0-30-38c-4-6-7-12-7-20 0-18 14-32 32-32 10 0 19 5 25 12l0 0 30 38c11 14 18 31 18 50 0 17-6 33-14 45l0 0c-17 21-27 48-27 76 0 1 0 2 0 3l0 0c0 60 34 112 84 139l1 1z m395-173c-2 1-4 1-7 1-15 0-28-11-31-25l0-1c-15-57-43-106-83-145l0 0c-63-62-103-149-103-245v0c0-88-72-160-160-160v0c-18 0-32-14-32-32s14-32 32-32v0c124 0 224 100 224 224v0c0 0 0 0 0 0 0 80 34 152 88 203l0 0c46 47 80 106 96 172l1 3c0 2 0 4 0 6 0 16-11 28-25 31l-1 0z m-640 1c18 0 32 14 32 32v0c0 159 129 288 288 288h0c64 0 124-22 171-58l-1 0c6-4 12-6 19-6 18 0 33 14 33 32 0 10-5 20-13 26l0 0c-57 43-130 70-209 70h0c-194 0-352-158-352-352v0c0-18 14-32 32-32v0z" />
<glyph glyph-name="low-vision" unicode="&#xf2a8;" d="M1016 469c-71 80-261 267-504 267-45 0-88-6-129-17l3 0-135 225c-5 10-15 16-27 16-18 0-32-14-32-32 0-6 2-12 5-17l0 1 127-213c-125-54-231-132-315-229l-1-1c-5-6-8-13-8-21s3-15 8-21l0 0c71-80 261-267 504-267 45 0 88 6 129 17l-3 0 135-225c5-10 15-16 27-16 18 0 32 14 32 32 0 6-2 12-5 17l0-1-127 213c125 54 231 132 315 229l1 1c5 6 8 13 8 21s-3 15-8 21l0 0z m-941-21c35 37 72 70 112 100l3 2 180-302c-116 45-215 113-294 199l-1 1z m437-224c-20 0-39 2-58 5l3 0-215 357c33 21 71 40 111 55l5 2 244-408c-27-7-58-11-90-11l0 0z m154 29l-63 105c23 23 37 55 37 90 0 0 0 0 0 0v0c0 71-57 128-128 128v0c-13 0-25-2-37-6l1 0-54 91c27 7 58 11 90 11l0 0c201 0 368-152 437-224-77-83-172-149-278-193l-5-2z" />
<glyph glyph-name="sign-language" unicode="&#xf2a7;" d="M320 608c0-18 14-32 32-32s32 14 32 32v0 256c0 18 14 32 32 32s32-14 32-32v0-256c0-18 14-32 32-32s32 14 32 32v0 192c0 18 14 32 32 32s32-14 32-32v0-192c0-18 14-32 32-32s32 14 32 32v0 192c0 53-43 96-96 96v0c-13 0-25-3-36-7l0 0c-11 41-48 71-92 71s-81-30-92-70l0-1c-11 4-23 7-36 7h0c-53 0-96-43-96-96v0-216l-28 28c-17 17-42 28-68 28-53 0-96-43-96-96 0-26 11-51 28-68l173-173c6-6 14-9 23-9 17 0 32 14 32 32 0 9-4 16-9 22l-174 173c-6 6-9 14-9 23 0 18 14 32 32 32 9 0 17-3 23-9l82-83c6-6 14-9 23-9 18 0 32 14 32 32v0 293c0 18 14 32 32 32s32-14 32-32v0z m676-241c-9 8-19 15-30 20l0 0c8 14 13 30 13 48 0 27-11 50-28 68l0 0c-18 16-41 26-67 26-18 0-34-5-49-13l1 0c-15 36-49 60-89 60-27 0-51-11-68-28l0 0-167-167v35c0 53-43 96-96 96s-96-43-96-96v0-320c0-18 14-32 32-32s32 14 32 32v0 320c0 18 14 32 32 32s32-14 32-32v0-117c0-18 14-32 32-32v0c14 0 27 10 30 24l0 0c3 1 5 2 7 4l0 0 207 208c6 5 14 9 23 9 18 0 32-14 32-32 0-9-4-17-10-23l-135-135c-6-6-9-14-9-23 0-17 14-32 32-32 8 0 16 4 22 9l181 181c6 6 14 9 22 9s17-3 23-9l0 0c6-6 9-14 9-22s-3-17-9-23v0l-45-45-135-136c-6-6-10-14-10-23 0-18 14-32 32-32 9 0 17 4 23 10l136 136c5 5 13 9 22 9 18 0 32-14 32-32 0-9-3-17-9-23v0l-286-285c-6-6-9-14-9-23 0-18 14-32 32-32 9 0 17 4 22 9v0l286 286c17 17 28 41 28 68 0 26-11 50-28 68l0 0z" />
<glyph glyph-name="universal-access" unicode="&#xf29a;" d="M576 704c0-35-29-64-64-64s-64 29-64 64c0 35 29 64 64 64s64-29 64-64z m-64 256c-283 0-512-229-512-512s229-512 512-512c283 0 512 229 512 512v0c0 283-229 512-512 512h0z m0-960c-247 0-448 201-448 448s201 448 448 448c247 0 448-201 448-448v0c0-247-201-448-448-448h0z m213 638l-100-37c-33-13-72-20-113-20s-80 7-116 21l2-1-99 37c-3 1-7 2-12 2-17 0-32-14-32-32 0-14 9-26 22-30l0 0 99-37c20-7 45-14 70-18l2-1v-10c0-34-6-65-17-95l1 2-78-216c-1-3-2-7-2-11 0-18 14-32 32-32 14 0 25 9 30 21l0 0 63 176c5 11 16 19 29 19 1 0 1 0 2 0l0 0h8c1 0 1 0 1 0 13 0 25-8 30-19l0 0 63-176c4-12 16-21 30-21 18 0 32 14 32 32 0 4-1 8-2 11l0 0-78 216c-10 28-16 59-16 93v10c27 5 51 12 74 20l-2-1 99 37c12 5 20 17 20 30 0 18-14 32-32 32-3 0-7-1-10-2l0 0z" />
<glyph glyph-name="volume-control-phone" unicode="&#xf2a0;" d="M810 810c-6 6-14 9-22 9-18 0-32-14-32-32 0-9 3-17 9-22l0 0c81-81 131-193 131-317s-50-236-131-317v0c-6-6-9-13-9-22 0-18 14-32 32-32 8 0 16 3 22 9l0 0c93 93 150 221 150 362s-57 269-150 362v0z m-136-136c-5 6-13 9-22 9-18 0-32-14-32-32 0-8 4-16 9-22l0 0c46-46 75-110 75-181s-29-135-75-181l0 0c-5-6-9-14-9-22 0-18 14-32 32-32 9 0 17 3 22 9l0 0c58 58 94 138 94 226s-36 168-94 226l0 0z m-303-98c0 0 0 0 0 0 15 0 28 10 31 24l0 1c18 76 47 143 85 203l-1-2c3 4 4 10 4 17 0 11-5 20-14 26l0 0-170 112c-5 3-11 5-18 5-9 0-17-4-23-10l0 0c-125-131-201-309-201-504s76-373 201-504l0 0c6-6 14-10 23-10 0 0 0 0 0 0h0c7 0 13 2 18 5l0 0 170 112c9 6 14 15 14 27 0 6-1 12-5 17l1-1c-37 58-66 125-83 197l-1 4c-3 15-16 25-31 25 0 0 0 0 0 0h-97c-12 38-18 83-18 128s6 90 18 131l0-3z m-152-298c5-13 17-22 31-22h96c17-64 41-120 71-172l-2 3-122-79c-102 117-165 271-165 440s63 323 166 441l-1-1 122-79c-28-49-51-105-68-164l-1-5h-96c-14 0-26-9-31-22l0 0c-17-51-27-109-27-170s10-119 28-174l-1 4z" />
<glyph glyph-name="wheelchair-alt" unicode="&#xf29b;" d="M768 704c71 0 128 57 128 128s-57 128-128 128c-71 0-128-57-128-128v0c0-71 57-128 128-128v0z m0 192c35 0 64-29 64-64s-29-64-64-64c-35 0-64 29-64 64v0c0 35 29 64 64 64v0z m-448-672c0-18-14-32-32-32s-32 14-32 32c0 18 14 32 32 32s32-14 32-32z m-32 288c-159 0-288-129-288-288s129-288 288-288c159 0 288 129 288 288v0c0 159-129 288-288 288h0z m0-512c-124 0-224 100-224 224s100 224 224 224c124 0 224-100 224-224v0c0-124-100-224-224-224v0z m-9 617l79 79c11 12 27 19 45 19 10 0 20-2 29-7l0 1 154-78-84-83c-6-6-10-14-10-24 0-17 15-32 32-32 9 0 18 4 23 10l116 115c5 6 9 14 9 23 0 12-7 23-17 29l-1 0-194 97c-17 8-36 13-57 13-35 0-67-14-91-37l-79-79c-5-6-9-14-9-23 0-18 14-32 32-32 9 0 17 4 23 9v0z m617-553h-38l-43 217c-12 59-64 103-126 103h-17c-18 0-32-14-32-32s14-32 32-32v0h17c0 0 0 0 0 0 31 0 57-22 63-51l0 0 49-243c3-15 16-26 31-26 0 0 0 0 0 0h64c18 0 32 14 32 32s-14 32-32 32v0z" />
<glyph glyph-name="calendar-alarm" unicode="&#xe9aa;" d="M969 100c-5 6-9 14-9 22v0 102c0 88-72 160-160 160s-160-72-160-160v0-102c0-8-4-16-9-22l0 0-46-45c-6-6-9-14-9-23 0-18 14-32 32-32 0 0 0 0 0 0h160v-32c0-18 14-32 32-32s32 14 32 32v0 32h160c0 0 0 0 0 0 18 0 32 14 32 32 0 9-3 17-9 23l0 0z m-285-36c13 16 20 36 20 58 0 0 0 0 0 0v0 102c0 53 43 96 96 96s96-43 96-96v0-102c0 0 0 0 0 0 0-22 7-42 20-58l0 0z m212 768h-64v32c0 18-14 32-32 32s-32-14-32-32v0-32h-512v32c0 18-14 32-32 32s-32-14-32-32v0-32h-64c-71 0-128-57-128-128v0-512c0-71 57-128 128-128v0h288c18 0 32 14 32 32s-14 32-32 32v0h-288c-35 0-64 29-64 64v0 384h896v-32c0-18 14-32 32-32s32 14 32 32v0 160c0 71-57 128-128 128v0z m-832-192v64c0 35 29 64 64 64v0h64v-32c0-18 14-32 32-32s32 14 32 32v0 32h512v-32c0-18 14-32 32-32s32 14 32 32v0 32h64c35 0 64-29 64-64v0-64z" />
<glyph glyph-name="calendar-arrow-down" unicode="&#xe9ab;" d="M896 832h-64v32c0 18-14 32-32 32s-32-14-32-32v0-32h-512v32c0 18-14 32-32 32s-32-14-32-32v0-32h-64c-71 0-128-57-128-128v0-512c0-71 57-128 128-128v0h288c18 0 32 14 32 32s-14 32-32 32v0h-288c-35 0-64 29-64 64v0 384h896v-32c0-18 14-32 32-32s32 14 32 32v0 160c0 71-57 128-128 128v0z m-832-192v64c0 35 29 64 64 64v0h64v-32c0-18 14-32 32-32s32 14 32 32v0 32h512v-32c0-18 14-32 32-32s32 14 32 32v0 32h64c35 0 64-29 64-64v0-64z m873-489l-105-106v307c0 18-14 32-32 32s-32-14-32-32v0-307l-105 106c-6 5-14 9-23 9-18 0-32-14-32-32 0-9 4-17 9-23v0l160-160c6-6 14-9 23-9s17 3 23 9l160 160c5 6 9 14 9 23 0 18-14 32-32 32-9 0-17-4-23-9v0z" />
<glyph glyph-name="calendar-arrow-up" unicode="&#xe9ac;" d="M896 832h-64v32c0 18-14 32-32 32s-32-14-32-32v0-32h-512v32c0 18-14 32-32 32s-32-14-32-32v0-32h-64c-71 0-128-57-128-128v0-512c0-71 57-128 128-128v0h288c18 0 32 14 32 32s-14 32-32 32v0h-288c-35 0-64 29-64 64v0 384h896v-32c0-18 14-32 32-32s32 14 32 32v0 160c0 71-57 128-128 128v0z m-832-192v64c0 35 29 64 64 64v0h64v-32c0-18 14-32 32-32s32 14 32 32v0 32h512v-32c0-18 14-32 32-32s32 14 32 32v0 32h64c35 0 64-29 64-64v0-64z m759-265c-6 6-14 9-23 9s-17-3-23-9l-160-160c-5-6-9-14-9-23 0-18 14-32 32-32 9 0 17 4 23 9v0l105 106v-307c0-18 14-32 32-32s32 14 32 32v0 307l105-106c6-5 14-9 23-9 18 0 32 14 32 32 0 9-4 17-9 23v0z" />
<glyph glyph-name="calendar-ban" unicode="&#xe9ad;" d="M896 832h-64v32c0 18-14 32-32 32s-32-14-32-32v0-32h-512v32c0 18-14 32-32 32s-32-14-32-32v0-32h-64c-71 0-128-57-128-128v0-512c0-71 57-128 128-128v0h288c18 0 32 14 32 32s-14 32-32 32v0h-288c-35 0-64 29-64 64v0 384h896v-32c0-18 14-32 32-32s32 14 32 32v0 160c0 71-57 128-128 128v0z m-832-192v64c0 35 29 64 64 64v0h64v-32c0-18 14-32 32-32s32 14 32 32v0 32h512v-32c0-18 14-32 32-32s32 14 32 32v0 32h64c35 0 64-29 64-64v0-64z m736-256c-124 0-224-100-224-224s100-224 224-224c124 0 224 100 224 224v0c0 124-100 224-224 224v0z m-160-224c0 88 72 160 160 160v0c0 0 0 0 0 0 33 0 63-10 89-27l-1 0-221-221c-17 25-27 55-27 88 0 0 0 0 0 0v0z m160-160c0 0 0 0 0 0-33 0-63 10-89 27l1 0 221 221c17-25 27-55 27-88 0 0 0 0 0 0v0c0-88-72-160-160-160v0z" />
<glyph glyph-name="calendar-chart" unicode="&#xe9ae;" d="M896 832h-64v32c0 18-14 32-32 32s-32-14-32-32v0-32h-512v32c0 18-14 32-32 32s-32-14-32-32v0-32h-64c-71 0-128-57-128-128v0-512c0-71 57-128 128-128v0h288c18 0 32 14 32 32s-14 32-32 32v0h-288c-35 0-64 29-64 64v0 384h896v-32c0-18 14-32 32-32s32 14 32 32v0 160c0 71-57 128-128 128v0z m64-192h-896v64c0 35 29 64 64 64v0h64v-32c0-18 14-32 32-32s32 14 32 32v0 32h512v-32c0-18 14-32 32-32s32 14 32 32v0 32h64c35 0 64-29 64-64v0z m32-384h-96v96c0 18-14 32-32 32v0h-128c-18 0-32-14-32-32v0-160h-96c-18 0-32-14-32-32v0-192c0-18 14-32 32-32v0h384c18 0 32 14 32 32v0 256c0 18-14 32-32 32v0z m-288-256h-64v128h64z m128 224v-224h-64v320h64z m128-224h-64v192h64z" />
<glyph glyph-name="calendar-clock" unicode="&#xe9af;" d="M896 832h-64v32c0 18-14 32-32 32s-32-14-32-32v0-32h-512v32c0 18-14 32-32 32s-32-14-32-32v0-32h-64c-71 0-128-57-128-128v0-512c0-71 57-128 128-128v0h288c18 0 32 14 32 32s-14 32-32 32v0h-288c-35 0-64 29-64 64v0 384h896v-32c0-18 14-32 32-32s32 14 32 32v0 160c0 71-57 128-128 128v0z m-832-192v64c0 35 29 64 64 64v0h64v-32c0-18 14-32 32-32s32 14 32 32v0 32h512v-32c0-18 14-32 32-32s32 14 32 32v0 32h64c35 0 64-29 64-64v0-64z m736-256c-124 0-224-100-224-224s100-224 224-224c124 0 224 100 224 224v0c0 124-100 224-224 224v0z m0-384c-88 0-160 72-160 160s72 160 160 160c88 0 160-72 160-160v0c0-88-72-160-160-160v0z m32 173v51c0 18-14 32-32 32s-32-14-32-32v0-64c0 0 0 0 0 0 0-9 4-17 9-23l64-64c6-6 14-9 23-9 18 0 32 14 32 32 0 9-3 17-9 23v0z" />
<glyph glyph-name="calendar-edit" unicode="&#xe9b1;" d="M896 832h-64v32c0 18-14 32-32 32s-32-14-32-32v0-32h-512v32c0 18-14 32-32 32s-32-14-32-32v0-32h-64c-71 0-128-57-128-128v0-512c0-71 57-128 128-128v0h288c18 0 32 14 32 32s-14 32-32 32v0h-288c-35 0-64 29-64 64v0 384h896v-32c0-18 14-32 32-32s32 14 32 32v0 160c0 71-57 128-128 128v0z m64-192h-896v64c0 35 29 64 64 64v0h64v-32c0-18 14-32 32-32s32 14 32 32v0 32h512v-32c0-18 14-32 32-32s32 14 32 32v0 32h64c35 0 64-29 64-64v0z m-36-256c-27 0-52-11-70-29l-186-186c-15-15-27-33-35-53l0-1-55-135c-1-4-2-8-2-12 0-18 14-32 32-32h0c4 0 8 1 12 2l0 0 136 55c20 8 38 20 53 35l186 186c18 18 29 43 29 70 0 55-45 100-100 100h0z m26-125l-186-186c-9-9-19-16-31-21l-1 0-66-26 26 66c5 12 12 23 21 32l186 185c6 6 15 10 25 10 19 0 35-16 35-36 0-9-3-18-9-24l0 0z" />
<glyph glyph-name="calendar-heart" unicode="&#xe9b2;" d="M896 832h-64v32c0 18-14 32-32 32s-32-14-32-32v0-32h-512v32c0 18-14 32-32 32s-32-14-32-32v0-32h-64c-71 0-128-57-128-128v0-512c0-71 57-128 128-128v0h288c18 0 32 14 32 32s-14 32-32 32v0h-288c-35 0-64 29-64 64v0 384h896v-32c0-18 14-32 32-32s32 14 32 32v0 160c0 71-57 128-128 128v0z m-832-192v64c0 35 29 64 64 64v0h64v-32c0-18 14-32 32-32s32 14 32 32v0 32h512v-32c0-18 14-32 32-32s32 14 32 32v0 32h64c35 0 64-29 64-64v0-64z m743-292l-7-8-7 8c-24 22-55 36-90 36s-66-14-90-36l0 0c-23-23-37-54-37-89s14-66 37-89l0 0 165-161c5-6 13-9 22-9s17 3 22 9l0 0 165 161c23 23 37 54 37 89s-14 66-37 89l0 0c-24 22-55 36-90 36s-66-14-90-37l1 0z m135-132l-142-139-142 139c-11 11-18 26-18 43s7 32 18 43l0 0c12 11 28 18 45 18s33-7 45-18l0 0 30-30c5-5 13-9 22-9s17 4 22 9l0 0 30 30c12 11 28 18 45 18s33-7 45-18l0 0c11-11 18-26 18-43s-7-32-18-43l0 0z" />
<glyph glyph-name="calendar-lock" unicode="&#xe9b3;" d="M896 832h-64v32c0 18-14 32-32 32s-32-14-32-32v0-32h-512v32c0 18-14 32-32 32s-32-14-32-32v0-32h-64c-71 0-128-57-128-128v0-512c0-71 57-128 128-128v0h288c18 0 32 14 32 32s-14 32-32 32v0h-288c-35 0-64 29-64 64v0 384h896v-32c0-18 14-32 32-32s32 14 32 32v0 160c0 71-57 128-128 128v0z m-832-192v64c0 35 29 64 64 64v0h64v-32c0-18 14-32 32-32s32 14 32 32v0 32h512v-32c0-18 14-32 32-32s32 14 32 32v0 32h64c35 0 64-29 64-64v0-64z m896-448v64c0 71-57 128-128 128s-128-57-128-128v0-64c-35 0-64-29-64-64v0-128c0-35 29-64 64-64v0h256c35 0 64 29 64 64v0 128c0 35-29 64-64 64v0z m-192 64c0 35 29 64 64 64s64-29 64-64v0-64h-128z m192-256h-256v128h256z" />
<glyph glyph-name="calendar-pointer" unicode="&#xe9b5;" d="M896 832h-64v32c0 18-14 32-32 32s-32-14-32-32v0-32h-512v32c0 18-14 32-32 32s-32-14-32-32v0-32h-64c-71 0-128-57-128-128v0-512c0-71 57-128 128-128v0h288c18 0 32 14 32 32s-14 32-32 32v0h-288c-35 0-64 29-64 64v0 384h896v-32c0-18 14-32 32-32s32 14 32 32v0 160c0 71-57 128-128 128v0z m-832-192v64c0 35 29 64 64 64v0h64v-32c0-18 14-32 32-32s32 14 32 32v0 32h512v-32c0-18 14-32 32-32s32 14 32 32v0 32h64c35 0 64-29 64-64v0-64z m695-265c-6 6-14 9-23 9-18 0-32-14-32-32 0 0 0 0 0 0v0-272c0-13 8-24 20-29l0 0c3-2 8-3 12-3h0c9 0 17 4 23 10l0 0 48 48 64-151c5-11 16-19 30-19 0 0 0 0 0 0h0c0 0 0 0 0 0 4 0 9 1 13 3l-1 0c12 5 20 16 20 29 0 5-1 9-3 13l0 0-63 148 61-1c13 0 24 8 30 19l0 0c1 4 2 8 2 13 0 9-3 17-9 22l0 0z" />
<glyph glyph-name="calendar-search" unicode="&#xe9b6;" d="M896 832h-64v32c0 18-14 32-32 32s-32-14-32-32v0-32h-512v32c0 18-14 32-32 32s-32-14-32-32v0-32h-64c-71 0-128-57-128-128v0-512c0-71 57-128 128-128v0h288c18 0 32 14 32 32s-14 32-32 32v0h-288c-35 0-64 29-64 64v0 384h896v-32c0-18 14-32 32-32s32 14 32 32v0 160c0 71-57 128-128 128v0z m-832-192v64c0 35 29 64 64 64v0h64v-32c0-18 14-32 32-32s32 14 32 32v0 32h512v-32c0-18 14-32 32-32s32 14 32 32v0 32h64c35 0 64-29 64-64v0-64z m805-504c17 25 27 55 27 88 0 0 0 0 0 0v0c0 88-72 160-160 160s-160-72-160-160c0-88 72-160 160-160v0c0 0 0 0 0 0 33 0 63 10 89 27l-1 0 81-82c6-6 14-9 23-9 18 0 32 14 32 32 0 9-3 17-9 23v0z m-133-8c-53 0-96 43-96 96s43 96 96 96c53 0 96-43 96-96v0c0-53-43-96-96-96v0z" />
<glyph glyph-name="calendar-user" unicode="&#xe9b7;" d="M896 832h-64v32c0 18-14 32-32 32s-32-14-32-32v0-32h-512v32c0 18-14 32-32 32s-32-14-32-32v0-32h-64c-71 0-128-57-128-128v0-512c0-71 57-128 128-128v0h288c18 0 32 14 32 32s-14 32-32 32v0h-288c-35 0-64 29-64 64v0 384h896v-32c0-18 14-32 32-32s32 14 32 32v0 160c0 71-57 128-128 128v0z m-832-192v64c0 35 29 64 64 64v0h64v-32c0-18 14-32 32-32s32 14 32 32v0 32h512v-32c0-18 14-32 32-32s32 14 32 32v0 32h64c35 0 64-29 64-64v0-64z m903-521l-31 21c15 24 24 54 24 85 0 88-72 160-160 160s-160-72-160-160c0-31 9-61 25-86l-1 1-31-21c-35-23-57-62-57-106v-45c0-18 14-32 32-32s32 14 32 32v0 45c0 22 11 41 28 53l0 0 41 27c25-18 57-29 91-29s66 11 92 29l-1 0 41-27c17-12 28-31 28-53v-45c0-18 14-32 32-32s32 14 32 32v0 45c0 44-22 83-57 106l0 0z m-263 105c0 53 43 96 96 96s96-43 96-96c0-53-43-96-96-96v0c-53 0-96 43-96 96v0z" />
<glyph glyph-name="calendar-wrench" unicode="&#xe9b8;" d="M896 832h-64v32c0 18-14 32-32 32s-32-14-32-32v0-32h-512v32c0 18-14 32-32 32s-32-14-32-32v0-32h-64c-71 0-128-57-128-128v0-512c0-71 57-128 128-128v0h288c18 0 32 14 32 32s-14 32-32 32v0h-288c-35 0-64 29-64 64v0 384h896v-32c0-18 14-32 32-32s32 14 32 32v0 160c0 71-57 128-128 128v0z m-832-192v64c0 35 29 64 64 64v0h64v-32c0-18 14-32 32-32s32 14 32 32v0 32h512v-32c0-18 14-32 32-32s32 14 32 32v0 32h64c35 0 64-29 64-64v0-64z m930-313l-92-92c-3-3-7-4-12-4s-8 1-11 4v0l-68 68c-3 3-4 7-4 11s1 9 4 12v0l92 92c3 3 5 7 5 11 0 8-5 14-12 16l0 0c-10 2-21 3-32 3-19 0-37-3-54-10l1 1c-45-17-81-53-97-97l-1-1c-6-16-9-34-9-53 0-17 3-34 8-50l0 1c0-1 1-3 1-5 0-4-2-8-5-11l-174-175c-13-12-21-29-21-48 0-16 5-30 14-42l0 0c12-13 29-22 49-22 18 0 33 7 45 19l178 177c2 3 6 5 11 5 2 0 3-1 5-1l0 0c15-5 31-8 49-8 19 0 37 3 54 10l-1-1c45 17 81 53 97 97l0 1c6 16 10 34 10 53 0 11-1 22-4 33l1-1c-2 7-9 12-16 12-4 0-8-2-11-5l0 0z" />
<glyph glyph-name="area-chart" unicode="&#xf1fe;" d="M1004 766c-12 5-25 2-35-7l-361-362-233 234c-13 12-33 12-46 0l-265-266v499c0 18-14 32-32 32s-32-14-32-32v-768c0-18 14-32 32-32h960c18 0 32 14 32 32v640c0 13-8 25-20 30z m-44-638h-896v147l288 288 233-234c13-12 33-12 46 0l329 330v-531z" />
<glyph glyph-name="bar-chart" unicode="&#xf080;" d="M992 128h-32v288c0 18-14 32-32 32h-192c-18 0-32-14-32-32v-288h-64v672c0 18-14 32-32 32h-192c-18 0-32-14-32-32v-672h-64v480c0 18-14 32-32 32h-192c-18 0-32-14-32-32v-480h-32c-18 0-32-14-32-32s14-32 32-32h960c18 0 32 14 32 32s-14 32-32 32z m-864 0v448h128v-448h-128z m320 0v640h128v-640h-128z m320 0v256h128v-256h-128z" />
<glyph glyph-name="bar-chart-horizontal" unicode="&#xe905;" d="M992 128h-928v128h480c18 0 32 14 32 32v192c0 18-14 32-32 32h-480v128h864c18 0 32 14 32 32v192c0 18-14 32-32 32h-896c-18 0-32-14-32-32v-768c0-18 14-32 32-32h960c18 0 32 14 32 32s-14 32-32 32z m-928 704h832v-128h-832v128z m0-384h448v-128h-448v128z" />
<glyph glyph-name="box-plot-chart" unicode="&#xeaf5;" d="M992 128h-928v736c0 18-14 32-32 32s-32-14-32-32v-768c0-18 14-32 32-32h960c18 0 32 14 32 32s-14 32-32 32z m-768 256h96v-128h-32c-18 0-32-14-32-32s14-32 32-32h128c18 0 32 14 32 32s-14 32-32 32h-32v128h96c18 0 32 14 32 32v256c0 18-14 32-32 32h-96v128h32c18 0 32 14 32 32s-14 32-32 32h-128c-18 0-32-14-32-32s14-32 32-32h32v-128h-96c-18 0-32-14-32-32v-256c0-18 14-32 32-32z m32 256h192v-64h-192v64z m0-128h192v-64h-192v64z m416-128h96v-128h-32c-18 0-32-14-32-32s14-32 32-32h128c18 0 32 14 32 32s-14 32-32 32h-32v128h96c18 0 32 14 32 32v256c0 18-14 32-32 32h-96v128h32c18 0 32 14 32 32s-14 32-32 32h-128c-18 0-32-14-32-32s14-32 32-32h32v-128h-96c-18 0-32-14-32-32v-256c0-18 14-32 32-32z m32 256h192v-64h-192v64z m0-128h192v-64h-192v64z" />
<glyph glyph-name="bubble-chart" unicode="&#xe906;" d="M992 128h-928v736c0 18-14 32-32 32s-32-14-32-32v-768c0-18 14-32 32-32h960c18 0 32 14 32 32s-14 32-32 32z m-608 192c0-71 57-128 128-128s128 57 128 128-57 128-128 128-128-57-128-128z m192 0c0-35-29-64-64-64s-64 29-64 64 29 64 64 64 64-29 64-64z m-320 64c71 0 128 57 128 128s-57 128-128 128-128-57-128-128 57-128 128-128z m0 192c35 0 64-29 64-64s-29-64-64-64-64 29-64 64 29 64 64 64z m576-256c71 0 128 57 128 128s-57 128-128 128-128-57-128-128 57-128 128-128z m0 192c35 0 64-29 64-64s-29-64-64-64-64 29-64 64 29 64 64 64z m-288 0c88 0 160 72 160 160s-72 160-160 160-160-72-160-160 72-160 160-160z m0 256c53 0 96-43 96-96s-43-96-96-96-96 43-96 96 43 96 96 96z" />
<glyph glyph-name="combo-chart" unicode="&#xe907;" d="M992 640h-192c-18 0-32-14-32-32v-480h-64v352c0 18-14 32-32 32h-192c-18 0-32-14-32-32v-352h-64v224c0 18-14 32-32 32h-192c-18 0-32-14-32-32v-224h-64v736c0 18-14 32-32 32s-32-14-32-32v-768c0-18 14-32 32-32h960c18 0 32 14 32 32v512c0 18-14 32-32 32z m-672-512h-128v192h128v-192z m320 0h-128v320h128v-320z m320 0h-128v448h128v-448z m-800 378c4 0 8 0 12 2l832 333c16 6 24 25 18 41s-26 25-42 18l-832-333c-16-6-24-25-18-41 5-13 17-20 30-20z" />
<glyph glyph-name="dial-gauge-chart" unicode="&#xe908;" d="M790 681c12 13 12 33 0 46s-33 12-46 0l-167-168c-20 12-42 19-66 19-71 0-128-57-128-128s57-128 128-128 128 57 128 128c0 23-7 45-18 63l169 168z m-279-295c-35 0-64 29-64 64s29 64 64 64 64-29 64-64-29-64-64-64z m-31 382h64c18 0 32 14 32 32s-14 32-32 32h-64c-18 0-32-14-32-32s14-32 32-32z m-320-256c-18 0-32-14-32-32v-64c0-18 14-32 32-32s32 14 32 32v64c0 18-14 32-32 32z m704 0c-18 0-32-14-32-32v-64c0-18 14-32 32-32s32 14 32 32v64c0 18-14 32-32 32z m-601 230l-45-45c-13-13-13-33 0-45 6-7 14-10 23-10s16 3 22 10l45 45c13 12 13 33 0 45s-32 13-45 0z m498-498l-45-45c-13-12-13-33 0-45 6-6 14-10 22-10s17 4 23 10l45 45c13 13 13 33 0 45s-33 13-45 0z m-498 0c-12 13-33 13-45 0s-13-32 0-45l45-45c6-6 15-10 23-10s16 4 22 10c13 12 13 33 0 45l-45 45z m249 716c-282 0-512-230-512-513 0-181 97-351 254-443 4-2 10-4 16-4h484c6 0 12 2 16 4 157 92 254 262 254 443 0 283-230 513-512 513z m233-896h-466c-133 81-215 227-215 383 0 247 201 449 448 449s448-202 448-449c0-156-82-302-215-383z" />
<glyph glyph-name="donut-chart" unicode="&#xe909;" d="M800 384h-192c-18 0-32-14-32-32 0-88-72-160-160-160s-160 72-160 160 72 160 160 160c18 0 32 14 32 32v192c0 18-14 32-32 32-229 0-416-187-416-416s187-416 416-416 416 187 416 416c0 18-14 32-32 32z m-736-32c0 183 141 334 320 351v-129c-108-16-192-109-192-222 0-50 17-96 45-133l-91-92c-51 61-82 139-82 225z m352-352c-86 0-164 31-225 82l91 91c38-28 84-45 134-45 50 0 96 17 133 45l91-91c-61-50-138-82-224-82z m270 128l-91 90c22 30 37 64 43 102h129c-7-73-37-139-81-192z m-78 828c-18 0-32-14-32-32v-192c0-17 14-32 32-32 88 0 160-72 160-160 0-17 14-32 32-32h192c18 0 32 15 32 32 0 230-187 416-416 416z m222-384c-14 98-92 176-190 190v129c169-15 303-150 319-319h-129z" />
<glyph glyph-name="funnel-chart" unicode="&#xe90a;" d="M992 128h-928v736c0 18-14 32-32 32s-32-14-32-32v-768c0-18 14-32 32-32h960c18 0 32 14 32 32s-14 32-32 32z m-628 429c56-75 92-163 104-252l12-85c3-16 16-28 32-28h192c16 0 29 12 32 28l12 85c12 89 48 177 104 252l166 224c7 10 8 23 3 33s-17 18-29 18h-768c-12 0-23-7-29-18s-4-23 3-33l166-224z m356-109h-224c-17 45-40 88-68 128h360c-28-40-51-83-68-128z m-44-192h-136l-8 58c-3 23-8 47-15 70h182c-6-23-11-47-15-70l-8-58z m252 512l-94-128h-452l-94 128h640z" />
<glyph glyph-name="gantt-chart" unicode="&#xe90b;" d="M160 704h384c18 0 32 14 32 32v128c0 18-14 32-32 32h-384c-18 0-32-14-32-32v-128c0-18 14-32 32-32z m32 128h320v-64h-320v64z m192-224v-128c0-18 14-32 32-32h256c18 0 32 14 32 32v128c0 18-14 32-32 32h-256c-18 0-32-14-32-32z m64-32h192v-64h-192v64z m64-224v-128c0-18 14-32 32-32h384c18 0 32 14 32 32v128c0 18-14 32-32 32h-384c-18 0-32-14-32-32z m64-32h320v-64h-320v64z m416-192h-928v736c0 18-14 32-32 32s-32-14-32-32v-768c0-18 14-32 32-32h960c18 0 32 14 32 32s-14 32-32 32z" />
<glyph glyph-name="line-area-chart" unicode="&#xe90c;" d="M1004 830c-12 5-25 2-35-7l-173-174-170 114c-13 8-30 6-41-4l-173-174-170 114c-14 9-32 6-42-6l-136-159v330c0 18-14 32-32 32s-32-14-32-32v-768c0-18 14-32 32-32h960c18 0 32 14 32 32v704c0 13-8 25-20 30z m-774-200l168-113c13-8 30-6 41 4l173 174 170-114c13-8 30-6 41 4l137 138v-166l-164-164-170 114c-13 8-30 6-41-4l-173-174-170 114c-14 9-32 6-42-6l-136-159v158l166 194z m-166-502v52l166 194 168-113c13-8 30-6 41 4l173 174 170-114c13-8 30-6 41 4l137 138v-339h-896z" />
<glyph glyph-name="line-chart" unicode="&#xf201;" d="M992 128h-928v672c0 18-14 32-32 32s-32-14-32-32v-704c0-18 14-32 32-32h960c18 0 32 14 32 32s-14 32-32 32z m0 640h-256c-18 0-32-14-32-32s14-32 32-32h179l-307-307-170 170c-12 12-33 12-45 0l-256-256c-13-13-13-33 0-46 6-6 14-9 23-9s16 3 22 9l234 234 170-170c12-12 33-12 45 0l329 330v-179c0-18 14-32 32-32s32 14 32 32v256c0 18-14 32-32 32z" />
<glyph glyph-name="pie-chart" unicode="&#xf200;" d="M800 388h-352v352c0 17-14 32-32 32-229 0-416-187-416-416s187-416 416-416 416 186 416 416c0 17-14 32-32 32z m-736-32c0 183 141 334 320 350v-337l-238-238c-51 61-82 139-82 225z m127-271l225 225 224-224c-61-51-139-82-224-82-86 0-164 31-225 81z m495 46l-193 193h274c-7-73-37-139-81-193z m-78 829c-18 0-32-14-32-32v-384c0-18 14-32 32-32h384c18 0 32 14 32 32 0 229-187 416-416 416z m32-384v319c169-16 303-150 319-319h-319z" />
<glyph glyph-name="pie-chart-0" unicode="&#xeaa7;" d="M512 960c-282 0-512-230-512-512s230-512 512-512 512 230 512 512-230 512-512 512z m0-960c-247 0-448 201-448 448s201 448 448 448 448-201 448-448-201-448-448-448z" />
<glyph glyph-name="pie-chart-10" unicode="&#xeaa9;" d="M512 960c-282 0-512-230-512-512s230-512 512-512 512 230 512 512-230 512-512 512z m0-960c-247 0-448 201-448 448s201 448 448 448v-448l263 362c112-82 185-213 185-362 0-247-201-448-448-448z" />
<glyph glyph-name="pie-chart-100" unicode="&#xeabb;" d="M1024 448c0-283-229-512-512-512s-512 229-512 512c0 283 229 512 512 512s512-229 512-512z" />
<glyph glyph-name="pie-chart-15" unicode="&#xeaaa;" d="M512 960c-282 0-512-230-512-512s230-512 512-512 512 230 512 512-230 512-512 512z m0-960c-247 0-448 201-448 448s201 448 448 448v-448l362 263c54-74 86-165 86-263 0-247-201-448-448-448z" />
<glyph glyph-name="pie-chart-20" unicode="&#xeaab;" d="M513 960c-282 0-512-230-512-512s230-512 512-512 512 230 512 512-230 512-512 512z m0-960c-247 0-448 201-448 448 0 247 201 447 447 448 0-228 0-448 0-448l427 139c14-44 22-91 22-139 0-247-201-448-448-448z" />
<glyph glyph-name="pie-chart-25" unicode="&#xeaac;" d="M512 960c-282 0-512-230-512-512s230-512 512-512 512 230 512 512-230 512-512 512z m0-960c-247 0-448 201-448 448s201 448 448 448v-448h448c0-247-201-448-448-448z" />
<glyph glyph-name="pie-chart-30" unicode="&#xeaad;" d="M512 960c-282 0-512-230-512-512s230-512 512-512 512 230 512 512-230 512-512 512z m0-960c-247 0-448 201-448 448s201 448 448 448v-448l426-138c-59-180-227-310-426-310z" />
<glyph glyph-name="pie-chart-35" unicode="&#xeaae;" d="M512 960c-282 0-512-230-512-512s230-512 512-512 512 230 512 512-230 512-512 512z m0-960c-247 0-448 201-448 448s201 448 448 448v-448l362-263c-82-112-213-185-362-185z" />
<glyph glyph-name="pie-chart-40" unicode="&#xeaaf;" d="M506 960c-282 0-512-230-512-512s230-512 512-512 512 230 512 512-229 512-512 512z m-448-512c0 247 201 448 448 448 2 0 4 0 6 0v-448l261-359c-75-56-167-89-267-89-247 0-448 201-448 448z" />
<glyph glyph-name="pie-chart-45" unicode="&#xeab0;" d="M513 960c-282 0-512-230-512-512s230-512 512-512 512 230 512 512-230 512-512 512z m-448-512c0 247 201 448 447 448l0-448 139-426c-44-14-90-22-138-22-247 0-448 201-448 448z" />
<glyph glyph-name="pie-chart-5" unicode="&#xeaa8;" d="M512 960c-282 0-512-230-512-512s230-512 512-512 512 230 512 512-230 512-512 512z m0-960c-247 0-448 201-448 448s201 448 448 448v-448l138 426c180-59 310-227 310-426 0-247-201-448-448-448z" />
<glyph glyph-name="pie-chart-50" unicode="&#xeab1;" d="M512 965c-284 0-514-231-514-515s230-514 514-514 514 231 514 514-230 515-514 515z m0-960c-246 0-446 199-446 445s200 446 446 446v-891z" />
<glyph glyph-name="pie-chart-55" unicode="&#xeab2;" d="M513 960c-282 0-512-230-512-512s230-512 512-512 512 230 512 512-230 512-512 512z m-448-512c0 247 201 448 448 448 0 0 1 0 1 0l0-448-138-426c-180 58-311 227-311 426z" />
<glyph glyph-name="pie-chart-60" unicode="&#xeab3;" d="M506 960c-282 0-512-230-512-512s230-512 512-512 512 230 512 512-229 512-512 512z m-448-512c0 245 198 445 443 448v-448l-261-359c-110 82-182 212-182 359z" />
<glyph glyph-name="pie-chart-65" unicode="&#xeab4;" d="M512 960c-282 0-512-230-512-512s230-512 512-512 512 230 512 512-230 512-512 512z m0-64v-448l-362-263c-54 74-86 165-86 263 0 247 201 448 448 448z" />
<glyph glyph-name="pie-chart-70" unicode="&#xeab5;" d="M512 960c-282 0-512-230-512-512s230-512 512-512 512 230 512 512-230 512-512 512z m0-64v-448l-426-138c-14 43-22 90-22 138 0 247 201 448 448 448z" />
<glyph glyph-name="pie-chart-75" unicode="&#xeab6;" d="M512 962c-282 0-512-229-512-512s230-512 512-512 512 230 512 512-230 512-512 512z m0-512h-448c0 247 201 448 448 448v-448z" />
<glyph glyph-name="pie-chart-80" unicode="&#xeab7;" d="M513 960c-282 0-512-230-512-512s230-512 512-512 512 230 512 512-230 512-512 512z m0-64c1 0 1 0 1 0 0-253 0-448 0-448l-427 139c59 179 228 309 426 309z" />
<glyph glyph-name="pie-chart-85" unicode="&#xeab8;" d="M512 960c-282 0-512-230-512-512s230-512 512-512 512 230 512 512-230 512-512 512z m0-64v-448l-362 263c82 112 213 185 362 185z" />
<glyph glyph-name="pie-chart-90" unicode="&#xeab9;" d="M513 960c-282 0-512-230-512-512s230-512 512-512 512 230 512 512-230 512-512 512z m-264-151c74 54 165 87 263 87v-448l-263 361z" />
<glyph glyph-name="pie-chart-95" unicode="&#xeaba;" d="M513 960c-282 0-512-230-512-512s230-512 512-512 512 230 512 512-230 512-512 512z m-139-86c43 14 90 22 138 22v-448l-138 426z" />
<glyph glyph-name="polar-chart" unicode="&#xe911;" d="M992 448h-162c-16 249-224 448-478 448-7 0-17-3-23-9s-9-14-9-23v-98c-179-15-320-166-320-350 0-194 157-352 351-352 84 0 162 31 225 85l206-204c6-6 14-9 22-9s17 3 23 9c127 126 197 293 197 471 0 18-14 32-32 32z m-608 383c204-16 367-179 383-383h-383v383z m-33-703c-158 0-287 129-287 288 0 148 113 269 256 285v-285c0-9 4-17 10-23v0l201-199c-51-42-114-66-180-66z m453-114l-374 370h529c-7-138-61-268-155-370z" />
<glyph glyph-name="pyramid-chart" unicode="&#xeaf6;" d="M1019 113l-480 768c-11 19-42 19-54 0l-480-768c-6-10-7-22-1-33 6-10 16-16 28-16h960c12 0 23 6 28 16 6 11 5 23-1 33z m-507 691l102-164h-204l102 164z m-142-228h284l120-192h-524l120 192z m-280-448l120 192h604l120-192h-844z" />
<glyph glyph-name="radar-chart" unicode="&#xe912;" d="M960 314v268c37 13 64 48 64 90 0 53-43 96-96 96-26 0-49-10-66-27l-223 111c0 4 1 8 1 12 0 53-43 96-96 96s-96-43-96-96c0-4 1-7 1-10l-226-110c-17 15-39 24-63 24-53 0-96-43-96-96s43-96 96-96c26 0 50 11 67 28l222-112c0-4-1-8-1-12 0-42 27-77 64-90v-268c-37-13-64-48-64-90 0-53 43-96 96-96s96 43 96 96c0 4-1 8-1 12l223 111c17-17 40-27 66-27 53 0 96 43 96 96 0 42-27 77-64 90z m-800 326c-18 0-32 14-32 32s14 32 32 32 32-14 32-32-14-32-32-32z m768 64c18 0 32-14 32-32s-14-32-32-32-32 14-32 32 14 32 32 32z m-384 192c18 0 32-14 32-32s-14-32-32-32-32 14-32 32 14 32 32 32z m-290-208l223 108c17-17 41-28 67-28 26 0 49 10 67 27l222-111c0-4-1-8-1-12 0-42 27-77 64-90v-268c-37-13-64-48-64-90 0-4 1-8 1-12l-223-111c-9 9-21 17-34 21v268c37 13 64 48 64 90 0 53-43 96-96 96-26 0-49-10-66-27l-223 112c0 4 1 7 1 11 0 5-1 11-2 16z m290-240c-18 0-32 14-32 32s14 32 32 32 32-14 32-32-14-32-32-32z m0-448c-18 0-32 14-32 32s14 32 32 32 32-14 32-32-14-32-32-32z m384 192c-18 0-32 14-32 32s14 32 32 32 32-14 32-32-14-32-32-32z" />
<glyph glyph-name="range-chart-area" unicode="&#xe913;" d="M290 377l301-180c6-4 11-5 17-5 6 0 12 2 18 5l174 117 174-117c10-6 23-7 33-1 10 5 17 16 17 28v256c0 11-5 21-14 27l-192 128c-13 8-30 6-41-4l-100-101-106 160c-6 8-14 13-24 14-10 1-19-3-26-9l-100-101-106 160c-6 8-15 14-26 14-9 1-20-4-26-12l-199-249v357c0 18-14 32-32 32s-32-14-32-32v-768c0-18 14-32 32-32h960c18 0 32 14 32 32s-14 32-32 32h-928v80l226 169z m-4 305l103-156c6-8 14-13 24-14 10-1 19 3 26 9l100 101 106-160c6-8 14-13 24-14 10-1 19 3 26 9l109 110 156-104v-179l-142 95c-11 7-25 7-36 0l-175-117-303 181c-5 4-10 5-16 5-7 0-13-2-19-6l-205-154v117l222 277z" />
<glyph glyph-name="range-chart-bar" unicode="&#xe914;" d="M992 128h-928v736c0 18-14 32-32 32s-32-14-32-32v-768c0-18 14-32 32-32h960c18 0 32 14 32 32s-14 32-32 32z m0 704h-192c-18 0-32-14-32-32v-320c0-18 14-32 32-32h192c18 0 32 14 32 32v320c0 18-14 32-32 32z m-32-320h-128v256h128v-256z m-800-192h192c18 0 32 14 32 32v320c0 18-14 32-32 32h-192c-18 0-32-14-32-32v-320c0-18 14-32 32-32z m32 320h128v-256h-128v256z m288-448h192c18 0 32 14 32 32v320c0 18-14 32-32 32h-192c-18 0-32-14-32-32v-320c0-18 14-32 32-32z m32 320h128v-256h-128v256z" />
<glyph glyph-name="scatter-chart" unicode="&#xe915;" d="M992 128h-928v736c0 18-14 32-32 32s-32-14-32-32v-768c0-18 14-32 32-32h960c18 0 32 14 32 32s-14 32-32 32z m-64 320c53 0 96 43 96 96s-43 96-96 96-96-43-96-96 43-96 96-96z m0 128c18 0 32-14 32-32s-14-32-32-32-32 14-32 32 14 32 32 32z m-256 128c53 0 96 43 96 96s-43 96-96 96-96-43-96-96 43-96 96-96z m0 128c18 0 32-14 32-32s-14-32-32-32-32 14-32 32 14 32 32 32z m-256-320c53 0 96 43 96 96s-43 96-96 96-96-43-96-96 43-96 96-96z m0 128c18 0 32-14 32-32s-14-32-32-32-32 14-32 32 14 32 32 32z m-192-384c53 0 96 43 96 96s-43 96-96 96-96-43-96-96 43-96 96-96z m0 128c18 0 32-14 32-32s-14-32-32-32-32 14-32 32 14 32 32 32z" />
<glyph glyph-name="stock-chart" unicode="&#xe916;" d="M992 64h-960c-18 0-32 14-32 32v768c0 18 14 32 32 32s32-14 32-32v-736h928c18 0 32-14 32-32s-14-32-32-32z m-640 576h-32v96c0 18-14 32-32 32s-32-14-32-32v-96h-32c-18 0-32-14-32-32v-256c0-18 14-32 32-32h32v-96c0-18 14-32 32-32s32 14 32 32v96h32c18 0 32 14 32 32v256c0 18-14 32-32 32z m-32-256h-64v192h64v-192z m672 256h-32v96c0 18-14 32-32 32s-32-14-32-32v-96h-32c-18 0-32-14-32-32v-256c0-18 14-32 32-32h32v-96c0-18 14-32 32-32s32 14 32 32v96h32c18 0 32 14 32 32v256c0 18-14 32-32 32z m-32-256h-64v192h64v-192z m-288 384h-32v96c0 18-14 32-32 32s-32-14-32-32v-96h-32c-18 0-32-14-32-32v-256c0-18 14-32 32-32h32v-96c0-18 14-32 32-32s32 14 32 32v96h32c18 0 32 14 32 32v256c0 18-14 32-32 32z m-32-256h-64v192h64v-192z" />
<glyph glyph-name="x-axis" unicode="&#xe917;" d="M928 128c-18 0-32-14-32-32v-96h-768v96c0 18-14 32-32 32s-32-14-32-32v-128c0-18 14-32 32-32h832c18 0 32 14 32 32v128c0 18-14 32-32 32z m-596 71c6-5 13-7 20-7 9 0 18 4 25 11l135 163 135-163c7-7 16-11 25-11 7 0 14 2 21 7 13 12 15 32 4 46l-143 171 143 171c11 14 9 34-4 46-14 11-34 9-46-4l-135-163-135 162c-12 14-32 16-46 5-13-12-15-32-4-45l143-172-143-172c-11-13-9-33 4-45z" />
<glyph glyph-name="y-axis" unicode="&#xe918;" d="M160 768c18 0 32 14 32 32s-14 32-32 32h-128c-18 0-32-14-32-32v-768c0-18 14-32 32-32h128c18 0 32 14 32 32s-14 32-32 32h-96v704h96z m533-135c-14 11-34 9-46-5l-135-162-135 162c-12 14-32 16-45 5-14-12-16-32-5-45l153-184v-180c0-18 14-32 32-32s32 14 32 32v180l153 183c11 14 9 34-4 46z" />
<glyph glyph-name="y1-axis" unicode="&#xe919;" d="M864 64h-32v224c0 18-14 32-32 32h-64c-18 0-32-14-32-32s14-32 32-32h32v-192h-32c-18 0-32-14-32-32s14-32 32-32h128c18 0 32 14 32 32s-14 32-32 32z m-704 704c18 0 32 14 32 32s-14 32-32 32h-128c-18 0-32-14-32-32v-768c0-18 14-32 32-32h128c18 0 32 14 32 32s-14 32-32 32h-96v704h96z m487-140l-135-162-135 162c-12 14-32 16-45 5-14-12-16-32-5-45l153-184v-180c0-18 14-32 32-32s32 14 32 32v180l153 183c11 14 9 34-4 46s-34 9-46-5z" />
<glyph glyph-name="y2-axis" unicode="&#xe91a;" d="M832 128c35 0 64 29 64 64v64c0 35-29 64-64 64h-96c-18 0-32-14-32-32s14-32 32-32h96v-64h-64c-35 0-64-29-64-64v-96c0-18 14-32 32-32h128c18 0 32 14 32 32s-14 32-32 32h-96v64h64z m-672 640c18 0 32 14 32 32s-14 32-32 32h-128c-18 0-32-14-32-32v-768c0-18 14-32 32-32h128c18 0 32 14 32 32s-14 32-32 32h-96v704h96z m487-140l-135-162-135 162c-12 14-32 16-45 5-14-12-16-32-5-45l153-184v-180c0-18 14-32 32-32s32 14 32 32v180l153 183c11 14 9 34-4 46s-34 9-46-5z" />
<glyph glyph-name="bitcoin" unicode="&#xf15a;" d="M656 494c30 29 48 70 48 114 0 77-55 142-128 157v99c0 18-14 32-32 32s-32-14-32-32v-96h-64v96c0 18-14 32-32 32s-32-14-32-32v-96h-96c-18 0-32-14-32-32v-576c0-18 14-32 32-32h96v-96c0-18 14-32 32-32s32 14 32 32v96h64v-96c0-18 14-32 32-32s32 14 32 32v96c106 0 192 86 192 192 0 77-46 144-112 174z m-336 210h224c53 0 96-43 96-96s-43-96-96-96h-224v192z m256-512h-256v256h256c71 0 128-57 128-128s-57-128-128-128z" />
<glyph glyph-name="yen" unicode="&#xf157;" d="M825 780c11 14 9 34-5 45-14 11-34 9-45-5l-231-289-231 289c-11 14-31 16-45 5-14-11-16-31-5-45l249-311v-21h-160c-18 0-32-14-32-32s14-32 32-32h160v-64h-160c-18 0-32-14-32-32s14-32 32-32h160v-160c0-18 14-32 32-32s32 14 32 32v160h160c18 0 32 14 32 32s-14 32-32 32h-160v64h160c18 0 32 14 32 32s-14 32-32 32h-160v21l249 311z" />
<glyph glyph-name="usd" unicode="&#xf155;" d="M554 478c-103 35-170 62-170 114 0 61 73 112 160 112 70 0 133-33 153-81 7-16 26-24 42-17 17 7 24 26 18 42-28 64-98 109-181 118v98c0 18-14 32-32 32s-32-14-32-32v-99c-108-12-192-85-192-173 0-102 114-141 214-174 103-35 170-62 170-114 0-61-73-112-160-112-70 0-133 33-153 81-7 16-26 24-42 17s-24-26-17-42c27-64 97-109 180-118v-98c0-18 14-32 32-32s32 14 32 32v99c108 12 192 85 192 173 0 102-114 141-214 174z" />
<glyph glyph-name="euro" unicode="&#xf153;" d="M802 222c-57-59-138-95-226-95-130 0-243 79-292 191l-1 2h389c18 0 32 14 32 32s-14 32-32 32v0h-409c-4 19-7 41-7 64l0 0h480c18 0 32 14 32 32s-14 32-32 32v0h-473c30 147 159 256 313 256 88 0 168-36 226-94l0 0c6-5 14-9 22-9 18 0 32 15 32 32 0 9-3 17-9 23l0 0c-69 69-165 113-271 113-189 0-347-138-377-319l-1-2h-38c-18 0-32-14-32-32s14-32 32-32v0h32c0-23 3-45 7-66l-1 2h-38c-18 0-32-14-32-32s14-32 32-32v0h55c54-150 196-256 362-256 105 0 201 43 270 113l0 0c6 5 9 13 9 22 0 17-14 32-32 32-8 0-16-4-22-9l0 0z" />
<glyph glyph-name="gbp" unicode="&#xf154;" d="M800 128h-393c26 34 41 79 41 128v128h160c18 0 32 14 32 32s-14 32-32 32h-160v192c0 71 57 128 128 128h52c37 0 73-16 97-45 12-14 32-15 45-4 14 12 15 32 4 45-37 43-90 68-146 68h-52c-106 0-192-86-192-192v-192h-96c-18 0-32-14-32-32s14-32 32-32h96v-128c0-71-43-128-96-128-18 0-32-14-32-32s14-32 32-32h512c18 0 32 14 32 32s-14 32-32 32z" />
<glyph glyph-name="sheqel" unicode="&#xf20b;" d="M576 544v-192c0-18 14-32 32-32s32 14 32 32v192c0 159-129 288-288 288h-128c-18 0-32-14-32-32v-704c0-18 14-32 32-32s32 14 32 32v672h96c124 0 224-100 224-224z m224 288c-18 0-32-14-32-32v-448c0-124-100-224-224-224h-96v416c0 18-14 32-32 32s-32-14-32-32v-448c0-18 14-32 32-32h128c159 0 288 129 288 288v448c0 18-14 32-32 32z" />
<glyph glyph-name="rupee" unicode="&#xf156;" d="M736 704h-78c-8 24-21 45-38 64h116c18 0 32 14 32 32s-14 32-32 32h-448c-18 0-32-14-32-32s14-32 32-32h190c47 0 88-26 110-64h-300c-18 0-32-14-32-32s14-32 32-32h318c0-71-58-128-128-128h-190c-12 0-24-7-29-18-5-12-4-25 4-35l320-384c7-7 16-11 25-11 7 0 14 2 21 7 13 12 15 32 4 46l-277 331h122c106 0 192 86 192 192h66c18 0 32 14 32 32s-14 32-32 32z" />
<glyph glyph-name="won" unicode="&#xf159;" d="M928 448h-127l18 64h109c18 0 32 14 32 32s-14 32-32 32h-92l59 216c5 17-5 34-23 39-16 4-34-5-39-23l-63-232h-174l-53 231c-3 15-16 25-31 25s-28-10-31-25l-53-231h-174l-63 232c-5 17-23 27-39 23-17-5-27-22-23-39l59-216h-92c-18 0-32-14-32-32s14-32 32-32h109l18-64h-127c-18 0-32-14-32-32s14-32 32-32h144l81-296c4-15 17-23 32-24 14 0 27 11 30 25l67 295h124l67-295c3-14 16-25 30-25h1c14 0 27 10 31 24l81 296h144c18 0 32 14 32 32s-14 32-32 32z m-579-220l-42 156h78l-36-156z m50 220h-110l-17 64h142l-15-64z m113 208l18-80h-36l18 80z m-47-208l14 64h66l14-64h-94z m210-220l-36 156h78l-42-156z m60 220h-110l-15 64h142l-17-64z" />
<glyph glyph-name="money" unicode="&#xf0d6;" d="M992 768h-960c-18 0-32-14-32-32v-576c0-18 14-32 32-32h960c18 0 32 14 32 32v576c0 18-14 32-32 32z m-221-576h-518c-14 98-91 175-189 189v134c98 14 175 91 189 189h518c14-98 91-175 189-189v-134c-98-14-175-91-189-189z m189 387c-63 13-112 62-125 125h125v-125z m-771 125c-13-63-62-112-125-125v125h125z m-125-387c63-13 112-62 125-125h-125v125z m771-125c13 63 62 112 125 125v-125h-125z m-323 448c-106 0-192-86-192-192s86-192 192-192 192 86 192 192-86 192-192 192z m0-320c-71 0-128 57-128 128s57 128 128 128 128-57 128-128-57-128-128-128z" />
<glyph glyph-name="ruble" unicode="&#xf158;" d="M608 384c124 0 224 100 224 224s-100 224-224 224h-256c-18 0-32-14-32-32v-352h-96c-18 0-32-14-32-32s14-32 32-32h96v-64h-96c-18 0-32-14-32-32s14-32 32-32h96v-160c0-18 14-32 32-32s32 14 32 32v160h224c18 0 32 14 32 32s-14 32-32 32h-224v64h224z m-224 384h224c88 0 160-72 160-160s-72-160-160-160h-224v320z" />
<glyph glyph-name="turkish-lira" unicode="&#xf195;" d="M801 448c-18 0-32-14-32-32 0-150-141-274-321-287v348l237 102c16 7 23 26 16 42s-25 24-42 17l-211-91v58l237 102c16 7 23 26 16 42s-25 24-42 17l-211-91v125c0 18-14 32-32 32s-32-14-32-32v-152l-173-75c-16-7-23-25-16-42 5-12 17-19 29-19l13 3 147 63v-58l-173-75c-16-7-23-25-16-42 5-12 17-19 29-19l13 3 147 63v-354c0-18 15-32 32-32 230 0 417 158 417 352 0 18-15 32-32 32z" />
<glyph glyph-name="angle-double-down" unicode="&#xf103;" d="M670 354l-158-158-158 158c-9 8-20 13-33 13-26 0-48-22-48-48 0-13 5-24 13-33l0 0 192-192c9-9 21-14 34-14s25 5 34 14l192 192c8 9 13 20 13 33 0 26-22 48-48 48-13 0-24-5-33-13l0 0z m-192 188c9-9 21-14 34-14s25 5 34 14l192 192c8 9 13 20 13 33 0 26-22 48-48 48-13 0-24-5-33-13l0 0-158-158-158 158c-9 8-20 13-33 13-26 0-48-22-48-48 0-13 5-24 13-33l0 0z" />
<glyph glyph-name="angle-double-left" unicode="&#xf100;" d="M418 674c-9 9-21 14-34 14s-25-5-34-14l-192-192c-9-9-14-21-14-34s5-25 14-34l192-192c9-8 20-13 33-13 26 0 48 22 48 48 0 13-5 24-13 33l0 0-158 158 158 158c9 9 14 21 14 34s-5 25-14 34l0 0z m290-226l158 158c8 9 13 20 13 33 0 26-22 48-48 48-13 0-24-5-33-13l0 0-192-192c-9-9-14-21-14-34s5-25 14-34l192-192c9-8 20-13 33-13 26 0 48 22 48 48 0 13-5 24-13 33l0 0z" />
<glyph glyph-name="angle-double-right" unicode="&#xf101;" d="M866 482l-192 192c-9 8-20 13-33 13-26 0-48-22-48-48 0-13 5-24 13-33l0 0 158-158-158-158c-9-9-15-21-15-35 0-27 21-48 48-48 14 0 26 6 35 15l0 0 192 192c9 9 14 21 14 34s-5 25-14 34l0 0z m-640 192c-9 9-21 15-35 15-27 0-48-21-48-48 0-14 6-26 15-35l0 0 158-158-158-158c-9-9-15-21-15-35 0-27 21-48 48-48 14 0 26 6 35 15l0 0 192 192c8 9 14 21 14 34s-6 25-14 34l0 0z" />
<glyph glyph-name="angle-double-up" unicode="&#xf102;" d="M354 542l158 158 158-158c9-8 20-13 33-13 26 0 48 22 48 48 0 13-5 24-13 33l0 0-192 192c-9 9-21 14-34 14s-25-5-34-14l-192-192c-8-9-13-20-13-33 0-26 22-48 48-48 13 0 24 5 33 13l0 0z m192-188c-9 9-21 14-34 14s-25-5-34-14l-192-192c-8-9-13-20-13-33 0-26 22-48 48-48 13 0 24 5 33 13l0 0 158 158 158-158c9-8 20-13 33-13 26 0 48 22 48 48 0 13-5 24-13 33l0 0z" />
<glyph glyph-name="angle-down" unicode="&#xf107;" d="M738 546c-9 9-21 14-34 14s-25-5-34-14l-158-158-158 158c-9 8-20 13-33 13-26 0-48-22-48-48 0-13 5-24 13-33l0 0 192-192c9-9 21-14 34-14s25 5 34 14l192 192c9 9 14 21 14 34s-5 25-14 34l0 0z" />
<glyph glyph-name="angle-left" unicode="&#xf104;" d="M452 448l158 158c8 9 13 20 13 33 0 26-22 48-48 48-13 0-24-5-33-13l0 0-192-192c-9-9-14-21-14-34s5-25 14-34l192-192c9-8 20-13 33-13 26 0 48 22 48 48 0 13-5 24-13 33l0 0z" />
<glyph glyph-name="angle-right" unicode="&#xf105;" d="M674 482l-192 192c-9 8-20 13-33 13-26 0-48-22-48-48 0-13 5-24 13-33l0 0 158-158-158-158c-9-9-15-21-15-35 0-27 21-48 48-48 14 0 26 6 35 15l0 0 192 192c9 9 14 21 14 34s-5 25-14 34l0 0z" />
<glyph glyph-name="angle-up" unicode="&#xf106;" d="M738 418l-192 192c-9 9-21 14-34 14s-25-5-34-14l-192-192c-8-9-13-20-13-33 0-26 22-48 48-48 13 0 24 5 33 13l0 0 158 158 158-158c9-8 20-13 33-13 26 0 48 22 48 48 0 13-5 24-13 33l0 0z" />
<glyph glyph-name="arrow-circle-down" unicode="&#xf0ab;" d="M1024 448c0 283-229 512-512 512s-512-229-512-512c0-283 229-512 512-512v0c283 0 512 229 512 512v0z m-557-269l-192 192c-12 11-20 28-20 46 0 35 29 64 64 64 18 0 35-8 46-20l0 0 83-83v294c0 35 29 64 64 64s64-29 64-64v0-294l83 83c11 12 28 20 46 20 35 0 64-29 64-64 0-18-8-35-20-46l0 0-192-192c-11-12-27-19-45-19s-34 7-45 19v0z" />
<glyph glyph-name="arrow-circle-left" unicode="&#xf0a8;" d="M512-64c283 0 512 229 512 512s-229 512-512 512c-283 0-512-229-512-512v0c0-283 229-512 512-512h0z m-269 557l192 192c11 11 27 18 44 18 36 0 64-28 64-64 0-17-7-33-18-44l0 0-83-83h294c35 0 64-29 64-64s-29-64-64-64v0h-294l83-83c11-11 18-27 18-44 0-36-28-64-64-64-17 0-33 7-44 18l0 0-192 192c-12 11-19 27-19 45s7 34 19 45v0z" />
<glyph glyph-name="arrow-circle-o-down" unicode="&#xf01a;" d="M512 960c-283 0-512-229-512-512s229-512 512-512c283 0 512 229 512 512v0c0 283-229 512-512 512h0z m0-960c-247 0-448 201-448 448s201 448 448 448c247 0 448-201 448-448v0c0-247-201-448-448-448h0z m158 450l-110-110v332c0 26-21 48-48 48s-48-22-48-48v0-332l-110 110c-9 8-20 13-33 13-26 0-48-22-48-48 0-13 5-24 13-33l0 0 192-192c9-9 21-14 34-14s25 5 34 14l192 192c8 9 13 20 13 33 0 26-22 48-48 48-13 0-24-5-33-13l0 0z" />
<glyph glyph-name="arrow-circle-o-left" unicode="&#xf190;" d="M512 960c-283 0-512-229-512-512s229-512 512-512c283 0 512 229 512 512v0c0 283-229 512-512 512h0z m0-960c-247 0-448 201-448 448s201 448 448 448c247 0 448-201 448-448v0c0-247-201-448-448-448h0z m224 496h-332l110 110c9 9 15 21 15 35 0 27-21 48-48 48-14 0-26-6-35-15l0 0-192-192c-9-9-14-21-14-34s5-25 14-34l192-192c9-9 21-15 35-15 27 0 48 21 48 48 0 14-6 26-15 35l0 0-110 110h332c27 0 48 21 48 48s-21 48-48 48v0z" />
<glyph glyph-name="arrow-circle-o-right" unicode="&#xf18e;" d="M512 960c-283 0-512-229-512-512s229-512 512-512c283 0 512 229 512 512v0c0 283-229 512-512 512h0z m0-960c-247 0-448 201-448 448s201 448 448 448c247 0 448-201 448-448v0c0-247-201-448-448-448h0z m66 674c-9 8-20 13-33 13-26 0-48-22-48-48 0-13 5-24 13-33l0 0 110-110h-332c-26 0-48-22-48-48s22-48 48-48v0h332l-110-110c-9-9-15-21-15-35 0-27 21-48 48-48 14 0 26 6 35 15l0 0 192 192c9 9 14 21 14 34s-5 25-14 34l0 0z" />
<glyph glyph-name="arrow-circle-o-up" unicode="&#xf01b;" d="M512 960c-283 0-512-229-512-512s229-512 512-512c283 0 512 229 512 512v0c0 283-229 512-512 512h0z m0-960c-247 0-448 201-448 448s201 448 448 448c247 0 448-201 448-448v0c0-247-201-448-448-448h0z m34 706c-9 9-21 14-34 14s-25-5-34-14l-192-192c-9-9-15-21-15-35 0-27 21-48 48-48 14 0 26 6 35 15l0 0 110 110v-332c0-27 21-48 48-48s48 21 48 48v0 332l110-110c9-9 21-15 35-15 27 0 48 21 48 48 0 14-6 26-15 35l0 0z" />
<glyph glyph-name="arrow-circle-right" unicode="&#xf0a9;" d="M512 960c-283 0-512-229-512-512s229-512 512-512c283 0 512 229 512 512v0c0 283-229 512-512 512h0z m269-557l-192-192c-11-12-28-20-46-20-35 0-64 29-64 64 0 18 8 35 20 46l0 0 83 83h-294c-35 0-64 29-64 64s29 64 64 64v0h294l-83 83c-12 11-20 28-20 46 0 35 29 64 64 64 18 0 35-8 46-20l0 0 192-192c12-11 19-27 19-45s-7-34-19-45v0z" />
<glyph glyph-name="arrow-circle-up" unicode="&#xf0aa;" d="M0 448c0-283 229-512 512-512s512 229 512 512c0 283-229 512-512 512v0c-283 0-512-229-512-512v0z m557 269l192-192c11-11 18-27 18-44 0-36-28-64-64-64-17 0-33 7-44 18l0 0-83 83v-294c0-35-29-64-64-64s-64 29-64 64v0 294l-83-83c-11-11-27-18-44-18-36 0-64 28-64 64 0 17 7 33 18 44l0 0 192 192c11 12 27 19 45 19s34-7 45-19v0z" />
<glyph glyph-name="arrow-down" unicode="&#xf063;" d="M866 418c-9 9-21 14-34 14s-25-5-34-14l-238-238v652c0 27-21 48-48 48s-48-21-48-48v0-652l-238 238c-9 8-20 13-33 13-26 0-48-22-48-48 0-13 5-24 13-33l0 0 320-320c9-9 21-14 34-14s25 5 34 14l320 320c9 9 14 21 14 34s-5 25-14 34l0 0z" />
<glyph glyph-name="arrow-down-alt" unicode="&#xea6a;" d="M957 493c-5 11-16 19-29 19h-224v352c0 18-14 32-32 32v0h-320c-18 0-32-14-32-32v0-352h-224c-18 0-32-14-32-32 0-8 3-16 9-22l0 0 416-448c5-6 14-10 23-10s18 4 23 10l0 0 417 448c5 6 8 14 8 22 0 5-1 9-3 13l0 0z" />
<glyph glyph-name="arrow-down-left-alt" unicode="&#xea68;" d="M887 599l-224 224c-6 5-14 9-23 9s-17-4-23-9l0 0-252-250-182 185c-6 6-14 10-23 10-18 0-32-14-32-32v0-640c0-18 14-32 32-32v0h640c0 0 0 0 0 0 18 0 32 14 32 32 0 9-3 17-9 23l-186 185 250 250c5 6 9 14 9 22s-4 17-9 23l0 0z" />
<glyph glyph-name="arrow-down-right-alt" unicode="&#xea69;" d="M876 766c-3 1-8 2-12 2-9 0-17-4-23-9v0l-185-186-250 250c-6 6-14 9-23 9s-16-3-22-9l-224-224c-6-6-10-14-10-23s4-17 10-23l0 0 249-252-184-182c-6-6-10-14-10-23 0-18 14-32 32-32h640c18 0 32 14 32 32v0 640c0 13-8 25-20 30l0 0z" />
<glyph glyph-name="arrow-left" unicode="&#xf060;" d="M896 496h-652l238 238c8 9 13 20 13 33 0 26-22 48-48 48-13 0-24-5-33-13l0 0-320-320c-9-9-14-21-14-34s5-25 14-34l320-320c9-8 20-13 33-13 26 0 48 22 48 48 0 13-5 24-13 33l0 0-238 238h652c26 0 48 21 48 48s-22 48-48 48v0z" />
<glyph glyph-name="arrow-left-alt" unicode="&#xea6b;" d="M928 640h-352v224c0 18-14 32-32 32-8 0-16-3-22-9l0 0-448-416c-6-5-10-14-10-23s4-18 10-23l0 0 448-417c6-5 14-8 22-8h0c18 0 32 14 32 32v0 224h352c18 0 32 14 32 32v0 320c0 18-14 32-32 32v0z" />
<glyph glyph-name="arrow-right" unicode="&#xf061;" d="M128 496h652l-238 238c-8 9-13 20-13 33 0 26 22 48 48 48 13 0 24-5 33-13l0 0 320-320c9-9 14-21 14-34s-5-25-14-34l-320-320c-9-8-20-13-33-13-26 0-48 22-48 48 0 13 5 24 13 33l0 0 238 238h-652c-26 0-48 21-48 48s22 48 48 48v0z" />
<glyph glyph-name="arrow-right-alt" unicode="&#xea6c;" d="M950 471l-448 416c-6 6-14 9-22 9-18 0-32-14-32-32v-224h-352c-18 0-32-14-32-32v0-320c0-18 14-32 32-32v0h352v-224c0-18 14-32 32-32 8 0 16 3 22 9l0 0 448 416c6 5 10 14 10 23s-4 18-10 23l0 0z" />
<glyph glyph-name="arrow-up" unicode="&#xf062;" d="M866 546l-320 320c-9 9-21 14-34 14s-25-5-34-14l-320-320c-8-9-13-20-13-33 0-26 22-48 48-48 13 0 24 5 33 13l0 0 238 238v-652c0-26 22-48 48-48s48 22 48 48v0 652l238-238c9-8 20-13 33-13 26 0 48 22 48 48 0 13-5 24-13 33l0 0z" />
<glyph glyph-name="arrow-up-alt" unicode="&#xea6f;" d="M951 438l-416 448c-5 6-14 10-23 10s-18-4-23-10l0 0-416-448c-6-6-9-14-9-22 0-18 14-32 32-32h224v-352c0-18 14-32 32-32v0h320c18 0 32 14 32 32v0 352h224c18 0 32 14 32 32 0 8-3 16-9 22l0 0z" />
<glyph glyph-name="arrow-up-left-alt" unicode="&#xea6d;" d="M887 343l-250 249 186 186c5 6 9 13 9 22 0 18-15 32-32 32h-640c-18 0-32-14-32-32v0-640c0 0 0 0 0 0 0-13 8-25 20-30l0 0c3-1 8-2 12-2 9 0 17 4 23 10l0 0 182 185 252-250c6-6 14-9 23-9s17 3 23 9l224 224c6 6 9 14 9 23s-3 17-9 23l0 0z" />
<glyph glyph-name="arrow-up-right-alt" unicode="&#xea6e;" d="M864 832h-640c-18 0-32-14-32-32 0-9 4-17 10-23l185-182-250-252c-6-6-9-14-9-23s3-17 9-23l224-224c6-6 14-9 23-9s17 3 22 9l250 250 186-186c5-5 13-9 22-9 18 0 32 14 32 32v640c0 18-14 32-32 32v0z" />
<glyph glyph-name="arrows" unicode="&#xf047;" d="M994 482l-128 128c-9 8-20 13-33 13-26 0-48-22-48-48 0-13 5-24 13-33l0 0 46-46h-284v284l46-46c9-8 20-13 33-13 26 0 48 22 48 48 0 13-5 24-13 33l0 0-128 128c-9 9-21 14-34 14s-25-5-34-14l-128-128c-8-9-13-20-13-33 0-26 22-48 48-48 13 0 24 5 33 13l0 0 46 46v-284h-272v12l34 34c8 9 13 20 13 33 0 26-22 48-48 48-13 0-24-5-33-13l0 0-128-128c-9-9-14-21-14-34s5-25 14-34l128-128c9-9 21-15 35-15 27 0 48 21 48 48 0 14-6 26-15 35l0 0-34 34v12h272v-284l-46 46c-9 8-20 13-33 13-26 0-48-22-48-48 0-13 5-24 13-33l0 0 128-128c9-9 21-14 34-14s25 5 34 14l128 128c8 9 13 20 13 33 0 26-22 48-48 48-13 0-24-5-33-13l0 0-46-46v284h284l-46-46c-9-9-15-22-15-35 0-27 21-48 48-48 14 0 26 5 35 15l0 0 128 128c9 9 14 20 14 34s-5 25-14 34l0 0z" />
<glyph glyph-name="arrows-alt" unicode="&#xf0b2;" d="M896 592c27 0 48 21 48 48v0 192c0 27-21 48-48 48v0h-192c-27 0-48-21-48-48s21-48 48-48v0h76l-268-268-268 268h76c27 0 48 21 48 48s-21 48-48 48v0h-192c-27 0-48-21-48-48v0-192c0-27 21-48 48-48s48 21 48 48v0 76l268-268-268-268v76c0 27-21 48-48 48s-48-21-48-48v0-192c0-27 21-48 48-48v0h192c27 0 48 21 48 48s-21 48-48 48v0h-76l268 268 268-268h-76c-27 0-48-21-48-48s21-48 48-48v0h192c27 0 48 21 48 48v0 192c0 27-21 48-48 48s-48-21-48-48v0-76l-268 268 268 268v-76c0-27 21-48 48-48v0z" />
<glyph glyph-name="arrows-h" unicode="&#xf07e;" d="M994 482l-256 256c-9 9-21 15-35 15-27 0-48-21-48-48 0-14 6-26 15-35l0 0 174-174h-664l174 174c9 9 15 21 15 35 0 27-21 48-48 48-14 0-26-6-35-15l0 0-256-256c-9-9-14-21-14-34s5-25 14-34l256-256c9-8 20-13 33-13 26 0 48 22 48 48 0 13-5 24-13 33l0 0-174 174h664l-174-174c-9-9-15-21-15-35 0-27 21-48 48-48 13 0 26 6 35 15l0 0 256 256c8 9 14 21 14 34s-6 25-14 34l0 0z" />
<glyph glyph-name="arrows-v" unicode="&#xf07d;" d="M734 290l-174-174v664l174-174c9-8 20-13 33-13 26 0 48 22 48 48 0 13-5 24-13 33l0 0-256 256c-9 9-21 14-34 14s-25-5-34-14l-256-256c-9-9-15-21-15-35 0-27 21-48 48-48 14 0 26 6 35 15l0 0 174 174v-664l-174 174c-9 9-22 15-35 15-27 0-48-21-48-48 0-14 6-26 15-35l0 0 256-256c9-9 21-14 34-14s25 5 34 14l256 256c8 9 13 20 13 33 0 26-22 48-48 48-13 0-25-5-33-13l0 0z" />
<glyph glyph-name="box-arrow-in-east" unicode="&#xf090;" d="M588 400l-110-110c-9-9-15-21-15-35 0-27 21-48 48-48 14 0 26 6 35 15l0 0 192 192c9 9 14 21 14 34s-5 25-14 34l-192 192c-9 8-20 13-33 13-26 0-48-22-48-48 0-13 5-24 13-33l0 0 110-110h-524c-27 0-48-22-48-48s21-48 48-48v0z m244 496h-640c-71 0-128-57-128-128v0-96c0-18 14-32 32-32s32 14 32 32v0 96c0 35 29 64 64 64v0h640c35 0 64-29 64-64v0-640c0-35-29-64-64-64v0h-640c-35 0-64 29-64 64v0 96c0 18-14 32-32 32s-32-14-32-32v0-96c0-71 57-128 128-128v0h640c71 0 128 57 128 128v0 640c0 71-57 128-128 128v0z" />
<glyph glyph-name="box-arrow-in-ne" unicode="&#xe9cf;" d="M592 256c0-27 21-48 48-48s48 21 48 48v0 320c0 27-21 48-48 48v0h-320c-27 0-48-21-48-48s21-48 48-48v0h202l-366-366c-9-9-14-21-14-34 0-27 22-48 48-48 13 0 25 5 34 14l368 368z m240 640h-640c-71 0-128-57-128-128v0-352c0-18 14-32 32-32s32 14 32 32v0 352c0 35 29 64 64 64v0h640c35 0 64-29 64-64v0-640c0-35-29-64-64-64v0h-352c-18 0-32-14-32-32s14-32 32-32v0h352c71 0 128 57 128 128v0 640c0 71-57 128-128 128v0z" />
<glyph glyph-name="box-arrow-in-north" unicode="&#xe9d0;" d="M704 400c27 0 48 21 48 48 0 13-5 25-14 34v0l-192 192c-9 9-21 14-34 14s-25-5-34-14l-192-192c-9-9-15-21-15-35 0-27 21-48 48-48 14 0 26 6 35 15l0 0 110 110v-524c0-27 21-48 48-48s48 21 48 48v0 524l110-110c9-9 21-14 34-14 0 0 0 0 0 0h0z m128 496h-640c-71 0-128-57-128-128v0-640c0-71 57-128 128-128v0h96c18 0 32 14 32 32s-14 32-32 32v0h-96c-35 0-64 29-64 64v0 640c0 35 29 64 64 64v0h640c35 0 64-29 64-64v0-640c0-35-29-64-64-64v0h-96c-18 0-32-14-32-32s14-32 32-32v0h96c71 0 128 57 128 128v0 640c0 71-57 128-128 128v0z" />
<glyph glyph-name="box-arrow-in-nw" unicode="&#xe9d1;" d="M502 528h202c27 0 48 21 48 48s-21 48-48 48v0h-320c-27 0-48-21-48-48v0-320c0-27 21-48 48-48s48 21 48 48v0 206l368-368c9-9 21-15 35-15 26 0 48 22 48 48 0 14-6 26-15 35l0 0z m330 368h-640c-71 0-128-57-128-128v0-640c0-71 57-128 128-128v0h352c18 0 32 14 32 32s-14 32-32 32v0h-352c-35 0-64 29-64 64v0 640c0 35 29 64 64 64v0h640c35 0 64-29 64-64v0-352c0-18 14-32 32-32s32 14 32 32v0 352c0 71-57 128-128 128v0z" />
<glyph glyph-name="box-arrow-in-se" unicode="&#xe9d2;" d="M522 368h-202c-27 0-48-21-48-48s21-48 48-48v0h320c27 0 48 21 48 48v0 320c0 27-21 48-48 48s-48-21-48-48v0-206l-368 368c-9 9-21 14-34 14-26 0-48-21-48-48 0-13 5-25 14-34l0 0z m310 528h-352c-18 0-32-14-32-32s14-32 32-32v0h352c35 0 64-29 64-64v0-640c0-35-29-64-64-64v0h-640c-35 0-64 29-64 64v0 352c0 18-14 32-32 32s-32-14-32-32v0-352c0-71 57-128 128-128v0h640c71 0 128 57 128 128v0 640c0 71-57 128-128 128v0z" />
<glyph glyph-name="box-arrow-in-south" unicode="&#xe9d3;" d="M286 482c-9-9-14-21-14-34s5-25 14-34l192-192c9-9 21-14 34-14s25 5 34 14l192 192c8 9 13 20 13 33 0 26-22 48-48 48-13 0-24-5-33-13l0 0-110-110v524c0 26-22 48-48 48s-48-22-48-48v0-524l-110 110c-9 9-21 14-34 14s-25-5-34-14l0 0z m546 414h-96c-18 0-32-14-32-32s14-32 32-32v0h96c35 0 64-29 64-64v0-640c0-35-29-64-64-64v0h-640c-35 0-64 29-64 64v0 640c0 35 29 64 64 64v0h96c18 0 32 14 32 32s-14 32-32 32v0h-96c-71 0-128-57-128-128v0-640c0-71 57-128 128-128v0h640c71 0 128 57 128 128v0 640c0 71-57 128-128 128v0z" />
<glyph glyph-name="box-arrow-in-sw" unicode="&#xe9d4;" d="M432 640c0 27-21 48-48 48s-48-21-48-48v0-320c0-27 21-48 48-48v0h320c27 0 48 21 48 48s-21 48-48 48v0h-202l366 366c9 9 14 21 14 34 0 27-22 48-48 48-13 0-25-5-34-14l-368-368z m496-128c-18 0-32-14-32-32v0-352c0-35-29-64-64-64v0h-640c-35 0-64 29-64 64v0 640c0 35 29 64 64 64v0h352c18 0 32 14 32 32s-14 32-32 32v0h-352c-71 0-128-57-128-128v0-640c0-71 57-128 128-128v0h640c71 0 128 57 128 128v0 352c0 18-14 32-32 32v0z" />
<glyph glyph-name="box-arrow-in-west" unicode="&#xe9d5;" d="M960 496h-524l110 110c9 9 15 21 15 35 0 27-21 48-48 48-14 0-26-6-35-15l0 0-192-192c-9-9-14-21-14-34s5-25 14-34l192-192c9-9 21-15 35-15 27 0 48 21 48 48 0 14-6 26-15 35l0 0-110 110h524c27 0 48 21 48 48s-21 48-48 48v0z m-32-240c-18 0-32-14-32-32v0-96c0-35-29-64-64-64v0h-640c-35 0-64 29-64 64v0 640c0 35 29 64 64 64v0h640c35 0 64-29 64-64v0-96c0-18 14-32 32-32s32 14 32 32v0 96c0 71-57 128-128 128v0h-640c-71 0-128-57-128-128v0-640c0-71 57-128 128-128v0h640c71 0 128 57 128 128v0 96c0 18-14 32-32 32v0z" />
<glyph glyph-name="box-arrow-out-east" unicode="&#xf08b;" d="M994 482l-192 192c-9 8-20 13-33 13-26 0-48-22-48-48 0-13 5-24 13-33l0 0 110-110h-524c-26 0-48-22-48-48s22-48 48-48h524l-110-110c-9-9-15-21-15-35 0-27 21-48 48-48 14 0 26 6 35 15l0 0 192 192c9 9 14 21 14 34s-5 25-14 34l0 0z m-66-322c-18 0-32-14-32-32v0c0-35-29-64-64-64v0h-640c-35 0-64 29-64 64v0 640c0 35 29 64 64 64v0h640c35 0 64-29 64-64v0c0-18 14-32 32-32s32 14 32 32v0c0 71-57 128-128 128v0h-640c-71 0-128-57-128-128v0-640c0-71 57-128 128-128v0h640c71 0 128 57 128 128v0c0 18-14 32-32 32v0z" />
<glyph glyph-name="external-link" unicode="&#xf08e;" d="M384 272c0 0 0 0 0 0 13 0 25 5 34 14l368 368v-206c0-27 22-48 48-48s48 21 48 48v0 320c0 27-21 48-48 48v0h-320c-26 0-48-21-48-48s22-48 48-48v0h202l-366-366c-9-9-14-21-14-34 0-27 21-48 48-48h0z m544-16c-18 0-32-14-32-32v0-96c0-35-29-64-64-64v0h-640c-35 0-64 29-64 64v0 640c0 35 29 64 64 64v0h96c18 0 32 14 32 32s-14 32-32 32v0h-96c-71 0-128-57-128-128v0-640c0-71 57-128 128-128v0h640c71 0 128 57 128 128v0 96c0 18-14 32-32 32v0z" />
<glyph glyph-name="external-link" unicode="&#xf08e;" d="M384 272c0 0 0 0 0 0 13 0 25 5 34 14l368 368v-206c0-27 22-48 48-48s48 21 48 48v0 320c0 27-21 48-48 48v0h-320c-26 0-48-21-48-48s22-48 48-48v0h202l-366-366c-9-9-14-21-14-34 0-27 21-48 48-48h0z m544-16c-18 0-32-14-32-32v0-96c0-35-29-64-64-64v0h-640c-35 0-64 29-64 64v0 640c0 35 29 64 64 64v0h96c18 0 32 14 32 32s-14 32-32 32v0h-96c-71 0-128-57-128-128v0-640c0-71 57-128 128-128v0h640c71 0 128 57 128 128v0 96c0 18-14 32-32 32v0z" />
<glyph glyph-name="box-arrow-out-north" unicode="&#xe9d6;" d="M354 670l110 110v-524c0-27 21-48 48-48s48 21 48 48v0 524l110-110c9-8 20-13 33-13 26 0 48 22 48 48 0 13-5 24-13 33l0 0-192 192c-9 9-21 14-34 14s-25-5-34-14l-192-192c-8-9-13-20-13-33 0-26 22-48 48-48 13 0 24 5 33 13l0 0z m478 226c-18 0-32-14-32-32s14-32 32-32v0c35 0 64-29 64-64v0-640c0-35-29-64-64-64v0h-640c-35 0-64 29-64 64v0 640c0 35 29 64 64 64v0c18 0 32 14 32 32s-14 32-32 32v0c-71 0-128-57-128-128v0-640c0-71 57-128 128-128v0h640c71 0 128 57 128 128v0 640c0 71-57 128-128 128v0z" />
<glyph glyph-name="box-arrow-out-nw" unicode="&#xe9d7;" d="M190 400c26 0 48 21 48 48v0 206l368-368c9-8 20-13 33-13 26 0 48 22 48 48 0 13-5 24-13 33l0 0-366 366h202c26 0 48 22 48 48s-22 48-48 48v0h-320c-27 0-48-21-48-48v0-320c0-26 21-48 48-48v0z m642 496h-96c-18 0-32-14-32-32s14-32 32-32v0h96c35 0 64-29 64-64v0-640c0-35-29-64-64-64v0h-640c-35 0-64 29-64 64v0 96c0 18-14 32-32 32s-32-14-32-32v0-96c0-71 57-128 128-128v0h640c71 0 128 57 128 128v0 640c0 71-57 128-128 128v0z" />
<glyph glyph-name="box-arrow-out-se" unicode="&#xe9d8;" d="M834 496c-26 0-48-21-48-48v0-206l-368 368c-9 8-20 13-33 13-26 0-48-22-48-48 0-13 5-24 13-33l0 0 366-366h-202c-26 0-48-22-48-48s22-48 48-48v0h320c27 0 48 21 48 48v0 320c0 26-21 48-48 48v0z m-2 400h-640c-71 0-128-57-128-128v0-640c0-71 57-128 128-128v0h96c18 0 32 14 32 32s-14 32-32 32v0h-96c-35 0-64 29-64 64v0 640c0 35 29 64 64 64v0h640c35 0 64-29 64-64v0-96c0-18 14-32 32-32s32 14 32 32v0 96c0 71-57 128-128 128v0z" />
<glyph glyph-name="box-arrow-out-south" unicode="&#xe9d9;" d="M670 226l-110-110v524c0 27-21 48-48 48s-48-21-48-48v0-524l-110 110c-9 8-20 13-33 13-26 0-48-22-48-48 0-13 5-24 13-33l0 0 192-192c9-9 21-14 34-14s25 5 34 14l192 192c8 9 13 20 13 33 0 26-22 48-48 48-13 0-24-5-33-13l0 0z m162 670h-640c-71 0-128-57-128-128v0-640c0-71 57-128 128-128v0c18 0 32 14 32 32s-14 32-32 32v0c-35 0-64 29-64 64v0 640c0 35 29 64 64 64v0h640c35 0 64-29 64-64v0-640c0-35-29-64-64-64v0c-18 0-32-14-32-32s14-32 32-32v0c71 0 128 57 128 128v0 640c0 71-57 128-128 128v0z" />
<glyph glyph-name="box-arrow-out-sw" unicode="&#xe9da;" d="M606 610l-366-366v202c0 26-21 48-48 48s-48-22-48-48v0-320c0-27 21-48 48-48v0h320c27 0 48 21 48 48s-21 48-48 48v0h-206l368 368c8 9 13 20 13 33 0 26-22 48-48 48-13 0-24-5-33-13l0 0z m226 286h-640c-71 0-128-57-128-128v0-96c0-18 14-32 32-32s32 14 32 32v0 96c0 35 29 64 64 64v0h640c35 0 64-29 64-64v0-640c0-35-29-64-64-64v0h-96c-18 0-32-14-32-32s14-32 32-32v0h96c71 0 128 57 128 128v0 640c0 71-57 128-128 128v0z" />
<glyph glyph-name="box-arrow-out-west" unicode="&#xe9db;" d="M256 208c27 0 48 21 48 48 0 13-5 25-14 34l-110 110h524c27 0 48 21 48 48s-21 48-48 48v0h-524l110 110c8 9 13 20 13 33 0 26-22 48-48 48-13 0-24-5-33-13l0 0-192-192c-9-9-14-21-14-34s5-25 14-34l192-192c9-9 21-14 34-14 0 0 0 0 0 0h0z m576 688h-640c-71 0-128-57-128-128v0c0-18 14-32 32-32s32 14 32 32v0c0 35 29 64 64 64v0h640c35 0 64-29 64-64v0-640c0-35-29-64-64-64v0h-640c-35 0-64 29-64 64v0c0 18-14 32-32 32s-32-14-32-32v0c0-71 57-128 128-128v0h640c71 0 128 57 128 128v0 640c0 71-57 128-128 128v0z" />
<glyph glyph-name="caret-down" unicode="&#xf0d7;" d="M682 535c-8 15-24 25-42 25 0 0 0 0 0 0h-256c-27 0-48-21-48-48 0-10 3-19 8-27l0 0 128-192c9-13 23-21 40-21s31 8 40 21l0 0 128 192c5 8 8 17 8 27 0 8-2 16-6 23l0 0z" />
<glyph glyph-name="caret-left" unicode="&#xf0d9;" d="M599 618c-7 4-15 6-23 6-10 0-19-3-27-8l0 0-192-128c-13-9-21-23-21-40s8-31 21-40l0 0 192-128c8-5 17-8 27-8 27 0 48 22 48 48v0 256c0 18-10 34-25 42l0 0z" />
<glyph glyph-name="caret-right" unicode="&#xf0da;" d="M667 488l-192 128c-8 5-17 8-27 8-27 0-48-21-48-48v0-256c0-18 10-34 25-42l1 0c6-4 14-6 22-6 10 0 19 3 27 8l0 0 192 128c13 9 21 23 21 40s-8 31-21 40l0 0z" />
<glyph glyph-name="toggle-down" unicode="&#xf150;" d="M832 896h-640c-71 0-128-57-128-128v0-640c0-71 57-128 128-128v0h640c71 0 128 57 128 128v0 640c0 71-57 128-128 128v0z m64-768c0-35-29-64-64-64v0h-640c-35 0-64 29-64 64v0 640c0 35 29 64 64 64v0h640c35 0 64-29 64-64v0z m-256 432h-256c-27 0-48-21-48-48 0-10 3-19 8-27l0 0 128-192c9-13 23-21 40-21s31 8 40 21l0 0 128 192c5 8 8 17 8 27 0 27-21 48-48 48v0z" />
<glyph glyph-name="toggle-left" unicode="&#xf191;" d="M832 896h-640c-71 0-128-57-128-128v0-640c0-71 57-128 128-128v0h640c71 0 128 57 128 128v0 640c0 71-57 128-128 128v0z m64-768c0-35-29-64-64-64v0h-640c-35 0-64 29-64 64v0 640c0 35 29 64 64 64v0h640c35 0 64-29 64-64v0z m-297 490c-7 4-15 6-23 6-10 0-19-3-27-8l0 0-192-128c-13-9-21-23-21-40s8-31 21-40l0 0 192-128c8-5 17-8 27-8 27 0 48 21 48 48v0 256c0 18-10 34-25 42l0 0z" />
<glyph glyph-name="toggle-right" unicode="&#xf152;" d="M475 616c-8 5-17 8-27 8-27 0-48-21-48-48v0-256c0-18 10-34 25-42l1 0c6-4 14-6 22-6 10 0 19 3 27 8l0 0 192 128c13 9 21 23 21 40s-8 31-21 40l0 0z m357 280h-640c-71 0-128-57-128-128v0-640c0-71 57-128 128-128v0h640c71 0 128 57 128 128v0 640c0 71-57 128-128 128v0z m64-768c0-35-29-64-64-64v0h-640c-35 0-64 29-64 64v0 640c0 35 29 64 64 64v0h640c35 0 64-29 64-64v0z" />
<glyph glyph-name="toggle-up" unicode="&#xf151;" d="M832 896h-640c-71 0-128-57-128-128v0-640c0-71 57-128 128-128v0h640c71 0 128 57 128 128v0 640c0 71-57 128-128 128v0z m64-768c0-35-29-64-64-64v0h-640c-35 0-64 29-64 64v0 640c0 35 29 64 64 64v0h640c35 0 64-29 64-64v0z m-344 475c-9 12-24 20-40 20s-31-8-40-20l0 0-128-192c-5-8-8-17-8-27 0-27 21-48 48-48h256c27 0 48 21 48 48 0 10-3 19-8 27l0 0z" />
<glyph glyph-name="caret-up" unicode="&#xf0d8;" d="M680 411l-128 192c-9 12-24 20-40 20s-31-8-40-20l0 0-128-192c-5-8-8-17-8-27 0-27 21-48 48-48h256c27 0 48 21 48 48 0 10-3 19-8 27l0 0z" />
<glyph glyph-name="chevron-circle-down" unicode="&#xf13a;" d="M1024 448c0 283-229 512-512 512s-512-229-512-512c0-283 229-512 512-512v0c283 0 512 229 512 512v0z m-557-173l-192 192c-11 11-18 27-18 44 0 36 28 64 64 64 17 0 33-7 44-18l0 0 147-146 147 146c11 12 28 20 46 20 35 0 64-29 64-64 0-18-8-35-20-46l0 0-192-192c-11-12-27-19-45-19s-34 7-45 19v0z" />
<glyph glyph-name="chevron-circle-left" unicode="&#xf137;" d="M0 448c0-283 229-512 512-512s512 229 512 512c0 283-229 512-512 512v0c-283 0-512-229-512-512v0z m339 45l192 192c11 12 28 20 46 20 35 0 64-29 64-64 0-18-8-35-20-46l0 0-146-147 146-147c12-11 20-28 20-46 0-35-29-64-64-64-18 0-35 8-46 20l0 0-192 192c-12 11-19 27-19 45s7 34 19 45v0z" />
<glyph glyph-name="chevron-circle-right" unicode="&#xf138;" d="M512 960c-283 0-512-229-512-512s229-512 512-512c283 0 512 229 512 512v0c0 283-229 512-512 512h0z m173-557l-192-192c-11-11-27-18-44-18-36 0-64 28-64 64 0 17 7 33 18 44l0 0 146 147-146 147c-11 11-18 27-18 44 0 36 28 64 64 64 17 0 33-7 44-18l0 0 192-192c12-11 19-27 19-45s-7-34-19-45v0z" />
<glyph glyph-name="chevron-circle-up" unicode="&#xf139;" d="M512 960c-283 0-512-229-512-512s229-512 512-512c283 0 512 229 512 512v0c0 283-229 512-512 512h0z m45-339l192-192c11-11 18-27 18-44 0-36-28-64-64-64-17 0-33 7-44 18l0 0-147 146-147-146c-11-12-28-20-46-20-35 0-64 29-64 64 0 18 8 35 20 46l0 0 192 192c11 12 27 19 45 19s34-7 45-19v0z" />
<glyph glyph-name="chevron-down" unicode="&#xf078;" d="M930 674c-9 9-21 14-34 14s-25-5-34-14l-350-350-350 350c-9 8-20 13-33 13-26 0-48-22-48-48 0-13 5-24 13-33l0 0 384-384c9-9 21-14 34-14s25 5 34 14l384 384c9 9 14 21 14 34s-5 25-14 34l0 0z" />
<glyph glyph-name="chevron-left" unicode="&#xf053;" d="M388 448l350 350c8 9 13 20 13 33 0 26-22 48-48 48-13 0-24-5-33-13l0 0-384-384c-9-9-14-21-14-34s5-25 14-34l384-384c9-8 20-13 33-13 26 0 48 22 48 48 0 13-5 24-13 33l0 0z" />
<glyph glyph-name="chevron-right" unicode="&#xf054;" d="M738 482l-384 384c-9 8-20 13-33 13-26 0-48-22-48-48 0-13 5-24 13-33l0 0 350-350-350-350c-9-9-15-21-15-35 0-27 21-48 48-48 14 0 26 6 35 15l0 0 384 384c9 9 14 21 14 34s-5 25-14 34l0 0z" />
<glyph glyph-name="chevron-up" unicode="&#xf077;" d="M930 290l-384 384c-9 9-21 14-34 14s-25-5-34-14l-384-384c-8-9-13-20-13-33 0-26 22-48 48-48 13 0 24 5 33 13l0 0 350 350 350-350c9-8 20-13 33-13 26 0 48 22 48 48 0 13-5 24-13 33l0 0z" />
<glyph glyph-name="circle-arrow-in-east" unicode="&#xe9dc;" d="M478 290c-9-9-15-21-15-35 0-27 21-48 48-48 14 0 26 6 35 15l0 0 192 192c9 9 14 21 14 34s-5 25-14 34l-192 192c-9 8-20 13-33 13-26 0-48-22-48-48 0-13 5-24 13-33l0 0 110-110h-524c-27 0-48-22-48-48s21-48 48-48v0h524z m34 670c-190-1-355-105-443-260l-1-2c-3-5-4-10-4-16 0-18 14-32 32-32 12 0 22 6 28 16l0 0c78 138 224 230 391 230 248 0 448-200 448-448s-200-448-448-448c-167 0-313 92-390 228l-1 2c-6 10-16 16-28 16-18 0-32-14-32-32 0-6 2-11 4-15l0 0c89-157 255-261 445-261 282 0 511 229 511 511s-229 511-511 511c0 0-1 0-1 0h0z" />
<glyph glyph-name="circle-arrow-in-ne" unicode="&#xe9dd;" d="M592 256c0-27 21-48 48-48s48 21 48 48v0 320c0 27-21 48-48 48v0h-320c-27 0-48-21-48-48s21-48 48-48v0h202l-366-366c-9-9-14-21-14-34 0-27 22-48 48-48 13 0 25 5 34 14l368 368z m282 554c-93 93-221 151-363 151-282 0-511-229-511-511 0-50 7-99 21-144l-1 3c3-14 16-25 31-25 18 0 32 14 32 32 0 4-1 7-2 11l0-1c-11 37-17 80-17 123 0 248 201 449 449 449s449-201 449-449c0-248-201-449-449-449-43 0-86 6-126 18l3-1c-2 1-5 2-8 2-18 0-32-15-32-33 0-14 9-26 23-30l0 0c42-13 90-20 140-20 0 0 1 0 1 0h0c0 0 1 0 1 0 140 0 267 57 359 148l0 0c92 93 150 222 150 363s-58 270-150 363l0 0z" />
<glyph glyph-name="circle-arrow-in-north" unicode="&#xe9de;" d="M738 482l-192 192c-9 9-21 14-34 14s-25-5-34-14l-192-192c-9-9-15-21-15-35 0-27 21-48 48-48 14 0 26 6 35 15l0 0 110 110v-524c0-27 21-48 48-48s48 21 48 48v0 524l110-110c9-9 21-15 35-15 27 0 48 21 48 48 0 13-6 26-15 35l0 0z m-226 478c-1 0-1 0-2 0-282 0-510-228-510-510 0-191 105-357 260-445l2-1c5-3 10-4 16-4 18 0 32 14 32 32 0 12-6 22-16 28l0 0c-138 78-230 224-230 391 0 248 200 448 448 448s448-200 448-448c0-167-92-313-228-390l-2-1c-10-6-16-16-16-28 0-18 14-32 32-32 0 0 0 0 0 0h0c6 0 11 2 16 4l-1 0c158 89 263 255 263 446 0 282-228 510-510 510-1 0-1 0-2 0h0z" />
<glyph glyph-name="circle-arrow-in-nw" unicode="&#xe9df;" d="M502 528h202c27 0 48 21 48 48s-21 48-48 48v0h-320c-27 0-48-21-48-48v0-320c0-27 21-48 48-48s48 21 48 48v0 206l368-368c9-9 21-15 35-15 26 0 48 22 48 48 0 14-6 26-15 35l0 0z m374 282c-93 93-221 150-363 150-283 0-513-230-513-513 0-142 57-270 150-363l0 0c92-91 219-148 359-148 0 0 1 0 1 0h0c0 0 1 0 1 0 50 0 98 7 144 20l-4-1c14 4 24 17 24 31 0 18-15 33-33 33-3 0-6-1-9-2l1 0c-37-10-79-17-123-17-248 0-449 201-449 449s201 449 449 449c248 0 449-201 449-449 0-43-6-86-18-126l1 4c-1-3-2-7-2-10 0-18 15-32 32-32 15 0 28 10 31 24l0 0c13 42 20 91 20 141 0 140-57 267-148 360l0 0z" />
<glyph glyph-name="circle-arrow-in-se" unicode="&#xe9e0;" d="M522 368h-202c-27 0-48-21-48-48s21-48 48-48v0h320c27 0 48 21 48 48v0 320c0 27-21 48-48 48s-48-21-48-48v0-206l-368 368c-9 9-21 14-34 14-26 0-48-21-48-48 0-13 5-25 14-34l0 0z m352 444c-93 91-220 148-360 148-50 0-99-7-144-21l3 1c-13-4-22-16-22-30 0-18 14-32 32-32 2 0 5 0 8 1l-1 0c37 10 79 17 123 17 248 0 449-201 449-449s-201-449-449-449c-248 0-449 201-449 449 0 43 6 86 18 126l-1-3c1 2 2 6 2 9 0 18-15 32-32 32-15 0-28-10-31-24l0 0c-12-41-19-89-19-138 0-283 229-512 512-512s512 229 512 512c0 142-58 270-151 363l0 0z" />
<glyph glyph-name="circle-arrow-in-south" unicode="&#xe9e1;" d="M286 414l192-192c9-9 21-14 34-14s25 5 34 14l192 192c8 9 13 20 13 33 0 26-22 48-48 48-13 0-24-5-33-13l0 0-110-110v524c0 26-22 48-48 48s-48-22-48-48v0-524l-110 110c-9 8-20 13-33 13-26 0-48-22-48-48 0-13 5-24 13-33l0 0z m476 478c-5 3-10 4-16 4-18 0-32-14-32-32 0-12 6-22 16-28l0 0c138-78 230-224 230-391 0-248-201-448-448-448s-448 200-448 448c0 167 92 313 227 390l3 1c10 6 16 16 16 28 0 18-14 32-32 32-6 0-11-1-16-4l0 0c-157-89-262-256-262-447 0-283 229-512 512-512s512 229 512 512c0 191-105 358-260 446l-2 1z" />
<glyph glyph-name="circle-arrow-in-sw" unicode="&#xe9e2;" d="M432 640c0 27-21 48-48 48s-48-21-48-48v0-320c0-27 21-48 48-48v0h320c27 0 48 21 48 48s-21 48-48 48v0h-202l366 366c9 9 14 21 14 34 0 27-22 48-48 48-13 0-25-5-34-14l-368-368z m572-53c-3 14-16 24-31 24-17 0-32-15-32-32 0-4 1-7 2-10l0 0c11-36 17-79 17-122 0-248-201-449-449-449s-449 201-449 449c0 248 201 449 449 449 43 0 86-6 126-18l-3 1c2-1 5-1 8-1 15 0 27 9 31 23l0 0c1 3 1 6 1 9 0 14-9 27-23 30l0 0c-42 13-90 20-140 20-283 0-513-230-513-513s230-513 513-513c283 0 513 230 513 513 0 50-7 98-20 143l1-3z" />
<glyph glyph-name="circle-arrow-in-west" unicode="&#xe9e3;" d="M960 496h-524l110 110c9 9 15 21 15 35 0 27-21 48-48 48-14 0-26-6-35-15l0 0-192-192c-9-9-14-21-14-34s5-25 14-34l192-192c9-9 21-15 35-15 27 0 48 21 48 48 0 14-6 26-15 35l0 0-110 110h524c27 0 48 21 48 48s-21 48-48 48v0z m-16-254c-5 3-10 4-16 4-12 0-22-6-28-16l0 0c-78-138-224-230-391-230-248 0-448 201-448 448s200 448 448 448c167 0 313-92 390-227l1-3c6-10 16-16 28-16 18 0 32 14 32 32 0 6-1 11-4 16l0 0c-89 157-256 262-447 262-283 0-512-229-512-512s229-512 512-512c191 0 358 105 446 260l1 2c3 5 4 10 4 16 0 12-6 23-16 28l0 0z" />
<glyph glyph-name="circle-arrow-out-east" unicode="&#xe9e4;" d="M994 482l-192 192c-9 8-20 13-33 13-26 0-48-22-48-48 0-13 5-24 13-33l0 0 110-110h-524c-26 0-48-22-48-48s22-48 48-48h524l-110-110c-9-9-15-21-15-35 0-27 21-48 48-48 14 0 26 6 35 15l0 0 192 192c9 9 14 21 14 34s-5 25-14 34l0 0z m-273-429c-60-33-132-53-208-53 0 0-1 0-1 0h0c-247 0-448 201-448 448s201 448 448 448v0c0 0 1 0 1 0 76 0 148-20 210-54l-2 1c4-2 10-4 15-4 18 0 32 15 32 32 0 13-7 23-17 28l0 1c-69 38-151 60-238 60 0 0-1 0-1 0h0c-283 0-512-229-512-512s229-512 512-512v0c0 0 1 0 1 0 87 0 169 22 241 62l-3-2c10 6 17 16 17 28 0 18-14 33-32 33-5 0-11-2-15-4l0 0z" />
<glyph glyph-name="circle-arrow-out-ne" unicode="&#xe9e5;" d="M576 720h140l-366-366c-9-9-15-21-15-35 0-27 21-48 48-48 14 0 26 6 35 15l0 0 366 366v-140c0-27 21-48 48-48s48 21 48 48v0 256c0 26-22 48-48 48v0h-256c-27 0-48-22-48-48s21-48 48-48v0z m403-382c-3 0-6 1-9 1-14 0-27-9-31-23l0 0c-22-73-60-135-110-185l0 0c-81-81-193-131-317-131-247 0-448 200-448 448 0 124 50 236 131 317v0c50 50 113 88 182 109l3 1c14 4 24 16 24 31 0 18-14 32-32 32-3 0-7 0-10-2l0 0c-83-25-155-68-212-126l0 0c-93-93-150-221-150-362 0-283 229-512 512-512 141 0 269 57 362 150v0c58 57 101 128 126 208l0 4c1 2 2 6 2 9 0 14-10 26-23 31l0 0z" />
<glyph glyph-name="circle-arrow-out-north" unicode="&#xe9e6;" d="M354 670l110 110v-524c0-27 21-48 48-48s48 21 48 48v0 524l110-110c9-8 20-13 33-13 26 0 48 22 48 48 0 13-5 24-13 33l0 0-192 192c-9 9-21 14-34 14s-25-5-34-14l-192-192c-8-9-13-20-13-33 0-26 22-48 48-48 13 0 24 5 33 13l0 0z m610 17c-6 10-16 16-28 16-18 0-32-14-32-32 0-5 1-10 3-14l0 0c33-60 53-132 53-208 0 0 0-1 0-1v0c0-247-201-448-448-448s-448 201-448 448v0c0 0 0 1 0 1 0 76 20 148 54 210l-1-2c2 4 3 9 3 14 0 18-14 32-32 32-12 0-22-6-27-15l-1-1c-38-68-60-150-60-237 0-1 0-1 0-2v0c0-283 229-512 512-512s512 229 512 512v0c0 1 0 1 0 2 0 87-22 169-62 240l2-3z" />
<glyph glyph-name="circle-arrow-out-nw" unicode="&#xe9e7;" d="M192 464c27 0 48 21 48 48v0 140l366-366c9-8 20-13 33-13 26 0 48 22 48 48 0 13-5 24-13 33l0 0-366 366h140c26 0 48 22 48 48s-22 48-48 48v0h-256c-27 0-48-21-48-48v0-256c0-26 21-48 48-48v0z m682 346c-57 58-129 101-208 126l-4 0c-3 2-7 2-10 2-18 0-32-14-32-32 0-15 10-27 24-31l0 0c72-22 135-60 185-110l0 0c81-81 131-193 131-317 0-247-201-448-448-448-124 0-236 50-317 131v0c-50 50-88 112-109 182l-1 3c-4 14-16 23-31 23-18 0-32-14-32-32 0-3 1-6 2-9l-1 0c26-83 69-155 127-212l0 0c93-93 221-150 362-150 283 0 512 229 512 512 0 141-57 269-150 362v0z" />
<glyph glyph-name="circle-arrow-out-se" unicode="&#xe9e8;" d="M832 432c-27 0-48-21-48-48v0-140l-366 366c-9 8-20 13-33 13-26 0-48-22-48-48 0-13 5-24 13-33l0 0 366-366h-140c-26 0-48-22-48-48s22-48 48-48v0h256c27 0 48 21 48 48v0 256c0 26-21 48-48 48v0z m168 166c-25 83-68 155-126 212l0 0c-93 93-221 150-362 150-283 0-512-229-512-512 0-141 57-269 150-362v0c57-58 129-101 208-126l4 0c3-1 6-2 9-2h0c18 0 32 15 32 32 0 15-10 27-23 31l0 0c-73 22-135 60-185 110l0 0c-81 81-131 193-131 317 0 247 200 448 448 448 124 0 236-50 317-131v0c50-50 88-113 109-182l1-3c4-14 16-23 31-23 17 0 32 14 32 32 0 3-1 6-2 9l0 0z" />
<glyph glyph-name="circle-arrow-out-south" unicode="&#xe9e9;" d="M670 226l-110-110v524c0 27-21 48-48 48s-48-21-48-48v0-524l-110 110c-9 8-20 13-33 13-26 0-48-22-48-48 0-13 5-24 13-33l0 0 192-192c9-9 21-14 34-14s25 5 34 14l192 192c8 9 13 20 13 33 0 26-22 48-48 48-13 0-24-5-33-13l0 0z m-158 734c-283 0-512-229-512-512v0c0 0 0-1 0-1 0-87 22-169 62-241l-2 3c6-10 16-16 28-16 18 0 32 14 32 32 0 5-1 10-3 14l0 0c-33 60-53 132-53 208 0 0 0 1 0 1v0c0 247 201 448 448 448s448-201 448-448v0c0 0 0-1 0-1 0-76-20-148-54-210l1 2c-2-4-4-10-4-15 0-12 7-23 17-28l0 0c5-3 10-4 15-4h0c12 0 23 7 28 16l0 1c39 68 61 151 61 238 0 0 0 1 0 1v0c0 282-229 511-512 512h0z" />
<glyph glyph-name="circle-arrow-out-sw" unicode="&#xe9ea;" d="M448 176h-140l366 366c8 9 13 20 13 33 0 26-22 48-48 48-13 0-24-5-33-13l0 0-366-366v140c0 26-22 48-48 48s-48-22-48-48v0-256c0-27 21-48 48-48v0h256c26 0 48 21 48 48s-22 48-48 48v0z m426 634c-93 93-221 150-362 150s-269-57-362-150l0 0c-58-57-101-129-126-208l0-4c-1-3-2-6-2-9 0-18 15-32 32-32 15 0 27 9 31 23l0 0c22 72 60 135 110 185l0 0c81 81 193 131 317 131 247 0 448-201 448-448 0-124-50-236-131-317v0c-50-50-112-88-182-109l-3-1c-13-4-23-16-23-31 0-17 14-32 32-32h0c3 0 6 1 9 2l0 0c83 25 155 68 212 126l0 0c93 93 150 221 150 362s-57 269-150 362l0 0z" />
<glyph glyph-name="circle-arrow-out-west" unicode="&#xe9eb;" d="M290 290l-110 110h524c27 0 48 21 48 48s-21 48-48 48v0h-524l110 110c8 9 13 20 13 33 0 26-22 48-48 48-13 0-24-5-33-13l0 0-192-192c-9-9-14-21-14-34s5-25 14-34l192-192c9-8 20-13 33-13 26 0 48 22 48 48 0 13-5 24-13 33l0 0z m222 670c0 0-1 0-1 0-87 0-169-22-241-62l3 2c-10-6-17-16-17-29 0-17 14-32 32-32 6 0 11 2 15 4l0 0c60 33 132 53 208 53 0 0 1 0 1 0h0c247 0 448-201 448-448s-201-448-448-448v0c0 0-1 0-1 0-76 0-148 20-210 54l2-1c-4 2-10 4-15 4-18 0-32-15-32-32 0-13 7-23 17-28l0-1c69-38 151-60 238-60 0 0 1 0 1 0h0c283 0 512 229 512 512s-229 512-512 512v0z" />
<glyph glyph-name="exchange" unicode="&#xf0ec;" d="M222 478c9-8 20-13 33-13 26 0 48 22 48 48 0 13-5 24-13 33l0 0-110 110h780c26 0 48 22 48 48s-22 48-48 48v0h-780l110 110c8 9 13 20 13 33 0 26-22 48-48 48-13 0-24-5-33-13l0 0-192-192c-9-9-14-21-14-34s5-25 14-34l0 0z m580-60c-9 8-20 13-33 13-26 0-48-22-48-48 0-13 5-24 13-33l0 0 110-110h-780c-26 0-48-22-48-48s22-48 48-48v0h780l-110-110c-9-9-15-21-15-35 0-27 21-48 48-48 14 0 26 6 35 15l0 0 192 192c9 9 14 21 14 34s-5 25-14 34l0 0z" />
<glyph glyph-name="hand-o-down" unicode="&#xf0a7;" d="M640 960h-128c-95 0-185-53-229-134l-205-355c-28-47-12-111 32-137 24-13 50-17 75-11 22 6 41 21 53 41l82 142v-474c0-53 43-96 96-96s96 43 96 96c-1 68-1 162-1 231 10-5 21-7 33-7 48 0 85 29 94 71 11-4 22-7 34-7 48 0 85 29 94 71 11-4 22-7 34-7 55 0 96 39 96 90v230c0 141-115 256-256 256z m192-486c0-19-17-26-32-26-16 0-32 19-32 38 0 18-14 32-32 32s-32-14-32-32v-76c0-19-17-26-32-26-16 0-32 19-32 38 0 18-14 32-32 32s-32-14-32-32v-76c0-19-17-26-32-26-16 0-32 19-32 38 0 11-5 21-14 27-9 6-20 7-30 3-9-4-15-6-18-30h-2l1-12c-3-41-3-127-1-314 0-18-14-32-32-32s-32 14-32 32v474c0 30-19 55-48 62l-16 2c-23 0-44-11-55-32l-83-142c-3-6-8-10-14-11-7-2-17 0-26 5-14 8-19 32-9 49l206 356c33 61 101 101 173 101h128c106 0 192-86 192-192v-230z" />
<glyph glyph-name="hand-o-left" unicode="&#xf0a5;" d="M890 677l-355 205c-47 27-111 12-137-32-27-47-14-102 30-128l142-82h-474c-53 0-96-43-96-96s43-96 96-96c68 1 162 1 231 1-5-10-7-21-7-33 0-48 29-85 71-94-4-11-7-22-7-34 0-48 29-85 71-94-4-11-7-22-7-34 0-55 39-96 90-96h230c141 0 256 115 256 256v128c0 95-53 185-134 229z m70-357c0-106-86-192-192-192h-230c-19 0-26 17-26 32 0 16 19 32 38 32 18 0 32 14 32 32s-14 32-32 32h-76c-19 0-26 17-26 32 0 16 19 32 38 32 18 0 32 14 32 32s-14 32-32 32h-76c-19 0-26 17-26 32 0 16 19 32 38 32 11 0 21 5 27 14s7 21 3 31c-4 9-7 14-30 17v2l-12-1c-41 3-126 3-314 1-18 0-32 14-32 32s14 32 32 32h474c30 0 55 19 62 47 8 29-4 58-30 72l-142 82c-16 10-14 28-6 41 8 14 32 18 49 9l356-206c61-33 101-101 101-173v-128z" />
<glyph glyph-name="hand-o-right" unicode="&#xf0a4;" d="M928 640h-474l142 82c22 13 37 34 42 59 5 23 0 47-12 69-26 44-90 60-137 32l-354-204c-82-45-135-135-135-230v-128c0-141 115-256 256-256h230c51 0 90 41 90 96 0 12-3 23-7 34 42 9 71 46 71 94 0 12-3 23-7 34 42 9 71 46 71 94 0 12-2 23-7 33 69 0 163 0 231-1 53 0 96 43 96 96s-43 96-96 96z m0-128c-187 2-273 2-314-1l-12 1v-2c-23-3-26-8-30-17-4-10-3-22 3-31s16-14 27-14c19 0 38-16 38-32 0-15-7-32-26-32h-76c-18 0-32-14-32-32s14-32 32-32c19 0 38-16 38-32 0-15-7-32-26-32h-76c-18 0-32-14-32-32s14-32 32-32c19 0 38-16 38-32 0-15-7-32-26-32h-230c-106 0-192 86-192 192v128c0 72 40 140 102 174l355 205c6 3 13 5 20 5 12 0 24-5 29-14 5-8 7-17 5-25-1-6-5-12-11-16l-142-82c-26-14-38-43-30-72 7-28 32-47 62-47h474c18 0 32-14 32-32s-14-32-32-32z" />
<glyph glyph-name="hand-o-up" unicode="&#xf0a6;" d="M800 512c-12 0-23-3-34-7-9 42-46 71-94 71-12 0-23-3-34-7-9 42-46 71-94 71-12 0-23-2-33-7 0 69 0 163 1 231 0 53-43 96-96 96s-96-43-96-96v-474l-82 142c-13 22-34 37-59 42-23 5-47 0-69-12-44-26-59-90-32-137l204-354c45-82 135-135 230-135h128c141 0 256 115 256 256v230c0 51-41 90-96 90z m32-320c0-106-86-192-192-192h-128c-72 0-140 40-174 102l-205 355c-10 17-5 41 9 49 6 4 13 6 19 6l6 0c7-2 12-6 15-12l83-142c14-26 43-38 72-30 28 7 47 32 47 62v474c0 18 14 32 32 32s32-14 32-32c-2-187-3-273 1-314l-1-12h2c3-23 8-26 17-30 10-4 22-3 31 3s14 16 14 27c0 19 16 38 32 38 15 0 32-7 32-26v-76c0-18 14-32 32-32s32 14 32 32c0 19 16 38 32 38 15 0 32-7 32-26v-76c0-18 14-32 32-32s32 14 32 32c0 19 16 38 32 38 15 0 32-7 32-26v-230z" />
<glyph glyph-name="long-arrow-down" unicode="&#xf175;" d="M802 290c-9 9-21 14-34 14s-25-5-34-14l-174-174v780c0 27-21 48-48 48s-48-21-48-48v0-780l-174 174c-9 9-21 15-35 15-27 0-48-21-48-48 0-14 6-26 15-35l0 0 256-256c9-9 21-14 34-14s25 5 34 14l256 256c9 9 14 21 14 34s-5 25-14 34l0 0z" />
<glyph glyph-name="long-arrow-left" unicode="&#xf177;" d="M960 496h-780l174 174c9 9 15 21 15 35 0 27-21 48-48 48-14 0-26-6-35-15l0 0-256-256c-9-9-14-21-14-34s5-25 14-34l256-256c9-8 20-13 33-13 26 0 48 22 48 48 0 13-5 24-13 33l0 0-174 174h780c27 0 48 22 48 48s-21 48-48 48v0z" />
<glyph glyph-name="long-arrow-right" unicode="&#xf178;" d="M994 482l-256 256c-9 9-21 15-35 15-27 0-48-21-48-48 0-14 6-26 15-35l0 0 174-174h-780c-27 0-48-21-48-48s21-48 48-48v0h780l-174-174c-9-9-15-21-15-35 0-27 21-48 48-48 13 0 26 6 35 15l0 0 256 256c8 9 14 21 14 34s-6 25-14 34l0 0z" />
<glyph glyph-name="long-arrow-up" unicode="&#xf176;" d="M802 674l-256 256c-9 9-21 14-34 14s-25-5-34-14l-256-256c-9-9-15-21-15-35 0-27 21-48 48-48 14 0 26 6 35 15l0 0 174 174v-780c0-27 21-48 48-48s48 21 48 48v0 780l174-174c9-8 20-13 33-13 26 0 48 22 48 48 0 13-5 24-13 33l0 0z" />
<glyph glyph-name="page-bottom" unicode="&#xe90d;" d="M478 414c9-9 21-14 34-14s25 5 34 14l384 384c8 9 13 20 13 33 0 26-22 48-48 48-13 0-24-5-33-13l0 0-350-350-350 350c-9 8-20 13-33 13-26 0-48-22-48-48 0-13 5-24 13-33l0 0z m418-302h-768c-27 0-48-21-48-48s21-48 48-48v0h768c27 0 48 21 48 48s-21 48-48 48v0z" />
<glyph glyph-name="page-first" unicode="&#xe90e;" d="M580 448l350 350c8 9 13 20 13 33 0 26-22 48-48 48-13 0-24-5-33-13l0 0-384-384c-9-9-14-21-14-34s5-25 14-34l384-384c9-8 20-13 33-13 26 0 48 22 48 48 0 13-5 24-13 33l0 0z m-452 432c-27 0-48-21-48-48v0-768c0-27 21-48 48-48s48 21 48 48v0 768c0 27-21 48-48 48v0z" />
<glyph glyph-name="page-last" unicode="&#xe90f;" d="M162 866c-9 8-20 13-33 13-26 0-48-22-48-48 0-13 5-24 13-33l0 0 350-350-350-350c-9-9-15-21-15-35 0-27 21-48 48-48 14 0 26 6 35 15l0 0 384 384c9 9 14 21 14 34s-5 25-14 34l0 0z m734 14c-27 0-48-21-48-48v0-768c0-27 21-48 48-48s48 21 48 48v0 768c0 27-21 48-48 48v0z" />
<glyph glyph-name="page-top" unicode="&#xe910;" d="M546 482c-9 9-21 14-34 14s-25-5-34-14l-384-384c-8-9-13-20-13-33 0-26 22-48 48-48 13 0 24 5 33 13l0 0 350 350 350-350c9-8 20-13 33-13 26 0 48 22 48 48 0 13-5 24-13 33l0 0z m-418 302h768c27 0 48 21 48 48s-21 48-48 48v0h-768c-27 0-48-21-48-48s21-48 48-48v0z" />
<glyph glyph-name="awesome-face" unicode="&#xea8b;" d="M39 576h370c0 0 0 0 0 0 16 0 29 11 32 25l0 1c4 21 7 45 7 70l0 0c0 159-100 288-224 288s-224-129-224-288c0-25 3-49 8-73l-1 3c3-15 16-26 32-26 0 0 0 0 0 0h0z m185 320c12 0 24-2 35-6l-1 1c-39-13-67-49-67-92 0-53 43-96 96-96 37 0 69 21 85 52l0 0c8-25 12-53 12-83 0 0 0 0 0 0v0c0-11-1-22-2-33l0 1h-316c-1 10-2 21-2 32v0c0 124 72 224 160 224z m391-320h370c0 0 0 0 0 0 16 0 29 11 32 25l0 1c4 21 7 45 7 70l0 0c0 159-100 288-224 288s-224-129-224-288c0-25 3-49 8-73l-1 3c3-15 16-26 32-26 0 0 0 0 0 0h0z m185 320c12 0 24-2 35-6l-1 1c-39-13-67-49-67-92 0-53 43-96 96-96 37 0 69 21 85 52l0 0c8-25 12-53 12-83 0 0 0 0 0 0v0c0-11-1-22-2-33l0 1h-316c-1 10-2 21-2 32v0c0 124 72 224 160 224z m188-448h-956c-18 0-32-14-32-32s14-32 32-32v0h40c41-257 239-448 472-448 242 0 446 205 476 477 0 1 0 2 0 3 0 18-14 32-32 32 0 0 0 0 0 0h0z m-444-448c-57 0-111 13-159 37l3-1c18 125 124 220 252 220h0c0 0 0 0 0 0 85 0 159-41 205-105l1 0c-71-91-180-149-302-151l0 0z" />
<glyph glyph-name="emoji-angry" unicode="&#x1f621;" d="M512 960c-282 0-512-230-512-512s230-512 512-512 512 230 512 512-230 512-512 512z m0-960c-247 0-448 201-448 448s201 448 448 448 448-201 448-448c0-247-201-448-448-448z m-128 448c0-35-29-64-64-64s-64 29-64 64c0 35 29 64 64 64s64-29 64-64z m384 0c0-35-29-64-64-64s-64 29-64 64c0 35 29 64 64 64s64-29 64-64z m-480 192c39 0 75-19 103-52 7-8 16-12 25-12 7 0 14 2 20 7 14 12 16 32 5 45-41 49-95 76-153 76-18 0-32-14-32-32s14-32 32-32z m448 64c-58 0-112-27-153-76-11-13-9-33 5-45 6-5 13-7 20-7 9 0 18 4 25 12 28 33 64 52 103 52 18 0 32 14 32 32s-14 32-32 32z m-224-384c-97 0-186-58-227-147-7-16 0-35 17-42 16-8 35 0 42 16 30 66 96 109 168 109s139-43 169-109c5-12 17-19 29-19 5 0 9 1 13 3 17 7 24 26 16 42-40 89-129 147-227 147z" />
<glyph glyph-name="emoji-astonished" unicode="&#x1f632;" d="M512 960c-282 0-512-230-512-512s230-512 512-512 512 230 512 512-230 512-512 512z m0-960c-247 0-448 201-448 448s201 448 448 448 448-201 448-448-201-448-448-448z m256 512c0-35-29-64-64-64s-64 29-64 64c0 35 29 64 64 64s64-29 64-64z m-384 0c0-35-29-64-64-64s-64 29-64 64c0 35 29 64 64 64s64-29 64-64z m128-128c-71 0-128-57-128-128v-64c0-71 57-128 128-128s128 57 128 128v64c0 71-57 128-128 128z m64-192c0-35-29-64-64-64s-64 29-64 64v64c0 35 29 64 64 64s64-29 64-64v-64z m-292 450c7-1 14-2 22-2 53 0 102 28 136 78 10 15 7 35-8 44-15 10-35 7-44-8-26-37-59-54-98-49-17 2-33-10-36-27-2-18 10-34 28-36z m434-2c8 0 15 1 22 2 18 2 30 18 28 36s-19 29-36 27c-39-5-72 12-98 49-9 15-29 18-44 8s-18-29-8-44c34-50 83-78 136-78z" />
<glyph glyph-name="emoji-big-eyes-smile" unicode="&#x1f603;" d="M448 672c0-53-29-96-64-96s-64 43-64 96c0 53 29 96 64 96s64-43 64-96z m256 0c0-53-29-96-64-96s-64 43-64 96c0 53 29 96 64 96s64-43 64-96z m-192 288c-282 0-512-230-512-512s230-512 512-512 512 230 512 512-230 512-512 512z m0-960c-247 0-448 201-448 448s201 448 448 448 448-201 448-448-201-448-448-448z m316 485c-2 16-15 27-31 27h-570c-16 0-29-11-31-27 0 0-4-24-4-37 0-176 144-320 320-320s320 144 320 320c0 13-4 37-4 37z m-316-293c-94 0-176 52-220 128h440c-44-76-126-128-220-128z m247 192h-494c-5 21-9 42-9 64h512c0-22-4-43-9-64z" />
<glyph glyph-name="emoji-big-frown" unicode="&#x1f626;" d="M512 960c-282 0-512-230-512-512s230-512 512-512 512 230 512 512-230 512-512 512z m0-960c-247 0-448 201-448 448s201 448 448 448 448-201 448-448-201-448-448-448z m-128 448c0-35-29-64-64-64s-64 29-64 64c0 35 29 64 64 64s64-29 64-64z m384 0c0-35-29-64-64-64s-64 29-64 64c0 35 29 64 64 64s64-29 64-64z m-256-128c-70 0-136-28-176-75-17-20-21-46-10-69 13-29 45-48 81-48h210c36 0 68 19 81 48 11 23 7 49-10 69-40 47-106 75-176 75z m105-128h-210c-15 0-23 8-22 12 28 32 75 52 127 52s99-20 128-53c0-3-8-11-23-11z" />
<glyph glyph-name="emoji-cold-sweat" unicode="&#x1f613;" d="M352 512c-53 0-96-43-96-96 0-18 14-32 32-32s32 14 32 32c0 18 14 32 32 32s32-14 32-32c0-18 14-32 32-32s32 14 32 32c0 53-43 96-96 96z m288-96c0 18 14 32 32 32s32-14 32-32c0-18 14-32 32-32s32 14 32 32c0 53-43 96-96 96s-96-43-96-96c0-18 14-32 32-32s32 14 32 32z m-281-236c-11-13-9-33 5-45 13-11 33-9 45 5 56 67 150 67 206 0 7-8 16-12 25-12 7 0 14 2 20 7 14 12 16 32 5 45-81 98-225 98-306 0z m-199 332c88 0 160 72 160 160 0 102-121 258-135 276-12 15-38 15-50 0-14-18-135-174-135-276 0-88 72-160 160-160z m0 362c40-56 96-148 96-202 0-53-43-96-96-96s-96 43-96 96c0 54 56 146 96 202z m352 86c-58 0-115-10-171-30-16-6-25-24-19-41s24-25 41-19c49 17 99 26 149 26 247 0 448-201 448-448s-201-448-448-448c-235 0-431 184-446 418-2 18-17 31-34 30-18-1-31-16-30-34 17-268 242-478 510-478 282 0 512 230 512 512s-230 512-512 512z" />
<glyph glyph-name="emoji-confounded" unicode="&#x1f616;" d="M512 960c-282 0-512-230-512-512s230-512 512-512 512 230 512 512-230 512-512 512z m0-960c-247 0-448 201-448 448s201 448 448 448 448-201 448-448-201-448-448-448z m136 373c-6 7-15 11-24 11s-18-4-24-11l-88-100-88 100c-6 7-15 11-24 11s-18-4-24-11l-112-128c-12-13-10-33 3-45 6-5 13-8 21-8 9 0 18 4 24 11l88 100 88-100c6-7 14-11 24-11s18 4 24 11l88 100 88-100c12-13 32-15 45-3s15 32 3 45l-112 128z m-364 269c7-1 14-2 22-2 53 0 102 28 136 78 10 15 7 35-8 44-14 10-34 7-44-8-26-37-59-54-98-49-17 2-33-10-36-27-2-18 10-34 28-36z m434-2c8 0 15 1 22 2 18 2 30 18 28 36-3 17-19 29-36 27-39-5-72 12-97 49-11 15-31 18-45 8-15-9-18-29-8-44 34-50 83-78 136-78z m18-64h-128c-18 0-32-14-32-32s14-32 32-32h128c18 0 32 14 32 32s-14 32-32 32z m-448-64h128c18 0 32 14 32 32s-14 32-32 32h-128c-18 0-32-14-32-32s14-32 32-32z" />
<glyph glyph-name="emoji-confused" unicode="&#x1f615;" d="M768 576c0-35-29-64-64-64s-64 29-64 64c0 35 29 64 64 64s64-29 64-64z m-384 0c0-35-29-64-64-64s-64 29-64 64c0 35 29 64 64 64s64-29 64-64z m128 384c-282 0-512-230-512-512s230-512 512-512 512 230 512 512-230 512-512 512z m0-960c-247 0-448 201-448 448s201 448 448 448 448-201 448-448-201-448-448-448z m0 384c-112 0-211-76-240-184-5-17 5-34 22-39 3-1 6-1 9-1 14 0 27 9 31 24 21 80 95 136 178 136 42 0 81-13 113-39 14-11 34-8 45 6s9 34-5 45c-44 34-97 52-153 52z" />
<glyph glyph-name="emoji-cool" unicode="&#x1f60e;" d="M723 381c-16 7-35 0-42-16-30-66-96-109-169-109s-139 43-169 109c-7 16-26 23-42 16-16-7-23-26-16-42 40-89 129-147 227-147s187 58 227 147c7 16 0 35-16 42z m298 341c2 4 3 13 3 18 0 18-14 33-32 33h-86c-94 113-235 187-394 187s-300-74-394-187h-86c-18 0-32-20-32-37 0-5 1-10 3-15l38-75c-26-61-41-128-41-198 0-282 230-512 512-512s512 230 512 512c0 70-15 137-41 198l38 76z m-150-157c-17-33-49-53-86-53h-34c-36 0-69 20-86 53l-67 135c-2 3-3 6-5 9h349l-71-144z m-359 331c119 0 228-47 308-123h-616c80 76 189 123 308 123z m-81-187c-2-3-3-6-5-9l-67-135c-17-33-50-53-86-53h-34c-36 0-69 20-86 53l-72 144h350z m529-261c0-247-201-448-448-448s-448 201-448 448c0 41 6 81 17 119l15-31c27-54 82-88 143-88h34c61 0 116 34 143 88l67 135c11 22 47 22 58 0l67-135c27-54 82-88 143-88h34c61 0 116 34 143 88l15 31c11-38 17-78 17-119z" />
<glyph glyph-name="emoji-cringe" unicode="&#x1f62c;" d="M768 576c0-35-29-64-64-64s-64 29-64 64c0 35 29 64 64 64s64-29 64-64z m-384 0c0-35-29-64-64-64s-64 29-64 64c0 35 29 64 64 64s64-29 64-64z m128 384c-282 0-512-230-512-512s230-512 512-512 512 230 512 512-230 512-512 512z m0-960c-247 0-448 201-448 448s201 448 448 448 448-201 448-448-201-448-448-448z m315 317l-6 19c-21 67-82 112-152 112h-313c-69 0-130-44-152-109l-7-21c-10-29-5-61 13-86 18-25 47-40 78-40h448c31 0 59 14 77 39s24 56 14 86z m-248 67v-128h-128v128h128z m-317-115c-6 9-8 19-4 29l6 20c14 40 50 66 92 66h31v-128h-99c-10 0-20 5-26 13z m500 0c-6-8-16-13-26-13h-93v128h26c42 0 79-27 91-67l7-19c3-10 1-21-5-29z" />
</font>
</defs>
</svg>
