<svg viewBox="0 0 64 64" xmlns="http://www.w3.org/2000/svg"><path d="M31.232 35.039c-1.745-6.313-4.821-11.49-9.417-15.854L28 13H12v16l6.987-6.987c4.109 3.869 6.84 8.403 8.4 14.011a10.896 10.896 0 0 1 3.845-.985zM36 13l6.185 6.185c-4.596 4.365-7.672 9.541-9.417 15.854 1.366.094 2.661.437 3.845.985 1.56-5.609 4.292-10.143 8.4-14.011L52 29V13z" opacity=".15"/><path d="M31.232 34.039c-1.745-6.313-4.821-11.49-9.417-15.854L28 12H12v16l6.987-6.987c4.109 3.869 6.84 8.403 8.4 14.011a10.896 10.896 0 0 1 3.845-.985zM36 12l6.185 6.185c-4.596 4.365-7.672 9.541-9.417 15.854 1.366.094 2.661.437 3.845.985 1.56-5.609 4.292-10.143 8.4-14.011L52 28V12z" fill="#fff"/><circle cx="32" cy="46" opacity=".15" r="7"/><circle cx="32" cy="45" fill="#fff" r="7"/><circle cx="32" cy="45" fill="#4aa4ec" r="3"/></svg>