<svg viewBox="0 0 64 64" xmlns="http://www.w3.org/2000/svg"><clipPath id="a"><path d="m27.703 48.669-14.31-14.311a2 2 0 0 1 0-2.828l2.255-2.255a2 2 0 0 1 2.828 0l9.093 9.092a.999.999 0 0 0 1.526-.134l15.844-22.635a2 2 0 0 1 2.785-.492l2.615 1.83a2.001 2.001 0 0 1 .492 2.786L30.756 48.401a2 2 0 0 1-3.053.268z"/></clipPath><path d="m27.703 49.669-14.31-14.311a2 2 0 0 1 0-2.828l2.255-2.255a2 2 0 0 1 2.828 0l9.093 9.092a.999.999 0 0 0 1.526-.134l15.844-22.635a2 2 0 0 1 2.785-.492l2.615 1.83a2.001 2.001 0 0 1 .492 2.786L30.756 49.401a2 2 0 0 1-3.053.268z" opacity=".1"/><g clip-path="url(#a)"><path d="M12 14h40v10H12zm0 26h40v10H12z" fill="#4aa4ec"/><path d="M12 32h40v8H12z" fill="#ffbe2a"/><path d="M12 24h40v8H12z" fill="#f9422a"/></g></svg>