<svg viewBox="0 0 64 64" xmlns="http://www.w3.org/2000/svg"><path d="M46 19H34a2 2 0 0 1-4 0H18a2 2 0 0 0-2 2v30a2 2 0 0 0 2 2h28a2 2 0 0 0 2-2V21a2 2 0 0 0-2-2z" opacity=".1"/><path d="M46 18H34a2 2 0 0 1-4 0H18a2 2 0 0 0-2 2v30a2 2 0 0 0 2 2h28a2 2 0 0 0 2-2V20a2 2 0 0 0-2-2z" fill="#fff"/><path d="M28 29h16v2H28zm0 7h16v2H28zm0 7h16v2H28z" fill="#bdc3c7"/><path d="M38 18a6 6 0 1 0-12 0h-4v4a2 2 0 0 0 2 2h16a2 2 0 0 0 2-2v-4zm-6 2a2 2 0 1 1 0-4 2 2 0 0 1 0 4z" fill="#d7dbdd"/><circle cx="22" cy="29.991" fill="#bdc3c7" r="2"/><circle cx="22" cy="36.991" fill="#bdc3c7" r="2"/><circle cx="22" cy="43.991" fill="#f9422a" r="2"/><path d="M22 42.992c.931 0 1.706.639 1.929 1.5.042-.161.071-.326.071-.5a2 2 0 1 0-4 0c0 .174.029.339.071.5.223-.862.998-1.5 1.929-1.5z" opacity=".05"/><path d="M22 35.992c.931 0 1.706.639 1.929 1.5.042-.161.071-.326.071-.5a2 2 0 1 0-4 0c0 .174.029.339.071.5.223-.862.998-1.5 1.929-1.5zm0-7c.931 0 1.706.639 1.929 1.5.042-.161.071-.326.071-.5a2 2 0 1 0-4 0c0 .174.029.339.071.5.223-.862.998-1.5 1.929-1.5z" opacity=".1"/></svg>