<svg viewBox="0 0 64 64" xmlns="http://www.w3.org/2000/svg"><path d="M48 49c0 2-7.163 4-16 4s-16-2-16-4v-9h32z" fill="#f9422a"/><ellipse cx="32" cy="40" fill="#f9422a" rx="16" ry="4"/><ellipse cx="32" cy="40" opacity=".2" rx="16" ry="4"/><path d="M48 37c0 2-7.163 4-16 4s-16-2-16-4v-9h32z" fill="#f9422a"/><ellipse cx="32" cy="28" fill="#f9422a" rx="16" ry="4"/><ellipse cx="32" cy="28" opacity=".2" rx="16" ry="4"/><path d="M48 25c0 2-7.163 4-16 4s-16-2-16-4v-9h32z" fill="#f9422a"/><ellipse cx="32" cy="16" fill="#f9422a" rx="16" ry="4"/><ellipse cx="32" cy="16" opacity=".2" rx="16" ry="4"/><path d="M40 37.776 28 26.608V42.87l3.407-4.48 3.462 8.157 3.004-1.274-3.462-8.157z" opacity=".1"/><path d="M40 36.776 28 25.608V41.87l3.407-4.48 3.462 8.157 3.004-1.274-3.462-8.157z" fill="#fff"/></svg>