<svg viewBox="0 0 64 64" xmlns="http://www.w3.org/2000/svg"><path d="M49 52H15a2 2 0 0 1-2-2V21h38v29a2 2 0 0 1-2 2z" opacity=".12"/><path d="M49 51H15a2 2 0 0 1-2-2V20h38v29a2 2 0 0 1-2 2z" fill="#f9422a"/><path d="M51 20H13v-5a2 2 0 0 1 2-2h34a2 2 0 0 1 2 2z" fill="#fff"/><path d="M29 45h-1c-2.206 0-4-1.794-4-4v-2.766l-2.555-1.703a.998.998 0 0 1 0-1.663L24 33.164V31c0-2.206 1.794-4 4-4h1a1 1 0 1 1 0 2h-1c-1.103 0-2 .897-2 2v2.7c0 .334-.167.646-.445.832L23.803 35.7l1.752 1.168A1 1 0 0 1 26 37.7V41c0 1.103.897 2 2 2h1a1 1 0 1 1 0 2zm7 0h-1a1 1 0 1 1 0-2h1c1.103 0 2-.897 2-2v-3.3c0-.334.167-.646.445-.832l1.752-1.168-1.752-1.168A1.001 1.001 0 0 1 38 33.7V31c0-1.103-.897-2-2-2h-1a1 1 0 1 1 0-2h1c2.206 0 4 1.794 4 4v2.164l2.555 1.703a1.003 1.003 0 0 1 0 1.665L40 38.235V41c0 2.206-1.794 4-4 4z" opacity=".08"/><path d="M29 44h-1c-2.206 0-4-1.794-4-4v-2.766l-2.555-1.703a.998.998 0 0 1 0-1.663L24 32.164V30c0-2.206 1.794-4 4-4h1a1 1 0 1 1 0 2h-1c-1.103 0-2 .897-2 2v2.7c0 .334-.167.646-.445.832L23.803 34.7l1.752 1.168A1 1 0 0 1 26 36.7V40c0 1.103.897 2 2 2h1a1 1 0 1 1 0 2zm7 0h-1a1 1 0 1 1 0-2h1c1.103 0 2-.897 2-2v-3.3c0-.334.167-.646.445-.832l1.752-1.168-1.752-1.168A1.001 1.001 0 0 1 38 32.7V30c0-1.103-.897-2-2-2h-1a1 1 0 1 1 0-2h1c2.206 0 4 1.794 4 4v2.164l2.555 1.703a1.003 1.003 0 0 1 0 1.665L40 37.235V40c0 2.206-1.794 4-4 4z" fill="#fff"/><g fill="#cacfd2"><circle cx="17.5" cy="16.5" r="1.5"/><circle cx="22.5" cy="16.5" r="1.5"/><circle cx="27.5" cy="16.5" r="1.5"/></g></svg>