<svg viewBox="0 0 64 64" xmlns="http://www.w3.org/2000/svg"><path d="M33 16.5a.5.5 0 0 1-.5.5h-1a.5.5 0 0 1-.5-.5v-3a.5.5 0 0 1 .5-.5h1a.5.5 0 0 1 .5.5zm0 36a.5.5 0 0 1-.5.5h-1a.5.5 0 0 1-.5-.5v-3a.5.5 0 0 1 .5-.5h1a.5.5 0 0 1 .5.5zm-8.384-34.289a.502.502 0 0 1-.183.683l-.866.5a.501.501 0 0 1-.683-.183l-1.5-2.598a.502.502 0 0 1 .183-.683l.866-.5a.502.502 0 0 1 .683.183zm18 31.176a.501.501 0 0 1-.183.683l-.866.5a.501.501 0 0 1-.683-.183l-1.5-2.598a.501.501 0 0 1 .183-.683l.866-.5a.501.501 0 0 1 .683.183zM18.211 23.884a.501.501 0 0 1 .183.683l-.5.866a.501.501 0 0 1-.683.183l-2.598-1.5a.501.501 0 0 1-.183-.683l.5-.866a.501.501 0 0 1 .683-.183zm31.176 18a.501.501 0 0 1 .183.683l-.5.866a.501.501 0 0 1-.683.183l-2.598-1.5a.501.501 0 0 1-.183-.683l.5-.866a.501.501 0 0 1 .683-.183zM52 33.5a.5.5 0 0 1-.5.5h-3a.5.5 0 0 1-.5-.5v-1a.5.5 0 0 1 .5-.5h3a.5.5 0 0 1 .5.5zm-36 0a.5.5 0 0 1-.5.5h-3a.5.5 0 0 1-.5-.5v-1a.5.5 0 0 1 .5-.5h3a.5.5 0 0 1 .5.5zm30.789-7.884a.502.502 0 0 1-.683-.183l-.5-.866a.501.501 0 0 1 .183-.683l2.598-1.5a.502.502 0 0 1 .683.183l.5.866a.501.501 0 0 1-.183.683zm-31.176 18a.501.501 0 0 1-.683-.183l-.5-.866a.502.502 0 0 1 .183-.683l2.598-1.5a.501.501 0 0 1 .683.183l.5.866a.501.501 0 0 1-.183.683zm25.503-24.405a.501.501 0 0 1-.683.183l-.866-.5a.501.501 0 0 1-.183-.683l1.5-2.598a.501.501 0 0 1 .683-.183l.866.5a.501.501 0 0 1 .183.683zm-18 31.176a.501.501 0 0 1-.683.183l-.866-.5a.501.501 0 0 1-.183-.683l1.5-2.598a.501.501 0 0 1 .683-.183l.866.5a.501.501 0 0 1 .183.683zm9.85-17.128a1.003 1.003 0 0 1-1.225.707L20.15 30.86a1.003 1.003 0 0 1-.707-1.225 1.003 1.003 0 0 1 1.225-.707l11.591 3.106c.531.142.849.694.707 1.225z" opacity=".05"/><path d="M33 15.5a.5.5 0 0 1-.5.5h-1a.5.5 0 0 1-.5-.5v-3a.5.5 0 0 1 .5-.5h1a.5.5 0 0 1 .5.5zm0 36a.5.5 0 0 1-.5.5h-1a.5.5 0 0 1-.5-.5v-3a.5.5 0 0 1 .5-.5h1a.5.5 0 0 1 .5.5zm-8.384-34.289a.502.502 0 0 1-.183.683l-.866.5a.501.501 0 0 1-.683-.183l-1.5-2.598a.502.502 0 0 1 .183-.683l.866-.5a.502.502 0 0 1 .683.183zm18 31.176a.501.501 0 0 1-.183.683l-.866.5a.501.501 0 0 1-.683-.183l-1.5-2.598a.501.501 0 0 1 .183-.683l.866-.5a.501.501 0 0 1 .683.183zM18.211 22.884a.501.501 0 0 1 .183.683l-.5.866a.501.501 0 0 1-.683.183l-2.598-1.5a.501.501 0 0 1-.183-.683l.5-.866a.501.501 0 0 1 .683-.183zm31.176 18a.501.501 0 0 1 .183.683l-.5.866a.501.501 0 0 1-.683.183l-2.598-1.5a.501.501 0 0 1-.183-.683l.5-.866a.501.501 0 0 1 .683-.183zM52 32.5a.5.5 0 0 1-.5.5h-3a.5.5 0 0 1-.5-.5v-1a.5.5 0 0 1 .5-.5h3a.5.5 0 0 1 .5.5zm-36 0a.5.5 0 0 1-.5.5h-3a.5.5 0 0 1-.5-.5v-1a.5.5 0 0 1 .5-.5h3a.5.5 0 0 1 .5.5zm30.789-7.884a.502.502 0 0 1-.683-.183l-.5-.866a.501.501 0 0 1 .183-.683l2.598-1.5a.502.502 0 0 1 .683.183l.5.866a.501.501 0 0 1-.183.683zm-31.176 18a.501.501 0 0 1-.683-.183l-.5-.866a.502.502 0 0 1 .183-.683l2.598-1.5a.501.501 0 0 1 .683.183l.5.866a.501.501 0 0 1-.183.683zm25.503-24.405a.501.501 0 0 1-.683.183l-.866-.5a.501.501 0 0 1-.183-.683l1.5-2.598a.501.501 0 0 1 .683-.183l.866.5a.501.501 0 0 1 .183.683zm-18 31.176a.501.501 0 0 1-.683.183l-.866-.5a.501.501 0 0 1-.183-.683l1.5-2.598a.501.501 0 0 1 .683-.183l.866.5a.501.501 0 0 1 .183.683zm9.85-17.128a1.003 1.003 0 0 1-1.225.707L20.15 29.86a1.003 1.003 0 0 1-.707-1.225 1.003 1.003 0 0 1 1.225-.707l11.591 3.106c.531.142.849.694.707 1.225z" fill="#fff"/><path d="M31.293 31.293a1.003 1.003 0 0 1 1.414 0l9.899 9.899c.389.389.389 1.025 0 1.414s-1.025.389-1.414 0l-9.899-9.899a1.003 1.003 0 0 1 0-1.414z" fill="#f9422a"/><path d="M32 33a1.003 1.003 0 0 1 0-1.414l7.071-7.071c.389-.389 1.025-.389 1.414 0s.389 1.025 0 1.414L33.414 33A1.003 1.003 0 0 1 32 33z" opacity=".05"/><path d="M32 32a1.003 1.003 0 0 1 0-1.414l7.071-7.071c.389-.389 1.025-.389 1.414 0s.389 1.025 0 1.414L33.414 32A1.003 1.003 0 0 1 32 32z" fill="#fff"/><circle cx="32" cy="32" fill="#f9422a" r="2"/></svg>