<svg viewBox="0 0 64 64" xmlns="http://www.w3.org/2000/svg"><path d="M49.806 20.873a20.877 20.877 0 0 0-5.615-5.965l-4.434 6.217a13.273 13.273 0 0 1 3.574 3.794c3.904 6.248 1.997 14.507-4.251 18.412-.502.314-1.02.576-1.545.816l3.169 6.955a21.173 21.173 0 0 0 2.421-1.295c9.819-6.136 12.816-19.115 6.681-28.934z" fill="#4aa4ec"/><path d="M47.685 18.081a20.83 20.83 0 0 0-5.828-4.619c-.051-.027-.103-.048-.155-.073L37.2 19.701c.361.153.72.315 1.072.502a13.25 13.25 0 0 1 4.416 3.81l6.004-.059z" opacity=".04"/><path d="m45.296 10.072 2.213 12.894-11.489.112z" fill="#fff"/><path d="M37.533 44.141c-3.651 1.659-8 1.681-11.806-.343-4.907-2.609-7.518-7.862-7.023-13.078l-7.601-.732c-.778 8.196 3.329 16.451 11.04 20.551 5.981 3.18 12.822 3.162 18.559.555z" fill="#3d566e"/><path d="M18.719 30.721c.389-3.991 2.544-7.768 6.2-10.053 4.713-2.945 10.568-2.58 14.837.457l4.434-6.217c-6.709-4.772-15.912-5.343-23.318-.715-5.745 3.59-9.149 9.523-9.76 15.795z" fill="#fff"/><path d="m16.416 23.082 5.836 9.897L6.364 31.45z" fill="#3d566e"/><path d="m40.702 51.094-3.169-6.953" fill="#ffbe2a"/><path d="M36.241 52.549a21.21 21.21 0 0 0 4.46-1.454l-3.169-6.953c-1.253.569-2.591.93-3.959 1.097l-2.953 5.235z" opacity=".08"/><path d="m37.714 39.934 6.625 14.539-12.27-4.531z" fill="#4aa4ec"/></svg>