<svg data-name="Layer 1" xmlns="http://www.w3.org/2000/svg" width="64" height="64"><path fill="#7a736e" d="M0 0h64v64H0z"/><path d="m26.69 32.9-9.94-9.94a.5.5 0 0 1 0-.707l4.293-4.293a.5.5 0 0 1 .707 0L23.793 20l-2 2a.5.5 0 1 0 .707.707l2-2 1.793 1.793-2 2a.5.5 0 1 0 .707.707l2-2L28.793 25l-2 2a.5.5 0 1 0 .707.707l2-2 2.19 2.19zM45 41.207l-2 2a.5.5 0 0 1-.707-.707l2-2-1.793-1.793-2 2a.5.5 0 0 1-.707-.707l2-2L40 36.207l-2 2a.5.5 0 0 1-.707-.707l2-2-2.193-2.189-5 5 9.939 9.939a.5.5 0 0 0 .707 0l4.293-4.293a.5.5 0 0 0 0-.707zm-28.223 6.678a.25.25 0 0 0 .338.338l2.085-1.106-1.32-1.32zm3.275-6.185-1.68 3.174 1.756 1.756 3.174-1.68a11.8 11.8 0 0 0 1.077-.655l-3.672-3.672a11.8 11.8 0 0 0-.655 1.077zm17.991-18.743L22.172 38.828a12 12 0 0 0-.866.978l3.888 3.888a12 12 0 0 0 .978-.866l15.871-15.871zm8.525-.525a2.828 2.828 0 0 0-4-4L41.25 19.75l4 4zm-2.025 2.025-4-4-1.793 1.793 4 4z" opacity=".1"/><path d="m26.69 31.9-9.94-9.94a.5.5 0 0 1 0-.707l4.293-4.293a.5.5 0 0 1 .707 0L23.793 19l-2 2a.5.5 0 1 0 .707.707l2-2 1.793 1.793-2 2a.5.5 0 1 0 .707.707l2-2L28.793 24l-2 2a.5.5 0 1 0 .707.707l2-2 2.19 2.19zM45 40.207l-2 2a.5.5 0 0 1-.707-.707l2-2-1.793-1.793-2 2a.5.5 0 0 1-.707-.707l2-2L40 35.207l-2 2a.5.5 0 0 1-.707-.707l2-2-2.193-2.189-5 5 9.939 9.939a.5.5 0 0 0 .707 0l4.293-4.293a.5.5 0 0 0 0-.707zm-28.223 6.678a.25.25 0 0 0 .338.338l2.085-1.106-1.32-1.32zm3.275-6.185-1.68 3.174 1.756 1.756 3.174-1.68a11.8 11.8 0 0 0 1.077-.655l-3.672-3.672a11.8 11.8 0 0 0-.655 1.077zm17.991-18.743L22.172 37.828a12 12 0 0 0-.866.978l3.888 3.888a12 12 0 0 0 .978-.866l15.871-15.871zm8.525-.525a2.828 2.828 0 0 0-4-4L41.25 18.75l4 4zm-2.025 2.025-4-4-1.793 1.793 4 4z" fill="#fff"/></svg>