<svg viewBox="0 0 64 64" xmlns="http://www.w3.org/2000/svg"><path d="M22.044 51 12 40.956l2.949-2.949 6.642 6.642 11.073-14.762L36 32.39z" opacity=".15"/><path d="M22.044 50 12 39.956l2.949-2.949 6.642 6.642 11.073-14.762L36 31.39z" fill="#fff"/><path d="M12 33h6.018c0-8 6.288-14.15 14.044-14.15s14.013 6.276 14.013 14.056S40 46.963 32 46.963v6.017l.203.02c11.049 0 19.907-9.01 19.907-20.125s-9.006-20.063-20.055-20.063S12 21 12 33z" opacity=".15"/><path d="M12 32h6.018c0-8 6.288-14.15 14.044-14.15s14.013 6.276 14.013 14.056S40 45.963 32 45.963v6.017l.203.02c11.049 0 19.907-9.01 19.907-20.125s-9.006-20.063-20.055-20.063S12 20 12 32z" fill="#ffbe2a"/></svg>