<svg viewBox="0 0 64 64" xmlns="http://www.w3.org/2000/svg"><path d="M50.179 24.698A6.968 6.968 0 0 0 52 20a7 7 0 0 0-7-7c-1.81 0-3.455.693-4.698 1.821C37.771 13.663 34.966 13 32 13s-5.771.663-8.302 1.821A6.968 6.968 0 0 0 19 13a7 7 0 0 0-7 7c0 1.81.693 3.455 1.821 4.698C12.663 27.229 12 30.034 12 33s.663 5.771 1.821 8.302A6.968 6.968 0 0 0 12 46a7 7 0 0 0 7 7c1.81 0 3.455-.693 4.698-1.821C26.229 52.337 29.034 53 32 53s5.771-.663 8.302-1.821A6.968 6.968 0 0 0 45 53a7 7 0 0 0 7-7c0-1.81-.693-3.455-1.821-4.698C51.337 38.771 52 35.966 52 33s-.663-5.771-1.821-8.302zM45 15c2.757 0 5 2.243 5 5a4.967 4.967 0 0 1-.84 2.766 20.07 20.07 0 0 0-6.926-6.926A4.967 4.967 0 0 1 45 15zm-31 5c0-2.757 2.243-5 5-5 1.023 0 1.973.311 2.766.84a20.07 20.07 0 0 0-6.926 6.926A4.967 4.967 0 0 1 14 20zm5 31c-2.757 0-5-2.243-5-5 0-1.023.311-1.973.84-2.766a20.07 20.07 0 0 0 6.926 6.926A4.967 4.967 0 0 1 19 51zm3-18c0-5.523 4.477-10 10-10s10 4.477 10 10-4.477 10-10 10-10-4.477-10-10zm28 13c0 2.757-2.243 5-5 5a4.967 4.967 0 0 1-2.766-.84 20.07 20.07 0 0 0 6.926-6.926c.529.793.84 1.743.84 2.766z" opacity=".1"/><path d="M19 14c2.757 0 5 2.243 5 5s-2.243 5-5 5-5-2.243-5-5 2.243-5 5-5m0-2a7 7 0 1 0 0 14 7 7 0 0 0 0-14zm26 2c2.757 0 5 2.243 5 5s-2.243 5-5 5-5-2.243-5-5 2.243-5 5-5m0-2a7 7 0 1 0 0 14 7 7 0 0 0 0-14zM19 40c2.757 0 5 2.243 5 5s-2.243 5-5 5-5-2.243-5-5 2.243-5 5-5m0-2a7 7 0 1 0 0 14 7 7 0 0 0 0-14zm26 2c2.757 0 5 2.243 5 5s-2.243 5-5 5-5-2.243-5-5 2.243-5 5-5m0-2a7 7 0 1 0 0 14 7 7 0 0 0 0-14z" fill="#fff"/><path d="M32 12c-11.046 0-20 8.954-20 20s8.954 20 20 20 20-8.954 20-20-8.954-20-20-20zm0 30c-5.523 0-10-4.477-10-10s4.477-10 10-10 10 4.477 10 10-4.477 10-10 10z" fill="#f9422a"/><path d="m38.15 51.026-2.752-9.632C34.336 41.78 33.195 42 32 42s-2.336-.22-3.399-.605l-2.752 9.632c1.939.626 4.004.973 6.151.973s4.212-.347 6.15-.974zM22 32c0-1.195.22-2.336.605-3.399l-9.632-2.752C12.347 27.788 12 29.853 12 32s.347 4.212.974 6.15l9.632-2.752A9.92 9.92 0 0 1 22 32zm3.85-19.026 2.752 9.632C29.664 22.22 30.805 22 32 22s2.336.22 3.399.605l2.752-9.632C36.212 12.347 34.147 12 32 12s-4.212.347-6.15.974zM42 32c0 1.195-.22 2.336-.605 3.399l9.632 2.752C51.653 36.212 52 34.147 52 32s-.347-4.212-.974-6.15l-9.632 2.752A9.92 9.92 0 0 1 42 32z" fill="#f2f3f4"/></svg>