<svg viewBox="0 0 64 64" xmlns="http://www.w3.org/2000/svg"><circle cx="36" cy="19" opacity=".1" r="6"/><path d="M50 52H14a2 2 0 0 1-2-2V28h40v22a2 2 0 0 1-2 2z" opacity=".1"/><path d="M50 51H14a2 2 0 0 1-2-2V27h38a2 2 0 0 1 2 2v20a2 2 0 0 1-2 2z" fill="#ffbe2a"/><path d="M12 28h15l-3.828-3.828A4 4 0 0 0 20.343 23H14a2 2 0 0 0-2 2z" fill="#ffbe2a"/><path d="M27.293 38.293 36 47l8.707-8.707-1.414-1.414L37 43.172V13h-2v30.172l-6.293-6.293z" opacity=".1"/><g fill="#fff"><path d="M27.293 37.293 36 46l8.707-8.707-1.414-1.414L37 42.172V12h-2v30.172l-6.293-6.293z"/><path d="M35 25v17.172l-6.293-6.293-1.414 1.414L36 46l8.707-8.707-1.414-1.414L37 42.172V25z"/><circle cx="36" cy="18" r="6"/></g><circle cx="36" cy="18" fill="#24cb7f" r="4"/></svg>