<svg viewBox="0 0 64 64" xmlns="http://www.w3.org/2000/svg"><path d="M51.272 28.137c2.267-6.228-.934-13.142-7.162-15.408s-13.109.931-15.376 7.158.949 13.1 7.177 15.367l-1.767 4.854 10.902-5.144a12.103 12.103 0 0 0 6.226-6.827z" opacity=".15"/><path d="M51.272 27.137c2.267-6.228-.934-13.142-7.162-15.408s-13.109.931-15.376 7.158.949 13.1 7.177 15.367l-1.767 4.854 10.902-5.144a12.103 12.103 0 0 0 6.226-6.827z" fill="#fff"/><circle cx="22" cy="35" opacity=".15" r="6"/><path d="M32 53c0-5.523-4.477-10-10-10s-10 4.477-10 10z" opacity=".15"/><g fill="#d7dbdd"><circle cx="22" cy="34" r="6"/><path d="M32 52c0-5.523-4.477-10-10-10s-10 4.477-10 10z"/></g></svg>