<svg viewBox="0 0 64 64" xmlns="http://www.w3.org/2000/svg"><path d="m23.724 15.447-1.447-2.894a1.001 1.001 0 0 0-.895-.553H13a1 1 0 0 0-1 1v28a1 1 0 0 0 1 1h32a1 1 0 0 0 1-1V17a1 1 0 0 0-1-1H24.618a.998.998 0 0 1-.894-.553z" fill="#ffbe2a"/><path d="M45 42H13a1 1 0 0 1-1-1v1a1 1 0 0 0 1 1h32a1 1 0 0 0 1-1v-1a1 1 0 0 1-1 1z" opacity=".1"/><path d="m29.724 25.447-1.447-2.894a1.001 1.001 0 0 0-.895-.553H19a1 1 0 0 0-1 1v28a1 1 0 0 0 1 1h32a1 1 0 0 0 1-1V27a1 1 0 0 0-1-1H30.618a.998.998 0 0 1-.894-.553z" fill="#fff" opacity=".8"/><path d="M51 52H19a1 1 0 0 1-1-1v1a1 1 0 0 0 1 1h32a1 1 0 0 0 1-1v-1a1 1 0 0 1-1 1z" opacity=".1"/></svg>