<svg viewBox="0 0 64 64" xmlns="http://www.w3.org/2000/svg"><path d="M36 18h16v2H36zm0 14h16v2H36zm0 14h16v2H36z" opacity=".1"/><circle cx="16" cy="19" opacity=".1" r="4"/><circle cx="16" cy="18" fill="#24cb7f" r="4"/><path d="M36 17h16v2H36zm0 14h16v2H36zm0 14h16v2H36z" fill="#bdc3c7"/><circle cx="16" cy="33" opacity=".1" r="4"/><circle cx="16" cy="32" fill="#f9422a" r="4"/><circle cx="16" cy="47" opacity=".1" r="4"/><circle cx="16" cy="46" fill="#ffbe2a" r="4"/><circle cx="28" cy="19" opacity=".1" r="4"/><circle cx="28" cy="18" fill="#ffbe2a" r="4"/><circle cx="28" cy="33" opacity=".1" r="4"/><circle cx="28" cy="32" fill="#24cb7f" r="4"/><circle cx="28" cy="47" opacity=".1" r="4"/><circle cx="28" cy="46" fill="#f9422a" r="4"/></svg>