<svg viewBox="0 0 64 64" xmlns="http://www.w3.org/2000/svg"><path d="M22 36h8v16h-8zm11-3h8v19h-8zm-22 7h8v12h-8zm33 4h8v8h-8z" opacity=".1"/><path d="M22 35h8v16h-8zm11-3h8v19h-8z" fill="#4aa4ec"/><path d="M33 19h8v12h-8z" fill="#ffbe2a"/><path d="M11 39h8v12h-8zm33 4h8v8h-8z" fill="#4aa4ec"/><path d="m53.414 37.586-7.782-7.782A10.94 10.94 0 0 0 48 23c0-6.075-4.925-11-11-11s-11 4.925-11 11 4.925 11 11 11c2.055 0 3.971-.574 5.617-1.555l7.969 7.969zM29 23a8 8 0 1 1 16 0 8 8 0 0 1-16 0z" opacity=".1"/><path d="m53.414 36.586-7.782-7.782A10.94 10.94 0 0 0 48 22c0-6.075-4.925-11-11-11s-11 4.925-11 11 4.925 11 11 11c2.055 0 3.971-.574 5.617-1.555l7.969 7.969zM29 22a8 8 0 1 1 16 0 8 8 0 0 1-16 0z" fill="#fff"/></svg>