<svg viewBox="0 0 64 64" xmlns="http://www.w3.org/2000/svg"><path d="M46 37a8 8 0 0 0 8-8c0-3.731-2.558-6.856-6.013-7.741.002-.087.013-.172.013-.259 0-5.523-4.477-10-10-10-4.659 0-8.563 3.191-9.673 7.504A6.967 6.967 0 0 0 24 17a7 7 0 0 0-7 7l.001.025c-.166-.012-.332-.025-.501-.025a6.5 6.5 0 1 0 0 13z" opacity=".12"/><path d="M46 36a8 8 0 0 0 8-8c0-3.731-2.558-6.856-6.013-7.741.002-.087.013-.172.013-.259 0-5.523-4.477-10-10-10-4.659 0-8.563 3.191-9.673 7.504A6.967 6.967 0 0 0 24 16a7 7 0 0 0-7 7l.001.025c-.166-.012-.332-.025-.501-.025a6.5 6.5 0 1 0 0 13z" fill="#fff"/><path d="M47 52.857A2.142 2.142 0 0 1 44.857 55H19.143A2.142 2.142 0 0 1 17 52.857V27.143c0-1.184.959-2.143 2.143-2.143h25.714c1.184 0 2.143.959 2.143 2.143z" opacity=".12"/><path d="M47 51.857A2.142 2.142 0 0 1 44.857 54H19.143A2.142 2.142 0 0 1 17 51.857V26.143c0-1.184.959-2.143 2.143-2.143h25.714c1.184 0 2.143.959 2.143 2.143z" fill="#f9422a"/><path d="M29 49h-1c-2.206 0-4-1.794-4-4v-2.766l-2.555-1.703a.998.998 0 0 1 0-1.663L24 37.164V35c0-2.206 1.794-4 4-4h1a1 1 0 1 1 0 2h-1c-1.103 0-2 .897-2 2v2.7c0 .334-.167.646-.445.832L23.803 39.7l1.752 1.168A1 1 0 0 1 26 41.7V45c0 1.103.897 2 2 2h1a1 1 0 1 1 0 2zm7 0h-1a1 1 0 1 1 0-2h1c1.103 0 2-.897 2-2v-3.3c0-.334.167-.646.445-.832l1.752-1.168-1.752-1.168A1.001 1.001 0 0 1 38 37.7V35c0-1.103-.897-2-2-2h-1a1 1 0 1 1 0-2h1c2.206 0 4 1.794 4 4v2.164l2.555 1.703a1.003 1.003 0 0 1 0 1.665L40 42.235V45c0 2.206-1.794 4-4 4z" opacity=".05"/><path d="M29 48h-1c-2.206 0-4-1.794-4-4v-2.766l-2.555-1.703a.998.998 0 0 1 0-1.663L24 36.164V34c0-2.206 1.794-4 4-4h1a1 1 0 1 1 0 2h-1c-1.103 0-2 .897-2 2v2.7c0 .334-.167.646-.445.832L23.803 38.7l1.752 1.168A1 1 0 0 1 26 40.7V44c0 1.103.897 2 2 2h1a1 1 0 1 1 0 2zm7 0h-1a1 1 0 1 1 0-2h1c1.103 0 2-.897 2-2v-3.3c0-.334.167-.646.445-.832l1.752-1.168-1.752-1.168A1.001 1.001 0 0 1 38 36.7V34c0-1.103-.897-2-2-2h-1a1 1 0 1 1 0-2h1c2.206 0 4 1.794 4 4v2.164l2.555 1.703a1.003 1.003 0 0 1 0 1.665L40 41.235V44c0 2.206-1.794 4-4 4z" fill="#fff"/></svg>