<svg viewBox="0 0 64 64" xmlns="http://www.w3.org/2000/svg"><path d="m40 27-16-6-12 6v26l12-6 16 6 12-6V21z" opacity=".1"/><path d="m40 52 12-6V20l-12 6zm-28 0 12-6V20l-12 6z" fill="#fff"/><path d="m40 52-16-6V20l16 6z" fill="#e5e7e9"/><path d="M16.485 23.758C18.213 29.345 24 36.429 24 36.429s6.399-7.834 7.748-13.523L24 20z" opacity=".1"/><path d="M24 12c-5.302 0-8 4.213-8 8 0 5.639 8 15.429 8 15.429s8-9.79 8-15.429c0-3.787-2.698-8-8-8zm0 11.736a3.737 3.737 0 1 1 0-7.473 3.737 3.737 0 0 1 0 7.473z" fill="#f9422a"/></svg>