<svg viewBox="0 0 64 64" xmlns="http://www.w3.org/2000/svg"><circle cx="41" cy="41" fill="#f9422a" r="11"/><path d="M41 31c5.906 0 10.711 4.659 10.975 10.5.007-.167.025-.331.025-.5 0-6.075-4.925-11-11-11s-11 4.925-11 11c0 .169.018.333.025.5C30.289 35.659 35.094 31 41 31z" opacity=".1"/><circle cx="23" cy="23" fill="#24cb7f" r="11"/><path d="M23 13c5.906 0 10.711 4.659 10.975 10.5.007-.167.025-.331.025-.5 0-6.075-4.925-11-11-11s-11 4.925-11 11c0 .169.018.333.025.5C12.289 17.659 17.094 13 23 13z" opacity=".1"/><path d="m29 18-7 10-5-5m29 13L36 46m10 0L36 36" fill="none" stroke="#fff" stroke-miterlimit="10" stroke-width="2.571"/></svg>