<svg viewBox="0 0 64 64" xmlns="http://www.w3.org/2000/svg"><path d="m51.531 16.606-4.137-4.137a1.6 1.6 0 0 0-2.263 0L44 13.6l2.136 2.136-4.458 3.086 3.5 3.5 3.086-4.458L50.4 20l1.131-1.131a1.6 1.6 0 0 0 0-2.263z" fill="#3d566e" opacity=".9"/><path d="M54 35.165v-4.331c0-.483-.346-.897-.821-.984l-2.952-.537a1 1 0 0 1-.785-.748 18.02 18.02 0 0 0-13.008-13.008 1.001 1.001 0 0 1-.748-.785l-.537-2.952a1 1 0 0 0-.984-.82h-4.331c-.483 0-.897.346-.984.821l-.537 2.953a.998.998 0 0 1-.746.784 17.903 17.903 0 0 0-4.76 1.979.998.998 0 0 1-1.083-.027l-2.474-1.713a1 1 0 0 0-1.276.115l-3.062 3.062a1 1 0 0 0-.115 1.276l1.713 2.474a.998.998 0 0 1 .027 1.083 17.89 17.89 0 0 0-1.979 4.76.998.998 0 0 1-.784.746l-2.953.537a1.001 1.001 0 0 0-.821.985v4.331c0 .483.346.897.821.984l2.953.537c.387.07.687.365.784.746a17.87 17.87 0 0 0 1.979 4.76.998.998 0 0 1-.027 1.083l-1.713 2.474a1 1 0 0 0 .115 1.276l3.062 3.062a1 1 0 0 0 1.276.115l2.474-1.713a.998.998 0 0 1 1.083-.027 17.89 17.89 0 0 0 4.76 1.979.998.998 0 0 1 .746.784l.537 2.953c.087.475.501.821.985.821h4.331c.483 0 .897-.346.984-.821l.537-2.953a.998.998 0 0 1 .746-.784 17.903 17.903 0 0 0 4.76-1.979.998.998 0 0 1 1.083.027l2.474 1.713a1 1 0 0 0 1.276-.115l3.062-3.062a1 1 0 0 0 .115-1.276l-1.713-2.474a.998.998 0 0 1-.027-1.083 17.89 17.89 0 0 0 1.979-4.76.998.998 0 0 1 .784-.746l2.953-.537c.475-.087.821-.501.821-.985z" opacity=".12"/><path d="M54 34.165v-4.331c0-.483-.346-.897-.821-.984l-2.952-.537a1 1 0 0 1-.785-.748 18.02 18.02 0 0 0-13.008-13.008 1.001 1.001 0 0 1-.748-.785l-.537-2.952a1 1 0 0 0-.984-.82h-4.331c-.483 0-.897.346-.984.821l-.537 2.953a.998.998 0 0 1-.746.784 17.903 17.903 0 0 0-4.76 1.979.998.998 0 0 1-1.083-.027l-2.474-1.713a1 1 0 0 0-1.276.115l-3.062 3.062a1 1 0 0 0-.115 1.276l1.713 2.474a.998.998 0 0 1 .027 1.083 17.89 17.89 0 0 0-1.979 4.76.998.998 0 0 1-.784.746l-2.953.537a1.001 1.001 0 0 0-.821.985v4.331c0 .483.346.897.821.984l2.953.537c.387.07.687.365.784.746a17.87 17.87 0 0 0 1.979 4.76.998.998 0 0 1-.027 1.083l-1.713 2.474a1 1 0 0 0 .115 1.276l3.062 3.062a1 1 0 0 0 1.276.115l2.474-1.713a.998.998 0 0 1 1.083-.027 17.89 17.89 0 0 0 4.76 1.979.998.998 0 0 1 .746.784l.537 2.953c.087.475.501.821.985.821h4.331c.483 0 .897-.346.984-.821l.537-2.953a.998.998 0 0 1 .746-.784 17.903 17.903 0 0 0 4.76-1.979.998.998 0 0 1 1.083.027l2.474 1.713a1 1 0 0 0 1.276-.115l3.062-3.062a1 1 0 0 0 .115-1.276l-1.713-2.474a.998.998 0 0 1-.027-1.083 17.89 17.89 0 0 0 1.979-4.76.998.998 0 0 1 .784-.746l2.953-.537c.475-.087.821-.501.821-.985z" fill="#fff"/><circle cx="32" cy="32" fill="#3d566e" r="15"/><path d="M32 18c8.115 0 14.709 6.449 14.975 14.5.005-.167.025-.331.025-.5 0-8.284-6.716-15-15-15s-15 6.716-15 15c0 .169.02.333.025.5C17.291 24.449 23.885 18 32 18z" opacity=".16"/><path d="M40.707 40.293 34.7 34.286c.187-.391.3-.824.3-1.286a3 3 0 1 0-3 3c.462 0 .895-.113 1.286-.3l6.007 6.007a.997.997 0 0 0 1.414 0 .999.999 0 0 0 0-1.414z" opacity=".16"/><path d="M32 20.214V32l8.334 8.334A11.748 11.748 0 0 0 43.786 32c0-6.509-5.277-11.786-11.786-11.786z" fill="#f9422a" opacity=".9"/><g fill="#fff"><path d="M40 41a.997.997 0 0 1-.707-.293l-8-8a.999.999 0 1 1 1.414-1.414l8 8A.999.999 0 0 1 40 41z"/><circle cx="32" cy="32" r="3"/></g></svg>