<svg viewBox="0 0 64 64" xmlns="http://www.w3.org/2000/svg"><path d="M52 46c0 1.1-.9 2-2 2H14c-1.1 0-2-.9-2-2V20c0-1.1.9-2 2-2h36c1.1 0 2 .9 2 2z" opacity=".1"/><path d="M52 45c0 1.1-.9 2-2 2H14c-1.1 0-2-.9-2-2V19c0-1.1.9-2 2-2h36c1.1 0 2 .9 2 2z" fill="#fff"/><path d="M15 21h14v4H15zm16 0h12v4H31zm14 6h4v4h-4zm0-6h4v4h-4z" fill="#d7dbdd"/><path d="M15 21h14v1H15zm16 0h12v1H31zm14 0h4v1h-4z" opacity=".05"/><path d="M31 27h12v4H31zm-16 0h14v4H15zm30 6h4v4h-4z" fill="#d7dbdd"/><path d="M31 33h12v4H31z" fill="#ffbe2a"/><path d="M15 33h14v4H15zm30 6h4v4h-4zm-14 0h12v4H31zm-16 0h14v4H15z" fill="#d7dbdd"/><path d="M15 27h14v1H15zm16 0h12v1H31zm14 0h4v1h-4zm-30 6h14v1H15zm16 0h12v1H31zm14 0h4v1h-4zm-30 6h14v1H15zm16 0h12v1H31zm14 0h4v1h-4z" opacity=".05"/></svg>