<svg xmlns="http://www.w3.org/2000/svg" viewBox="0 0 24 24"><g fill="none" fill-rule="evenodd"><path fill="#027e44" d="M0 19.002A2 2 0 0 0 2.005 21h19.99A2.004 2.004 0 0 0 24 19.002V15H0z"/><path fill="#fcfbfa" d="M0 9h24V4.998A2.001 2.001 0 0 0 21.995 3H2.005A2.004 2.004 0 0 0 0 4.998z"/><path fill="#d10a29" d="M0 9h24v6H0z"/><path fill="#d10a29" d="M0 19.005C0 20.107.887 21 1.998 21H8V3H1.998A1.996 1.996 0 0 0 0 4.995z"/><path fill="#fcfbfa" d="M4 7.666 3.11 9l.462-1.546L2 7.572l1.466-.593-1.07-1.187 1.366.806L4 5l.238 1.598 1.366-.806-1.07 1.187L6 7.572l-1.572-.118L4.89 9z"/><path fill="#fcfbfa" d="M4 7.666 3.11 9l.462-1.546L2 7.572l1.466-.593-1.07-1.187 1.366.806L4 5l.238 1.598 1.366-.806-1.07 1.187L6 7.572l-1.572-.118L4.89 9z"/><rect width="23" height="17" x=".5" y="3.5" stroke="#100f0e" opacity=".1" rx="2"/></g></svg>
