<svg xmlns="http://www.w3.org/2000/svg" xmlns:xlink="http://www.w3.org/1999/xlink" viewBox="0 0 24 24"><defs><path id="a" d="M15 13.5V10l1.5.7L18 10l1.5.7L21 10v3.5c0 2.1-3 3.5-3 3.5s-3-1.4-3-3.5"/><mask id="b" fill="#fff"><use xlink:href="#a" fill-rule="evenodd"/></mask></defs><g fill="none" fill-rule="evenodd"><rect width="24" height="18" y="3" fill="#001b6b" rx="2"/><path fill="#c74634" d="M7 3v4h5v2H7v4H5V9H0V7h5V3z"/><path fill="#fff" d="M1 5h1v1h1V5h1V3h1v4H0V6h1zm2-1v1H2V4zM1 4v1H0V4zm1-1v1H1V3z"/><path fill="#c74634" d="M3 5v1H2V5zM2 4v1H1V4z"/><path fill="#c74634" d="M0 3h1v1H0z" opacity=".5"/><path fill="#fff" d="M11 5h-1v1H9V5H8V3H7v4h5V6h-1zM9 4v1h1V4zm2 0v1h1V4zm-1-1v1h1V3z"/><path fill="#c74634" d="M9 5v1h1V5zm1-1v1h1V4zm1-1v1h1V3z"/><path fill="#fff" d="M1 11h1v-1h1v1h1v2h1V9H0v1h1zm2 1v-1H2v1zm-2 0v-1H0v1zm1 1v-1H1v1z"/><path fill="#c74634" d="M3 11v-1H2v1zm-1 1v-1H1v1zm-1 1v-1H0v1z"/><path fill="#fff" d="M11 11h-1v-1H9v1H8v2H7V9h5v1h-1zm-2 1v-1h1v1zm2 0v-1h1v1zm-1 1v-1h1v1z"/><path fill="#c74634" d="M9 11v-1h1v1zm1 1v-1h1v1zm1 1v-1h1v1z"/><path fill="#fcfbfa" d="M15 13.5V10l1.5.7L18 10l1.5.7L21 10v3.5c0 2.1-3 3.5-3 3.5s-3-1.4-3-3.5"/><use xlink:href="#a" fill="#fcfbfa"/><path fill="#eea357" d="M17 13v1h-1v-1zm3 0v1h-1v-1zm-1-1v1h-2v-1z" mask="url(#b)"/><rect width="23" height="17" x=".5" y="3.5" stroke="#100f0e" opacity=".1" rx="2"/><path fill="#82d4ff" d="M16 15h4v1h-4zm1 1h2v1h-2z"/></g></svg>