<svg xmlns="http://www.w3.org/2000/svg" viewBox="0 0 24 24"><linearGradient id="e" x1="49.88%" x2="51.24%" y1="52.96%" y2="19.509%"><stop offset="0" stop-color="#fff"/><stop offset="1" stop-color="#1da8d1"/></linearGradient><mask id="a" fill="#fff"><path fill-rule="evenodd" d="M0 .008h.802v1H0z"/></mask><mask id="b" fill="#fff"><path fill-rule="evenodd" d="M.005.001H.48v2.094H.005z"/></mask><mask id="c" fill="#fff"><path fill-rule="evenodd" d="M.015.001H.49v2.094H.015z"/></mask><mask id="d" fill="#fff"><path fill-rule="evenodd" d="M0 9.959h8.29V.01H0z"/></mask><mask id="f" fill="#fff"><path fill-rule="evenodd" d="M.004 2.357c0 1.298.817 2.35 1.826 2.35 1.009 0 1.826-1.052 1.826-2.35S2.84.007 1.83.007C.821.006.004 1.058.004 2.356"/></mask><mask id="g" fill="#fff"><path fill-rule="evenodd" d="M.448.175C.425.191.334.231.286.255.24.278.237.325.254.334a.989.989 0 0 1 .133.088C.395.434.341.458.334.462.328.465.331.48.331.48.39.56.612.564.577.59.54.613.475.61.52.654c.03.03.106.09.153.114C.74.803.736.832.75.847c.03.03.013.02.054.04S.893.921.86.935C.827.95.786.944.747.96.71.977.733.98.676.99.618.997.604.997.59.997.576.997.585.991.55.991H.486A.99.99 0 0 1 .274.956l.209.055c.044.011.041.006.077.017.036.011.069.014.094.022.024.009.04.02.06.037.02.017.022.023.036.025.014.003.052.017.014.031-.039.014-.014.023-.055.023-.042 0-.064.003-.064.003S.6 1.177.58 1.17c-.02-.004-.045-.02-.045-.004 0 .017.008.022-.016.022-.025 0-.06-.014-.06-.014s-.017.012-.059.014l-.039.002-.04.001a.31.31 0 0 1-.038 0c-.016 0-.023-.001-.029.006-.008.011.044.025-.03.014C.15 1.2.177 1.2.257 1.225s.022 0 .118.028c.097.028.03.014.108.04.077.025.066.005.102.028.036.022.047.016.058.028.01.01.024-.006.03.022.005.028.036.056.01.062-.024.006-.021.008-.054.006-.033-.003-.014-.009-.063-.012L.48 1.422s-.033.003 0 .02c.033.016-.003.033-.033.045a.37.37 0 0 1-.066.016l-.05.014c-.052.015-.04.02-.074.034-.033.014-.044.014-.08.023-.036.008-.033.005-.063.011-.03.006-.05.008-.069.011C.025 1.6.012 1.6.012 1.6s.063.203.223.405c.16.203.529.594.909.633.38.04.65.025.856-.093.207-.118.487-.298.67-.599.18-.3.194-.344.194-.344s-.038-.017-.067-.01c-.029.006-.029-.054-.073-.054s-.041.02-.096-.005c-.055-.026-.039-.034-.083-.037-.044-.003-.13-.04-.13-.04s-.063-.016-.107-.02a.358.358 0 0 1-.129-.03c-.069-.025-.09-.023-.113-.031-.022-.008-.047-.014-.063-.025-.017-.012-.058-.031-.006-.07.053-.04.072-.063.091-.074.02-.011.06-.036.096-.04.036-.002.039-.01.091-.01.053 0-.027-.023-.08-.02-.052.003-.052.011-.099.011-.046 0-.019-.003-.137.006-.119.008-.047 0-.138-.003-.09-.003-.071.003-.151-.014s-.047-.006-.133-.017c-.085-.011-.085-.014-.123-.034-.039-.02-.064-.025-.086-.03-.022-.006-.038-.012-.016-.029s.106-.081.125-.093a.205.205 0 0 1 .026-.01.357.357 0 0 1-.108 0C1.269.91 1.246.903 1.21.895c-.036-.008-.072-.03-.163-.033C.957.86.987.851.948.822.91.796.885.779.874.762a.108.108 0 0 0-.06-.048C.733.688.658.63.67.617.69.595.717.583.684.555.65.527.459.495.406.477S.407.468.41.467C.422.463.45.456.47.441.496.423.47.412.44.395.396.373.323.34.29.316.256.291.326.249.395.218c.07-.03.244-.18.27-.204L.664.005S.472.16.448.175m1.135.783-.015.011c.062-.042.125-.08.134-.1-.002 0-.06.045-.12.089M.325.999.297.992l.027.007"/></mask><mask id="h" fill="#fff"><path fill-rule="evenodd" d="M0 9.959h8.29V.01H0z"/></mask><g fill="none" fill-rule="evenodd"><path fill="#ffde00" d="M0 11h24V4.998A2.001 2.001 0 0 0 21.995 3H2.005A1.997 1.997 0 0 0 0 4.998z"/><path fill="#e93425" d="M0 18.995C0 20.102.897 21 2.005 21h19.99A2.003 2.003 0 0 0 24 18.995V16H0z"/><path fill="#004ca8" d="M0 11h24v5H0z"/><path fill="#b1babf" d="M8.653 15.32a.014.014 0 0 1-.002.004s-.065.035-.136.04c0 0-.064.204-.14.267a.923.923 0 0 1 .27-.12c.001-.057.011-.124.047-.146h.005a.23.23 0 0 0-.044-.045m.487-.51.076.091-.482.463h-.03l-.055-.05.003-.04zm.147-5.782.202.195-.052.022-.199-.192z"/><path fill="#034ea2" d="m10.025 11.46.263.266.124-.305.023-.187c-.018-.535-.009-1.06-.009-1.06l.078.068-.296-.302-.174-.175s-.003 1.125-.01 1.694"/><path fill="#ed1c24" d="m10.436 11.234.261-.794-.27-.267s-.01.526.009 1.061"/><path fill="#fd0" d="m10.034 9.765.174.175c-.317-.325-.688-.705-.876-.9-.035-.036-.043.775-.04 1.68l.733.74c.006-.57.01-1.695.01-1.695"/><path fill="#b1babf" d="m9.24 8.943-.005-.004s-.04-.083-.044-.174c0 0-.242-.087-.315-.185.07.114.133.3.137.348.068.003.148.018.172.064l.001.007a.285.285 0 0 0 .054-.056"/><path fill="#ed1c24" d="m9.43 9.17-.062-.064-.024.083c-.025.092-.005.403-.02.51-.013.107-.038.253-.04.316v.003c-.002.075.026.166.026.166s.043.023.05.003c.008-.02.012-.175.012-.207s.009-.05.036-.204.014-.241.004-.334c-.011-.094.018-.272.018-.272"/><path fill="#034ea2" d="M9.313 9.038s-.068.19-.065.336c.003.146-.02.348-.022.379-.002.022-.028.14-.03.23-.001.031.006.028.013.047 0 0 .047.03.074-.011v-.004c.003-.063.028-.21.042-.316.014-.107-.006-.417.02-.51a.721.721 0 0 1 .023-.083l.006-.02z"/><path fill="#ed1c24" d="M9.498 9.005a2.026 2.026 0 0 1-.176.038l-.01.002c.154.003.216.098.216.098l.052-.065c.047-.078-.04-.087-.082-.073"/><path fill="#ed1c24" d="m9.312 9.045.004.008c.018.034.094.162.18.115l.032-.025s-.062-.095-.216-.098"/><path fill="#034ea2" d="M9.325 9.045s.152-.086.173-.085c.022 0 .024.036.03.057.005.021-.001.047-.076.044-.076-.002-.054-.01-.127-.016"/><path fill="#034ea2" d="M9.565 8.945c-.023-.107-.13-.084-.13-.084-.106.018-.119.149-.12.183v.008c.248-.216.213.005.213.005a.424.424 0 0 0 .037-.112"/><path fill="#b1babf" d="M9.313 8.692a.049.049 0 0 0-.01-.01.363.363 0 0 1-.058.264.287.287 0 0 1-.055.056.301.301 0 0 1-.303.035l.005.004a.456.456 0 0 0 .028.018c.171.098.361.061.425-.084a.31.31 0 0 0-.032-.283"/><path fill="#e8b909" d="M9.241 9.947a.05.05 0 0 1 .05.051.05.05 0 0 1-.05.051.05.05 0 0 1-.05-.05.05.05 0 0 1 .05-.052m.062.346c-.07-.003-.11-.007-.155-.01.006-.099.014-.236.092-.232.076.005.07.143.063.242"/><path fill="#e8b909" d="M9.329 10.09a.05.05 0 0 1 .05.052c0 .028-.022.05-.05.05s-.05-.022-.05-.05a.05.05 0 0 1 .05-.051m.079.341c-.07.002-.11 0-.155 0 0-.1 0-.237.077-.237s.078.138.078.237"/><path fill="#b1babf" d="M15.617 15.32a.014.014 0 0 0 .003.004s.065.035.136.04c0 0 .064.204.14.267a.923.923 0 0 0-.27-.12c-.002-.057-.012-.124-.048-.146h-.005a.23.23 0 0 1 .044-.045m-.487-.51-.076.091.483.463h.03l.054-.05-.002-.04zm-.147-5.782-.202.195.052.022.2-.192z"/><path fill="#034ea2" d="m14.246 11.46-.264.266-.123-.305-.024-.187c.019-.535.01-1.06.01-1.06l-.078.068.295-.302.175-.175s.003 1.125.009 1.694"/><path fill="#ed1c24" d="m13.835 11.234-.262-.794.271-.267s.01.526-.009 1.061"/><path fill="#fd0" d="m14.236 9.765-.174.175.877-.9c.035-.036.043.775.039 1.68l-.732.74c-.006-.57-.01-1.695-.01-1.695"/><path fill="#b1babf" d="m15.03 8.943.005-.004s.04-.083.045-.174c0 0 .242-.087.315-.185-.07.114-.133.3-.137.348-.068.003-.148.018-.173.064v.007a.285.285 0 0 1-.055-.056"/><path fill="#ed1c24" d="m14.84 9.17.063-.064.023.083c.025.092.006.403.02.51.013.107.038.253.04.316l.001.003c.001.075-.026.166-.026.166s-.044.023-.051.003c-.007-.02-.011-.175-.011-.207s-.01-.05-.036-.204-.015-.241-.004-.334c.01-.094-.018-.272-.018-.272"/><path fill="#034ea2" d="M14.957 9.038s.068.19.066.336c-.003.146.019.348.022.379.002.022.028.14.03.23 0 .031-.007.028-.014.047 0 0-.047.03-.074-.011v-.004c-.003-.063-.028-.21-.041-.316-.014-.107.005-.417-.02-.51a2.054 2.054 0 0 0-.023-.083l-.007-.02z"/><path fill="#ed1c24" d="M14.773 9.005c.034.012.142.032.176.038l.01.002c-.155.003-.217.098-.217.098l-.052-.065c-.047-.078.041-.087.083-.073"/><path fill="#ed1c24" d="m14.959 9.045-.004.008c-.019.034-.094.162-.18.115l-.033-.025s.062-.095.217-.098"/><path fill="#034ea2" d="M14.946 9.045s-.153-.086-.174-.085c-.021 0-.024.036-.029.057-.005.021 0 .047.076.044.075-.002.053-.01.127-.016"/><path fill="#034ea2" d="M14.706 8.945c.023-.107.13-.084.13-.084.105.018.118.149.12.183v.008c-.248-.216-.214.005-.214.005a.425.425 0 0 1-.036-.112"/><path fill="#b1babf" d="M14.958 8.692a.049.049 0 0 1 .01-.01.363.363 0 0 0 .058.264c.016.022.034.04.054.056.082.065.196.08.304.035l-.006.004a.463.463 0 0 1-.028.018c-.17.098-.36.061-.425-.084a.31.31 0 0 1 .033-.283"/><path fill="#e8b909" d="M15.03 9.947a.05.05 0 0 0-.05.051.05.05 0 0 0 .05.051.05.05 0 0 0 .05-.05.05.05 0 0 0-.05-.052m-.063.346c.07-.003.11-.007.156-.01-.006-.099-.014-.236-.092-.232-.077.005-.07.143-.064.242"/><path fill="#e8b909" d="M14.942 10.09a.05.05 0 0 0-.05.052c0 .028.023.05.05.05a.05.05 0 0 0 0-.101m-.08.341c.071.002.11 0 .156 0 0-.1 0-.237-.078-.237-.077 0-.078.138-.078.237"/><path fill="#39b54a" d="M10.057 10.163s-.01-.197-.002-.218c.008-.022.176-.155.125-.49 0 0-.033-.112-.016-.14 0 0-.146.283-.158.368a.919.919 0 0 0 .017.256c.008.033.021.124.021.124m.183-.126c0-.072.01-.113.067-.157.05-.039.115-.057.136-.12-.011.02-.007.05-.012.073a.405.405 0 0 1-.03.086.694.694 0 0 1-.07.115"/><path fill="#39b54a" d="M9.978 10.167a.38.38 0 0 1 .192-.205.6.6 0 0 1 .218-.046c.045-.003.087-.003.131-.018.032-.01.087-.025.108-.053-.127.072-.2.215-.338.273-.108.046-.252.023-.348.099m.72-.552c.024-.028.016-.107.028-.146.017-.049.054-.084.075-.13-.02.045-.002.107-.018.154-.017.054-.059.099-.088.146m-.746 1.483c.053.081.115.211.044.302-.015-.024-.017-.069-.042-.085-.017-.011-.05-.006-.071-.015-.057-.025-.046-.088-.084-.119l-.01-.023.15-.075zm-.238-.235c.024-.03.03-.083.052-.119a.25.25 0 0 1 .118-.104.573.573 0 0 1 .176-.035c.057-.002.125.023.174.018-.101.038-.226.043-.32.102a.915.915 0 0 0-.17.157c-.04.045-.05.095-.072.148m.285-.304c.032-.092.077-.085.118-.1"/><path fill="#39b54a" d="M9.635 11.154c.013-.019.02-.042.03-.063.016-.029.036-.053.055-.08.039-.053.076-.1.124-.146a.344.344 0 0 1 .152-.083c.053-.013.145 0 .184-.04-.029.036-.042.08-.076.114-.049.05-.1.106-.163.142a.683.683 0 0 1-.161.068c-.046.01-.125.01-.15.059a.021.021 0 0 1 .005.006.16.16 0 0 0 .024-.02m.717-1.198c.041-.058.09-.1.146-.145.037-.03.066-.07.111-.089.12-.05.251.046.373.044-.053.024-.1.058-.157.073a.708.708 0 0 1-.173.024c-.104 0-.243.002-.303.108m-.476.62c.05-.01.067-.098.08-.137.019-.053.034-.127.067-.172.02-.03.062-.053.092-.074a.19.19 0 0 1 .1-.045c.06-.01.124-.016.185-.016.055 0 .118.008.169-.018a.334.334 0 0 0-.146.112c-.053.071-.087.136-.166.187-.07.046-.158.068-.238.092-.046.015-.122.031-.133.085"/><path fill="#39b54a" d="M9.823 10.684c.038-.003.056-.051.068-.072.016-.03.031-.07.058-.094.018-.015.05-.026.074-.036a.173.173 0 0 1 .08-.02c.045 0 .094 0 .14.004.042.003.09.012.13 0a.259.259 0 0 0-.116.055c-.044.037-.073.071-.136.095-.056.022-.123.028-.186.037-.035.005-.094.01-.105.04m-.246.537s-.32-.348-.148-.779c0 0 .005.12.016.135.01.015.187.288.162.524-.025.236-.013.14-.013.14zm.541-1.411s.077-.178.093-.194c.016-.016.225-.054.325-.374 0 0 .019-.115.046-.13 0 0-.254.18-.301.25a.882.882 0 0 0-.096.234 3.2 3.2 0 0 1-.035.12m-.442.211s.012-.11.007-.123c-.005-.012-.126-.087-.08-.276 0 0 .027-.063.015-.078 0 0 .1.16.107.207a.405.405 0 0 1-.019.144.98.98 0 0 0-.018.07"/><path fill="#39b54a" d="M9.703 10.428s.012-.228.022-.252c.01-.024.184-.158.17-.55 0 0-.019-.133 0-.162 0 0-.168.308-.189.404a1.32 1.32 0 0 0-.011.297c.004.04.007.145.007.145m-.011-.123s-.063-.108-.084-.168a.395.395 0 0 0-.068-.127c-.013-.01.14.08.15.106m.012.547s.018-.236.122-.298c0 0 .102-.052.145-.093 0 0 .06-.086.023-.032-.039.055-.064.358-.066.377a.645.645 0 0 1-.112.223.997.997 0 0 0-.12.174c-.015.03-.027.114-.027.114"/><path fill="#ffdf4f" d="M9.865 10.043c-.002.012.015.019.027.012l.001-.009c.016.005.051.005.031-.019.015-.002.038-.016.018-.028.011-.012.012-.032 0-.043l-.007.005c0-.014-.013-.02-.027-.017v.008a.026.026 0 0 0-.03-.001l.005.005c-.009-.001-.013.003-.02.004.001.002.001.01.003.012.002 0 .002 0 0 0a.027.027 0 0 0-.019.02l.012.005c-.019.005-.018.021-.002.027.002 0 .002 0 0 0-.018.016.013.02.024.006"/><path fill="#de2126" d="M9.885 9.984c.03.025.014.094.073.1.012-.04.02-.053.027-.094-.017 0-.087.013-.048.03"/><path fill="#ffdf4f" d="M9.894 10.186c-.003.012.014.019.026.012l.001-.009c.016.005.051.005.031-.019.015-.002.038-.016.018-.028.011-.012.012-.032 0-.043l-.007.005c0-.014-.013-.02-.027-.017v.008a.026.026 0 0 0-.03-.001l.005.005c-.009-.001-.013.003-.02.004.001.002.001.01.003.012.002 0 .002 0 0 0a.027.027 0 0 0-.018.02l.01.005c-.017.005-.017.021-.001.028.002 0 .002 0 0 0-.018.016.013.02.024.006"/><path fill="#de2126" d="M9.914 10.126c.03.024.014.094.073.1.012-.04.021-.054.027-.095-.017 0-.087.014-.047.03"/><path fill="#39b54a" d="M10.114 9.866c.09-.044.113-.148.196-.197.053-.033.117-.042.178-.054.043-.008.1-.016.126-.058-.038.048-.082.084-.125.126a.36.36 0 0 1-.146.1c-.047.014-.097.008-.143.025-.04.014-.062.046-.095.07z"/><path fill="#ffdf4f" d="M10.136 10.086c.006.019.024.025.042.022l.003-.009c.022.01.044-.006.029-.028.015-.003.017-.015.01-.028h-.011c.026-.035-.058-.06-.058-.022-.016-.001-.037.01-.02.022-.016.009-.02.035.002.04"/><path fill="#de2126" d="M10.168 10.075c.005.203.194-.111.002-.01.003.017.022.014.027.023"/><path fill="#ffdf4f" d="M10.318 10.235c.007.019.024.025.042.022l.004-.009c.022.01.043-.006.028-.028.015-.003.017-.015.01-.028h-.01c.026-.035-.058-.06-.06-.022-.015-.001-.036.01-.018.022-.016.009-.02.035.001.04"/><path fill="#de2126" d="M10.35 10.224c.005.203.194-.111.003-.01.003.017.021.014.026.023"/><path fill="#ffdf4f" d="M10.206 10.32c.006.018.024.024.042.02l.003-.008c.022.01.044-.006.028-.029.016-.002.018-.014.011-.027h-.011c.026-.035-.058-.06-.059-.022-.015-.001-.036.01-.019.022-.016.008-.02.035.002.04"/><path fill="#de2126" d="M10.238 10.308c.004.202.193-.112.002-.01.003.016.022.013.027.023"/><path fill="#ffdf4f" d="M10.057 10.332c.006.018.024.024.042.02l.003-.008c.023.01.044-.005.029-.028.015-.003.017-.015.01-.027l-.01-.002c.026-.033-.059-.06-.06-.021-.015-.001-.036.01-.018.022-.017.009-.02.035 0 .04"/><path fill="#de2126" d="M10.09 10.32c.004.203.193-.111.001-.01.003.017.022.014.027.023"/><path fill="#ffdf4f" d="M9.944 10.459c.007.018.024.024.042.02l.004-.008c.022.011.044-.005.028-.028.016-.002.018-.015.011-.027l-.011-.001c.026-.034-.058-.06-.059-.022-.016 0-.036.01-.019.022-.016.009-.02.035.001.04"/><path fill="#de2126" d="M9.977 10.448c.004.202.193-.112.002-.01.003.016.022.013.027.022"/><path fill="#ffdf4f" d="M10.503 10.021c.007.019.024.025.042.021l.004-.008c.022.01.043-.006.028-.028.015-.003.017-.015.01-.028h-.01c.026-.035-.058-.06-.06-.022-.015-.001-.036.01-.018.022-.016.009-.02.035.001.04"/><path fill="#de2126" d="M10.535 10.01c.005.202.194-.112.003-.01.003.016.021.013.026.023"/><path fill="#ffdf4f" d="M10.707 9.717c.006.019.024.025.042.022l.003-.009c.022.01.044-.006.029-.028.015-.003.017-.015.01-.028h-.011c.026-.035-.058-.06-.059-.022-.015-.001-.036.01-.018.022-.017.009-.02.035 0 .04"/><path fill="#de2126" d="M10.739 9.706c.004.202.194-.112.002-.01.003.016.022.013.027.023"/><path fill="#ffdf4f" d="M10.543 9.705c.006.019.024.025.042.021l.003-.008c.022.01.044-.006.029-.029.015-.002.017-.015.01-.027l-.011-.001c.026-.034-.058-.06-.058-.022-.016 0-.037.01-.02.022-.016.01-.02.036.002.04"/><path fill="#de2126" d="M10.575 9.694c.004.202.194-.112.002-.01.003.016.022.013.027.022"/><path fill="#ffdf4f" d="M10.123 10.57c.007.019.025.025.043.022l.003-.009c.022.01.044-.006.028-.028.016-.003.018-.015.011-.028h-.011c.026-.034-.058-.06-.059-.022-.015-.001-.036.01-.019.022-.016.009-.02.035.001.04"/><path fill="#de2126" d="M10.156 10.56c.004.201.194-.112.002-.01.003.015.022.013.027.022"/><path fill="#ffdf4f" d="M9.954 10.63c.006.018.024.024.042.02l.003-.008c.022.01.044-.006.029-.028.015-.003.017-.015.01-.028h-.011c.026-.034-.058-.06-.059-.022-.015-.001-.036.01-.019.022-.016.009-.02.035.002.04"/><path fill="#de2126" d="M9.986 10.618c.004.202.193-.111.002-.01.003.016.022.014.027.023"/><path fill="#ffdf4f" d="M9.944 10.89c.007.019.024.025.042.021l.004-.008c.022.01.044-.006.028-.029.016-.002.018-.015.011-.027l-.011-.001c.026-.034-.058-.06-.059-.022-.016 0-.036.01-.019.022-.016.01-.02.036.001.04"/><path fill="#de2126" d="M9.977 10.879c.004.202.193-.112.002-.01.003.016.022.013.027.023"/><path fill="#ffdf4f" d="M9.79 10.999c.006.018.024.024.042.02l.003-.008c.022.01.044-.005.028-.028.016-.003.018-.015.011-.027l-.011-.002c.026-.033-.058-.06-.059-.021-.015-.001-.036.01-.019.022-.016.009-.02.035.002.04l.003.002"/><path fill="#de2126" d="M9.822 10.987c.004.203.194-.111.002-.009.003.016.022.013.027.022"/><path fill="#ffdf4f" d="M10.266 9.897c.007.019.024.025.042.021l.004-.008c.022.01.044-.006.028-.029.016-.002.018-.014.011-.027l-.011-.001c.026-.034-.058-.06-.059-.022-.016 0-.036.011-.019.023-.016.008-.02.035.001.04"/><path fill="#de2126" d="M10.299 9.886c.004.202.193-.111.002-.01.003.016.022.014.027.023"/><path fill="#39b54a" d="M10.685 9.643c.066-.06.062-.162.152-.205.046-.022.1-.035.139-.067a.666.666 0 0 1-.29.272"/><path fill="#39b54a" d="M10.67 9.649c.045-.017.077-.055.12-.076.048-.022.088-.006.138-.01a.595.595 0 0 0 .143-.035c-.09.127-.282.034-.395.115m-1.063 1.609c.016-.035.02-.073.046-.102a.426.426 0 0 1 .117-.083c.106-.05.249-.03.338-.115-.038.11-.173.205-.273.253a.495.495 0 0 1-.132.047c-.035.006-.08-.002-.114.01m.033-.102s.017-.26.01-.288c-.008-.028-.188-.205-.12-.646 0 0 .041-.148.023-.184 0 0 .15.374.16.485a1.45 1.45 0 0 1-.028.338c-.01.044-.028.163-.028.163m.035-.153c.005-.048-.06-.112-.1-.145m.065-.026c.011-.08-.122-.092-.119-.164"/><path fill="#009c4f" d="M14.703 11.012c-.018-.278-.143-1.378-.388-1.733 0 0 .238.344.264 1.866z"/><path fill="#009c4f" d="M14.667 10.848c-.133-.869-.596-1.628-.596-1.628.174.367.481 1.308.562 1.882l.055-.055z"/><path fill="#009c4f" d="M13.937 9.264c.392.725.554 1.78.579 1.955l.137-.136c-.127-.817-.716-1.82-.716-1.82"/><path fill="#009c4f" d="M13.707 9.192c.067.115.366.719.488 1.068.099.282.199.796.243 1.038l.17-.167c-.157-.75-.806-1.79-.9-1.939"/><path fill="#009c4f" d="M13.464 9.12s.5.786.653 1.322c.049.17.194.68.249.922l.195-.16c-.154-.462-.64-1.632-1.097-2.085"/><path fill="#009c4f" d="M13.47 9.572c.26.356.704 1.198.824 1.87l.225-.221c-.194-.538-.819-1.357-1.05-1.649"/><path fill="#009c4f" d="M13.64 10.073c.31.415.547 1.11.565 1.434l.192-.16c-.196-.534-.757-1.274-.757-1.274"/><path fill="#b1babf" d="M9.477 16.183a.015.015 0 0 1-.003.005s-.065.034-.136.04c0 0-.064.204-.14.267a.923.923 0 0 1 .27-.12c.001-.057.012-.125.048-.146l.005-.001a.228.228 0 0 0-.044-.045m.971-.823-.891.867h-.03l-.055-.05.003-.04.897-.868z"/><path fill="#fd0" d="M10.201 14.674c-.589-.379-.685-1.536-.676-1.693.01-.158.014-2.006.014-2.006l.175.175a305.53 305.53 0 0 1-.877-.9c-.06-.062-.017 2.421-.017 3.524 0 .517.316 2.34 2.167 1.422 0 0 .925-.339 1.195-.748-.063 0-.125-.004-.187-.012a.984.984 0 0 1-.09.043c-1.067.735-1.704.195-1.704.195"/><path fill="#034ea2" d="M9.525 12.98c-.009.158.087 1.315.676 1.694 0 0 .637.54 1.705-.195-.323.136-.587.165-.76.113-.515-.156-1.061-.765-1.148-1.381-.088-.617-.066-1.827-.066-1.827l.078.069-.296-.303-.174-.175s-.006 1.848-.015 2.006"/><path fill="#ed1c24" d="M10.28 12.183a8.49 8.49 0 0 1-.008-.472c-.122-.124.023.028-.26-.261l-.08-.083v.04c-.003.167-.015 1.237.066 1.804.087.616.617 1.225 1.134 1.381.172.052.45.024.773-.112a3.34 3.34 0 0 0 .066-.047c-.933-.136-1.577-1.025-1.69-2.25"/><path fill="#b1babf" d="M8.812 10.172a.139.139 0 0 0-.073-.04c.004-.017.002-.032-.007-.042-.02-.02-.064-.007-.099.029-.035.036-.047.081-.027.101.01.01.024.012.04.008a.144.144 0 0 0 .04.074c.047.047.112.056.147.02.035-.036.025-.103-.02-.15"/><path fill="#ed1c24" d="M8.856 11.614c.008-.024.011-.212.011-.25 0-.04.01-.062.037-.248.027-.186.014-.291.003-.405-.01-.113.024-.356.024-.356l-.068-.05a2.925 2.925 0 0 0-.023.1c-.025.113-.006.49-.02.618-.013.13-.038.307-.04.382l-.001.005c0 .09.026.2.026.2"/><path fill="#034ea2" d="M8.804 10.248s-.063.205-.06.382c.002.177-.02.421-.023.458-.002.036-.049.287-.022.374l.033.047s.043-.027.047-.099v-.005c.003-.075.028-.252.041-.382.014-.129-.005-.505.02-.618.011-.053.019-.083.023-.1.005-.02.007-.023.007-.023z"/><path fill="#ed1c24" d="M8.994 10.195a2.033 2.033 0 0 1-.176.038c-.007 0-.01.002-.01.002.154.003.216.097.216.097l.052-.064c.047-.079-.041-.087-.082-.073"/><path fill="#ed1c24" d="m8.807 10.234.004.008c.019.034.094.162.18.115l.033-.025s-.062-.094-.217-.098"/><path fill="#034ea2" d="M8.818 10.233s.12-.129.141-.134c.02-.006.034.028.045.046.01.019.012.045-.06.065-.073.02-.054.006-.126.023"/><path fill="#034ea2" d="M9.018 10.065c-.052-.095-.148-.042-.148-.042-.095.049-.07.178-.063.211a.173.173 0 0 0 .003.008c.176-.28.206-.059.206-.059.01-.05.003-.118.003-.118"/><path fill="#e8b909" d="M8.793 11.778c.006-.1.014-.238-.063-.242-.078-.005-.086.133-.092.233.046.003.085.007.155.01"/><path fill="#e8b909" d="M8.73 11.436a.05.05 0 0 1 .05.05.05.05 0 0 1-.05.051.05.05 0 0 1-.05-.05.05.05 0 0 1 .05-.051m1.013 1.131c-.454.007-.707 0-1 0 0-.418 0-.997.5-.997.494 0 .5.58.5.997m-.64-.64s-.03.599-.036.633m.284-.636s.052.45.015.64m-.546-1.06a.05.05 0 0 1 .05.051.05.05 0 0 1-.05.051.05.05 0 0 1-.05-.05.05.05 0 0 1 .05-.052"/><path fill="#c0cad0" d="M8.727 10.095c.018.019.007.061-.025.094-.033.034-.074.046-.092.027-.019-.019-.007-.06.025-.094s.073-.046.092-.027"/><path fill="#b1babf" d="M.573.984S.507.944.5.864C.496.808.534.757.558.731c.011.008.02.013.026.013L.598.736.649.68.682.65a.1.1 0 0 0 .02-.033L.698.604C.739.557.834.444.79.416.755.392.648.48.611.513L.595.505C.59.505.58.512.57.521A.787.787 0 0 1 .495.268S.12.154 0 .008C.115.178.225.46.234.53c.097 0 .21.015.259.073A.056.056 0 0 0 .48.624c-.001.01.002.02.007.03a.236.236 0 0 1-.119.068C.298.735.233.656.233.656H.232a.28.28 0 0 0-.013.082c0 .15.115.27.257.27.036 0 .07-.007.1-.021z" mask="url(#a)" transform="translate(8 9.437)"/><path fill="#b1babf" d="M14.814 16.183a.014.014 0 0 0 .003.005s.065.034.135.04c0 0 .065.204.14.267a.923.923 0 0 0-.269-.12c-.002-.057-.012-.125-.048-.146l-.005-.001a.23.23 0 0 1 .044-.045m-.972-.823.892.867h.03l.054-.05-.003-.04-.896-.868z"/><path fill="#fd0" d="M14.09 14.674c.588-.379.685-1.536.676-1.693-.01-.158-.015-2.006-.015-2.006l-.174.175c.317-.324.688-.704.876-.9.06-.062.017 2.421.017 3.524 0 .517-.315 2.34-2.166 1.422 0 0-.925-.339-1.195-.748.063 0 .125-.004.186-.012a.93.93 0 0 0 .09.043c1.068.735 1.705.195 1.705.195"/><path fill="#034ea2" d="M14.766 12.98c.009.158-.088 1.315-.677 1.694 0 0-.636.54-1.704-.195.323.136.586.165.759.113.516-.156 1.062-.765 1.149-1.381.087-.617.065-1.827.065-1.827l-.077.069.296-.303.174-.175s.005 1.848.015 2.006"/><path fill="#ed1c24" d="M14.01 12.183c.005-.056.009-.255.009-.472.122-.124-.023.028.26-.261l.08-.083v.04c.002.167.014 1.237-.066 1.804-.087.616-.618 1.225-1.134 1.381-.173.052-.451.024-.774-.112a3.34 3.34 0 0 1-.066-.047c.934-.136 1.578-1.025 1.69-2.25"/><path fill="#b1babf" d="M15.479 10.172a.139.139 0 0 1 .072-.04c-.004-.017-.001-.032.008-.042.02-.02.064-.007.099.029.034.036.047.081.027.101-.01.01-.024.012-.04.008a.144.144 0 0 1-.04.074c-.047.047-.113.056-.147.02-.035-.036-.026-.103.02-.15"/><path fill="#ed1c24" d="M15.434 11.614a2.646 2.646 0 0 1-.01-.25c0-.04-.01-.062-.037-.248-.027-.186-.014-.291-.004-.405a2.184 2.184 0 0 0-.023-.356l.067-.05.024.1c.025.113.005.49.02.618.013.13.038.307.04.382v.005c.002.09-.026.2-.026.2"/><path fill="#034ea2" d="M15.487 10.248s.063.205.06.382c-.003.177.02.421.022.458.003.036.05.287.022.374l-.033.047s-.042-.027-.046-.099v-.005c-.003-.075-.028-.252-.042-.382-.014-.129.006-.505-.02-.618a2.903 2.903 0 0 0-.023-.1l-.006-.023z"/><path fill="#ed1c24" d="M15.297 10.195a1.912 1.912 0 0 0 .186.04c-.154.003-.216.097-.216.097l-.053-.064c-.046-.079.042-.087.083-.073"/><path fill="#ed1c24" d="m15.483 10.234-.004.008c-.018.034-.094.162-.18.115l-.032-.025s.062-.094.216-.098"/><path fill="#034ea2" d="M15.473 10.233s-.121-.129-.142-.134c-.02-.006-.033.028-.044.046-.01.019-.013.045.06.065.073.02.054.006.126.023"/><path fill="#034ea2" d="M15.272 10.065c.052-.095.149-.042.149-.042.095.049.07.178.062.211l-.002.008c-.176-.28-.206-.059-.206-.059-.011-.05-.003-.118-.003-.118"/><path fill="#e8b909" d="M15.497 11.778c-.006-.1-.013-.238.064-.242.077-.005.085.133.091.233-.045.003-.084.007-.155.01"/><path fill="#e8b909" d="M15.561 11.436a.05.05 0 0 0-.05.05.05.05 0 0 0 .05.051.05.05 0 0 0 .05-.05.05.05 0 0 0-.05-.051m-.168 1.131c.453.007.706 0 1 0 0-.418 0-.997-.5-.997-.495 0-.5.58-.5.997m.639-.64s.03.599.036.633zm-.248-.003s-.051.45-.015.64zm-.312-.42a.05.05 0 0 0-.05.051.05.05 0 0 0 .05.051.05.05 0 0 0 .05-.05.05.05 0 0 0-.05-.052"/><path fill="#c0cad0" d="M15.564 10.095c-.019.019-.007.061.025.094.032.034.073.046.092.027.018-.019.007-.06-.025-.094-.033-.034-.074-.046-.092-.027"/><path fill="#b1babf" d="M15.717 10.421s.067-.04.073-.12c.005-.056-.034-.107-.057-.133a.063.063 0 0 1-.026.013l-.014-.008-.052-.054-.032-.033a.1.1 0 0 1-.02-.033l.004-.012c-.042-.047-.136-.16-.094-.188.036-.024.144.065.18.097l.018-.008c.005 0 .013.007.024.016a.787.787 0 0 0 .074-.253s.377-.114.496-.26c-.116.17-.225.451-.234.522-.098 0-.211.015-.26.073.008.01.012.017.012.021a.056.056 0 0 1-.006.03c.014.014.06.057.118.068.072.013.137-.066.137-.066h.001a.28.28 0 0 1 .012.083c0 .148-.115.27-.257.27a.246.246 0 0 1-.1-.022z"/><path fill="#fd0" d="M11.735 15.11c-.147.004-.42.039-.42.039s-.475.643-.486.777c-.012.135-.012.246.303.199 0 0 .152-.03.278-.04.139-.045.154-.012.168-.002l.07-.303c.065-.271.15-.617.176-.653v-.01c-.007-.007-.041-.009-.089-.007"/><path fill="#ed1c24" d="m.204.001-.019.12.138.061L.305.48a54.215 54.215 0 0 1-.121 1.168c.007.103-.08.195-.08.195-.058.053-.087.096-.096.131 0 .011-.002.021-.003.03l.002.013c.015.061.105.084.166.077.1-.011.289-.123.289-.123L.48.194z" mask="url(#b)" transform="translate(11.672 14.873)"/><path fill="#034ea2" d="M11.841 14.994a19.681 19.681 0 0 0-.017.131v.002c-.026.036-.111.382-.175.653l-.083.349c-.014.03-.254.312-.259.403-.001.037.028.06.111.055.127-.008.215-.032.278-.047.08-.02.117-.028.14.023l.004-.042a283.738 283.738 0 0 0 .11-1.168l.017-.298z"/><path fill="#ebc900" d="M11.568 16.07c-.01-.007-.003-.033-.176.017-.039.178-.085.445-.085.445.001-.09.186-.276.24-.36.027-.043.034-.08.021-.101"/><path fill="#023f88" d="m11.826 16.612.012-.049c-.023-.051-.061-.043-.142-.023a9.59 9.59 0 0 1-.016.308.293.293 0 0 1 .088-.133s.04-.034.058-.103"/><path fill="#fd0" d="M12.456 15.11c.147.004.42.039.42.039s.474.643.486.777c.011.135.011.246-.303.199 0 0-.153-.03-.278-.04-.139-.045-.154-.012-.169-.002a39.577 39.577 0 0 0-.07-.303c-.064-.271-.15-.617-.175-.653l-.001-.01c.008-.007.042-.009.09-.007"/><path fill="#ed1c24" d="m.29.001.02.12-.138.061L.19.48a54.038 54.038 0 0 0 .12 1.168c-.007.103.08.195.08.195.058.053.087.096.096.131l.003.03-.002.013c-.015.061-.105.084-.166.077-.1-.011-.288-.123-.288-.123L.015.194z" mask="url(#c)" transform="translate(12.066 14.873)"/><path fill="#034ea2" d="M12.35 14.994a19.68 19.68 0 0 1 .017.133c.026.036.111.382.175.653l.083.349c.014.03.254.312.258.403.002.037-.027.06-.11.055-.127-.008-.215-.032-.278-.047-.08-.02-.118-.028-.14.023l-.004-.042a234.796 234.796 0 0 1-.11-1.168 40.009 40.009 0 0 0-.018-.298z"/><path fill="#ebc900" d="M12.622 16.07c.01-.007.003-.033.177.017.039.178.084.445.084.445 0-.09-.185-.276-.239-.36-.027-.043-.034-.08-.022-.101"/><path fill="#023f88" d="m12.365 16.612-.012-.049c.022-.051.061-.043.141-.023.005.107.01.226.017.308a.293.293 0 0 0-.089-.133s-.04-.034-.057-.103"/><g fill="#452c25"><path d="M12.016 8.951s-.2.466-.131.512c0 0 .203-.361.381-.498.093-.088.15 0 .161-.076.012-.077-.244-.188-.244-.188l-.164.231m-.734.374s-.292.507-.215.513c.076.006.388-.647.388-.647l-.107.018z"/><path d="M11.373 9.165s-.305.498-.229.506c.077.009.405-.635.405-.635l-.107.015z"/><path d="M11.434 9.078s-.346.469-.271.484c.075.015.458-.597.458-.597l-.107.006z"/><path d="M11.527 8.995s-.406.417-.333.442c.072.025.533-.527.533-.527l-.107-.01z"/><path d="M11.541 8.844s-.354.463-.279.48c.075.015.468-.59.468-.59l-.107.004zm-.09.398s-.347.469-.271.484c.075.015.458-.596.458-.596l-.108.005zm.195-.093s-.203.382-.18.398c.024.016.27-.218.392-.445.122-.228-.22.037-.22.037"/><path d="M11.848 9.064s-.2.466-.132.512c0 0 .252-.281.317-.504.066-.223 0-.016 0-.016l-.018-.242-.164.23"/><path d="M11.668 9.111s-.2.465-.131.512c0 0 .251-.281.317-.504.065-.223 0-.016 0-.016l-.019-.242-.164.23"/><path d="M11.564 9.07s-.406.417-.334.442c.073.026.534-.527.534-.527l-.107-.01z"/><path d="M11.596 9.127s-.406.417-.334.442c.073.025.534-.527.534-.527l-.107-.01z"/><path d="M11.628 9.193s-.406.417-.333.442c.072.025.533-.527.533-.527l-.107-.01zm.03-.573s-.301.386-.258.452c.044.066.32-.177.406-.347.087-.17-.145-.117-.145-.117"/><path d="M11.649 9.03s-.259.495-.192.466c.067-.028.329-.4.358-.482.029-.082.02-.168.02-.168l-.2.123.016.096"/><path d="M11.65 8.867s.215-.394 0 .074c-.217.469-.298.392-.298.392-.016-.027.188-.345.188-.345s.152-.244.188-.267m.152.094s.24-.392 0 .074-.332.387-.332.387c-.02-.027.209-.341.209-.341s.169-.243.21-.265"/><path d="M11.89 8.842s-.24.512-.186.55c0 0 .2-.23.252-.414.053-.183 0-.012 0-.012l.067-.33m.115.091s-.24.513-.186.55c0 0 .2-.23.252-.413.053-.183 0-.012 0-.012l.067-.33"/><path d="M11.793 8.65s-.301.385-.258.45c.044.067.319-.176.406-.346.087-.17-.145-.117-.145-.117"/></g><path fill="#b1babf" d="M14.119 14.9c0 .07-.023.084-.023.084H10.55v-.16h3.546s.023.005.023.076"/><path fill="#b87510" d="m10.805 14.908.002.073h2.626a1.874 1.874 0 0 0 0-.157h-2.626a1.96 1.96 0 0 0-.002.084"/><path fill="#b76e11" d="M10.807 14.824h2.625a1.941 1.941 0 0 0-.008-.118h-2.608a1.926 1.926 0 0 0-.009.118"/><path fill="#ac620e" d="M10.816 14.706h2.608a1.876 1.876 0 0 0-.016-.116h-2.576a1.845 1.845 0 0 0-.016.116"/><path fill="#a2550b" d="M13.324 14.474h-2.409c-.048 0-.076.076-.083.116h2.576c-.007-.04-.038-.116-.084-.116"/><path fill="#b76e11" d="M10.816 15.107h2.608l.009-.126h-2.626c.001.042.004.084.009.126"/><path fill="#ac620e" d="M10.83 15.209h2.58a1.88 1.88 0 0 0 .014-.102h-2.608c.003.034.008.068.013.102z"/><path fill="#a2550b" d="M10.915 15.318h2.409c.047 0 .08-.072.087-.109h-2.582c.006.037.036.109.086.109"/><path fill="#c69024" d="M11.137 15.32a1.934 1.934 0 0 1 .01-.853h-.13s-.056.236-.053.42c.002.185.02.359.043.434zm1.972.002a1.932 1.932 0 0 0-.01-.854h.13s.056.236.053.42a1.99 1.99 0 0 1-.043.434zm-1.195-.002c-.02-.11-.021-.259-.021-.433s.018-.371.031-.42h-.13c-.023.073-.032.27-.032.42 0 .15.005.326.022.434zm.406 0c.02-.11.022-.259.022-.433s-.018-.371-.031-.42h.13c.023.073.031.27.031.42 0 .15-.004.326-.022.434z"/><path fill="#c69024" d="m11.442 14.902.234.423.11-.003s-.064-.136-.237-.428-.29-.432-.29-.432l-.109.003s.216.3.292.437m1.361 0-.234.423-.11-.003s.064-.136.237-.428.29-.432.29-.432l.11.003s-.216.3-.293.437"/><path fill="#c69024" d="m12.752 14.902.234.423.11-.003s-.064-.136-.238-.428c-.173-.292-.289-.432-.289-.432l-.11.003s.216.3.293.437"/><path fill="#b1babf" d="M10.372 15.049s.058-.28-.034-.436c-.09-.157-.21-.203-.236-.191-.027.011.29-.47.629-.008 0 0-.298.035-.237.616"/><path fill="#d3dce0" d="M10.148 14.422c.092-.103.307-.258.538.006a.169.169 0 0 1 .045-.014c-.339-.463-.656.02-.63.008.008-.004.023-.002.042.005z"/><path fill="#b1babf" d="M10.318 14.946a.577.577 0 0 0-.174.096s-.225-.123-.371-.135c-.012-.001-.025-.003-.036-.002l.036-.006c.147-.034.328-.113.368-.144.053.054.122.109.179.104m.176.19c-.004.086-.028.153-.058.153-.03 0-.054-.069-.058-.157"/><path fill="#b1babf" d="M2.303 8.035h.27v-.283h-.27z" mask="url(#d)" transform="translate(8 7.01)"/><path fill="#c69024" d="m3.494 7.893-.234.423-.11-.003s.064-.136.237-.429c.173-.292.29-.432.29-.432l.11.004s-.216.299-.293.437" mask="url(#d)" transform="translate(8 7.01)"/><path fill="url(#e)" d="M.004 2.357c0 1.298.817 2.35 1.826 2.35 1.009 0 1.826-1.052 1.826-2.35S2.84.007 1.83.007C.821.006.004 1.058.004 2.356" mask="url(#f)" transform="translate(10.303 9.562)"/><path fill="#395054" d="M13.155 11.736c.08-.052.156-.051.251-.082.067-.021.147-.025.211-.04.06-.015.237.104.296.122l.004.165s-.294.032-.4-.009a7.192 7.192 0 0 1-.362-.166"/><path fill="#006c3c" d="M11.383 12.136c.033.027.005.04-.014.062-.011.013.063.07.143.095.033.011.05.031.06.048.012.017.036.034.075.062.038.028.008.037.1.04.09.002.126.025.162.033.035.009.057.014.145.026.089.01.4-.001.393.002-.009.002-.22.047-.239.058-.019.011-.118-.013-.137-.001-.02.01-.039.028-.06.045-.023.017-.006.022.016.028a.336.336 0 0 1 .085.03c.039.02.039.023.124.034.085.012.052 0 .132.017.08.017.06.012.152.014.09.003.019.012.137.003.119-.008.091-.005.138-.005.047 0 .047-.009.1-.012.051-.002.088.08.036.08s.041-.017.005-.014c-.035.003-.13-.007-.15.005-.018.011-.038.033-.09.073-.052.04-.011.059.005.07.017.011.042.017.064.025.022.009.044.006.113.031a.36.36 0 0 0 .13.031c.043.003.106.02.106.02s.086.037.13.04c.044.002.027.01.082.036.056.025.053.006.097.006.044 0 .06.005.085.022.025.017.06.031.06.031s-.018.054-.2.355c-.182.3-.463.48-.67.599-.206.118-.476.132-.856.092-.38-.039-.748-.43-.908-.632-.16-.203-.223-.406-.223-.406l.033-.002.069-.012c.03-.005.027-.002.063-.01.036-.01.047-.01.08-.023.033-.014.022-.02.074-.034l.05-.014c.014-.003.036-.006.066-.017.03-.011.066-.028.033-.045-.033-.017 0-.02 0-.02l.085.006c.05.003.03.008.064.011.033.003.03 0 .055-.005.024-.006-.006-.034-.011-.062-.006-.028-.02-.012-.03-.023-.012-.011-.023-.005-.058-.028-.036-.023-.025-.003-.102-.028-.077-.025-.008.023-.105-.006-.096-.028-.043.02-.122-.005-.08-.025-.107-.082-.032-.07.074.01.022-.004.03-.015s.022-.003.066-.005c.044-.003.039 0 .08-.003s.058-.014.058-.014.036.014.06.014c.025 0 .017-.006.017-.023s.025 0 .044.006c.02.006.066-.003.066-.003s.022-.003.063-.003c.042 0 .017-.008.055-.022s0-.028-.013-.031c-.014-.003-.017-.009-.036-.025a.164.164 0 0 0-.06-.036c-.025-.008-.17.01-.206 0-.036-.012-.034-.057.037-.06.072-.003.028 0 .064 0 .035 0 .027.005.041.005.014 0 .027 0 .085-.008.058-.008.033-.011.072-.028.038-.017.08-.011.113-.025.033-.014-.014-.029-.055-.048-.042-.02 0 .011-.03-.02-.03-.03-.185-.121-.232-.163-.043-.04.038-.025.078-.043 0 0 .018-.041-.027-.057-.045-.015-.04-.015-.088-.033-.047-.018-.07-.05-.105-.059a.176.176 0 0 1-.053-.018"/><path fill="#6dbe45" d="M11.383 12.136c-.021.016-.021.037-.014.062a.185.185 0 0 0 .116.11c.034.01.077.016.088.033.01.017.035.034.074.062.038.028.008.037.1.04.09.002.126.025.162.033.035.009.057.014.145.026.089.01.385.003.377.006-.009.003-.265.056-.284.067-.02.012-.057-.026-.076-.014-.02.01-.039.028-.06.045-.023.017-.006.022.016.028a.336.336 0 0 1 .085.03c.039.02.039.023.124.034.085.012.052 0 .132.017.08.017.06.012.152.014.09.003.018.022.136.014.119-.008.079.002.126.002s.06.014.112.011c.053-.003.176.034.124.034-.033 0-.084-.015-.141-.01-.036.002-.07-.006-.09.006-.02.01-.039.033-.091.073-.052.04-.011.059.005.07.017.011.042.017.064.025.022.009.044.006.113.031a.36.36 0 0 0 .13.031c.043.003.106.02.106.02s.086.037.13.04c.044.002.027.01.082.036.056.025.053.006.097.006.044 0 .06.005.085.022a.33.33 0 0 0 .048.026s.114-.318.158-.456.091-.537.091-.562c0-.024-.065-.06-.085-.054-.02.006-.109.006-.135.006h-.37c-.024 0-.042.018-.086-.003a.387.387 0 0 0-.15-.03 2.906 2.906 0 0 1-.159.006c-.023 0-.285-.012-.329-.009a1.786 1.786 0 0 1-.179 0c-.053-.003-.12-.003-.147-.006-.026-.003-.123-.009-.147.01-.023.017-.088.023-.117.03-.03.005-.11.02-.15.023-.041.003-.162.027-.2.021-.038-.006-.168-.006-.168-.006m-.058.075c.03.036.003.011-.067.05-.055.03.238.182.268.213.03.031-.01 0 .03.02.042.02.088.034.055.048-.033.014-.074.008-.112.025-.04.017-.014.02-.072.028a.516.516 0 0 1-.085.009c-.014 0-.011-.006-.047-.006s-.005.008-.077.01l-.1.011c.045.005.152.01.2.012.026 0 .05.014.087.026.025.008.041.02.06.037.02.016.022.022.036.025.014.003.053.017.014.03-.039.015-.014.023-.055.023s-.063.003-.063.003-.047.009-.066.003c-.02-.006-.045-.023-.045-.006s.009.023-.016.023-.06-.014-.06-.014-.017.011-.058.014c-.042.003-.036 0-.08.003-.044.002-.068-.009-.066.005.002.028-.038.015-.031.035.006.002-.051.002-.047.004.08.025.102-.01.199.018.096.028.03.014.107.039s.066.006.102.028c.036.023.047.017.058.028.01.011.025-.005.03.023.006.028.036.056.011.062-.025.005-.022.008-.055.005s-.014-.008-.063-.011l-.086-.006s-.033.003 0 .02c.034.017-.002.034-.033.045-.03.011-.052.014-.066.017l-.05.014c-.052.014-.04.02-.074.034-.033.014-.044.014-.08.022-.035.009-.032.006-.063.011a1.7 1.7 0 0 1-.069.012l-.054.009s-.127-.21-.19-.47a4.961 4.961 0 0 1-.092-.704c0-.02.093-.022.125-.01.031.011.182.023.252.032.07.01.244.035.257.04.014.004.055-.024.089-.001l.132.092"/><path fill="#557176" d="M10.394 12.08s.005-.044.114-.044c.11 0 .076.01.202.028.125.016.218.016.262.022.043.005.136.017.169.028.032.01.087.039.087.039s-.022.016.07.016.066-.005.197-.005c.13 0 .044.033.213 0 .169-.034.3-.05.343-.061.044-.012-.05-.045.114-.023.164.023.24.006.268.006.027 0 .141.005.196.005.054 0 .13 0 .163.006s.082-.006.153.006c.071.01.087-.023.142.01.054.034.153.012.19.006.039-.005.115 0 .137 0 .022 0 .125.011.174.011.05 0 .148-.01.148-.01l.092.01s.017-.24.017-.267c0-.028.059-.07-.046-.08-.383-.037-.235-.06-.461-.076-.055-.011-.317-.078-.371-.09-.055-.01-.35-.1-.436-.1-.087 0-.306.012-.36.012-.055 0-.529-.011-.594-.011l-.218-.078c-.044-.017-.05-.011-.191-.006-.142.006-.175.022-.306.006a.96.96 0 0 0-.3.01c-.06.012-.147.045-.147.045z"/><path d="M.448.175C.425.191.334.231.286.255.24.278.237.325.254.334a.989.989 0 0 1 .133.088C.395.434.341.458.334.462.328.465.331.48.331.48.39.56.612.564.577.59.54.613.475.61.52.654c.03.03.106.09.153.114C.74.803.736.832.75.847c.03.03.013.02.054.04S.893.921.86.935C.827.95.786.944.747.96.71.977.733.98.676.99.618.997.604.997.59.997.576.997.585.991.55.991H.486A.99.99 0 0 1 .274.956l.209.055c.044.011.041.006.077.017.036.011.069.014.094.022.024.009.04.02.06.037.02.017.022.023.036.025.014.003.052.017.014.031-.039.014-.014.023-.055.023-.042 0-.064.003-.064.003S.6 1.177.58 1.17c-.02-.004-.045-.02-.045-.004 0 .017.008.022-.016.022-.025 0-.06-.014-.06-.014s-.017.012-.059.014l-.039.002-.04.001a.31.31 0 0 1-.038 0c-.016 0-.023-.001-.029.006-.008.011.044.025-.03.014C.15 1.2.177 1.2.257 1.225s.022 0 .118.028c.097.028.03.014.108.04.077.025.066.005.102.028.036.022.047.016.058.028.01.01.024-.006.03.022.005.028.036.056.01.062-.024.006-.021.008-.054.006-.033-.003-.014-.009-.063-.012L.48 1.422s-.033.003 0 .02c.033.016-.003.033-.033.045a.37.37 0 0 1-.066.016l-.05.014c-.052.015-.04.02-.074.034-.033.014-.044.014-.08.023-.036.008-.033.005-.063.011-.03.006-.05.008-.069.011C.025 1.6.012 1.6.012 1.6s.063.203.223.405c.16.203.529.594.909.633.38.04.65.025.856-.093.207-.118.487-.298.67-.599.18-.3.194-.344.194-.344s-.038-.017-.067-.01c-.029.006-.029-.054-.073-.054s-.041.02-.096-.005c-.055-.026-.039-.034-.083-.037-.044-.003-.13-.04-.13-.04s-.063-.016-.107-.02a.358.358 0 0 1-.129-.03c-.069-.025-.09-.023-.113-.031-.022-.008-.047-.014-.063-.025-.017-.012-.058-.031-.006-.07.053-.04.072-.063.091-.074.02-.011.06-.036.096-.04.036-.002.039-.01.091-.01.053 0-.027-.023-.08-.02-.052.003-.052.011-.099.011-.046 0-.019-.003-.137.006-.119.008-.047 0-.138-.003-.09-.003-.071.003-.151-.014s-.047-.006-.133-.017c-.085-.011-.085-.014-.123-.034-.039-.02-.064-.025-.086-.03-.022-.006-.038-.012-.016-.029s.106-.081.125-.093a.205.205 0 0 1 .026-.01.357.357 0 0 1-.108 0C1.269.91 1.246.903 1.21.895c-.036-.008-.072-.03-.163-.033C.957.86.987.851.948.822.91.796.885.779.874.762a.108.108 0 0 0-.06-.048C.733.688.658.63.67.617.69.595.717.583.684.555.65.527.459.495.406.477S.407.468.41.467C.422.463.45.456.47.441.496.423.47.412.44.395.396.373.323.34.29.316.256.291.326.249.395.218c.07-.03.244-.18.27-.204L.664.005S.472.16.448.175m1.135.783-.015.011c.062-.042.125-.08.134-.1-.002 0-.06.045-.12.089M.325.999.297.992l.027.007" mask="url(#g)" transform="translate(10.739 11.636)"/><path fill="#999b9e" d="M11.653 11.858c-.035.013-.065.035-.095.056-.004.003-.002.019-.002.022l.002.022c.03-.02.06-.042.095-.055.007-.003-.002-.044 0-.045m-.161-.068a.329.329 0 0 0-.098.081c-.003.005.003.015 0 .018a.327.327 0 0 1 .098-.082c.004-.002-.002-.017 0-.018"/><path fill="#949699" d="M13.594 10.76c.019.034.096.292.096.292-.257-.29-.86-.493-1.564-.493-.694 0-1.295.198-1.559.482-.004.004.04-.13.093-.258a2.17 2.17 0 0 1 .115-.248c.31-.193.8-.318 1.35-.318.555 0 1.048.127 1.358.322 0 0 .096.155.111.22z"/><path fill="#fd0" d="M12.098 10.645s.025.144.047.192c0 0 .053-.153.053-.19m-.19-.042s-.035.141-.034.194c0 0 .11-.117.124-.15m-.16-.124s-.091.112-.112.16c0 0 .148-.057.175-.08"/><path fill="#fd0" d="M11.91 10.438s-.125.069-.162.105c0 0 .158.004.192-.008"/><path fill="#fd0" d="M11.917 10.347s-.142.017-.19.037c0 0 .146.063.182.065"/><path fill="#fd0" d="M11.953 10.27s-.138-.037-.19-.035c0 0 .115.111.147.126"/><path fill="#fd0" d="M12.017 10.206s-.116-.085-.164-.103c0 0 .066.147.091.173m.166-.106s-.071-.126-.108-.163c0 0 .001.162.013.196"/><path fill="#fd0" d="M12.192 10.173s-.024-.144-.047-.192c0 0-.053.153-.053.19m.192.043s.037-.14.036-.194c0 0-.11.116-.125.15"/><path fill="#fd0" d="M12.346 10.282s.086-.116.104-.166c0 0-.145.065-.17.09"/><path fill="#fd0" d="M12.378 10.368s.122-.075.158-.113c0 0-.16.004-.192.017"/><path fill="#fd0" d="M12.378 10.449s.14-.03.185-.054c0 0-.15-.05-.186-.048"/><path fill="#fd0" d="M12.35 10.528s.141.021.193.015c0 0-.126-.1-.16-.111"/><path fill="#fd0" d="M12.295 10.595s.125.071.175.084c0 0-.083-.139-.11-.162m-.16.126s.082.12.122.154c0 0-.015-.162-.03-.195"/><path fill="#fd0" d="M12.143 10.163c.138 0 .25.11.25.246 0 .135-.112.245-.25.245s-.25-.11-.25-.245c0-.136.112-.246.25-.246m-.649 1.002c.015.077.007.146-.017.155-.024.007-.055-.049-.07-.126-.015-.078-.008-.147.016-.155s.056.048.071.126m.411-.446-.09-.25s-.28.027-.41.342c0 0-.18-.276-.49-.118l-.01.368s.21-.381.43-.118c0 0-.1.552.15.526.25-.027.08-.487.03-.513l-.05-.026s.14-.316.44-.21"/><path fill="#fd0" d="M11.987 11.121c-.113.024-.25-.363-.235-.375.147-.127.256-.11.287-.1-.018-.026.01.003.01.003l-.01-.003c.02.026.06.451-.052.475m.322-.747c-.024-.016-.082-.058-.166-.042 0 0 .077.08.065.11 0 0-.012.07-.08.061 0 0-.261-.031-.475.124 0 0-.149.024-.16-.01 0 0-.026-.055-.004-.078a.025.025 0 0 1 .006-.004c.031-.018-.159.03-.115.13.043.1.144.137.23.129l.013-.001-.001-.002s.064-.004 0 .002c.007.015.245.588.399.531.156-.058.175-.599.158-.657l-.007-.024s-.006-.02 0 0c.003 0 .338-.136.137-.269"/><path stroke="#fd0" stroke-width=".917" d="M12.787 10.42c0-.01 0-.018-.003-.027a.058.058 0 0 0-.01-.02.097.097 0 0 0-.022-.02c-.013-.008-.026-.002-.025.014 0 .016.014.03.027.037.01.007.021.012.033.016.04.014.079.023.101.038.01.006.018.012.029.016a.056.056 0 0 0 .05-.002c.01-.006.027-.023.014-.036-.014-.014-.039-.01-.055-.003a.17.17 0 0 0-.04.022c.007.014-.002.029-.005.044-.004.013-.008.025-.007.038 0 .018.025.055.036.024.006-.018.003-.045-.015-.055a.175.175 0 0 0-.014-.007c-.035-.014-.07-.02-.101-.034a.088.088 0 0 0-.037-.008.032.032 0 0 0-.027.015c-.004.008-.008.018-.003.026.01.017.038.002.049-.007a.055.055 0 0 0 .018-.026.149.149 0 0 0 .007-.045z"/><path fill="#fd0" d="M13.852 11.338c-.051 0-.093-.033-.093-.073 0-.04.042-.072.093-.072.052 0 .093.033.093.072 0 .04-.041.073-.093.073m.124-.271s-.217-.086-.362.087c0 0-.54-.044-.196-.663.01-.018-.348.11-.272.506 0 0 .069.333.579.485 0 0 .427.07.41-.24 0 0-.02-.15-.159-.175"/><path fill="#fd0" d="M13.427 10.666c.045-.009.09.02.1.061.01.043-.02.083-.066.091a.086.086 0 0 1-.1-.061c-.009-.043.02-.083.066-.091m-.046.305s.213.056.3-.15c0 0 .493-.038.332.67-.004.02.284-.171.123-.576 0 0-.14-.341-.63-.422 0 0-.396-.007-.308.318 0 0 .053.155.183.16m-1.307 2.483.001-.098s.334.019.495.017v.077s-.439.01-.496.004"/><path fill="#5c5342" d="M4.65 6.41h.134v-.1H4.65z" mask="url(#h)" transform="translate(8 7.01)"/><path fill="#858d8d" d="M4.658 6.288h.134l-.008.1H4.65z" mask="url(#h)" transform="translate(8 7.01)"/><path fill="#755338" d="m4.876 6.338.001-.002.088-.167.011.001-.087.164" mask="url(#h)" transform="translate(8 7.01)"/><path fill="#fd0" d="M5.009 6.242c-.02.006-.043-.03-.054-.047-.011-.018-.04-.012-.04-.012l-.006.022c.005 0 .028-.003.038.012.01.017.034.054.053.047l-.01.028z" mask="url(#h)" transform="translate(8 7.01)"/><path fill="#034ea2" d="M4.949 6.219c-.01-.018-.034-.015-.04-.013l-.004.013c.008-.001.03-.003.039.013.011.02.036.062.056.055l-.006.017.011-.031c-.02.007-.044-.034-.056-.054" mask="url(#h)" transform="translate(8 7.01)"/><path fill="#ed1c24" d="M4.903 6.227h.002c.033.001.042.029.048.047.006.016.038.039.044.042l.006-.02c-.02.008-.046-.04-.058-.063-.01-.02-.032-.017-.04-.016z" mask="url(#h)" transform="translate(8 7.01)"/><path fill="#a37853" d="m4.508 6.097.271-.166v-.003h-.005l-.267.158v.008" mask="url(#h)" transform="translate(8 7.01)"/><path fill="#a37853" d="m4.567 5.992.025.347-.05.005-.043-.337.006-.27.014.002.011.25zm-.085.404c0 .02.004.036.008.036l.403-.026c.004 0 .007-.017.007-.037 0-.02-.003-.037-.007-.037l-.404.026c-.003 0-.007.017-.007.038" mask="url(#h)" transform="translate(8 7.01)"/><path fill="#616264" d="M4.305 6.27s.017.001.05.008c0 0-.037.006-.057.014-.02.008-.06.055-.068.064a.458.458 0 0 0-.012.013h-.063s.03-.046.042-.058a.172.172 0 0 1 .05-.034c.012-.002.035-.01.058-.008" mask="url(#h)" transform="translate(8 7.01)"/><path fill="#a3a5a8" d="M4.491 6.376c-.018-.059-.065-.102-.123-.1h-.002c-.094.005-.099.052-.134.092h-.007v.001s.192.007.266.007" mask="url(#h)" transform="translate(8 7.01)"/><path fill="#797a7d" d="M4.508 6.393a.01.01 0 0 1-.014-.006.011.011 0 0 1 .005-.014.01.01 0 0 1 .014.005c.003.005 0 .012-.005.015" mask="url(#h)" transform="translate(8 7.01)"/><path fill="#797a7d" d="M4.504 6.382a.011.011 0 0 1-.015-.004.01.01 0 0 1 .003-.014.011.011 0 0 1 .015.003.01.01 0 0 1-.003.015" mask="url(#h)" transform="translate(8 7.01)"/><path fill="#797a7d" d="M4.498 6.372a.01.01 0 0 1-.014-.002c-.003-.005-.003-.011.002-.015a.01.01 0 0 1 .015.001c.003.006.002.013-.003.016" mask="url(#h)" transform="translate(8 7.01)"/><path fill="#797a7d" d="M4.492 6.363a.01.01 0 0 1-.015 0 .012.012 0 0 1 0-.016c.004-.004.011-.004.015 0s.004.012 0 .016" mask="url(#h)" transform="translate(8 7.01)"/><path fill="#797a7d" d="M4.485 6.354a.011.011 0 0 1-.015.002.011.011 0 0 1-.002-.015.01.01 0 0 1 .015-.002.01.01 0 0 1 .002.015" mask="url(#h)" transform="translate(8 7.01)"/><path fill="#797a7d" d="M4.477 6.347c-.004.005-.01.005-.015.003a.01.01 0 0 1-.003-.015.011.011 0 0 1 .015-.003c.005.002.006.01.003.015" mask="url(#h)" transform="translate(8 7.01)"/><path fill="#797a7d" d="M4.468 6.34a.01.01 0 0 1-.015.005.012.012 0 0 1-.004-.015.01.01 0 0 1 .014-.005c.005.003.007.01.005.015" mask="url(#h)" transform="translate(8 7.01)"/><path fill="#797a7d" d="M4.458 6.334a.011.011 0 0 1-.014.007c-.005-.002-.008-.009-.006-.014s.008-.009.014-.007a.011.011 0 0 1 .006.014" mask="url(#h)" transform="translate(8 7.01)"/><path fill="#797a7d" d="M4.448 6.33a.011.011 0 0 1-.013.007.01.01 0 0 1-.008-.012.011.011 0 0 1 .013-.009c.006.002.01.007.008.013" mask="url(#h)" transform="translate(8 7.01)"/><path fill="#797a7d" d="M4.437 6.327c0 .006-.006.01-.012.008a.012.012 0 0 1-.008-.013.01.01 0 0 1 .012-.008.01.01 0 0 1 .008.013" mask="url(#h)" transform="translate(8 7.01)"/><path fill="#797a7d" d="M4.427 6.324c-.001.006-.006.01-.012.01s-.01-.005-.01-.011a.01.01 0 0 1 .011-.01.01.01 0 0 1 .01.01" mask="url(#h)" transform="translate(8 7.01)"/><path fill="#797a7d" d="M4.416 6.323a.01.01 0 0 1-.01.01.01.01 0 0 1-.012-.009c0-.006.005-.012.01-.012.006 0 .011.005.012.011" mask="url(#h)" transform="translate(8 7.01)"/><path fill="#797a7d" d="M4.405 6.323a.01.01 0 0 1-.01.012.01.01 0 0 1-.002-.022.01.01 0 0 1 .012.01" mask="url(#h)" transform="translate(8 7.01)"/><path fill="#797a7d" d="M4.394 6.324a.012.012 0 0 1-.01.012.011.011 0 0 1-.012-.01.01.01 0 0 1 .01-.012c.006 0 .01.004.012.01" mask="url(#h)" transform="translate(8 7.01)"/><path fill="#797a7d" d="M4.383 6.325c0 .006-.003.012-.009.013s-.01-.003-.012-.008a.011.011 0 0 1 .008-.013.01.01 0 0 1 .013.008" mask="url(#h)" transform="translate(8 7.01)"/><path fill="#797a7d" d="M4.372 6.327a.01.01 0 0 1-.007.013.012.012 0 0 1-.014-.008.01.01 0 0 1 .007-.013.011.011 0 0 1 .014.008" mask="url(#h)" transform="translate(8 7.01)"/><path fill="#797a7d" d="M4.361 6.33a.011.011 0 0 1-.006.014.01.01 0 0 1-.014-.006.01.01 0 0 1 .006-.014.01.01 0 0 1 .014.005" mask="url(#h)" transform="translate(8 7.01)"/><path fill="#797a7d" d="M4.35 6.332a.012.012 0 0 1-.004.016.01.01 0 0 1-.014-.004.011.011 0 0 1 .004-.015.01.01 0 0 1 .014.003" mask="url(#h)" transform="translate(8 7.01)"/><path fill="#797a7d" d="M4.34 6.338c.004.005.003.012-.002.015a.01.01 0 0 1-.014-.002.011.011 0 0 1 .001-.016.011.011 0 0 1 .016.003" mask="url(#h)" transform="translate(8 7.01)"/><path fill="#797a7d" d="M4.331 6.345a.01.01 0 0 1 0 .015.01.01 0 0 1-.015 0 .01.01 0 0 1 0-.016.01.01 0 0 1 .015 0" mask="url(#h)" transform="translate(8 7.01)"/><path fill="#797a7d" d="M4.323 6.352a.011.011 0 0 1 .001.015.011.011 0 0 1-.015.001.011.011 0 0 1 0-.015.01.01 0 0 1 .014-.001" mask="url(#h)" transform="translate(8 7.01)"/><path fill="#797a7d" d="M4.316 6.36c.004.004.004.011 0 .016a.01.01 0 0 1-.014 0 .011.011 0 0 1-.001-.015.01.01 0 0 1 .015 0" mask="url(#h)" transform="translate(8 7.01)"/><path fill="#797a7d" d="M4.309 6.369a.01.01 0 0 1 0 .015.01.01 0 0 1-.015 0 .01.01 0 0 1 .015-.016" mask="url(#h)" transform="translate(8 7.01)"/><path fill="#939598" d="M4.343 6.275c-.096.005-.1.056-.136.099h.018l.007.001c.035-.042.04-.093.134-.098a.1.1 0 0 0-.023-.002" mask="url(#h)" transform="translate(8 7.01)"/><path fill="#442c13" d="m4.08 6.383.004-.086.012-.002v.024l.089-.004-.02.08-.083-.005-.002-.01" mask="url(#h)" transform="translate(8 7.01)"/><path fill="#442c13" d="m4.175 6.183.011.135-.052.001.026-.136zm.043-.008.011.138-.037.001.004-.14zm.066.109-.027-.131h-.015l.012.132zm.039-.014.076-.12-.007.001-.093.119z" mask="url(#h)" transform="translate(8 7.01)"/><path fill="#442c13" d="m4.257 6.153-.086.158-.014-.001.09-.157z" mask="url(#h)" transform="translate(8 7.01)"/><path fill="#442c13" d="m4.232 6.156.064.119.034-.001-.071-.118z" mask="url(#h)" transform="translate(8 7.01)"/><path fill="#a48b58" d="M4.328 6.15h-.121l-.086.092.101.009z" mask="url(#h)" transform="translate(8 7.01)"/><path fill="#a37853" d="m4.118 6.244.091-.074.121-.005v-.021l-.123.006-.089.07z" mask="url(#h)" transform="translate(8 7.01)"/><path fill="#939598" d="M4.168 6.367c.04-.04.041-.091.139-.096a.107.107 0 0 0-.023-.002c-.1.005-.1.055-.14.096a.015.015 0 0 0-.002.003l.024.001z" mask="url(#h)" transform="translate(8 7.01)"/><path fill="#fd0" d="M4.636 6.486v-.018s.262.001.263-.05c.002-.053-.127-.032-.327.003" mask="url(#h)" transform="translate(8 7.01)"/><path fill="#696161" d="M3.897 6.04c-.016.002-.027-.016-.042.007l-.001.001c-.01.012-.015.028-.009.04.004.008.02.014.028.015.02.003.035-.013.037-.031.009.01.035.011.048.012.023.001.029-.003.033-.027.013.019.024.02.047.016.026-.004.057-.007.076-.027a.036.036 0 0 0 .03.017.107.107 0 0 0 .037-.005c.009-.004.018-.016.027-.018.007.01.02.007.03.008.016.01.034.017.061.003.007-.004.033.005.041.001.007-.003.008-.01.013-.012.011.008.029 0 .04-.004.01 0 .023 0 .026-.012.017-.01.012-.019.007-.023-.026-.011-.044-.011-.069.007-.008-.002-.012-.002-.017.008-.01-.016-.03-.02-.048-.009-.016-.009-.025-.002-.038-.002-.026-.02-.073-.017-.105.002-.037-.017-.048-.007-.072.011-.014-.006-.03-.002-.045 0-.014 0-.021.018-.033.012-.026-.013-.039.007-.058.006-.022-.02-.044.004-.044.004" mask="url(#h)" transform="translate(8 7.01)"/><path fill="#84848a" d="M3.951 6.416c0 .012-.022.023-.05.023-.027 0-.05-.01-.05-.023v-.282c0-.013.023-.023.05-.023.028 0 .05.01.05.023z" mask="url(#h)" transform="translate(8 7.01)"/><path fill="#453717" d="M4.093 6.364s-.016.027-.02.03c-.003.002-.023.016-.026.016l-.021.001h-.018l-.015-.002L4 6.46l.086.003z" mask="url(#h)" transform="translate(8 7.01)"/><path fill="#6a5e46" d="M4.04 6.367h-.048l-.001.006h-.042l-.01.094.099-.001" mask="url(#h)" transform="translate(8 7.01)"/><path fill="#453717" d="M3.994 6.478c0 .003-.002.005-.006.005-.002 0-.005-.002-.005-.005v-.09c0-.003.002-.005.005-.005.004 0 .006.002.006.004z" mask="url(#h)" transform="translate(8 7.01)"/><path fill="#453717" d="M4 6.478c0 .003-.002.005-.005.005s-.006-.002-.006-.005v-.09c0-.003.003-.005.006-.005S4 6.385 4 6.387z" mask="url(#h)" transform="translate(8 7.01)"/><path fill="#453717" d="M4.007 6.478c0 .003-.002.005-.005.005s-.006-.002-.006-.005v-.09c0-.003.003-.005.006-.005s.005.002.005.004zm.011 0c0 .003-.002.005-.006.005s-.005-.002-.005-.005v-.09c0-.003.002-.005.005-.005s.006.002.006.004z" mask="url(#h)" transform="translate(8 7.01)"/><path fill="#453717" d="M4.028 6.478c0 .003-.003.005-.006.005s-.005-.002-.005-.005v-.09c0-.003.002-.005.005-.005s.006.002.006.004z" mask="url(#h)" transform="translate(8 7.01)"/><path fill="#453717" d="M4.036 6.478c0 .003-.002.005-.006.005s-.005-.002-.005-.005v-.09c0-.003.002-.005.005-.005s.006.002.006.004z" mask="url(#h)" transform="translate(8 7.01)"/><path fill="#2f2311" d="M3.995 6.458v-.004L4 6.358l-.017.003-.003.05-.017.003-.007-.011h-.042l-.014.004v.045zm-.24-.077-.009.001v.004h-.01v-.008h-.008V6.37h-.01l-.002-.023H3.71v-.03l-.007-.001.002.066h-.003v.008h.004l-.002.021.098.005-.003-.036h-.01v.005l-.025-.002v.008h-.007z" mask="url(#h)" transform="translate(8 7.01)"/><path fill="#866d46" d="m3.883 6.393-.09-.004.014.1.078-.007z" mask="url(#h)" transform="translate(8 7.01)"/><path fill="#acacad" d="M3.948 6.274c-.012-.027-.03-.044-.05-.044-.02 0-.037.017-.049.044a.127.127 0 0 0 0 .028c.012-.027.03-.044.05-.044.02 0 .037.017.049.044z" mask="url(#h)" transform="translate(8 7.01)"/><path fill="#866d46" d="m3.918 6.4-.001-.016.011-.015-.03-.005v.015l-.016.001-.003.009h-.01l-.008.002-.005.016-.008-.01.003.067.097-.002V6.4" mask="url(#h)" transform="translate(8 7.01)"/><path fill="#2f2311" d="m3.803 6.488.1-.007-.003-.093-.094.001" mask="url(#h)" transform="translate(8 7.01)"/><path fill="#453717" d="M3.697 6.43v-.043l-.01.002H3.68l-.005-.004v.003l-.026.001-.003-.01-.016.003v.006l-.02.001-.003-.008H3.6v-.047h-.008l-.004.057H3.58v-.007h-.01l-.001.013-.012-.001v-.014h-.01l-.002.015-.066.002.003-.067-.01-.002v.067s-.042-.016-.05-.025l.026.037s.086.02.248.021" mask="url(#h)" transform="translate(8 7.01)"/><path fill="#895f33" d="m3.43 6.394-.123-.037c-.108-.033-.16-.057-.17-.06-.01-.003-.025 0 .02.02.046.021.219.08.247.08.03 0 .031.001.05-.003.02-.003-.024 0-.024 0" mask="url(#h)" transform="translate(8 7.01)"/><path fill="#ffe600" d="m4.574 6.4.013.017h-.512L3.7 6.412s-.163-.004-.243-.012a1.352 1.352 0 0 1-.17-.032c0 .025.017.038.03.051a.035.035 0 0 0 .01.005c.03.013.113.028.14.033.03.005.137.012.21.011l.814-.004v-.007c.03.005.393-.023.393-.023a.426.426 0 0 0 .014-.039l-.325.005z" mask="url(#h)" transform="translate(8 7.01)"/><path fill="#565759" d="M3.437 6.406a.05.05 0 1 1 0 .1.05.05 0 0 1 0-.1" mask="url(#h)" transform="translate(8 7.01)"/><path fill="#565759" d="m3.454 6.481.003.008c-.015.018-.029.01-.029.01v-.067a.01.01 0 0 0-.003-.017.01.01 0 0 0-.004.017v.066s-.013.008-.028-.009l.002-.008-.02.003.008.018.003-.005s.022.018.038.018h.002c.016 0 .037-.018.037-.018l.004.005.008-.018z" mask="url(#h)" transform="translate(8 7.01)"/><path fill="#ed1c24" d="m3.369 6.466.01.01-.002.007c0 .002.002.005.005.007l.001.003h.001c.022.025.08.064.08.064l.253.009h.004s1.145-.01 1.145-.017-.01-.063-.01-.063-.006-.006-.012-.004c-.015.004-.098.013-.157.02l-.048.006c-.044.008-.006 0-.006 0s-.447.006-.51.004c-.061-.002-.422.002-.422.002s-.226-.02-.245-.02c-.019 0-.056-.018-.071-.02a.049.049 0 0 1-.016-.008" mask="url(#h)" transform="translate(8 7.01)"/><path fill="#034ea2" d="M4.885 6.435s-.364.033-.393.027v.009l-.814.005a1.408 1.408 0 0 1-.21-.014c-.027-.006-.11-.024-.14-.039l-.014.003s.032.032.054.048a.046.046 0 0 0 .017.01c.015.001.053.02.071.02.019 0 .246.02.246.02s.36-.004.422-.003c.062.002.509-.003.509-.003s-.037.007.006 0c.043-.008.185-.021.205-.027.006-.002.013-.01.02-.018a.302.302 0 0 0 .026-.047z" mask="url(#h)" transform="translate(8 7.01)"/><path fill="#fd0" d="m4.074 6.445.001-.099s.334.02.495.017v.077s-.439.01-.496.005" mask="url(#h)" transform="translate(8 7.01)"/><path fill="#9b7e39" d="m4.36 6.572.04.01.042-.01-.017-.09h-.053z" mask="url(#h)" transform="translate(8 7.01)"/><path fill="#9b7e39" d="m4.382 6.482-.06.085.02.014.035-.005.045-.095z" mask="url(#h)" transform="translate(8 7.01)"/><path fill="#9b7e39" d="m4.294 6.56.009.022h.027l.064-.1-.038.001-.062.078z" mask="url(#h)" transform="translate(8 7.01)"/><path fill="#9b7e39" d="m4.272 6.532.003.04.027.01.07-.1-.06.004zm.154.045.03.005.019-.016-.062-.083-.038-.001z" mask="url(#h)" transform="translate(8 7.01)"/><path fill="#9b7e39" d="m4.453 6.581.026.001.01-.023-.06-.075-.04-.002z" mask="url(#h)" transform="translate(8 7.01)"/><path fill="#9b7e39" d="m4.482 6.583.028-.01.005-.047-.033-.04c-.023 0-.046-.002-.067-.003z" mask="url(#h)" transform="translate(8 7.01)"/><g stroke-width=".133"><path stroke="#d0c9ce" d="m4.043 5.924.007.008m-.01-.008a.02.02 0 0 0 .005.011" mask="url(#h)" transform="translate(8 7.01)"/><path stroke="#fff" d="M3.903 5.899a.016.016 0 0 1-.01.005m.006-.004c-.005.002-.009.006-.015.006" mask="url(#h)" transform="translate(8 7.01)"/><path stroke="#d0c9ce" d="M4.211 5.948s-.072-.032-.097-.073c0 0 .003-.008 0-.014l-.002-.003s.012.013.024.012c0 0-.002-.015-.008-.022m.092.043s-.061.003-.1-.003" mask="url(#h)" transform="translate(8 7.01)"/><path stroke="#d0c9ce" d="M4.221 5.902s-.014 0-.024.004c-.01.003-.04.005-.05-.007-.011-.01-.018-.012-.026-.016m.083.057a.25.25 0 0 1-.1-.072m.088.085s-.046-.013-.1-.092m.091.096c-.003-.003-.097-.041-.1-.1m.093.103s-.053-.014-.1-.1m.099.103s-.079-.057-.1-.1m.077.099c-.001-.003-.058-.062-.066-.1m.034.097s-.031-.07-.02-.1" mask="url(#h)" transform="translate(8 7.01)"/><path stroke="#d0c9ce" d="M4.1 5.958c0-.003-.004-.008.002-.034s-.002-.046-.005-.051" mask="url(#h)" transform="translate(8 7.01)"/><path stroke="#d0c9ce" d="M4.083 5.964c0-.002 0-.027.01-.044.01-.018.014-.036-.001-.056" mask="url(#h)" transform="translate(8 7.01)"/><path stroke="#d0c9ce" d="M4.074 5.961s-.006-.019.013-.045l.002-.023s.007.002.005-.003l-.005-.014" mask="url(#h)" transform="translate(8 7.01)"/><path stroke="#d0c9ce" d="M4.029 5.935a.156.156 0 0 0 .004-.026.185.185 0 0 0-.001-.009l.002.01.003-.005c.002-.006.005-.007.006-.013a.04.04 0 0 1 .004-.014c0-.002.003.003.004 0a.08.08 0 0 0 .008-.02l.003-.012.002-.011s.006.006.01.006h.01c.003 0 .012-.003.015 0l.013.007s.004.005.007.006c.003.002.008-.003.01-.005m-.066.072c.006.002.02.009.021.013-.005-.011.014-.02.02-.027a.049.049 0 0 0 .008-.03" mask="url(#h)" transform="translate(8 7.01)"/><path stroke="#d0c9ce" d="M4.06 5.872a.445.445 0 0 1 .056.059c.002-.012.001-.024.006-.037.003-.006.014-.013.012-.021" mask="url(#h)" transform="translate(8 7.01)"/><path stroke="#d0c9ce" d="m4.063 5.844.015.034c.005.01.009.022.016.03a.095.095 0 0 0 .024.02c.008.004.016.01.024.013.006-.005.008-.016.008-.023 0-.008-.01-.02-.005-.027" mask="url(#h)" transform="translate(8 7.01)"/><path stroke="#d0c9ce" d="M4.07 5.85c.004.031.02.048.048.065.01.006.03.017.042.015.017-.002.008-.022.008-.032" mask="url(#h)" transform="translate(8 7.01)"/><path stroke="#d0c9ce" d="M4.096 5.869c.007.008.02.011.03.018.006.006.013.014.02.019.004-.003.004-.009.002-.011" mask="url(#h)" transform="translate(8 7.01)"/><path stroke="#d0c9ce" d="M4.083 5.85c.001.01.009.025.014.033a.11.11 0 0 0 .025.031.056.056 0 0 0 .024.013c.01 0 .009-.014.005-.022.006.013.024.008.032.012" mask="url(#h)" transform="translate(8 7.01)"/><path stroke="#d0c9ce" d="M4.057 5.895c.015 0 .028-.008.042-.01a.08.08 0 0 1 .032-.002c.008.002.017.008.025.008.003-.008-.002-.02-.005-.027" mask="url(#h)" transform="translate(8 7.01)"/><path stroke="#d0c9ce" d="M4.104 5.862c.011.01.024.019.04.024.005.002.013.002.018.006.005.002.008.006.013.01m-.053-.027c.014.004.027.008.03.022m-.066.003-.018.027m.022-.023v.017m.001-.011c-.002.008-.005.017-.005.025l.003-.001m.011-.019-.002.013m-.013-.04.013.02c.004.006.007.009.008.015m.001-.013a.02.02 0 0 1-.005-.009m-.001-.003a.034.034 0 0 1 .007.012m-.006-.014a.031.031 0 0 0 .005.008m0 .016a.03.03 0 0 1 .004.006M4.11 5.91c.005.006.005.012.007.02m.005.002c-.005-.006-.002-.012-.005-.017m.013.003a.025.025 0 0 0 .014.008m-.009-.002c.004.004.016.006.017-.001m-.017-.012a.04.04 0 0 0 .017.014m-.002-.018c.01-.002.018.006.028.008m-.026-.021c.004.005.016.02.023.019m-.012-.009c.003.005.019.006.025.009m-.078-.049.02.01c.006.002.013.006.02.004" mask="url(#h)" transform="translate(8 7.01)"/><path stroke="#d0c9ce" d="M4.11 5.867c.01-.001.018.009.029.008a.046.046 0 0 0-.012-.005" mask="url(#h)" transform="translate(8 7.01)"/><path stroke="#d0c9ce" d="M4.108 5.866c.012.003.012.003.02.011v-.002m-.024-.011c.005.004.014.007.017.013m-.016-.011c0 .004.003.007.008.009m-.008 0a.017.017 0 0 1-.008-.01m-.004 0c.019.01.023.031.028.048m.024-.038c.015.003.02.013.033.02 0-.003-.002-.002-.003-.003" mask="url(#h)" transform="translate(8 7.01)"/><path stroke="#d0c9ce" d="M4.13 5.871c.012.005.024.005.034.014.004.003.007.008.011.01l.002-.003m-.059-.005a.128.128 0 0 1 .02.02c.003.004.005.01.01.013m-.078-.05c.008.006.026.007.025.02 0 .005-.007.009-.007.013-.001.005.003.01.003.015" mask="url(#h)" transform="translate(8 7.01)"/><path stroke="#d0c9ce" d="M4.076 5.886c.003.006.01.01.004.017l.002-.002m-.014-.034c.012.009.025.014.035.025.005.005.01.02.016.021m-.046-.028c.018.005.02-.01.031-.017m-.017.019c.007-.007.004-.023.016-.026m-.027.021c.012-.01.016-.023.034-.025m-.05.024c.007.003.013.007.013.015m-.011-.01c.002.003.005.006.005.01a.023.023 0 0 1-.004-.002" mask="url(#h)" transform="translate(8 7.01)"/><path stroke="#d0c9ce" d="m4.056 5.884.006.008c.003.003.002.005.003.004m.004-.006c-.004.008-.001.017 0 .023m-.008.004c.002.004.005.024-.003.022m-.06-.033c.006 0 .006-.005.01-.007.005-.003.01-.003.016-.003m-.01.007c.002.003.002.006 0 .006m-.003-.005v.005m-.002-.006-.001.006" mask="url(#h)" transform="translate(8 7.01)"/><path stroke="#d0c9ce" d="M4.025 5.876a.092.092 0 0 0-.012.025h.003m.01-.019a.023.023 0 0 0-.005.016m.015-.019-.016.011m-.032.039c-.004-.005-.004-.01-.005-.023-.003 0-.007-.018-.005-.029 0 .02-.008.012-.01.006a.155.155 0 0 1-.012-.047c-.002.01-.004.008-.007.008-.005 0-.01.004-.016.005s-.012-.007-.018-.006c-.005 0-.009.01-.014.012-.004.002-.008 0-.013.002" mask="url(#h)" transform="translate(8 7.01)"/><path stroke="#d0c9ce" d="M4.025 5.88c-.01.002-.022.002-.03.009v.002m-.143-.003c.017.002.034.008.052.007.008 0 .016-.003.025-.005.007-.003.016-.003.023-.009" mask="url(#h)" transform="translate(8 7.01)"/><path stroke="#d0c9ce" d="M3.854 5.946c.013 0 .028-.01.04-.016a.137.137 0 0 0 .041-.026.046.046 0 0 0 .012-.025c.002-.01.006-.02.007-.03" mask="url(#h)" transform="translate(8 7.01)"/><path stroke="#d0c9ce" d="M3.87 5.942c.009-.002.016-.017.024-.023.008-.007.017-.01.026-.014a.138.138 0 0 0 .05-.041" mask="url(#h)" transform="translate(8 7.01)"/><path stroke="#d0c9ce" d="M3.882 5.952c.008-.01.02-.012.03-.018a.258.258 0 0 0 .07-.08" mask="url(#h)" transform="translate(8 7.01)"/><path stroke="#d0c9ce" d="M3.893 5.955a.845.845 0 0 0 .058-.04.16.16 0 0 0 .026-.028c.007-.008.01-.022.016-.03" mask="url(#h)" transform="translate(8 7.01)"/><path stroke="#d0c9ce" d="M3.9 5.959a.642.642 0 0 0 .057-.05c.016-.015.035-.026.043-.05" mask="url(#h)" transform="translate(8 7.01)"/><path stroke="#d0c9ce" d="M3.908 5.962a.186.186 0 0 1 .062-.055c.019-.011.036-.025.038-.045" mask="url(#h)" transform="translate(8 7.01)"/><path stroke="#d0c9ce" d="M3.936 5.964c0-.01.009-.018.014-.026l.023-.03c.008-.013.013-.027.02-.04" mask="url(#h)" transform="translate(8 7.01)"/><path stroke="#d0c9ce" d="M3.963 5.959c.01-.02.01-.043.014-.063l-.001-.015c0-.008.005-.015.007-.022" mask="url(#h)" transform="translate(8 7.01)"/><path stroke="#d0c9ce" d="M3.975 5.96c.002-.005-.002-.01-.002-.015 0-.005.003-.008.004-.013.002-.009 0-.02 0-.03 0-.008-.004-.019-.001-.028.002-.007.012-.011.02-.014" mask="url(#h)" transform="translate(8 7.01)"/><path stroke="#d0c9ce" d="M4.003 5.964c-.008-.024-.027-.044-.026-.07 0-.01.002-.025.014-.03m.006.089a.11.11 0 0 0 0-.064" mask="url(#h)" transform="translate(8 7.01)"/><path stroke="#d0c9ce" d="M4.018 5.955c-.008-.016-.024-.026-.02-.045.002-.01.008-.017.01-.027" mask="url(#h)" transform="translate(8 7.01)"/><path stroke="#d0c9ce" d="M4.023 5.932a.042.042 0 0 1-.022.014c-.01.001-.021-.002-.028.005-.006-.007-.003-.025-.003-.033 0-.011-.002-.023.003-.034.009-.019.031-.03.057-.033" mask="url(#h)" transform="translate(8 7.01)"/><path stroke="#d0c9ce" d="M4.027 5.855c-.011.018-.037.008-.05.024-.014.014-.016.041-.012.058.005-.004.01-.005.017-.009" mask="url(#h)" transform="translate(8 7.01)"/><path stroke="#d0c9ce" d="M4.002 5.841c-.004.01-.017.016-.024.025a.043.043 0 0 0-.011.025c-.003.009-.004.017 0 .026.003.008.008.016.01.024" mask="url(#h)" transform="translate(8 7.01)"/><path stroke="#d0c9ce" d="M4.002 5.837c-.002.019-.032.035-.048.048-.007.006-.013.014-.01.023.001.006.008.01.011.017l.005.012a.056.056 0 0 1 .019-.009c.007-.002.018-.002.023-.007m-.04-.064c-.02.018-.057.027-.068.052" mask="url(#h)" transform="translate(8 7.01)"/><path stroke="#d0c9ce" d="M3.971 5.88c-.007.007-.014.015-.022.02-.01.005-.02.004-.031.004m-.011-.001c.011-.006.054-.006.056-.022m-.026.023c.016-.001.03-.002.038-.015m-.031-.009c-.003.008-.008.017-.009.024m.01-.029c.01.01 0 .03.012.038" mask="url(#h)" transform="translate(8 7.01)"/><path stroke="#d0c9ce" d="M3.986 5.85a.244.244 0 0 1-.025.026c-.006.005-.015.01-.018.018-.004.01 0 .021.003.03" mask="url(#h)" transform="translate(8 7.01)"/><path stroke="#d0c9ce" d="M3.917 5.87c.008.008.02.002.03.003.007 0 .015.002.025.001.01 0 .017-.003.026.001.005.003.008.01.016.01m-.038.003a.092.092 0 0 1-.026.012m-.007-.018-.004.01m-.006.004c.009-.015.02-.019.034-.027" mask="url(#h)" transform="translate(8 7.01)"/><path stroke="#d0c9ce" d="M3.998 5.872c0 .004-.002.009 0 .012L4 5.881m-.008-.016c0 .01.002.012.006.021l-.004-.005m-.002-.014c-.002.005-.002.011 0 .014m-.012-.007a.047.047 0 0 1 .012-.012m-.002-.001a.046.046 0 0 1-.014.014m.01-.015a.02.02 0 0 1-.013.015m.01-.012a.034.034 0 0 1-.017.011m.009-.01a.055.055 0 0 1-.013.01m.006-.008c-.001.003-.005.005-.01.005m.038.029c.002-.009.018-.01.026-.008M4 5.903a.018.018 0 0 0 .007-.008m-.025.003c0 .01.001.018-.005.026m-.001.006v-.01m.003 0c0 .002 0 .005-.002.007m-.002-.008-.001.005m-.011.003.001-.004m.004-.003v.006m.008-.034c0 .01 0 .026-.009.034m.032-.062c-.01.013-.042.024-.04.042m.008-.028a.015.015 0 0 1-.007.006m.013-.008-.01.014m.041-.013c-.015.005-.029.01-.032.025m-.009-.014c.002.014-.016.026-.029.03m.04-.025c-.005.006-.013.014-.021.016m-.005.001c-.001.004-.007.008-.01.011m.006-.007c-.004.002-.012.01-.016.007m.005-.021c-.002.006-.009.009-.014.012m.008-.005a.12.12 0 0 1-.024.006" mask="url(#h)" transform="translate(8 7.01)"/><path stroke="#fff" d="M3.916 5.904c-.003.005-.009.007-.015.008" mask="url(#h)" transform="translate(8 7.01)"/><path stroke="#d0c9ce" d="M3.934 5.878a.078.078 0 0 0-.04.014" mask="url(#h)" transform="translate(8 7.01)"/><path stroke="#fff" d="M3.902 5.904c-.005.002-.012.006-.017.004m-.053.009c.016-.011.038-.017.056-.022a.056.056 0 0 0 .024-.01l.02-.014" mask="url(#h)" transform="translate(8 7.01)"/><path stroke="#d0c9ce" d="M3.914 5.906H3.9" mask="url(#h)" transform="translate(8 7.01)"/></g><g mask="url(#h)" transform="translate(8 7.01)"><path fill="#2f3b30" d="M4.075 6.889s.043-.069.206-.082c.164-.013.336-.053.336-.103 0-.05-.095-.079-.198-.095 0 0 .31-.063.31-.155s-.327-.143-.327-.143.498-.057.533-.134c.034-.076-.224-.166-.301-.192-.077-.027-.198-.03-.198-.03l.052.032-.103-.013s.05.043.189.08c.102.026.284.081.232.123-.051.042-.507.11-.507.11v.059s.327.06.318.113c-.009.053-.292.113-.292.113l-.017.053s.197.04.189.082c-.009.042-.215.063-.215.063s-.25.034-.215.11"/><path stroke="#fff" stroke-width=".133" d="M4.075 6.889s.043-.069.206-.082c.164-.013.336-.053.336-.103 0-.05-.095-.079-.198-.095 0 0 .31-.063.31-.155s-.327-.143-.327-.143.498-.057.533-.134c.034-.076-.224-.166-.301-.192-.077-.027-.198-.03-.198-.03l.052.032-.103-.013s.05.043.189.08c.102.026.284.081.232.123-.051.042-.507.11-.507.11v.059s.327.06.318.113c-.009.053-.292.113-.292.113l-.017.053s.197.04.189.082c-.009.042-.215.063-.215.063s-.25.034-.215.11"/></g><g mask="url(#h)" transform="translate(8 7.01)"><path fill="#2f3b30" d="M4.8 6.889s-.043-.069-.206-.082c-.163-.013-.335-.053-.335-.103 0-.05.094-.079.197-.095 0 0-.31-.063-.31-.155s.328-.143.328-.143-.5-.057-.533-.134c-.035-.076.223-.166.3-.192a.812.812 0 0 1 .198-.03l-.052.032.104-.013s-.051.043-.19.08c-.102.026-.283.081-.232.123.052.042.508.11.508.11v.059s-.327.06-.319.113c.01.053.293.113.293.113l.017.053s-.198.04-.19.082c.01.042.216.063.216.063s.249.034.215.11"/><path stroke="#fff" stroke-width=".133" d="M4.8 6.889s-.043-.069-.206-.082c-.163-.013-.335-.053-.335-.103 0-.05.094-.079.197-.095 0 0-.31-.063-.31-.155s.328-.143.328-.143-.5-.057-.533-.134c-.035-.076.223-.166.3-.192a.812.812 0 0 1 .198-.03l-.052.032.104-.013s-.051.043-.19.08c-.102.026-.283.081-.232.123.052.042.508.11.508.11v.059s-.327.06-.319.113c.01.053.293.113.293.113l.017.053s-.198.04-.19.082c.01.042.216.063.216.063s.249.034.215.11"/></g><path fill="#64472d" d="M4.003 6.405h.075v-.579h-.075z" mask="url(#h)" transform="translate(8 7.01)"/><path fill="#64472d" d="M4.03 5.89h.02v-.053h-.02z" mask="url(#h)" transform="translate(8 7.01)"/><path fill="#64472d" d="M3.986 5.837a.05.05 0 1 1 .1 0 .05.05 0 0 1-.1 0" mask="url(#h)" transform="translate(8 7.01)"/><path fill="#b1babf" d="M4.44 7.212s-.176.032-.332.032c-.156 0-.305-.04-.305-.04-.767-.214-1.376-1.144-1.376-2.267 0-.394.087-.783.212-1.108a2.05 2.05 0 0 1 .822-1.022s.349-.217.65-.22a1.28 1.28 0 0 1 .723.234c.578.367.98 1.173.98 2.11 0 1.137-.593 2.084-1.375 2.28m.473-4.619s-.35-.217-.808-.212c-.335.004-.717.196-.717.196-.384.23-.699.636-.895 1.136-.14.354-.22.753-.22 1.184 0 1.226.682 2.208 1.534 2.442 0 0 .126.055.3.055.173 0 .332-.022.332-.022.869-.215 1.554-1.22 1.554-2.462 0-1.611-1.246-2.42-1.08-2.317" mask="url(#h)" transform="translate(8 7.01)"/><path fill="#c69024" d="M3.374 2.62c-.64.387-1.086 1.257-1.086 2.27 0 1.199.626 2.199 1.458 2.43l-.023.046c-.841-.244-1.472-1.26-1.472-2.476 0-1.02.441-1.899 1.08-2.3l.043.031zm1.512.004c.641.386 1.088 1.257 1.088 2.27 0 1.2-.627 2.2-1.46 2.431l.022.046c.843-.244 1.475-1.26 1.475-2.477 0-1.02-.444-1.9-1.085-2.3l-.005-.004-.045.03z" mask="url(#h)" transform="translate(8 7.01)"/><path fill="#c69024" d="M3.454 2.83c-.583.355-.99 1.157-.99 2.088 0 1.104.571 2.025 1.33 2.238l.013.057-.034-.015c-.767-.225-1.342-1.16-1.342-2.28 0-.938.404-1.747.987-2.117l.004-.003.042.027zm1.453-.253a.356.356 0 0 1 .005.004l-.112.242-.004-.003a1.324 1.324 0 0 0-.693-.202c-.264.004-.56.16-.63.2.023-.056-.12-.241-.12-.241l.031-.018s.382-.223.716-.227a1.49 1.49 0 0 1 .807.245" mask="url(#h)" transform="translate(8 7.01)"/><path fill="#c69024" d="M4.802 2.83c.585.355.992 1.157.992 2.09 0 1.103-.571 2.024-1.33 2.237v.049l.03-.01c.763-.23 1.334-1.162 1.334-2.277 0-.939-.405-1.748-.989-2.118l-.034-.02-.012.044z" mask="url(#h)" transform="translate(8 7.01)"/><path fill="#c69024" d="M4.95 2.603h-.003c-.053.027-.097.09-.114.169a.33.33 0 0 0-.007.078s-.06-.032-.06-.037c0-.02.001-.042.006-.065.02-.088.073-.159.133-.178zm-1.651.007c.053.026.097.09.114.168a.33.33 0 0 1 .008.078s.06-.032.06-.037a.272.272 0 0 0-.007-.064c-.02-.088-.072-.159-.132-.178zm1.237 4.764s-.013-.01-.029-.027a.183.183 0 0 0-.054-.11h-.008a.213.213 0 0 1-.006-.09h-.004a1.173 1.173 0 0 1-.616-.006l-.016.001a.16.16 0 0 1 .001.095s-.038.03-.052.098a.315.315 0 0 1-.03.033l.025.007v.004c-.002.066.06.078.1.078.014.083.066.07.093.057l-.005.008c.004.056.033.06.065.088.003.003.024.016.03.026h.002c.03.041.053.148.092.148h.01c.04 0 .062-.106.092-.148.007-.01.028-.023.03-.026.033-.027.062-.032.066-.088l-.005-.008c.027.013.08.026.092-.057.04 0 .101-.011.101-.076z" mask="url(#h)" transform="translate(8 7.01)"/><path fill="#c69024" d="M4.57 7.361c-.045-.025-.082-.085-.092-.155a.24.24 0 0 1-.002-.061l-.049-.005a.228.228 0 0 0-.002.083c.012.079.058.145.109.164zm-.88-.002a.226.226 0 0 0 .091-.155.24.24 0 0 0 .001-.062l.05-.005a.227.227 0 0 1 .002.084c-.012.078-.058.144-.11.163z" mask="url(#h)" transform="translate(8 7.01)"/><path fill="#452c25" d="M2.947 1.346s-.087.202-.04.222c.047.02.167-.012.269-.194.102-.182-.06-.114-.06-.114zm.538.134s-.015.266 0 .286c.014.02.149.02.156-.179.007-.197-.03-.205-.03-.205l-.13.09" mask="url(#h)" transform="translate(8 7.01)"/><path fill="#452c25" d="M3.565 1.16s-.094.298-.004.357c.091.06.164-.293.168-.372.003-.08-.164.016-.164.016zm.065.38s.018.277.069.289c.05.012.134-.08.134-.15 0-.072-.087-.238-.087-.238l-.12.087" mask="url(#h)" transform="translate(8 7.01)"/><path fill="#452c25" d="M3.632 1.208s-.094.297-.003.356c.09.06.163-.293.167-.372.004-.079-.164.016-.164.016M3.64.732s-.138.142-.135.221c.004.08.204-.106.222-.142C3.745.775 3.64.73 3.64.73z" mask="url(#h)" transform="translate(8 7.01)"/><path fill="#452c25" d="M3.545.652s-.11.202-.08.265.134-.047.185-.119c.051-.07-.105-.146-.105-.146M3.3.687s-.073.273-.018.3c.106.055.175-.188.185-.28.01-.103-.167-.02-.167-.02" mask="url(#h)" transform="translate(8 7.01)"/><path fill="#452c25" d="M3.457.685s-.138.142-.135.221c.004.08.204-.107.222-.142.018-.036-.087-.08-.087-.08zm-2.356.02S.816.848.791.909C.766.97 1.651.816 2.138.472L1.941.355z" mask="url(#h)" transform="translate(8 7.01)"/><path fill="#452c25" d="M1.438.756s-.52.194-.144.202c0 0 .744-.155 1.14-.458l-.1-.149z" mask="url(#h)" transform="translate(8 7.01)"/><path fill="#452c25" d="M2.202.238s-.55.28-.487.312c.061.032.45-.055.654-.182.203-.126.29-.198.29-.198L2.417.103zm-.208.616s-.196.164-.173.183c.023.019.424-.045.736-.29l-.04-.144-.527.243" mask="url(#h)" transform="translate(8 7.01)"/><path fill="#452c25" d="M1.653.823s-.188.15-.147.162c.041.012.2.125.905-.335l.084-.051L2.37.423zM1.508.282C.915.489.32.902.32.902c.058-.02 1.526-.61 1.526-.61m.963.915s-.128.194-.102.218c.025.024.182.099.363-.15.182-.25-.17-.21-.17-.21z" mask="url(#h)" transform="translate(8 7.01)"/><path fill="#452c25" d="M2.665 1.04s-.19.239-.15.27c.04.032.257.028.42-.201.164-.23.004-.012.004-.012l-.047-.21z" mask="url(#h)" transform="translate(8 7.01)"/><path fill="#452c25" d="M2.481.926s-.185.222-.167.258c.018.035.27.023.476-.194.208-.218.04-.297.04-.297l-.345.222" mask="url(#h)" transform="translate(8 7.01)"/><path fill="#452c25" d="m2.153.936-.119.165s.033.154.44-.127c.407-.281.386-.257.386-.257l-.22-.04zM.856.7.598.816S.54.867.69.87C.842.874 1.155.832 1.7.523c.246-.14.402-.273.402-.273L1.904.177z" mask="url(#h)" transform="translate(8 7.01)"/><path fill="#452c25" d="M.414.863S.785.823.933.725c0 0-.03.046.16-.029L2.17.17 2.135.1S.96.603.87.631a5.707 5.707 0 0 0-.457.232zm2.696.474s-.036.295.008.306c.043.01.167-.082.218-.262.05-.18-.2-.158-.2-.158l-.037.103" mask="url(#h)" transform="translate(8 7.01)"/><path fill="#452c25" d="M3.303 1.463s-.022.215.007.235.102.028.19-.142c.086-.17.047-.107.047-.107l-.197-.107z" mask="url(#h)" transform="translate(8 7.01)"/><path fill="#452c25" d="M3.357 1.089s-.16.348-.069.344c.091-.004.215-.265.233-.325.018-.059-.164-.02-.164-.02z" mask="url(#h)" transform="translate(8 7.01)"/><path fill="#452c25" d="M3.343 1.086s-.06.383.026.35c.086-.032.135-.32.136-.383.002-.063-.162.033-.162.033" mask="url(#h)" transform="translate(8 7.01)"/><path fill="#452c25" d="M3.474 1.124s-.095.297-.004.357c.091.059.164-.293.167-.372.004-.08-.163.015-.163.015m-.373-.097s-.073.273-.018.3c.107.055.176-.189.185-.28.011-.104-.167-.02-.167-.02M2.423.463S2.18.665 2.21.697c.029.032.312-.024.44-.11.127-.088.178-.136.178-.136L2.609.317z" mask="url(#h)" transform="translate(8 7.01)"/><path fill="#452c25" d="M2.638.258s-.156.126-.127.158c.029.032.309-.083.36-.139.05-.055.047-.114.047-.114z" mask="url(#h)" transform="translate(8 7.01)"/><path fill="#452c25" d="M2.787.234s-.2.178-.15.241c.052.063.346-.218.386-.253.04-.036-.236.012-.236.012" mask="url(#h)" transform="translate(8 7.01)"/><path fill="#452c25" d="M2.703.159 2.278.36s-.36.234-.324.258c.037.023.317-.052.517-.15.2-.1.421-.266.421-.266m-.07.186s-.46.396-.391.435c.069.04.318-.069.526-.259" mask="url(#h)" transform="translate(8 7.01)"/><path fill="#452c25" d="M2.897.499s-.277.459-.248.503c.029.043.218-.103.312-.214.095-.111.169-.275.169-.275" mask="url(#h)" transform="translate(8 7.01)"/><path fill="#452c25" d="M3.03.557s-.282.525-.25.568c.033.044.197.008.295-.198.098-.206.09-.338.09-.338z" mask="url(#h)" transform="translate(8 7.01)"/><path fill="#452c25" d="M3.194.582s-.314.648-.252.71c.062.064.409-.49.425-.568C3.395.586 3.19.57 3.19.57M2.532.155s-.283.134-.225.162c.058.028.324-.091.36-.103.036-.012-.135-.06-.135-.06z" mask="url(#h)" transform="translate(8 7.01)"/><path fill="#452c25" d="M2.576.198s-.174.139-.138.174c.036.036.302-.107.352-.15S2.576.198 2.576.198m.366.012s-.238.32-.165.332c.073.013.35-.206.353-.244.004-.038-.188-.089-.188-.089z" mask="url(#h)" transform="translate(8 7.01)"/><path fill="#452c25" d="M3.048.281s-.254.32-.181.34c.072.02.08-.031.08-.031s.2-.166.214-.21-.105-.103-.105-.103" mask="url(#h)" transform="translate(8 7.01)"/><path fill="#452c25" d="M3.129.356s-.186.321-.139.34c.048.02.124-.058.2-.153.077-.095-.06-.187-.06-.187z" mask="url(#h)" transform="translate(8 7.01)"/><path fill="#452c25" d="M3.176.503s-.11.202-.08.265c.029.063.134-.047.185-.119.05-.07-.105-.146-.105-.146m.045.56s-.072.273-.018.3c.107.055.176-.188.186-.28.01-.103-.168-.02-.168-.02" mask="url(#h)" transform="translate(8 7.01)"/><path fill="#452c25" d="M3.72.694S3.649.67 3.595.67c0 0-.16-.127-.248-.138C3.26.52 3.334.518 3.334.518S3.324.31 3.299.294c0 0-.014-.214-.149-.23-.134-.015-.436.012-.49-.007-.055-.02-.222-.09-.538-.004-.324.087-.961.373-.994.381-.032.008.732-.168.946-.263 0 0 .215-.015.28-.035 0 0-.243.119-.018.067.225-.051.174 0 .174 0s-.021.052.106.024c.127-.028.127 0 .127 0s.145.051.258-.016c0 0 .058.202.131.23 0 0 .086.184.268.22l.105.073.102.034.11-.086" mask="url(#h)" transform="translate(8 7.01)"/><path fill="#452c25" d="M2.23.147s-.726.26-.7.332c.025.071.759-.202.875-.277.116-.075-.164-.06-.164-.06m5.005.654.286.163s.07.057-.084.023C7.295.948 6.968.836 6.352.44 6.073.26 5.985.265 5.985.265l.389.01.872.522z" mask="url(#h)" transform="translate(8 7.01)"/><path fill="#452c25" d="m7.34.726.286.162s.07.058-.083.024C7.39.878 7.063.765 6.446.368c-.279-.18-.054.148-.054.148l.047-.215z" mask="url(#h)" transform="translate(8 7.01)"/><path fill="#452c25" d="M7.816.882S7.474.819 7.35.728c0 0 .022.039-.145-.037 0 0 .064.146-.406-.174-.47-.32-.305-.16-.305-.16l.131-.033.8.318c.08.03.39.24.39.24zM6.03 1.01l.115.163s-.038.153-.435-.145C5.313.731 5.334.755 5.334.755l.22-.03.48.273m-.519.094s.184.24.143.27c-.04.03-.258.018-.414-.218-.155-.236-.003-.012-.003-.012L5.255.75l.264.33" mask="url(#h)" transform="translate(8 7.01)"/><path fill="#452c25" d="M5.704.98s.178.23.159.264c-.02.035-.27.013-.47-.213-.199-.226-.03-.298-.03-.298l.338.236M6.716.845s.506.218.13.204c0 0-.734-.198-1.115-.524L5.84.383l.871.45" mask="url(#h)" transform="translate(8 7.01)"/><path fill="#452c25" d="M6.982.782s.273.167.294.23c.02.063-.851-.163-1.31-.546l.204-.1zm-.796.151s.198.163.176.182c-.023.018-.424-.042-.74-.284L5.66.686l.53.24" mask="url(#h)" transform="translate(8 7.01)"/><path fill="#452c25" d="M6.525.92s.195.134.155.148c-.04.014-.194.135-.921-.291L5.673.73 5.79.548l.736.36" mask="url(#h)" transform="translate(8 7.01)"/><path fill="#452c25" d="M5.779.52s.236.212.206.242-.312-.036-.436-.128c-.124-.093-.214-.21-.214-.21l.263-.058z" mask="url(#h)" transform="translate(8 7.01)"/><path fill="#452c25" d="m5.497.167.43.256s.352.248.315.27c-.037.023-.314-.064-.51-.17-.197-.108-.425-.339-.425-.339M5.225 1.38s.08.206.032.224c-.048.018-.166-.019-.262-.205-.095-.186.05-.089.05-.089z" mask="url(#h)" transform="translate(8 7.01)"/><path fill="#452c25" d="M5.368 1.248s.12.199.094.222c-.026.022-.185.091-.358-.166-.173-.256.178-.202.178-.202z" mask="url(#h)" transform="translate(8 7.01)"/><path fill="#452c25" d="M5.008.35s.41.793.377.835c-.035.043-.197 0-.288-.21a4.504 4.504 0 0 1-.165-.481zm.478.202s.343.291.273.328c-.07.036-.207-.017-.407-.215-.2-.198.131-.125.131-.125" mask="url(#h)" transform="translate(8 7.01)"/><path fill="#452c25" d="M5.32.557s.245.45.215.492c-.03.042-.215-.112-.305-.227a1.385 1.385 0 0 1-.16-.28" mask="url(#h)" transform="translate(8 7.01)"/><path fill="#452c25" d="M5.078.385s.174.327.126.345C5.156.748 5.082.666 5.01.568c-.074-.098.068-.183.068-.183m.004.67s.063.276.007.302c-.108.05-.169-.197-.175-.289-.007-.103.168-.013.168-.013m-.217.438s.014.206-.015.225c-.03.018-.103.023-.184-.15-.082-.174-.044-.11-.044-.11l.2-.098.043.113" mask="url(#h)" transform="translate(8 7.01)"/><path fill="#452c25" d="M5.059 1.449s.029.215-.015.221c-.044.006-.165-.066-.212-.199-.046-.132.204-.106.204-.106l.034.077" mask="url(#h)" transform="translate(8 7.01)"/><path fill="#452c25" d="M4.859.774s.224.503.188.574c-.07.14-.275-.306-.336-.48-.069-.195.148-.094.148-.094" mask="url(#h)" transform="translate(8 7.01)"/><path fill="#452c25" d="M4.755.858s.306.553.177.566c-.13.013-.364-.4-.404-.497-.039-.096.227-.069.227-.069" mask="url(#h)" transform="translate(8 7.01)"/><path fill="#452c25" d="M4.736.973s.151.53.054.483c-.097-.047-.214-.446-.23-.532-.016-.086.176.05.176.05zM5.265.22s.233.354.157.365c-.075.01-.35-.237-.353-.278-.002-.041.196-.087.196-.087" mask="url(#h)" transform="translate(8 7.01)"/><path fill="#452c25" d="M5.12.235s.296.404.207.424c-.09.02-.096-.043-.096-.043S4.995.404 4.98.35c-.016-.054.133-.12.133-.12M5.68.207s.279.146.22.172C5.84.404 5.58.274 5.544.26 5.508.248 5.68.207 5.68.207M5.414.24s.203.21.15.282c-.053.07-.336-.266-.375-.309-.038-.043.247.02.247.02M4.92.532s.328.64.267.704c-.06.065-.424-.479-.437-.558S4.923.52 4.923.52" mask="url(#h)" transform="translate(8 7.01)"/><path fill="#452c25" d="M4.732.59s.13.2.123.308c-.007.107-.198-.154-.214-.204-.017-.049.09-.104.09-.104m.27-.103s.102.206.07.268c-.03.062-.17-.125-.218-.198-.048-.074.148-.07.148-.07M4.528.69s.16.177.152.272c-.007.094-.24-.138-.26-.182-.02-.044.108-.09.108-.09M5.563.177s.242.218.204.252c-.037.034-.365-.2-.414-.247-.05-.045.21-.005.21-.005" mask="url(#h)" transform="translate(8 7.01)"/><path fill="#452c25" d="m5.358.161.19.16s.175.118.145.148-.306-.096-.355-.153C5.29.258 5.295.199 5.295.199zm.624.051s.717.29.69.36C6.643.643 5.918.34 5.805.26 5.692.18 5.97.207 5.97.207" mask="url(#h)" transform="translate(8 7.01)"/><path fill="#452c25" d="M6.008.304s.539.303.476.332c-.063.03-.449-.073-.648-.208a3.141 3.141 0 0 1-.283-.21l.245-.057zM4.682.673s.102.206.07.268c-.03.062-.132-.053-.18-.126-.049-.074.11-.142.11-.142m.024.465s.084.3-.009.356c-.092.055-.153-.3-.154-.379 0-.08.163.023.163.023" mask="url(#h)" transform="translate(8 7.01)"/><path fill="#452c25" d="M4.289.643s.3-.132.353-.121c0 0 .062-.016.096-.042L4.85.39s-.053-.363.329-.326c.381.037.884.084.985.1.102.016.474.12.56.163.088.042.654.299.77.34.069.026.22.12.332.193.078.05-.002.015-.002.015S6.905.388 6.581.322c-.081-.016.006.093.006.093s-.211-.083-.298-.12a.507.507 0 0 0-.242-.047.496.496 0 0 1-.193-.026C5.806.206 5.53.196 5.482.19 5.434.185 5.395.174 5.395.174l.02.032-.136-.021-.038.058S5.11.269 5.1.227c-.01-.042-.078.19-.112.258-.033.068-.159.068-.198.11a.439.439 0 0 1-.082.08c-.02.01-.116.068-.15.068-.033 0-.241.015-.241.015L4.265.674zm.394.85s.005.266-.01.285c-.015.019-.15.013-.15-.185s.036-.204.036-.204l.128.096" mask="url(#h)" transform="translate(8 7.01)"/><path fill="#452c25" d="M4.613 1.17s.085.3-.008.356c-.093.056-.154-.299-.155-.378 0-.08.163.022.163.022" mask="url(#h)" transform="translate(8 7.01)"/><path fill="#452c25" d="M4.544 1.215s.085.3-.008.356c-.093.055-.154-.3-.154-.379-.001-.079.162.023.162.023" mask="url(#h)" transform="translate(8 7.01)"/><path fill="#d9c0b9" d="M4.6 2.44s.08.063.07.084c0 0 .081-.053-.024-.13zm-.416-.123h.045l.017.03-.006.026-.039.012s-.063-.011-.048.041c0 0-.03-.096.031-.109m.207.216.049-.035.051.018s-.021.093-.03.1c-.007.007-.009.008-.009.01s-.008-.017-.024-.029c-.015-.012-.031-.063-.037-.064" mask="url(#h)" transform="translate(8 7.01)"/><path fill="#d9c0b9" d="m4.06 2.417-.02-.047.022-.025h.043l.019.007s.034.068.004.104c0 0-.013-.039-.028-.044 0 0-.032-.004-.041.005m-.344.081s-.063.087.018.13c0 0-.005-.08.059-.098zm-.181-.032.087-.015.009.002s-.058.075-.042.094c.015.018-.078-.033-.054-.081" mask="url(#h)" transform="translate(8 7.01)"/><path fill="#bd8759" d="m4.36 1.95.003.19a.198.198 0 0 1-.02.098c-.017.025-.033.04-.06.04-.026 0-.095-.004-.109.02-.013.026-.023.04-.023.04s.043-.025.05 0c.006.026-.017.047-.017.047s.04.007.076-.014c.036-.022.056-.025.073-.025.016 0 .03.018.03.018s.01.054.006.086c-.003.032-.01.097.027.097 0 0 .013-.032.026-.036.013-.004.05.032.043.043 0 0 .006-.068-.007-.108a.65.65 0 0 1-.02-.082s.113.04.123.054c.01.014.036.04.046.036.01-.004 0-.036.02-.044.02-.007.03.011.03.011s-.034-.075-.083-.1c-.05-.026-.083-.026-.103-.047-.02-.022-.023-.047-.026-.072-.003-.025.001-.243.001-.243l-.085-.009zm-.56.412s-.082.063-.091.093c-.01.03-.012.06-.012.06s.074-.01.065.03c0 0 .023.015.061-.074.038-.088.074-.126.101-.123.027.002.061.029.079.047.017.018.04.032.07.023 0 0-.03-.047-.011-.058.02-.01.05-.008.05-.008s-.025-.06-.079-.069c-.054-.008-.091-.023-.078-.047.012-.023.081-.206.081-.206l-.09-.134-.038.117s.012.07.013.087a.973.973 0 0 1-.083.177c-.01.009-.206.085-.229.092a.306.306 0 0 0-.072.066l-.005.043s.032-.027.043-.01c0 0 .023-.03.043-.019.02.011.017.015.017.015s.036-.024.043-.035c.006-.012.008-.01.008-.01l.058-.01" mask="url(#h)" transform="translate(8 7.01)"/><path fill="#452c25" d="M4.715 1.29s-.025-.116-.044-.132c-.018-.015.008-.031.008-.031s-.048-.115-.077-.135c-.029-.02.004-.036.004-.036s-.05-.08-.087-.103c-.037-.024 0-.028 0-.028S4.48.72 4.392.67c0 0-.059-.062-.118-.079a1.638 1.638 0 0 0-.388-.03c-.19.004-.27.135-.27.135l-.012.152.027-.018-.04.19c-.006.043.034.118.036.208l.006.09a.786.786 0 0 0 .065.247c.003.006.005.024.009.018.01-.015.03.054.049.079 0 0 .01.095.02.06.003-.014.033.053.052.095.007.015.043.12.041.072-.001-.052.032.11.032.134l.044-.064.021.072.037-.004-.011.067s.102-.083.105-.115l.007-.055.033-.032.051-.08s.127.1.142.135c.014.036.029.068.029.068l.033-.032.029.071.018-.035.017.05.002-.004.012.033c.008.008.029.012.067-.051.054-.092.05-.163.054-.179.004-.016.026.028.026.028s.047-.087.04-.143c-.007-.055.029-.036.029-.036s.007-.146 0-.182c-.007-.036.025-.028.025-.028s-.01-.174-.021-.194c-.011-.02.025-.024.025-.024z" mask="url(#h)" transform="translate(8 7.01)"/><path fill="#dcddde" d="M3.67.943s-.01-.11.02-.122c0 0 .011-.1.146-.087 0 0 .045-.075.118-.036 0 0 .069-.033.109-.014a.36.36 0 0 1 .092.062s.059-.012.086.01c.027.021.014.093.014.093s.066.05.071.094c.006.044.006.062-.009.074 0 0 .03.024.024.057-.006.034-.033.083-.038.083s.003.087-.026.117c-.029.03-.056.036-.069.04-.013.004-.045.051-.076.057-.031.006-.073-.047-.077-.063-.003-.016-.045-.034-.045-.034s-.094.101-.158.085a.165.165 0 0 1-.1-.079c-.005-.01-.024-.083-.024-.083s-.07-.042-.065-.081a.28.28 0 0 1 .034-.087z" mask="url(#h)" transform="translate(8 7.01)"/><path fill="#d9c0b9" d="M3.115 1.193s-.061-.106.109-.157c0 0 .051.028.063.047 0 0-.03.05-.126.062 0 0-.044.013-.046.048" mask="url(#h)" transform="translate(8 7.01)"/><path fill="#5e3f17" d="M3.247 1.063c-.034.03-.089.03-.1.096v.004c.011-.066.066-.066.1-.095z" mask="url(#h)" transform="translate(8 7.01)"/><path fill="#d9c0b9" d="M3.133 1.18s.068.015.115-.02c.038-.03.051-.016.06-.014 0 0 .003-.036-.02-.063 0 0-.049.042-.084.053-.036.011-.06.007-.07.044" mask="url(#h)" transform="translate(8 7.01)"/><path fill="#dba05f" d="M3.965.847s-.146.025-.185.034a1.049 1.049 0 0 1-.156.018c-.03 0-.078-.025-.11-.031C3.481.86 3.376.85 3.337.89c-.038.04-.063.053-.075.066-.012.013-.06.057-.063.076-.002.02.012.048.037.048.024 0 .075.052.075.063 0 .018.067.037.13.037.114 0 .17-.058.341-.038.093.01.264-.062.295-.106.03-.044.048-.09.018-.142-.03-.05-.122-.045-.13-.047" mask="url(#h)" transform="translate(8 7.01)"/><path stroke="#939598" stroke-width=".001" d="M3.349 1.044c.002 0 .016-.01.03-.057-.004-.013.052-.053.057-.04 0 0 .016 0 .024.003m-.06.068c-.003-.02.09-.046.1-.032" mask="url(#h)" transform="translate(8 7.01)"/><path stroke="#939598" stroke-width=".001" d="M3.464.983s-.017.026-.034.045c0 .005-.036.038-.045.034 0-.002-.015.01-.021.021m.113-.05c.006.016-.095.053-.1.057" mask="url(#h)" transform="translate(8 7.01)"/><path fill="#c6262c" d="M3.482.872S3.48.825 3.436.808C3.39.79 3.34.788 3.322.79 3.304.792 3.3.8 3.278.804 3.255.808 3.23.82 3.23.82s0-.002-.012.02-.032.033-.022.053c.01.02.003.023.016.027.012.004-.006-.007-.006-.007s-.079.025-.06.073c.02.048.039.03.044.03l.045-.022.063-.059.083-.031a.263.263 0 0 1 .043 0z" mask="url(#h)" transform="translate(8 7.01)"/><path fill="#5e3f17" d="M3.91 1.18c.033-.012.066-.047.1-.093" mask="url(#h)" transform="translate(8 7.01)"/><path fill="#dcddde" d="M3.618.74C3.47.75 3.326.651 3.326.651a.228.228 0 0 1-.192-.2C3.06.423 2.998.237 2.998.237c-.112.067-.253 0-.253 0s0-.027-.127 0C2.49.265 2.512.214 2.512.214s.051-.052-.174 0c-.226.051.018-.068.018-.068-.066.02-.28.036-.28.036-.079.003-.159.042-.246.067-.054.016-.146.034-.193.054-.125.053-.375.168-.582.249C.783.659.567.74.582.736c.017-.004.295-.18.643-.338a7.51 7.51 0 0 1 .883-.336.845.845 0 0 1 .555 0c.054.019.355-.01.49.006.134.015.148.237.148.237.025.015.034.223.034.223s-.074.002.013.014.247.139.247.139c.055 0 .06-.002.06-.002s.033-.04.076-.057c.044-.017.084-.033.133-.037.049-.004.118-.004.167.001.05.006.107.006.176.02.07.012.077.016.099.023.021.008.04.003.04.003.09-.037.257-.104.296-.096 0 0 .062-.016.096-.042l.111-.09S4.796.03 5.178.065c.381.037.887.086.989.102.101.016.464.12.551.162a22.815 22.815 0 0 0 .793.349c.19.076.333.201.333.201-.12-.05-.216-.108-.31-.15-.078-.033-.158-.048-.22-.076C7.182.594 7.08.541 7 .503 6.704.367 6.707.36 6.587.352c-.083-.006.06.1.06.1S6.375.347 6.288.31a.507.507 0 0 0-.242-.048.496.496 0 0 1-.193-.026C5.806.22 5.53.21 5.482.204 5.434.2 5.395.19 5.395.19l.02.031L5.278.2 5.24.257S5.11.283 5.1.241C5.09.2 5.022.431 4.988.5c-.033.068-.188.046-.226.088-.04.042-.122.07-.14.08-.02.011-.079.006-.113.006-.05 0-.007 0-.09.017 0 0-.07-.001-.098-.012A1.542 1.542 0 0 0 4.204.64a2.33 2.33 0 0 0-.303-.015.478.478 0 0 0-.124.033c-.037.015-.1.054-.1.063" mask="url(#h)" transform="translate(8 7.01)"/><path fill="#452c25" d="M3.711.696s-.071.02-.089.067c-.018.049-.009.03-.009.03" mask="url(#h)" transform="translate(8 7.01)"/><path fill="#574f4c" d="M4.379.661a1.013 1.013 0 0 1 .082.073.07.07 0 0 0-.011-.018.783.783 0 0 0-.085-.079c-.005-.004 0 .006 0 .007a.07.07 0 0 0 .015.017" mask="url(#h)" transform="translate(8 7.01)"/><rect width="23" height="17" x=".5" y="3.5" stroke="#100f0e" opacity=".1" rx="2"/></g></svg>
