<svg xmlns="http://www.w3.org/2000/svg" viewBox="0 0 24 24"><linearGradient id="a" x1="50%" x2="50%" y1="0%" y2="100%"><stop offset="0" stop-color="#a9a7a9"/><stop offset="1" stop-color="#8c8a8c"/></linearGradient><g fill="none" fill-rule="evenodd"><rect width="24" height="18" y="3" fill="#0051ab" rx="2"/><path fill="url(#a)" fill-rule="nonzero" d="M10.377 8.37c.035-.756.505-1.37 1.062-1.37h1.002c.551 0 1.027.623 1.06 1.37l.376 8.26c.035.756-.38 1.37-.947 1.37h-1.98c-.557 0-.981-.623-.947-1.37z"/><circle cx="12" cy="12" r="6.5" stroke="#fcfbfa"/><path fill="#fcfbfa" d="M12 14.147 9.528 16l.912-3.045-2.44-1.9 3.036-.028L12 8l.964 3.027 3.036.029-2.44 1.9.912 3.044z"/><rect width="23" height="17" x=".5" y="3.5" stroke="#100f0e" opacity=".1" rx="2"/></g></svg>
