<svg xmlns="http://www.w3.org/2000/svg" viewBox="0 0 24 24"><linearGradient id="a" x1="50%" x2="50%" y1="0%" y2="100%"><stop offset="0" stop-color="#fff"/><stop offset="1" stop-color="#f0f0f0"/></linearGradient><g fill="none" fill-rule="evenodd"><rect width="24" height="18" y="3" fill="#e70a2d" rx="2"/><path fill="url(#a)" fill-rule="nonzero" d="M9.745 2.123a4.698 4.698 0 0 0-2.786-.9c-2.506 0-4.538 1.914-4.538 4.277s2.032 4.278 4.538 4.278a4.7 4.7 0 0 0 2.786-.9A5.419 5.419 0 0 1 5.446 11C2.438 11 0 8.538 0 5.5S2.438 0 5.446 0a5.42 5.42 0 0 1 4.3 2.123zm1.086 4.787L9.48 8.563l.092-2.141-1.975-.787 2.045-.573.13-2.14 1.173 1.788L13 4.173l-1.321 1.678 1.14 1.809z" transform="translate(3.5 6.5)"/><rect width="23" height="17" x=".5" y="3.5" stroke="#100f0e" opacity=".1" rx="2"/></g></svg>
