<svg xmlns="http://www.w3.org/2000/svg" viewBox="0 0 24 24"><g fill="none" fill-rule="evenodd"><rect width="24" height="18" y="3" fill="#fcfbfa" rx="2"/><g transform="translate(7 5)"><g transform="translate(0 2.569)"><rect width="5.556" height="5.833" x="2.222" fill="#00894b" rx=".25"/><path fill="#00b2dc" d="M2.222.281C2.222.126 2.35 0 2.5 0h3.89c.153 0 .216.11.14.245L5.041 2.873l-2.617.414-.18 2.254c-.012.162-.023.17-.023.011z"/><ellipse cx="2.222" cy="2.333" fill="#ffd239" rx="1.667" ry="1.75"/></g><rect width="5.556" height="1.167" x="2.222" y="11.902" fill="#ffd239" rx=".25"/><path fill="#000" d="M2.378 9.511H2.4c.044 0 .079.044.079.103V9.9c0 .046.023.086.081.086h.066c.006 0 .013 0 .013-.004s-.005-.01-.01-.015l-.041-.045c-.006-.007-.011-.015-.011-.024v-.279a.167.167 0 0 0-.082-.15c.045-.029.094-.089.094-.237 0-.173-.068-.246-.2-.246h-.16c-.004 0-.007.004-.007.008s.007.008.01.012l.037.038c.01.01.012.022.012.038v.808c0 .016-.003.028-.012.037l-.038.039c-.002.004-.009.008-.009.012s.003.008.008.008h.2c.004 0 .007-.004.007-.008s-.007-.008-.01-.012l-.037-.039c-.009-.01-.012-.021-.012-.037zm0-.459h.02c.062 0 .087.044.087.18 0 .16-.025.212-.088.212h-.019zm.432 0h.073c.016 0 .027.008.033.026l.068.25c.001.006.005.01.01.01.004 0 .007-.003.007-.008v-.332c0-.007-.005-.012-.01-.012h-.33c-.004 0-.007.004-.007.008s.006.008.009.012l.038.038c.009.01.011.022.011.038v.808c0 .016-.002.028-.011.037l-.038.039c-.003.005-.009.008-.009.012s.003.008.008.008h.328c.007 0 .01-.006.01-.012v-.335c0-.004-.002-.008-.006-.008s-.007.003-.009.008l-.068.256c-.005.016-.018.024-.034.024H2.81v-.405h.028c.006 0 .012.002.014.009l.043.097c.003.006.004.01.01.01.003 0 .004-.003.004-.007V9.34c0-.005-.001-.008-.005-.008s-.005.003-.007.008l-.045.094c-.002.006-.008.009-.014.009H2.81zm.489.69c0 .126-.028.177-.067.177-.046 0-.061-.075-.061-.459 0-.281.015-.408.068-.408.056 0 .11.172.138.272.002.008.006.014.01.014.005 0 .007-.004.007-.01v-.32c0-.013-.002-.022-.009-.022-.006 0-.014.006-.025.017-.013.012-.025.021-.032.021a.04.04 0 0 1-.019-.008.119.119 0 0 0-.08-.03c-.156 0-.162.309-.162.473 0 .223.006.527.165.527.028 0 .053-.016.08-.042a.02.02 0 0 1 .012-.005c.006 0 .008.001.013.005l.038.036a.019.019 0 0 0 .013.006c.004 0 .006-.003.006-.007V9.56c0-.013.004-.022.013-.029l.037-.032c.004-.005.006-.008.006-.013 0-.006-.004-.008-.009-.008h-.188c-.006 0-.01.002-.01.008 0 .005.001.008.007.013l.035.032a.036.036 0 0 1 .014.03zm.225.148c0 .016-.003.028-.012.037l-.038.039c-.002.004-.009.008-.009.012s.003.008.008.008h.2c.004 0 .007-.004.007-.008s-.006-.008-.009-.012l-.038-.039c-.009-.01-.011-.021-.011-.037v-.808c0-.016.002-.028.011-.038l.038-.038c.003-.004.009-.008.009-.012s-.003-.008-.008-.008h-.199c-.005 0-.008.004-.008.008s.007.008.01.012l.037.038c.01.01.012.022.012.038zm.376-.904c-.153 0-.17.281-.17.473 0 .252.017.527.17.527.153 0 .17-.275.17-.527 0-.192-.017-.473-.17-.473m0 .066c.038 0 .066.112.066.408 0 .347-.028.459-.066.459-.037 0-.065-.112-.065-.459 0-.296.028-.408.065-.408m.273.838a.059.059 0 0 1-.012.037l-.031.039c-.003.004-.01.008-.01.013 0 .003.003.007.008.007h.168c.005 0 .007-.004.007-.007 0-.005-.005-.01-.008-.013l-.035-.04c-.009-.01-.012-.02-.012-.036v-.664h.002l.149.726c.004.02.014.034.025.034h.053c.01 0 .013-.006.013-.015v-.89c0-.015.004-.026.012-.037l.031-.038c.004-.004.01-.008.01-.014 0-.002-.003-.006-.008-.006h-.168c-.005 0-.008.004-.008.006 0 .006.007.01.01.014l.035.04c.009.009.011.02.011.036v.5h-.002l-.117-.574c-.003-.013-.006-.022-.015-.022h-.153c-.005 0-.007.004-.007.006 0 .006.006.01.009.014l.031.038a.06.06 0 0 1 .012.038zm-1.698 1.185c0 .127-.028.177-.067.177-.046 0-.061-.074-.061-.458 0-.282.015-.408.068-.408.056 0 .11.172.137.272.003.008.007.013.012.013.004 0 .006-.004.006-.01v-.32c0-.013-.002-.022-.009-.022-.006 0-.014.007-.025.017-.013.012-.026.022-.032.022a.04.04 0 0 1-.019-.008.119.119 0 0 0-.08-.031c-.156 0-.162.31-.162.473 0 .223.006.527.165.527.028 0 .053-.016.08-.041.005-.004.009-.006.012-.006.005 0 .008.002.013.006l.038.036a.019.019 0 0 0 .013.005c.004 0 .006-.003.006-.007v-.418c0-.014.004-.023.013-.03l.037-.032c.003-.005.006-.008.006-.013 0-.005-.004-.008-.009-.008H2.43c-.006 0-.01.003-.01.008s.001.008.006.013l.036.032a.036.036 0 0 1 .014.03zm.212.1c0 .083.052.144.152.144a.14.14 0 0 0 .148-.144v-.76c0-.016.003-.03.01-.037l.04-.039c.003-.004.006-.008.006-.012s-.003-.008-.008-.008H2.86c-.005 0-.008.004-.008.008s.003.008.007.012l.039.039c.008.008.01.021.01.037v.725c0 .059-.012.112-.06.112-.06 0-.064-.053-.064-.112v-.725c0-.016.004-.03.01-.037l.04-.039c.003-.004.006-.008.006-.012s-.003-.008-.008-.008h-.194c-.005 0-.008.004-.008.008s.003.008.006.012l.04.039c.007.008.01.021.01.037zm.63.061c.001.012-.001.022-.007.027l-.034.036c-.004.004-.009.008-.009.012s.003.008.01.008h.182c.006 0 .009-.004.009-.008s-.004-.008-.008-.012l-.037-.035c-.008-.008-.012-.022-.013-.036l-.121-.894c-.001-.008-.005-.015-.012-.015H3.23c-.006 0-.008.005-.01.012l-.115.896c-.002.012-.003.025-.01.033l-.036.038c-.004.004-.009.009-.009.013s.003.008.008.008h.146c.006 0 .009-.004.009-.008s-.008-.01-.013-.016l-.028-.03a.031.031 0 0 1-.006-.025l.019-.146c.001-.006.004-.01.007-.01h.094c.007 0 .01.006.012.012zm-.117-.222c-.003 0-.005-.003-.004-.008l.042-.328h.003l.044.326c.001.006-.001.01-.005.01zm.344.209c0 .016-.002.028-.011.037l-.038.039c-.003.005-.01.008-.01.012s.003.008.008.008h.168c.128 0 .204-.09.204-.525 0-.346-.076-.475-.204-.475h-.168c-.005 0-.007.004-.007.008s.006.008.009.012l.038.039c.009.009.011.021.011.037zm.098-.837h.023c.05 0 .096.05.096.408 0 .408-.047.458-.096.458h-.023zm.43 0h.073c.016 0 .028.008.033.025l.068.25c.002.006.005.01.01.01.004 0 .007-.003.007-.008v-.332c0-.007-.005-.012-.01-.012h-.33c-.004 0-.007.004-.007.008s.007.008.01.012l.037.039c.01.009.012.021.012.037v.808c0 .016-.003.028-.012.037l-.038.039c-.002.005-.009.008-.009.012s.003.008.008.008h.329c.006 0 .01-.005.01-.012v-.335c0-.004-.003-.008-.006-.008-.004 0-.008.003-.01.008l-.068.256c-.005.016-.018.024-.034.024h-.073v-.405H4.1c.007 0 .012.003.014.01l.043.097c.003.005.004.009.01.009.003 0 .004-.003.004-.007v-.282c0-.006 0-.008-.005-.008-.003 0-.005.002-.007.008l-.045.093c-.002.007-.007.01-.014.01h-.028zm.295.837c0 .016-.003.028-.011.037l-.039.039c-.002.005-.008.008-.008.012s.002.008.007.008h.311c.01 0 .014-.007.014-.019v-.326c0-.006-.002-.01-.006-.01-.005 0-.005.004-.008.01l-.078.258c-.006.016-.018.02-.033.02h-.051v-.837c0-.016.002-.028.011-.037l.038-.039c.003-.004.01-.008.01-.012s-.003-.008-.008-.008h-.2c-.005 0-.007.004-.007.008s.006.008.008.012l.039.039c.008.009.011.021.011.037zm.51-.904c-.153 0-.17.281-.17.473 0 .252.017.527.17.527.153 0 .17-.275.17-.527 0-.192-.017-.473-.17-.473m0 .067c.037 0 .065.112.065.408 0 .346-.028.458-.066.458-.037 0-.065-.112-.065-.458 0-.296.028-.408.065-.408zm.266.789c0 .083.052.144.152.144a.14.14 0 0 0 .148-.144v-.76c0-.016.003-.03.01-.037l.04-.039c.003-.004.005-.008.005-.012s-.002-.008-.007-.008h-.174c-.005 0-.008.004-.008.008s.003.008.007.012l.039.039c.008.008.01.021.01.037v.725c0 .059-.013.112-.06.112-.06 0-.064-.053-.064-.112v-.725c0-.016.003-.03.01-.037l.04-.039c.003-.004.006-.008.006-.012s-.003-.008-.008-.008h-.194c-.005 0-.008.004-.008.008s.003.008.006.012l.04.039c.007.008.01.021.01.037zm.434.048c0 .016-.002.028-.011.037l-.038.039c-.003.005-.01.008-.01.012s.003.008.008.008h.209c.005 0 .007-.004.007-.008s-.005-.008-.009-.012l-.047-.039c-.01-.008-.011-.021-.011-.037v-.37h.043c.114 0 .168-.103.168-.275 0-.204-.069-.259-.168-.259h-.192c-.005 0-.007.004-.007.008s.006.008.009.012l.038.039c.009.009.011.021.011.037zm.098-.837h.037c.053 0 .07.044.07.192s-.017.209-.07.209h-.037zm.413 0h.072c.017 0 .028.008.033.025l.069.25c0 .006.005.01.01.01.004 0 .006-.003.006-.008v-.332c0-.007-.005-.012-.01-.012h-.329c-.005 0-.008.004-.008.008s.007.008.01.012l.037.039c.01.009.012.021.012.037v.808c0 .016-.003.028-.012.037l-.038.039c-.002.005-.009.008-.009.012s.003.008.008.008h.329c.006 0 .01-.005.01-.012v-.335c0-.004-.002-.008-.006-.008s-.008.003-.01.008l-.068.256c-.005.016-.017.024-.034.024h-.072v-.405h.028c.006 0 .011.003.014.01l.043.097c.002.005.004.009.009.009.003 0 .005-.003.005-.007v-.282c0-.006-.002-.008-.005-.008s-.005.002-.008.008l-.044.093c-.003.007-.008.01-.014.01h-.028z"/><path fill="#fff" fill-rule="nonzero" d="M7.75.914c1.526-.486 1.986-.57 2.198.137.185.614-.14 1.27-.724 1.464a9.16 9.16 0 0 0-1.08.446c-.344.169-.595.33-.69.43a2.92 2.92 0 0 0-.296.41c-.114.18-.239.398-.371.648-.24.454-2.287 2.228-2.712 2.336-.332.083-.58.18-.651.233a1.985 1.985 0 0 0-.278.295 7.291 7.291 0 0 0-.38.523 14.379 14.379 0 0 0-.686 1.137c-.3.562-.978.762-1.513.447-.735-.434.338-2.943.887-3.619.235-.29.455-.514.678-.681.346-.26.806-.448 1.422-.604.3-.076.625-.14.968-.193-.167.026-.192.051-.212.082.04-.062.095-.162.16-.296l.086-.18.149-.325c.06-.129.101-.216.14-.29.16-.3.313-.568.46-.801.2-.317.387-.57.574-.767.223-.235.976-.547 1.87-.832z"/><path fill="#185a69" d="M6.273 2.158c-.162.17-.328.397-.505.677-.141.224-.288.48-.438.763-.184.348-.54 1.273-.727 1.302a10.1 10.1 0 0 0-.919.183c-.525.133-.94.294-1.23.512-.185.14-.376.335-.577.584C1.723 6.37.572 8.753.839 8.911a.542.542 0 0 0 .757-.223A14.988 14.988 0 0 1 2.31 7.5a7.82 7.82 0 0 1 .412-.566c.148-.182.278-.316.378-.391.144-.109.447-.226.843-.326.26-.066 2.184-1.726 2.357-2.052.137-.26.27-.49.393-.687.14-.221.265-.392.367-.499.151-.16.452-.353.846-.548a9.714 9.714 0 0 1 1.15-.473c.292-.097.454-.425.362-.732s-2.882.651-3.146.93z"/></g><rect width="23" height="17" x=".5" y="3.5" stroke="#100f0e" opacity=".1" rx="2"/></g></svg>
