<svg xmlns="http://www.w3.org/2000/svg" xmlns:xlink="http://www.w3.org/1999/xlink" viewBox="0 0 24 24"><defs><rect id="a" width="24" height="18" rx="2"/><mask id="b" fill="#fff"><use xlink:href="#a" fill-rule="evenodd"/></mask></defs><g fill="none" fill-rule="evenodd"><g transform="translate(0 3)"><use xlink:href="#a" fill="#0a5da7"/><rect width="24" height="18" fill="#d73c29" mask="url(#b)" rx="2"/><path fill="#00b33f" d="m0 0 12 9-12 9z" mask="url(#b)"/><path fill="#00b33f" d="m12 0 12 9-12 9z" mask="url(#b)" transform="matrix(-1 0 0 1 36 0)"/><path stroke="#fcfbfa" stroke-width="3" d="m0 1 24 16" mask="url(#b)"/><circle cx="12" cy="9" r="5" fill="#fcfbfa" mask="url(#b)"/><path stroke="#fcfbfa" stroke-width="3" d="m0 1 24 16" mask="url(#b)" transform="matrix(-1 0 0 1 24 0)"/><path fill="#c74634" d="M14 8.586 15.414 10 14 11.414 12.586 10zm-4 0L11.414 10 10 11.414 8.586 10zm2-3L13.414 7 12 8.414 10.586 7z" mask="url(#b)"/></g><rect width="23" height="17" x=".5" y="3.5" stroke="#100f0e" opacity=".1" rx="2"/></g></svg>