<svg xmlns="http://www.w3.org/2000/svg" viewBox="0 0 24 24"><g fill="none" fill-rule="evenodd"><rect width="24" height="18" y="3" fill="#000" rx="2"/><path fill="#ffd200" fill-rule="nonzero" d="M12 12.797 10.087 15l.145-2.964-2.851.151 2.119-1.99L7 7.888l3.232.578L9.778 5 12 7.888 14.222 5l-.454 3.465L17 7.888l-2.5 2.31 2.12 1.989-2.852-.151.145 2.964z"/><path fill="#0073ca" d="M4 10h16v4H4z"/><path fill="#fcfbfa" d="M4 14h16v7H4z"/><path fill="#e70a2d" d="M0 19.005C0 20.107.902 21 2.009 21H12L1 3c-.552 0-1 .893-1 1.995zm24 0A2.004 2.004 0 0 1 21.991 21H12L23 3c.552 0 1 .893 1 1.995z"/><rect width="23" height="17" x=".5" y="3.5" stroke="#100f0e" opacity=".1" rx="2"/></g></svg>
