<svg xmlns="http://www.w3.org/2000/svg" viewBox="0 0 24 24"><g fill="none" fill-rule="evenodd"><path fill="#467146" d="M0 19.005C0 20.107.902 21 2.009 21H12V3H2.009C.899 3 0 3.893 0 4.995z"/><path fill="#fcfbfa" d="M24 19.005A2.004 2.004 0 0 1 21.991 21H12V3h9.991C23.101 3 24 3.893 24 4.995z"/><path fill="#c74634" d="M17.996 12.225A6 6 0 1 1 18 12a4.5 4.5 0 1 0-.005.212z"/><path fill="#c74634" d="M15 13.073 13.764 14l.456-1.522-1.22-.95 1.518-.015L15 10l.482 1.513 1.518.015-1.22.95.456 1.522z"/><rect width="23" height="17" x=".5" y="3.5" stroke="#100f0e" opacity=".1" rx="2"/></g></svg>
