<svg xmlns="http://www.w3.org/2000/svg" viewBox="0 0 24 24"><g fill="none" fill-rule="evenodd"><path fill="#0019a7" d="M0 19.002A2 2 0 0 0 2.005 21h19.99A2.004 2.004 0 0 0 24 19.002V15H0z"/><path fill="#fcfbfa" d="M0 9h24v6H0z"/><g fill-rule="nonzero"><path fill="#dbcd92" d="M12 13.5a1.5 1.5 0 1 0 0-3 1.5 1.5 0 0 0 0 3m0 .5a2 2 0 1 1 0-4 2 2 0 0 1 0 4"/><path fill="#9cddee" d="m12 11 1 2h-2z"/></g><path fill="#0019a7" d="M0 9h24V4.998A2.001 2.001 0 0 0 21.995 3H2.005A2.004 2.004 0 0 0 0 4.998z"/><rect width="23" height="17" x=".5" y="3.5" stroke="#100f0e" opacity=".1" rx="2"/></g></svg>
