<svg xmlns="http://www.w3.org/2000/svg" viewBox="0 0 24 24"><mask id="a" fill="#fff"><rect width="24" height="18" fill-rule="evenodd" rx="2"/></mask><g fill="none" fill-rule="evenodd"><path fill="#28b2ec" d="M2 18.993A2 2 0 0 0 3.991 21H22.01c1.1 0 1.991-.895 1.991-1.994V5L2 12.53z"/><path fill="#00b627" d="M0 18.5 23 6v-.999A2.005 2.005 0 0 0 21 3H2C.897 3 0 3.9 0 4.995z"/><path fill="#fc0" d="M1.77 21 26.362 5.632 21.593-2-3 13.368z" mask="url(#a)" transform="translate(0 3)"/><path fill="#000" d="M.71 19.304 26.002 3.549l-2.65-4.24L-1.94 15.064z" mask="url(#a)" transform="translate(0 3)"/><rect width="23" height="17" x=".5" y="3.5" stroke="#100f0e" opacity=".1" rx="2"/></g></svg>
