<svg xmlns="http://www.w3.org/2000/svg" viewBox="0 0 24 24"><g fill="none" fill-rule="evenodd"><path d="M0 0h24v24H0z"/><path fill="#008f25" d="M0 19.002A2 2 0 0 0 2.005 21h19.99A2.004 2.004 0 0 0 24 19.002V15H0z"/><path fill="#ff082a" d="M0 9h24v6H0z"/><path fill="#000" d="M0 9h24V4.998A2.001 2.001 0 0 0 21.995 3H2.005A2.004 2.004 0 0 0 0 4.998z"/><path fill="#0029a1" d="m0 4 17 8-17 8z"/><path fill="#facd62" d="m6.229 12.8-.752 2.597-.966-2.608-2.705-.043 2.106-1.618-.92-2.623 2.268 1.607 2.136-1.578-.704 2.612 2.24 1.647z"/><rect width="23" height="17" x=".5" y="3.5" stroke="#100f0e" opacity=".1" rx="2"/></g></svg>
