<svg xmlns="http://www.w3.org/2000/svg" viewBox="0 0 24 24"><mask id="a" fill="#fff"><rect width="24" height="18" x=".352" fill-rule="evenodd" rx="2"/></mask><g fill="none" fill-rule="evenodd"><path fill="#008036" d="M1.884 3.994c.14-1.101 1.15-2.075 2.243-2.173L22.361.179c1.1-.099 1.991.714 1.991 1.816v14.01A1.996 1.996 0 0 1 22.348 18H2.12c-1.106 0-1.892-.883-1.752-1.994z" mask="url(#a)" transform="translate(-.352 3)"/><path fill="#002d9d" d="M.352 1.995C.352.893 1.251 0 2.361 0h20.024c1.11 0 1.289.539.412 1.195L1.948 16.805c-.881.66-1.596.302-1.596-.8z" mask="url(#a)" transform="translate(-.352 3)"/><path fill="#ffd000" d="M-3 8.023h30v2H-3z" mask="url(#a)" transform="rotate(-38 16.18 11.034)"/><path fill="#fff" fill-rule="nonzero" d="M6.707 6.207 6 6.414l.207-.707L6 5l.707.207L7.414 5l-.207.707.207.707zm-2 2L4 8.414l.207-.707L4 7l.707.207L5.414 7l-.207.707.207.707zm2 2L6 10.414l.207-.707L6 9l.707.207L7.414 9l-.207.707.207.707zm-4 0L2 10.414l.207-.707L2 9l.707.207L3.414 9l-.207.707.207.707zm0-4L2 6.414l.207-.707L2 5l.707.207L3.414 5l-.207.707.207.707z"/><rect width="23" height="17" x=".5" y="3.5" stroke="#100f0e" opacity=".1" rx="2"/></g></svg>
