<svg xmlns="http://www.w3.org/2000/svg" viewBox="0 0 24 24"><g fill="none" fill-rule="evenodd"><rect width="24" height="18" y="3" fill="#ffc342" rx="2"/><path fill="#00504c" d="M1 4h3v16H1z"/><path fill="#f87d2c" d="M4 4h3v16H4z"/><path fill="#98243b" d="M8 4h15v16H8z"/><path fill="#ffc342" d="M12.927 14.797a.733.733 0 0 0-.726-.734h.726c-.401 0-1.029-.111-1.415-.27 0 0-1.49-.464-1.49-1.198s.296-.902.296-.902c.238-.313.311-.864.163-1.264 0 0-.604-1.359-.458-2.24.145-.88.828-1.1.828-1.1.345-.203.624-.05.624.36v2.95c0 .402.28.869.658 1.06l.136.069c.363.184.888.1 1.17-.185l-.298.301c.283-.286.232-.66-.146-.85l-.794-.402v-.734h.726c.401 0 .446-.141.068-.333l-.794-.401V8.19h.726c.401 0 .956-.233 1.238-.518l-.298.301c.283-.286.849-.518 1.238-.518.401 0 .866.284 1.055.666l.068.137c.182.368.229.972.1 1.363l-.267.809c-.127.384.105.696.505.696h2.161c.406 0 .965-.232 1.247-.517l-.298.301c.283-.286.232-.66-.146-.85l-.136-.07a3.692 3.692 0 0 0-1.384-.332.738.738 0 0 1-.726-.734c0-.406.23-.967.512-1.252l.214-.217v.735c0 .405.329.734.726.734h-.726 1.452c.401 0 .866.283 1.055.665l.068.138c.182.367.358.988.383 1.391 0 0 .1.699-.054 1.477-.154.778-.328.864-.328.864-.22.334-.398.919-.398 1.345v1.455a.74.74 0 0 1-.726.741c-.401 0-.586-.283-.397-.665l.068-.138c.182-.367.189-.949 0-1.33l-.068-.138c-.182-.368-.33-.325-.33.068a3.69 3.69 0 0 1-.328 1.4l-.068.138c-.182.367-.666.665-1.055.665-.401 0-.586-.283-.397-.665l.068-.138a3.814 3.814 0 0 0 .329-1.4.723.723 0 0 0-.733-.734h-1.439a.741.741 0 0 0-.733.734c0 .406-.14 1.018-.329 1.4l-.068.138c-.182.367-.666.665-1.055.665-.401 0-.586-.283-.397-.665l.068-.138a3.794 3.794 0 0 0 .329-1.4"/><path fill="#f4bf6f" d="M10 18v1H9v-1zm12 0v1h-1v-1zM10 5v1H9V5zm12 0v1h-1V5z"/><rect width="23" height="17" x=".5" y="3.5" stroke="#100f0e" opacity=".1" rx="2"/></g></svg>
