<svg xmlns="http://www.w3.org/2000/svg" viewBox="0 0 24 24"><g fill="none" fill-rule="evenodd"><path fill="#fcfbfa" d="M0 9h24v6H0z"/><path fill="#69b3dc" d="M0 9h24V4.998A2.001 2.001 0 0 0 21.995 3H2.005A2.004 2.004 0 0 0 0 4.998zm0 10.002A2 2 0 0 0 2.005 21h19.99A2.004 2.004 0 0 0 24 19.002V15H0z"/><path fill="#db7a2c" fill-rule="nonzero" d="M12 14a2 2 0 1 1 0-4 2 2 0 0 1 0 4"/><circle cx="12" cy="12" r="1.5" fill="#f4b32e" fill-rule="nonzero"/><rect width="23" height="17" x=".5" y="3.5" stroke="#100f0e" opacity=".1" rx="2"/></g></svg>
