<svg xmlns="http://www.w3.org/2000/svg" viewBox="0 0 24 24"><mask id="a" fill="#fff"><rect width="24" height="18" y="3" fill-rule="evenodd" rx="2"/></mask><g fill="none" fill-rule="evenodd"><rect width="24" height="18" y="3" fill="#fff" mask="url(#a)" rx="2"/><path fill="#0a5da7" d="M0 3h11v10H0z" mask="url(#a)"/><path fill="#facd62" d="M6.874 5.657a2.5 2.5 0 1 0 0 4.686 3 3 0 1 1 0-4.686M8 8.82l-.868.982.227-1.29-1.309-.067 1.15-.627-.764-1.065 1.208.508L8 6l.356 1.261 1.208-.508-.765 1.065 1.15.627-1.308.066.227 1.29z" mask="url(#a)"/><path fill="#e70a2d" d="M24 19v2H0v-2zm0-4v2H0v-2zm0-4v2H11v-2zm0-4v2H11V7zm0-4v2H11V3z" mask="url(#a)"/><rect width="23" height="17" x=".5" y="3.5" stroke="#100f0e" opacity=".1" rx="2"/></g></svg>
