<svg xmlns="http://www.w3.org/2000/svg" viewBox="0 0 24 24"><g fill="none" fill-rule="evenodd"><path fill="#0a5da7" d="M0 19.5c0 .828.667 1.5 1.501 1.5H22.5c.829 0 1.501-.666 1.501-1.5V18H0zM0 6h24V4.5c0-.828-.667-1.5-1.501-1.5H1.5C.672 3 0 3.666 0 4.5z"/><path fill="#fcfbfa" d="M0 6h24v12H0z"/><path fill="#e70a2d" d="M0 7h24v10H0z"/><circle cx="7" cy="12" r="4" fill="#fcfbfa"/><path fill="#c74634" d="M7 13.61 5.146 15l.684-2.284L4 11.292l2.277-.022L7 9l.723 2.27 2.277.022-1.83 1.424L8.854 15z"/><rect width="23" height="17" x=".5" y="3.5" stroke="#100f0e" opacity=".1" rx="2"/></g></svg>
