<svg xmlns="http://www.w3.org/2000/svg" viewBox="0 0 24 24"><g fill="none" fill-rule="evenodd"><path fill="#008b4b" d="M0 19.002A2 2 0 0 0 2.005 21h19.99A2.004 2.004 0 0 0 24 19.002V15H0z"/><path fill="#fcfbfa" d="M0 9h24v6H0z"/><path fill="#e70a2d" d="M0 9h24V4.998A2.001 2.001 0 0 0 21.995 3H2.005A2.004 2.004 0 0 0 0 4.998z"/><path fill="#fad14e" fill-rule="nonzero" d="M11.38 12.667a4.079 4.079 0 0 1-.094-.667c0-.368.32-.667.714-.667s.714.299.714.667c0 .12-.034.377-.094.667h.815c.391 0 .708.309.708.666 0 .369-.308.667-.708.667h-2.87c-.391 0-.708-.31-.708-.667 0-.368.308-.666.708-.666zm-.809-1.334c-.394 0-.714-.298-.714-.666 0-.369.32-.667.714-.667s.715.298.715.667c0 .368-.32.666-.715.666m2.858 0c-.395 0-.715-.298-.715-.666 0-.369.32-.667.715-.667s.714.298.714.667c0 .368-.32.666-.714.666M7.57 11c.395 0 .715.298.715.667 0 .368-.32.666-.715.666s-.714-.298-.714-.666c0-.369.32-.667.714-.667m9 0c.395 0 .715.298.715.667 0 .368-.32.666-.715.666s-.714-.298-.714-.666c0-.369.32-.667.714-.667"/><rect width="23" height="17" x=".5" y="3.5" stroke="#100f0e" opacity=".1" rx="2"/></g></svg>
