<svg xmlns="http://www.w3.org/2000/svg" viewBox="0 0 24 24"><g fill="none" fill-rule="evenodd"><path fill="#008100" d="M0 12h24V4.997A2 2 0 0 0 21.995 3H2.005A2.002 2.002 0 0 0 0 4.997z"/><path fill="#69b3dc" d="M0 19.003A2 2 0 0 0 2.005 21h19.99A2.002 2.002 0 0 0 24 19.003V12H0z"/><path fill="#d10a29" d="m0 4 24 8-24 8z"/><path fill="#ffd200" d="M6 8a4 4 0 1 1 0 8 4 4 0 0 1 0-8m-2.857 4a2.857 2.857 0 0 0 3.21 2.836 1.142 1.142 0 0 1-.777-.56A1.143 1.143 0 0 1 4.44 12.57a1.139 1.139 0 0 1 0-1.143 1.143 1.143 0 0 1 .519-1.613c.16-.355.5-.615.905-.663L6 9.143A2.857 2.857 0 0 0 3.143 12M6 9.143l.125.007a1.143 1.143 0 0 1 1.008 1.284A1.14 1.14 0 0 1 7.561 12a1.138 1.138 0 0 1 0 1.142 1.142 1.142 0 0 1-.14 1.335A2.857 2.857 0 0 0 6 9.143"/><rect width="23" height="17" x=".5" y="3.5" stroke="#100f0e" opacity=".1" rx="2"/></g></svg>
