<svg xmlns="http://www.w3.org/2000/svg" viewBox="0 0 24 24"><g fill="none" fill-rule="evenodd"><path fill="#ff082a" d="M0 4.997A2 2 0 0 1 2.005 3h19.99C23.102 3 24 3.896 24 4.997V12H0z"/><path fill="#facd62" d="m13.335 7.995.338 2.03 2.068-1.04-.726 1.956 2.39-.17-1.645 1.492 2.24.734-2.24.734 1.646 1.493-2.39-.17.725 1.955-2.068-1.04L13.335 18 12 16.296 10.665 18l-.338-2.031-2.068 1.04.726-1.955-2.39.17L8.24 13.73 6 12.997l2.24-.734-1.646-1.492 2.39.17-.725-1.956 2.068 1.04.338-2.03L12 9.699zM16.485 6s-.556.275-.888.349c-.9.202-2.811.48-2.811.48l-.266.305h1.893l-.799.175.415.283s-.435-.165-1.006-.087c-.393.054-.851.247-1.273.327-1.035.196-1.657-.523-1.657-.523h-.887l-.06-.219 1.243-.152s-1.669-.29-2.219-.436c-.79-.21-.68-.371-.68-.371s2.259.327 3.373.327c.237 0 .71.436.71.436s.82-.611 1.213-.632C14.566 6.166 16.484 6 16.484 6z"/><path fill="#facd62" d="m13.335 7.995.338 2.03 2.068-1.04-.726 1.956 2.39-.17-1.645 1.492 2.24.734-2.24.734 1.646 1.493-2.39-.17.725 1.955-2.068-1.04L13.335 18 12 16.296 10.665 18l-.338-2.031-2.068 1.04.726-1.955-2.39.17L8.24 13.73 6 12.997l2.24-.734-1.646-1.492 2.39.17-.725-1.956 2.068 1.04.338-2.03L12 9.699zM12 9.732c-2.109 0-3.818 1.462-3.818 3.265 0 1.804 1.71 3.266 3.818 3.266 2.109 0 3.818-1.462 3.818-3.266 0-1.803-1.71-3.265-3.818-3.265M16.484 6s-.555.275-.887.349c-.9.202-2.811.48-2.811.48l-.266.305h1.893l-.799.175.415.283s-.435-.165-1.006-.087c-.393.054-.851.247-1.273.327-1.035.196-1.657-.523-1.657-.523h-.887l-.06-.219 1.243-.152s-1.669-.29-2.219-.436c-.79-.21-.68-.371-.68-.371s2.259.327 3.373.327c.237 0 .71.436.71.436s.82-.611 1.213-.632C14.566 6.166 16.484 6 16.484 6"/><path fill="#0a5da7" d="M0 12h24v7.003A2 2 0 0 1 21.995 21H2.005A2.002 2.002 0 0 1 0 19.003z"/><path fill="#fcfbfa" d="M6 20v1H3v-1zm6 0v1H9v-1zm6 0v1h-3v-1zm6 0v1h-3v-1zM3 19v1H0v-1zm6 0v1H6v-1zm6 0v1h-3v-1zm6 0v1h-3v-1zm-3-1v1h-3v-1zm6 0v1h-3v-1zM6 18v1H3v-1zm6 0v1H9v-1zm3-1v1h-3v-1zm6 0v1h-3v-1zM3 17v1H0v-1zm6 0v1H6v-1zm-3-1v1H3v-1zm6 0v1H9v-1zm-9-1v1H0v-1zm6 0v1H6v-1zm9-1v1h-3v-1zm6 0v1h-3v-1zM6 14v1H3v-1zm6 0v1H9v-1zm3-1v1h-3v-1zm6 0v1h-3v-1zM3 13v1H0v-1zm6 0v1H6v-1zm9 3v1h-3v-1zm6 0v1h-3v-1zm-9-1v1h-3v-1zm6 0v1h-3v-1z"/><rect width="23" height="17" x=".5" y="3.5" stroke="#100f0e" opacity=".1" rx="2"/></g></svg>
