<svg xmlns="http://www.w3.org/2000/svg" viewBox="0 0 24 24"><g fill="none" fill-rule="evenodd"><rect width="24" height="18" y="3" fill="#fcfbfa" rx="2"/><path fill="#d6682b" d="M18.702 5.07c.291-.15.385-.051.21.22l-.529.817c-.175.272-.532.64-.795.82l-.793.545a7.071 7.071 0 0 0-.888.752l.24-.247a.61.61 0 0 0-.004.844l.35.36a.607.607 0 0 1 0 .84l-.35.362a.83.83 0 0 1-.935.148l-.11-.057a.574.574 0 0 0-.791.273l-.055.112c-.145.3-.506.628-.816.734l-.642.22a4.24 4.24 0 0 1-1.135.19c-.322 0-.695.232-.846.545l-.055.112a.577.577 0 0 1-.78.278l-1.296-.668a4.259 4.259 0 0 1-.925-.686l-.35-.361C7.182 10.99 7 10.524 7 10.203c0-.332.264-.601.582-.601H7c.322 0 .764-.188.99-.42l.35-.361c.225-.232.677-.42.99-.42.321 0 .663-.25.766-.57l.214-.662c.102-.314.432-.518.746-.454l1.789.37c.31.063.81.05 1.125-.03l1.202-.31a6.17 6.17 0 0 0 1.091-.418l.11-.056 1.055-.544.11-.056 1.055-.545z"/><path fill="#008d3d" d="M12 16.507a1 1 0 1 1 0 2 1 1 0 0 1 0-2m4.654-2.105a.589.589 0 0 1 .28.805c-.28.539-.755.994-1.362 1.383a6.983 6.983 0 0 1-1.5.718.631.631 0 0 1-.79-.38.595.595 0 0 1 .395-.759 5.737 5.737 0 0 0 1.2-.578c.443-.283.77-.596.939-.92a.637.637 0 0 1 .838-.269m-8.47.268c.17.325.496.638.938.921a5.737 5.737 0 0 0 1.2.578.595.595 0 0 1 .396.76.631.631 0 0 1-.79.379 6.983 6.983 0 0 1-1.499-.718c-.608-.39-1.082-.844-1.363-1.383a.589.589 0 0 1 .28-.805.637.637 0 0 1 .838.268"/><rect width="23" height="17" x=".5" y="3.5" stroke="#100f0e" opacity=".1" rx="2"/></g></svg>
