<svg xmlns="http://www.w3.org/2000/svg" viewBox="0 0 24 24"><linearGradient id="a" x1="50%" x2="50%" y1="0%" y2="100%"><stop offset="0" stop-color="#fff"/><stop offset="1" stop-color="#f0f0f0"/></linearGradient><g fill="none" fill-rule="evenodd"><path fill="#fcfbfa" d="M0 12h24V4.997A2 2 0 0 0 21.995 3H2.005A2.002 2.002 0 0 0 0 4.997z"/><path fill="#e70a2d" d="M0 19.003A2 2 0 0 0 2.005 21h19.99A2.002 2.002 0 0 0 24 19.003V12H0z"/><path fill="#0051ab" d="M0 12h9V3H1.997A1.998 1.998 0 0 0 0 4.997z"/><path fill="url(#a)" fill-rule="nonzero" d="M4.5 8.842 2.955 10l.57-1.903L2 6.91l1.897-.018L4.5 5l.603 1.892L7 6.91 5.475 8.097 6.045 10z"/><rect width="23" height="17" x=".5" y="3.5" stroke="#100f0e" opacity=".1" rx="2"/></g></svg>
