<svg xmlns="http://www.w3.org/2000/svg" viewBox="0 0 24 24"><g fill="none" fill-rule="evenodd"><rect width="24" height="18" y="3" fill="#fcfbfa" rx="2"/><path fill="#e93551" d="M9 3h6v18H9z"/><path fill="#001b9a" d="M0 9h24v6H0z"/><path fill="#fff" d="m11.212 14-.466-.375-.464.36.184-.555-.466-.375h.56l.196-.555.178.555h.566l-.449.375zm2.5 0-.466-.375-.464.36.184-.555-.466-.375h.56l.196-.555.178.555H14l-.449.375zm-2.5-2.5-.466-.375-.464.36.184-.555-.466-.375h.56l.196-.555.178.555h.566l-.449.375zm2.5 0-.466-.375-.464.36.184-.555-.466-.375h.56l.196-.555.178.555H14l-.449.375zm-4.5 1.25-.466-.375-.464.36.184-.555L8 11.805h.56l.196-.555.178.555H9.5l-.449.375zm6.865-.167-.414-.333-.412.32.163-.493-.414-.334h.498l.174-.493.158.493h.503l-.398.334z"/><rect width="23" height="17" x=".5" y="3.5" stroke="#100f0e" opacity=".1" rx="2"/></g></svg>
