<svg xmlns="http://www.w3.org/2000/svg" viewBox="0 0 24 24"><g fill="none" fill-rule="evenodd"><path fill="#027e44" d="M0 19.005C0 20.107.887 21 1.998 21H8V3H1.998A1.996 1.996 0 0 0 0 4.995z"/><path fill="#e93526" d="M24 19.005A1.992 1.992 0 0 1 22.002 21H16V3h6.002C23.105 3 24 3.893 24 4.995z"/><path fill="#fcfbfa" d="M8 3h8v18H8z"/><path fill="#467146" d="m13.366 13.864.003-.012a.03.03 0 0 1-.003.012m-1.147.198a4.016 4.016 0 0 0-.06-.015l.001-.01zm2.707-2.57a.21.21 0 0 1-.006-.032v-.005s-.022.019-.04.056a.158.158 0 0 0-.009.048.863.863 0 0 0-.03-.125c-.024-.075-.057-.12-.057-.12s-.058.059-.087.127a.807.807 0 0 0-.043.224.469.469 0 0 0-.064-.156c-.053-.077-.096-.074-.096-.074v.001s.05.063.042.135c-.009.072-.036.167-.008.243.029.075.07.083.082.126.01.035.011.096.012.12v.009l-.003.05-.095-.064a.053.053 0 1 0-.1-.021c0 .01.002.018.006.026.006.01.014.017.024.022l.001.001h.003a.052.052 0 0 0 .046-.005l.031.03.003.004.072.071v.003a.261.261 0 0 1-.026.07.168.168 0 0 0-.019.012l-.003.001c-.034.017-.1.107-.1.107l.001-.053a.234.234 0 0 1 .013-.046.474.474 0 0 0-.167.095c-.097.077-.138.175-.133.248.004.074.046.158.05.23l.004.146.002-.001a.275.275 0 0 1-.028.045l-.117-.139a.054.054 0 0 0 .005-.005l.003-.003.002-.004a.053.053 0 0 0 .007-.024v-.004a.054.054 0 0 0-.099-.03l-.005.004-.006.026.003.008c.002.016.01.03.023.038l.004.004.019.006.005-.002h.002a.053.053 0 0 0 .017-.002l.107.165a.286.286 0 0 1-.055.04c-.01-.003-.043-.01-.123.035-.056.031-.128.08-.128.08s.017-.027.024-.104c.007-.078-.03-.116-.03-.116s.004.021-.005.05l-.006.017a.148.148 0 0 1-.02.034c-.041.052-.245.191-.27.271-.024.08-.01.083-.022.126a.222.222 0 0 1-.062.116l-.025.017a.664.664 0 0 0-.035.025l-.04-.116.005-.004.006-.005v-.004a.054.054 0 0 0-.045-.082.054.054 0 0 0-.05.036l-.003.003v.034l.007.009a.055.055 0 0 0 .01.011l.005.006.006.002a.053.053 0 0 0 .025.006h.008l.002.053v.003l.005.096a.315.315 0 0 0-.034.034.123.123 0 0 0-.02.047h-.002a.06.06 0 0 0-.011-.007h-.003a.253.253 0 0 0-.104-.023.59.59 0 0 0-.1.01.268.268 0 0 0 .051-.036.31.31 0 0 0 .036-.04l-.003-.001a.42.42 0 0 0-.377.013c-.067.04-.1.114-.174.161a.48.48 0 0 1-.152.06l-.019-.001c-.063-.007-.088-.032-.163-.041a.73.73 0 0 0-.136-.005v-.032c0-.003 0-.014-.008-.023-.009-.01-.07-.006-.07-.006l-.101.001h-.061c-.009.001-.021.003-.023.017v.046a.306.306 0 0 0-.11-.026c-.125.005-.195.035-.223.041-.008 0-.017.007-.038-.002-.048-.02-.067-.093-.096-.096-.028-.002-.008.077-.02.079-.045.004-.08-.162-.185-.169-.075-.004-.088.01-.092.026-.004.017.09.116.059.13-.032.015-.132-.156-.205-.157-.073-.002-.079.026-.073.041.005.017.08.03.063.084-.017.051-.09-.08-.158-.072a.213.213 0 0 0-.066.012.505.505 0 0 1-.018-.013l-.03-.167a.102.102 0 0 0 .014-.01h.002l.003-.003a.078.078 0 0 0 .022-.028l.001-.003v-.004a.035.035 0 0 0 .002-.014v-.004l-.003-.004a.01.01 0 0 0-.003-.007c-.015-.02-.03-.01-.045 0a.046.046 0 0 0 .005-.02c0-.025-.02-.049-.04-.049s-.035.021-.035.047c0 .015.005.027.013.036-.019-.001-.038.001-.04.023v.002c0 .007.002.013.005.019v.002h.002c.004.007.01.012.017.016l.003.002h.003c.009.005.02.007.03.007l.005.001h.005l.005-.001.002.024.002.028v-.003l.008.07-.002-.002a.258.258 0 0 0-.076-.06s-.062-.038-.079-.09c-.016-.052-.001-.163-.028-.161-.027 0-.042.08-.069.065-.026-.016.01-.163-.02-.226-.029-.063-.097-.107-.113-.084-.016.023-.012.158-.055.129-.042-.03.004-.146-.009-.198-.013-.053-.045-.092-.069-.079-.024.013.01.112-.029.114-.038 0-.032-.07-.049-.077-.016-.006-.022.015-.03.001-.01-.014-.005-.064-.025-.06-.01.003-.014.014-.015.027a.314.314 0 0 0-.004.092.797.797 0 0 1-.067-.047l-.003-.151a.102.102 0 0 0 .044-.013h.003l.002-.003c.013-.01.02-.021.019-.036v-.005c-.008-.029-.025-.033-.042-.03a.071.071 0 0 0 .008-.035c0-.03-.015-.054-.035-.054-.02 0-.035.024-.035.054 0 .012.003.022.007.031-.022-.006-.053-.004-.058.025-.005.031.017.051.049.061l-.003.12-.003-.003a.812.812 0 0 1-.08-.078.16.16 0 0 1-.026-.123c.013-.077.067-.214.048-.231-.018-.018-.075.083-.09.06-.014-.023.033-.16.01-.217-.025-.056-.028-.092-.076-.087-.049.005-.07.165-.092.136-.023-.028.013-.1-.003-.137-.016-.039-.024-.052-.048-.046-.025.006-.036.08-.053.079-.011-.001-.029-.044-.05-.065a.559.559 0 0 0-.002-.125l.068-.16a.1.1 0 0 0 .073 0 .029.029 0 0 0 .014-.022l.001-.002v-.002a.042.042 0 0 0-.009-.026c-.01-.016-.024-.016-.036-.017a.088.088 0 0 0 .036-.032c.015-.025.015-.052 0-.061-.014-.01-.038.002-.053.026a.087.087 0 0 0-.014.051.088.088 0 0 1-.017-.016s-.028-.018-.04.01a.055.055 0 0 0-.004.035.088.088 0 0 0 .034.046l-.007.012-.064.093c-.02-.06-.04-.098-.032-.153.01-.062.035-.068.032-.095-.003-.028-.043.018-.03-.019.014-.036.144-.119.117-.162-.028-.044-.153.068-.124-.007.03-.075.15-.076.157-.18.004-.065-.114.04-.125.007-.01-.032.073-.099.072-.141 0-.042.015-.047-.007-.07-.003-.007-.013-.01-.034-.002-.052.02-.04.065-.083.062-.013-.001-.027-.057-.044-.044-.016.014-.053.049-.06.088-.007.04.009.1-.014.117-.022.018-.041-.068-.085-.056-.044.012-.053.072-.047.096.007.023.102.133.072.147-.03.014-.104-.093-.143-.02-.04.072.125.147.145.165.02.018.002.023.031.06.03.036.068.045.089.07a.54.54 0 0 1 .073.164l-.116-.07a.098.098 0 0 0 .008-.072c-.004-.013-.026-.026-.05-.012a.037.037 0 0 0-.019.024.082.082 0 0 0-.025-.023c-.028-.015-.057-.014-.066.003-.008.013 0 .032.016.047l.003.005.007.003.006.004a.083.083 0 0 0 .027.01h.002l-.008.006s-.021.027.005.042c.023.014.049.01.077-.016l.14.12c0 .05-.003.075-.004.083v.002l-.001.041c-.02.002-.05-.029-.062-.01-.012.021.059.075.045.089-.013.014-.116-.021-.122.012-.006.033.01.08.069.095.06.015.198.047.175.074-.023.027-.174-.083-.168-.003.006.08.059.114.097.129.04.014.19-.003.182.033-.008.036-.123-.011-.134.04-.011.052.08.06.1.06.019 0 .082-.003.106.016.024.018.11.108.163.153l.004.004c.005.005.01.01.015.013l-.1.007c0-.038-.024-.071-.057-.073-.017 0-.025.004-.03.018-.002.008 0 .02.003.032a.118.118 0 0 0-.032-.004c-.033 0-.06.012-.06.028 0 .006.004.012.012.016l.003.004.021.006h.005a.125.125 0 0 0 .042 0c-.005.006-.01.011-.01.015v.015l.001.005a.031.031 0 0 0 .005.01v.001l.003.002a.037.037 0 0 0 .022.01h.015l.003-.001c.022-.006.042-.027.05-.055h.008l.148.006c.048.036.099.067.099.067h.001c-.03-.002-.09-.009-.099.013-.012.028.229.113.16.14-.07.026-.144-.074-.164-.012-.02.06.046.112.084.134.037.023.25.005.208.053-.041.048-.196-.032-.197.025-.002.057.103.148.156.145.053-.002.112-.088.136-.042.025.047-.04.065.01.078.052.012.089-.053.148-.041a.499.499 0 0 1 .201.093l-.121.014c-.018-.043-.055-.081-.084-.052-.017.017-.015.034-.009.051a.078.078 0 0 0-.018-.002c-.032 0-.058.019-.058.042 0 .009.003.016.009.023l.002.004.013.01.009.001a.076.076 0 0 0 .062-.005c.003.017.012.034.042.038.014.001.024-.002.03-.009h.003l.001-.004a.055.055 0 0 0 .01-.028l.001-.009-.002-.01a.167.167 0 0 0-.003-.022h.003l.067-.002-.003-.001.083-.004.065.063c-.015.004-.052.005-.082.026a.377.377 0 0 0-.063.064c-.012.013-.018.023-.018.023s-.005.009 0 .013a.163.163 0 0 0 .068-.003c.014-.005.024-.025.028-.017s.01.046.032.042c.023-.004.102-.064.158-.037.063.029-.081.071-.066.116.014.044.118.026.145.011.026-.014.105-.112.137-.075.045.052-.094.093-.068.145.024.05.102.038.14.017.037-.022.125-.156.144-.127.034.05-.074.098-.047.137.027.04.087-.001.126-.029.04-.028.056-.094.11-.124.055-.031.051-.018.066-.019.015.003.043-.016.073-.04a.275.275 0 0 1 .138-.052c.033-.005.056.011.073.024a2.867 2.867 0 0 0-.2.089.276.276 0 0 0-.112.083c-.003.003-.005.006-.005.01 0 .01.015.031.05.03.037 0 .06-.016.063-.023.003-.008.053-.036.116-.08a.549.549 0 0 1 .142-.059.137.137 0 0 1-.005.048c-.011.016-.062.024-.165.116-.104.092-.127.19-.127.19s.018-.021.057-.036a.256.256 0 0 1 .06-.016s.011-.005.043.011a.229.229 0 0 1 .048.035c.004.006.013.012.021.023l.03.036s.045-.061.089-.104l.053-.05a.557.557 0 0 0 .053.062c.031.03.1.04.131.056.031.018.058.043.058.043s.016-.032.027-.043c.01-.01.035-.028.035-.028s.006-.007.028-.016l.034-.013s.007-.008.056-.007c.052.001.067.016.067.016s-.074-.079-.105-.106c-.031-.028-.129-.06-.173-.092a.398.398 0 0 1-.065-.064l.003-.01a.268.268 0 0 0 .005-.034c.024.008.092.031.136.052a.324.324 0 0 1 .1.08.06.06 0 0 0 .056.03c.035-.001.05-.021.046-.035s-.023-.058-.143-.118a.792.792 0 0 0-.193-.067v-.018c.041 0 .168.004.228.02.067.02.12.064.174.103.059.052.167.138.251.14.122.005.372-.137.428-.159a.427.427 0 0 1 .135-.02h-.001l-.002-.001h.001a.34.34 0 0 0-.082-.036 1.311 1.311 0 0 0-.047-.02c-.02-.006-.082-.004-.082-.004l.104-.069a.432.432 0 0 0 .076-.075.544.544 0 0 1 .06-.068l.144.084a.055.055 0 0 0-.002.018l-.001.007.003.007a.05.05 0 0 0 .007.014l.005.009.01.004a.05.05 0 0 0 .013.006l.008.002h.008a.056.056 0 0 0 .052-.042l.002-.004v-.001a.052.052 0 0 0-.01-.041.053.053 0 0 0-.081-.003l-.002-.001.001-.002h-.002l-.104-.1a.273.273 0 0 1 .1-.044c.074.001.36.002.483-.075.14-.089.128-.237.136-.261.007-.025.028-.05.028-.05s-.025 0-.051.003a.138.138 0 0 0-.049.016l.027-.088a.28.28 0 0 0 .008-.062l.013-.01.01-.003c.018-.005.026-.016.05-.044l.132.023v.004c0 .009.002.017.006.024v.005l.005.003c.004.006.01.01.016.014l.003.003h.004c.005.003.01.004.015.004h.008a.053.053 0 0 0 .019-.005h.001l.002-.001a.054.054 0 0 0 .02-.02l.003-.002v-.004a.054.054 0 0 0 .005-.02v-.006a.054.054 0 0 0-.101-.02l-.106-.042c.015-.02.025-.039.061-.072a.702.702 0 0 1 .054-.042c.04-.007.096-.008.171-.05.11-.058.168-.241.2-.328a.544.544 0 0 1 .111-.165c-.006-.002-.079-.017-.194.1 0-.006.006-.094.005-.157a.274.274 0 0 0-.013-.08l.003-.018v-.004l.013-.044.175-.05a.051.051 0 0 0 .026.02l.007.004.008-.002a.051.051 0 0 0 .038-.016l.002-.001.002-.004a.05.05 0 0 0 .008-.017v-.001l.002-.012a.05.05 0 0 0-.008-.027.051.051 0 0 0-.095.027v.003h-.001l-.145.014.013-.04a.414.414 0 0 1 .102-.107c.074-.054.215-.127.227-.27.011-.144-.065-.187-.073-.222"/><path fill="#a8a29b" d="M13.326 9.471a.02.02 0 0 0 .001-.008c.016.015.05.048.099.1a2.212 2.212 0 0 0-.1-.092m-.67 1.592-.021.001a.51.51 0 0 0 .054-.016zm-.055.057a.513.513 0 0 0-.001-.085h.003a.303.303 0 0 1-.002.085m.014-.024-.032.03a.098.098 0 0 1 .032-.03m-.038 1.131-.003-.008-.006-.017.014.02zm-1.012.12a.223.223 0 0 0-.007-.02.38.38 0 0 0 .017.02zm-1.524-.676-.001-.016.007.003.054.021a.44.44 0 0 0-.06-.008m1.935-1.573-.002.01.004-.018zm-.154-.196.047-.048.001.002a.539.539 0 0 1-.048.046m-.053.348-.043.007a.644.644 0 0 0 .05-.011zm-.134 1.637.011-.016.052.012a5.066 5.066 0 0 1-.063.004m.061-1.666a.299.299 0 0 1-.064-.1.598.598 0 0 0 .064.1m-.203.241-.003.014-.009.01a.77.77 0 0 0 .012-.024m.078 1.056a.096.096 0 0 0-.041-.03c-.031-.015-.054-.013-.063-.006-.009.006-.005.01-.005.01 0 .001.022.068.043.093a.48.48 0 0 0 .098.057c-.02.002-.076.008-.096.024a.198.198 0 0 0-.027.029.141.141 0 0 1-.042-.037c.016-.018.027-.036.024-.05-.006-.028-.018-.035-.03-.035-.011-.033-.053-.108-.086-.125 0-.08-.015-.165-.065-.22a.219.219 0 0 0-.173-.073c-.072 0-.146.022-.21.022-.01 0-.017 0-.026-.002a.148.148 0 0 1-.043-.01l-.018-.01a.164.164 0 0 1-.05-.046.228.228 0 0 1-.039-.12v-.007c0-.057.029-.11.074-.161.067-.077.17-.15.26-.231.089-.08.165-.17.178-.28a.15.15 0 0 0 .001-.017.273.273 0 0 0-.068-.16c.07-.025.259-.099.239-.142l-.007-.009a.044.044 0 0 0 .006-.002v-.007c.014 0 .032-.002.044.01.016.016.02.056.02.064v.002h.002l.014-.001a.393.393 0 0 1-.025.07c-.021.043-.056.08-.051.085a.07.07 0 0 0 .018.015.056.056 0 0 0 .024.01l-.073.114c-.033.052-.081.126-.07.128a.465.465 0 0 0 .036.002l.012.002a.121.121 0 0 0-.002.026c-.02.031-.112.174-.11.256.002.093.018.072.044.156.027.084.042.208.043.219.001.006.008.002.014-.005a.256.256 0 0 0 .055-.026c.011.019.027.046.048.078a.331.331 0 0 0 .018.179c.032.064.111.154.145.19v.003zm-.153.268a.443.443 0 0 0-.029-.019.08.08 0 0 0 .025-.028l.069-.053zm-.022-.25a.395.395 0 0 0-.027.046 1.52 1.52 0 0 0 .012-.1c.015.02.025.04.015.054M11.147 10c.03.004.056-.081.103-.097-.046.02-.063.1-.104.1-.006 0-.012-.004-.02-.012a.068.068 0 0 0 .022.009zm.51-.442-.082-.011a.27.27 0 0 1 .082.01zm-.52 2.045a.06.06 0 0 0-.008-.041l.039.036a.564.564 0 0 0-.03.005zm-.341.137.021-.008v.006a.26.26 0 0 1-.021.002m-.146-.142a2.79 2.79 0 0 0-.03-.1l.006.002c.013.03.023.058.032.085zm.275-1.472.008.004-.045.04a.277.277 0 0 1 .1-.1zm3.32.513c.003-.016-.042-.027-.094-.073l-.072-.112c-.05-.112-.12-.303-.274-.53a1.684 1.684 0 0 0-.482-.463h-.001a.091.091 0 0 1 .016-.033c.012-.013.059-.064.041-.075-.018-.01-.077.009-.115.006-.037-.003-.062.006-.171-.085 0 0-.347-.242-.883-.273-.168-.01-.245.05-.254.082l-.001.001a.143.143 0 0 0-.01.026c-.059-.006-.245-.013-.241.171.001.07.017.093.072.109.056.015.167.02.26.105.095.085.102.147.102.197a.24.24 0 0 1-.02.09c-.02-.035-.034-.066-.055-.109a.386.386 0 0 0-.115-.118c.011-.031 0-.061 0-.061s-.01.022-.066.023c-.038 0-.07-.018-.146-.047a.37.37 0 0 0-.129-.02v-.012s-.01.009-.025.011a.09.09 0 0 1-.026 0c-.007-.087-.062-.148-.063-.149s-.003.03-.02.067a.382.382 0 0 1-.065.084c-.004-.057-.017-.109-.017-.109v.002c-.01-.067-.041-.052-.041-.052v.001l.002.024a.475.475 0 0 1-.045.21l-.057.026c.015-.015.022-.03.02-.091-.004-.081-.05-.09-.05-.09s.009.043-.004.117a.267.267 0 0 1-.064.124.255.255 0 0 0 .005-.068c-.004-.088-.038-.085-.04-.085l.002.008a.24.24 0 0 1-.021.078.397.397 0 0 1-.091.156c-.084.093-.121.094-.112.133.003.014.009.022.016.026a.107.107 0 0 0-.022.018.01.01 0 0 0-.009-.006l-.004.001a.01.01 0 0 0-.004.004l-.005.006a.164.164 0 0 0-.014.018.046.046 0 0 0-.008.023v.004c0 .005.003.01.006.013l-.003.001c-.01 0-.029.008-.067.048a.299.299 0 0 1-.053.013h-.015l-.002.002-.076.002a.101.101 0 0 1-.04-.01.086.086 0 0 1-.014-.012.075.075 0 0 0-.005-.005c-.014-.024-.002-.053-.002-.053.028.005.066-.023.123-.047.057-.024.094-.086.087-.089-.008-.003-.029.029-.08.052-.052.023-.112.03-.13.022-.017-.008-.007-.029-.003-.052.004-.024.04-.061.058-.089.018-.028.013-.056.017-.084.005-.029.068-.065.074-.077.005-.01-.014-.037-.028-.037s-.06.045-.06.045h-.002a.052.052 0 0 0-.019-.006.054.054 0 0 0-.033-.003.21.21 0 0 0-.038.025l-.003.002-.004.003a.543.543 0 0 0-.038.03l-.004.004c-.059.05-.126.116-.132.15-.01.056.049.118.051.125.002.004-.004.074.005.143v.007c.008.055.025.108.062.124a.18.18 0 0 0 0 .003h.007l.007.002c.082.014.193.008.23.006h.016l.01.02.044.045.033.02a.25.25 0 0 0 .011.008l.024.015.047.012.006-.002a.07.07 0 0 0 .052-.02l-.001-.002.007-.002a.028.028 0 0 1 .009.008.042.042 0 0 1 .007.024l-.001.011v.003h-.001c-.057.127-.178.186-.287.265a.517.517 0 0 0-.142.144.446.446 0 0 0-.061.258c.004.19.076.292.155.346a.365.365 0 0 0 .197.059h.013l.054-.006a1.33 1.33 0 0 1 .112-.006.42.42 0 0 1 .065.004c.019.003.032.008.036.014a.03.03 0 0 1 .007.02c0 .014-.01.03-.023.043a.154.154 0 0 1-.015.014c.005-.035.028-.038.029-.038s-.02-.007-.041-.006l-.024.003a.064.064 0 0 0-.023.014.132.132 0 0 0-.055-.007c-.05.004-.087.067-.094.1a.04.04 0 0 0-.025.004.08.08 0 0 0-.053.076c-.01-.002-.02-.002-.026.004-.01.01-.013.032-.012.053a.092.092 0 0 1-.034.007.09.09 0 0 1-.065-.03.152.152 0 0 1-.044-.086c-.007-.032-.012-.072-.034-.123-.023-.054-.08-.096-.132-.138-.053-.041-.101-.082-.11-.126a.123.123 0 0 1-.002-.025c0-.038.016-.076.033-.119a.895.895 0 0 0 .01-.03.205.205 0 0 0 .022-.089.292.292 0 0 0 0-.06c-.008-.074-.065-.129-.119-.166a.526.526 0 0 0-.09-.049c.001-.016-.021-.045-.046-.053-.025-.008-.039.045-.052.052l.006-.03s-.006-.028-.04-.036c-.017-.005-.027.005-.035.017v-.002s-.016-.038-.048-.04c-.033-.003-.036.054-.045.054-.01 0-.057-.002-.061.034-.004.037.034.04.035.046.001.006-.005.028.009.057.01.023.054.013.071.008a.049.049 0 0 0 .006.016c.017.028.072 0 .072 0a.281.281 0 0 0 .007-.024c.001.02 0 .057.03.063a.049.049 0 0 0 .054-.025.3.3 0 0 1 .033.024c.02.016.038.037.042.058a.07.07 0 0 1 .002.016c0 .033-.02.075-.042.124a.439.439 0 0 0-.04.205c.001.02.005.038.01.055a.16.16 0 0 0 .045.092c.017.022.036.04.056.057.053.044.11.075.137.12.028.044.035.116.049.185a.429.429 0 0 0 .029.098c.013.03.033.055.061.072a.26.26 0 0 0 .131.037h.004a.298.298 0 0 0 .116-.023.346.346 0 0 0 .068-.035.073.073 0 0 0 .053.028h.005c.031 0 .06-.019.079-.035a.181.181 0 0 0 .066-.027h.003a.101.101 0 0 0 .049-.018c.024.023.053.042.07.043h.002c.028 0 .08-.057.11-.094.006.012.022.041.047.041h.002l.006.01c-.047.005-.068.038-.068.038s.038.033.129.056l.14.037.001-.002v.002c-.022.028-.019.055-.015.064 0 .001.043.033.169-.004.127-.037.115-.045.132-.049s.023-.003.024-.003c0 .003.043.094.072.091.047-.005.047-.151.045-.214.054.062.108.123.163.183s.03.037.048.033c0 0 .036.072.068.13.032.057.063.116.09.103.028-.013.038-.056.04-.061l-.002.002a.2.2 0 0 0 .004-.024l.012.013a.992.992 0 0 1 .055.056c-.013.008-.05.032-.07.042-.023.013-.057.028-.057.028-.007-.004-.01.011-.05.01-.04 0-.041-.002-.041-.002s-.013-.019-.049-.015c-.036.004-.073.033-.077.058-.004-.003-.028-.002-.054.006-.037.007-.08.026-.078.072h-.005a.205.205 0 0 1-.068-.036c-.019-.013-.04-.028-.07-.043.014-.003.01-.015.007-.033-.003-.018-.031-.046-.031-.046l-.001.048c0 .007.001.015.005.02l-.004-.001-.03-.013a.134.134 0 0 0 0-.036c-.003-.03-.038-.042-.038-.042l.01.04c.004.014 0 .02 0 .025l.002.003a1.141 1.141 0 0 0-.203-.054c-.002-.008-.009-.018-.013-.026a.278.278 0 0 0-.052-.048s.01.036.016.052a.19.19 0 0 0-.064-.043l.027.053.013.016a.23.23 0 0 0-.068.03.331.331 0 0 0-.047.036.21.21 0 0 1-.017-.021c-.008-.013-.06-.032-.06-.032s.013.024.026.043c.013.018.016.018.028.032a.478.478 0 0 0-.056.076l-.002.003a.829.829 0 0 0-.148-.14l-.02-.017-.004-.002a.236.236 0 0 0 .01-.044.209.209 0 0 0-.011-.112.07.07 0 0 0 .02.016c.005 0 .006.004.017 0 .01-.006.036-.031.036-.042 0-.011-.007-.021-.004-.025s.011.002.017-.004c.006-.006-.058-.059-.061-.048-.003.01.01.017.006.02-.005.003-.019-.002-.025.002l-.001.002c-.005-.007-.007-.01-.006-.017 0-.007.012-.007.014-.018.001-.006-.018-.014-.039-.02l.007-.033.002-.005h.007c.02 0 .038-.017.041-.039a.045.045 0 0 0-.017-.041.04.04 0 0 0-.028-.008h-.001a.04.04 0 0 0-.015.006h-.003v.002a.045.045 0 0 0-.018.03v.003l-.002.006.002.005c.002.01.006.019.013.025l-.016.041c-.009-.001-.014 0-.015.002-.002.01.01.009.007.015-.001.005-.02.016-.027.025-.005-.008-.019-.02-.019-.025 0-.006.012-.007.008-.015-.005-.008-.075-.006-.075.006s.012.006.009.013c-.003.007-.019.02-.025.025-.006.006-.002.034-.002.034s.016.028.033.034l.006.002a.204.204 0 0 0-.045.095.498.498 0 0 0-.15-.008.082.082 0 0 0-.002-.014c-.004-.015-.047-.043-.047-.043s.004.032.009.043a.052.052 0 0 0 .014.019.263.263 0 0 0-.133.076.491.491 0 0 0-.005-.06v-.005a.47.47 0 0 0-.036-.124h.005c.02-.005.03-.054.03-.054s-.023.013-.032.02c-.005.005-.012.004-.018.004a.433.433 0 0 0-.097-.122.58.58 0 0 0-.113-.079.067.067 0 0 0 .009-.029c.003-.028-.035-.062-.035-.062s.004.037.002.05a.093.093 0 0 0 0 .03.24.24 0 0 0-.125-.022h-.003l-.004.001-.006.001a.227.227 0 0 0-.026-.11.205.205 0 0 0-.11-.104c.014.001.043 0 .048-.004.004-.004.008-.002.013-.016.004-.013.003-.055-.006-.064-.01-.01-.024-.01-.024-.016-.001-.006.01-.008.01-.018 0-.01-.096.003-.09.014.007.01.023.005.022.011 0 .007-.016.015-.018.023v.002c-.009-.001-.013-.002-.018-.008-.005-.006.003-.016-.004-.027-.002-.003-.012 0-.023.004l-.059-.085-.002-.005.001-.001.004-.004a.051.051 0 0 0 .001-.067.051.051 0 0 0-.045-.02l-.006.002a.046.046 0 0 0-.025.016H9.83l-.001.003a.048.048 0 0 0-.007.017l-.002.002v.003a.053.053 0 0 0 .013.04l.002.002.003.005.004.002a.05.05 0 0 0 .033.01l.047.102c-.016.01-.027.02-.025.024.007.01.016 0 .019.006.003.006-.002.03 0 .044-.011-.002-.033 0-.037-.004-.005-.005.004-.016-.007-.018-.01-.003-.065.059-.055.069.01.01.015-.005.019.003.003.008 0 .031 0 .041 0 .01.028.03.028.03s.036.008.055-.002a.05.05 0 0 0 .01-.006c0 .031.009.066.026.1a.208.208 0 0 0 .106.102.245.245 0 0 0-.019.058l-.006.017.002.013v.018h-.001c0 .016.001.031.004.048h-.01c-.014 0-.045-.006-.045-.006s.013.028.039.033c.007.001.014 0 .019-.001l.001.006.02.056.02.029a.39.39 0 0 0 .021.03l.025.036.035.03a.035.035 0 0 0-.013.006c-.012.01-.055-.006-.056-.006 0 0 .024.027.055.03a.046.046 0 0 0 .037-.01l.023.02.034.017c.016.01.032.018.048.025l.021.011.026.008.01.003c-.005.008-.008.019-.011.025-.006.014-.045.04-.045.04s.051-.01.06-.024a.088.088 0 0 0 .014-.036.52.52 0 0 0 .013.004l.007.002h.006a.558.558 0 0 0 .05.01l.04.006h.055l.002-.002h.001a.116.116 0 0 0-.001.032.174.174 0 0 0 .052.092l.01.015.006.003a.1.1 0 0 0-.016.007.144.144 0 0 0-.047.052l.065-.02a.127.127 0 0 0 .029-.018c.044.03.107.057.195.074-.01.014-.02.05-.02.05s.044-.02.052-.03a.043.043 0 0 0 .008-.013l.007.001a.058.058 0 0 0-.014.014c-.01.017-.02.057-.02.057s.029-.014.048-.035c.013-.013.018-.024.019-.032.01.001.021.003.032.003.026.002.05.003.072.002l.012.001.01-.002a.368.368 0 0 0 .2-.063h.001l.002-.002.004-.003a.236.236 0 0 0 .073.147.34.34 0 0 0 .084.06c-.007.011-.003.017-.013.022l-.027.014s.022.01.042.002a.063.063 0 0 0 .03-.022 1.426 1.426 0 0 0 .21.041c-.008.02-.03.047-.03.047s.035-.005.058-.03a.237.237 0 0 0 .012-.013.978.978 0 0 0 .166-.003.334.334 0 0 1-.028.054s.026-.015.045-.033a.097.097 0 0 0 .02-.025l-.002.057s.028-.034.034-.052a.121.121 0 0 0 .005-.02c.002 0 .005 0 .007-.002a.406.406 0 0 0 .125-.076c-.014.041-.016.077-.021.155l-.004.096a1.71 1.71 0 0 0-.092-.002c-.043 0-.128.005-.128.005a.273.273 0 0 0-.08-.006.785.785 0 0 0-.068.005.341.341 0 0 0-.067-.004c-.013-.02-.036-.034-.07-.036-.054-.004-.095.065-.095.11 0 .007 0 .012.002.018l-.03-.002c-.122-.008-.206-.173-.224-.213a.078.078 0 1 0-.067.019c.004.03.009.09-.017.097-.06.016-.408-.164-.498-.212a.093.093 0 0 0-.014-.028c-.045-.06-.229-.11-.254-.05-.025.058.075.17.146.183.042.007.073.004.094-.008.062.034.256.146.25.192-.01.055-.091.051-.091.051l.001.003a.078.078 0 1 0 .029.06v-.008l.005.011c.012.001.455.022.462.155.003.054-.108.086-.108.086l.037.045v.023s.185 0 .278.026c.005.047.051.079.095.079a.13.13 0 0 0 .024-.003.554.554 0 0 0 .102.078c.083.048.649.036.737.011.046-.013.084-.044.127-.078a.082.082 0 0 0 .052-.04.49.49 0 0 1 .144-.072c.163-.05.215-.052.215-.052l.012-.05s-.134-.051-.124-.098c.008-.037.198-.094.275-.116a.058.058 0 0 0 .009.017c.047.063.133.004.155-.02.023-.025.093-.065.064-.106-.028-.041-.077-.038-.109-.036-.027.001-.076.033-.099.057a.433.433 0 0 0-.1.022 1.063 1.063 0 0 1-.324.056.655.655 0 0 1-.113-.008.123.123 0 0 0 .01-.048c0-.057-.058-.104-.092-.104-.028 0-.07.016-.083.044l-.048-.02a.133.133 0 0 1 .036-.054.527.527 0 0 1 .265-.094.29.29 0 0 0 .12-.033l.026.011c.03.015.07.033.117.05 0 .014.01.037.02.056.017.028.05.04.05.04s-.033-.05-.03-.072l-.002-.01c.03.009.061.018.093.025l.032.01.04.002a.497.497 0 0 0 .034.002l.018.001.011-.001a.574.574 0 0 0 .176-.04.188.188 0 0 0 .026.033c.017.014.072.014.072.014L13.422 13a.153.153 0 0 1-.024-.035l.007-.003c-.001.011.018.024.041.033.028.012.061-.008.061-.008s-.052-.006-.067-.022a.083.083 0 0 0-.013-.013.923.923 0 0 0 .09-.048l.022-.01.02-.017a.352.352 0 0 0 .043-.034l.002-.001.006-.008a.16.16 0 0 0 .049.009c.019 0 .046-.024.046-.024s-.037-.003-.045-.005a.251.251 0 0 0-.039.004l-.001-.028v-.042l-.003-.004a.52.52 0 0 0-.01-.07.296.296 0 0 0 .142-.134c.01.005.045.005.052-.002.008-.006.009-.017.013-.018.005 0 .006.008.014.009.008 0 0-.073-.008-.068-.009.004-.005.017-.01.016-.005 0-.011-.012-.018-.014.003-.001.005-.003.005-.005 0-.008 0-.011.004-.015.004-.005.013 0 .02-.008.003-.002-.001-.01-.008-.018l.062-.081.006-.007.002.002a.057.057 0 0 0 .074-.022.052.052 0 0 0 0-.056.048.048 0 0 0-.025-.018l-.002-.002h-.004a.054.054 0 0 0-.017 0l-.004-.001-.003.002a.059.059 0 0 0-.036.025v.001l-.006.007v.007a.05.05 0 0 0 .002.033l-.081.076c-.006-.004-.01-.006-.011-.004-.007.006.002.01-.002.014-.004.003-.02.003-.03.006-.001-.01-.007-.027-.005-.03.003-.006.013 0 .012-.01 0-.009-.06-.04-.065-.03-.005.01.007.011.002.016-.006.004-.024.006-.032.008-.007.002-.016.029-.016.029s.001.03.013.044a.04.04 0 0 0 .024.014.31.31 0 0 0-.15.117c-.047-.038-.106-.073-.135-.07l-.008.001a.047.047 0 0 0 .003-.013c0-.008.027-.048.027-.048s-.043.013-.058.035c-.01.015-.01.03-.006.039a.687.687 0 0 0-.145.106.11.11 0 0 0 .003-.02c.002-.016.011-.053.011-.053s-.032.02-.041.04c-.008.017-.015.053.001.057l-.006.006c-.081.08-.073.145-.186.14l-.073-.005a.2.2 0 0 0 .015-.099.406.406 0 0 0-.012-.072c.013.004.046-.009.06.028.03.072-.047.07-.047.07s.026.013.056.012h.007a.086.086 0 0 0 .04-.012.063.063 0 0 0 .02-.02l.002-.004a.12.12 0 0 0 .013-.038.102.102 0 0 0-.014-.081l-.002-.004-.004-.005-.002-.003-.007-.01c-.02-.026-.038-.03-.043-.03a.019.019 0 0 0-.009 0 .019.019 0 0 0-.018-.018s.014-.058-.035-.07a.145.145 0 0 0-.087.004s-.008-.014-.022-.028a.07.07 0 0 0-.044-.02s-.014-.012-.03-.03c-.015-.017-.034-.021-.04-.018s-.011-.02-.034-.039l-.026-.022a.398.398 0 0 0 .003-.091c.02.02.054.048.067.042.02-.008.011-.073.005-.088 0 0 .002-.027-.001-.048a.523.523 0 0 0-.004-.021l.2.236s.017.023.075.031a.07.07 0 0 0 .074-.04.2.2 0 0 0 .106.063c.055.012.098-.033.113-.051a.144.144 0 0 0 .03.022c.088.026.208-.054.229-.068a.116.116 0 0 0 .021.007c.136.026.247-.092.233-.105-.01-.009-.065-.05-.065-.05s-.195-.154-.45-.342a89.262 89.262 0 0 1-.524-.394.673.673 0 0 0-.027-.22.565.565 0 0 0-.07-.145c.03-.024.04-.062.045-.099l.02.009c.016.016.068.105.111.123.044.018.067.012.106.043.038.03.18.242.188.25.02.03.04.054.04.054.01.01.021.016.033.016.023 0 .028-.011.02-.017a.387.387 0 0 1-.082-.13c-.024-.065-.055-.183-.094-.227l-.009-.01.048-.006c.03-.001.154.113.165.147.01.033-.001.046.05.159a.636.636 0 0 0 .077.139c.013.033.032.057.053.061.021.004-.007-.037-.02-.062-.014-.025-.022-.1-.053-.19-.032-.09-.05-.198-.07-.218l-.026-.023a.151.151 0 0 0 .02.008.46.46 0 0 0 .034.022.485.485 0 0 1 .107.176l.07.234c.027.085.068.181.08.158a.652.652 0 0 0-.048-.296 1.005 1.005 0 0 1-.05-.294l.006.002c.015.007.042.026.064.076.033.073.004.117.049.313.045.195.083.207.106.276.023.069-.015.236.031.272.013.01.01-.299.005-.386-.006-.087-.007-.09-.026-.308a2.708 2.708 0 0 0-.03-.253l.004.001c.008.008.033.035.057.118.04.138.04.372.065.431.025.06.024.038.05.112.026.074-.022.389.03.389.053 0 .044-.427.035-.554-.009-.124-.021-.482-.023-.518a.584.584 0 0 1 .08.12l.002.018c.01.093.013.41.026.519.014.12.036.133.036.234 0 .1-.034.202-.034.23 0 .028.004.081.036.08.033-.001.014-.07.025-.105.01-.036.022-.044.031-.065.02-.057.022-.427.055-.61.033-.182.072-.162.069-.374a.947.947 0 0 0-.072-.365 1.56 1.56 0 0 0 .057-.007c.023-.003.032-.016.036-.034z"/><rect width="23" height="17" x=".5" y="3.5" stroke="#100f0e" opacity=".1" rx="2"/></g></svg>
