<svg xmlns="http://www.w3.org/2000/svg" viewBox="0 0 24 24"><linearGradient id="a" x1="50%" x2="50%" y1="0%" y2="100%"><stop offset="0" stop-color="#fff"/><stop offset="1" stop-color="#f0f0f0"/></linearGradient><linearGradient id="b" x1="50%" x2="50%" y1="0%" y2="100%"><stop offset="0" stop-color="#f8dd4e"/><stop offset="1" stop-color="#f9da38"/></linearGradient><g fill="none" fill-rule="evenodd"><rect width="24" height="18" y="3" fill="#e70a2d" rx="2"/><g fill-rule="nonzero"><path fill="url(#a)" d="M11.62 1.587H9.761L8.369 5.209 6.976 4.174S5.964 1.494 5.583 1.07s-.77-.031-1.978.361c-1.21.393-1.256.844-1.729.844-.191 0-.8-.786-1.14-1.021C.237.909.057 1.07.178 1.588c.052.224.448.5.7.901.33.527.525 1.169.525 1.169s.453-.472.697-.55c.37-.117.786.085 1.274 0 .62-.107 1.28-.485 1.28-.485l.161 1.973s-2.209 2.287-2.019 3.2 2.293 2.035 2.787 2.836c.493.8-.294 1.098-.294 1.483 0 .384-.082.896.294.742s.42-.82.764-1.425c.237-.416.428-.636.46-.8.08-.404-.954-1.464-1.518-2.215-.268-.358-.81-.844-.81-.844l1.597-1.329s2.755 1.268 3.376.845c.621-.422.774-4.467.774-4.467l1.915-.518z" transform="translate(6 5)"/><path fill="url(#b)" d="M7.5 10.77c-.276 0-.5-.242-.5-.54 0-.297.224-.538.5-.538s.5.241.5.539c0 .297-.224.538-.5.538zm2-8.616c-.276 0-.5-.241-.5-.539 0-.297.224-.538.5-.538s.5.241.5.538c0 .298-.224.539-.5.539m0 4.308c-.276 0-.5-.242-.5-.539s.224-.538.5-.538.5.24.5.538-.224.539-.5.539m-6 2.153c-.276 0-.5-.24-.5-.538s.224-.539.5-.539.5.242.5.539-.224.538-.5.538m2-6.461c-.276 0-.5-.241-.5-.539 0-.297.224-.538.5-.538s.5.241.5.538c0 .298-.224.539-.5.539m1 4.308c-.276 0-.5-.483-.5-1.077 0-.595.224-1.077.5-1.077s.5.482.5 1.077c0 .594-.224 1.077-.5 1.077m-5-2.154c-.276 0-.5-.241-.5-.539s.224-.538.5-.538.5.24.5.538-.224.539-.5.539" transform="translate(6 5)"/></g><rect width="23" height="17" x=".5" y="3.5" stroke="#100f0e" opacity=".1" rx="2"/></g></svg>
