<svg xmlns="http://www.w3.org/2000/svg" viewBox="0 0 24 24"><linearGradient id="a" x1="50%" x2="50%" y1="0%" y2="100%"><stop offset="0" stop-color="#fff"/><stop offset="1" stop-color="#f0f0f0"/></linearGradient><mask id="b" fill="#fff"><path fill-rule="evenodd" d="M.5 2.5C.5 1.826.874.485.874.485A.672.672 0 0 1 1.495 0h2.01c.273 0 .552.214.621.481 0 0 .374 1.33.374 2.019 0 .645-.376 2.02-.376 2.02-.069.265-.269.654-.457.852 0 0-.417.628-1.167.628s-1.167-.628-1.167-.628a2.428 2.428 0 0 1-.46-.86S.5 3.162.5 2.5"/></mask><mask id="c" fill="#fff"><path fill-rule="evenodd" d="M.5 2.5C.5 1.826.874.485.874.485A.672.672 0 0 1 1.495 0h2.01c.273 0 .552.214.621.481 0 0 .374 1.33.374 2.019 0 .645-.376 2.02-.376 2.02-.069.265-.269.654-.457.852 0 0-.417.628-1.167.628s-1.167-.628-1.167-.628a2.428 2.428 0 0 1-.46-.86S.5 3.162.5 2.5"/></mask><g fill="none" fill-rule="evenodd"><path fill="#e93526" d="M24 4.998A2.001 2.001 0 0 0 21.995 3H2.005A2.004 2.004 0 0 0 0 4.998V9h24z"/><path fill="#0a5da7" d="M24 15H0V9h24z"/><path fill="#fcfbfa" d="M24 15H0v4.002A2 2 0 0 0 2.005 21h19.99A2.004 2.004 0 0 0 24 19.002z"/><path fill="#c74634" d="M4 9h7v5.347C10.727 15.449 9.56 16 7.5 16s-3.227-.551-3.5-1.653z"/><path fill="#d1a43a" fill-rule="nonzero" d="M4.875 7 4 5l1.75 1L7.5 5l1.75 1L11 5l-.875 2v1c0 .552-.378 1-.867 1H5.742c-.479 0-.867-.464-.867-1z"/><path d="M0 0h24v24H0z"/><path fill="url(#a)" fill-rule="nonzero" d="M.5 2.5C.5 1.826.874.485.874.485A.672.672 0 0 1 1.495 0h2.01c.273 0 .552.214.621.481 0 0 .374 1.33.374 2.019 0 .645-.376 2.02-.376 2.02-.069.265-.269.654-.457.852 0 0-.417.628-1.167.628s-1.167-.628-1.167-.628a2.428 2.428 0 0 1-.46-.86S.5 3.162.5 2.5" transform="translate(5 9)"/><g fill="#c74634"><path d="M4.422-.203-.203 5.578l.781.625L5.203.422z" mask="url(#b)" transform="translate(5 9)"/><path d="m-.203.422 4.625 5.78.78-.624L.579-.202z" mask="url(#c)" transform="translate(5 9)"/></g><ellipse cx="7.5" cy="11.5" fill="#fcfbfa" rx="1" ry="1.5"/><rect width="23" height="17" x=".5" y="3.5" stroke="#100f0e" opacity=".1" rx="2"/></g></svg>
