<svg xmlns="http://www.w3.org/2000/svg" viewBox="0 0 24 24"><linearGradient id="a" x1="50%" x2="50%" y1="0%" y2="100%"><stop offset="0" stop-color="#f8d246"/><stop offset="1" stop-color="#f9ce2f"/></linearGradient><g fill="none" fill-rule="evenodd"><rect width="24" height="18" y="3" fill="#e70a2d" rx="2"/><path fill="#0051ab" d="M8 3h8v18H8z"/><path fill="url(#a)" fill-rule="nonzero" d="M5 11h1v7H5zm-3 0h1v7H2zm1 4h2l-1 3zm0-6h2l-1 3zm0-1.75 1-1.5 1 1.5zM4 11c-.552 0-1-.672-1-1.5S3.448 8 4 8s1 .672 1 1.5S4.552 11 4 11m0 4c-.552 0-1-.672-1-1.5S3.448 12 4 12s1 .672 1 1.5S4.552 15 4 15"/><rect width="23" height="17" x=".5" y="3.5" stroke="#100f0e" opacity=".1" rx="2"/></g></svg>
