<svg xmlns="http://www.w3.org/2000/svg" viewBox="0 0 24 24"><linearGradient id="b" x1="50%" x2="50%" y1="0%" y2="100%"><stop offset="0" stop-color="#fbcd3f"/><stop offset="1" stop-color="#ffce2f"/></linearGradient><linearGradient id="c" x1="50%" x2="50%" y1="0%" y2="100%"><stop offset="0" stop-color="#f03633"/><stop offset="1" stop-color="#d82a28"/></linearGradient><linearGradient id="d" x1="82.842%" x2="20.426%" y1="18.137%" y2="78.479%"><stop offset="0" stop-color="#2aa854"/><stop offset="1" stop-color="#219447"/></linearGradient><linearGradient id="f" x1="50%" x2="50%" y1="0%" y2="100%"><stop offset="0" stop-color="#fff"/><stop offset="1" stop-color="#f0f0f0"/></linearGradient><linearGradient id="h" x1="50%" x2="50%" y1="0%" y2="100%"><stop offset="0" stop-color="#262626"/><stop offset="1" stop-color="#0d0d0d"/></linearGradient><linearGradient id="i" x1="50%" x2="50%" y1="0%" y2="100%"><stop offset="0" stop-color="#ffd44a"/><stop offset="1" stop-color="#fecb2f"/></linearGradient><mask id="a" fill="#fff"><rect width="24" height="18" y="3" fill-rule="evenodd" rx="2"/></mask><mask id="e" fill="#fff"><path fill-rule="evenodd" d="M0 0h8v6H0z"/></mask><mask id="g" fill="#fff"><path fill-rule="evenodd" d="M0 0h8v6H0z"/></mask><g fill="none" fill-rule="evenodd"><rect width="24" height="18" y="3" fill="#0090c6" rx="2"/><g mask="url(#a)"><path fill="url(#b)" fill-rule="nonzero" d="M20.656 7.832C22.094 7.467 23 7.37 23 8.66c0 2.396-3.134 4.34-7 4.34s-7-1.944-7-4.341c0-1.289.906-1.192 2.344-.827a6.107 6.107 0 0 1-.226-.813c-.402-1.954.192-3.74 1.327-3.99 1.134-.25 2.38 1.133 2.781 3.087.19.921.158 1.805-.047 2.508a10.045 10.045 0 0 0 1.642 0c-.205-.703-.237-1.587-.047-2.508.401-1.954 1.647-3.336 2.781-3.087 1.135.25 1.729 2.036 1.327 3.99a6.107 6.107 0 0 1-.226.813" transform="translate(0 3)"/><path fill="#fff" d="M8 17h1v1H8zm1-1h1v1H9zm1 0h1v1h-1zm1 1h1v1h-1zm1-1h1v1h-1zm1 0h1v1h-1zm1 1h1v1h-1zm1-1h1v1h-1zm1 0h1v1h-1zm1 1h1v1h-1zm1-1h1v1h-1zm1 0h1v1h-1zm1 1h1v1h-1zm1-1h1v1h-1zm1 0h1v1h-1zm1 1h1v1h-1z"/><g fill-rule="nonzero"><path fill="url(#c)" d="M0 0h8v6H0z" transform="translate(0 3)"/><path fill="url(#d)" d="m4.6 2.4.114-4.686-1.171.029-.114 4.686-4.686.114-.029 1.171L3.4 3.6l-.114 4.686 1.171-.029.114-4.686 4.686-.114.029-1.171z" mask="url(#e)" transform="rotate(-45 7.621 4.5)"/><path fill="url(#f)" d="M5 2.046V-1.2H3v3.246H0v1.985h3V6h2V4.031h3V2.046z" mask="url(#g)" transform="translate(0 3)"/></g><path fill="url(#f)" fill-rule="nonzero" d="M0 6h8v6H0z" transform="translate(0 3)"/><path fill="url(#h)" fill-rule="nonzero" d="M2.5 9a.5.5 0 1 1 0-1 .5.5 0 0 1 0 1m-2 0a.5.5 0 1 1 0-1 .5.5 0 0 1 0 1m0 2a.5.5 0 1 1 0-1 .5.5 0 0 1 0 1m2-4a.5.5 0 1 1 0-1 .5.5 0 0 1 0 1m2 0a.5.5 0 1 1 0-1 .5.5 0 0 1 0 1m2 0a.5.5 0 1 1 0-1 .5.5 0 0 1 0 1m-6 0a.5.5 0 1 1 0-1 .5.5 0 0 1 0 1m4 2a.5.5 0 1 1 0-1 .5.5 0 0 1 0 1m2 0a.5.5 0 1 1 0-1 .5.5 0 0 1 0 1m-1-1a.5.5 0 1 1 0-1 .5.5 0 0 1 0 1m0 2a.5.5 0 1 1 0-1 .5.5 0 0 1 0 1m-2 0a.5.5 0 1 1 0-1 .5.5 0 0 1 0 1m0-2a.5.5 0 1 1 0-1 .5.5 0 0 1 0 1m-2 0a.5.5 0 1 1 0-1 .5.5 0 0 1 0 1m5 3a.5.5 0 1 1 0-1 .5.5 0 0 1 0 1m1-3a.5.5 0 1 1 0-1 .5.5 0 0 1 0 1m0 2a.5.5 0 1 1 0-1 .5.5 0 0 1 0 1m0 2a.5.5 0 1 1 0-1 .5.5 0 0 1 0 1m-2 0a.5.5 0 1 1 0-1 .5.5 0 0 1 0 1m-1-1a.5.5 0 1 1 0-1 .5.5 0 0 1 0 1m-1 1a.5.5 0 1 1 0-1 .5.5 0 0 1 0 1m-1-1a.5.5 0 1 1 0-1 .5.5 0 0 1 0 1m-1-1a.5.5 0 1 1 0-1 .5.5 0 0 1 0 1m0 2a.5.5 0 1 1 0-1 .5.5 0 0 1 0 1" transform="translate(0 3)"/><path fill="#db2f20" fill-rule="nonzero" d="M0 15h8v6H0z"/><path fill="url(#i)" fill-rule="nonzero" d="M4 14c-1.657 0-3-.224-3-.5s1.343-.5 3-.5 3 .224 3 .5-1.343.5-3 .5m0 3c-1.657 0-3-.224-3-.5s1.343-.5 3-.5 3 .224 3 .5-1.343.5-3 .5" transform="translate(0 3)"/></g><rect width="23" height="17" x=".5" y="3.5" stroke="#100f0e" opacity=".1" rx="2"/></g></svg>
