<svg xmlns="http://www.w3.org/2000/svg" viewBox="0 0 24 24"><g fill="none" fill-rule="evenodd"><path fill="#ee072c" d="M0 12h24V4.997A2 2 0 0 0 21.995 3H2.005A2.002 2.002 0 0 0 0 4.997z"/><path fill="#000" d="M0 19.003A2 2 0 0 0 2.005 21h19.99A2.002 2.002 0 0 0 24 19.003V12H0z"/><path fill="#facd62" fill-rule="nonzero" d="m11.883 14.211-2.446-1.269c-.399-.207-.507-.627-.24-.938.265-.31.805-.394 1.204-.187l2.668 1.384c.118-.174.212-.36.28-.559.497-1.443-.603-2.926-2.457-3.313-.463-.096-.738-.467-.614-.828.124-.36.6-.574 1.064-.478 2.78.58 4.43 2.805 3.686 4.969a3.622 3.622 0 0 1-.508.962l1.093.568c.4.207.507.627.241.937-.266.311-.805.395-1.205.188l-1.237-.642c-1.263.853-3.03 1.218-4.768.856-.463-.097-.738-.468-.614-.828.124-.361.6-.575 1.064-.479.989.207 1.993.06 2.79-.343zM9.92 11.027c-.48 0-.869-.303-.869-.676 0-.373.39-.676.87-.676.479 0 .868.303.868.676 0 .373-.39.676-.869.676"/><rect width="23" height="17" x=".5" y="3.5" stroke="#100f0e" opacity=".1" rx="2"/></g></svg>
