<svg xmlns="http://www.w3.org/2000/svg" viewBox="0 0 24 24"><g fill="none" fill-rule="evenodd"><path fill="#ffd300" d="M0 12h24V4.997A2 2 0 0 0 21.995 3H2.005A2.002 2.002 0 0 0 0 4.997z"/><path fill="#008c45" d="M0 19.003A2 2 0 0 0 2.005 21h19.99A2.002 2.002 0 0 0 24 19.003V12H0z"/><path fill="#ff082a" d="M0 19.005C0 20.107.887 21 1.998 21H8V3H1.998A1.996 1.996 0 0 0 0 4.995z"/><path fill="#000" d="M4 13.61 2.146 15l.684-2.284L1 11.292l2.277-.022L4 9l.723 2.27L7 11.292l-1.83 1.424L5.854 15z"/><rect width="23" height="17" x=".5" y="3.5" stroke="#100f0e" opacity=".1" rx="2"/></g></svg>
