<svg xmlns="http://www.w3.org/2000/svg" viewBox="0 0 24 24"><g fill="none" fill-rule="evenodd"><rect width="24" height="18" y="3" fill="#e70a2d" rx="2"/><path fill="#fcfbfa" d="M0 3h12v10H0z"/><path fill="#e70a2d" d="M6 7V5.258C6 5.104 5.89 5 5.755 5h-1.51A.25.25 0 0 0 4 5.258V7H2.258C2.104 7 2 7.11 2 7.245v1.51A.25.25 0 0 0 2.258 9H4v1.742c0 .154.11.258.245.258h1.51A.25.25 0 0 0 6 10.742V9h1.742C7.896 9 8 8.89 8 8.755v-1.51A.25.25 0 0 0 7.742 7z"/><rect width="23" height="17" x=".5" y="3.5" stroke="#100f0e" opacity=".1" rx="2"/></g></svg>
