<svg xmlns="http://www.w3.org/2000/svg" viewBox="0 0 24 24"><g fill="none" fill-rule="evenodd"><rect width="24" height="18" y="3" fill="#fcfbfa" rx="2"/><g fill="#ff082a"><path d="M0 10h24v4H0z"/><path d="M10 3h4v18h-4zM4.5 7.842 2.955 9l.57-1.903L2 5.91l1.897-.018L4.5 4l.603 1.892L7 5.91 5.475 7.097 6.045 9zm15 0L17.955 9l.57-1.903L17 5.91l1.897-.018L19.5 4l.603 1.892L22 5.91l-1.525 1.187.57 1.903zm0 11L17.955 20l.57-1.903L17 16.91l1.897-.018L19.5 15l.603 1.892L22 16.91l-1.525 1.187.57 1.903zm-15 0L2.955 20l.57-1.903L2 16.91l1.897-.018L4.5 15l.603 1.892L7 16.91l-1.525 1.187.57 1.903z"/></g><rect width="23" height="17" x=".5" y="3.5" stroke="#100f0e" opacity=".1" rx="2"/></g></svg>
