<svg xmlns="http://www.w3.org/2000/svg" viewBox="0 0 24 24"><g fill="none" fill-rule="evenodd"><path fill="#0051ab" d="M24 4.998A2.001 2.001 0 0 0 21.995 3H2.005A2.004 2.004 0 0 0 0 4.998V9h24z"/><path fill="#fcfbfa" d="M24 15H0V9h24z"/><path fill="#0051ab" d="M24 15H0v4.002A2 2 0 0 0 2.005 21h19.99A2.004 2.004 0 0 0 24 19.002z"/><path fill="#467146" d="M10.8 10.4a2 2 0 1 0 2.4 0l-.7 2.1h-1z"/><path fill="#facd62" d="m12 10 .5 2.5h-1z"/><rect width="23" height="17" x=".5" y="3.5" stroke="#100f0e" opacity=".1" rx="2"/></g></svg>
