<svg xmlns="http://www.w3.org/2000/svg" viewBox="0 0 24 24"><g fill="none" fill-rule="evenodd"><path fill="#0a5da7" d="M0 19.003A2 2 0 0 0 2.005 21h19.99A2.002 2.002 0 0 0 24 19.003V12H0z"/><path fill="#e93526" d="M0 12h24V4.997A2 2 0 0 0 21.995 3H2.005A2.002 2.002 0 0 0 0 4.997z"/><path fill="#fcfbfa" d="m0 4 12 8-12 8z"/><path fill="#c74634" d="M1.5 12v-1.494A.997.997 0 0 1 2.495 9.5h2.01c.55 0 .995.457.995 1.006V12c0 .845-.384 1.447-1.003 1.798a2.304 2.304 0 0 1-1.03.3 2.312 2.312 0 0 1-.964-.3C1.884 13.447 1.5 12.845 1.5 12"/><path fill="#28b2ec" d="M2 12v-1.494c0-.28.216-.506.495-.506h2.01c.273 0 .495.232.495.506V12c0 1.5-1.5 1.6-1.5 1.6S2 13.5 2 12"/><path fill="#fff" fill-rule="nonzero" d="m3 11.5.5-.5.5.5v1H3z"/><g fill="#facd62" transform="translate(0 8)"><path d="M1.001 6.368A3.389 3.389 0 0 0 3.5 7.5c.948 0 1.915-.448 2.521-1.162a.5.5 0 0 0-.762-.647A2.395 2.395 0 0 1 3.5 6.5a2.39 2.39 0 0 1-1.743-.787.5.5 0 1 0-.756.655"/><circle cx="3.5" cy="1.5" r="1"/></g><rect width="23" height="17" x=".5" y="3.5" stroke="#100f0e" opacity=".1" rx="2"/></g></svg>
