<svg xmlns="http://www.w3.org/2000/svg" viewBox="0 0 24 24"><g fill="none" fill-rule="evenodd"><path d="M0 0h24v24H0z"/><path fill="#ffd400" d="M0 9h24v6H0z"/><path fill="#008d3d" d="M0 9h24V4.998A2.001 2.001 0 0 0 21.995 3H2.005A2.004 2.004 0 0 0 0 4.998zm0 10.002A2 2 0 0 0 2.005 21h19.99A2.004 2.004 0 0 0 24 19.002V15H0z"/><path fill="#e70a2d" d="m0 5 7 7-7 7z"/><path fill="#000" d="M11.436 12.987 9.992 14.07l.533-1.779-1.426-1.11 1.774-.016.563-1.768.563 1.768 1.773.017-1.425 1.11.533 1.778zm5.993 0-1.444 1.083.533-1.779-1.426-1.11 1.774-.016.563-1.768.563 1.768 1.773.017-1.425 1.11.533 1.778z"/><rect width="23" height="17" x=".5" y="3.5" stroke="#100f0e" opacity=".1" rx="2"/></g></svg>
