<svg xmlns="http://www.w3.org/2000/svg" viewBox="0 0 24 24"><g fill="none" fill-rule="evenodd"><rect width="24" height="18" y="3" fill="#6bc0c6" rx="2"/><g fill="#facd62" fill-rule="nonzero"><circle cx="13" cy="12" r="3"/><path d="M13 15.956 11.665 18l-.338-2.436-2.068 1.248.726-2.346-2.39.204 1.645-1.79L7 12l2.24-.88-1.646-1.79 2.39.204-.725-2.346 2.068 1.248L11.665 6 13 8.044 14.335 6l.338 2.436 2.068-1.248-.726 2.346 2.39-.204-1.645 1.79L19 12l-2.24.88 1.646 1.79-2.39-.204.725 2.346-2.068-1.248L14.335 18zM13 16a4 4 0 1 0 0-8 4 4 0 0 0 0 8M1 6.252C1 6.113 1.107 6 1.252 6h.496c.139 0 .252.107.252.252v.496A.248.248 0 0 1 1.748 7h-.496A.249.249 0 0 1 1 6.748zm0 2C1 8.113 1.107 8 1.252 8h.496c.139 0 .252.107.252.252v.496A.248.248 0 0 1 1.748 9h-.496A.249.249 0 0 1 1 8.748zm0 2c0-.139.107-.252.252-.252h.496c.139 0 .252.107.252.252v.496a.248.248 0 0 1-.252.252h-.496A.249.249 0 0 1 1 10.748zm0 2c0-.139.107-.252.252-.252h.496c.139 0 .252.107.252.252v.496a.248.248 0 0 1-.252.252h-.496A.249.249 0 0 1 1 12.748zm0 2c0-.139.107-.252.252-.252h.496c.139 0 .252.107.252.252v.496a.248.248 0 0 1-.252.252h-.496A.249.249 0 0 1 1 14.748zm0 2c0-.139.107-.252.252-.252h.496c.139 0 .252.107.252.252v.496a.248.248 0 0 1-.252.252h-.496A.249.249 0 0 1 1 16.748zm0 2c0-.139.107-.252.252-.252h.496c.139 0 .252.107.252.252v.496a.248.248 0 0 1-.252.252h-.496A.249.249 0 0 1 1 18.748zm1-1c0-.139.107-.252.252-.252h.496c.139 0 .252.107.252.252v.496a.248.248 0 0 1-.252.252h-.496A.249.249 0 0 1 2 17.748zm0-2c0-.139.107-.252.252-.252h.496c.139 0 .252.107.252.252v.496a.248.248 0 0 1-.252.252h-.496A.249.249 0 0 1 2 15.748zm0-2c0-.139.107-.252.252-.252h.496c.139 0 .252.107.252.252v.496a.248.248 0 0 1-.252.252h-.496A.249.249 0 0 1 2 13.748zm0-2c0-.139.107-.252.252-.252h.496c.139 0 .252.107.252.252v.496a.248.248 0 0 1-.252.252h-.496A.249.249 0 0 1 2 11.748zm0-2C2 9.113 2.107 9 2.252 9h.496c.139 0 .252.107.252.252v.496a.248.248 0 0 1-.252.252h-.496A.249.249 0 0 1 2 9.748zm0-2C2 7.113 2.107 7 2.252 7h.496c.139 0 .252.107.252.252v.496A.248.248 0 0 1 2.748 8h-.496A.249.249 0 0 1 2 7.748zm0-2C2 5.113 2.107 5 2.252 5h.496c.139 0 .252.107.252.252v.496A.248.248 0 0 1 2.748 6h-.496A.249.249 0 0 1 2 5.748z"/></g><rect width="23" height="17" x=".5" y="3.5" stroke="#100f0e" opacity=".1" rx="2"/></g></svg>
