<svg xmlns="http://www.w3.org/2000/svg" viewBox="0 0 24 24"><mask id="a" fill="#fff"><rect width="24" height="18" fill-rule="evenodd" rx="2"/></mask><g fill="none" fill-rule="evenodd"><g transform="translate(0 3)"><rect width="24" height="18" fill="#fff" mask="url(#a)" rx="2"/><path fill="#003d8a" d="M0 0h11v10H0z" mask="url(#a)"/><path fill="#e93526" d="M24 16v2H0v-2zm0-4v2H0v-2zm0-4v2H11V8zm0-4v2H11V4zm0-4v2H11V0z" mask="url(#a)"/><path fill="#fff" d="M2 8v1H1V8zm2 0v1H3V8zm2 0v1H5V8zm2 0v1H7V8zm2 0v1H9V8zM3 7v1H2V7zm2 0v1H4V7zm2 0v1H6V7zm2 0v1H8V7zM2 6v1H1V6zm2 0v1H3V6zm2 0v1H5V6zm2 0v1H7V6zm2 0v1H9V6zM3 5v1H2V5zm2 0v1H4V5zm2 0v1H6V5zm2 0v1H8V5zM2 4v1H1V4zm2 0v1H3V4zm2 0v1H5V4zm2 0v1H7V4zm2 0v1H9V4zM3 3v1H2V3zm2 0v1H4V3zm2 0v1H6V3zm2 0v1H8V3zM2 2v1H1V2zm2 0v1H3V2zm2 0v1H5V2zm2 0v1H7V2zm2 0v1H9V2zM3 1v1H2V1zm2 0v1H4V1zm2 0v1H6V1zm2 0v1H8V1z" mask="url(#a)"/></g><rect width="23" height="17" x=".5" y="3.5" stroke="#100f0e" opacity=".1" rx="2"/></g></svg>
