<svg xmlns="http://www.w3.org/2000/svg" viewBox="0 0 24 24"><g fill="none" fill-rule="evenodd"><rect width="24" height="18" y="3" fill="#e93425" rx="2"/><g fill="#fadb87" transform="translate(6 6)"><circle cx="6" cy="5.85" r="2.727"/><path d="M6 9.706 4.665 11.7l-.338-2.375-2.068 1.217.726-2.287-2.39.199L2.24 6.708 0 5.85l2.24-.859L.594 3.246l2.39.199-.725-2.286 2.068 1.216L4.665 0 6 1.993 7.335 0l.338 2.375 2.068-1.216-.726 2.286 2.39-.199L9.76 4.991 12 5.85l-2.24.858 1.646 1.745-2.39-.199.725 2.287-2.068-1.217-.338 2.375zm0-.038A3.818 3.818 0 1 0 6 2.03a3.818 3.818 0 0 0 0 7.637z"/></g><rect width="23" height="17" x=".5" y="3.5" stroke="#100f0e" opacity=".1" rx="2"/></g></svg>
