<svg xmlns="http://www.w3.org/2000/svg" viewBox="0 0 24 24"><g fill="none" fill-rule="evenodd"><rect width="24" height="18" y="3" fill="#002c85" rx="2"/><path fill="#f20000" d="M24 21 0 12l24-9z"/><path fill="#fcfbfa" d="M24 5 4 12l20 7z"/><path fill="#3f3a36" d="M19.407 11.906c-.142-.13-.965.17-.965.17l-1.43-1.303s-.073-.723.6-1.091c.508-.278 1.46-.175 2.392-.546 1.493-.593 2.994-1.636 2.994-1.636l-.96 2.406s1.1.517.96.867c-.04.101-1.114.42-1.197.545-.158.24.627.312.383.588a25.232 25.232 0 0 1-1.58 1.594l-1.197-.545s.18-.885 0-1.05z"/><path fill="#ffce00" d="M17 12a1 1 0 0 1 .993.883L18 13h3.444c.052 0 .104.008.154.024l.017.006c.014.004.027.01.04.015.204.078.345.252.345.455l-.003.04a.608.608 0 0 1-.334.612l-3.889 1.8c-.282.13-.608-.011-.729-.316s.01-.657.292-.788L19.17 14h-3.587c-.322 0-.583-.224-.583-.5 0-.249.212-.455.489-.493l.094-.007H16a1 1 0 0 1 1-1"/><rect width="23" height="17" x=".5" y="3.5" stroke="#100f0e" opacity=".1" rx="2"/></g></svg>
