<svg xmlns="http://www.w3.org/2000/svg" xmlns:xlink="http://www.w3.org/1999/xlink" viewBox="0 0 24 24"><defs><rect id="a" width="24" height="18" rx="2"/><mask id="b" fill="#fff"><use xlink:href="#a" fill-rule="evenodd"/></mask></defs><g fill="none" fill-rule="evenodd"><g transform="translate(0 3)"><use xlink:href="#a" fill="#fff"/><path fill="#ff0726" d="M18 0h6v18h-6zM0 0h6v18H0zm13.664 8.764c-.13.13-.205.083-.17-.094l.649-3.241-1.429.714L12 4l-.714 2.143-1.429-.714.649 3.241c.036.182-.047.218-.17.094l-.957-.957a.34.34 0 0 0-.478.006l-.472.473L7 7.57 7.714 9l-.472.472a.334.334 0 0 0-.013.472l1.914 1.913h2.143L11.643 14h.714l.357-2.143h2.143l1.914-1.913c.126-.127.117-.341-.013-.472L16.286 9 17 7.571l-1.429.715-.472-.473a.344.344 0 0 0-.478-.006z" mask="url(#b)"/></g><rect width="23" height="17" x=".5" y="3.5" stroke="#100f0e" opacity=".1" rx="2"/></g></svg>