<svg xmlns="http://www.w3.org/2000/svg" viewBox="0 0 24 24"><g fill="none" fill-rule="evenodd"><path fill="#008b4b" d="M0 19.005C0 20.107.887 21 1.998 21H8V3H1.998A1.996 1.996 0 0 0 0 4.995z"/><path fill="#e93526" d="M24 19.005A1.992 1.992 0 0 1 22.002 21H16V3h6.002C23.105 3 24 3.893 24 4.995z"/><path fill="#fc0" d="M8 3h8v18H8z"/><path fill="#008b4b" d="M12 13.61 10.146 15l.684-2.284L9 11.292l2.277-.022L12 9l.723 2.27 2.277.022-1.83 1.424.684 2.284z"/><path d="M0 0h24v24H0z"/><rect width="23" height="17" x=".5" y="3.5" stroke="#100f0e" opacity=".1" rx="2"/></g></svg>
