<svg xmlns="http://www.w3.org/2000/svg" viewBox="0 0 24 24"><mask id="a" fill="#fff"><path fill-rule="evenodd" d="M0 .026h2.09V3.33H0z"/></mask><mask id="b" fill="#fff"><path fill-rule="evenodd" d="M.011.01H2.14v.676H.01z"/></mask><g fill="none" fill-rule="evenodd"><rect width="24" height="18" y="3" fill="#fcfbfa" rx="2"/><path fill="#fcfbfa" d="M0 19.005C0 20.107.887 21 1.998 21H8V3H1.998A1.996 1.996 0 0 0 0 4.995z"/><path fill="#ffdd2b" d="M24 19.005A1.992 1.992 0 0 1 22.002 21H16V3h6.002C23.105 3 24 3.893 24 4.995z"/><path fill="#0768a9" d="M8 3h8v18H8z"/><rect width="23" height="17" x=".5" y="3.5" stroke="#100f0e" opacity=".1" rx="2"/><path fill="#ecd21c" d="M11.294 10.568c-.059-.034-.134-.147-.134-.206 0-.103.117-.186.262-.186l.058-.026.027-.09s-.326-.043-.415.119c-.09.161-.043.267-.006.352.037.085.122.128.122.128zm.34-.268a.11.11 0 0 1-.03-.073c0-.074.082-.134.184-.134a.44.44 0 0 1 .139.022l.009-.155s-.275-.032-.381.093a.3.3 0 0 0-.043.35l.151-.048zm1.068.268c.059-.034.134-.147.134-.206 0-.103-.117-.186-.262-.186l-.058-.026-.027-.09s.326-.043.415.119c.089.161.043.267.006.352-.037.085-.122.128-.122.128zm-.34-.268a.11.11 0 0 0 .03-.073c0-.074-.082-.134-.184-.134a.443.443 0 0 0-.138.022l-.01-.155s.275-.032.381.093a.3.3 0 0 1 .07.278.924.924 0 0 1-.027.071l-.151-.047z"/><path fill="#be0027" d="M11.265 10.569c.17-.183.436-.3.735-.3s.564.117.734.3l-.205.58h-1.07z"/><path fill="#ecd21c" d="M12.135 10.482 12 10.389l-.135.093.052-.478h.166z"/><g fill="#fff"><path d="M12.012 10.078a.05.05 0 0 0-.06.04.051.051 0 0 0 .04.06.05.05 0 0 0 .059-.04.051.051 0 0 0-.039-.06"/><path d="M12.012 10.172c-.033-.007-.065.016-.072.051a.065.065 0 0 0 .048.077.062.062 0 0 0 .072-.05.066.066 0 0 0-.048-.078"/><path d="M12.016 10.295c-.042-.01-.083.02-.092.064a.083.083 0 0 0 .06.098c.042.009.083-.02.092-.065a.082.082 0 0 0-.06-.097m-.853.235a.078.078 0 0 0-.076-.08.078.078 0 0 0-.076.08c0 .045.034.082.076.082.042 0 .076-.037.076-.081m.391-.345a.078.078 0 0 0-.076-.08.078.078 0 0 0-.076.08c0 .045.034.081.076.081a.078.078 0 0 0 .076-.08"/><path d="M11.576 10.34c0-.045-.034-.082-.076-.082-.042 0-.076.037-.076.081 0 .045.034.08.076.08a.078.078 0 0 0 .076-.08m-.472.086a.082.082 0 0 0-.044-.104.074.074 0 0 0-.097.046.082.082 0 0 0 .043.104.074.074 0 0 0 .098-.046"/><path d="M11.11 10.304a.085.085 0 0 0-.004-.114.073.073 0 0 0-.107.004.085.085 0 0 0 .004.114c.03.03.078.029.107-.004"/><path d="M11.174 10.205a.083.083 0 0 0 .036-.107.074.074 0 0 0-.1-.04.083.083 0 0 0-.037.108c.018.04.063.058.1.039"/><path d="M11.275 10.145a.079.079 0 0 0 .071-.086.078.078 0 0 0-.08-.076c-.041.003-.073.041-.07.086a.078.078 0 0 0 .08.076"/><path d="M11.386 10.114a.074.074 0 0 0 .096-.05.082.082 0 0 0-.048-.103.075.075 0 0 0-.096.051.082.082 0 0 0 .048.102"/><path d="M11.508 10.116c.032.028.08.023.107-.011a.085.085 0 0 0-.01-.114.073.073 0 0 0-.108.01.084.084 0 0 0 .01.115"/><path d="M11.754 9.974a.078.078 0 0 0-.076-.08c-.041 0-.075.035-.075.08s.034.08.075.08a.078.078 0 0 0 .076-.08"/><path d="M11.899 9.958a.078.078 0 0 0-.076-.08.078.078 0 0 0-.076.08c0 .044.034.08.076.08a.078.078 0 0 0 .076-.08m.937.572c0-.044.034-.08.076-.08.042 0 .076.036.076.08 0 .045-.034.082-.076.082-.042 0-.076-.037-.076-.081m-.391-.345c0-.044.034-.08.076-.08.042 0 .076.036.076.08 0 .045-.034.081-.076.081a.078.078 0 0 1-.076-.08"/><path d="M12.424 10.34c0-.045.034-.082.076-.082.041 0 .075.037.075.081 0 .045-.034.08-.075.08a.078.078 0 0 1-.076-.08m.471.086a.082.082 0 0 1 .044-.104.075.075 0 0 1 .098.046.082.082 0 0 1-.044.104.074.074 0 0 1-.098-.046"/><path d="M12.89 10.304a.084.084 0 0 1 .003-.114.073.073 0 0 1 .108.004.085.085 0 0 1-.004.114.072.072 0 0 1-.107-.004"/><path d="M12.826 10.205a.083.083 0 0 1-.037-.107.074.074 0 0 1 .1-.04.083.083 0 0 1 .038.108c-.018.04-.063.058-.101.039"/><path d="M12.724 10.145a.079.079 0 0 1-.071-.086.078.078 0 0 1 .08-.076.079.079 0 0 1 .071.086.078.078 0 0 1-.08.076"/><path d="M12.613 10.114c-.04.014-.082-.008-.096-.05a.082.082 0 0 1 .048-.103.074.074 0 0 1 .096.051.082.082 0 0 1-.048.102"/><path d="M12.491 10.116a.073.073 0 0 1-.106-.011.085.085 0 0 1 .01-.114.073.073 0 0 1 .107.01.084.084 0 0 1-.01.115"/><path d="M12.245 9.974c0-.045.034-.08.076-.08.042 0 .076.035.076.08s-.034.08-.076.08a.078.078 0 0 1-.076-.08"/><path d="M12.1 9.958c0-.045.035-.08.077-.08.041 0 .076.035.076.08 0 .044-.035.08-.076.08a.078.078 0 0 1-.076-.08"/></g><path fill="#000" d="M12.892 10.618a.117.117 0 0 0-.086-.057.12.12 0 0 0-.038.005l-.003-.002-.02-.012-.019.013-.01.01-.002-.001-.02-.011-.018.013a.114.114 0 0 0-.058-.014l-.026.001v.004a.119.119 0 0 0-.053-.033l-.005-.023-.021-.007h-.003l-.001-.017-.006-.023-.021-.006a.134.134 0 0 0-.03-.057l-.017-.02-.024.01a.123.123 0 0 0-.048.04l-.022-.002-.013.019a.082.082 0 0 0-.009.014h-.001l-.023-.003-.013.019a.117.117 0 0 0-.06.009l-.01.005-.014-.01a.12.12 0 0 0-.061-.022v-.002l-.01-.022-.022-.002H12.1a.079.079 0 0 0-.006-.017l-.01-.022-.021-.001h-.001a.131.131 0 0 0-.042-.053l-.02-.016-.021.016a.131.131 0 0 0-.042.053h-.023l-.01.023a.084.084 0 0 0-.005.017h-.004l-.022.002-.01.022v.002a.12.12 0 0 0-.06.022s-.01.005-.015.01a10.47 10.47 0 0 0-.012-.005.118.118 0 0 0-.06-.01l-.013-.018-.023.003h-.002a.09.09 0 0 0-.008-.014l-.014-.02-.021.004a.122.122 0 0 0-.048-.04l-.024-.01-.018.019a.136.136 0 0 0-.03.057l-.02.006-.006.023a.085.085 0 0 0-.002.017h-.002l-.022.007-.004.023a.119.119 0 0 0-.053.033v-.004l-.027-.001a.113.113 0 0 0-.058.014l-.017-.013-.02.01-.002.002-.01-.01-.02-.013-.02.012-.003.002a.104.104 0 0 0-.037-.005.117.117 0 0 0-.087.057l-.038.06.068.004s.037.003.062.03c.018.02.207.403.207.403l.031-.013c.188-.08.372-.12.564-.12.192 0 .377.04.565.12l.032.014s.187-.383.205-.404a.102.102 0 0 1 .062-.03l.067-.005z"/><path fill="#4c86c7" d="M11.969 10.086a.116.116 0 0 1-.073-.143.107.107 0 0 1 .135-.078c.057.018.09.082.073.144a.108.108 0 0 1-.135.077"/><path fill="#ecd21c" d="M11.999 10.804c-.22 0-.436.045-.641.132l.063.128a1.44 1.44 0 0 1 .578-.122c.204 0 .393.043.58.123l.063-.128a1.628 1.628 0 0 0-.643-.133"/><path fill="#ecd21c" d="M12.861 10.641c-.032-.05-.08-.045-.097-.026a.059.059 0 0 0-.017-.016c-.014.01-.02.027-.025.047-.005-.016-.013-.029-.026-.036a.06.06 0 0 0-.015.017.086.086 0 0 0-.061-.025.1.1 0 0 0 .006.07.046.046 0 0 0-.02.01c.005.027.033.043.058.057l-.048.076a.059.059 0 0 1-.039-.056c0-.008.001-.015.004-.022a.031.031 0 0 0-.016-.04.028.028 0 0 0-.037.017.065.065 0 0 1-.061.043.067.067 0 0 1-.065-.069l.005-.034a.2.2 0 0 1 .017.004c.032.01.071.026.097.007a.077.077 0 0 0-.007-.023.095.095 0 0 0 .05-.047.088.088 0 0 0-.062-.028.06.06 0 0 0 0-.024c-.014-.004-.028 0-.043.007.01-.018.017-.036.013-.053a.05.05 0 0 0-.023-.002.101.101 0 0 0-.023-.066.096.096 0 0 0-.047.051.055.055 0 0 0-.021-.008c-.01.014-.011.034-.008.054a.056.056 0 0 0-.037-.024.063.063 0 0 0-.01.022.085.085 0 0 0-.066 0 .1.1 0 0 0 .029.064.06.06 0 0 0-.015.018c.017.028.058.03.091.035l.01.001-.005.027a.04.04 0 0 0-.004.008.066.066 0 0 1-.062.047c-.036 0-.065-.032-.065-.07 0-.017-.013-.03-.028-.03h-.004a.029.029 0 0 0-.027.022.066.066 0 0 1-.064.051c-.036 0-.065-.031-.065-.07v-.016h.016c.035.004.079.011.101-.014a.065.065 0 0 0-.011-.022.101.101 0 0 0 .042-.06.092.092 0 0 0-.069-.015.065.065 0 0 0-.005-.025c-.016-.002-.03.006-.043.017.007-.02.01-.04.002-.058a.06.06 0 0 0-.023.004.103.103 0 0 0-.038-.064.104.104 0 0 0-.038.064.06.06 0 0 0-.023-.004c-.008.017-.005.037.002.058-.013-.011-.028-.019-.043-.017a.064.064 0 0 0-.005.025.092.092 0 0 0-.07.015.1.1 0 0 0 .043.06.06.06 0 0 0-.011.022c.022.025.066.018.1.015l.015-.001v.016c0 .039-.03.07-.066.07a.066.066 0 0 1-.063-.051.029.029 0 0 0-.028-.023h-.003c-.016 0-.028.014-.028.03 0 .04-.03.07-.066.07a.066.066 0 0 1-.061-.046.033.033 0 0 0-.004-.008l-.005-.027.01-.001c.032-.005.074-.007.09-.035a.063.063 0 0 0-.014-.018.1.1 0 0 0 .029-.064.085.085 0 0 0-.067 0 .064.064 0 0 0-.01-.022.057.057 0 0 0-.036.024c.003-.02.002-.04-.008-.054a.06.06 0 0 0-.022.008.095.095 0 0 0-.046-.051.101.101 0 0 0-.024.066.05.05 0 0 0-.022.002c-.004.017.002.035.012.053-.014-.007-.029-.011-.043-.007a.068.068 0 0 0 0 .024.088.088 0 0 0-.061.028.09.09 0 0 0 .05.047.064.064 0 0 0-.007.023c.025.019.064.003.096-.007a.285.285 0 0 1 .017-.004l.006.034c0 .039-.03.07-.065.07a.065.065 0 0 1-.061-.044.028.028 0 0 0-.037-.017.03.03 0 0 0-.018.029c0 .004 0 .007.002.01a.063.063 0 0 1 .003.023.059.059 0 0 1-.038.056 2.667 2.667 0 0 0-.049-.076c.026-.014.053-.03.058-.056a.05.05 0 0 0-.019-.012.1.1 0 0 0 .005-.069.086.086 0 0 0-.06.025.066.066 0 0 0-.016-.017c-.012.007-.02.02-.026.036-.004-.02-.01-.037-.024-.047a.057.057 0 0 0-.017.016c-.017-.019-.066-.023-.098.026 0 0 .051.003.088.043a.495.495 0 0 1 .05.072l.064.105a.028.028 0 0 0 .026.018c.05 0 .09-.033.106-.08a.11.11 0 0 0 .06.019.121.121 0 0 0 .107-.067.12.12 0 0 0 .08.033.12.12 0 0 0 .103-.062.118.118 0 0 0 .084.036.12.12 0 0 0 .095-.048.12.12 0 0 0 .094.048.118.118 0 0 0 .084-.036.12.12 0 0 0 .104.062.12.12 0 0 0 .08-.033c.02.04.06.067.106.067a.117.117 0 0 0 .06-.018c.016.046.057.08.106.08a.028.028 0 0 0 .027-.02l.063-.104a.467.467 0 0 1 .051-.071.14.14 0 0 1 .087-.044"/><path fill="#be0027" d="M12.253 10.894a.05.05 0 1 0-.05.05.05.05 0 0 0 .05-.05m.307.069a.05.05 0 1 0-.1 0 .05.05 0 0 0 .1 0m-.685-.069a.05.05 0 1 0-.1 0 .05.05 0 0 0 .1 0m.127-.06-.11.05.11.05.11-.05zm.655.136-.047.1-.053-.087zm-1.286-.006.046.1.054-.078z"/><path fill="#4c86c7" d="M11.734 10.899a.043.043 0 0 1-.03.049l-.074.017c-.02.004-.04-.01-.045-.033-.004-.022.009-.044.03-.049l.074-.017c.02-.004.04.01.045.033m.536 0a.043.043 0 0 0 .03.049l.074.017c.02.004.04-.01.045-.033.004-.022-.009-.044-.03-.049l-.074-.017c-.02-.004-.04.01-.045.033"/><path fill="#fff" d="M12.06 10.554a.05.05 0 1 0-.1 0 .05.05 0 1 0 .1 0m.395.043a.05.05 0 1 0-.1 0 .05.05 0 0 0 .1 0m.345.141a.05.05 0 0 0-.049-.05.05.05 0 0 0-.05.05.05.05 0 1 0 .1 0m-1.234-.141a.05.05 0 0 1 .05-.05.05.05 0 0 1 .05.05.05.05 0 0 1-.05.05.05.05 0 0 1-.05-.05m-.347.141a.05.05 0 1 1 .1 0 .05.05 0 0 1-.1 0"/><path fill="#ecd21c" d="M12.038 9.95v-.145h.047v-.08h-.047v-.051h-.076v.05h-.048v.081h.048v.145h-.067v.053h.21V9.95z"/><path fill="#0a5da7" d="M10.951 11.12h2.09v1.89c0 .624-1.045.624-1.045.624s-1.045 0-1.045-.624z"/><path fill="#c09b5a" d="m11.521 10.125-.007.023c.013.003.026.004.038.009-.01-.01-.017-.021-.025-.032zm.198-.185.017-.029c-.008.008-.013.019-.02.027l.003.001"/><path fill="#d6a54f" d="m10.066 13.233.002.022c.004-.016.002-.033.009-.048-.008.017-.01.021-.01.026"/><path fill="#c09b5a" d="m11.027 10.201.002.008c0-.003 0-.006-.002-.008m2.013-.001v.002zm-.5-.073c-.006.01-.012.02-.02.028.008-.003.018-.003.028-.006z"/><path fill="#d6a54f" d="m1.719 1.078.041-.063.073-.33.114-.222h.143c0-.087-.064-.157-.143-.157a.139.139 0 0 0-.116.066h-.002l-.281.434v-.23l.106-.088c.08-.064.135-.11.153-.207.01-.061.042-.267-.037-.254a.956.956 0 0 0-.194.063C1.53.07 1.518.044 1.466.044c-.035 0-.098.02-.13.028a.437.437 0 0 0-.303.429l.003.49c0 .353-.162.664-.41.849v.001a.56.56 0 0 0-.213.33v.004c-.015.063-.066.098-.112.098a.171.171 0 0 1-.128-.058.212.212 0 0 1 0-.279.071.071 0 0 0 0-.094.057.057 0 0 0-.085 0 .355.355 0 0 0 0 .468.282.282 0 0 0 .406.019.575.575 0 0 0 .002.146v.003c.002.01.002.02.002.031a.235.235 0 0 1-.14.22.456.456 0 0 0 .073.297l.002.006a.545.545 0 0 1 .078.195c.015.073.07.103.113.103H.85c0-.117-.086-.212-.192-.212H.655a.273.273 0 0 1-.068-.182c0-.109.061-.202.147-.241l.001-.001a.314.314 0 0 0 .175-.288l.001-.003.026.005c.104.026.18.023.18.144 0 .015-.027.056-.03.07.078.04.166.19.202.276.023.054.066.078.108.078h.193a.208.208 0 0 0-.154-.207h-.001a.177.177 0 0 1-.13-.177.19.19 0 0 1 .046-.125h.002a.158.158 0 0 0 .02-.18l-.002-.002a.531.531 0 0 0-.26-.232l-.008-.008a.993.993 0 0 1 .33-.272l.001-.001a.541.541 0 0 0 .281-.348c.045-.036.089-.092.13-.138l.103-.113V.846a.103.103 0 0 0-.095.074l-.001.003c-.013.04-.001.106-.024.145a.304.304 0 0 1-.098.106.593.593 0 0 0-.023-.1l.009.012z" mask="url(#a)" transform="translate(9 10.654)"/><path fill="#fff" d="m12.317 13.39-.244-.28a.1.1 0 0 0-.155 0l-.245.28zm-.463-1.687-.245-.279a.1.1 0 0 0-.154 0l-.245.28h.644zm.929 0-.245-.279a.1.1 0 0 0-.154 0l-.245.28h.644zm-.929.558-.245-.279a.1.1 0 0 0-.154 0l-.245.28h.644zm.929 0-.245-.279a.1.1 0 0 0-.154 0l-.245.28h.644zm-.929.567-.245-.28a.1.1 0 0 0-.154 0l-.245.28zm.929 0-.245-.28a.1.1 0 0 0-.154 0l-.245.28z"/><path fill="#b7c4c8" d="M13.058 9.369c.081.17.376.219.474.216a.353.353 0 0 0 .138-.029.353.353 0 0 1-.237.244c.032.103.104.14.182.171-.086.028-.646.076-1.006-.31m-1.683-.292c-.082.17-.376.219-.475.216a.354.354 0 0 1-.138-.029.353.353 0 0 0 .237.244c-.032.103-.104.14-.181.171.085.028.645.076 1.005-.31"/><path fill="#b7c4c8" d="m1.75.542-.058.102.137.035c.07.017.103.004.152-.052.057-.068.12-.168.12-.168V.457a.243.243 0 0 0-.147-.365h-.002a4.71 4.71 0 0 0-.87-.082h-.013A4.69 4.69 0 0 0 .2.091L.197.092A.237.237 0 0 0 .01.326a.24.24 0 0 0 .039.131V.46s.063.1.12.168c.049.056.083.07.152.052L.46.644.402.542.394.524.283.541C.538.494.8.47 1.069.47h.013c.268 0 .531.025.787.072l-.11-.016-.01.017z" mask="url(#b)" transform="translate(10.916 9.021)"/><path fill="#d6a54f" d="M14.999 12.477c.026.012-.007-.013-.007-.01 0 .002.001.004.006.009zm-.091.02a.056.056 0 0 0-.085 0 .07.07 0 0 0 0 .094c.07.077.07.202 0 .279a.172.172 0 0 1-.128.058c-.046 0-.097-.036-.112-.099v-.003a.56.56 0 0 0-.213-.33v-.002a1.056 1.056 0 0 1-.41-.85l.003-.49a.437.437 0 0 0-.303-.428c-.032-.009-.095-.028-.13-.028-.052 0-.064.026-.11.046 0 0-.115-.05-.194-.063-.079-.013-.047.193-.036.254.017.097.072.143.152.207.06.05.08.066.105.089l.002.23-.283-.434v-.001a.14.14 0 0 0-.117-.066c-.079 0-.143.07-.143.157h.143l.114.222.073.33.04.063.004.008.01-.012a.574.574 0 0 0-.014.048l-.108-.054c-.023-.04-.011-.106-.024-.145v-.002a.102.102 0 0 0-.096-.074v.326l.102.114c.042.045.086.101.131.137a.542.542 0 0 0 .281.348h.002c.123.064.233.154.322.264a.69.69 0 0 0-.261.249l-.001.002a.158.158 0 0 0-.02.076c0 .04.015.077.04.103v.002a.189.189 0 0 1 .046.124.177.177 0 0 1-.13.176.208.208 0 0 0-.154.208h.193c.042 0 .085-.024.108-.077.035-.086.124-.236.201-.276-.002-.015-.029-.055-.029-.07 0-.122.077-.118.18-.145l.026-.005v.003c0 .13.073.241.176.288a.263.263 0 0 1 .148.242.272.272 0 0 1-.068.182h-.002c-.106 0-.192.095-.192.212h.225c.042 0 .097-.03.113-.102a.537.537 0 0 1 .078-.196l.002-.005a.455.455 0 0 0 .073-.298h-.001a.232.232 0 0 1-.137-.251v-.003a.582.582 0 0 0 .002-.146.28.28 0 0 0 .406-.02.353.353 0 0 0 0-.466"/><path fill="#fff" d="M11.522 11.024a.051.051 0 0 1-.03-.016.048.048 0 0 1-.014-.03.05.05 0 0 1 .037-.052.06.06 0 0 1 .027 0 .05.05 0 0 1-.02.098m.302-.07a.05.05 0 0 1-.031-.075.05.05 0 0 1 .09.011.059.059 0 0 1 0 .03.05.05 0 0 1-.059.034m.689.069a.052.052 0 0 1-.04-.036.063.063 0 0 1 0-.027.051.051 0 0 1 .034-.034.068.068 0 0 1 .026-.001.053.053 0 0 1 .032.026.06.06 0 0 1 .006.023.051.051 0 0 1-.058.05m-.307-.069a.056.056 0 0 1-.02-.01.05.05 0 0 1 .006-.085.048.048 0 0 1 .05.004.05.05 0 0 1-.011.088.063.063 0 0 1-.025.003"/><path fill="#d6a54f" d="M14.183 13.948c-.02-.034.038-.105.114-.14.066-.03.081-.045.106-.102a.304.304 0 0 0-.018-.273.52.52 0 0 0-.119-.11.332.332 0 0 1-.159-.24c-.048-.237-.254-.514-.48-.645-.133-.077-.197-.13-.249-.208-.056-.084-.057-.096-.013-.096.036 0 .403-.097.415-.11.004-.004 0-.013-.007-.021-.01-.01-.084.003-.217.037-.24.06-.224.065-.374-.1l-.104-.113v-.146c0-.128.003-.144.021-.128.012.01.021.032.021.05 0 .185.196.337.345.267.04-.02.04-.051-.002-.043-.053.01-.147.006-.159-.007-.022-.024.028-.15.098-.245l.07-.096v-.257l-.113-.096a.726.726 0 0 1-.112-.108c0-.007.028-.002.062.01.065.025.106.012.059-.017-.12-.074-.157-.106-.16-.14-.004-.029.004-.042.031-.055a.122.122 0 0 0 .052-.052c.015-.034.017-.035.071-.015.05.018.061.017.1-.003.087-.047.266.013.362.12.1.113.103.124.113.578.01.457.019.501.13.726.048.097.087.145.236.297.172.174.215.235.251.351.01.03.034.07.055.092.033.034.046.038.105.033.146-.015.23-.195.15-.327-.044-.076-.034-.132.018-.103.075.04.107.252.055.358-.07.139-.23.2-.353.137-.042-.022-.054-.04-.079-.119-.031-.102-.073-.144-.057-.057.005.027.015.128.021.224.014.195.037.265.104.316.039.03.041.036.034.105a.644.644 0 0 1-.063.189 1.66 1.66 0 0 0-.074.177c-.027.093-.067.119-.183.119-.053 0-.1-.006-.104-.014m-4.616-.022c-.02-.02-.035-.048-.035-.063a.915.915 0 0 0-.069-.171 1.042 1.042 0 0 1-.078-.212c-.01-.065-.008-.07.042-.116.073-.066.091-.119.091-.27 0-.072.01-.16.021-.2.026-.089.027-.107.002-.107-.02 0-.042.044-.061.13-.018.075-.073.109-.178.109-.073 0-.099-.007-.148-.04a.318.318 0 0 1-.097-.388c.038-.075.072-.102.098-.076.013.013.008.033-.021.088a.326.326 0 0 0-.038.117c0 .117.088.22.19.22.082 0 .123-.038.162-.149a.622.622 0 0 1 .219-.303c.176-.15.303-.353.36-.577.024-.093.03-.17.034-.483.007-.401.015-.45.086-.546a.423.423 0 0 1 .244-.148c.075-.017.091-.016.137.005.048.023.058.023.104.003.049-.02.05-.02.068.014.01.02.034.045.052.058.063.042.03.103-.09.165-.033.017-.06.037-.06.045 0 .022.052.017.1-.009.072-.038.06-.013-.032.069-.164.146-.153.126-.153.268 0 .124.001.126.05.183a.78.78 0 0 1 .133.255c0 .025-.059.046-.107.037-.077-.013-.094-.012-.1.003-.007.024.06.05.129.05.118 0 .247-.128.247-.244 0-.052.021-.104.043-.104.008 0 .013.06.013.142v.143l-.13.131c-.15.152-.12.146-.382.076-.126-.033-.183-.043-.193-.032-.01.011-.008.02.01.03.042.023.357.105.402.105h.04l-.022.044a.64.64 0 0 1-.251.239 1.125 1.125 0 0 0-.354.319 1.125 1.125 0 0 0-.167.37.29.29 0 0 1-.142.21.595.595 0 0 0-.11.094c-.105.129-.068.367.061.394.055.012.127.085.127.13 0 .025-.01.028-.106.028-.094 0-.11-.004-.141-.036"/></g></svg>
