<svg xmlns="http://www.w3.org/2000/svg" viewBox="0 0 24 24"><g fill="none" fill-rule="evenodd"><path d="M0 0h24v24H0z"/><path fill="#fcfbfa" d="M24 4.998A2.001 2.001 0 0 0 21.995 3H2.005A2.004 2.004 0 0 0 0 4.998V9h24z"/><path fill="#0a5da7" d="M24 15H0V7h24z"/><path fill="#e70a2d" d="M24 15H0v4.002A2 2 0 0 0 2.005 21h19.99A2.004 2.004 0 0 0 24 19.002z"/><path fill="#fcfbfa" d="M0 9h4.029V7h5.005v2H24V5.543H0z"/><circle cx="6.5" cy="10.5" r="1.5" fill="#fcfbfa"/><rect width="23" height="17" x=".5" y="3.5" stroke="#100f0e" opacity=".1" rx="2"/></g></svg>
