<svg xmlns="http://www.w3.org/2000/svg" viewBox="0 0 24 24"><g fill="none" fill-rule="evenodd"><path fill="#002d9d" d="M0 19.005C0 20.107.887 21 1.998 21H8V3H1.998A1.996 1.996 0 0 0 0 4.995z"/><path fill="#71b96d" d="M24 19.005A1.992 1.992 0 0 1 22.002 21H16V3h6.002C23.105 3 24 3.893 24 4.995z"/><path fill="#facd62" d="M6 3h12v18H6z"/><path fill="#759c6c" d="M12.571 10.3 14.286 7 16 10.3l-1.714 3.3zM8 10.3 9.714 7l1.715 3.3-1.715 3.3zm2.286 4.4L12 11.4l1.714 3.3L12 18z"/><rect width="23" height="17" x=".5" y="3.5" stroke="#100f0e" opacity=".1" rx="2"/></g></svg>
