<svg xmlns="http://www.w3.org/2000/svg" viewBox="0 0 24 24"><g fill="none" fill-rule="evenodd"><rect width="24" height="18" y="3" fill="#fcfbfa" rx="2"/><rect width="23" height="17" x=".5" y="3.5" stroke="#100f0e" opacity=".1" rx="2"/><path fill="#000" d="m18.234 16.185.318.204.318.205-.99 1.431-.317-.204-.318-.205zM4.636 14.548l2.119 3.068-.318.205-.318.204L4 14.957zm12.803 1.125.318.205.318.204-.989 1.432-.636-.409zm-10.878 0 .989 1.432-.318.205-.318.204-.989-1.432.318-.204zm10.084-.511.317.204.318.205-.989 1.432-.317-.205-.318-.204zm-10.42-1.637 2.12 3.069-.319.204-.317.205-2.12-3.068.318-.205zm13.14 1.023.635.41-.989 1.431-.318-.204-.318-.205zm-.795-.511.317.204.318.205-.989 1.432-.318-.205-.317-.204zm-13.14 0 .99 1.432-.318.204-.318.205-.99-1.432zm12.345-.512.636.41-.99 1.431-.317-.204-.318-.205zM7.709 7.048l.318.205.317.204-2.119 3.068-.636-.409zm9.713 1.637.989 1.431-.318.205-.318.204-.99-1.431.319-.205zM6.914 6.537l.318.204.318.205-2.12 3.068-.635-.409zm10.172 0 2.12 3.068-.319.204-.317.205-2.12-3.068zm-10.97-.512.318.212.317.212-2.116 3.174L4 9.2zm12.895 1.637L20 9.094l-.636.409-.989-1.432.318-.205zm-2.72-.614.99 1.432-.319.204-.317.205-.99-1.432.319-.204zm1.59-1.023.989 1.432-.318.205-.318.204-.989-1.432.318-.204z"/><path fill="#ea432e" d="M14.106 9.06a3.816 3.816 0 0 0-5.291 1.057 1.908 1.908 0 0 0 3.175 2.117 1.908 1.908 0 1 1 3.175 2.116 3.816 3.816 0 0 0-1.059-5.29"/><path fill="#00249f" fill-rule="nonzero" d="M14.635 11.705a1.908 1.908 0 0 0-2.645.529 1.908 1.908 0 1 1-3.175-2.117 3.816 3.816 0 1 0 6.35 4.233 1.908 1.908 0 0 0-.53-2.645"/></g></svg>
