<svg xmlns="http://www.w3.org/2000/svg" viewBox="0 0 24 24"><g fill="none" fill-rule="evenodd"><path fill="#f20000" d="M1.75 6.994C1.889 5.893 2.89 4.92 3.992 4.82L22.01 3.181c1.1-.1 1.991.712 1.991 1.814v14.01A2 2 0 0 1 21.995 21H2.005C.898 21 .11 20.117.249 19.006z"/><path fill="#ffce00" d="M0 4.995A2 2 0 0 1 2.005 3h19.99c1.107 0 1.287.539.412 1.195L1.593 19.805c-.88.66-1.593.302-1.593-.8z"/><g fill="#fcfbfa"><path d="M17.665 9.162a.24.24 0 0 1 .042-.116.96.96 0 0 0 .157-.28.67.67 0 0 0 .007.45 1.112 1.112 0 0 1-.206-.054m-.203-.1a.947.947 0 0 0-.05-.024.37.37 0 0 0 .1-.066.285.285 0 0 0-.016.108l-.034-.017m-.469.127c-.118-.052-.187-.177-.295-.184-.063-.004-.115-.067-.173-.131.227.059.43.116.601.175a.586.586 0 0 0-.133.14m-2.008.097a1.826 1.826 0 0 1-.182-.226c.12.01.266.01.517-.055-.158.032-.098.259-.335.28m-.535-.126a.844.844 0 0 1-.002-.12.833.833 0 0 1 .142-.003c.071.088.128.195.204.29-.038.02-.062.043-.122.066a1.1 1.1 0 0 0-.222-.233m1.834 5.038a.274.274 0 0 0 .126-.032.685.685 0 0 0-.194.563.17.17 0 0 0-.092-.13c.088-.096.2-.289.16-.401m.443-.214a.685.685 0 0 0-.21.094.378.378 0 0 0 .073-.145.2.2 0 0 0 .137.05m-2.895-6.777c.133.051.274.128.41.233a.243.243 0 0 0-.155.076c-.137-.094-.272-.21-.255-.309m.206-.145a.81.81 0 0 1 .366.256.824.824 0 0 0-.021.017 4.027 4.027 0 0 0-.497-.206.462.462 0 0 1 .152-.067m-.415-.268c.198-.094.47.019.788.339-.25-.193-.431-.158-.642-.275a.851.851 0 0 0-.146-.064m1.231.176c.126.08.146.178.205.235-.108-.01-.207-.028-.306-.024a.66.66 0 0 1-.028-.31c.04.035.081.069.129.099m-.032-.249c.142.112.266.228.402.293.09.043.181.106.28.162a1.06 1.06 0 0 1-.222.037 2.528 2.528 0 0 0-.496-.461.223.223 0 0 1 .036-.03m3.467 1.107a.505.505 0 0 0 .092 0 .97.97 0 0 0-.1.1.858.858 0 0 0 .008-.1m-3.767.927.028-.045a1.1 1.1 0 0 0 .408.087c-.071.069-.172.083-.28.095a.55.55 0 0 0-.156-.137m-.03.19.032.02a2.465 2.465 0 0 0-.038.01l.007-.03m2.77.023c-.242-.106-.62-.245-.831-.272l.005-.011c.097-.207.245-.298.418-.303.032.072.054.189.024.259a.753.753 0 0 0 .213-.22c.055.019.112.043.169.073.03.07.012.157-.076.207.083 0 .216 0 .31-.07a.449.449 0 0 0 .058.02c-.08.084-.037.217-.248.3a.745.745 0 0 0-.042.017m.56 1.469a.416.416 0 0 0-.112-.028.425.425 0 0 0-.019-.125.56.56 0 0 0 .132.153m.88-.266c.008.089.007.178.088.234-.095 0-.215.037-.26.162a.188.188 0 0 0-.015-.126.558.558 0 0 0 .187-.27m-.643.457a.35.35 0 0 0-.072-.1.45.45 0 0 0 .12.036.275.275 0 0 0-.048.064m1.928-2.98c-.438.14-.635-.217-1.125.08-.11.068-.226.048-.356.06a.774.774 0 0 0 .26-.22c.177-.21.582-.093.635-.418-.302.229-.66-.072-.828.185-.042.064-.106.096-.178.149.085-.415.261-.409.242-.688-.032-.466.446-.506.33-.795-.017.128-.21.257-.298.321-.274.2-.04.37-.33.627-.32.284-.093.396-.262.641a.428.428 0 0 0-.212.05c-.038-.08-.144-.077-.297.002-.11-.1-.276-.172-.422-.147l-.006-.007c-.054-.205-.205-.362-.391-.31a.165.165 0 0 0-.097.076c-.196-.18-.463-.23-.697-.092-.21-.296-.555-.223-.717-.39-.266-.273-.937-.526-1.214-.337a1.05 1.05 0 0 1 .674.196.293.293 0 0 0-.043.04c-.168-.092-.32-.127-.422-.068a.57.57 0 0 1 .364.156.621.621 0 0 0-.05.186c-.4-.293-.832-.366-.973-.166-.226-.062-.476-.04-.535.132.284-.139.55-.005.751.078a.298.298 0 0 0-.125.08c-.18-.034-.336-.025-.412.073.072-.03.204-.035.362 0a.526.526 0 0 0-.04.281c-.676-.273-1.16-.18-1.262.088-.113.298.305.463.377.274-.076.032-.337-.057-.2-.225.13-.163.784-.051 1.426.267a.812.812 0 0 0-.083.026c-.261-.138-.696.043-.798-.268-.044.141-.009.227.07.279-.252.009-.504.08-.672.261-.46-.019-.773.048-.82.295.354-.318.949-.057 1.19-.12a.508.508 0 0 1 .049-.01l-.006.009c-.035.07-.045.135-.03.184-.054.008-.1.057-.128.148-.026.081-.023.152.005.197-.045.027-.07.087-.067.178 0 .025.003.048.008.07-.185.058-.373.199-.538.541a.894.894 0 0 1 .48-.261.516.516 0 0 0-.055.173c-.028.22-.341.293-.168.626.036-.213.176-.33.289-.337a.607.607 0 0 0 .24-.058.299.299 0 0 0 .041.283c.063.083.159.122.245.098-.062.09-.05.237.036.352a.233.233 0 0 0 .14.08.585.585 0 0 0-.047.069c-.092.156-.378-.044-.474.165.13-.057.263.063.325.104a.435.435 0 0 0 .366.04.303.303 0 0 0-.02.113.397.397 0 0 0 .085.19.36.36 0 0 0-.162-.006c-.112.029-.327-.004-.377-.124-.04.096.018.2.18.253.097.03.116.092.103.137l-.012-.002c-.006-.05-.077-.094-.127-.11-.053-.019-.128-.002-.145.044h-.003c0-.094-.054-.205-.233-.25-.16-.04-.265.008-.289.049h-.002c.045-.06.015-.176-.127-.238-.095-.041-.175-.012-.22.034a.166.166 0 0 0-.086-.17c-.164-.08-.104-.29-.209-.33-.104-.04-.204-.112-.209-.185-.052.1-.02.193.053.258.034.03.023.105.012.182a.227.227 0 0 0-.122-.073.168.168 0 0 0-.176.052c-.02-.055-.075-.097-.153-.114a.169.169 0 0 0-.18.069c-.024-.059-.087-.099-.173-.104a.168.168 0 0 0-.155.072.355.355 0 0 0-.25-.241c-.142-.027-.308-.026-.362-.165-.034.12.056.197.16.265.066.043.041.129.056.211-.081-.068-.213-.07-.297-.038-.107.04-.183.193-.136.317l-.007.004c-.093-.1-.27-.072-.347.013a.214.214 0 0 0-.05.204c-.16-.132-.325-.118-.424-.04-.213.169-.42.073-.426.241.129-.098.241.02.346-.016.044-.015.083.012.135.042-.041.028-.064.073-.055.14-.054.023-.08.163-.005.253-.11-.013-.238.089-.264.22a.48.48 0 0 0 .032.279c-.295.067-.507.492-.844.396.147.233.502 0 .635.024a.555.555 0 0 0 .041.006c-.07.048-.1.136-.121.292-.013.09.01.16.05.2-.131.064-.232.24-.214.34-.212.03-.285.25-.471.191.032.08.163.137.301.162-.1.062-.17.18-.305.136a.27.27 0 0 0 .122.198c-.152-.014-.321.067-.448.018 0 .064.018.145.066.215-.264-.091-.63-.079-.699.06.135-.01.25.039.276.115-.201-.124-.519.065-.704-.052-.447-.282-.538-.056-.763-.177-.225-.12-.444-.02-.45.105.209-.169.376.162.587.12.434-.087.588.174.87.228-.222-.023-.457-.043-.734.118-.281.164-.731.028-.755.265.193-.105.41.044.578-.044.17-.089.35-.117.434-.077-.301.362-.57.121-.884.41-.2.185-.454.068-.627.25-.168.176-.273.245-.433.265.277.176.548-.222.795-.217a.987.987 0 0 0 .57-.17c-.144.342-.57.17-.948.555-.234.24-.393.458-.787.515.18.205.683-.27 1.089-.273.53-.006.558-.45.823-.426.266.024.37-.322.587-.322.217 0 .306-.382.474-.321-.233.104-.233.442-.53.498.317.124.45-.322.82-.346a.586.586 0 0 0 .131-.025c-.267.379-.516.22-.581.516.337-.274.602-.092.803-.362.306-.41.557-.351.675-.627.109-.254.455-.34.698-.536a.241.241 0 0 0 .178-.008c.036.037.15.054.232.011a.936.936 0 0 1 0 .133v.002a.74.74 0 0 1-.047.214c-.093-.037-.24-.048-.305-.009-.08.048-.053.06.044.069.096.008.22.164.012.172-.097.004-.064.237-.265.253.082.1.317.035.401-.076-.016.09.105.173.057.281.144.016.067-.283.278-.285l.003.004c-.073.033-.032.213.117.172l.002.002c-.087.051-.035.159.074.131-.069.023-.094.107-.01.16-.03.069-.074.134-.046.198-.394.056-.53.334-.434.63v.001c-.02.109.142.235.158.364a.626.626 0 1 1 1.25-.038.23.23 0 0 0 .07-.133c.069-.076.08-.253.025-.35.032-.128-.053-.321-.161-.37a.212.212 0 0 0 .205-.04c.032.073.124.125.22.117-.02.109.166.136.174.27.004.072.016.192.004.276a.56.56 0 0 0 .048-.602c.008-.21-.097-.378-.306-.362-.096-.12-.28-.096-.337.008a.28.28 0 0 0-.24-.072c.033-.16-.031-.245-.122-.25a.278.278 0 0 0-.225-.297 1.125 1.125 0 0 1-.023-.36l.003-.001-.002-.005c.006-.06.016-.117.028-.172h.002l-.001-.005c.014-.068.03-.134.045-.202v-.001l.001-.004a.434.434 0 0 0 .3.055c.065.169.27.165.358.257.089.093.39.085.478.032a.398.398 0 0 1-.12-.035.536.536 0 0 0 .74-.499.538.538 0 0 0-.335-.498c.04.006.08.02.11.056.02-.265-.234-.406-.402-.318-.069-.036-.25-.011-.282.037-.052-.023-.19.045-.268.096.065-.052.073-.168.043-.213.068-.028.145-.12.153-.189.096.016.24-.048.305-.032-.104-.136-.277-.185-.454-.173-.183.01-.261.139-.285.278-.109.064-.145.28-.105.357-.062-.002-.12.059-.144.093a.813.813 0 0 0-.147-.045 2.267 2.267 0 0 0-.113-.262c-.022-.094.02-.18.043-.256.032-.108.037-.175.009-.21a.13.13 0 0 0 .053-.097c.009-.072.002-.125-.02-.16a.173.173 0 0 0 .099-.091.173.173 0 0 0 .02-.093.137.137 0 0 0 .12-.04.255.255 0 0 0 .084-.17.24.24 0 0 0 .213.01.186.186 0 0 0 .12-.121.304.304 0 0 0 .19.052c.084-.001.137-.031.167-.074.057.09.18.15.43.094a.355.355 0 0 0 .292.085.55.55 0 0 0 .378.124.64.64 0 0 0 .352.109.298.298 0 0 0 .128-.017c.068.069.2.123.443.133a.311.311 0 0 0 .108-.012c.036.028.08.05.133.06.083.017.145.005.186-.022a.528.528 0 0 0 .233.06c-.052.1-.078.207-.01.284v.002c-.165-.106-.244.073-.333.004-.09-.07-.21-.08-.257-.01.169.006.086.136.414.168-.328.022-.267.388-.486.37.233.221.353-.197.542-.129-.056.017.089.15-.012.326.133-.003.201-.153.233-.272a.151.151 0 0 0 .056.019c-.008.129.161.229.286.173-.004.132.22.22.317.169.04.136.334.168.382.088-.002.058.085.11.184.139l.005.005c.009.003.018.004.027.003a.359.359 0 0 0 .202-.002.24.24 0 0 1 .237.014l.004.002a.052.052 0 0 0 .007.002c.08.048.146.112.234.086-.189.129-.169.313-.032.442-.008.185.112.362.29.37.047.217.393.273.57.217-.362-.12-.185-.306-.394-.338a.467.467 0 0 0 .03-.188.688.688 0 1 0 .65-.778.263.263 0 0 0 .1-.054c.032.072.144.072.257.032.048.072.168.064.2.24.105-.168.009-.393-.136-.481-.048-.129-.15-.155-.257-.121-.04-.036-.201-.062-.282.008-.019-.034-.064-.028-.117-.008.098-.056.167-.138.126-.257.217.024.208-.25.466-.177-.145-.169-.434-.16-.579-.048a.238.238 0 0 0-.305.281c-.129-.056-.274.048-.266.193-.08-.024-.192.016-.249.129a.339.339 0 0 0-.321-.113c-.12-.128-.233-.16-.37-.096-.04-.049-.152-.065-.233-.024-.032-.089-.193-.193-.305-.153a.912.912 0 0 1-.004-.12h.004l-.003-.015a.395.395 0 0 1 .123-.283c.177-.185.136-.236.274-.418.148-.196.246-.433.297-.681l.004-.014c.022-.112.035-.228.039-.342l.001-.01v.002c.002-.085 0-.169-.008-.251a.636.636 0 0 1 .257-.119v.005l.005-.006a.373.373 0 0 1 .27.044c.033.13.005.31-.17.363.108.069.269.004.357-.144-.132.293-.044.558.165.61-.1-.204.125-.3.052-.433.133.056.25.237.245.35.157-.176-.076-.404-.079-.58.182.014.366-.008.493-.096.132-.091.232-.162.314-.21v.001l.006-.005a.49.49 0 0 1 .163-.067.208.208 0 0 1 .072 0 .456.456 0 0 0 .358.225c.044.048.2.088.289.076.128.032.285-.008.41-.144.193.028.373-.117.442-.334.205-.024.217-.253.088-.406-.106-.021-.047-.34-.333-.359a.557.557 0 1 0-1.098.175.524.524 0 0 1-.011-.205 1.418 1.418 0 0 0-.225.353c-.153-.104-.53.048-.708.089a.754.754 0 0 1-.196.006v-.002h-.007c-.248-.017-.603-.098-.705-.205-.136-.145-.402-.233-.65-.306a.469.469 0 0 1-.137-.064c-.12-.081-.188-.21-.28-.344.096.019.183.045.258.034.028.017.06.032.094.045.37.136.406.466.707.385-.281-.076-.261-.401-.554-.482a.43.43 0 0 1-.103-.044.495.495 0 0 1 .512-.189c.203.058.346.046.46-.02a.88.88 0 0 1 .601.39c.021.03.052.057.09.08-.123.057-.16.25-.307.257.165.089.298.024.405-.079-.043.124-.014.261.134.312-.092-.126.054-.204.116-.296.047.096.176.147.12.268.17-.038.203-.346.064-.45a.2.2 0 0 0 .024-.248.359.359 0 0 0-.222-.193.81.81 0 0 1 .168-.113c.079.032.15.065.21.1l.014.007.004.021c.028.129.08.338-.008.547.166-.121.157-.328.16-.5.24.08.544.09.816.014.343-.097 1.003-.185.97.24.18-.212-.049-.441-.505-.481.008-.21-.216-.398-.376-.274.148-.02.277.257-.017.37a.263.263 0 0 0-.366-.305c.138.04.278.272-.032.361a.588.588 0 0 1-.199.018c-.01-.255.305-.482.086-.777.071-.006.098-.068-.018-.124v-.002c.113.036.194-.046.036-.118.09.034.165-.009.119-.064.21-.003.61-.122.773-.243.28-.209.928.032 1.044-.249"/><path d="M17.665 9.162a.24.24 0 0 1 .042-.116.96.96 0 0 0 .157-.28.67.67 0 0 0 .007.45 1.112 1.112 0 0 1-.206-.054m-.203-.1a.947.947 0 0 0-.05-.024.37.37 0 0 0 .1-.066.285.285 0 0 0-.016.108l-.034-.017zm-.469.128c-.118-.052-.187-.177-.295-.184-.063-.004-.115-.067-.173-.131.227.059.43.116.601.175a.586.586 0 0 0-.133.14m-2.008.097a1.826 1.826 0 0 1-.182-.226c.12.01.266.01.517-.055-.158.032-.098.259-.335.28zm-.535-.127a.844.844 0 0 1-.002-.12.833.833 0 0 1 .142-.003c.071.088.128.195.204.29-.038.02-.062.043-.122.066a1.1 1.1 0 0 0-.222-.233m1.834 5.038a.274.274 0 0 0 .126-.032.685.685 0 0 0-.194.563.17.17 0 0 0-.092-.13c.088-.096.2-.289.16-.401m.443-.214a.685.685 0 0 0-.21.094.378.378 0 0 0 .073-.145.2.2 0 0 0 .137.05zm-2.895-6.778c.133.051.274.128.41.233a.243.243 0 0 0-.155.076c-.137-.094-.272-.21-.255-.309m.206-.145a.81.81 0 0 1 .366.256.824.824 0 0 0-.021.017 4.027 4.027 0 0 0-.497-.206.462.462 0 0 1 .152-.067m-.415-.268c.198-.094.47.019.788.339-.25-.193-.431-.158-.642-.275a.851.851 0 0 0-.146-.064m1.231.176c.126.08.146.178.205.235-.108-.01-.207-.028-.306-.024a.66.66 0 0 1-.028-.31c.04.035.081.069.129.099m-.032-.249c.142.112.266.228.402.293.09.043.181.106.28.162a1.06 1.06 0 0 1-.222.037 2.528 2.528 0 0 0-.496-.461.223.223 0 0 1 .036-.03zm3.467 1.108a.505.505 0 0 0 .092 0 .97.97 0 0 0-.1.1.858.858 0 0 0 .008-.1m-3.767.927.028-.045a1.1 1.1 0 0 0 .408.087c-.071.069-.172.083-.28.095a.55.55 0 0 0-.156-.137m-.03.19.032.02a2.465 2.465 0 0 0-.038.01l.007-.03zm2.77.023c-.241-.106-.62-.245-.83-.272l.005-.011c.097-.207.245-.298.418-.303.032.072.054.189.024.259a.753.753 0 0 0 .213-.22c.055.019.112.043.169.073.03.07.012.157-.076.207.083 0 .216 0 .31-.07a.449.449 0 0 0 .058.02c-.08.084-.037.217-.248.3a.745.745 0 0 0-.042.017zm.562 1.469a.416.416 0 0 0-.113-.028.425.425 0 0 0-.019-.125.56.56 0 0 0 .132.153m.88-.266c.008.089.007.178.088.234-.095 0-.215.037-.26.162a.188.188 0 0 0-.015-.126.558.558 0 0 0 .187-.27m-.643.457a.35.35 0 0 0-.072-.1.45.45 0 0 0 .12.036.275.275 0 0 0-.048.064m1.928-2.98c-.438.14-.635-.217-1.125.08-.11.068-.226.048-.356.06a.774.774 0 0 0 .26-.22c.177-.21.582-.093.635-.418-.302.229-.66-.072-.828.185-.042.064-.106.096-.178.149.085-.415.261-.409.242-.688-.032-.466.446-.506.33-.795-.017.128-.21.257-.298.321-.274.2-.04.37-.33.627-.32.284-.093.396-.262.641a.428.428 0 0 0-.212.05c-.038-.08-.144-.077-.297.002-.11-.1-.276-.172-.422-.147l-.006-.007c-.054-.205-.205-.362-.391-.31a.165.165 0 0 0-.097.076c-.196-.18-.463-.23-.697-.092-.21-.296-.555-.223-.717-.39-.266-.273-.937-.526-1.214-.337a1.05 1.05 0 0 1 .674.196.293.293 0 0 0-.043.04c-.168-.092-.32-.127-.422-.068a.57.57 0 0 1 .364.156.621.621 0 0 0-.05.186c-.4-.293-.832-.366-.973-.166-.226-.062-.476-.04-.535.132.284-.139.55-.005.751.078a.298.298 0 0 0-.125.08c-.18-.034-.336-.025-.412.073.072-.03.204-.035.362 0a.526.526 0 0 0-.04.281c-.676-.273-1.16-.18-1.262.088-.113.298.305.463.377.274-.076.032-.337-.057-.2-.225.13-.163.784-.051 1.426.267a.812.812 0 0 0-.083.026c-.261-.138-.696.043-.798-.268-.044.141-.009.227.07.279-.252.009-.504.08-.672.261-.46-.019-.773.048-.82.295.354-.318.949-.057 1.19-.12a.508.508 0 0 1 .049-.01l-.006.009c-.035.07-.045.135-.03.184-.054.008-.1.057-.128.148-.026.081-.023.152.005.197-.045.027-.07.087-.067.178 0 .025.003.048.008.07-.185.058-.373.199-.538.541a.894.894 0 0 1 .48-.261.516.516 0 0 0-.055.173c-.028.22-.341.293-.168.626.036-.213.176-.33.289-.337a.607.607 0 0 0 .24-.058.299.299 0 0 0 .041.283c.063.083.159.122.245.098-.062.09-.05.237.036.352a.233.233 0 0 0 .14.08.585.585 0 0 0-.047.069c-.092.156-.378-.044-.474.165.13-.057.263.063.325.104a.435.435 0 0 0 .366.04.303.303 0 0 0-.02.113.397.397 0 0 0 .085.19.36.36 0 0 0-.162-.006c-.112.029-.327-.004-.377-.124-.04.096.018.2.18.253.097.03.116.092.103.137l-.012-.002c-.006-.05-.077-.094-.127-.11-.053-.019-.128-.002-.145.044h-.003c0-.094-.054-.205-.233-.25-.16-.04-.265.008-.289.049h-.002c.045-.06.015-.176-.127-.238-.095-.041-.175-.012-.22.034a.166.166 0 0 0-.086-.17c-.164-.08-.104-.29-.209-.33-.104-.04-.204-.112-.209-.185-.052.1-.02.193.053.258.034.03.023.105.012.182a.227.227 0 0 0-.122-.073.168.168 0 0 0-.176.052c-.02-.055-.075-.097-.153-.114a.169.169 0 0 0-.18.069c-.024-.059-.087-.099-.173-.104a.168.168 0 0 0-.155.072.355.355 0 0 0-.25-.241c-.142-.027-.308-.026-.362-.165-.034.12.056.197.16.265.066.043.041.129.056.211-.081-.068-.213-.07-.297-.038-.107.04-.183.193-.136.317l-.007.004c-.093-.1-.27-.072-.347.013a.214.214 0 0 0-.05.204c-.16-.132-.325-.118-.424-.04-.213.169-.42.073-.426.241.129-.098.241.02.346-.016.044-.015.083.012.135.042-.041.028-.064.073-.055.14-.054.023-.08.163-.005.253-.11-.013-.238.089-.264.22a.48.48 0 0 0 .032.279c-.295.067-.507.492-.844.396.147.233.502 0 .635.024a.555.555 0 0 0 .041.006c-.07.048-.1.136-.121.292-.013.09.01.16.05.2-.131.064-.232.24-.214.34-.212.03-.285.25-.471.191.032.08.163.137.301.162-.1.062-.17.18-.305.136a.27.27 0 0 0 .122.198c-.152-.014-.321.067-.448.018 0 .064.018.145.066.215-.264-.091-.63-.079-.699.06.135-.01.25.039.276.115-.201-.124-.519.065-.704-.052-.447-.282-.538-.056-.763-.177-.225-.12-.444-.02-.45.105.209-.169.376.162.587.12.434-.087.588.174.87.228-.222-.023-.457-.043-.734.118-.281.164-.731.028-.755.265.193-.105.41.044.578-.044.17-.089.35-.117.434-.077-.301.362-.57.121-.884.41-.2.185-.454.068-.627.25-.168.176-.273.245-.433.265.277.176.548-.222.795-.217a.987.987 0 0 0 .57-.17c-.144.342-.57.17-.948.555-.234.24-.393.458-.787.515.18.205.683-.27 1.089-.273.53-.006.558-.45.823-.426.266.024.37-.322.587-.322.217 0 .306-.382.474-.321-.233.104-.233.442-.53.498.317.124.45-.322.82-.346a.586.586 0 0 0 .131-.025c-.267.379-.516.22-.581.516.337-.274.602-.092.803-.362.306-.41.557-.351.675-.627.109-.254.455-.34.698-.536a.241.241 0 0 0 .178-.008c.036.037.15.054.232.011a.936.936 0 0 1 0 .133v.002a.74.74 0 0 1-.047.214c-.093-.037-.24-.048-.305-.009-.08.048-.053.06.044.069.096.008.22.164.012.172-.097.004-.064.237-.265.253.082.1.317.035.401-.076-.016.09.105.173.057.281.144.016.067-.283.278-.285l.003.004c-.073.033-.032.213.117.172l.002.002c-.087.051-.035.159.074.131-.069.023-.094.107-.01.16-.03.069-.074.134-.046.198-.394.056-.53.334-.434.63v.001c-.02.109.142.235.158.364a.626.626 0 1 1 1.25-.038.23.23 0 0 0 .07-.133c.069-.076.08-.253.025-.35.032-.128-.053-.321-.161-.37a.212.212 0 0 0 .205-.04c.032.073.124.125.22.117-.02.109.166.136.174.27.004.072.016.192.004.276a.56.56 0 0 0 .048-.602c.008-.21-.097-.378-.306-.362-.096-.12-.28-.096-.337.008a.28.28 0 0 0-.24-.072c.033-.16-.031-.245-.122-.25a.278.278 0 0 0-.225-.297 1.125 1.125 0 0 1-.023-.36l.003-.001-.002-.005c.006-.06.016-.117.028-.172h.002l-.001-.005c.014-.068.03-.134.045-.202v-.001l.001-.004a.434.434 0 0 0 .3.055c.065.169.27.165.358.257.089.093.39.085.478.032a.398.398 0 0 1-.12-.035.536.536 0 0 0 .74-.499.538.538 0 0 0-.335-.498c.04.006.08.02.11.056.02-.265-.234-.406-.402-.318-.069-.036-.25-.011-.282.037-.052-.023-.19.045-.268.096.065-.052.073-.168.043-.213.068-.028.145-.12.153-.189.096.016.24-.048.305-.032-.104-.136-.277-.185-.454-.173-.183.01-.261.139-.285.278-.109.064-.145.28-.105.357-.062-.002-.12.059-.144.093a.813.813 0 0 0-.147-.045 2.267 2.267 0 0 0-.113-.262c-.022-.094.02-.18.043-.256.032-.108.037-.175.009-.21a.13.13 0 0 0 .053-.097c.009-.072.002-.125-.02-.16a.173.173 0 0 0 .099-.091.173.173 0 0 0 .02-.093.137.137 0 0 0 .12-.04.255.255 0 0 0 .084-.17.24.24 0 0 0 .213.01.186.186 0 0 0 .12-.121.304.304 0 0 0 .19.052c.084-.001.137-.031.167-.074.057.09.18.15.43.094a.355.355 0 0 0 .292.085.55.55 0 0 0 .378.124.64.64 0 0 0 .352.109.298.298 0 0 0 .128-.017c.068.069.2.123.443.133a.311.311 0 0 0 .108-.012c.036.028.08.05.133.06.083.017.145.005.186-.022a.528.528 0 0 0 .233.06c-.052.1-.078.207-.01.284v.002c-.165-.106-.244.073-.333.004-.09-.07-.21-.08-.257-.01.169.006.086.136.414.168-.328.022-.267.388-.486.37.233.221.353-.197.542-.129-.056.017.089.15-.012.326.133-.003.201-.153.233-.272a.151.151 0 0 0 .056.019c-.008.129.161.229.286.173-.004.132.22.22.317.169.04.136.334.168.382.088-.002.058.085.11.184.139l.005.005c.009.003.018.004.027.003a.359.359 0 0 0 .202-.002.24.24 0 0 1 .237.014l.004.002a.052.052 0 0 0 .007.002c.08.048.146.112.234.086-.189.129-.169.313-.032.442-.008.185.112.362.29.37.047.217.393.273.57.217-.362-.12-.185-.306-.394-.338a.467.467 0 0 0 .03-.188.688.688 0 1 0 .65-.778.263.263 0 0 0 .1-.054c.032.072.144.072.257.032.048.072.168.064.2.24.105-.168.009-.393-.136-.481-.048-.129-.15-.155-.257-.121-.04-.036-.201-.062-.282.008-.019-.034-.064-.028-.117-.008.098-.056.167-.138.126-.257.217.024.208-.25.466-.177-.145-.169-.434-.16-.579-.048a.238.238 0 0 0-.305.281c-.129-.056-.274.048-.266.193-.08-.024-.192.016-.249.129a.339.339 0 0 0-.321-.113c-.12-.128-.233-.16-.37-.096-.04-.049-.152-.065-.233-.024-.032-.089-.193-.193-.305-.153a.912.912 0 0 1-.004-.12h.004l-.003-.015a.395.395 0 0 1 .123-.283c.177-.185.136-.236.274-.418.148-.196.246-.433.297-.681l.004-.014c.022-.112.035-.228.039-.342l.001-.01v.002c.002-.085 0-.169-.008-.251a.636.636 0 0 1 .257-.119v.005l.005-.006a.373.373 0 0 1 .27.044c.033.13.005.31-.17.363.108.069.269.004.357-.144-.132.293-.044.558.165.61-.1-.204.125-.3.052-.433.133.056.25.237.245.35.157-.176-.076-.404-.079-.58.182.014.366-.008.493-.096.132-.091.232-.162.314-.21v.001l.006-.005a.49.49 0 0 1 .163-.067.208.208 0 0 1 .072 0 .456.456 0 0 0 .358.225c.044.048.2.088.289.076.128.032.285-.008.41-.144.193.028.373-.117.442-.334.205-.024.217-.253.088-.406-.106-.021-.047-.34-.333-.359a.557.557 0 1 0-1.098.175.524.524 0 0 1-.011-.205 1.418 1.418 0 0 0-.225.353c-.153-.104-.53.048-.708.089a.754.754 0 0 1-.196.006v-.002h-.007c-.248-.017-.603-.098-.705-.205-.136-.145-.402-.233-.65-.306a.469.469 0 0 1-.137-.064c-.12-.081-.188-.21-.28-.344.096.019.183.045.258.034.028.017.06.032.094.045.37.136.406.466.707.385-.281-.076-.261-.401-.554-.482a.43.43 0 0 1-.103-.044.495.495 0 0 1 .512-.189c.203.058.346.046.46-.02a.88.88 0 0 1 .601.39c.021.03.052.057.09.08-.123.057-.16.25-.307.257.165.089.298.024.405-.079-.043.124-.014.261.134.312-.092-.126.054-.204.116-.296.047.096.176.147.12.268.17-.038.203-.346.064-.45a.2.2 0 0 0 .024-.248.359.359 0 0 0-.222-.193.81.81 0 0 1 .168-.113c.079.032.15.065.21.1l.014.007.004.021c.028.129.08.338-.008.547.166-.121.157-.328.16-.5.24.08.544.09.816.014.343-.097 1.003-.185.97.24.18-.212-.049-.441-.505-.481.008-.21-.216-.398-.376-.274.148-.02.277.257-.017.37a.263.263 0 0 0-.366-.305c.138.04.278.272-.032.361a.588.588 0 0 1-.199.018c-.01-.255.305-.482.086-.777.071-.006.098-.068-.018-.124v-.002c.113.036.194-.046.036-.118.09.034.165-.009.119-.064.21-.003.61-.122.773-.243.28-.209.928.032 1.044-.249"/></g><rect width="23" height="17" x=".5" y="3.5" stroke="#100f0e" opacity=".1" rx="2"/></g></svg>
