<svg xmlns="http://www.w3.org/2000/svg" viewBox="0 0 24 24"><linearGradient id="a" x1="50%" x2="50%" y1="0%" y2="100%"><stop offset="0" stop-color="#fff"/><stop offset="1" stop-color="#f0f0f0"/></linearGradient><g fill="none" fill-rule="evenodd"><rect width="24" height="18" y="3" fill="#e70a2d" rx="2"/><path fill="url(#a)" fill-rule="nonzero" d="M14 8.312A4.61 4.61 0 0 0 12.322 8C9.935 8 8 9.79 8 12s1.935 4 4.322 4A4.61 4.61 0 0 0 14 15.688c-1.989-.221-3.53-1.788-3.53-3.688S12.011 8.533 14 8.312M12 17a5 5 0 1 1 0-10 5 5 0 0 1 0 10m1.795-4.173 1.105.532-.633-1.282.733-1.19-1.141.38L13.208 10l-.072 1.517-1.136.407 1.097.557L13.045 14z"/><rect width="23" height="17" x=".5" y="3.5" stroke="#100f0e" opacity=".1" rx="2"/></g></svg>
