<svg xmlns="http://www.w3.org/2000/svg" viewBox="0 0 24 24"><linearGradient id="a" x1="50%" x2="50%" y1="0%" y2="100%"><stop offset="0" stop-color="#1f8bde"/><stop offset="1" stop-color="#1075c2"/></linearGradient><linearGradient id="b" x1="50%" x2="50%" y1="0%" y2="100%"><stop offset="0" stop-color="#fff"/><stop offset="1" stop-color="#f0f0f0"/></linearGradient><linearGradient id="d" x1="50%" x2="50%" y1="0%" y2="100%"><stop offset="0" stop-color="#187536"/><stop offset="1" stop-color="#0e5023"/></linearGradient><mask id="c" fill="#fff"><path fill-rule="evenodd" d="M0 3.5V.51C0 .228.215 0 .498 0h4.004C4.777 0 5 .227 5 .51V3.5C5 6 2.5 7 2.5 7S0 6 0 3.5"/></mask><mask id="e" fill="#fff"><path fill-rule="evenodd" d="M0 3.5V.51C0 .228.215 0 .498 0h4.004C4.777 0 5 .227 5 .51V3.5C5 6 2.5 7 2.5 7S0 6 0 3.5"/></mask><mask id="f" fill="#fff"><path fill-rule="evenodd" d="M0 3.5V.51C0 .228.215 0 .498 0h4.004C4.777 0 5 .227 5 .51V3.5C5 6 2.5 7 2.5 7S0 6 0 3.5"/></mask><mask id="g" fill="#fff"><path fill-rule="evenodd" d="M0 3.5V.51C0 .228.215 0 .498 0h4.004C4.777 0 5 .227 5 .51V3.5C5 6 2.5 7 2.5 7S0 6 0 3.5"/></mask><mask id="h" fill="#fff"><path fill-rule="evenodd" d="M0 3.5V.51C0 .228.215 0 .498 0h4.004C4.777 0 5 .227 5 .51V3.5C5 6 2.5 7 2.5 7S0 6 0 3.5"/></mask><mask id="i" fill="#fff"><path fill-rule="evenodd" d="M0 3.5V.51C0 .228.215 0 .498 0h4.004C4.777 0 5 .227 5 .51V3.5C5 6 2.5 7 2.5 7S0 6 0 3.5"/></mask><g fill="none" fill-rule="evenodd"><rect width="24" height="18" y="3" fill="#003495" rx="2"/><g fill-rule="nonzero"><path fill="url(#a)" d="M0 3.5V.51C0 .228.215 0 .498 0h4.004C4.777 0 5 .227 5 .51V3.5C5 6 2.5 7 2.5 7S0 6 0 3.5" transform="translate(16 10)"/><path fill="url(#b)" d="M0 3.5V.51C0 .228.215 0 .498 0h4.004C4.777 0 5 .227 5 .51V3.5C5 6 2.5 7 2.5 7S0 6 0 3.5m2.644 2.87c.263-.15.527-.334.772-.554C4.099 5.2 4.5 4.439 4.5 3.5V.51C4.5.5.499.5.499.5l.001 3c0 .939.401 1.701 1.084 2.316a4.398 4.398 0 0 0 .916.632c.043-.022.091-.048.144-.078" mask="url(#c)" transform="translate(16 10)"/><path fill="url(#d)" d="M1.158 3.475C1.071 3.212 1.216 3 1.495 3h2.01c.273 0 .425.209.337.475l-.184.55c-.087.263-.295.306-.524.133 0 0 .088-.158-.634-.158s-.634.158-.634.158c-.202.189-.436.133-.524-.133z" mask="url(#e)" transform="translate(16 10)"/><g fill="url(#b)" transform="translate(16 10)"><path d="M1.5 3c.27.054.59-.5 1-.5.437 0 .726.567 1 .5.246-.06.5-.739.5-1 0-.552-.672-1-1.5-1S1 1.448 1 2c0 .28.223.945.5 1" mask="url(#f)"/><path d="m-.323 6.177.35-.35.3-.3a.244.244 0 0 1 .346 0l.3.3a.746.746 0 0 0 1.054 0l.3-.3a.244.244 0 0 1 .346 0l.3.3a.746.746 0 0 0 1.054 0l.3-.3a.244.244 0 0 1 .346 0l.3.3.177.177.354-.354-.177-.177-.3-.3a.744.744 0 0 0-1.054 0l-.3.3a.244.244 0 0 1-.346 0l-.3-.3a.744.744 0 0 0-1.054 0l-.3.3a.244.244 0 0 1-.346 0l-.3-.3a.744.744 0 0 0-1.054 0l-.3.3-.35.35L-.854 6l.354.354z" mask="url(#g)"/><path d="m-.323 4.677.35-.35.3-.3a.244.244 0 0 1 .346 0l.3.3a.746.746 0 0 0 1.054 0l.3-.3a.244.244 0 0 1 .346 0l.3.3a.746.746 0 0 0 1.054 0l.3-.3a.244.244 0 0 1 .346 0l.3.3.177.177.354-.354-.177-.177-.3-.3a.744.744 0 0 0-1.054 0l-.3.3a.244.244 0 0 1-.346 0l-.3-.3a.744.744 0 0 0-1.054 0l-.3.3a.244.244 0 0 1-.346 0l-.3-.3a.744.744 0 0 0-1.054 0l-.3.3-.35.35-.177.177.354.354z" mask="url(#h)"/><path d="m-.323 7.677.35-.35.3-.3a.244.244 0 0 1 .346 0l.3.3a.746.746 0 0 0 1.054 0l.3-.3a.244.244 0 0 1 .346 0l.3.3a.746.746 0 0 0 1.054 0l.3-.3a.244.244 0 0 1 .346 0l.3.3.177.177.354-.354-.177-.177-.3-.3a.744.744 0 0 0-1.054 0l-.3.3a.244.244 0 0 1-.346 0l-.3-.3a.744.744 0 0 0-1.054 0l-.3.3a.244.244 0 0 1-.346 0l-.3-.3a.744.744 0 0 0-1.054 0l-.3.3-.35.35-.177.177.354.354z" mask="url(#i)"/></g></g><path fill="#e70a2d" d="M7 3v4h5v2H7v4H5V9H0V7h5V3z"/><path fill="#fff" d="M1 5h1v1h1V5h1V3h1v4H0V6h1zm2-1v1H2V4zM1 4v1H0V4zm1-1v1H1V3z"/><path fill="#c74634" d="M3 5v1H2V5zM2 4v1H1V4z"/><path fill="#c74634" d="M0 3h1v1H0z" opacity=".5"/><path fill="#fff" d="M11 5h-1v1H9V5H8V3H7v4h5V6h-1zM9 4v1h1V4zm2 0v1h1V4zm-1-1v1h1V3z"/><path fill="#c74634" d="M9 5v1h1V5zm1-1v1h1V4zm1-1v1h1V3z"/><path fill="#fff" d="M1 11h1v-1h1v1h1v2h1V9H0v1h1zm2 1v-1H2v1zm-2 0v-1H0v1zm1 1v-1H1v1z"/><path fill="#c74634" d="M3 11v-1H2v1zm-1 1v-1H1v1zm-1 1v-1H0v1z"/><path fill="#fff" d="M11 11h-1v-1H9v1H8v2H7V9h5v1h-1zm-2 1v-1h1v1zm2 0v-1h1v1zm-1 1v-1h1v1z"/><path fill="#c74634" d="M9 11v-1h1v1zm1 1v-1h1v1zm1 1v-1h1v1z"/><rect width="23" height="17" x=".5" y="3.5" stroke="#100f0e" opacity=".1" rx="2"/></g></svg>
