<svg xmlns="http://www.w3.org/2000/svg" viewBox="0 0 24 24"><g fill="none" fill-rule="evenodd"><path fill="#28b2ec" d="M0 19.003A2 2 0 0 0 2.005 21h19.99A2.002 2.002 0 0 0 24 19.003V12H0z"/><path fill="#fcfbfa" d="M0 12h24V4.997A2 2 0 0 0 21.995 3H2.005A2.002 2.002 0 0 0 0 4.997z"/><path fill="#445f42" fill-rule="nonzero" d="M7.5 11.792c0 1.623.867 3.095 2.244 3.894a.9.9 0 0 0 .904-1.557A2.698 2.698 0 0 1 9.3 11.792a.9.9 0 1 0-1.8 0m6.922 3.793a4.496 4.496 0 0 0 2.078-3.793.9.9 0 1 0-1.8 0c0 .933-.476 1.783-1.248 2.277a.9.9 0 1 0 .97 1.516"/><ellipse cx="12" cy="10.892" fill="#d89f3d" fill-rule="nonzero" rx="1.8" ry="2.7"/><rect width="23" height="17" x=".5" y="3.5" stroke="#3f3a36" opacity=".1" rx="2"/></g></svg>
