<svg xmlns="http://www.w3.org/2000/svg" viewBox="0 0 24 24"><mask id="a" fill="#fff"><rect width="24" height="18" fill-rule="evenodd" rx="2"/></mask><g fill="none" fill-rule="evenodd"><path fill="#00894b" d="M2 18.993A2 2 0 0 0 3.991 21H22.01c1.1 0 1.991-.895 1.991-1.994V5L2 12.53z"/><path fill="#00249f" d="M0 18.5 23 6v-.999A2.005 2.005 0 0 0 21 3H2C.897 3 0 3.9 0 4.995z"/><path fill="#fcfbfa" d="M1.77 21 26.362 5.632 21.593-2-3 13.368z" mask="url(#a)" transform="translate(0 3)"/><path fill="#b1293d" d="m.71 19.304 25.24-15.65-2.727-4.508L-2.107 15z" mask="url(#a)" transform="translate(0 3)"/><circle cx="4" cy="7" r="2" fill="#facd62"/><rect width="23" height="17" x=".5" y="3.5" stroke="#100f0e" opacity=".1" rx="2"/></g></svg>
