<svg xmlns="http://www.w3.org/2000/svg" viewBox="0 0 24 24"><linearGradient id="a" x1="50%" x2="50%" y1="0%" y2="100%"><stop offset="0" stop-color="#fff"/><stop offset="1" stop-color="#f0f0f0"/></linearGradient><g fill="none" fill-rule="evenodd"><path fill="#759c6c" d="M0 19.002A2 2 0 0 0 2.005 21h19.99A2.004 2.004 0 0 0 24 19.002V15H0z"/><path fill="#fcfbfa" d="M0 9h24v6H0z"/><path fill="#000" d="M0 9h24V4.998A2.001 2.001 0 0 0 21.995 3H2.005A2.004 2.004 0 0 0 0 4.998z"/><path fill="#ff0722" d="m0 4 17 8-17 8z"/><path fill="url(#a)" fill-rule="nonzero" d="M5.5 12.842 3.955 14l.57-1.903L3 10.91l1.897-.018L5.5 9l.603 1.892L8 10.91l-1.525 1.187.57 1.903z"/><rect width="23" height="17" x=".5" y="3.5" stroke="#100f0e" opacity=".1" rx="2"/></g></svg>
