<svg xmlns="http://www.w3.org/2000/svg" viewBox="0 0 24 24"><g fill="none" fill-rule="evenodd"><path fill="#facd62" d="M0 8h24V5.005A2.005 2.005 0 0 0 21.995 3H2.005A2.003 2.003 0 0 0 0 5.005z"/><path fill="#197ed6" d="M0 18.995C0 20.102.897 21 2.005 21h19.99A2.003 2.003 0 0 0 24 18.995V16H0z"/><path fill="#fcfbfa" d="M0 8h24v4H0z"/><path fill="#c74634" d="M0 12h24v4H0z"/><path fill="#008100" d="m0 4 12 8-12 8z"/><path fill="#fcfbfa" d="M5 9.095A1.953 1.953 0 0 0 4.4 9C3.075 9 2 10.343 2 12s1.075 3 2.4 3c.207 0 .408-.033.6-.095-1.035-.333-1.8-1.507-1.8-2.905S3.965 9.428 5 9.095m.5 1.405a.5.5 0 1 1 0-1 .5.5 0 0 1 0 1m0 2a.5.5 0 1 1 0-1 .5.5 0 0 1 0 1m0 2a.5.5 0 1 1 0-1 .5.5 0 0 1 0 1"/><path fill="#fcfbfa" d="M5 9.095A1.953 1.953 0 0 0 4.4 9C3.075 9 2 10.343 2 12s1.075 3 2.4 3c.207 0 .408-.033.6-.095-1.035-.333-1.8-1.507-1.8-2.905S3.965 9.428 5 9.095m.5 1.405a.5.5 0 1 1 0-1 .5.5 0 0 1 0 1m0 2a.5.5 0 1 1 0-1 .5.5 0 0 1 0 1m0 2a.5.5 0 1 1 0-1 .5.5 0 0 1 0 1"/><rect width="23" height="17" x=".5" y="3.5" stroke="#100f0e" opacity=".1" rx="2"/></g></svg>
