<svg xmlns="http://www.w3.org/2000/svg" viewBox="0 0 24 24"><g fill="none" fill-rule="evenodd"><path fill="#008100" d="M0 9h24V4.998A2.001 2.001 0 0 0 21.995 3H2.005A2.004 2.004 0 0 0 0 4.998z"/><path fill="#d10a29" d="M0 19.002A2 2 0 0 0 2.005 21h19.99A2.004 2.004 0 0 0 24 19.002V15H0z"/><path fill="#ffce00" d="M0 9h24v6H0z"/><circle cx="12" cy="12" r="4" fill="#0a5da7"/><path fill="#facd62" d="M12 13.073 10.764 14l.456-1.522-1.22-.95 1.518-.015L12 10l.482 1.513 1.518.015-1.22.95.456 1.522zm0-.543.458.343-.17-.563.452-.352-.562-.005-.178-.56-.178.56-.562.005.451.352-.169.563z"/><rect width="23" height="17" x=".5" y="3.5" stroke="#100f0e" opacity=".1" rx="2"/></g></svg>
