<svg xmlns="http://www.w3.org/2000/svg" viewBox="0 0 24 24"><g fill="none" fill-rule="evenodd"><path fill="#69b3dc" d="M0 19.005C0 20.107.887 21 1.998 21H8V3H1.998A1.996 1.996 0 0 0 0 4.995zm24 0A1.992 1.992 0 0 1 22.002 21H16V3h6.002C23.105 3 24 3.893 24 4.995z"/><path fill="#fcfbfa" d="M8 3h8v18H8z"/><g transform="translate(9 10)"><path fill="#467146" d="M0 .55c0 .99.578 1.888 1.496 2.376.287.152.654.063.82-.2.167-.262.069-.598-.218-.75C1.546 1.683 1.2 1.144 1.2.549 1.2.246.931 0 .6 0S0 .246 0 .55m4.615 2.314C5.47 2.363 6 1.497 6 .549 6 .246 5.731 0 5.4 0s-.6.246-.6.55c0 .568-.317 1.087-.832 1.389a.521.521 0 0 0-.182.758c.178.256.55.33.829.167"/><circle cx="3" cy="1" r="1" fill="#dcc26d" fill-rule="nonzero"/></g><rect width="23" height="17" x=".5" y="3.5" stroke="#100f0e" opacity=".1" rx="2"/></g></svg>
