<svg xmlns="http://www.w3.org/2000/svg" viewBox="0 0 24 24"><g fill="none" fill-rule="evenodd"><path fill="#fcfbfa" d="M0 15h24V5.009C24 3.899 23.103 3 21.995 3H2.005A2.008 2.008 0 0 0 0 5.009z"/><path fill="#e70a2d" d="M0 19.002A2 2 0 0 0 2.005 21h19.99A2.004 2.004 0 0 0 24 19.002V15H0zM11 11h-1V9.49A.495.495 0 0 0 9.495 9h-.99A.49.49 0 0 0 8 9.49V13l-1 1h11l-1-1V9.49a.495.495 0 0 0-.505-.49h-.99a.49.49 0 0 0-.505.49V11h-1V8.49a.49.49 0 0 0-.495-.49h-2.01a.49.49 0 0 0-.495.49z"/><path fill="#000" d="M9 13a.5.5 0 1 1 0-1 .5.5 0 0 1 0 1m0-2a.5.5 0 1 1 0-1 .5.5 0 0 1 0 1m3.5 2a.5.5 0 1 1 0-1 .5.5 0 0 1 0 1m0-3a.5.5 0 1 1 0-1 .5.5 0 0 1 0 1m3.5 3a.5.5 0 1 1 0-1 .5.5 0 0 1 0 1m0-2a.5.5 0 1 1 0-1 .5.5 0 0 1 0 1"/><path fill="#facd62" d="M12 15.943V18h-1v1h2v-3.057c.583-.137 1-.508 1-.943 0-.552-.672-1-1.5-1s-1.5.448-1.5 1c0 .435.417.806 1 .943"/><rect width="23" height="17" x=".5" y="3.5" stroke="#100f0e" opacity=".1" rx="2"/></g></svg>
