<svg xmlns="http://www.w3.org/2000/svg" viewBox="0 0 24 24"><g fill="none" fill-rule="evenodd"><path fill="#027e44" d="M0 9h24V4.998A2.001 2.001 0 0 0 21.995 3H2.005A2.004 2.004 0 0 0 0 4.998z"/><path fill="#e70a2d" d="M0 19.002A2 2 0 0 0 2.005 21h19.99A2.004 2.004 0 0 0 24 19.002V15H0z"/><path fill="#fcfbfa" d="M0 9h24v6H0z"/><path fill="#e70a2d" d="M12.504 10v.002h.02v.364h.767v.094H14v2.852l-.709-.001V14l-1.29-.001L12 14l-.001-.001-1.29.001-.001-.69-.708.002V10.46l.708-.001v-.093l.767-.001v-.364h1.028z"/><path fill="#fcfbfa" d="M2 8v1H1V8zm2 0v1H3V8zm2 0v1H5V8zm2 0v1H7V8zm2 0v1H9V8zm2 0v1h-1V8zm2 0v1h-1V8zm2 0v1h-1V8zm2 0v1h-1V8zm2 0v1h-1V8zm2 0v1h-1V8zm2 0v1h-1V8zM2 15v1H1v-1zm2 0v1H3v-1zm2 0v1H5v-1zm2 0v1H7v-1zm2 0v1H9v-1zm2 0v1h-1v-1zm2 0v1h-1v-1zm2 0v1h-1v-1zm2 0v1h-1v-1zm2 0v1h-1v-1zm2 0v1h-1v-1zm2 0v1h-1v-1z" opacity=".5"/><rect width="23" height="17" x=".5" y="3.5" stroke="#100f0e" opacity=".1" rx="2"/></g></svg>
