<svg xmlns="http://www.w3.org/2000/svg" xmlns:xlink="http://www.w3.org/1999/xlink" viewBox="0 0 24 24"><defs><linearGradient id="c" x1="50%" x2="50%" y1="0%" y2="100%"><stop offset="0" stop-color="#fff"/><stop offset="1" stop-color="#f0f0f0"/></linearGradient><rect id="a" width="24" height="18" rx="2"/><mask id="b" fill="#fff"><use xlink:href="#a" fill-rule="evenodd"/></mask></defs><g fill="none" fill-rule="evenodd"><g transform="translate(0 3)"><use xlink:href="#a" fill="#fff"/><path fill="#002d9d" d="M0 0h24v18H0z" mask="url(#b)"/></g><path fill="url(#c)" fill-rule="nonzero" d="M14 14.5v-3.215c0-.71.71-1.285 1.6-1.285h4.8c.884 0 1.6.567 1.6 1.285V14.5c0 3.214-4 4.5-4 4.5s-4-1.286-4-4.5"/><path fill="#facd62" d="M18.216 17.908c.395-.176.79-.393 1.157-.652 1.025-.724 1.627-1.62 1.627-2.725v-2.943c0-.33-.331-.588-.75-.588h-4.5c-.418 0-.75.261-.75.588v2.943c0 1.104.602 2.001 1.627 2.725A6.813 6.813 0 0 0 18 18c.065-.026.137-.057.216-.092"/><g fill-rule="nonzero"><ellipse cx="19.5" cy="13" fill="#ba5b1f" rx="1.5" ry="1"/><path fill="#ff937f" d="M15.866 13.907c.75.233 1.643.016 1.993-.484s.025-1.096-.725-1.33c-.75-.232-1.643-.016-1.993.485-.35.5-.025 1.095.725 1.329"/><path fill="#01a827" d="m17 15.5 1-1.5 1 1.5V17h-2z"/></g><path fill="#0a5da7" d="M0 5c0-1.105.902-2 2.009-2H12v10H0z"/><path fill="#ff082a" d="M7 3v4h5v2H7v4H5V9H0V7h5V3z"/><path fill="#fff" d="M1 5h1v1h1V5h1V3h1v4H0V6h1zm2-1v1H2V4zM1 4v1H0V4zm1-1v1H1V3z"/><path fill="#c74634" d="M3 5v1H2V5zM2 4v1H1V4z"/><path fill="#c74634" d="M0 3h1v1H0z" opacity=".5"/><path fill="#fff" d="M11 5h-1v1H9V5H8V3H7v4h5V6h-1zM9 4v1h1V4zm2 0v1h1V4zm-1-1v1h1V3z"/><path fill="#c74634" d="M9 5v1h1V5zm1-1v1h1V4zm1-1v1h1V3z"/><path fill="#fff" d="M1 11h1v-1h1v1h1v2h1V9H0v1h1zm2 1v-1H2v1zm-2 0v-1H0v1zm1 1v-1H1v1z"/><path fill="#c74634" d="M3 11v-1H2v1zm-1 1v-1H1v1zm-1 1v-1H0v1z"/><path fill="#fff" d="M11 11h-1v-1H9v1H8v2H7V9h5v1h-1zm-2 1v-1h1v1zm2 0v-1h1v1zm-1 1v-1h1v1z"/><path fill="#c74634" d="M9 11v-1h1v1zm1 1v-1h1v1zm1 1v-1h1v1z"/><rect width="23" height="17" x=".5" y="3.5" stroke="#3f3a36" opacity=".1" rx="2"/></g></svg>