<svg xmlns="http://www.w3.org/2000/svg" viewBox="0 0 24 24"><g fill="none" fill-rule="evenodd"><path fill="#e70a2d" d="M0 9h24V4.998A2.001 2.001 0 0 0 21.995 3H2.005A2.004 2.004 0 0 0 0 4.998z"/><path fill="#027e44" d="M0 19.002A2 2 0 0 0 2.005 21h19.99A2.004 2.004 0 0 0 24 19.002V15H0z"/><path fill="#000" d="M0 9h24v6H0z"/><path fill="#fcfbfa" d="M13.111 10.337a1.667 1.667 0 1 0 0 3.326 2 2 0 1 1 0-3.326m.222 2.33a.667.667 0 1 1 0-1.334.667.667 0 0 1 0 1.334"/><rect width="23" height="17" x=".5" y="3.5" stroke="#100f0e" opacity=".1" rx="2"/></g></svg>
