<svg xmlns="http://www.w3.org/2000/svg" viewBox="0 0 24 24"><linearGradient id="a" x1="50%" x2="50%" y1="0%" y2="100%"><stop offset="0" stop-color="#ffd045"/><stop offset="1" stop-color="#feca2f"/></linearGradient><g fill="none" fill-rule="evenodd"><rect width="24" height="18" y="3" fill="#fcfbfa" rx="2"/><path fill="#e6e3e0" d="M20 17h-1v-1h-1v-2h-1V9h1V7h1v1h1V6h1v1h1v1h-1v1h1v1h-1v1h-1v2h1v1h-1v1h1v1h-1zM4 17h1v-1h1v-2h1V9H6V7H5v1H4V6H3v1H2v1h1v1H2v1h1v1h1v2H3v1h1v1H3v1h1z"/><path fill="#0a5da7" fill-rule="nonzero" d="M8 9h8v4.535c0 .562-.384 1.309-.868 1.675l-1.822 1.38c-.724.548-1.9.545-2.62 0l-1.822-1.38C8.388 14.847 8 14.1 8 13.535z"/><path fill="#c74634" d="M8 12h8v2H8z"/><g fill-rule="nonzero"><circle cx="12" cy="13" r="1" fill="#fff"/><path fill="url(#a)" d="M8 6.6s2-.6 4-.6 4 .6 4 .6L15.5 9s-1.75-.6-3.5-.6-3.5.6-3.5.6zM9 10h1v1H9z"/></g><path fill="#000" d="M9 7h1v1H9z"/><path fill="url(#a)" fill-rule="nonzero" d="M11.5 10h1v1h-1z"/><path fill="#000" d="M11.5 7h1v1h-1z"/><path fill="url(#a)" fill-rule="nonzero" d="M14 10h1v1h-1z"/><path fill="#000" d="M14 7h1v1h-1z"/><path fill="url(#a)" fill-rule="nonzero" d="M18 17v-1h1v2h-2v-1zm0-10v2h-1v1h-1V8h1V7z"/><path fill="url(#a)" fill-rule="nonzero" d="M7 17v-1h1v2H6v-1zM7 7v2H6v1H5V8h1V7z" transform="matrix(-1 0 0 1 13 0)"/><rect width="23" height="17" x=".5" y="3.5" stroke="#100f0e" opacity=".1" rx="2"/></g></svg>
