<svg xmlns="http://www.w3.org/2000/svg" viewBox="0 0 24 24"><g fill="none" fill-rule="evenodd"><path fill="#00640c" d="M0 19.002A2 2 0 0 0 2.005 21h19.99A2.004 2.004 0 0 0 24 19.002V15H0z"/><path fill="#fcfbfa" d="M0 9h24v6H0z"/><path fill="#c92a1d" d="M0 10h24v4H0z"/><path fill="#000" d="M0 9h24V4.998A2.001 2.001 0 0 0 21.995 3H2.005A2.004 2.004 0 0 0 0 4.998z"/><rect width="6" height="12" x="9" y="6" fill="#000" rx="3"/><rect width="4" height="10" x="10" y="7" fill="#d73c29" rx="2"/><path stroke="#fff" d="M12 8v7.668M12 8v7.668M13 8l1-3m-3 3-1-3"/><path fill="#fcfbfa" d="M11 11h2v2h-2z"/><path stroke="#fff" d="m14 19-1-3m-2 0-1 3"/><rect width="23" height="17" x=".5" y="3.5" stroke="#100f0e" opacity=".1" rx="2"/></g></svg>
