<svg xmlns="http://www.w3.org/2000/svg" viewBox="0 0 24 24"><linearGradient id="a" x1="50%" x2="50%" y1="0%" y2="100%"><stop offset="0" stop-color="#ffd84e"/><stop offset="1" stop-color="#fcd036"/></linearGradient><g fill="none" fill-rule="evenodd"><path fill="#000" d="M22.468 6.994c-.14-1.101-1.15-2.075-2.243-2.173L1.991 3.179C.891 3.08 0 3.893 0 4.995v14.01C0 20.107.891 21 2.004 21h20.228c1.106 0 1.892-.883 1.752-1.994z"/><path fill="#e93526" d="M24 4.995A2.001 2.001 0 0 0 21.992 3H1.967c-1.109 0-1.289.539-.412 1.195l20.849 15.61c.881.66 1.596.302 1.596-.8z"/><path fill="#facd62" d="M17.723 10.804c1.608.5 2.582 1.132 2.951 1.844.258.498.127.715-.732.958l.34 1.203c1.553-.439 2.167-1.453 1.502-2.736-.554-1.069-1.794-1.873-3.69-2.463z"/><path fill="url(#a)" fill-rule="nonzero" d="M2.67 5.991a.593.593 0 0 1-.262-.456V4.42c0-.165-.119-.259-.298-.199l-.69.23c-.164.054-.416.06-.595 0l-.69-.23c-.164-.055-.182-.168-.035-.257l1.617-.969a.39.39 0 0 0 .163-.455l-.23-.688c-.055-.165.02-.259.2-.199l.688.23a.402.402 0 0 0 .456-.164l.97-1.615C4.05-.04 4.16-.04 4.22.14l.23.688c.054.165.059.416 0 .596l-.23.688c-.055.164.035.298.199.298h1.116c.165 0 .368.115.456.262l.97 1.615c.087.145.017.29-.14.322l-1.546.31a.502.502 0 0 0-.358.356L4.61 6.82c-.033.164-.175.229-.322.14z" transform="translate(13 5)"/><path fill="#fff" d="m5 10.801-1.176.817.414-1.37-1.14-.866 1.431-.03L5 8l.471 1.352 1.431.03-1.14.866.414 1.37zm3 3-1.176.817.414-1.37-1.14-.866 1.431-.03L8 11l.471 1.352 1.431.03-1.14.866.414 1.37zm-3 5-1.176.817.414-1.37-1.14-.866 1.431-.03L5 16l.471 1.352 1.431.03-1.14.866.414 1.37zm-3-5-1.176.817.414-1.37-1.14-.866 1.431-.03L2 11l.471 1.352 1.431.03-1.14.866.414 1.37z"/><path d="M0 0h24v24H0z"/><rect width="23" height="17" x=".5" y="3.5" stroke="#100f0e" opacity=".1" rx="2"/></g></svg>
