<svg xmlns="http://www.w3.org/2000/svg" viewBox="0 0 24 24"><g fill="none" fill-rule="evenodd"><path fill="#000" d="M0 19.005C0 20.107.887 21 1.998 21H8V3H1.998A1.996 1.996 0 0 0 0 4.995z"/><path fill="#008b4b" d="M24 19.005A1.992 1.992 0 0 1 22.002 21H16V3h6.002C23.105 3 24 3.893 24 4.995z"/><path fill="#e93425" d="M8 3h8v18H8z"/><g fill="#fcfbfa"><path d="M14 13v1h-1v-1zm1-2v2h-1v-2zm-5 2v1h1v-1zm-1-2v2h1v-2z"/><ellipse cx="12" cy="11" rx="1" ry="2"/></g><rect width="23" height="17" x=".5" y="3.5" stroke="#100f0e" opacity=".1" rx="2"/></g></svg>
