<svg xmlns="http://www.w3.org/2000/svg" viewBox="0 0 24 24"><linearGradient id="a" x1="50%" x2="50%" y1="0%" y2="100%"><stop offset="0" stop-color="#fff"/><stop offset="1" stop-color="#f0f0f0"/></linearGradient><g fill="none" fill-rule="evenodd"><rect width="24" height="18" y="3" fill="#0013a5" rx="2"/><path fill="url(#a)" fill-rule="nonzero" d="M5.139 15.52c.142-.006.297-.005.44.007.193.017.33.064.319.02-.016-.07-.006-.087-.027-.07-.048.039.023-.007-.261.173-.414.26-.593.46-.502.817.08.313.29.4.785.486l.065.01c.198.035.286.055.346.084.013.007-.013-.038-.005-.066-.007.024-.138.08-.468.153l-.164.035c-.637.144-.954.331-1.002.817-.052.532.448.903 1.076.994.641.093 1.198-.14 1.255-.715.036-.365-.193-.584-.557-.664-.247-.055-.572-.054-.962-.011a9.772 9.772 0 0 0-1.297.243c-.126.033-.204.172-.173.31.03.14.156.225.282.192a9.366 9.366 0 0 1 1.234-.232c.348-.038.632-.038.824.004.156.034.188.065.184.102-.02.196-.313.32-.729.26-.408-.06-.687-.267-.671-.428.016-.165.187-.266.63-.366l.16-.035c.544-.118.743-.204.826-.512.068-.252-.045-.45-.254-.553-.112-.055-.22-.08-.463-.122l-.065-.01c-.282-.05-.402-.1-.406-.115-.004-.016.063-.091.283-.23L5.996 16a1.74 1.74 0 0 0 .15-.107c.162-.13.252-.276.205-.477-.067-.282-.318-.37-.736-.404a4.11 4.11 0 0 0-.492-.01l-.07.004c-.13.008-.228.13-.22.272s.118.252.247.243zm0-10c.142-.006.297-.005.44.007.193.017.33.064.319.02-.016-.07-.006-.087-.027-.07-.048.039.023-.007-.261.173-.414.26-.593.46-.502.817.08.313.29.4.785.486l.065.01c.198.035.286.055.346.084.013.007-.013-.038-.005-.066-.007.024-.138.08-.468.153l-.164.035c-.637.144-.954.331-1.002.817-.052.532.448.903 1.076.994.641.093 1.198-.14 1.255-.715.036-.365-.193-.584-.557-.664-.247-.055-.572-.054-.962-.011a9.772 9.772 0 0 0-1.297.243c-.126.033-.204.172-.173.31.03.14.156.225.282.192a9.366 9.366 0 0 1 1.234-.232c.348-.038.632-.038.824.004.156.034.188.065.184.102-.02.196-.313.32-.729.26-.408-.06-.687-.267-.671-.428.016-.165.187-.266.63-.366l.16-.035c.544-.118.743-.204.826-.512.068-.252-.045-.45-.254-.553-.112-.055-.22-.08-.463-.122l-.065-.01c-.282-.05-.402-.1-.406-.115-.004-.016.063-.091.283-.23L5.996 6a1.74 1.74 0 0 0 .15-.107c.162-.13.252-.276.205-.477-.067-.282-.318-.37-.736-.404a4.11 4.11 0 0 0-.492-.01l-.07.004c-.13.008-.228.13-.22.272s.118.252.247.243zm13 10c.142-.006.297-.005.44.007.193.017.33.064.319.02-.016-.07-.006-.087-.027-.07-.048.039.023-.007-.261.173-.414.26-.593.46-.502.817.08.313.29.4.785.486l.065.01c.198.035.286.055.346.084.013.007-.013-.038-.005-.066-.007.024-.138.08-.468.153l-.164.035c-.637.144-.954.331-1.002.817-.052.532.448.903 1.076.994.641.093 1.198-.14 1.255-.715.036-.365-.193-.584-.557-.664-.247-.055-.572-.054-.962-.011a9.772 9.772 0 0 0-1.297.243c-.126.033-.204.172-.173.31.03.14.156.225.282.192a9.366 9.366 0 0 1 1.234-.232c.348-.038.632-.038.824.004.156.034.188.065.184.102-.02.196-.313.32-.729.26-.408-.06-.687-.267-.671-.428.016-.165.187-.266.63-.366l.16-.035c.544-.118.743-.204.826-.512.068-.252-.045-.45-.254-.553-.112-.055-.22-.08-.463-.122l-.065-.01c-.282-.05-.402-.1-.406-.115-.004-.016.063-.091.283-.23l.154-.097a1.74 1.74 0 0 0 .15-.107c.162-.13.252-.276.205-.477-.067-.282-.318-.37-.736-.404a4.11 4.11 0 0 0-.492-.01l-.07.004c-.13.008-.228.13-.22.272.007.143.118.252.247.243zm0-10c.142-.006.297-.005.44.007.193.017.33.064.319.02-.016-.07-.006-.087-.027-.07-.048.039.023-.007-.261.173-.414.26-.593.46-.502.817.08.313.29.4.785.486l.065.01c.198.035.286.055.346.084.013.007-.013-.038-.005-.066-.007.024-.138.08-.468.153l-.164.035c-.637.144-.954.331-1.002.817-.052.532.448.903 1.076.994.641.093 1.198-.14 1.255-.715.036-.365-.193-.584-.557-.664-.247-.055-.572-.054-.962-.011a9.772 9.772 0 0 0-1.297.243c-.126.033-.204.172-.173.31.03.14.156.225.282.192a9.366 9.366 0 0 1 1.234-.232c.348-.038.632-.038.824.004.156.034.188.065.184.102-.02.196-.313.32-.729.26-.408-.06-.687-.267-.671-.428.016-.165.187-.266.63-.366l.16-.035c.544-.118.743-.204.826-.512.068-.252-.045-.45-.254-.553-.112-.055-.22-.08-.463-.122l-.065-.01c-.282-.05-.402-.1-.406-.115-.004-.016.063-.091.283-.23L18.996 6a1.74 1.74 0 0 0 .15-.107c.162-.13.252-.276.205-.477-.067-.282-.318-.37-.736-.404a4.11 4.11 0 0 0-.492-.01l-.07.004c-.13.008-.228.13-.22.272.007.143.118.252.247.243z"/><path fill="#fcfbfa" d="M0 11h24v2H0z"/><path fill="#fcfbfa" d="M11 3h2v18h-2z"/><rect width="23" height="17" x=".5" y="3.5" stroke="#100f0e" opacity=".1" rx="2"/></g></svg>
