<svg xmlns="http://www.w3.org/2000/svg" viewBox="0 0 24 24"><linearGradient id="a" x1="50%" x2="50%" y1="0%" y2="100%"><stop offset="0" stop-color="#1e1e1e"/><stop offset="1"/></linearGradient><linearGradient id="b" x1="50%" x2="50%" y1="0%" y2="100%"><stop offset="0" stop-color="#fff"/><stop offset="1" stop-color="#f0f0f0"/></linearGradient><linearGradient id="d" x1="50%" x2="50%" y1="0%" y2="100%"><stop offset="0" stop-color="#a2adb0"/><stop offset="1" stop-color="#8b9497"/></linearGradient><linearGradient id="e" x1="50%" x2="50%" y1="0%" y2="100%"><stop offset="0" stop-color="#4f4f4f"/><stop offset="1" stop-color="#2b2b2b"/></linearGradient><linearGradient id="f" x1="50%" x2="50%" y1="0%" y2="100%"><stop offset="0" stop-color="#fec241"/><stop offset="1" stop-color="#febb2c"/></linearGradient><linearGradient id="g" x1="50%" x2="50%" y1="0%" y2="100%"><stop offset="0" stop-color="#a84b14"/><stop offset="1" stop-color="#913f0e"/></linearGradient><linearGradient id="h" x1="50%" x2="50%" y1="0%" y2="100%"><stop offset="0" stop-color="#cfb063"/><stop offset="1" stop-color="#bea157"/></linearGradient><linearGradient id="i" x1="50%" x2="50%" y1="0%" y2="100%"><stop offset="0" stop-color="#2d42ff"/><stop offset="1" stop-color="#0b24fc"/></linearGradient><linearGradient id="j" x1="0%" x2="100%" y1="11.719%" y2="50%"><stop offset="0" stop-color="#e3dc3d"/><stop offset="1" stop-color="#cfc82a"/></linearGradient><linearGradient id="k" x1="50%" x2="50%" y1="0%" y2="100%"><stop offset="0" stop-color="#7f7d7d"/><stop offset="1" stop-color="#656263"/></linearGradient><linearGradient id="n" x1="50%" x2="50%" y1="0%" y2="100%"><stop offset="0" stop-color="#0f8012"/><stop offset="1" stop-color="#0b6a0d"/></linearGradient><linearGradient id="p" x1="50%" x2="50%" y1="0%" y2="100%"><stop offset="0" stop-color="#ffcf44"/><stop offset="1" stop-color="#fcc72e"/></linearGradient><mask id="c" fill="#fff"><ellipse cx="1.714" cy="1.5" fill-rule="evenodd" rx="1.143" ry="1.5"/></mask><mask id="l" fill="#fff"><path fill-rule="evenodd" d="M.008.506C.003.226.247 0 .566 0h2.296c.313 0 .57.23.574.506l.027 1.745c.002.138-.11.315-.237.388l-1.251.722a.532.532 0 0 1-.477 0L.274 2.639a.512.512 0 0 1-.24-.388z"/></mask><mask id="m" fill="#fff"><path fill-rule="evenodd" d="M.008.506C.003.226.247 0 .566 0h2.296c.313 0 .57.23.574.506l.027 1.745c.002.138-.11.315-.237.388l-1.251.722a.532.532 0 0 1-.477 0L.274 2.639a.512.512 0 0 1-.24-.388z"/></mask><mask id="o" fill="#fff"><path fill-rule="evenodd" d="M.008.506C.003.226.247 0 .566 0h2.296c.313 0 .57.23.574.506l.027 1.745c.002.138-.11.315-.237.388l-1.251.722a.532.532 0 0 1-.477 0L.274 2.639a.512.512 0 0 1-.24-.388z"/></mask><mask id="q" fill="#fff"><path fill-rule="evenodd" d="M.008.506C.003.226.247 0 .566 0h2.296c.313 0 .57.23.574.506l.027 1.745c.002.138-.11.315-.237.388l-1.251.722a.532.532 0 0 1-.477 0L.274 2.639a.512.512 0 0 1-.24-.388z"/></mask><g fill="none" fill-rule="evenodd"><rect width="24" height="18" y="3" fill="#0029a1" rx="2"/><g fill-rule="nonzero" transform="translate(14 8)"><g transform="translate(4.571 5.25)"><ellipse cx="1.714" cy="1.5" fill="url(#a)" rx="1.143" ry="1.5"/><ellipse cx="1.143" cy="2" fill="url(#b)" mask="url(#c)" rx="1.143" ry="1.5"/></g><g transform="translate(0 5.25)"><ellipse cx="1.714" cy="1.5" fill="url(#d)" rx="1.143" ry="1.5"/><ellipse cx="2.286" cy="2" fill="url(#e)" mask="url(#f)" rx="1.143" ry="1.5"/></g><path fill="url(#f)" d="M4 9.75c.947.5 1.714.276 1.714 0s-.767-.5-1.714-.5-1.714.224-1.714.5.767.5 1.714 0"/><ellipse cx="6.286" cy="2.75" fill="url(#b)" rx="1.143" ry="1"/><ellipse cx="4" cy="1.75" fill="url(#g)" rx="1.143" ry="1"/><ellipse cx="4" cy="1" fill="url(#h)" rx="1.143" ry="1"/><ellipse cx="4" cy="8.75" fill="url(#b)" rx="1.143" ry="1"/><ellipse cx="1.714" cy="2.75" fill="url(#b)" rx="1.143" ry="1"/><ellipse cx="2.286" cy="3.75" fill="url(#i)" rx="1.143" ry="1"/><ellipse cx="5.714" cy="3.75" fill="url(#i)" rx="1.143" ry="1"/><ellipse cx="6.857" cy="5.25" fill="url(#j)" rx="1.143" ry="1"/><path fill="url(#k)" d="m3.429 4.75-.572.5h2.286l-.572-.5.572-1.5s-.512-1-1.143-1-1.143 1-1.143 1z"/><path fill="#5d0543" d="M4 3.75s.571-.112.571-.38c0-.008-.571-.12-.571-.12s-.571.112-.571.12c0 .268.571.38.571.38"/><g transform="translate(2.286 5.25)"><path fill="url(#b)" d="M.008.506C.003.226.247 0 .566 0h2.296c.313 0 .57.23.574.506l.027 1.745c.002.138-.11.315-.237.388l-1.251.722a.532.532 0 0 1-.477 0L.274 2.639a.512.512 0 0 1-.24-.388z"/><ellipse cx="2.857" cy="2.5" fill="#225da4" mask="url(#l)" rx="1.143" ry="1"/><ellipse cx=".571" cy="1.5" fill="#225da4" mask="url(#m)" rx="1.143" ry="1"/><path fill="url(#n)" d="M0 0h3.429L1.714 3z" mask="url(#o)"/><ellipse cx="1.714" cy="1.5" fill="url(#p)" mask="url(#q)" rx="1.143" ry="1"/></g></g><path fill="#f84a34" d="M7 3v4h5v2H7v4H5V9H0V7h5V3z"/><path fill="#fff" d="M1 5h1v1h1V5h1V3h1v4H0V6h1zm2-1v1H2V4zM1 4v1H0V4zm1-1v1H1V3z"/><path fill="#c74634" d="M3 5v1H2V5zM2 4v1H1V4z"/><path fill="#c74634" d="M0 3h1v1H0z" opacity=".5"/><path fill="#fff" d="M11 5h-1v1H9V5H8V3H7v4h5V6h-1zM9 4v1h1V4zm2 0v1h1V4zm-1-1v1h1V3z"/><path fill="#c74634" d="M9 5v1h1V5zm1-1v1h1V4zm1-1v1h1V3z"/><path fill="#fff" d="M1 11h1v-1h1v1h1v2h1V9H0v1h1zm2 1v-1H2v1zm-2 0v-1H0v1zm1 1v-1H1v1z"/><path fill="#c74634" d="M3 11v-1H2v1zm-1 1v-1H1v1zm-1 1v-1H0v1z"/><path fill="#fff" d="M11 11h-1v-1H9v1H8v2H7V9h5v1h-1zm-2 1v-1h1v1zm2 0v-1h1v1zm-1 1v-1h1v1z"/><path fill="#c74634" d="M9 11v-1h1v1zm1 1v-1h1v1zm1 1v-1h1v1z"/><rect width="23" height="17" x=".5" y="3.5" stroke="#100f0e" opacity=".1" rx="2"/></g></svg>
