<svg xmlns="http://www.w3.org/2000/svg" viewBox="0 0 24 24"><g fill="none" fill-rule="evenodd"><rect width="24" height="18" y="3" fill="#ffce00" rx="2"/><path fill="#fcfbfa" d="m0 5 24 5v5L0 10z"/><path fill="#000" d="m0 10 24 4.5V19L0 14.5z"/><path fill="#f73838" d="M9.312 15.075c.608.58 1.269.899 2.04.985.194.022.586.01.816-.024.693-.104 1.392-.453 1.938-.967.15-.143.224-.18.348-.18a.32.32 0 0 1 .26.119c.07.078.095.152.087.27a.34.34 0 0 1-.063.188c-.066.109-.055.119.077.068.179-.07.399-.038.518.075.104.1.114.199.033.333a.589.589 0 0 0-.054.103c0 .014.023.02.131.037.142.023.223.129.223.29 0 .048-.006.087-.013.087a.963.963 0 0 1-.12-.043.977.977 0 0 0-.452-.085.802.802 0 0 0-.3.041c-.158.052-.326.15-.463.273-.15.134-.246.177-.393.176-.136-.002-.23-.041-.279-.12-.026-.041-.03-.066-.023-.16a.342.342 0 0 0-.002-.112.948.948 0 0 0-.118.075 1.91 1.91 0 0 1-.438.233c-.55.217-1.342.311-1.949.23-.459-.06-.88-.206-1.171-.406a.656.656 0 0 0-.119-.07c-.008 0-.015.042-.015.096 0 .15-.06.227-.213.266-.146.038-.37-.038-.55-.188a1.618 1.618 0 0 0-.585-.321.946.946 0 0 0-.665.086.206.206 0 0 1-.065.03c-.026 0-.022-.163.005-.215a.418.418 0 0 1 .223-.172c.052-.019.093-.042.093-.053s-.017-.05-.038-.087c-.069-.12-.04-.237.08-.328.122-.094.33-.11.514-.04a.898.898 0 0 0 .095.032c.025 0 .01-.034-.057-.131a.383.383 0 0 1-.082-.302.349.349 0 0 1 .32-.32c.137-.01.223.037.426.23zm4.938-4.506c.147.077.332.38.441.585.38.735.396 1.615.173 2.4-.303.997-1.065 1.87-2.073 2.188-.458.15-.945.195-1.424.17-.914-.088-1.789-.564-2.32-1.319-.578-.787-.76-1.827-.584-2.778.094-.433.283-.866.606-1.174a2.714 2.714 0 0 0-.207 1.76c.213 1.18 1.21 2.177 2.401 2.35.472.136.96-.008 1.41-.154.994-.35 1.75-1.293 1.843-2.348a2.898 2.898 0 0 0-.266-1.68m-7.487 4.033c.041.006.077.03.115.047.109.046.223.083.341.098.162.013.326-.004.481-.048.073-.019.14-.052.213-.068.053-.01.105.042.076.093-.03.08-.12.102-.192.127a1.217 1.217 0 0 1-.265.063l-.137.008h-.042a1.285 1.285 0 0 1-.51-.086c-.066-.03-.14-.06-.184-.122-.022-.062.044-.121.104-.112m9.856 0c.06-.009.126.05.104.112-.043.062-.118.093-.185.122-.16.065-.336.09-.509.086h-.042c-.137 0-.273-.024-.402-.07-.071-.026-.163-.049-.192-.128-.029-.051.023-.103.076-.093.072.016.14.05.213.068.155.044.32.061.48.048.119-.015.233-.052.342-.098.038-.017.074-.041.115-.047m-4.929-.601c.051-.017.086.083.122.117.05.078.111.173.082.27-.03.035-.048.143.03.107.094-.042.172-.113.251-.179.07-.048.158-.051.23-.094.034-.008.104-.075.119-.038a1.06 1.06 0 0 1-.177.29.763.763 0 0 1-.446.258 1.225 1.225 0 0 1-.313.014.844.844 0 0 1-.706-.568c.004-.042.047.002.08.024l.021.01a.45.45 0 0 0 .188.064c.084.036.136.119.217.162.037.03.17.086.145-.006-.031-.048-.052-.11-.026-.165a1.21 1.21 0 0 1 .183-.266m-4.86.355c.039.006.07.033.106.05a1 1 0 0 0 .295.096 1.05 1.05 0 0 0 .489-.077l.083-.033a.125.125 0 0 1 .044-.007c.05.004.066.061.045.101-.027.072-.108.097-.174.123a.892.892 0 0 1-.223.06l-.116.007h-.037a1.005 1.005 0 0 1-.402-.068.437.437 0 0 1-.198-.135c-.026-.056.027-.126.087-.117zm9.723 0c.06-.009.113.061.087.117a.437.437 0 0 1-.198.135 1.02 1.02 0 0 1-.402.068h-.037a.89.89 0 0 1-.34-.067c-.065-.026-.146-.05-.173-.123-.021-.04-.005-.097.045-.1.046-.003.085.026.127.04.154.063.323.09.489.076a1 1 0 0 0 .295-.096c.036-.017.067-.044.107-.05m-9.642-.235a.124.124 0 0 1 .036.014l.066.042c.096.05.2.096.31.093a.805.805 0 0 0 .367-.09c.034-.013.07-.044.108-.024.035.018.03.063.02.094-.02.068-.09.097-.148.123a.662.662 0 0 1-.284.067h-.038l-.093-.002a.686.686 0 0 1-.348-.124c-.03-.026-.067-.053-.075-.094-.009-.047.027-.106.079-.1zm9.56 0c.052-.007.088.052.079.099-.008.04-.045.068-.075.094a.686.686 0 0 1-.348.124l-.093.002h-.047.009a.662.662 0 0 1-.284-.067c-.059-.026-.128-.055-.148-.123-.01-.031-.015-.076.02-.094.037-.02.074.011.108.024.113.058.24.09.367.09a.637.637 0 0 0 .31-.093l.066-.042a.124.124 0 0 1 .036-.014m-4.678-1.385c.04.045-.002.155.062.158.075-.054.13-.143.227-.163.04-.022.107-.003.055.043a.433.433 0 0 0-.147.252.608.608 0 0 0 .064.366c.106.223.187.474.134.722a.463.463 0 0 1-.19.268c-.012.007-.03.007-.034-.009a.315.315 0 0 0-.04-.188c-.05-.103-.121-.194-.19-.283-.066-.039-.102.086-.146.122-.068.101-.153.205-.157.333-.038.059-.109-.049-.14-.084a.447.447 0 0 1-.095-.284 1.203 1.203 0 0 1 .086-.488l.076-.198a.537.537 0 0 0 .037-.207c.005-.109-.017-.23-.105-.302-.084-.066.054-.08.098-.046.075.005.116.13.184.098.028-.064.033-.142.09-.192.055-.076.112.032.131.082M6.04 10.64l.022.005c.152.113.185.333.152.51.13.147.23.324.258.52.038.139.212.171.317.25.109.05.194.136.253.236.092-.053-.016-.22-.023-.311-.033-.166-.165-.283-.216-.44-.088-.183.155-.145.217-.04.103.134.215.262.336.38.147.124.342.224.406.416.008.628.014 1.256.023 1.884-.023.112-.231.128-.343.155-.19.032-.368-.051-.532-.134.006-.364.01-.728-.001-1.092-.014-.134.009-.281-.057-.403-.183-.254-.486-.407-.628-.694-.117-.293-.166-.609-.206-.92.004-.102-.055-.244.022-.322m11.302 0c.077.078.018.22.022.321-.04.312-.09.628-.206.921-.142.287-.445.44-.628.694-.066.122-.043.269-.057.403-.01.364-.007.728 0 1.092-.165.083-.344.166-.533.134-.112-.027-.32-.043-.343-.155.009-.628.015-1.256.023-1.884.064-.192.26-.292.406-.415.12-.12.233-.247.336-.382.062-.104.305-.142.217.04-.051.158-.183.275-.216.441-.007.09-.115.258-.023.31a.582.582 0 0 1 .253-.235c.105-.079.279-.111.317-.25.028-.196.128-.373.258-.52-.034-.177 0-.397.152-.51zm-5.596.573c.046.052-.002.154.058.186.057-.021.085-.084.14-.112a.189.189 0 0 1 .183-.012c.02.052-.062.096-.086.142a.483.483 0 0 0-.089.429c.033.115.09.223.11.342a.95.95 0 0 1-.01.407c-.022.08-.09.133-.163.166-.017-.016-.027-.04-.039-.06a.498.498 0 0 0-.134-.166c-.056 0-.091.07-.13.108-.026.05-.06.133-.125.068-.106-.061-.124-.196-.124-.307-.006-.18.066-.348.13-.512a.54.54 0 0 0 .007-.323c-.032-.12-.129-.204-.203-.298.005-.036.1-.017.136-.01.08.02.127.091.186.14.043-.012.025-.097.045-.137.001-.057.077-.131.108-.05zm5.361-.537c.07.01.068.1.035.147a.644.644 0 0 0-.025.318 1.04 1.04 0 0 0-.25.513c-.001.072-.077.096-.126.132l-.238.137a.802.802 0 0 0-.11.081c-.022.024-.038.048-.023.001.016-.06.024-.127.072-.172a.487.487 0 0 1 .24-.153c.008-.098.054-.187.097-.274.048-.082.097-.17.179-.224-.004-.144-.001-.296.06-.43.02-.034.046-.074.09-.076zm-10.832 0c.043.002.07.042.088.077.062.133.065.285.061.429.082.053.131.142.179.224.043.087.09.176.097.274a.487.487 0 0 1 .24.153c.048.045.056.112.072.172.015.047-.001.023-.023 0-.103-.093-.232-.146-.348-.22-.049-.035-.125-.059-.126-.131a1.044 1.044 0 0 0-.25-.513.644.644 0 0 0-.025-.318c-.033-.047-.035-.136.035-.147m10.636.057c.049.015.04.075.024.112a1.291 1.291 0 0 0-.025.312.795.795 0 0 0-.198.275.797.797 0 0 0-.074.21.568.568 0 0 0-.194.12c.023-.068.073-.12.107-.183a.734.734 0 0 0 .087-.206.347.347 0 0 0 .093-.283.46.46 0 0 1 .11-.316c.019-.019.042-.04.07-.04zm-10.44 0c.028.002.051.022.07.041a.46.46 0 0 1 .11.316.347.347 0 0 0 .093.283.73.73 0 0 0 .087.206c.034.062.084.115.107.183a.567.567 0 0 0-.194-.12.798.798 0 0 0-.074-.21.795.795 0 0 0-.198-.275 1.291 1.291 0 0 0-.025-.312c-.015-.037-.025-.097.024-.112m.224.032c.008-.001.016.003.023.008.033.026.05.066.066.105.04.107.057.22.066.334.008.02-.012.014-.025.016a.092.092 0 0 0-.08.068.31.31 0 0 1-.05-.168.516.516 0 0 0-.033-.247c-.004-.022-.03-.045-.024-.065.014-.02.03-.046.057-.05zm9.992 0c.027.005.043.03.057.05.006.021-.02.044-.024.066a.516.516 0 0 0-.033.247.31.31 0 0 1-.05.168.092.092 0 0 0-.08-.068c-.013-.002-.033.005-.025-.016.01-.113.026-.227.066-.334a.242.242 0 0 1 .066-.105c.007-.005.015-.009.023-.008M11.85 8.99v.547a.11.11 0 0 0 .015-.026c.025-.06.118-.143.217-.193.214-.109.586-.112.884-.008.125.044.265.123.397.225.134.102.406.24.567.285a1.522 1.522 0 0 0 .723 0c.054 0-.038.18-.147.286-.198.194-.456.193-.819-.003-.226-.122-.497-.188-.497-.122 0 .014.014.023.035.023.08 0 .231.053.443.153.229.11.358.155.434.155.055 0 .057.035.005.11-.054.081-.147.121-.279.121-.125 0-.195-.028-.307-.12-.187-.157-.654-.33-.636-.238.003.019.026.03.074.037.163.025.353.116.549.262.06.046.122.09.138.1.027.015.028.02.006.06-.035.065-.123.116-.219.126a.44.44 0 0 1-.343-.118c-.236-.197-.458-.34-.529-.34-.058 0-.032.032.07.087.135.071.274.167.375.261a.968.968 0 0 0 .12.098c.043.023.042.057-.005.118-.048.062-.127.09-.23.079-.204-.022-.364-.12-.615-.38a1.673 1.673 0 0 0-.195-.186c-.033 0-.013.046.051.118.08.09.096.14.065.213-.021.052-.054.071-.113.065l-.05-.01c-.093-.026-.108-.003-.046.074.091.114.078.253-.034.35a.27.27 0 0 1-.082.053c-.01 0-.034-.025-.055-.056-.072-.11-.135-.109-.205.002l-.046.07-.073-.053c-.08-.059-.106-.114-.106-.225a.2.2 0 0 1 .048-.138c.044-.06.046-.088.006-.085l-.039.008c-.124.035-.184.003-.188-.103-.002-.052.009-.074.079-.158.056-.067.076-.103.065-.114-.01-.009-.057.03-.15.122l-.063.063c-.108.11-.23.222-.27.25-.234.157-.456.182-.558.06-.052-.061-.05-.096.01-.134a.649.649 0 0 0 .105-.087 2.04 2.04 0 0 1 .381-.275c.084-.043.104-.071.05-.071-.071 0-.298.147-.47.305a.761.761 0 0 1-.16.115.603.603 0 0 1-.33.028c-.053-.018-.15-.109-.15-.141 0-.009.023-.028.05-.042a.713.713 0 0 0 .106-.077 1.52 1.52 0 0 1 .605-.288c.065-.014.041-.047-.032-.044-.142.006-.424.138-.592.277-.197.163-.494.147-.59-.03-.017-.03-.027-.06-.022-.064a2.198 2.198 0 0 0 .483-.185c.217-.108.28-.131.43-.155.066-.01.07-.043.005-.05-.084-.01-.212.031-.439.142-.29.144-.372.168-.526.16a.46.46 0 0 1-.332-.152c-.074-.07-.18-.25-.159-.27.005-.005.04 0 .076.01.04.013.158.02.298.021.197 0 .25-.005.355-.035.175-.05.409-.17.568-.289.306-.228.555-.32.873-.321.293-.001.48.066.644.234a.842.842 0 0 0 .066.06v-.533l.108.083zm.514-.693c-.016.288.089.478.187.677l.048.1-.297-.212-.175.194-.202-.236-.195.194-.202-.187-.198.221-.183-.217-.263.244c.11-.24.189-.456.213-.767.295.241.979.203 1.267-.011m-.744-.147v.167h.23V8.15c.1.001.207.003.304.022a.48.48 0 0 1 .193.077c-.258.283-1.221.198-1.23-.004a.477.477 0 0 1 .185-.073c.1-.02.212-.021.318-.023zM11.743 7c.087 0 .151.033.151.072 0 .028-.034.053-.086.065l-.001.009.626.322-.399.13.292.39-.517-.253.001.553h-.152l-.001-1.157c-.04-.013-.066-.035-.066-.06 0-.038.064-.071.152-.071"/><rect width="23" height="17" x=".5" y="3.5" stroke="#100f0e" opacity=".1" rx="2"/></g></svg>
