<svg xmlns="http://www.w3.org/2000/svg" viewBox="0 0 24 24"><linearGradient id="a" x1="50%" x2="50%" y1="0%" y2="100%"><stop offset="0" stop-color="#fff"/><stop offset="1" stop-color="#f0f0f0"/></linearGradient><g fill="none" fill-rule="evenodd"><rect width="24" height="18" y="3" fill="#003791" rx="2"/><path fill="#ff082a" d="M0 8h24v8H0z"/><path fill="url(#a)" fill-rule="nonzero" d="M9 12h1v3H8zm1 0h4v3h-4zm4 0h1l1 3h-2zm0-1.323c0-.374.232-.677.5-.677.276 0 .5.295.5.677V12h-1zm-4-.109h1.333v-.82c0-.413.31-.748.667-.748.368 0 .667.333.667.747v.821H14V12h-4zm-1 .11c0-.375.232-.678.5-.678.276 0 .5.295.5.677V12H9z"/><rect width="23" height="17" x=".5" y="3.5" stroke="#100f0e" opacity=".1" rx="2"/></g></svg>
