<svg xmlns="http://www.w3.org/2000/svg" viewBox="0 0 24 24"><mask id="a" fill="#fff"><rect width="24" height="18" fill-rule="evenodd" rx="2"/></mask><g fill="none" fill-rule="evenodd"><path fill="#ff082a" d="M0 19.003A2 2 0 0 0 2.005 21h19.99A2 2 0 0 0 24 19V4L0 12z"/><path fill="#217241" d="M0 18.5 24 6v-.999A2.003 2.003 0 0 0 21.995 3H2.005C.898 3 0 3.9 0 4.995z"/><path fill="#ffd000" d="M1.77 21 26.362 5.632 21.593-2-3 13.368z" mask="url(#a)" transform="translate(0 3)"/><path fill="#000" d="M.71 19.304 25.302 3.936l-2.65-4.24L-1.94 15.064z" mask="url(#a)" transform="translate(0 3)"/><path fill="#fcfbfa" d="m16.413 10.848-.709 1.123-.46-1.246-1.287-.327L15 9.575l-.087-1.325 1.105.738 1.234-.492-.36 1.278.848 1.022zm-8 4.85-.709 1.123-.46-1.246-1.287-.327L7 14.425 6.913 13.1l1.105.738 1.234-.492-.36 1.278.848 1.022z"/><rect width="23" height="17" x=".5" y="3.5" stroke="#100f0e" opacity=".1" rx="2"/></g></svg>
