<svg xmlns="http://www.w3.org/2000/svg" viewBox="0 0 24 24"><mask id="a" fill="#fff"><rect width="24" height="18" fill-rule="evenodd" rx="2"/></mask><g fill="none" fill-rule="evenodd"><path fill="#e70a2d" d="M2 5.007A2 2 0 0 1 3.991 3H22.01C23.109 3 24 3.895 24 4.994V19L2 11.47z"/><path fill="#e70a2d" d="M0 5.5 23 18v.999A2.005 2.005 0 0 1 21 21H2c-1.104 0-2-.9-2-1.995z"/><path fill="#fcfbfa" d="M1.71 21 26 5.632 21.29-2-3 13.368z" mask="url(#a)" transform="matrix(1 0 0 -1 0 21)"/><path fill="#000" d="M.626 20 25 4.34l-2-5.69L-3 15.5z" mask="url(#a)" transform="matrix(1 0 0 -1 0 21)"/><rect width="23" height="17" x=".5" y="3.5" stroke="#100f0e" opacity=".1" rx="2"/></g></svg>
