<svg xmlns="http://www.w3.org/2000/svg" xmlns:xlink="http://www.w3.org/1999/xlink" viewBox="0 0 24 24"><defs><rect id="a" width="24" height="18" rx="2"/><mask id="b" fill="#fff"><use xlink:href="#a" fill-rule="evenodd"/></mask></defs><g fill="none" fill-rule="evenodd"><g transform="translate(0 3)"><use xlink:href="#a" fill="#0a17a7"/><rect width="24" height="18" fill="#003d8a" mask="url(#b)" rx="2"/><path fill="#fff" d="M15 0v6h9v6h-9v6H9v-6H0V6h9V0z" mask="url(#b)"/><path stroke="#fff" stroke-width="3" d="M24 0 0 18" mask="url(#b)"/><path fill="#c74634" d="m23.7-.4.6.8-24 18-.6-.8z" mask="url(#b)"/><path stroke="#fff" stroke-width="3" d="M24 0 0 18" mask="url(#b)" transform="matrix(-1 0 0 1 24 0)"/><g fill="#e93526"><path d="m23.7-.4.6.8-24 18-.6-.8z" mask="url(#b)" transform="matrix(-1 0 0 1 24 0)"/><path d="M14 0v7h10v4H14v7h-4v-7H0V7h10V0z" mask="url(#b)"/></g></g><rect width="23" height="17" x=".5" y="3.5" stroke="#100f0e" opacity=".1" rx="2"/></g></svg>