<svg xmlns="http://www.w3.org/2000/svg" viewBox="0 0 24 24"><g fill="none" fill-rule="evenodd"><g transform="matrix(-1 0 0 1 24 3)"><rect width="24" height="18" fill="#0a5da7" rx="2"/><path fill="#008100" d="M0 1.995A2 2 0 0 1 2.005 0h19.99c1.107 0 1.287.539.412 1.195L1.593 16.805c-.88.66-1.593.302-1.593-.8z"/></g><path fill="#fcfbfa" d="m4.5 16 .353 1.014 1.074.022-.855.65.31 1.028L4.5 18.1l-.882.613.31-1.028-.855-.65 1.074-.022zM6 14v1H5v-1zm-4.5-3 .353 1.014 1.074.022-.855.65.31 1.028L1.5 13.1l-.882.613.31-1.028-.855-.65 1.074-.022zm3-2 .353 1.014 1.074.022-.855.65.248.826L5.5 11l.353 1.014 1.074.022-.855.65.31 1.028L5.5 13.1l-.882.613.31-1.028-.855-.65 1.074-.022.13-.374L4.5 11.1l-.882.613.31-1.028-.855-.65 1.074-.022z"/><path fill="#fee200" d="M16.464 10.51s2.712-.423 3.036-1.617c.324-1.195-2.581-2.05-2.696-2.48-.115-.43 1.067-.125 1.59 0 .506.121 1.497.737 1.497.737s-.012-.848-.148-1.24c-.226-.658-.938-1.91-.938-1.91s1.207.73 1.725 1.314c.297.334.408 1.842.775 2.359.657.924 2.188-.108 1.537.872-.65.98-2.146 1.113-3.342 1.542-1.085.39-3.5.913-3.5.913zM12 15a3 3 0 1 1 0-6 3 3 0 0 1 0 6m-1.656-3-.344.667s1.119-.253 1.497 0C12.01 13.008 12 14 12 14h.667s-.218-.973.124-1.657S14 11.333 14 11.333V10s-.908.97-2 1.333c-1.092.364-2 0-2 0z"/><rect width="23" height="17" x=".5" y="3.5" stroke="#100f0e" opacity=".1" rx="2"/></g></svg>
