<svg xmlns="http://www.w3.org/2000/svg" xmlns:xlink="http://www.w3.org/1999/xlink" viewBox="0 0 24 24"><defs><mask id="b" fill="#fff"><ellipse cx="1.8" cy="1.2" fill-rule="evenodd" rx="1.8" ry="1.2"/></mask><mask id="c" fill="#fff"><ellipse cx="1.8" cy="1.2" fill-rule="evenodd" rx="1.8" ry="1.2"/></mask><mask id="d" fill="#fff"><ellipse cx="1.8" cy="1.2" fill-rule="evenodd" rx="1.8" ry="1.2"/></mask><mask id="e" fill="#fff"><ellipse cx="1.8" cy="1.2" fill-rule="evenodd" rx="1.8" ry="1.2"/></mask><mask id="f" fill="#fff"><ellipse cx="1.8" cy="1.2" fill-rule="evenodd" rx="1.8" ry="1.2"/></mask><mask id="g" fill="#fff"><ellipse cx="1.8" cy="1.2" fill-rule="evenodd" rx="1.8" ry="1.2"/></mask><mask id="h" fill="#fff"><use xlink:href="#a" fill-rule="evenodd"/></mask><mask id="i" fill="#fff"><ellipse cx="1.8" cy="1.2" fill-rule="evenodd" rx="1.8" ry="1.2"/></mask><mask id="j" fill="#fff"><ellipse cx="1.8" cy="1.2" fill-rule="evenodd" rx="1.8" ry="1.2"/></mask><mask id="k" fill="#fff"><ellipse cx="1.8" cy="1.2" fill-rule="evenodd" rx="1.8" ry="1.2"/></mask><linearGradient id="l" x1="50%" x2="50%" y1="0%" y2="100%"><stop offset="0" stop-color="#fff"/><stop offset="1" stop-color="#f0f0f0"/></linearGradient><ellipse id="a" cx="1.8" cy="1.2" rx="1.8" ry="1.2"/></defs><g fill="none" fill-rule="evenodd"><rect width="24" height="18" y="3" fill="#008e33" rx="2"/><path fill="#c74634" d="M3.5 3h3.6v18H3.5z"/><ellipse cx="5.3" cy="5.4" fill="#fff" fill-rule="nonzero" rx="1.8" ry="1.2"/><circle cx="1.8" cy="1.2" r="1.2" fill="#ff0726" mask="url(#b)" transform="translate(3.5 4.2)"/><path fill="#ffd500" d="M0 0h1.8v1.2H0z" mask="url(#c)" transform="translate(3.5 4.2)"/><path fill="#ffd500" d="M1.8 1.2h1.8v1.2H1.8z" mask="url(#d)" transform="translate(3.5 4.2)"/><ellipse cx="5.3" cy="18.6" fill="#fff" fill-rule="nonzero" rx="1.8" ry="1.2"/><circle cx="1.8" cy="1.2" r="1.2" fill="#ff082a" mask="url(#e)" transform="translate(3.5 17.4)"/><path fill="#ffd500" d="M0 0h1.8v1.2H0z" mask="url(#f)" transform="translate(3.5 17.4)"/><path fill="#ffd500" d="M1.8 1.2h1.8v1.2H1.8z" mask="url(#g)" transform="translate(3.5 17.4)"/><g transform="translate(3.5 11.4)"><use xlink:href="#a" fill="#759c6c"/><circle cx="1.8" cy="1.2" r="1.2" fill="#f40825" mask="url(#h)"/></g><ellipse cx="5.3" cy="15.6" fill="#008f25" rx="1.8" ry="1.2"/><circle cx="1.8" cy="1.2" r="1.2" fill="#ff082a" mask="url(#i)" transform="translate(3.5 7.8)"/><path fill="#008f25" fill-rule="nonzero" d="M0 0h1.2v2.4H0z" mask="url(#j)" transform="translate(3.5 7.8)"/><path fill="#008f25" d="M2.4 0h1.2v2.4H2.4zM0 0h1.2v2.4H0z" mask="url(#k)" transform="translate(3.5 7.8)"/><g fill="url(#l)" fill-rule="nonzero"><path d="M13.993 5.194a.6.6 0 1 0 .92.771.6.6 0 0 0-.92-.771M11.867 7.94a.6.6 0 1 0-.772.92.6.6 0 0 0 .772-.92m-1.862-1.8a.6.6 0 1 0-.771.92.6.6 0 0 0 .771-.92m2.881-2.094a.6.6 0 1 0-.772.92.6.6 0 0 0 .772-.92m0 1.966a.6.6 0 1 0-.772.92.6.6 0 0 0 .772-.92"/><path d="M15.647 10.03a3.672 3.672 0 0 1-5.57-.44 3.673 3.673 0 0 0 5.13-5.13 3.672 3.672 0 0 1 .44 5.57"/></g><rect width="23" height="17" x=".5" y="3.5" stroke="#100f0e" opacity=".1" rx="2"/></g></svg>