<svg xmlns="http://www.w3.org/2000/svg" viewBox="0 0 24 24"><g fill="none" fill-rule="evenodd"><path d="M0 0h24v24H0z"/><path fill="#28b2ec" d="M24 4.997A2 2 0 0 0 21.995 3H2.005A2.002 2.002 0 0 0 0 4.997V12h24z"/><path fill="#facd62" d="M24 16H0v-4h24z"/><path fill="#467146" d="M24 16H0v2.995C0 20.102.897 21 2.005 21h19.99A2.003 2.003 0 0 0 24 18.995z"/><path fill="#facd62" d="m18.569 9.17-1.278 1.415.097-1.904-1.904.097L16.899 7.5l-1.415-1.278 1.904.097-.097-1.904 1.278 1.415 1.277-1.415-.097 1.904 1.904-.097L20.238 7.5l1.415 1.278-1.904-.097.097 1.904z"/><rect width="23" height="17" x=".5" y="3.5" stroke="#100f0e" opacity=".1" rx="2"/></g></svg>
