<svg xmlns="http://www.w3.org/2000/svg" viewBox="0 0 24 24"><linearGradient id="a" x1="50%" x2="50%" y1="0%" y2="100%"><stop offset="0" stop-color="#fff"/><stop offset="1" stop-color="#f0f0f0"/></linearGradient><g fill="none" fill-rule="evenodd"><path fill="#e93526" d="M0 12h24V4.997A2 2 0 0 0 21.995 3H2.005A2.002 2.002 0 0 0 0 4.997z"/><path fill="#fcfbfa" d="M0 19.003A2 2 0 0 0 2.005 21h19.99A2.002 2.002 0 0 0 24 19.003V12H0z"/><g fill="#fff"><path d="m11 6.801-1.176.817.414-1.37-1.14-.866 1.431-.03L11 4l.471 1.352 1.431.03-1.14.866.414 1.37z"/><path d="m8 8.801-1.176.817.414-1.37-1.14-.866 1.431-.03L8 6l.471 1.352 1.431.03-1.14.866.414 1.37zm6 0-1.176.817.414-1.37-1.14-.866 1.431-.03L14 6l.471 1.352 1.431.03-1.14.866.414 1.37z"/><path d="m11 10.801-1.176.817.414-1.37-1.14-.866 1.431-.03L11 8l.471 1.352 1.431.03-1.14.866.414 1.37z"/></g><path fill="url(#a)" fill-rule="nonzero" d="M6 .766A3.223 3.223 0 0 0 4.924.583c-1.7 0-3.077 1.306-3.077 2.917s1.378 2.917 3.077 2.917c.379 0 .741-.065 1.076-.183A3.806 3.806 0 0 1 3.693 7C1.653 7 0 5.433 0 3.5S1.654 0 3.693 0A3.81 3.81 0 0 1 6 .766" transform="translate(2 4)"/><rect width="23" height="17" x=".5" y="3.5" stroke="#100f0e" opacity=".1" rx="2"/></g></svg>
