<svg xmlns="http://www.w3.org/2000/svg" viewBox="0 0 24 24"><g fill="none" fill-rule="evenodd"><rect width="24" height="18" y="3" fill="#0a5da7" rx="2"/><path fill="#fcfbfa" d="M0 11h24v6H0z"/><path fill="#c74634" d="M0 13h24v2H0z"/><path fill="#facd62" d="M9 17a1 1 0 1 1 0 2 1 1 0 0 1 0-2m3-1a1 1 0 1 1 0 2 1 1 0 0 1 0-2m-6 0a1 1 0 1 1 0 2 1 1 0 0 1 0-2m7-3a1 1 0 1 1 0 2 1 1 0 0 1 0-2m-8 0a1 1 0 1 1 0 2 1 1 0 0 1 0-2m7-3a1 1 0 1 1 0 2 1 1 0 0 1 0-2m-6 0a1 1 0 1 1 0 2 1 1 0 0 1 0-2m3-1a1 1 0 1 1 0 2 1 1 0 0 1 0-2"/><rect width="23" height="17" x=".5" y="3.5" stroke="#100f0e" opacity=".1" rx="2"/></g></svg>
