<svg xmlns="http://www.w3.org/2000/svg" viewBox="0 0 24 24"><linearGradient id="a" x1="50%" x2="50%" y1="0%" y2="100%"><stop offset="0" stop-color="#fdd33f"/><stop offset="1" stop-color="#fed02f"/></linearGradient><g fill="none" fill-rule="evenodd"><rect width="24" height="18" y="3" fill="#0024a5" rx="2"/><g fill-rule="nonzero"><path fill="url(#a)" d="M1 10h15v1H0zm7.5-6c3-2 6.5-4 6.5-4s-1.643 3.073-1.5 4.5C13.69 6.407 16 9 16 9H2s3.5-3 6.5-5" transform="translate(6 7)"/><path fill="#fff" d="m6.417 14.057-.707.207.207-.707-.207-.708.707.208.707-.208-.207.708.207.707zm3-5-.707.207.207-.707-.207-.708.707.208.707-.208-.207.708.207.707zm-6 0-.707.207.207-.707-.207-.708.707.208.707-.208-.207.708.207.707zm3-3-.707.207.207-.707-.207-.708.707.208.707-.208-.207.708.207.707z"/></g><rect width="23" height="17" x=".5" y="3.5" stroke="#100f0e" opacity=".1" rx="2"/></g></svg>
