<svg xmlns="http://www.w3.org/2000/svg" viewBox="0 0 24 24"><linearGradient id="a" x1="50%" x2="50%" y1="0%" y2="100%"><stop offset="0" stop-color="#fff"/><stop offset="1" stop-color="#f0f0f0"/></linearGradient><g fill="none" fill-rule="evenodd"><g transform="translate(0 3)"><rect width="24" height="18" fill="#e70a2d" rx="2"/><path fill="#001b9a" d="M0 0h13v9H0z"/><path fill="url(#a)" fill-rule="nonzero" d="M5.707 7.207 5 7.414l.207-.707L5 6l.707.207L6.414 6l-.207.707.207.707zm0-5L5 2.414l.207-.707L5 1l.707.207L6.414 1l-.207.707.207.707zm-2 2.5L3 4.914l.207-.707L3 3.5l.707.207.707-.207-.207.707.207.707zm4.5-.5-.707.207.207-.707L7.5 3l.707.207L8.914 3l-.207.707.207.707zM7.5 6a.5.5 0 1 0 0-1 .5.5 0 0 0 0 1"/></g><rect width="23" height="17" x=".5" y="3.5" stroke="#100f0e" opacity=".1" rx="2"/></g></svg>
