<svg xmlns="http://www.w3.org/2000/svg" viewBox="0 0 24 24"><mask id="a" fill="#fff"><rect width="24" height="18" y="3" fill-rule="evenodd" rx="2"/></mask><g fill="none" fill-rule="evenodd"><rect width="24" height="18" y="3" fill="#001bb0" rx="2"/><path fill="#fff" d="M8 10h16v5H8z"/><path fill="#e70a2d" d="M2 3h20a2 2 0 0 1 2 2v5H2a2 2 0 0 1-2-2V5a2 2 0 0 1 2-2" mask="url(#a)"/><path fill="#000" d="m0 3 9 9.515L0 22z" mask="url(#a)"/><path fill="#467146" d="M1 4h1v1H1zM0 3h1v1H0zm10 8h14v3H10zM2 6h1v1H2zM1 5h1v1H1zM0 4h1v1H0zm3 3h1v1H3zm6 4h1v3H9zm-2 0h1v1H7z" mask="url(#a)"/><path fill="#000" d="M8 11.109h1v1H8z" mask="url(#a)"/><path fill="#467146" d="M7 10h1v1H7zm1 0h1v1H8zM7 9h1v1H7zM6 8h1v1H6zM5 7h1v1H5zM4 6h1v1H4zM3 5h1v1H3zM1 3h1v1H1zm1 1h1v1H2zm5 10h1v1H7zm1 0h1v1H8zm-1 1h1v1H7zm-1 1h1v1H6zm-1 1h1v1H5zm-1 1h1v1H4zm-1 1h1v1H3zm-1 1h1v1H2z" mask="url(#a)"/><path fill="#fff" d="M3 20h1v1H3zm1-1h1v1H4zm1-1h1v1H5zm1-1h1v1H6zm1-1h1v1H7zm1-1h1v1H8zm1 0h1v1H9zm-1 1h1v1H8zm-1 1h1v1H7zm-1 1h1v1H6zm-1 1h1v1H5zm-1 1h1v1H4z" mask="url(#a)"/><path fill="#facd62" d="M6 13h1v1H6zm0-1h1v1H6zm-1-1h1v1H5zm-1-1h1v1H4zM3 9h1v1H3zM2 8h1v1H2zM1 7h1v1H1zM0 6h1v1H0zm5 8h1v1H5zm-1 0h1v1H4zm-1 1h1v1H3zm-1 1h1v1H2zm-1 1h1v1H1zm-1 1h1v1H0zm5-5h1v1H5zm-1 2h1v1H4zm-1 1h1v1H3zm-1 1h1v1H2zm-1 1h1v1H1zm-1 1h1v1H0zm7-7h1v1H7zm-1-1h1v1H6zm-1-1h1v1H5zM4 9h1v1H4zM3 8h1v1H3zM2 7h1v1H2zM1 6h1v1H1zM0 5h1v1H0z" mask="url(#a)"/><path fill="#fff" d="M8 9h1v1H8zm1 0h1v1H9zM8 8h1v1H8zM7 7h1v1H7zM6 6h1v1H6zM5 5h1v1H5zM4 4h1v1H4zM3 3h1v1H3zm4 5h1v1H7zM6 7h1v1H6zM5 6h1v1H5zM4 5h1v1H4zM3 4h1v1H3zM2 3h1v1H2z" mask="url(#a)"/><path fill="#467146" d="M6 15h1v1H6zm-1 1h1v1H5zm-1 1h1v1H4zm-1 1h1v1H3zm-1 1h1v1H2zM6 9h1v1H6zM5 8h1v1H5zM4 7h1v1H4zM3 6h1v1H3zM2 5h1v1H2zM1 20h1v1H1zm-1 0h1v1H0zm7-7h1v1H7zm1-2h1v3H8zm-2 3h1v1H6zm-1 1h1v1H5zm-1 1h1v1H4zm-1 1h1v1H3zm-1 1h1v1H2zm-1 1h1v1H1zm5-9h1v1H6zM4 8h1v1H4zm1 1h1v1H5z" mask="url(#a)"/><rect width="23" height="17" x=".5" y="3.5" stroke="#100f0e" opacity=".1" rx="2"/></g></svg>
