<svg xmlns="http://www.w3.org/2000/svg" viewBox="0 0 24 24"><g fill="none" fill-rule="evenodd"><path fill="#e70a2d" d="M0 8h24V5.005A2.005 2.005 0 0 0 21.995 3H2.005A2.003 2.003 0 0 0 0 5.005zm0 10.995C0 20.102.897 21 2.005 21h19.99A2.003 2.003 0 0 0 24 18.995V16H0z"/><path fill="#facd62" d="M0 8h24v8H0z"/><path fill="#c74634" d="M6.893 11c.335 0 .585.288.557.66l-.15 2.008C7.245 14.404 6.667 15 6 15c-.663 0-1.244-.59-1.3-1.332l-.15-2.007c-.028-.365.227-.661.557-.661zM4.2 10.333V15H3v-4.667zm4.8 0V15H7.8v-4.667zM6.747 13H6.6L6 14.333c.353 0 .673-.328.702-.72zM5.4 13l-.148-.001.046.614c.03.394.35.72.702.72zm1.448-1.333H5.152l.05.666h1.595zM6.594 9c.335 0 .606.31.606.667v.33c0 .186-.129.336-.294.336H5.094c-.162 0-.294-.142-.294-.336v-.33c0-.369.257-.667.606-.667z"/><rect width="23" height="17" x=".5" y="3.5" stroke="#100f0e" opacity=".1" rx="2"/></g></svg>
