<svg xmlns="http://www.w3.org/2000/svg" viewBox="0 0 24 24"><g fill="none" fill-rule="evenodd"><rect width="21" height="18" x="3" y="3" fill="#008b4b" rx="2"/><g fill="#fcfbfa"><path d="M19.212 12.707a4.182 4.182 0 0 1-1.203 2.546c-1.684 1.684-4.474 1.625-6.232-.132-1.757-1.757-1.816-4.548-.132-6.232a4.182 4.182 0 0 1 2.546-1.203 4.165 4.165 0 0 0-.83.645c-1.532 1.531-1.607 3.938-.17 5.376 1.438 1.438 3.845 1.362 5.377-.17.255-.255.47-.534.644-.83m-1.933-1.984-.24 1.424-.666-1.28-1.428.212 1.012-1.03-.644-1.292 1.292.644 1.03-1.012-.213 1.428 1.28.667z"/><path d="M19.212 12.707a4.182 4.182 0 0 1-1.203 2.546c-1.684 1.684-4.474 1.625-6.232-.132-1.757-1.757-1.816-4.548-.132-6.232a4.182 4.182 0 0 1 2.546-1.203 4.165 4.165 0 0 0-.83.645c-1.532 1.531-1.607 3.938-.17 5.376 1.438 1.438 3.845 1.362 5.377-.17.255-.255.47-.534.644-.83m-1.933-1.984-.24 1.424-.666-1.28-1.428.212 1.012-1.03-.644-1.292 1.292.644 1.03-1.012-.213 1.428 1.28.667z"/></g><path fill="#fcfbfa" d="M0 19.005C0 20.107.898 21 1.998 21H6V3H1.998A1.996 1.996 0 0 0 0 4.995z"/><rect width="23" height="17" x=".5" y="3.5" stroke="#100f0e" opacity=".1" rx="2"/></g></svg>
