<svg xmlns="http://www.w3.org/2000/svg" viewBox="0 0 24 24"><linearGradient id="a" x1="50%" x2="50%" y1="0%" y2="100%"><stop offset="0" stop-color="#fff"/><stop offset="1" stop-color="#f0f0f0"/></linearGradient><linearGradient id="b" x1="50%" x2="50%" y1="0%" y2="100%"><stop offset="0" stop-color="#262626"/><stop offset="1" stop-color="#0d0d0d"/></linearGradient><mask id="c" fill="#fff"><ellipse cx="7.088" cy="3" fill-rule="evenodd" rx="7.088" ry="3"/></mask><mask id="d" fill="#fff"><ellipse cx="7.088" cy="3" fill-rule="evenodd" rx="7.088" ry="3"/></mask><mask id="e" fill="#fff"><ellipse cx="7.088" cy="3" fill-rule="evenodd" rx="7.088" ry="3"/></mask><g fill="none" fill-rule="evenodd"><path fill="#0a5da7" d="M0 19c0 1.105.897 2 2.005 2h19.99A1.998 1.998 0 0 0 24 19v-2H0zM0 7h24V5c0-1.105-.897-2-2.005-2H2.005A1.998 1.998 0 0 0 0 5z"/><path fill="#facd62" d="M0 7h24v10H0z"/><path fill="#c74634" d="M0 8h24v8H0z"/><g fill-rule="nonzero" transform="translate(4.5 9)"><ellipse cx="7.088" cy="3" fill="url(#a)" rx="7.088" ry="3"/><path fill="url(#b)" d="M0 0h7.876v6h-6.3z" mask="url(#c)" transform="matrix(-1 0 0 1 7.876 0)"/><ellipse cx="8.663" cy="3" fill="#1a1a1a" mask="url(#d)" rx="1.575" ry="1.2"/><ellipse cx="5.513" cy="3" fill="#f6f6f6" mask="url(#e)" rx="1.575" ry="1.2"/></g><rect width="23" height="17" x=".5" y="3.5" stroke="#100f0e" opacity=".1" rx="2"/></g></svg>
