<svg xmlns="http://www.w3.org/2000/svg" xmlns:xlink="http://www.w3.org/1999/xlink" viewBox="0 0 24 24"><linearGradient id="b" x1="50%" x2="50%" y1="0%" y2="100%"><stop offset="0" stop-color="#fff"/><stop offset="1" stop-color="#f0f0f0"/></linearGradient><mask id="c" fill="#fff"><rect width="8" height="6" fill-rule="evenodd" rx=".5"/></mask><mask id="d" fill="#fff"><use xlink:href="#a" fill-rule="evenodd"/></mask><mask id="e" fill="#fff"><rect width="8" height="6" fill-rule="evenodd" rx=".5"/></mask><g fill="none" fill-rule="evenodd"><path fill="#0a5da7" d="M0 12h24V4.997A2 2 0 0 0 21.995 3H2.005A2.002 2.002 0 0 0 0 4.997z"/><path fill="#ff082a" d="M0 19.003A2 2 0 0 0 2.005 21h19.99A2.002 2.002 0 0 0 24 19.003V12H0z"/><g transform="translate(8 9)"><rect width="8" height="6" fill="url(#b)" fill-rule="nonzero" rx=".5"/><g mask="url(#c)"><g transform="translate(0 4)"><path id="a" fill="#aabcae" d="M0 1 1.263.447C1.828.2 2.792 0 3.427 0h1.146c.63 0 1.604.202 2.164.447L8 1v1H0z"/></g><path stroke="#366c14" stroke-width=".5" d="M.286 5.155v.595h7.428v-.595L6.61 4.67c-.522-.228-1.452-.421-2.036-.421H3.427c-.59 0-1.51.19-2.036.421z"/></g><ellipse cx="4" cy="2.5" fill="#d4b872" fill-rule="nonzero" mask="url(#d)" rx="1.714" ry="1.5"/><g mask="url(#d)"><path fill="#c28321" d="M1.143 3.006c0-.28.205-.362.446-.193l1.965 1.375a.843.843 0 0 0 .892 0l1.965-1.375c.246-.173.446-.082.446.193v1.488c0 .28-.245.506-.569.506H1.712c-.314 0-.57-.23-.57-.506z"/><path stroke="#0d3488" stroke-width=".5" d="M1.429 3.02v1.474c0 .14.13.256.283.256h4.576c.16 0 .283-.11.283-.256V3.02L4.625 4.383c-.347.243-.9.244-1.25 0z"/></g><path fill="#216c30" fill-rule="nonzero" d="M2.482 1.172C2.374 1.077 2.416 1 2.578 1h2.844c.161 0 .2.08.096.172L4.197 2.328a.311.311 0 0 1-.394 0z" mask="url(#e)"/></g><rect width="23" height="17" x=".5" y="3.5" stroke="#100f0e" opacity=".1" rx="2"/></g></svg>