<svg xmlns="http://www.w3.org/2000/svg" viewBox="0 0 24 24"><mask id="a" fill="#fff"><rect width="24" height="18" y="3" fill-rule="evenodd" rx="2"/></mask><g fill="none" fill-rule="evenodd"><rect width="24" height="18" y="3" fill="#008b4b" rx="2"/><path fill="#000" d="M9 11h15v3H9z"/><path fill="#e93526" d="M2 3h20a2 2 0 0 1 2 2v6H2a2 2 0 0 1-2-2V5a2 2 0 0 1 2-2" mask="url(#a)"/><path fill="#000" d="m0 3 9 9.515L0 22zm2 1h1v1H2z" mask="url(#a)"/><path fill="#facd62" d="M10 12h14v1H10zM2 6h1v1H2zm1 0h1v1H3zM1 5h1v1H1zm1 0h1v1H2zM0 4h1v1H0zm1 0h1v1H1zM0 3h1v1H0zm3 4h1v1H3zm1 0h1v1H4zm5 5h1v1H9zm-2-1h1v1H7zm1 0h1v1H8zm0 2h1v1H8z" mask="url(#a)"/><g fill="#000"><path d="M8 10h1v1H8zm0-1h1v1H8zM7 8h1v1H7zM6 7h1v1H6zM5 6h1v1H5zM4 5h1v1H4zM3 4h1v1H3zM2 3h1v1H2zm7 7h1v1H9zm-1 4h1v1H8zm1 0h1v1H9zm-2 1h1v1H7zm1 0h1v1H8zm-2 1h1v1H6zm1 0h1v1H7zm-2 1h1v1H5z" mask="url(#a)"/><path d="M5 17h1v1H5zm1 0h1v1H6zm-2 1h1v1H4zm1 0h1v1H5zm-2 1h1v1H3zm1 0h1v1H4zM7 9h1v1H7zM6 8h1v1H6zM5 7h1v1H5zM4 6h1v1H4zM3 5h1v1H3zM1 3h1v1H1zm1 17h1v1H2zm1 0h1v1H3z" mask="url(#a)"/></g><path fill="#facd62" d="M7 13h1v1H7zm1-1h1v1H8zm-2 2h1v1H6zm1 0h1v1H7zm-1 1h1v1H6z" mask="url(#a)"/><path fill="#facd62" d="M6 15h1v1H6zm-1 0h1v1H5zm-1 1h1v1H4zm1 0h1v1H5zm-2 1h1v1H3zm1 0h1v1H4zm-2 1h1v1H2zm1 0h1v1H3zm-2 1h1v1H1zm1 0h1v1H2zm-1 1h1v1H1zm-1 0h1v1H0zm6-10h1v1H6zm1 0h1v1H7zM4 8h1v1H4zm1 0h1v1H5zm0 1h1v1H5zm1 0h1v1H6z" mask="url(#a)"/><path stroke="#facd62" d="M3.5 12.69c-.467.333-1 .992-1.5.686-.827-.506-.231-2.904.799-2.904s3.716 1.714.701 4.028"/><rect width="23" height="17" x=".5" y="3.5" stroke="#100f0e" opacity=".1" rx="2"/></g></svg>
