<svg xmlns="http://www.w3.org/2000/svg" viewBox="0 0 24 24"><defs><style>.cls-2,.cls-3{stroke-width:0}.cls-2{fill:#0051ab}.cls-3{fill:#fcfbfa}</style></defs><path d="M0 5c0-1.1.9-2 2-2h20c1.1 0 2 .9 2 2v14c0 1.1-.9 2-2 2H2c-1.1 0-2-.9-2-2z" style="fill:#e70a2d;stroke-width:0"/><path d="M0 10h24v4H0z" class="cls-3"/><path d="M8 3h4v18H8z" class="cls-3"/><path d="M0 11h24v2H0z" class="cls-2"/><path d="M9 3h2v18H9z" class="cls-2"/><path d="M22 4H2c-.6 0-1 .4-1 1v14c0 .6.4 1 1 1h20c.6 0 1-.4 1-1V5c0-.6-.4-1-1-1M2 3C.9 3 0 3.9 0 5v14c0 1.1.9 2 2 2h20c1.1 0 2-.9 2-2V5c0-1.1-.9-2-2-2z" style="stroke-width:0;fill:#100f0e;fill-rule:evenodd;isolation:isolate;opacity:.1"/></svg>
