<svg viewBox="0 0 256 164" xmlns="http://www.w3.org/2000/svg"><path d="M0 2C0 .9.9 0 2 0h252c1.1 0 2 .9 2 2v160a2 2 0 0 1-2 2H2c-1.1 0-2-.9-2-2z" fill="#c2c2c2"/><path d="M13 1H2a1 1 0 0 0-1 1v11h12zm241 0H14v12h241V2a1 1 0 0 0-1-1zM1 74h38v89H2a1 1 0 0 1-1-1z" fill="#ebebeb"/><path d="M5 5h4v1H5zm0 3h4v1H5z" fill="#c2c2c2"/><path d="M1 14h38v11H1zm0 12h38v11H1zm0 12h38v11H1zm0 12h38v11H1zm0 12h38v11H1z" fill="#ebebeb"/><path d="M40 41h175v122H40z" fill="#fafafa"/><path d="M40 14h164v11h11v15H40z" fill="#fff"/><path d="M205 14h10v10h-10zm11 0v149h38a1 1 0 0 0 1-1V14z" fill="#fafafa"/><path d="M208 17h4v1h-4zm0 3h4v1h-4z" fill="#c2c2c2"/></svg>