<svg viewBox="0 0 512 512" xmlns="http://www.w3.org/2000/svg" xmlns:xlink="http://www.w3.org/1999/xlink"><defs><path id="a" d="m159.497 180.015a30 30 0 0 0 -40.983-10.977l-19.017 10.989-84.9-49.018c-14.058-8.42-18.765-26.56-10.574-40.752 8.19-14.193 26.25-19.194 40.574-11.236l103.923 60a30 30 0 0 1 10.977 40.994z"/><filter id="b" height="115.3%" width="104.9%" x="-2.4%" y="-3.8%"><feOffset dy="8" in="SourceAlpha" result="shadowOffsetOuter1"/><feColorMatrix in="shadowOffsetOuter1" values="0 0 0 0 0 0 0 0 0 0 0 0 0 0 0 0 0 0 0.1 0"/></filter><path id="c" d="m160.247 180.015a29.99 29.99 0 0 0 -30 30v21.969l-84.9 49.02c-14.349 8.211-32.636 3.274-40.902-11.043s-3.399-32.623 10.887-40.944l103.924-60a30 30 0 0 1 40.99 10.998z"/><filter id="d" height="113.3%" width="105%" x="-2.5%" y="-3.3%"><feOffset dy="8" in="SourceAlpha" result="shadowOffsetOuter1"/><feColorMatrix in="shadowOffsetOuter1" values="0 0 0 0 0 0 0 0 0 0 0 0 0 0 0 0 0 0 0.1 0"/></filter><path id="e" d="m160.247 180.015a29.99 29.99 0 0 0 10.986 40.98l19.029 10.981v98.039c0 16.577-13.438 30.015-30.015 30.015s-30.015-13.438-30.015-30.015v-120a30 30 0 0 1 30.015-30z"/><filter id="f" height="108.9%" width="113.3%" x="-6.7%" y="-2.2%"><feOffset dy="8" in="SourceAlpha" result="shadowOffsetOuter1"/><feColorMatrix in="shadowOffsetOuter1" values="0 0 0 0 0 0 0 0 0 0 0 0 0 0 0 0 0 0 0.1 0"/></filter><path id="g" d="m160.247 180.015a30 30 0 0 0 40.983 10.977l19.024-10.989 84.9 49.019c14.14 8.385 18.903 26.584 10.685 40.82-8.218 14.238-26.359 19.216-40.692 11.167l-103.923-60a30 30 0 0 1 -10.977-40.994z"/><filter id="h" height="115.3%" width="104.9%" x="-2.4%" y="-3.8%"><feOffset dy="8" in="SourceAlpha" result="shadowOffsetOuter1"/><feColorMatrix in="shadowOffsetOuter1" values="0 0 0 0 0 0 0 0 0 0 0 0 0 0 0 0 0 0 0.1 0"/></filter><path id="i" d="m159.497 180.015a29.99 29.99 0 0 0 30-30v-21.969l84.9-49.02c14.348-8.211 32.636-3.274 40.902 11.043s3.398 32.623-10.887 40.944l-103.925 60a30 30 0 0 1 -40.99-10.998z"/><filter id="j" height="113.3%" width="105%" x="-2.5%" y="-3.3%"><feOffset dy="8" in="SourceAlpha" result="shadowOffsetOuter1"/><feColorMatrix in="shadowOffsetOuter1" values="0 0 0 0 0 0 0 0 0 0 0 0 0 0 0 0 0 0 0.1 0"/></filter><path id="k" d="m159.497 180.015a29.99 29.99 0 0 0 -10.986-40.98l-19.03-10.981v-98.039c.001-16.577 13.439-30.015 30.017-30.015 16.577 0 30.015 13.438 30.015 30.015v120a30 30 0 0 1 -30.015 30z"/><filter id="l" height="108.9%" width="113.3%" x="-6.7%" y="-2.2%"><feOffset dy="8" in="SourceAlpha" result="shadowOffsetOuter1"/><feColorMatrix in="shadowOffsetOuter1" values="0 0 0 0 0 0 0 0 0 0 0 0 0 0 0 0 0 0 0.1 0"/></filter></defs><g fill="none" fill-rule="evenodd"><g transform="translate(95.253 76.485)"><g><use fill="#000" filter="url(#b)" xlink:href="#a"/><use fill="#bdc3c7" xlink:href="#a"/></g><g><use fill="#000" filter="url(#d)" xlink:href="#c"/><use fill="#f9422a" xlink:href="#c"/></g><g><use fill="#000" filter="url(#f)" xlink:href="#e"/><use fill="#24cb7f" xlink:href="#e"/></g><g><use fill="#000" filter="url(#h)" xlink:href="#g"/><use fill="#4aa4ec" xlink:href="#g"/></g><g><use fill="#000" filter="url(#j)" xlink:href="#i"/><use fill="#ffbe2a" xlink:href="#i"/></g><g><use fill="#000" filter="url(#l)" xlink:href="#k"/><use fill="#fff" xlink:href="#k"/></g></g><path d="m254.75 256.5a30 30 0 0 0 -40.983-10.977l-19.017 10.989-84.9-49.018c-14.058-8.42-18.764-26.56-10.574-40.752 8.19-14.193 26.25-19.194 40.574-11.235l103.923 60a30 30 0 0 1 10.977 40.993z" fill="#bdc3c7"/></g></svg>