<svg xmlns="http://www.w3.org/2000/svg" width="483" height="431"><style>@keyframes fadeIn{0%{transform:scale(1)}}.a{animation:30s ease 1s forwards 1 fadeIn}.a,.b,.c,.d{transform-origin:center}.b{animation:45s ease 2s forwards 1 fadeIn}.c{animation:60s ease 3s forwards 1 fadeIn}.d{animation:115s ease 4s forwards 1 fadeIn}</style><g fill-rule="evenodd" opacity=".75"><circle cx="182" cy="235" r="10" opacity=".96" class="a"/><circle cx="147" cy="87" r="14" opacity=".68" class="a"/><circle cx="201" cy="43" r="14" opacity=".52" class="a"/><circle cx="213" cy="277" r="14" opacity=".88" class="a"/><circle cx="39" cy="307" r="14" opacity=".9" class="a"/><circle cx="391" cy="381" r="14" opacity=".5" class="a"/><circle cx="107" cy="-.825" r="15" opacity=".4" class="a"/><circle cx="291" cy="263" r="15" opacity=".74" class="a"/><circle cx="421" cy="263" r="15" opacity=".72" class="b"/><circle cx="446" cy="182" r="15" opacity=".54" class="b"/><circle cx="62" cy="395" r="15" opacity=".48" class="b"/><circle cx="102" cy="219" r="18" opacity=".7" class="b"/><circle cx="27" cy="182" r="18" opacity=".92" class="b"/><circle cx="167" cy="197" r="19" opacity=".38" class="b"/><circle cx="39" cy="44" r="27" opacity=".98" class="b"/><circle cx="340" cy="185" r="28" opacity=".76" class="c"/><circle cx="452" cy="318" r="31" opacity=".94" class="c"/><circle cx="207" cy="366" r="40" opacity=".84" class="c"/><circle cx="298" cy="74" r="41" opacity=".82" class="c"/><circle cx="250" cy="175" r="46" opacity=".34" class="c"/><circle cx="461" cy="429" r="49" opacity=".32" class="c"/><circle cx="97" cy="273" r="64" opacity=".367" class="d"/><circle cx="128" cy="116" r="66" opacity=".2" class="d"/><circle cx="417" cy="228" r="74" opacity=".065" class="d"/><circle cx="26" cy="422" r="75" opacity=".16" class="d"/><circle cx="330" cy="327" r="80" opacity=".367" class="d"/><circle cx="442" cy="7" r="122" opacity=".14" class="d"/></g></svg>